<?xml version="1.0" encoding="UTF-8"?>
<svg xmlns="http://www.w3.org/2000/svg" version="1.1" viewBox="0 0 496.8 309.6">
  <!-- Generator: Adobe Illustrator 28.6.0, SVG Export Plug-In . SVG Version: 1.2.0 Build 709)  -->
  <g>
    <g id="Layer_1">
      <g>
        <g>
          <polygon points="74.8 139.7 74.8 112.7 90.9 112.7 90.9 45 74.8 45 74.8 16 160.9 16 160.9 45 144.8 45 144.8 112.7 160.9 112.7 160.9 139.7 74.8 139.7"/>
          <path d="M239.8,139.7v-27h12.5v-28.2c0-8.5-6.1-12.3-13.9-12.3s-17.4,7.3-17.4,17.2v23.4h12.8v27h-67.3v-27h12.1v-40.7h-12.1v-27h53.1v18.6c.9-.7,1.7-1.7,2.4-2.6,9.7-11.1,20.8-15.1,35.4-15.1s37.1,8.3,37.1,31.1v35.7h10.9v27h-65.8Z"/>
          <path d="M412.7,85l-36.3,4c-.4-10.1-2.5-20.8-14.8-20.8s-16.8,13-16.8,25.5h0v.3c0,12.5,1.2,25.5,16.8,25.5s15.4-4.7,15.4-14.6h1.2s35,0,35,0l-.3,3.1c-6,29.4-32.5,34-51.7,34-30,0-59.5-14.8-59.5-48.2h0c0-33.4,29.5-48.2,59.5-48.2,0,0,47.1-3,51.5,39.3Z"/>
          <path d="M440.9,124.8c0,8.5-6.9,15.3-15.3,15.3s-15.3-6.9-15.3-15.3,6.9-15.3,15.3-15.3,15.3,6.9,15.3,15.3Z"/>
        </g>
        <g>
          <g>
            <path d="M188.7,151.9c-35.9,0-56.8,24-56.8,71.4s20.9,71.6,56.8,71.6,57.1-24.6,57.1-71.6-21.6-71.4-57.1-71.4ZM188.8,266.1c-13.1,0-15.9-12.6-15.9-42.7s2.8-42.7,15.9-42.7,15.9,12.6,15.9,42.7-2.8,42.7-15.9,42.7Z"/>
            <path d="M307,151.9c-35.9,0-56.8,24-56.8,71.4s20.9,71.6,56.8,71.6,57.1-24.6,57.1-71.6-21.6-71.4-57.1-71.4ZM307.1,266.1c-13.1,0-15.9-12.6-15.9-42.7s2.8-42.7,15.9-42.7,15.9,12.6,15.9,42.7-2.8,42.7-15.9,42.7Z"/>
            <path d="M425.3,151.9c-35.9,0-56.8,24-56.8,71.4s20.9,71.6,56.8,71.6,57.1-24.6,57.1-71.6-21.6-71.4-57.1-71.4ZM425.4,266.1c-13.1,0-15.9-12.6-15.9-42.7s2.8-42.7,15.9-42.7,15.9,12.6,15.9,42.7-2.8,42.7-15.9,42.7Z"/>
          </g>
          <path d="M115.4,209c-7.2-6.7-17.8-10.8-32.7-10.8s-22.9,6.5-26.5,9.7l3-22.1h58.6v-32.7H32.8l-9,64.9,24.8,12.9c4.3-3.5,12.3-9.6,22.6-9.6s8.7,1.5,11.9,4.6c3.8,3.7,6.2,9.6,6.2,18s-.3,5.5-.8,7.7c-2.1,9.3-8.3,13-16.3,13-16,0-14.7-20-11.1-27.1l-.2-.2-39.9,20.7c2.9,25.3,28.5,36.9,50.3,36.9s27.9-3.9,39.5-13.8c4.2-3.5,7.6-7.8,10.3-12.6,4.5-7.8,6.9-16.9,6.9-25.3,0-13.5-3.7-25.8-12.6-34.1Z"/>
        </g>
      </g>
    </g>
  </g>
</svg>