<svg width="666" height="660" viewBox="0 0 666 660" fill="none" xmlns="http://www.w3.org/2000/svg">
<path d="M333.016 410.237C446.3 410.237 538.134 318.402 538.134 205.119C538.134 91.8347 446.3 0 333.016 0C219.732 0 127.897 91.8347 127.897 205.119C127.897 318.402 219.732 410.237 333.016 410.237Z" fill="url(#paint0_radial_12567_1030)"/>
<mask id="mask0_12567_1030" style="mask-type:luminance" maskUnits="userSpaceOnUse" x="128" y="0" width="411" height="411">
<path d="M128.3 205.386C128.3 318.536 220 410.236 333.15 410.236C446.3 410.236 538 318.536 538 205.386C538 92.2352 446.3 0.535156 333.15 0.535156C220 0.535156 128.3 92.2352 128.3 205.386Z" fill="white"/>
</mask>
<g mask="url(#mask0_12567_1030)">
<path d="M257.672 224.827C298.293 203.779 300.706 177.1 299.5 144.791C298.293 112.615 331.139 60.464 393.881 60.0618C540.816 58.8552 531.163 211.689 496.574 257.136C474.32 286.228 467.885 325.777 477.805 350.311H226.301C213.564 328.727 204.448 304.729 199.756 279.257C211.017 260.756 233.004 237.429 257.672 224.827Z" fill="url(#paint1_radial_12567_1030)"/>
</g>
<path d="M222.547 377.797C254.454 398.309 292.394 410.24 333.15 410.24C373.906 410.24 411.846 398.309 443.753 377.797H222.547Z" fill="url(#paint2_linear_12567_1030)"/>
<path d="M360.901 165.308H502.339L485.313 260.628H343.875L360.901 165.308ZM361.706 156.996C356.745 156.996 352.053 161.018 351.114 165.978L334.356 260.092C333.418 265.052 336.77 269.074 341.73 269.074H484.24C489.201 269.074 493.893 265.052 494.831 260.092L511.724 165.978C512.662 161.018 509.31 156.996 504.35 156.996H361.706Z" fill="url(#paint3_linear_12567_1030)"/>
<mask id="mask1_12567_1030" style="mask-type:luminance" maskUnits="userSpaceOnUse" x="128" y="0" width="411" height="411">
<path d="M128.3 205.386C128.3 318.536 220 410.236 333.15 410.236C446.3 410.236 538 318.536 538 205.386C538 92.2352 446.3 0.535156 333.15 0.535156C220 0.535156 128.3 92.2352 128.3 205.386Z" fill="white"/>
</mask>
<g mask="url(#mask1_12567_1030)">
<path d="M343.875 260.621H485.313L502.339 165.301H360.901L343.875 260.621ZM363.985 167.714H498.451L482.23 258.207H347.763L363.985 167.714Z" fill="#BDBDBD"/>
</g>
<mask id="mask2_12567_1030" style="mask-type:luminance" maskUnits="userSpaceOnUse" x="128" y="0" width="411" height="411">
<path d="M128.3 205.386C128.3 318.536 220 410.236 333.15 410.236C446.3 410.236 538 318.536 538 205.386C538 92.2352 446.3 0.535156 333.15 0.535156C220 0.535156 128.3 92.2352 128.3 205.386Z" fill="white"/>
</mask>
<g mask="url(#mask2_12567_1030)">
<path d="M363.985 167.715L347.763 258.208H482.23L498.317 167.715H363.985Z" fill="#ECECEC"/>
</g>
<path d="M441.742 268.531H393.881V278.452H441.742V268.531Z" fill="url(#paint4_linear_12567_1030)"/>
<path d="M368.945 277.652C365.862 277.652 363.314 280.2 363.314 283.283V286.367H363.583C364.253 284.087 366.398 282.345 368.945 282.345H466.812C469.225 282.345 471.236 284.087 471.773 286.367H471.907V282.613C471.907 279.797 469.627 277.652 466.946 277.652H368.945Z" fill="url(#paint5_linear_12567_1030)"/>
<path d="M368.945 282.477C366.398 282.477 364.253 284.085 363.583 286.498H471.638C471.102 284.219 469.091 282.477 466.678 282.477H368.945Z" fill="url(#paint6_linear_12567_1030)"/>
<mask id="mask3_12567_1030" style="mask-type:luminance" maskUnits="userSpaceOnUse" x="128" y="0" width="411" height="411">
<path d="M128.3 205.386C128.3 318.536 220 410.236 333.15 410.236C446.3 410.236 538 318.536 538 205.386C538 92.2352 446.3 0.535156 333.15 0.535156C220 0.535156 128.3 92.2352 128.3 205.386Z" fill="white"/>
</mask>
<g mask="url(#mask3_12567_1030)">
<path d="M486.788 191.582C486.922 191.179 486.922 190.777 486.922 190.375H367.068C366.934 190.777 366.8 191.179 366.8 191.582L366.934 190.375H486.922L486.788 191.582Z" fill="#BDBDBD"/>
</g>
<mask id="mask4_12567_1030" style="mask-type:luminance" maskUnits="userSpaceOnUse" x="128" y="0" width="411" height="411">
<path d="M128.3 205.386C128.3 318.536 220 410.236 333.15 410.236C446.3 410.236 538 318.536 538 205.386C538 92.2352 446.3 0.535156 333.15 0.535156C220 0.535156 128.3 92.2352 128.3 205.386Z" fill="white"/>
</mask>
<g mask="url(#mask4_12567_1030)">
<path d="M486.922 190.375C486.922 190.777 486.922 191.179 486.788 191.582L486.922 190.375ZM486.922 190.375H367.068C366.934 190.777 366.8 191.179 366.8 191.582L366.934 190.375H486.922Z" stroke="#D2D2D2" stroke-width="0.670456" stroke-miterlimit="10" stroke-linecap="round" stroke-linejoin="round"/>
</g>
<path d="M396.696 180.051H380.34C374.441 180.051 368.811 184.475 367.068 190.24H394.819H486.921C487.324 184.475 483.302 180.051 477.403 180.051H396.696Z" fill="url(#paint7_linear_12567_1030)"/>
<mask id="mask5_12567_1030" style="mask-type:luminance" maskUnits="userSpaceOnUse" x="128" y="0" width="411" height="411">
<path d="M128.3 205.386C128.3 318.536 220 410.236 333.15 410.236C446.3 410.236 538 318.536 538 205.386C538 92.2352 446.3 0.535156 333.15 0.535156C220 0.535156 128.3 92.2352 128.3 205.386Z" fill="white"/>
</mask>
<g mask="url(#mask5_12567_1030)">
<path d="M478.208 239.577L481.291 222.148L486.922 190.375H394.82H366.934L361.303 222.148L358.22 239.577V239.711H478.208C478.208 239.711 478.208 239.711 478.208 239.577Z" fill="#B2B2B2"/>
</g>
<mask id="mask6_12567_1030" style="mask-type:luminance" maskUnits="userSpaceOnUse" x="128" y="0" width="411" height="411">
<path d="M128.3 205.386C128.3 318.536 220 410.236 333.15 410.236C446.3 410.236 538 318.536 538 205.386C538 92.2352 446.3 0.535156 333.15 0.535156C220 0.535156 128.3 92.2352 128.3 205.386Z" fill="white"/>
</mask>
<g mask="url(#mask6_12567_1030)">
<path d="M367.605 251.103H383.96H464.667C470.968 251.103 477.001 246.008 478.208 239.707H358.22C357.147 246.008 361.303 251.103 367.605 251.103Z" fill="#4F4F4F"/>
</g>
<path d="M375.782 204.047L369.213 242.255H385.837L392.54 204.047H375.782Z" fill="url(#paint8_linear_12567_1030)"/>
<path d="M402.059 209.543L396.428 242.255H413.187L418.817 209.543H402.059Z" fill="url(#paint9_linear_12567_1030)"/>
<path d="M427.531 219.066L423.644 242.26H440.402L444.289 219.066H427.531Z" fill="url(#paint10_linear_12567_1030)"/>
<path d="M458.768 198.012L450.992 242.253H467.616L475.526 198.012H458.768Z" fill="url(#paint11_linear_12567_1030)"/>
<mask id="mask7_12567_1030" style="mask-type:luminance" maskUnits="userSpaceOnUse" x="128" y="0" width="411" height="411">
<path d="M128.3 205.386C128.3 318.536 220 410.236 333.15 410.236C446.3 410.236 538 318.536 538 205.386C538 92.2352 446.3 0.535156 333.15 0.535156C220 0.535156 128.3 92.2352 128.3 205.386Z" fill="white"/>
</mask>
<g mask="url(#mask7_12567_1030)">
<path d="M352.858 193.859C349.104 193.054 341.73 190.909 330.871 185.815C330.871 185.815 316.928 177.771 313.443 176.028C309.957 174.285 307.008 175.09 294.003 173.615C281.133 172.14 262.9 170.397 262.9 170.397C261.694 167.984 254.588 156.991 252.577 150.422L235.685 159.136C235.685 161.013 237.696 163.158 238.367 164.633C240.646 169.325 251.103 186.351 254.588 187.29C266.252 189.569 288.373 185.681 294.406 184.742C300.438 183.804 308.348 184.742 311.7 189.301C314.917 193.859 315.588 193.725 315.588 193.725C313.577 195.199 315.186 197.21 315.186 197.21C318.403 196.674 322.559 199.221 325.777 201.232C325.777 201.232 326.447 203.78 331.944 201.5C331.944 201.5 336.234 198.551 337.44 195.065C337.44 195.065 346.557 197.613 348.299 197.613C350.31 197.613 353.528 196.674 352.858 193.859Z" fill="#494949"/>
</g>
<path d="M225.496 131.522C227.373 141.309 229.25 159.944 229.25 159.944L230.59 159.408L249.628 151.766L252.845 150.425C252.845 150.425 248.555 130.584 245.472 124.149C243.193 119.59 240.109 117.848 236.892 117.848C230.456 117.982 224.155 125.087 225.496 131.522Z" fill="url(#paint12_linear_12567_1030)"/>
<mask id="mask8_12567_1030" style="mask-type:luminance" maskUnits="userSpaceOnUse" x="128" y="0" width="411" height="411">
<path d="M128.3 205.386C128.3 318.536 220 410.236 333.15 410.236C446.3 410.236 538 318.536 538 205.386C538 92.2352 446.3 0.535156 333.15 0.535156C220 0.535156 128.3 92.2352 128.3 205.386Z" fill="white"/>
</mask>
<g mask="url(#mask8_12567_1030)">
<path d="M232.468 109.127L233.272 108.457L232.468 109.127Z" fill="#494949"/>
</g>
<mask id="mask9_12567_1030" style="mask-type:luminance" maskUnits="userSpaceOnUse" x="128" y="0" width="411" height="411">
<path d="M128.3 205.386C128.3 318.536 220 410.236 333.15 410.236C446.3 410.236 538 318.536 538 205.386C538 92.2352 446.3 0.535156 333.15 0.535156C220 0.535156 128.3 92.2352 128.3 205.386Z" fill="white"/>
</mask>
<g mask="url(#mask9_12567_1030)">
<path d="M232.468 109.127L233.272 108.323L234.479 108.993C234.21 107.653 233.942 106.58 233.674 105.91C233.138 104.837 232.199 103.497 231.529 102.424C231.395 102.29 231.395 102.29 231.261 102.156C230.993 102.022 230.859 101.754 230.591 101.486C230.457 101.352 230.188 101.218 230.054 101.084C229.786 100.95 229.652 100.681 229.384 100.547C229.25 100.413 229.116 100.279 228.848 100.145C228.58 99.877 228.312 99.7429 228.177 99.4748C228.043 99.3407 227.909 99.2067 227.775 99.0726C227.507 98.8045 227.239 98.5363 226.837 98.2682C226.703 98.1342 226.569 98.0001 226.435 98.0001C226.032 97.5979 225.63 97.3298 225.228 96.9276C225.094 96.7935 224.96 96.7935 224.96 96.6595C224.692 96.3913 224.424 96.2573 224.156 95.9891C224.021 95.8551 223.753 95.721 223.619 95.4529C223.351 95.3188 223.217 95.0507 222.949 94.9166C222.815 94.7825 222.681 94.6485 222.413 94.5144C222.279 94.3803 222.011 94.2463 221.876 94.1122C221.742 93.9782 221.608 93.8441 221.474 93.71C221.34 93.576 221.072 93.4419 220.938 93.3078C220.67 93.1738 220.536 92.9056 220.268 92.7716C220.134 92.6375 219.865 92.3694 219.731 92.2353C219.597 92.1013 219.329 91.9672 219.195 91.8331C219.061 91.8331 219.061 91.6991 218.927 91.6991C218.659 91.4309 218.525 91.2969 218.525 91.2969C217.989 92.7716 217.318 93.9782 216.648 95.1847L232.468 109.127Z" fill="#494949"/>
</g>
<mask id="mask10_12567_1030" style="mask-type:luminance" maskUnits="userSpaceOnUse" x="128" y="0" width="411" height="411">
<path d="M128.3 205.386C128.3 318.536 220 410.236 333.15 410.236C446.3 410.236 538 318.536 538 205.386C538 92.2352 446.3 0.535156 333.15 0.535156C220 0.535156 128.3 92.2352 128.3 205.386Z" fill="white"/>
</mask>
<g mask="url(#mask10_12567_1030)">
<path d="M220.938 93.3086C221.072 93.4427 221.34 93.5767 221.475 93.7108C221.206 93.7108 221.072 93.4427 220.938 93.3086Z" fill="#494949"/>
</g>
<mask id="mask11_12567_1030" style="mask-type:luminance" maskUnits="userSpaceOnUse" x="128" y="0" width="411" height="411">
<path d="M128.3 205.386C128.3 318.536 220 410.236 333.15 410.236C446.3 410.236 538 318.536 538 205.386C538 92.2352 446.3 0.535156 333.15 0.535156C220 0.535156 128.3 92.2352 128.3 205.386Z" fill="white"/>
</mask>
<g mask="url(#mask11_12567_1030)">
<path d="M229.384 100.684C229.652 100.818 229.786 101.086 230.054 101.22C229.786 101.086 229.518 100.818 229.384 100.684Z" fill="#494949"/>
</g>
<mask id="mask12_12567_1030" style="mask-type:luminance" maskUnits="userSpaceOnUse" x="128" y="0" width="411" height="411">
<path d="M128.3 205.386C128.3 318.536 220 410.236 333.15 410.236C446.3 410.236 538 318.536 538 205.386C538 92.2352 446.3 0.535156 333.15 0.535156C220 0.535156 128.3 92.2352 128.3 205.386Z" fill="white"/>
</mask>
<g mask="url(#mask12_12567_1030)">
<path d="M230.457 101.621C230.725 101.889 230.859 102.023 231.127 102.291C230.993 102.023 230.725 101.889 230.457 101.621Z" fill="#494949"/>
</g>
<mask id="mask13_12567_1030" style="mask-type:luminance" maskUnits="userSpaceOnUse" x="128" y="0" width="411" height="411">
<path d="M128.3 205.386C128.3 318.536 220 410.236 333.15 410.236C446.3 410.236 538 318.536 538 205.386C538 92.2352 446.3 0.535156 333.15 0.535156C220 0.535156 128.3 92.2352 128.3 205.386Z" fill="white"/>
</mask>
<g mask="url(#mask13_12567_1030)">
<path d="M219.731 92.3711C219.866 92.5052 220.134 92.6392 220.268 92.9073C220 92.6392 219.866 92.5052 219.731 92.3711Z" fill="#494949"/>
</g>
<mask id="mask14_12567_1030" style="mask-type:luminance" maskUnits="userSpaceOnUse" x="128" y="0" width="411" height="411">
<path d="M128.3 205.386C128.3 318.536 220 410.236 333.15 410.236C446.3 410.236 538 318.536 538 205.386C538 92.2352 446.3 0.535156 333.15 0.535156C220 0.535156 128.3 92.2352 128.3 205.386Z" fill="white"/>
</mask>
<g mask="url(#mask14_12567_1030)">
<path d="M228.177 99.6094C228.446 99.8775 228.714 100.012 228.848 100.28C228.58 100.012 228.312 99.7434 228.177 99.6094Z" fill="#494949"/>
</g>
<mask id="mask15_12567_1030" style="mask-type:luminance" maskUnits="userSpaceOnUse" x="128" y="0" width="411" height="411">
<path d="M128.3 205.386C128.3 318.536 220 410.236 333.15 410.236C446.3 410.236 538 318.536 538 205.386C538 92.2352 446.3 0.535156 333.15 0.535156C220 0.535156 128.3 92.2352 128.3 205.386Z" fill="white"/>
</mask>
<g mask="url(#mask15_12567_1030)">
<path d="M222.949 95.0508C223.217 95.1848 223.351 95.453 223.62 95.587C223.351 95.453 223.083 95.3189 222.949 95.0508Z" fill="#494949"/>
</g>
<path d="M202.303 97.734C199.354 98.6724 196.94 99.3427 194.661 100.281C203.644 99.7449 209.006 106.716 208.738 115.565C208.336 125.351 203.107 146.667 203.107 146.667L183.132 145.193L185.009 150.153C187.69 159.672 191.042 175.357 181.925 195.065C177.635 204.315 174.552 211.555 172.809 219.062L188.092 219.733L226.435 221.475H231.395C231.395 221.475 229.384 206.46 235.685 186.485C241.852 166.509 246.41 137.015 245.74 128.033C245.07 119.05 240.779 112.615 240.779 112.615L235.953 119.989C235.953 119.989 235.551 115.162 234.881 111.14L232.467 109.129L226.703 114.76C225.094 117.441 223.217 117.441 221.474 113.688L212.492 93.4439L212.224 93.1758C209.677 95.4549 206.861 96.3933 202.303 97.734Z" fill="url(#paint13_linear_12567_1030)"/>
<mask id="mask16_12567_1030" style="mask-type:luminance" maskUnits="userSpaceOnUse" x="128" y="0" width="411" height="411">
<path d="M128.3 205.386C128.3 318.536 220 410.236 333.15 410.236C446.3 410.236 538 318.536 538 205.386C538 92.2352 446.3 0.535156 333.15 0.535156C220 0.535156 128.3 92.2352 128.3 205.386Z" fill="white"/>
</mask>
<g mask="url(#mask16_12567_1030)">
<path d="M233.272 108.457L232.468 109.261L234.881 111.272C234.747 110.468 234.613 109.798 234.478 109.127L233.272 108.457Z" fill="#494949"/>
</g>
<mask id="mask17_12567_1030" style="mask-type:luminance" maskUnits="userSpaceOnUse" x="128" y="0" width="411" height="411">
<path d="M128.3 205.386C128.3 318.536 220 410.236 333.15 410.236C446.3 410.236 538 318.536 538 205.386C538 92.2352 446.3 0.535156 333.15 0.535156C220 0.535156 128.3 92.2352 128.3 205.386Z" fill="white"/>
</mask>
<g mask="url(#mask17_12567_1030)">
<path d="M237.562 110.874L237.696 111.008C237.696 108.863 237.83 106.718 237.964 105.512L237.16 110.74L237.562 110.874Z" fill="#494949"/>
</g>
<path d="M237.16 110.606L235.953 120.125L240.779 112.751C240.779 112.751 243.461 109.266 239.037 106.316L237.964 105.512L237.16 110.606Z" fill="url(#paint14_linear_12567_1030)"/>
<mask id="mask18_12567_1030" style="mask-type:luminance" maskUnits="userSpaceOnUse" x="128" y="0" width="411" height="411">
<path d="M128.3 205.386C128.3 318.536 220 410.236 333.15 410.236C446.3 410.236 538 318.536 538 205.386C538 92.2352 446.3 0.535156 333.15 0.535156C220 0.535156 128.3 92.2352 128.3 205.386Z" fill="white"/>
</mask>
<g mask="url(#mask18_12567_1030)">
<path d="M237.696 110.874H237.562L237.16 110.605L237.696 110.874Z" fill="#494949"/>
</g>
<mask id="mask19_12567_1030" style="mask-type:luminance" maskUnits="userSpaceOnUse" x="237" y="110" width="1" height="1">
<path d="M237.562 110.874H237.696L237.16 110.605L237.562 110.874Z" fill="white"/>
</mask>
<g mask="url(#mask19_12567_1030)">
<path d="M237.696 110.605H237.16V110.874H237.696V110.605Z" fill="url(#paint15_linear_12567_1030)"/>
</g>
<mask id="mask20_12567_1030" style="mask-type:luminance" maskUnits="userSpaceOnUse" x="128" y="0" width="411" height="411">
<path d="M128.3 205.386C128.3 318.536 220 410.236 333.15 410.236C446.3 410.236 538 318.536 538 205.386C538 92.2352 446.3 0.535156 333.15 0.535156C220 0.535156 128.3 92.2352 128.3 205.386Z" fill="white"/>
</mask>
<g mask="url(#mask20_12567_1030)">
<path d="M235.953 109.933L234.479 109.129L235.953 109.933Z" fill="#494949"/>
</g>
<mask id="mask21_12567_1030" style="mask-type:luminance" maskUnits="userSpaceOnUse" x="128" y="0" width="411" height="411">
<path d="M128.3 205.386C128.3 318.536 220 410.236 333.15 410.236C446.3 410.236 538 318.536 538 205.386C538 92.2352 446.3 0.535156 333.15 0.535156C220 0.535156 128.3 92.2352 128.3 205.386Z" fill="white"/>
</mask>
<g mask="url(#mask21_12567_1030)">
<path d="M222.413 94.6484C222.547 94.7825 222.681 94.9166 222.949 95.0506C222.815 94.9166 222.547 94.7825 222.413 94.6484Z" fill="#494949"/>
</g>
<mask id="mask22_12567_1030" style="mask-type:luminance" maskUnits="userSpaceOnUse" x="128" y="0" width="411" height="411">
<path d="M128.3 205.386C128.3 318.536 220 410.236 333.15 410.236C446.3 410.236 538 318.536 538 205.386C538 92.2352 446.3 0.535156 333.15 0.535156C220 0.535156 128.3 92.2352 128.3 205.386Z" fill="white"/>
</mask>
<g mask="url(#mask22_12567_1030)">
<path d="M220.268 92.7734C220.536 92.9075 220.67 93.1756 220.938 93.3097C220.67 93.1756 220.402 92.9075 220.268 92.7734Z" fill="#494949"/>
</g>
<mask id="mask23_12567_1030" style="mask-type:luminance" maskUnits="userSpaceOnUse" x="128" y="0" width="411" height="411">
<path d="M128.3 205.386C128.3 318.536 220 410.236 333.15 410.236C446.3 410.236 538 318.536 538 205.386C538 92.2352 446.3 0.535156 333.15 0.535156C220 0.535156 128.3 92.2352 128.3 205.386Z" fill="white"/>
</mask>
<g mask="url(#mask23_12567_1030)">
<path d="M223.619 95.5859C223.753 95.72 224.022 95.8541 224.156 96.1222C223.888 95.9881 223.753 95.8541 223.619 95.5859Z" fill="#494949"/>
</g>
<mask id="mask24_12567_1030" style="mask-type:luminance" maskUnits="userSpaceOnUse" x="128" y="0" width="411" height="411">
<path d="M128.3 205.386C128.3 318.536 220 410.236 333.15 410.236C446.3 410.236 538 318.536 538 205.386C538 92.2352 446.3 0.535156 333.15 0.535156C220 0.535156 128.3 92.2352 128.3 205.386Z" fill="white"/>
</mask>
<g mask="url(#mask24_12567_1030)">
<path d="M229.92 101.223C230.054 101.357 230.323 101.491 230.457 101.625C230.323 101.491 230.189 101.357 229.92 101.223Z" fill="#494949"/>
</g>
<mask id="mask25_12567_1030" style="mask-type:luminance" maskUnits="userSpaceOnUse" x="128" y="0" width="411" height="411">
<path d="M128.3 205.386C128.3 318.536 220 410.236 333.15 410.236C446.3 410.236 538 318.536 538 205.386C538 92.2352 446.3 0.535156 333.15 0.535156C220 0.535156 128.3 92.2352 128.3 205.386Z" fill="white"/>
</mask>
<g mask="url(#mask25_12567_1030)">
<path d="M218.927 91.6992C218.927 91.6992 219.061 91.8333 219.195 91.8333C219.061 91.8333 219.061 91.6992 218.927 91.6992Z" fill="#494949"/>
</g>
<mask id="mask26_12567_1030" style="mask-type:luminance" maskUnits="userSpaceOnUse" x="128" y="0" width="411" height="411">
<path d="M128.3 205.386C128.3 318.536 220 410.236 333.15 410.236C446.3 410.236 538 318.536 538 205.386C538 92.2352 446.3 0.535156 333.15 0.535156C220 0.535156 128.3 92.2352 128.3 205.386Z" fill="white"/>
</mask>
<g mask="url(#mask26_12567_1030)">
<path d="M233.674 106.043C233.942 106.579 234.21 107.786 234.479 109.126L235.953 109.931C235.417 107.518 234.613 105.507 233.808 104.702C233.272 104.166 232.334 103.362 231.127 102.289C231.261 102.423 231.261 102.423 231.395 102.557C232.199 103.63 233.138 104.97 233.674 106.043Z" fill="#494949"/>
</g>
<mask id="mask27_12567_1030" style="mask-type:luminance" maskUnits="userSpaceOnUse" x="128" y="0" width="411" height="411">
<path d="M128.3 205.386C128.3 318.536 220 410.236 333.15 410.236C446.3 410.236 538 318.536 538 205.386C538 92.2352 446.3 0.535156 333.15 0.535156C220 0.535156 128.3 92.2352 128.3 205.386Z" fill="white"/>
</mask>
<g mask="url(#mask27_12567_1030)">
<path d="M224.96 96.7969C225.094 96.9309 225.228 96.931 225.228 97.065C225.094 96.931 224.96 96.9309 224.96 96.7969Z" fill="#494949"/>
</g>
<mask id="mask28_12567_1030" style="mask-type:luminance" maskUnits="userSpaceOnUse" x="128" y="0" width="411" height="411">
<path d="M128.3 205.386C128.3 318.536 220 410.236 333.15 410.236C446.3 410.236 538 318.536 538 205.386C538 92.2352 446.3 0.535156 333.15 0.535156C220 0.535156 128.3 92.2352 128.3 205.386Z" fill="white"/>
</mask>
<g mask="url(#mask28_12567_1030)">
<path d="M226.435 98.1367C226.569 98.2708 226.703 98.2708 226.837 98.4049C226.703 98.4049 226.569 98.2708 226.435 98.1367Z" fill="#494949"/>
</g>
<mask id="mask29_12567_1030" style="mask-type:luminance" maskUnits="userSpaceOnUse" x="128" y="0" width="411" height="411">
<path d="M128.3 205.386C128.3 318.536 220 410.236 333.15 410.236C446.3 410.236 538 318.536 538 205.386C538 92.2352 446.3 0.535156 333.15 0.535156C220 0.535156 128.3 92.2352 128.3 205.386Z" fill="white"/>
</mask>
<g mask="url(#mask29_12567_1030)">
<path d="M260.219 70.7882C259.951 69.1795 259.683 67.5707 262.096 66.3641L261.291 59.795C261.291 59.795 253.65 54.8346 249.762 54.2983C245.874 53.762 241.852 55.773 241.584 61.4037C241.316 66.3641 241.316 69.0454 241.316 69.0454L234.479 69.8498C234.479 64.085 231.261 57.2477 227.105 63.0125C224.156 67.1685 227.641 71.9948 227.641 75.3464C227.641 78.564 224.022 79.2343 220.268 78.2958C220.938 83.1222 220 87.5463 218.525 91.166C218.525 91.166 218.659 91.3001 218.927 91.5682C219.061 91.5682 219.061 91.7023 219.195 91.7023C219.329 91.8363 219.463 91.9704 219.731 92.1045C219.866 92.2385 220.134 92.3726 220.268 92.6407C220.536 92.7748 220.67 93.0429 220.938 93.177C221.072 93.311 221.34 93.4451 221.474 93.5792C221.608 93.7132 221.742 93.8473 221.877 93.9814C222.011 94.1154 222.279 94.2495 222.413 94.3836C222.547 94.5176 222.681 94.6517 222.949 94.7857C223.217 94.9198 223.351 95.188 223.619 95.322C223.753 95.4561 224.022 95.5901 224.156 95.8583C224.424 96.1264 224.692 96.2605 224.96 96.5286C225.094 96.6627 225.228 96.6626 225.228 96.7967C225.63 97.1989 226.032 97.467 226.435 97.8692C226.569 98.0033 226.703 98.0033 226.837 98.1374C227.105 98.4055 227.373 98.6736 227.775 98.9418C227.909 99.0758 228.043 99.2099 228.178 99.3439C228.446 99.6121 228.714 99.7461 228.848 100.014C228.982 100.148 229.116 100.282 229.384 100.416C229.652 100.551 229.786 100.819 230.054 100.953C230.188 101.087 230.457 101.221 230.591 101.355C230.859 101.623 230.993 101.757 231.261 102.025C232.468 103.098 233.406 103.902 233.942 104.438C234.747 105.243 235.551 107.254 236.087 109.667L234.613 108.863C234.747 109.533 234.881 110.203 235.015 111.008C235.685 115.029 236.087 119.856 236.087 119.856L237.294 110.337L238.098 105.109L239.305 97.6011C239.841 93.4451 241.718 91.5682 246.142 91.8363C250.566 92.1045 252.711 92.1045 252.711 92.1045C256.599 86.0716 255.929 78.9662 255.929 78.9662L261.962 78.1618L260.219 70.7882Z" fill="#494949"/>
</g>
<mask id="mask30_12567_1030" style="mask-type:luminance" maskUnits="userSpaceOnUse" x="128" y="0" width="411" height="411">
<path d="M128.3 205.386C128.3 318.536 220 410.236 333.15 410.236C446.3 410.236 538 318.536 538 205.386C538 92.2352 446.3 0.535156 333.15 0.535156C220 0.535156 128.3 92.2352 128.3 205.386Z" fill="white"/>
</mask>
<g mask="url(#mask30_12567_1030)">
<path d="M266.252 37.6724C266.252 37.6724 262.096 37.6724 258.074 35.5274C253.918 33.3824 240.914 29.2264 232.602 37.1362C232.602 37.1362 227.373 35.5274 221.608 41.8284C215.039 48.9338 217.184 69.1776 219.731 76.283C220 76.9533 220.134 77.7577 220.268 78.428C224.156 79.2324 227.641 78.6961 227.641 75.4786C227.641 72.2611 224.021 67.3007 227.105 63.1447C231.395 57.3799 234.479 64.2172 234.479 69.982L241.316 69.1776C241.316 69.1776 241.316 66.4963 241.584 61.5359C241.852 55.9052 246.008 53.8942 249.762 54.4305C253.65 54.9668 261.291 59.9271 261.291 59.9271C261.291 59.9271 265.716 59.9271 270.274 56.4415C278.318 50.1404 270.006 36.8681 266.252 37.6724Z" fill="black"/>
</g>
<path d="M171.2 231.532C170.798 244.536 176.429 252.982 176.429 266.925C176.429 280.867 178.708 302.318 185.009 319.88C185.009 319.88 187.958 321.891 181.121 332.348C179.914 334.225 178.574 336.236 177.501 338.381C184.607 346.693 192.248 354.335 200.426 361.306C204.314 350.313 208.336 340.124 210.883 336.772C215.441 330.739 216.38 322.83 217.05 316.26C217.721 309.825 226.435 221.343 226.435 221.343L188.092 219.6L172.809 218.93C171.871 223.086 171.334 227.108 171.2 231.532Z" fill="url(#paint16_linear_12567_1030)"/>
<path d="M194.662 100.279C191.846 101.485 189.433 102.96 187.02 105.775C182.864 110.736 176.161 131.784 173.614 144.654L183.132 145.19L203.108 146.665C203.108 146.665 208.336 125.349 208.738 115.562C209.007 106.982 204.046 100.145 195.734 100.145C195.332 100.145 195.064 100.145 194.662 100.279Z" fill="url(#paint17_linear_12567_1030)"/>
<mask id="mask31_12567_1030" style="mask-type:luminance" maskUnits="userSpaceOnUse" x="128" y="0" width="411" height="411">
<path d="M128.3 205.386C128.3 318.536 220 410.236 333.15 410.236C446.3 410.236 538 318.536 538 205.386C538 92.2352 446.3 0.535156 333.15 0.535156C220 0.535156 128.3 92.2352 128.3 205.386Z" fill="white"/>
</mask>
<g mask="url(#mask31_12567_1030)">
<path d="M176.965 144.79C174.954 160.475 172.541 185.277 173.479 190.908C174.418 196.538 177.233 201.767 179.378 202.571C181.657 203.376 189.567 199.622 196.538 195.466C203.376 191.31 226.971 172.675 241.718 158.062C250.834 154.308 252.443 149.482 252.98 146.398C253.516 143.449 254.186 135.137 254.186 135.137C254.052 127.629 245.606 125.082 245.606 125.082L245.338 132.59L245.204 137.416C245.204 137.416 242.657 137.014 242.254 134.467L241.986 131.785L242.12 128.568C242.254 125.752 239.171 125.752 239.171 125.752L238.903 133.796C238.635 139.829 239.037 141.706 239.305 142.376C239.707 143.181 238.366 146.935 235.685 149.08C233.004 151.359 214.369 163.693 204.046 168.921C198.952 171.602 193.187 174.15 193.187 174.15C193.187 174.15 198.683 154.844 199.756 146.398L176.965 144.79Z" fill="#494949"/>
</g>
<path d="M195.466 312.372C198.147 318.136 196.002 324.437 196.002 324.437C193.589 330.202 191.176 340.659 190.103 351.921C198.013 359.562 206.459 366.668 215.575 373.103C216.916 360.635 218.525 350.848 219.061 347.362C220.268 339.184 224.826 333.286 224.29 324.571C224.29 324.571 225.362 306.607 229.652 281.939C233.942 257.271 232.199 238.368 231.529 221.61L188.226 219.867C180.048 254.724 192.784 306.607 195.466 312.372Z" fill="url(#paint18_linear_12567_1030)"/>
<path d="M356.611 297.49L328.86 410.104C330.2 410.104 331.675 410.104 333.016 410.104C333.552 410.104 333.954 410.104 334.49 410.104L362.242 297.355H356.611V297.49Z" fill="url(#paint19_linear_12567_1030)"/>
<path d="M350.981 297.496L323.363 409.976C325.24 410.11 327.117 410.11 328.994 410.11L356.745 297.496H350.981Z" fill="url(#paint20_linear_12567_1030)"/>
<path d="M369.883 297.496L395.221 400.592C396.964 400.055 398.707 399.519 400.45 398.849L375.514 297.496H369.883Z" fill="url(#paint21_linear_12567_1030)"/>
<path d="M375.514 297.496L400.45 398.849C402.193 398.178 403.936 397.642 405.679 396.972L381.145 297.496H375.514Z" fill="url(#paint22_linear_12567_1030)"/>
<path d="M474.185 297.496L456.623 368.818C459.036 367.075 461.315 365.199 463.594 363.322L479.816 297.63H474.185V297.496Z" fill="url(#paint23_linear_12567_1030)"/>
<path d="M468.555 297.496L449.786 373.779C452.065 372.17 454.344 370.561 456.623 368.818L474.186 297.496H468.555Z" fill="url(#paint24_linear_12567_1030)"/>
<path d="M484.106 297.496L492.955 333.425C494.429 331.548 495.904 329.806 497.245 327.929L489.737 297.496H484.106Z" fill="url(#paint25_linear_12567_1030)"/>
<path d="M489.737 297.496L497.245 327.929C498.719 326.052 500.06 324.041 501.401 322.03L495.368 297.496H489.737Z" fill="url(#paint26_linear_12567_1030)"/>
<path d="M307.946 286.227V297.488H357.818H369.079H466.008H477.269H516.148C518.025 293.734 519.768 289.98 521.376 286.227H307.946Z" fill="url(#paint27_linear_12567_1030)"/>
<path d="M315.051 264.113L323.631 278.324L326.983 283.15C328.189 285.027 329.798 285.564 329.798 285.564C329.798 285.564 330.2 284.491 328.994 282.614L316.794 262.773C316.258 261.968 315.722 261.566 315.185 261.566C314.247 261.432 313.845 262.504 315.051 264.113Z" fill="url(#paint28_linear_12567_1030)"/>
<mask id="mask32_12567_1030" style="mask-type:luminance" maskUnits="userSpaceOnUse" x="128" y="0" width="411" height="411">
<path d="M128.3 205.386C128.3 318.536 220 410.236 333.15 410.236C446.3 410.236 538 318.536 538 205.386C538 92.2352 446.3 0.535156 333.15 0.535156C220 0.535156 128.3 92.2352 128.3 205.386Z" fill="white"/>
</mask>
<g mask="url(#mask32_12567_1030)">
<path d="M299.768 174.285C296.953 174.285 296.55 176.028 295.88 178.575L297.355 190.909C297.355 192.384 298.025 195.869 300.841 195.869H308.214V192.25H312.504L309.555 182.731L311.432 180.854L310.493 174.553C310.761 174.553 311.029 174.553 311.298 174.553L310.493 174.419H299.768V174.285Z" fill="#818181"/>
</g>
<mask id="mask33_12567_1030" style="mask-type:luminance" maskUnits="userSpaceOnUse" x="128" y="0" width="411" height="411">
<path d="M128.3 205.386C128.3 318.536 220 410.236 333.15 410.236C446.3 410.236 538 318.536 538 205.386C538 92.2352 446.3 0.535156 333.15 0.535156C220 0.535156 128.3 92.2352 128.3 205.386Z" fill="white"/>
</mask>
<g mask="url(#mask33_12567_1030)">
<path d="M280.999 191.176C278.854 184.875 280.999 183.802 282.072 182.998H288.775C288.775 182.998 293.735 189.031 293.735 195.332C293.735 201.633 294.137 206.995 296.953 209.408C297.221 209.542 297.489 209.811 297.757 209.945C299.232 209.676 301.377 210.347 304.192 208.872C308.75 206.325 309.287 198.549 309.287 198.549C309.823 196.136 308.348 195.6 308.348 195.6H300.841C298.025 195.6 297.355 192.114 297.355 190.639L295.88 178.305C296.551 175.892 296.953 174.015 299.768 174.015H310.493L311.298 174.149C315.051 173.479 319.744 166.642 317.733 162.352C315.722 157.794 313.979 157.257 313.845 153.906C313.711 150.554 308.75 148.141 304.728 150.018C304.728 150.018 306.069 145.192 299.634 143.717C293.333 142.242 291.456 146.13 291.456 146.13C288.104 140.499 277.782 143.181 278.586 147.068C273.76 145.057 268.129 148.141 268.665 153.638C262.632 153.101 260.621 160.341 261.426 164.363C262.23 168.251 262.23 168.921 261.426 173.211C260.621 177.501 262.498 182.596 265.179 186.349C268.799 191.176 270.542 190.907 272.687 193.991C273.491 195.063 274.296 196.404 274.966 197.879C279.122 197.879 283.144 197.343 280.999 191.176Z" fill="black"/>
</g>
<mask id="mask34_12567_1030" style="mask-type:luminance" maskUnits="userSpaceOnUse" x="128" y="0" width="411" height="411">
<path d="M128.3 205.386C128.3 318.536 220 410.236 333.15 410.236C446.3 410.236 538 318.536 538 205.386C538 92.2352 446.3 0.535156 333.15 0.535156C220 0.535156 128.3 92.2352 128.3 205.386Z" fill="white"/>
</mask>
<g mask="url(#mask34_12567_1030)">
<path d="M295.612 212.493C296.014 210.75 296.684 210.214 297.757 210.08C297.489 209.946 297.221 209.678 296.952 209.544C294.137 207.13 293.735 201.768 293.735 195.467C293.735 189.166 288.775 183.133 288.775 183.133H282.071C280.999 183.803 278.854 184.876 280.999 191.311C283.01 197.478 279.122 198.014 274.698 198.014C275.77 200.427 275.904 203.377 273.625 206.862L294.673 218.124L295.612 212.493Z" fill="#818181"/>
</g>
<path d="M269.335 208.878L269.871 209.28L296.014 223.759C294.807 218.129 294.807 218.129 294.807 218.129L273.759 206.867L269.335 208.878Z" fill="url(#paint29_linear_12567_1030)"/>
<mask id="mask35_12567_1030" style="mask-type:luminance" maskUnits="userSpaceOnUse" x="128" y="0" width="411" height="411">
<path d="M128.3 205.386C128.3 318.536 220 410.236 333.15 410.236C446.3 410.236 538 318.536 538 205.386C538 92.2352 446.3 0.535156 333.15 0.535156C220 0.535156 128.3 92.2352 128.3 205.386Z" fill="white"/>
</mask>
<g mask="url(#mask35_12567_1030)">
<path d="M307.946 285.828H338.915C341.73 285.426 341.328 281.94 341.328 281.94C337.842 281.538 328.055 280.465 323.497 278.32C318.939 276.175 313.04 272.019 303.254 273.092L300.438 273.36C300.572 276.98 300.84 280.465 300.974 283.951C304.728 283.549 307.946 285.828 307.946 285.828Z" fill="#818181"/>
</g>
<path d="M241.182 256.466C241.182 256.466 241.182 273.626 241.047 284.486C240.913 295.345 243.058 299.233 246.544 299.501C249.896 299.635 251.37 298.965 251.37 298.965C278.049 297.624 298.695 284.486 298.695 284.486C299.5 284.217 300.17 284.083 300.974 283.949C300.84 280.464 300.706 276.978 300.438 273.358L260.889 277.246V256.332H241.182V256.466Z" fill="url(#paint30_linear_12567_1030)"/>
<path d="M298.695 284.349C298.695 284.349 278.049 297.487 251.37 298.828C251.37 298.828 252.041 300.705 250.834 307.006H300.974C301.377 300.973 301.242 292.661 300.84 283.812C300.17 283.947 299.5 284.081 298.695 284.349Z" fill="url(#paint31_linear_12567_1030)"/>
<path d="M321.889 348.164C323.631 352.454 316.66 374.173 322.291 394.953C323.765 400.583 325.374 405.544 326.849 410.102C328.86 410.102 331.005 410.236 333.15 410.236C338.647 410.236 344.009 409.968 349.372 409.566C349.372 408.761 349.506 407.957 349.506 407.286C347.227 401.79 344.948 397.098 343.339 394.014C338.647 385.3 333.15 364.118 332.882 348.164H321.889Z" fill="url(#paint32_linear_12567_1030)"/>
<path d="M250.834 307.148C250.432 309.293 249.896 311.841 249.091 315.058C245.74 327.794 249.091 348.172 267.19 348.172H321.888H332.748C333.016 364.126 338.512 385.308 343.205 394.022C344.813 396.972 347.092 401.798 349.372 407.295C349.64 407.965 350.042 408.769 350.31 409.574C357.952 408.903 365.325 407.965 372.699 406.49C372.565 405.552 372.431 404.747 372.297 403.943C369.615 388.928 367.336 358.495 363.314 344.016C359.292 329.537 354.064 326.99 351.114 324.845C348.165 322.566 325.106 313.584 300.706 312.109C300.84 310.768 300.974 309.159 301.108 307.417H250.834V307.148Z" fill="url(#paint33_linear_12567_1030)"/>
<path d="M238.098 361.305C237.562 363.852 237.696 365.863 237.696 365.863H331.541C331.541 365.863 331.541 364.254 330.603 361.305H238.098Z" fill="url(#paint34_linear_12567_1030)"/>
<path d="M267.19 348.305C249.091 348.305 245.204 349.243 241.182 354.338C240.511 355.142 239.975 356.08 239.573 357.019C239.037 358.091 238.634 359.164 238.366 360.102C238.232 360.505 238.098 360.907 238.098 361.309H330.603C330.2 360.102 329.53 358.494 328.592 356.751C325.374 351.12 317.598 348.305 314.113 348.305H267.19Z" fill="url(#paint35_linear_12567_1030)"/>
<path d="M221.877 333.285C223.754 347.764 228.312 358.221 238.367 360.098C238.635 359.159 239.037 358.087 239.573 357.014C231.395 354.199 227.373 344.68 225.496 332.078C224.29 332.748 223.083 333.151 221.877 333.285Z" fill="url(#paint36_linear_12567_1030)"/>
<path d="M222.413 238.504H218.391C215.441 238.504 213.698 242.526 213.698 244.939V328.863C213.698 334.36 218.391 333.421 220.938 333.421C221.206 333.421 221.608 333.421 221.876 333.421C223.083 333.287 224.29 332.751 225.496 332.215C229.25 330.204 232.736 326.048 235.015 322.562C238.232 317.602 242.656 304.061 242.254 291.057C241.852 278.053 243.327 260.624 236.489 248.156C231.797 239.71 228.848 238.37 226.166 238.37C224.826 238.236 223.619 238.504 222.413 238.504Z" fill="url(#paint37_linear_12567_1030)"/>
<mask id="mask36_12567_1030" style="mask-type:luminance" maskUnits="userSpaceOnUse" x="277" y="365" width="15" height="42">
<path d="M277.513 365.598V402.599C282.206 403.94 286.898 405.013 291.724 406.085V365.598H277.513Z" fill="white"/>
</mask>
<g mask="url(#mask36_12567_1030)">
<path d="M291.724 365.598H277.513V406.085H291.724V365.598Z" fill="url(#paint38_linear_12567_1030)"/>
</g>
<path d="M212.224 93.1806L212.492 93.4488L221.474 113.692C223.217 117.446 225.094 117.446 226.703 114.765L232.467 109.134L216.514 95.0575L213.028 92.2422C212.76 92.6444 212.492 92.9125 212.224 93.1806Z" fill="url(#paint39_linear_12567_1030)"/>
<path d="M213.162 92.3765L216.648 95.1918L232.602 109.269L235.015 111.28C234.881 110.475 234.747 109.805 234.613 109.135C234.345 107.794 234.076 106.721 233.808 106.051C233.272 104.979 232.468 103.638 231.663 102.565C231.529 102.431 231.529 102.431 231.395 102.297C231.127 102.163 230.993 101.895 230.725 101.627C230.591 101.493 230.323 101.359 230.189 101.225C229.92 101.091 229.786 100.823 229.518 100.688C229.384 100.554 229.25 100.42 228.982 100.286C228.714 100.018 228.58 99.8841 228.312 99.6159C228.178 99.4819 228.044 99.3478 227.909 99.2137C227.641 98.9456 227.373 98.6775 226.971 98.4094C226.837 98.2753 226.703 98.2753 226.569 98.1412C226.167 97.739 225.764 97.4709 225.362 97.0687C225.228 96.9346 225.094 96.9346 225.094 96.8006C224.826 96.5324 224.558 96.3984 224.29 96.1302C224.156 95.9962 223.887 95.8621 223.753 95.594C223.485 95.4599 223.351 95.1918 223.083 95.0577C222.949 94.9237 222.815 94.7896 222.547 94.6555C222.413 94.5215 222.145 94.3874 222.011 94.2533C221.877 94.1193 221.742 93.9852 221.608 93.8511C221.474 93.7171 221.206 93.583 221.072 93.449C220.804 93.3149 220.67 93.0468 220.402 92.9127C220.268 92.7786 220 92.6446 219.866 92.3765C219.732 92.2424 219.463 92.1083 219.329 91.9743C219.195 91.9743 219.195 91.8402 219.061 91.8402C218.793 91.5721 218.659 91.438 218.659 91.438L215.844 89.293C214.771 90.4995 213.967 91.438 213.162 92.3765Z" fill="url(#paint40_linear_12567_1030)"/>
<path d="M256.063 215.039C254.99 215.71 253.918 216.38 252.845 217.05C262.096 217.318 265.715 225.496 265.715 234.345V256.465H261.023V277.379L300.572 273.491C299.366 251.773 297.086 229.25 296.282 225.094C296.148 224.558 296.014 224.156 296.014 223.619L269.871 209.14L269.335 208.738L256.063 215.039Z" fill="url(#paint41_linear_12567_1030)"/>
<path d="M241.986 235.423C239.707 249.097 239.171 256.337 239.171 256.337H241.182H260.889H265.582V234.216C265.582 225.368 261.962 217.19 252.711 216.922C247.349 220.542 243.863 223.893 241.986 235.423Z" fill="url(#paint42_linear_12567_1030)"/>
<path d="M219.866 633.059C206.459 630.512 199.488 625.015 189.299 618.312C183.936 614.826 173.077 606.38 177.501 612.011C167.178 605.442 158.062 597.666 148.543 589.622C151.761 584.528 157.928 572.998 159.134 557.044C160.475 539.482 145.46 523.93 145.46 523.93C145.46 523.93 130.311 542.699 131.919 560.798C132.456 567.501 136.343 575.679 139.829 582.114C130.445 573.534 121.596 564.15 113.418 553.961C117.44 549.671 125.484 539.616 129.372 524.199C133.662 507.441 121.865 489.878 121.865 489.878C121.865 489.878 104.168 505.43 102.559 523.126C102.023 529.695 104.302 538.409 106.715 545.247C98.2692 534.656 90.8956 523.528 84.4606 511.865C88.8847 508.647 98.6714 500.201 105.375 485.588C112.346 470.171 103.9 451.268 103.9 451.268C103.9 451.268 84.1924 463.199 79.5002 480.091C77.6233 486.795 78.6958 496.581 80.0364 503.687C73.4673 490.951 67.9706 477.946 63.5465 464.674C68.3728 462.261 79.2321 455.692 88.0803 442.821C97.4648 429.147 92.5044 409.439 92.5044 409.439C92.5044 409.439 71.3223 417.617 64.0828 433.169C61.2674 439.202 60.5971 448.318 60.5971 455.424C56.5752 441.883 53.4917 428.208 51.4807 414.668C56.5752 413.193 68.1047 408.769 78.8299 397.776C90.2253 386.112 88.8847 366.271 88.8847 366.271C88.8847 366.271 67.1663 370.561 57.3796 384.369C53.6258 389.732 51.3467 398.446 50.1401 405.283C48.3972 391.073 47.7269 377.13 47.9951 363.455C52.8214 362.919 65.1553 360.908 77.8914 351.792C90.8956 342.541 92.9066 323.102 92.9066 323.102C92.9066 323.102 71.1882 323.504 59.5246 335.168C54.4301 340.128 50.5423 349.513 48.2632 356.216C48.9335 341.067 50.6763 326.588 53.6258 313.047C57.7817 313.449 70.6519 313.852 84.9968 306.88C99.0736 300.177 104.436 281.676 104.436 281.676C104.436 281.676 83.388 278.459 70.1157 287.709C63.8146 292.133 58.0499 301.786 54.8323 307.819C56.5752 300.445 58.5861 293.474 60.8652 286.771C63.2784 278.995 65.8256 271.755 68.641 264.784C72.6629 265.857 84.9968 268.404 99.878 264.114C114.625 259.958 122.803 243.2 122.803 243.2C122.803 243.2 103.096 236.496 88.6166 243.066C81.9133 246.149 73.4673 253.523 70.6519 259.555C78.4277 242.797 83.9243 231.134 90.6275 220.141C93.711 221.615 105.509 226.71 121.462 225.101C136.343 223.626 147.203 208.745 147.203 208.745C147.203 208.745 129.238 198.824 114.223 202.846C106.447 204.991 95.856 211.963 92.3704 217.191C99.878 205.796 104.436 199.763 109.262 193.73C112.748 193.328 123.473 191.451 129.64 183.541C138.757 171.877 139.427 160.08 139.427 160.08C139.427 160.08 124.278 163.297 117.843 169.196C109.799 176.57 108.19 189.306 107.788 192.121C103.766 196.947 99.3417 203.248 94.2473 211.158C97.7329 205.93 100.816 194.132 100.012 186.356C98.6714 170.939 83.254 157.398 83.254 157.398C83.254 157.398 72.931 172.682 76.6848 187.161C80.7068 202.98 89.2869 211.829 91.566 214.108C84.4606 224.699 77.3551 238.239 70.2497 253.657C71.5904 247.087 73.3332 236.228 71.4563 228.989C67.3003 213.705 49.4698 202.846 49.4698 202.846C49.4698 202.846 41.8281 220.007 48.1291 233.949C54.8323 248.696 65.1553 256.472 68.1047 258.617C64.485 267.063 60.8652 276.045 57.7817 285.832C56.307 289.988 54.8323 294.412 53.6258 298.836C53.6258 291.999 53.2236 282.615 50.2741 276.582C43.4369 261.969 23.5953 254.193 23.5953 254.193C23.5953 254.193 18.9031 272.694 27.7513 285.698C36.4655 298.434 47.3247 304.601 51.4807 306.612C48.2632 319.616 45.85 333.693 44.7775 348.306C43.5709 341.603 41.4259 332.889 37.6721 327.526C28.1535 313.986 6.83729 309.83 6.83729 309.83C6.83729 309.83 5.49664 329.269 16.624 340.664C27.6173 351.926 39.6831 356.082 44.1072 357.422C43.4369 371.365 43.705 385.844 45.0456 400.591C42.6325 393.888 38.8787 385.308 34.0524 380.482C22.1206 368.55 0 368.148 0 368.148C0 368.148 2.01097 387.989 15.2833 397.508C28.4216 406.892 41.2918 409.037 45.9841 409.439C47.5929 422.98 50.1401 436.655 53.7598 450.195C50.2741 444.162 45.3138 437.057 40.0853 433.437C26.0085 423.65 3.61974 427.136 3.61974 427.136C3.61974 427.136 9.25044 446.709 24.1316 453.815C38.6105 460.786 51.4807 460.786 56.5752 460.384C60.329 472.852 64.8872 485.052 70.3838 497.118C65.9597 492.157 60.463 487.063 55.2345 484.515C39.4149 477.142 17.4284 484.65 17.4284 484.65C17.4284 484.65 26.5447 503.285 42.7665 507.843C57.9158 512.133 70.3838 510.122 76.0145 508.915C81.7793 520.177 88.4825 531.17 95.9901 541.627C90.7616 537.605 84.4606 533.449 78.8299 531.974C61.5356 527.416 40.8896 538.678 40.8896 538.678C40.8896 538.678 53.3576 555.838 70.5179 557.581C86.6056 559.189 98.9395 554.899 104.168 552.62C111.542 562.407 119.451 571.657 127.897 580.237C121.999 577.154 115.161 574.339 109.531 573.802C91.2978 572.194 72.6629 587.343 72.6629 587.343C72.6629 587.343 88.2144 602.358 105.777 601.017C121.999 599.811 133.528 593.51 138.488 590.292C147.605 598.47 157.123 606.112 167.044 612.949C160.609 610.804 152.967 609.061 147.069 609.598C128.568 611.206 112.346 629.707 112.346 629.707C112.346 629.707 130.579 642.041 148.007 637.617C164.095 633.461 173.882 617.91 179.11 620.993C193.053 629.171 199.89 634.668 217.586 643.382C211.688 640.298 226.703 634.4 219.866 633.059Z" fill="black"/>
<path d="M446.166 633.059C459.573 630.512 466.544 625.015 476.733 618.312C482.095 614.826 492.955 606.38 488.53 612.011C498.853 605.442 507.97 597.666 517.488 589.622C514.271 584.528 508.104 572.998 506.897 557.044C505.557 539.482 520.572 523.93 520.572 523.93C520.572 523.93 535.721 542.699 534.112 560.798C533.576 567.501 529.688 575.679 526.203 582.114C535.587 573.534 544.435 564.15 552.613 553.961C548.591 549.671 540.547 539.616 536.66 524.199C532.369 507.441 544.167 489.878 544.167 489.878C544.167 489.878 561.864 505.43 563.472 523.126C564.009 529.695 561.73 538.409 559.316 545.247C567.762 534.656 575.136 523.528 581.571 511.865C577.147 508.647 567.36 500.201 560.657 485.588C553.686 470.171 562.132 451.268 562.132 451.268C562.132 451.268 581.839 463.199 586.531 480.091C588.408 486.795 587.336 496.581 585.995 503.687C592.564 490.951 598.061 477.946 602.485 464.674C597.659 462.261 586.8 455.692 577.951 442.821C568.567 429.147 573.527 409.439 573.527 409.439C573.527 409.439 594.709 417.617 601.949 433.169C604.764 439.202 605.435 448.318 605.435 455.424C609.457 441.883 612.54 428.208 614.551 414.668C609.456 413.193 597.927 408.769 587.202 397.776C575.806 386.112 577.147 366.271 577.147 366.271C577.147 366.271 598.865 370.561 608.652 384.369C612.406 389.732 614.685 398.446 615.892 405.283C617.634 391.073 618.305 377.13 618.037 363.455C613.21 362.919 600.876 360.908 588.14 351.792C575.136 342.541 573.125 323.102 573.125 323.102C573.125 323.102 594.843 323.504 606.507 335.168C611.602 340.128 615.489 349.513 617.769 356.216C617.098 341.067 615.355 326.588 612.406 313.047C608.25 313.449 595.38 313.852 581.035 306.88C566.958 300.177 561.596 281.676 561.596 281.676C561.596 281.676 582.644 278.459 595.916 287.709C602.217 292.133 607.982 301.786 611.199 307.819C609.456 300.445 607.446 293.474 605.166 286.771C602.753 278.995 600.206 271.755 597.391 264.784C593.369 265.857 581.035 268.404 566.154 264.114C551.407 259.958 543.229 243.2 543.229 243.2C543.229 243.2 562.936 236.496 577.415 243.066C584.118 246.149 592.564 253.523 595.38 259.555C587.604 242.797 582.107 231.134 575.404 220.141C572.321 221.615 560.523 226.71 544.569 225.101C529.688 223.626 518.829 208.745 518.829 208.745C518.829 208.745 536.794 198.824 551.809 202.846C559.585 204.991 570.176 211.963 573.661 217.191C566.02 205.796 561.596 199.763 556.769 193.73C553.284 193.328 542.558 191.451 536.391 183.541C527.275 171.877 526.605 160.08 526.605 160.08C526.605 160.08 541.754 163.297 548.189 169.196C556.233 176.57 557.842 189.306 558.11 192.121C562.132 196.947 566.556 203.248 571.65 211.158C568.165 205.93 565.081 194.132 565.886 186.356C567.226 170.939 582.644 157.398 582.644 157.398C582.644 157.398 592.967 172.682 589.213 187.161C585.191 202.98 576.611 211.829 574.332 214.108C581.437 224.699 588.542 238.239 595.648 253.657C594.307 247.087 592.564 236.228 594.441 228.989C598.597 213.705 616.428 202.846 616.428 202.846C616.428 202.846 624.07 220.007 617.769 233.949C611.065 248.696 600.742 256.472 597.793 258.617C601.413 267.063 605.032 276.045 608.116 285.832C609.591 289.988 611.065 294.412 612.272 298.836C612.272 291.999 612.674 282.615 615.623 276.582C622.461 261.969 642.302 254.193 642.302 254.193C642.302 254.193 646.995 272.694 638.146 285.698C629.432 298.434 618.573 304.601 614.417 306.612C617.634 319.616 620.048 333.693 621.12 348.306C622.327 341.603 624.472 332.889 628.226 327.526C637.744 313.986 659.06 309.83 659.06 309.83C659.06 309.83 660.401 329.269 649.274 340.664C638.28 351.926 626.215 356.082 621.79 357.422C622.461 371.365 622.193 385.844 620.852 400.591C623.265 393.888 627.019 385.308 631.845 380.482C643.777 368.55 665.898 368.148 665.898 368.148C665.898 368.148 663.887 387.989 650.614 397.508C637.476 406.892 624.606 409.037 619.914 409.439C618.305 422.98 615.758 436.655 612.138 450.195C615.623 444.162 620.584 437.057 625.812 433.437C639.889 423.65 662.278 427.136 662.278 427.136C662.278 427.136 656.647 446.709 641.766 453.815C627.287 460.786 614.417 460.786 609.322 460.384C605.569 472.852 601.01 485.052 595.514 497.118C599.938 492.157 605.435 487.063 610.663 484.515C626.483 477.142 648.469 484.65 648.469 484.65C648.469 484.65 639.353 503.285 623.131 507.843C607.982 512.133 595.514 510.122 589.883 508.915C584.118 520.177 577.415 531.17 569.908 541.627C575.136 537.605 581.437 533.449 587.068 531.974C604.362 527.416 625.008 538.678 625.008 538.678C625.008 538.678 612.54 555.838 595.38 557.581C579.292 559.189 566.958 554.899 561.73 552.62C554.356 562.407 546.446 571.657 538 580.237C543.899 577.154 550.736 574.339 556.367 573.802C574.6 572.194 593.235 587.343 593.235 587.343C593.235 587.343 577.683 602.358 560.121 601.017C543.899 599.811 532.369 593.51 527.409 590.292C518.293 598.47 508.774 606.112 498.853 612.949C505.288 610.804 512.93 609.061 518.829 609.598C537.33 611.206 553.552 629.707 553.552 629.707C553.552 629.707 535.319 642.041 517.891 637.617C501.803 633.461 492.016 617.91 486.788 620.993C472.845 629.171 466.008 634.668 448.311 643.382C454.344 640.298 439.329 634.4 446.166 633.059Z" fill="black"/>
<path d="M183.4 649.412C183.4 655.311 188.092 660.003 193.991 660.003H472.041C477.939 660.003 482.632 655.311 482.632 649.412V563.477H183.4V649.412Z" fill="black"/>
<path d="M306.337 579.16H319.207V583.182H311.565V592.432H318.403V596.454H311.565V609.593H306.337V579.16Z" fill="white"/>
<path d="M321.62 595.114V593.773C321.62 583.45 325.508 578.758 331.005 578.758C336.501 578.758 340.389 583.45 340.389 593.773V595.114C340.389 605.437 336.501 610.129 331.005 610.129C325.508 610.129 321.62 605.302 321.62 595.114ZM335.161 595.114V593.773C335.161 585.863 333.418 582.646 331.005 582.646C328.591 582.646 326.849 585.863 326.849 593.773V595.114C326.849 603.023 328.591 606.241 331.005 606.241C333.418 606.107 335.161 603.023 335.161 595.114Z" fill="white"/>
<path d="M344.411 579.16H350.31C356.745 579.16 361.437 582.11 361.437 588.679V588.947C361.437 592.969 359.426 595.65 356.477 597.125L361.973 609.727H356.477L351.516 598.599C351.248 598.599 350.98 598.599 350.846 598.599H349.505V609.727H344.277V579.16H344.411ZM350.444 594.712C353.929 594.712 356.209 592.969 356.209 589.081V588.813C356.209 584.657 353.661 583.182 350.31 583.182H349.639V594.712H350.444Z" fill="white"/>
<path d="M195.6 632.387V631.449C195.6 621.528 200.694 616.434 207.531 616.434C209.408 616.434 211.017 616.836 212.224 617.372V621.93C210.615 621.126 209.274 620.59 207.665 620.59C203.778 620.59 200.828 624.075 200.828 631.315V632.655C200.828 640.833 203.912 643.515 207.263 643.515C207.799 643.515 207.934 643.515 208.47 643.381V634.264H204.582V630.376H213.162V646.196C211.017 647 209.274 647.402 206.995 647.402C200.828 647.536 195.6 642.844 195.6 632.387Z" fill="white"/>
<path d="M217.72 616.699H223.619C230.054 616.699 234.746 619.649 234.746 626.218V626.486C234.746 630.508 232.735 633.189 229.786 634.664L235.283 647.266H229.786L224.826 636.139C224.558 636.139 224.289 636.139 224.155 636.139H222.815V647.266H217.72V616.699ZM223.753 632.251C227.239 632.251 229.518 630.508 229.518 626.62V626.352C229.518 622.196 226.971 620.721 223.619 620.721H222.949V632.251H223.753Z" fill="white"/>
<path d="M238.5 616.699H252.041V620.721H243.729V629.838H251.236V633.859H243.729V643.11H252.309V647.132H238.634V616.699H238.5Z" fill="white"/>
<path d="M261.559 616.562H267.056L274.295 647.129H269.067L267.592 640.292H260.755L259.28 647.263H254.32L261.559 616.562ZM266.922 636.538L264.241 624.338L261.559 636.538H266.922Z" fill="white"/>
<path d="M278.988 620.721H274.027V616.699H289.043V620.721H284.082V647.266H278.988V620.721Z" fill="white"/>
<path d="M301.108 616.699H314.649V620.721H306.203V629.838H313.71V633.859H306.203V643.11H314.783V647.132H301.108V616.699Z" fill="white"/>
<path d="M318.537 616.699H323.765L328.994 629.703L334.222 616.699H339.451V647.266H334.491V626.486L328.994 639.892H328.86L323.363 626.486V647.266H318.403V616.699H318.537Z" fill="white"/>
<path d="M344.143 616.699H349.505C356.343 616.699 360.901 620.051 360.901 626.754V626.888C360.901 633.457 356.477 636.809 349.908 637.211H349.237V647.266H344.009V616.699H344.143ZM350.042 633.189C353.527 633.055 355.806 631.044 355.806 627.022V626.888C355.806 622.598 353.661 620.721 350.176 620.721H349.371V633.189H350.042Z" fill="white"/>
<path d="M364.253 616.699H369.481V643.11H376.989V647.132H364.387V616.699H364.253Z" fill="white"/>
<path d="M377.927 632.653V631.312C377.927 620.989 381.815 616.297 387.312 616.297C392.808 616.297 396.696 620.989 396.696 631.312V632.653C396.696 642.976 392.808 647.668 387.312 647.668C381.815 647.668 377.927 642.842 377.927 632.653ZM391.602 632.653V631.312C391.602 623.402 389.859 620.185 387.446 620.185C385.033 620.185 383.29 623.402 383.29 631.312V632.653C383.29 640.562 385.033 643.78 387.446 643.78C389.859 643.78 391.602 640.562 391.602 632.653Z" fill="white"/>
<path d="M404.74 634.798L397.635 616.699H402.997L407.287 629.167L411.711 616.699H416.94L409.834 634.798V647.132H404.606V634.798H404.74Z" fill="white"/>
<path d="M419.487 616.699H433.028V620.721H424.716V629.838H432.223V633.859H424.716V643.11H433.296V647.132H419.621V616.699H419.487Z" fill="white"/>
<path d="M437.05 616.699H442.948C449.384 616.699 454.076 619.649 454.076 626.218V626.486C454.076 630.508 452.065 633.189 449.115 634.664L454.612 647.266H449.115L444.155 636.139C443.887 636.139 443.619 636.139 443.485 636.139H442.144V647.266H436.916V616.699H437.05ZM443.082 632.251C446.568 632.251 448.847 630.508 448.847 626.62V626.352C448.847 622.196 446.3 620.721 442.948 620.721H442.278V632.251H443.082Z" fill="white"/>
<path d="M457.025 646.059V641.501C459.304 642.708 461.181 643.244 462.924 643.244C465.069 643.244 466.812 642.171 466.812 640.16V640.026C466.812 638.283 466.141 637.077 462.79 633.725C458.232 629.301 456.623 627.29 456.623 623.938V623.804C456.623 619.38 460.243 616.297 464.935 616.297C467.348 616.297 468.957 616.699 470.565 617.369V621.928C468.555 620.989 467.214 620.453 465.471 620.453C463.326 620.453 461.717 621.659 461.717 623.536V623.67C461.717 625.413 462.388 626.352 465.739 629.569C470.565 634.396 471.906 636.406 471.906 639.892V640.026C471.906 644.45 468.152 647.534 463.326 647.534C461.047 647.534 458.902 646.998 457.025 646.059Z" fill="white"/>
<path d="M185.411 500.467C185.009 500.467 184.606 500.198 184.606 499.662C184.606 499.26 185.143 498.724 185.679 498.322C193.053 491.752 203.644 483.574 203.644 472.313C203.644 464.001 199.085 462.258 196.404 462.258C194.125 462.258 192.382 462.66 190.773 464.135C189.567 465.342 188.494 467.889 188.494 469.23C188.494 469.766 188.36 470.302 187.824 470.302C187.556 470.302 187.422 469.9 187.288 469.23C187.288 468.693 187.02 464.403 187.02 462.794C187.02 462.258 187.02 462.124 187.69 461.722C189.701 460.649 192.65 459.711 197.208 459.711C206.593 459.711 210.481 464.805 210.481 470.972C210.481 481.295 199.085 490.144 192.248 495.64C191.98 495.908 192.114 496.042 192.382 496.042H196.002C196.94 496.042 203.107 496.042 205.118 495.774C208.738 495.372 210.481 493.495 211.151 491.082C211.285 490.412 211.419 490.278 211.822 490.278C212.224 490.278 212.224 490.814 212.224 491.35C212.224 492.155 211.151 497.115 210.749 498.858C210.347 500.332 209.542 500.467 206.191 500.467H185.411Z" fill="black"/>
<path d="M226.166 501.271C215.709 501.271 212.894 489.205 212.894 481.697C212.894 469.364 217.184 459.711 226.971 459.711C237.428 459.711 240.243 470.838 240.243 479.284C240.243 492.423 235.283 501.271 226.166 501.271ZM225.898 462.124C221.876 462.124 219.061 467.621 219.061 479.687C219.061 488.803 221.34 498.858 227.105 498.858C231.395 498.858 234.076 491.618 234.076 481.295C234.076 472.179 231.663 462.124 225.898 462.124Z" fill="black"/>
<path d="M241.584 500.467C241.181 500.467 240.779 500.198 240.779 499.662C240.779 499.26 241.316 498.724 241.852 498.322C249.225 491.752 259.816 483.574 259.816 472.313C259.816 464.001 255.258 462.258 252.577 462.258C250.298 462.258 248.555 462.66 246.946 464.135C245.74 465.342 244.667 467.889 244.667 469.23C244.667 469.766 244.533 470.302 243.997 470.302C243.729 470.302 243.595 469.9 243.461 469.23C243.461 468.693 243.192 464.403 243.192 462.794C243.192 462.258 243.192 462.124 243.863 461.722C245.874 460.649 248.823 459.711 253.381 459.711C262.766 459.711 266.654 464.805 266.654 470.972C266.654 481.295 255.258 490.144 248.421 495.64C248.153 495.908 248.287 496.042 248.555 496.042H252.175C253.113 496.042 259.28 496.042 261.291 495.774C264.911 495.372 266.654 493.495 267.324 491.082C267.458 490.412 267.592 490.278 267.994 490.278C268.397 490.278 268.397 490.814 268.397 491.35C268.397 492.155 267.324 497.115 266.922 498.858C266.52 500.332 265.715 500.467 262.364 500.467H241.584Z" fill="black"/>
<path d="M269.603 500.467C269.201 500.467 268.799 500.198 268.799 499.662C268.799 499.26 269.335 498.724 269.871 498.322C277.245 491.752 287.836 483.574 287.836 472.313C287.836 464.001 283.278 462.258 280.596 462.258C278.317 462.258 276.575 462.66 274.966 464.135C273.759 465.342 272.687 467.889 272.687 469.23C272.687 469.766 272.553 470.302 272.016 470.302C271.748 470.302 271.614 469.9 271.48 469.23C271.48 468.693 271.212 464.403 271.212 462.794C271.212 462.258 271.212 462.124 271.882 461.722C273.893 460.649 276.843 459.711 281.401 459.711C290.785 459.711 294.673 464.805 294.673 470.972C294.673 481.295 283.278 490.144 276.44 495.64C276.172 495.908 276.306 496.042 276.575 496.042H280.194C281.133 496.042 287.3 496.042 289.311 495.774C292.93 495.372 294.673 493.495 295.344 491.082C295.478 490.412 295.612 490.278 296.014 490.278C296.416 490.278 296.416 490.814 296.416 491.35C296.416 492.155 295.344 497.115 294.941 498.858C294.539 500.332 293.735 500.467 290.383 500.467H269.603Z" fill="black"/>
<path d="M312.906 499.933C312.102 499.531 311.833 499.263 311.833 498.19C311.833 495.241 312.102 492.157 312.102 491.219C312.102 490.414 312.37 489.878 312.772 489.878C313.308 489.878 313.308 490.414 313.308 490.816C313.308 491.487 313.576 492.559 313.844 493.498C315.051 497.386 318.134 498.86 321.352 498.86C326.178 498.86 328.457 495.643 328.457 492.827C328.457 490.28 327.653 487.733 323.229 484.381L320.816 482.505C315.051 477.946 313.04 474.193 313.04 469.902C313.04 464.138 317.866 459.848 325.24 459.848C328.726 459.848 330.871 460.384 332.345 460.786C332.882 460.92 333.15 461.054 333.15 461.456C333.15 462.127 332.882 463.736 332.882 467.757C332.882 468.964 332.748 469.366 332.345 469.366C331.943 469.366 331.809 469.098 331.809 468.428C331.809 467.892 331.541 466.283 330.468 464.942C329.664 463.87 328.189 462.395 324.704 462.395C320.816 462.395 318.403 464.674 318.403 467.892C318.403 470.305 319.609 472.182 324.033 475.533L325.508 476.606C331.943 481.432 334.222 485.052 334.222 490.146C334.222 493.23 333.016 496.849 329.262 499.397C326.581 501.139 323.631 501.542 320.816 501.542C317.464 501.274 315.051 500.871 312.906 499.933Z" fill="black"/>
<path d="M349.908 463.467L341.998 463.736C338.915 463.87 337.708 464.138 336.904 465.21C336.368 466.015 336.099 466.685 335.965 467.087C335.831 467.489 335.697 467.757 335.429 467.757C335.027 467.757 334.893 467.489 334.893 466.953C334.893 466.149 335.965 461.322 335.965 460.92C336.099 460.25 336.233 459.848 336.636 459.848C337.038 459.848 337.574 460.384 338.915 460.518C340.389 460.652 342.4 460.786 344.277 460.786H365.191C366.934 460.786 368.007 460.652 368.811 460.518C369.616 460.384 370.018 460.25 370.286 460.25C370.688 460.25 370.688 460.518 370.688 461.322C370.688 462.395 370.554 466.149 370.554 467.489C370.554 468.026 370.42 468.294 370.018 468.294C369.616 468.294 369.481 468.026 369.481 467.221V466.685C369.347 465.344 368.007 463.87 363.18 463.736L356.477 463.601V485.32C356.477 490.146 356.477 494.436 356.745 496.715C356.879 498.19 357.282 499.397 358.756 499.531C359.561 499.665 360.633 499.799 361.438 499.799C361.974 499.799 362.242 499.933 362.242 500.201C362.242 500.603 361.84 500.737 361.169 500.737C357.684 500.737 354.332 500.603 352.857 500.603C351.651 500.603 348.299 500.737 346.154 500.737C345.484 500.737 345.082 500.603 345.082 500.201C345.082 499.933 345.35 499.799 345.886 499.799C346.691 499.799 347.361 499.665 347.763 499.531C348.836 499.263 349.104 498.19 349.238 496.581C349.506 494.302 349.506 490.146 349.506 485.32V463.467H349.908Z" fill="black"/>
<path d="M376.721 475.93C376.721 467.886 376.721 466.412 376.587 464.669C376.453 462.926 376.05 461.988 374.308 461.585C373.905 461.451 372.967 461.451 372.297 461.451C371.76 461.451 371.358 461.317 371.358 460.915C371.358 460.513 371.76 460.379 372.565 460.379C374.039 460.379 375.514 460.379 376.855 460.379C378.195 460.379 379.402 460.513 380.206 460.513C381.949 460.513 392.406 460.513 393.479 460.513C394.551 460.379 395.356 460.245 395.758 460.245C396.026 460.245 396.294 459.977 396.562 459.977C396.83 459.977 396.83 460.245 396.83 460.513C396.83 460.915 396.562 461.585 396.428 463.998C396.428 464.535 396.294 466.814 396.16 467.484C396.16 467.752 396.026 468.02 395.624 468.02C395.222 468.02 395.088 467.752 395.088 467.216C395.088 466.814 395.088 466.009 394.819 465.339C394.417 464.401 393.881 463.73 391.334 463.462C390.395 463.328 384.899 463.194 383.826 463.194C383.558 463.194 383.424 463.328 383.424 463.73V477.137C383.424 477.539 383.424 477.673 383.826 477.673C385.033 477.673 391.066 477.673 392.272 477.539C393.479 477.405 394.283 477.271 394.819 476.735C395.222 476.332 395.356 476.064 395.624 476.064C395.892 476.064 396.026 476.198 396.026 476.467C396.026 476.735 395.758 477.673 395.624 480.354C395.624 481.427 395.356 483.572 395.356 483.84C395.356 484.242 395.356 484.913 394.819 484.913C394.417 484.913 394.283 484.644 394.283 484.376C394.283 483.84 394.283 483.17 394.015 482.499C393.747 481.427 392.942 480.623 391.066 480.488C389.993 480.354 384.765 480.354 383.558 480.354C383.29 480.354 383.29 480.622 383.29 480.891V485.047C383.29 486.789 383.29 491.75 383.29 493.225C383.424 496.844 384.228 497.649 389.591 497.649C390.932 497.649 393.211 497.649 394.551 496.978C395.892 496.308 396.562 495.236 396.964 493.09C397.099 492.554 397.233 492.286 397.501 492.286C397.903 492.286 397.903 492.688 397.903 493.225C397.903 494.431 397.501 498.051 397.233 499.123C396.83 500.464 396.428 500.464 394.417 500.464C390.395 500.464 387.58 500.33 385.301 500.33C383.022 500.196 381.413 500.196 379.804 500.196C379.268 500.196 378.061 500.196 376.721 500.196C375.514 500.196 374.173 500.33 373.101 500.33C372.431 500.33 372.028 500.196 372.028 499.794C372.028 499.526 372.297 499.392 372.833 499.392C373.637 499.392 374.308 499.257 374.71 499.123C375.782 498.855 376.05 497.783 376.184 496.174C376.453 493.895 376.453 489.739 376.453 484.913V475.93H376.721Z" fill="black"/>
<path d="M401.657 465.743C400.45 462.793 399.512 462.257 397.635 461.721C396.83 461.453 396.026 461.453 395.624 461.453C395.087 461.453 394.953 461.319 394.953 460.916C394.953 460.514 395.49 460.38 396.294 460.38C399.109 460.38 402.059 460.514 403.936 460.514C405.276 460.514 407.824 460.38 410.505 460.38C411.175 460.38 411.711 460.514 411.711 460.916C411.711 461.319 411.443 461.453 410.907 461.453C410.103 461.453 409.298 461.453 408.896 461.855C408.494 462.123 408.36 462.525 408.36 462.927C408.36 463.598 408.896 465.072 409.566 466.949L418.683 490.947H418.951C421.23 485.182 428.067 468.022 429.408 464.536C429.676 463.866 429.944 463.061 429.944 462.525C429.944 462.123 429.676 461.721 429.274 461.453C428.603 461.185 427.799 461.185 427.129 461.185C426.593 461.185 426.19 461.185 426.19 460.782C426.19 460.38 426.727 460.246 427.665 460.246C430.346 460.246 432.491 460.38 433.162 460.38C434.1 460.38 436.513 460.246 438.122 460.246C438.792 460.246 439.195 460.38 439.195 460.782C439.195 461.185 438.926 461.319 438.39 461.319C437.854 461.319 436.781 461.319 435.843 461.989C435.173 462.525 434.368 463.33 432.894 466.815C430.883 471.776 429.408 474.591 426.593 481.16C423.241 488.936 420.694 494.701 419.487 497.248C418.146 500.331 417.744 501.136 417.074 501.136C416.404 501.136 416.001 500.331 415.063 497.918L401.657 465.743Z" fill="black"/>
<path d="M441.206 475.933C441.206 467.889 441.206 466.414 441.072 464.672C440.938 462.929 440.401 461.99 439.329 461.722C438.793 461.588 438.122 461.454 437.452 461.454C436.916 461.454 436.647 461.32 436.647 460.918C436.647 460.65 437.05 460.516 437.854 460.516C439.865 460.516 443.217 460.65 444.691 460.65C446.032 460.65 449.116 460.516 451.126 460.516C451.797 460.516 452.199 460.65 452.199 460.918C452.199 461.32 451.931 461.454 451.395 461.454C450.858 461.454 450.456 461.454 449.786 461.588C448.311 461.856 447.909 462.795 447.775 464.672C447.641 466.414 447.641 467.889 447.641 475.933V485.318C447.641 490.412 447.641 494.702 447.909 496.981C448.043 498.456 448.445 499.394 450.054 499.528C450.858 499.662 451.931 499.796 452.735 499.796C453.271 499.796 453.54 499.931 453.54 500.199C453.54 500.601 453.137 500.735 452.467 500.735C448.981 500.735 445.63 500.601 444.155 500.601C442.949 500.601 439.597 500.735 437.452 500.735C436.782 500.735 436.379 500.601 436.379 500.199C436.379 499.931 436.648 499.796 437.184 499.796C437.988 499.796 438.658 499.662 439.061 499.528C440.133 499.26 440.401 498.456 440.535 496.847C440.804 494.568 440.804 490.412 440.804 485.318V475.933H441.206Z" fill="black"/>
<path d="M461.315 475.93C461.315 467.886 461.315 466.412 461.181 464.669C461.047 462.926 460.645 461.988 458.902 461.585C458.5 461.451 457.561 461.451 456.891 461.451C456.355 461.451 455.953 461.317 455.953 460.915C455.953 460.513 456.355 460.379 457.159 460.379C458.634 460.379 460.109 460.379 461.449 460.379C462.79 460.379 463.996 460.513 464.801 460.513C466.544 460.513 477.001 460.513 478.073 460.513C479.146 460.379 479.95 460.245 480.352 460.245C480.62 460.245 480.889 459.977 481.157 459.977C481.425 459.977 481.425 460.245 481.425 460.513C481.425 460.915 481.157 461.585 481.023 463.998C481.023 464.535 480.889 466.814 480.755 467.484C480.755 467.752 480.62 468.02 480.218 468.02C479.816 468.02 479.682 467.752 479.682 467.216C479.682 466.814 479.682 466.009 479.414 465.339C479.012 464.401 478.475 463.73 475.928 463.462C474.99 463.328 469.493 463.194 468.421 463.194C468.152 463.194 468.018 463.328 468.018 463.73V477.137C468.018 477.539 468.018 477.673 468.421 477.673C469.627 477.673 475.66 477.673 476.867 477.539C478.073 477.405 478.878 477.271 479.414 476.735C479.816 476.332 479.95 476.064 480.218 476.064C480.486 476.064 480.62 476.198 480.62 476.467C480.62 476.735 480.352 477.673 480.218 480.354C480.218 481.427 479.95 483.572 479.95 483.84C479.95 484.242 479.95 484.913 479.414 484.913C479.012 484.913 478.878 484.644 478.878 484.376C478.878 483.84 478.878 483.17 478.61 482.499C478.341 481.427 477.537 480.623 475.66 480.488C474.588 480.354 469.359 480.354 468.152 480.354C467.884 480.354 467.884 480.622 467.884 480.891V485.047C467.884 486.789 467.884 491.75 467.884 493.225C468.018 496.844 468.823 497.649 474.185 497.649C475.526 497.649 477.805 497.649 479.146 496.978C480.486 496.308 481.157 495.236 481.559 493.09C481.693 492.554 481.827 492.286 482.095 492.286C482.497 492.286 482.497 492.688 482.497 493.225C482.497 494.431 482.095 498.051 481.827 499.123C481.425 500.464 481.023 500.464 479.012 500.464C474.99 500.464 472.174 500.33 469.895 500.33C467.616 500.196 466.007 500.196 464.399 500.196C463.862 500.196 462.656 500.196 461.449 500.196C460.243 500.196 458.902 500.33 457.83 500.33C457.159 500.33 456.757 500.196 456.757 499.794C456.757 499.526 457.025 499.392 457.561 499.392C458.366 499.392 459.036 499.257 459.438 499.123C460.511 498.855 460.779 497.783 460.913 496.174C461.181 493.895 461.181 489.739 461.181 484.913V475.93H461.315Z" fill="black"/>
<path d="M485.715 465.341C485.715 462.391 487.994 460.246 491.078 460.246C494.161 460.246 496.44 462.391 496.44 465.341C496.44 468.156 494.161 470.301 491.078 470.301C487.994 470.301 485.715 468.156 485.715 465.341ZM495.234 465.341C495.234 462.927 493.491 461.319 491.078 461.319C488.665 461.319 486.922 462.927 486.922 465.341C486.922 467.754 488.665 469.497 491.212 469.497C493.491 469.362 495.234 467.754 495.234 465.341ZM488.799 464.536V463.061C488.799 462.659 488.53 462.659 488.128 462.659C488.128 462.659 487.994 462.659 487.994 462.525C487.994 462.391 488.128 462.257 488.262 462.257H488.53C488.665 462.257 489.067 462.257 489.469 462.257C490.005 462.257 490.273 462.257 490.81 462.257C491.748 462.257 493.357 462.391 493.357 463.866C493.357 464.402 493.089 464.938 492.15 465.609L493.223 466.815C494.027 467.62 494.027 467.62 494.161 467.62C494.295 467.62 494.295 467.62 494.295 467.754C494.295 467.888 494.295 468.022 493.759 468.022C492.955 468.022 492.418 468.022 491.48 466.949L490.675 465.877H490.005V466.413C490.005 467.486 490.005 467.62 490.139 467.62C490.273 467.62 490.541 467.62 490.675 467.62C490.81 467.62 490.81 467.62 490.81 467.754C490.81 467.888 490.675 468.022 490.541 468.022H490.273C490.139 468.022 489.603 468.022 489.335 468.022C489.201 468.022 488.53 468.022 488.53 468.022H488.262C488.128 468.022 487.86 468.022 487.86 467.754C487.86 467.62 487.86 467.62 487.994 467.62C488.53 467.62 488.53 467.62 488.665 467.217C488.665 466.949 488.665 466.547 488.665 465.743V464.536H488.799ZM490.139 465.072C490.273 465.206 490.675 465.206 490.944 465.206C491.078 465.206 491.346 465.206 491.48 465.072C491.748 464.938 492.016 464.536 492.016 464.134C492.016 463.464 491.48 462.927 490.675 462.927C490.675 462.927 490.273 462.927 490.139 463.061V465.072Z" fill="black"/>
<path d="M223.217 518.433C222.547 516.556 222.01 515.215 221.34 514.679C220.804 514.277 219.731 514.143 219.195 514.143C218.659 514.143 218.391 514.143 218.391 513.607C218.391 513.204 218.793 513.07 219.597 513.07C222.278 513.07 225.228 513.204 225.63 513.204C226.166 513.204 228.445 513.07 231.395 513.07C232.065 513.07 232.467 513.204 232.467 513.607C232.467 514.009 232.065 514.143 231.529 514.143C231.127 514.143 230.59 514.143 230.188 514.411C229.652 514.679 229.652 514.947 229.652 515.617C229.652 516.288 230.188 518.031 230.859 520.444C231.797 523.93 236.623 539.749 237.562 542.699H237.696L247.885 515.483C248.421 514.009 248.823 513.607 249.225 513.607C249.762 513.607 250.03 514.411 250.7 516.02L261.559 542.296H261.693C262.632 538.811 266.788 525.002 268.665 518.835C269.067 517.628 269.201 516.556 269.201 515.752C269.201 514.947 268.665 514.143 266.654 514.143C266.118 514.143 265.715 514.009 265.715 513.607C265.715 513.204 266.118 513.07 266.922 513.07C269.737 513.07 271.882 513.204 272.419 513.204C272.821 513.204 275.1 513.07 276.709 513.07C277.245 513.07 277.647 513.204 277.647 513.472C277.647 513.875 277.379 514.009 276.977 514.009C276.441 514.009 275.77 514.009 275.1 514.277C273.893 514.813 273.223 516.824 272.15 519.774C269.737 526.343 264.241 542.967 261.693 550.876C261.157 552.753 260.889 553.29 260.219 553.29C259.682 553.29 259.414 552.619 258.61 550.742L247.751 524.6H247.617C246.678 527.281 239.707 545.782 237.428 550.608C236.489 552.753 236.221 553.424 235.551 553.424C235.015 553.424 234.881 552.887 234.344 551.547L223.217 518.433Z" fill="black"/>
<path d="M281.937 528.483C281.937 520.573 281.937 519.098 281.803 517.355C281.669 515.612 281.133 514.674 280.06 514.406C279.524 514.272 278.854 514.138 278.183 514.138C277.647 514.138 277.379 514.004 277.379 513.601C277.379 513.333 277.781 513.199 278.585 513.199C280.596 513.199 283.814 513.333 285.423 513.333C286.763 513.333 289.847 513.199 291.858 513.199C292.528 513.199 292.93 513.333 292.93 513.601C292.93 514.004 292.662 514.138 292.126 514.138C291.59 514.138 291.188 514.138 290.517 514.272C289.042 514.54 288.64 515.478 288.64 517.221C288.506 518.83 288.506 520.305 288.506 528.348V537.599C288.506 542.693 288.506 546.849 288.774 548.994C288.908 550.469 289.311 551.408 290.919 551.542C291.59 551.676 292.796 551.81 293.601 551.81C294.137 551.81 294.405 551.944 294.405 552.212C294.405 552.614 294.003 552.748 293.467 552.748C289.981 552.748 286.763 552.614 285.289 552.614C284.082 552.614 280.731 552.748 278.72 552.748C278.049 552.748 277.647 552.614 277.647 552.212C277.647 551.944 277.915 551.81 278.451 551.81C279.256 551.81 279.926 551.676 280.328 551.542C281.401 551.273 281.669 550.469 281.803 548.994C282.071 546.849 282.071 542.693 282.071 537.599V528.483H281.937Z" fill="black"/>
<path d="M304.862 545.779C304.996 549.801 305.667 551.276 306.739 551.544C307.678 551.812 308.616 551.946 309.42 551.946C309.957 551.946 310.359 552.08 310.359 552.348C310.359 552.751 309.823 552.885 309.152 552.885C305.801 552.885 303.656 552.751 302.717 552.751C302.181 552.751 299.768 552.885 297.086 552.885C296.416 552.885 295.88 552.885 295.88 552.348C295.88 552.08 296.148 551.946 296.684 551.946C297.355 551.946 298.293 551.946 299.097 551.678C300.438 551.276 300.706 549.801 300.706 545.243L301.242 514.274C301.242 513.202 301.377 512.531 301.913 512.531C302.449 512.531 302.985 513.202 303.79 514.14C304.46 514.81 312.37 523.39 320.011 530.898C323.631 534.518 330.603 542.025 331.541 542.83H331.809L331.273 519.369C331.273 516.151 330.737 515.213 329.53 514.676C328.726 514.408 327.519 514.408 326.715 514.408C326.044 514.408 325.91 514.274 325.91 513.872C325.91 513.47 326.447 513.336 327.251 513.336C329.932 513.336 332.479 513.47 333.552 513.47C334.088 513.47 336.099 513.336 338.646 513.336C339.317 513.336 339.853 513.336 339.853 513.872C339.853 514.14 339.585 514.408 338.915 514.408C338.378 514.408 337.976 514.408 337.306 514.542C335.831 514.944 335.429 516.017 335.429 518.966L334.893 551.946C334.893 553.153 334.624 553.555 334.222 553.555C333.686 553.555 333.016 553.019 332.479 552.348C329.128 549.265 322.559 542.428 317.062 536.931C311.297 531.3 305.533 524.731 304.594 523.793H304.46L304.862 545.779Z" fill="black"/>
<path d="M348.701 545.779C348.835 549.801 349.505 551.276 350.578 551.544C351.516 551.812 352.455 551.946 353.259 551.946C353.796 551.946 354.198 552.08 354.198 552.348C354.198 552.751 353.661 552.885 352.991 552.885C349.64 552.885 347.494 552.751 346.556 552.751C346.02 552.751 343.607 552.885 340.925 552.885C340.255 552.885 339.719 552.885 339.719 552.348C339.719 552.08 339.987 551.946 340.523 551.946C341.193 551.946 342.132 551.946 342.936 551.678C344.277 551.276 344.545 549.801 344.545 545.243L345.081 514.274C345.081 513.202 345.215 512.531 345.752 512.531C346.288 512.531 346.824 513.202 347.629 514.14C348.299 514.81 356.209 523.39 363.85 530.898C367.47 534.518 374.441 542.025 375.38 542.83H375.648L375.112 519.369C375.112 516.151 374.576 515.213 373.369 514.676C372.565 514.408 371.358 514.408 370.554 514.408C369.883 514.408 369.749 514.274 369.749 513.872C369.749 513.47 370.285 513.336 371.09 513.336C373.771 513.336 376.318 513.47 377.391 513.47C377.927 513.47 379.938 513.336 382.485 513.336C383.156 513.336 383.692 513.336 383.692 513.872C383.692 514.14 383.424 514.408 382.753 514.408C382.217 514.408 381.815 514.408 381.145 514.542C379.67 514.944 379.268 516.017 379.268 518.966L378.731 551.946C378.731 553.153 378.463 553.555 378.061 553.555C377.525 553.555 376.855 553.019 376.318 552.348C372.967 549.265 366.398 542.428 360.901 536.931C355.136 531.3 349.371 524.731 348.433 523.793H348.299L348.701 545.779Z" fill="black"/>
<path d="M391.602 528.486C391.602 520.577 391.602 519.102 391.468 517.359C391.334 515.616 390.931 514.812 389.189 514.41C388.786 514.276 387.848 514.275 387.178 514.275C386.641 514.275 386.239 514.141 386.239 513.739C386.239 513.337 386.641 513.203 387.446 513.203C388.921 513.203 390.395 513.203 391.736 513.203C393.077 513.203 394.283 513.337 395.087 513.337C396.696 513.337 407.153 513.337 408.226 513.337C409.164 513.203 410.103 513.069 410.505 513.069C410.773 513.069 411.041 512.801 411.309 512.801C411.577 512.801 411.577 513.069 411.577 513.337C411.577 513.739 411.309 514.275 411.175 516.689C411.175 517.225 411.041 519.504 410.907 520.174C410.907 520.442 410.773 520.711 410.371 520.711C409.969 520.711 409.835 520.442 409.835 520.04C409.835 519.638 409.835 518.834 409.566 518.163C409.164 517.225 408.628 516.555 406.081 516.286C405.142 516.152 399.646 516.018 398.707 516.018C398.439 516.018 398.305 516.152 398.305 516.555V529.827C398.305 530.229 398.305 530.363 398.707 530.363C399.914 530.363 405.813 530.363 407.019 530.229C408.226 530.095 409.03 529.961 409.566 529.425C409.969 529.023 410.103 528.754 410.371 528.754C410.639 528.754 410.773 528.889 410.773 529.157C410.773 529.425 410.505 530.363 410.371 532.91C410.371 533.983 410.103 535.994 410.103 536.396C410.103 536.798 410.103 537.335 409.566 537.335C409.164 537.335 409.03 537.066 409.03 536.798C409.03 536.262 409.03 535.592 408.762 534.921C408.494 533.849 407.824 533.045 405.813 532.91C404.874 532.776 399.646 532.776 398.439 532.776C398.171 532.776 398.171 533.044 398.171 533.313V537.469C398.171 539.211 398.171 544.038 398.171 545.512C398.305 549.132 399.109 549.937 404.472 549.937C405.813 549.937 408.092 549.937 409.432 549.266C410.773 548.596 411.443 547.523 411.846 545.378C411.98 544.842 412.114 544.574 412.382 544.574C412.784 544.574 412.784 544.976 412.784 545.512C412.784 546.719 412.382 550.205 412.114 551.277C411.711 552.618 411.309 552.618 409.298 552.618C405.41 552.618 402.461 552.484 400.316 552.484C398.037 552.35 396.428 552.35 394.819 552.35C394.283 552.35 393.077 552.35 391.87 552.35C390.663 552.35 389.323 552.484 388.25 552.484C387.58 552.484 387.178 552.35 387.178 551.948C387.178 551.679 387.446 551.545 387.982 551.545C388.786 551.545 389.457 551.411 389.859 551.277C390.931 551.009 391.2 549.937 391.334 548.462C391.602 546.317 391.602 542.161 391.602 537.335V528.486Z" fill="black"/>
<path d="M420.962 528.483C420.962 520.573 420.962 519.098 420.828 517.355C420.694 515.612 420.292 514.808 418.549 514.406C418.147 514.272 417.208 514.272 416.538 514.272C416.002 514.272 415.599 514.138 415.599 513.736C415.599 513.333 416.002 513.199 416.806 513.199C419.621 513.199 422.839 513.333 423.911 513.333C425.654 513.333 429.676 513.199 431.285 513.199C434.636 513.199 438.122 513.467 440.938 515.478C442.412 516.417 444.557 519.098 444.557 522.584C444.557 526.472 442.948 529.957 437.72 534.247C442.412 540.146 446.032 544.704 449.115 548.056C452.065 551.139 454.21 551.408 455.014 551.676C455.551 551.81 456.087 551.81 456.489 551.81C456.891 551.81 457.159 551.944 457.159 552.212C457.159 552.614 456.757 552.748 456.221 552.748H450.992C448.043 552.748 446.702 552.48 445.362 551.81C443.083 550.603 441.072 548.19 438.256 544.168C436.111 541.353 433.698 537.733 433.028 536.929C432.76 536.661 432.491 536.526 432.089 536.526L427.531 536.392C427.263 536.392 427.129 536.526 427.129 536.795V537.465C427.129 542.291 427.129 546.447 427.397 548.592C427.531 550.067 427.799 551.274 429.408 551.408C430.212 551.542 431.285 551.676 431.955 551.676C432.357 551.676 432.626 551.81 432.626 552.078C432.626 552.48 432.223 552.614 431.553 552.614C428.47 552.614 424.716 552.48 423.911 552.48C422.973 552.48 419.621 552.614 417.476 552.614C416.806 552.614 416.404 552.48 416.404 552.078C416.404 551.81 416.672 551.676 417.208 551.676C418.012 551.676 418.683 551.542 419.085 551.408C420.158 551.139 420.426 550.067 420.56 548.592C420.828 546.447 420.828 542.291 420.828 537.465V528.483H420.962ZM427.129 532.639C427.129 533.175 427.263 533.443 427.665 533.577C428.738 533.979 430.346 534.113 431.687 534.113C433.832 534.113 434.502 533.845 435.441 533.175C437.05 531.968 438.524 529.555 438.524 525.265C438.524 517.891 433.564 515.746 430.481 515.746C429.14 515.746 428.201 515.746 427.665 516.015C427.263 516.149 427.129 516.283 427.129 516.685V532.639Z" fill="black"/>
<path d="M482.632 383.561C482.632 377.662 477.805 372.836 471.906 372.836H194.125C188.226 372.836 183.4 377.662 183.4 383.561V447.644H482.632V383.561Z" fill="#919191"/>
<path d="M204.984 387.047H226.703C232.065 387.047 235.819 388.522 238.232 391.337C239.975 393.214 240.913 395.627 240.913 398.845V398.979C240.913 404.341 238.098 407.559 234.344 409.436C239.439 411.313 242.79 414.53 242.79 420.965V421.099C242.79 429.143 236.891 434.103 226.837 434.103H205.118V387.047H204.984ZM223.753 405.682C227.373 405.682 229.25 404.341 229.25 401.66V401.526C229.25 398.979 227.507 397.504 223.887 397.504H216.38V405.682H223.753ZM225.362 423.512C228.982 423.512 230.993 421.904 230.993 419.222V419.088C230.993 416.541 229.116 414.798 225.228 414.798H216.38V423.512H225.362Z" fill="white"/>
<path d="M247.482 387.047H267.458C273.893 387.047 278.317 388.924 281.267 392.141C283.68 394.823 285.02 398.442 285.02 403.001V403.135C285.02 410.374 281.535 415.066 276.306 417.614L286.361 433.969H272.821L264.375 419.759H264.24H259.28V433.969H247.616V387.047H247.482ZM266.922 409.57C270.944 409.57 273.223 407.425 273.223 404.073V403.939C273.223 400.185 270.81 398.442 266.922 398.442H259.28V409.704H266.922V409.57Z" fill="white"/>
<path d="M288.909 410.643C288.909 396.969 298.695 386.109 311.7 386.109C324.704 386.109 334.357 396.834 334.357 410.375V410.509C334.357 423.916 324.57 434.909 311.566 434.909C298.561 434.909 288.909 424.05 288.909 410.643ZM322.425 410.643C322.425 403.672 318.001 397.907 311.566 397.907C305.13 397.907 300.84 403.672 300.84 410.509V410.643C300.84 417.346 305.265 423.379 311.7 423.379C318.135 423.111 322.425 417.346 322.425 410.643Z" fill="white"/>
<path d="M339.987 387.047H350.846L368.274 411.849V387.047H379.804V433.969H369.615L351.516 408.229V433.969H339.987V387.047Z" fill="white"/>
<path d="M385.435 424.452L406.617 397.907H386.105V386.914H422.839V396.299L401.657 422.843H422.839V433.837H385.435V424.452Z" fill="white"/>
<path d="M428.335 387.047H462.254V398.04H439.865V405.146H460.109V415.334H439.865V422.842H462.522V433.835H428.201V387.047H428.335Z" fill="white"/>
<defs>
<radialGradient id="paint0_radial_12567_1030" cx="0" cy="0" r="1" gradientUnits="userSpaceOnUse" gradientTransform="translate(177.29 75.0326) scale(402.798)">
<stop stop-color="#8F8F8F"/>
<stop offset="1e-06" stop-color="#8F8F8F"/>
<stop offset="0.764" stop-color="#8F8F8F"/>
<stop offset="1" stop-color="#D1D1D1"/>
</radialGradient>
<radialGradient id="paint1_radial_12567_1030" cx="0" cy="0" r="1" gradientUnits="userSpaceOnUse" gradientTransform="translate(-104.447 217.661) scale(605.249 605.249)">
<stop stop-color="#8F8F8F"/>
<stop offset="1e-06" stop-color="#8F8F8F"/>
<stop offset="0.6554" stop-color="#8F8F8F"/>
<stop offset="1" stop-color="#D1D1D1"/>
</radialGradient>
<linearGradient id="paint2_linear_12567_1030" x1="187.72" y1="394.004" x2="478.791" y2="394.004" gradientUnits="userSpaceOnUse">
<stop stop-color="#606060"/>
<stop offset="1" stop-color="#464646"/>
</linearGradient>
<linearGradient id="paint3_linear_12567_1030" x1="480.702" y1="164.458" x2="371.976" y2="255.689" gradientUnits="userSpaceOnUse">
<stop stop-color="#838383"/>
<stop offset="0.001014" stop-color="#838383"/>
<stop offset="0.4817" stop-color="#535353"/>
<stop offset="0.9798"/>
<stop offset="1"/>
</linearGradient>
<linearGradient id="paint4_linear_12567_1030" x1="417.786" y1="314.117" x2="417.786" y2="263.448" gradientUnits="userSpaceOnUse">
<stop stop-color="#838383"/>
<stop offset="0.001014" stop-color="#838383"/>
<stop offset="0.4817" stop-color="#535353"/>
<stop offset="0.9798"/>
<stop offset="1"/>
</linearGradient>
<linearGradient id="paint5_linear_12567_1030" x1="443.513" y1="309.453" x2="385.425" y2="251.366" gradientUnits="userSpaceOnUse">
<stop stop-color="#838383"/>
<stop offset="0.001014" stop-color="#838383"/>
<stop offset="0.4817" stop-color="#535353"/>
<stop offset="0.9798"/>
<stop offset="1"/>
</linearGradient>
<linearGradient id="paint6_linear_12567_1030" x1="417.651" y1="256.716" x2="417.651" y2="288.032" gradientUnits="userSpaceOnUse">
<stop stop-color="#838383"/>
<stop offset="0.001014" stop-color="#838383"/>
<stop offset="0.4817" stop-color="#535353"/>
<stop offset="0.9798"/>
<stop offset="1"/>
</linearGradient>
<linearGradient id="paint7_linear_12567_1030" x1="427.007" y1="234.628" x2="427.007" y2="84.7631" gradientUnits="userSpaceOnUse">
<stop stop-color="#CDCDCD"/>
<stop offset="0.001014" stop-color="#CDCDCD"/>
<stop offset="1" stop-color="#E6E6E6"/>
</linearGradient>
<linearGradient id="paint8_linear_12567_1030" x1="380.83" y1="243.331" x2="380.83" y2="206.844" gradientUnits="userSpaceOnUse">
<stop stop-color="#767676"/>
<stop offset="0.0036" stop-color="#767676"/>
<stop offset="0.4698" stop-color="#606060"/>
<stop offset="0.9807" stop-color="#363636"/>
<stop offset="1" stop-color="#363636"/>
</linearGradient>
<linearGradient id="paint9_linear_12567_1030" x1="407.59" y1="243.328" x2="407.59" y2="206.845" gradientUnits="userSpaceOnUse">
<stop stop-color="#767676"/>
<stop offset="0.0036" stop-color="#767676"/>
<stop offset="0.4698" stop-color="#606060"/>
<stop offset="0.9807" stop-color="#363636"/>
<stop offset="1" stop-color="#363636"/>
</linearGradient>
<linearGradient id="paint10_linear_12567_1030" x1="433.975" y1="243.334" x2="433.975" y2="206.836" gradientUnits="userSpaceOnUse">
<stop stop-color="#767676"/>
<stop offset="0.0036" stop-color="#767676"/>
<stop offset="0.4698" stop-color="#606060"/>
<stop offset="0.9807" stop-color="#363636"/>
<stop offset="1" stop-color="#363636"/>
</linearGradient>
<linearGradient id="paint11_linear_12567_1030" x1="463.229" y1="243.327" x2="463.229" y2="206.835" gradientUnits="userSpaceOnUse">
<stop stop-color="#767676"/>
<stop offset="0.0036" stop-color="#767676"/>
<stop offset="0.4698" stop-color="#606060"/>
<stop offset="0.9807" stop-color="#363636"/>
<stop offset="1" stop-color="#363636"/>
</linearGradient>
<linearGradient id="paint12_linear_12567_1030" x1="226.302" y1="139.038" x2="252.7" y2="139.038" gradientUnits="userSpaceOnUse">
<stop/>
<stop offset="0.1149" stop-color="#A8A8A8"/>
<stop offset="1" stop-color="#A8A8A8"/>
</linearGradient>
<linearGradient id="paint13_linear_12567_1030" x1="186.958" y1="155.568" x2="397.42" y2="177.689" gradientUnits="userSpaceOnUse">
<stop/>
<stop offset="0.1149" stop-color="#A8A8A8"/>
<stop offset="1" stop-color="#BBBBBB"/>
</linearGradient>
<linearGradient id="paint14_linear_12567_1030" x1="231.19" y1="117.61" x2="243.94" y2="106.911" gradientUnits="userSpaceOnUse">
<stop/>
<stop offset="0.7066" stop-color="#A8A8A8"/>
<stop offset="1" stop-color="#A8A8A8"/>
</linearGradient>
<linearGradient id="paint15_linear_12567_1030" x1="241.017" y1="110.775" x2="186.756" y2="110.775" gradientUnits="userSpaceOnUse">
<stop stop-color="#838383"/>
<stop offset="0.3506" stop-color="#9C9C9C"/>
<stop offset="1" stop-color="#B7B7B7"/>
</linearGradient>
<linearGradient id="paint16_linear_12567_1030" x1="325.827" y1="290.206" x2="165.397" y2="290.206" gradientUnits="userSpaceOnUse">
<stop stop-color="#838383"/>
<stop offset="0.001014" stop-color="#838383"/>
<stop offset="0.4817" stop-color="#535353"/>
<stop offset="0.9798"/>
<stop offset="1"/>
</linearGradient>
<linearGradient id="paint17_linear_12567_1030" x1="182.597" y1="121.591" x2="289.418" y2="150.214" gradientUnits="userSpaceOnUse">
<stop/>
<stop offset="0.1149" stop-color="#A8A8A8"/>
<stop offset="1" stop-color="#BBBBBB"/>
</linearGradient>
<linearGradient id="paint18_linear_12567_1030" x1="313.465" y1="296.411" x2="172.197" y2="296.411" gradientUnits="userSpaceOnUse">
<stop stop-color="#838383"/>
<stop offset="0.001014" stop-color="#838383"/>
<stop offset="0.4817" stop-color="#535353"/>
<stop offset="0.9798"/>
<stop offset="1"/>
</linearGradient>
<linearGradient id="paint19_linear_12567_1030" x1="355.036" y1="398.208" x2="331.691" y2="288.378" gradientUnits="userSpaceOnUse">
<stop stop-color="#838383"/>
<stop offset="0.001014" stop-color="#838383"/>
<stop offset="0.4817" stop-color="#535353"/>
<stop offset="0.9798"/>
<stop offset="1"/>
</linearGradient>
<linearGradient id="paint20_linear_12567_1030" x1="320.902" y1="443.48" x2="352.26" y2="295.953" gradientUnits="userSpaceOnUse">
<stop stop-color="#484848"/>
<stop offset="0.001014" stop-color="#484848"/>
<stop offset="0.9798"/>
<stop offset="1"/>
</linearGradient>
<linearGradient id="paint21_linear_12567_1030" x1="375.848" y1="304.579" x2="401.488" y2="425.204" gradientUnits="userSpaceOnUse">
<stop stop-color="#838383"/>
<stop offset="0.001014" stop-color="#838383"/>
<stop offset="0.4817" stop-color="#535353"/>
<stop offset="0.9798"/>
<stop offset="1"/>
</linearGradient>
<linearGradient id="paint22_linear_12567_1030" x1="410.739" y1="442.316" x2="379.64" y2="296.008" gradientUnits="userSpaceOnUse">
<stop stop-color="#484848"/>
<stop offset="0.001014" stop-color="#484848"/>
<stop offset="0.9798"/>
<stop offset="1"/>
</linearGradient>
<linearGradient id="paint23_linear_12567_1030" x1="473.449" y1="357.657" x2="450.369" y2="249.073" gradientUnits="userSpaceOnUse">
<stop stop-color="#838383"/>
<stop offset="0.001014" stop-color="#838383"/>
<stop offset="0.4817" stop-color="#535353"/>
<stop offset="0.9798"/>
<stop offset="1"/>
</linearGradient>
<linearGradient id="paint24_linear_12567_1030" x1="438.828" y1="444.537" x2="470.383" y2="296.083" gradientUnits="userSpaceOnUse">
<stop stop-color="#484848"/>
<stop offset="0.001014" stop-color="#484848"/>
<stop offset="0.9798"/>
<stop offset="1"/>
</linearGradient>
<linearGradient id="paint25_linear_12567_1030" x1="493.31" y1="325.003" x2="467.694" y2="204.487" gradientUnits="userSpaceOnUse">
<stop stop-color="#838383"/>
<stop offset="0.001014" stop-color="#838383"/>
<stop offset="0.4817" stop-color="#535353"/>
<stop offset="0.9798"/>
<stop offset="1"/>
</linearGradient>
<linearGradient id="paint26_linear_12567_1030" x1="523.821" y1="442.45" x2="492.748" y2="296.261" gradientUnits="userSpaceOnUse">
<stop stop-color="#484848"/>
<stop offset="0.001014" stop-color="#484848"/>
<stop offset="0.9798"/>
<stop offset="1"/>
</linearGradient>
<linearGradient id="paint27_linear_12567_1030" x1="414.653" y1="581.776" x2="414.653" y2="296.368" gradientUnits="userSpaceOnUse">
<stop stop-color="#484848"/>
<stop offset="0.001014" stop-color="#484848"/>
<stop offset="0.9798"/>
<stop offset="1"/>
</linearGradient>
<linearGradient id="paint28_linear_12567_1030" x1="314.735" y1="273.519" x2="329.479" y2="273.519" gradientUnits="userSpaceOnUse">
<stop stop-color="#484848"/>
<stop offset="0.001014" stop-color="#484848"/>
<stop offset="0.9798"/>
<stop offset="1"/>
</linearGradient>
<linearGradient id="paint29_linear_12567_1030" x1="398.881" y1="326.338" x2="288.177" y2="219.433" gradientUnits="userSpaceOnUse">
<stop stop-color="#838383"/>
<stop offset="0.001014" stop-color="#838383"/>
<stop offset="0.4817" stop-color="#535353"/>
<stop offset="0.9798"/>
<stop offset="1"/>
</linearGradient>
<linearGradient id="paint30_linear_12567_1030" x1="241.19" y1="277.96" x2="300.966" y2="277.96" gradientUnits="userSpaceOnUse">
<stop/>
<stop offset="0.1149" stop-color="#A8A8A8"/>
<stop offset="1" stop-color="#A8A8A8"/>
</linearGradient>
<linearGradient id="paint31_linear_12567_1030" x1="309.388" y1="295.527" x2="267.29" y2="295.527" gradientUnits="userSpaceOnUse">
<stop stop-color="#838383"/>
<stop offset="0.001014" stop-color="#838383"/>
<stop offset="0.4817" stop-color="#535353"/>
<stop offset="0.7894" stop-color="#535353"/>
<stop offset="1"/>
</linearGradient>
<linearGradient id="paint32_linear_12567_1030" x1="307.365" y1="379.174" x2="342.106" y2="379.174" gradientUnits="userSpaceOnUse">
<stop stop-color="#838383"/>
<stop offset="0.001014" stop-color="#838383"/>
<stop offset="0.4817" stop-color="#535353"/>
<stop offset="0.9798"/>
<stop offset="1"/>
</linearGradient>
<linearGradient id="paint33_linear_12567_1030" x1="370.927" y1="358.32" x2="246.585" y2="358.32" gradientUnits="userSpaceOnUse">
<stop stop-color="#838383"/>
<stop offset="0.001014" stop-color="#838383"/>
<stop offset="0.4817" stop-color="#535353"/>
<stop offset="0.9798"/>
<stop offset="1"/>
</linearGradient>
<linearGradient id="paint34_linear_12567_1030" x1="409.65" y1="530.077" x2="250.303" y2="318.615" gradientUnits="userSpaceOnUse">
<stop stop-color="#838383"/>
<stop offset="0.001014" stop-color="#838383"/>
<stop offset="0.4817" stop-color="#535353"/>
<stop offset="1"/>
</linearGradient>
<linearGradient id="paint35_linear_12567_1030" x1="284.368" y1="364.37" x2="284.368" y2="348.764" gradientUnits="userSpaceOnUse">
<stop stop-color="#767676"/>
<stop offset="0.0036" stop-color="#767676"/>
<stop offset="0.4554" stop-color="#606060"/>
<stop offset="0.7197" stop-color="#606060"/>
<stop offset="0.9807" stop-color="#060606"/>
<stop offset="1" stop-color="#060606"/>
</linearGradient>
<linearGradient id="paint36_linear_12567_1030" x1="218.223" y1="352.759" x2="232.49" y2="345.49" gradientUnits="userSpaceOnUse">
<stop stop-color="#838383"/>
<stop offset="0.001014" stop-color="#838383"/>
<stop offset="0.4817" stop-color="#535353"/>
<stop offset="1"/>
</linearGradient>
<linearGradient id="paint37_linear_12567_1030" x1="246.533" y1="285.813" x2="216.961" y2="285.813" gradientUnits="userSpaceOnUse">
<stop stop-color="#767676"/>
<stop offset="0.0036" stop-color="#767676"/>
<stop offset="0.5949" stop-color="#606060"/>
<stop offset="0.8093" stop-color="#606060"/>
<stop offset="0.9807" stop-color="#060606"/>
<stop offset="1" stop-color="#060606"/>
</linearGradient>
<linearGradient id="paint38_linear_12567_1030" x1="289.531" y1="385.799" x2="279.767" y2="385.799" gradientUnits="userSpaceOnUse">
<stop stop-color="#838383"/>
<stop offset="0.001014" stop-color="#838383"/>
<stop offset="0.4817" stop-color="#535353"/>
<stop offset="0.9798"/>
<stop offset="1"/>
</linearGradient>
<linearGradient id="paint39_linear_12567_1030" x1="198.819" y1="86.5163" x2="233.912" y2="118.114" gradientUnits="userSpaceOnUse">
<stop/>
<stop offset="0.7066" stop-color="#A8A8A8"/>
<stop offset="1" stop-color="#A8A8A8"/>
</linearGradient>
<linearGradient id="paint40_linear_12567_1030" x1="207.915" y1="89.39" x2="257.078" y2="120.11" gradientUnits="userSpaceOnUse">
<stop/>
<stop offset="0.7066" stop-color="#A8A8A8"/>
<stop offset="1" stop-color="#A8A8A8"/>
</linearGradient>
<linearGradient id="paint41_linear_12567_1030" x1="337.75" y1="243.067" x2="258.292" y2="243.067" gradientUnits="userSpaceOnUse">
<stop stop-color="#838383"/>
<stop offset="0.001014" stop-color="#838383"/>
<stop offset="0.4817" stop-color="#535353"/>
<stop offset="0.7894" stop-color="#535353"/>
<stop offset="1"/>
</linearGradient>
<linearGradient id="paint42_linear_12567_1030" x1="275.85" y1="236.702" x2="242.558" y2="236.702" gradientUnits="userSpaceOnUse">
<stop stop-color="#838383"/>
<stop offset="0.001014" stop-color="#838383"/>
<stop offset="0.4817" stop-color="#535353"/>
<stop offset="0.7894" stop-color="#535353"/>
<stop offset="1"/>
</linearGradient>
</defs>
</svg>
