<svg width="130" height="128" viewBox="0 0 130 128" fill="none" xmlns="http://www.w3.org/2000/svg">
<g clip-path="url(#clip0_14_3728)">
<path d="M44.4431 65.2751C44.2185 65.2719 43.996 65.3179 43.791 65.4097C43.5861 65.5016 43.4037 65.6371 43.2567 65.8069C42.9463 66.1609 42.7751 66.6157 42.7751 67.0865C42.7751 67.5573 42.9463 68.0121 43.2567 68.3661C43.4074 68.5306 43.5907 68.662 43.795 68.7518C43.9992 68.8417 44.2199 68.8881 44.4431 68.8881C44.6662 68.8881 44.8869 68.8417 45.0912 68.7518C45.2954 68.662 45.4787 68.5306 45.6295 68.3661C45.9399 68.0121 46.111 67.5573 46.111 67.0865C46.111 66.6157 45.9399 66.1609 45.6295 65.8069C45.4824 65.6371 45.3 65.5016 45.0951 65.4097C44.8902 65.3179 44.6676 65.2719 44.4431 65.2751Z" fill="black"/>
<path d="M80.5578 65.5569C80.2976 65.422 80.0044 65.3637 79.7123 65.3887H78.7668V67.0524H79.676C79.9821 67.0832 80.2897 67.0095 80.5487 66.8433C80.6328 66.7557 80.6973 66.6512 80.7381 66.5368C80.7788 66.4224 80.7948 66.3007 80.7851 66.1796C80.8004 66.0652 80.7877 65.9487 80.7482 65.8403C80.7086 65.7318 80.6433 65.6346 80.5578 65.5569Z" fill="black"/>
<path d="M127.185 59.3644C125.081 56.7234 124.653 53.8733 125.912 50.7277C126.126 50.205 126.212 49.6368 126.367 49.0958C127.112 46.7185 126.503 44.7411 124.644 43.1183C124.131 42.6638 123.649 42.1819 123.112 41.7547C120.653 39.841 119.212 37.4818 119.644 35.2181C119.889 31.1952 119.644 28.2042 116.285 27.0041C111.789 25.3995 109.207 22.4585 108.375 17.7311C107.998 15.6083 106.403 14.3537 104.221 13.9764C103.439 13.84 102.666 13.5218 101.884 13.5218C98.3341 13.4764 96.2068 11.5081 94.5294 8.58531C92.4066 4.87609 90.8521 4.21243 86.6383 5.0261C83.3427 5.66248 80.4426 5.24429 78.088 2.63965C75.3606 -0.360457 72.2968 -0.828655 68.8013 1.27596C66.0375 2.93966 63.192 3.01239 60.4191 1.31233C56.8599 -0.869566 53.7644 -0.333183 50.9779 2.67601C50.5682 3.06939 50.1356 3.43822 49.6824 3.7806C49.0496 4.3546 48.2991 4.7834 47.4833 5.03701C46.6675 5.29063 45.8062 5.36292 44.9595 5.24883C43.3822 5.05337 41.8003 4.90791 40.2184 4.76245C39.4487 4.66325 38.6665 4.76665 37.949 5.06241C37.2315 5.35818 36.6036 5.83608 36.1274 6.44887C35.4308 7.27134 34.8057 8.15185 34.2591 9.08078C32.7772 11.7763 30.659 13.3082 27.4861 13.4855C23.936 13.6855 21.0177 14.9446 20.3132 18.9402C19.6495 22.6858 17.6313 25.1677 13.9493 26.3905C10.5219 27.5314 9.01276 30.0724 9.40369 33.6635C9.79461 37.2545 8.5582 40.1091 5.58082 42.2001C2.52162 44.332 1.79432 47.123 3.18528 50.5368C4.52169 53.8187 4.13986 56.837 1.86251 59.628C-0.533035 62.5554 -0.410303 65.5919 1.86251 68.4829C4.0944 71.3012 4.5126 74.2922 3.15801 77.5741C1.74886 80.997 2.5398 83.7789 5.55809 85.9198C8.4991 88.0017 9.84461 90.77 9.43096 94.4156C9.03549 97.9112 10.5174 100.425 13.8811 101.543C17.6994 102.807 19.6586 105.434 20.3768 109.271C20.9905 112.571 23.1905 114.162 26.4952 114.339C30.0953 114.534 32.7636 116.012 34.5773 119.339C36.7274 123.28 38.1456 123.858 42.5503 122.976C45.9141 122.303 48.746 122.908 51.0734 125.458C53.8007 128.435 56.8417 128.744 60.2464 126.726C63.1511 125.008 66.0557 125.049 68.9558 126.767C72.2968 128.744 75.3197 128.426 77.988 125.503C80.3608 122.908 83.2381 122.298 86.661 122.994C90.8975 123.848 92.4839 123.171 94.5204 119.412C96.275 116.171 98.8069 114.516 102.384 114.371C106.13 114.225 108.234 112.284 108.912 108.68C109.566 105.207 111.439 102.839 114.871 101.707C118.508 100.507 120.158 97.9475 119.712 94.1338C119.308 90.6837 120.576 88.0154 123.38 86.0653C126.622 83.7925 127.367 80.906 125.899 77.3059C124.64 74.2104 124.99 71.3284 127.112 68.6692C129.631 65.5964 129.649 62.4599 127.185 59.3644ZM64.7966 121.103C33.1545 121.262 7.7809 95.8384 7.63089 63.7782C7.48543 32.8089 33.1454 7.03526 64.2556 6.90344C95.8295 6.76707 121.421 32.268 121.558 63.9964C121.69 95.2384 96.1386 120.944 64.7966 121.103Z" fill="black"/>
<path d="M49.6978 67.0524H50.6069C50.9131 67.0832 51.2207 67.0095 51.4797 66.8433C51.5645 66.7562 51.6295 66.6518 51.6703 66.5373C51.7111 66.4227 51.7267 66.3008 51.7161 66.1796C51.7297 66.0641 51.7149 65.9469 51.6729 65.8384C51.6309 65.7298 51.563 65.6332 51.4752 65.5569C51.2149 65.422 50.9217 65.3637 50.6297 65.3887H49.6887L49.6978 67.0524Z" fill="black"/>
<path d="M42.6294 74.2253V75.6663H43.3385C43.5834 75.6946 43.8298 75.6261 44.0249 75.4754C44.1559 75.3244 44.2257 75.1298 44.2204 74.9299C44.2308 74.8295 44.2149 74.728 44.1743 74.6356C44.1336 74.5431 44.0696 74.4628 43.9885 74.4026C43.7659 74.2826 43.5135 74.229 43.2612 74.2481L42.6294 74.2253Z" fill="black"/>
<path d="M60.7982 65.3841H60.0981V68.7979H60.8936C61.377 68.8248 61.8517 68.6617 62.2164 68.3433C62.3762 68.177 62.4992 67.979 62.5775 67.7621C62.6558 67.5452 62.6877 67.3142 62.671 67.0842C62.6871 66.8515 62.6551 66.6179 62.5769 66.3981C62.4987 66.1783 62.376 65.9771 62.2164 65.8069C61.8158 65.4886 61.3077 65.3371 60.7982 65.3841Z" fill="black"/>
<path d="M49.5067 61.1885C49.7118 60.9661 49.8226 60.6728 49.8158 60.3703C49.8219 60.0666 49.7113 59.7721 49.5067 59.5475C49.4108 59.4406 49.2934 59.355 49.1622 59.2965C49.0311 59.2379 48.889 59.2076 48.7453 59.2076C48.6017 59.2076 48.4596 59.2379 48.3284 59.2965C48.1972 59.355 48.0799 59.4406 47.9839 59.5475C47.7773 59.7708 47.6664 60.0662 47.6749 60.3703C47.6656 60.6732 47.7767 60.9674 47.9839 61.1885C48.0799 61.2954 48.1972 61.381 48.3284 61.4395C48.4596 61.4981 48.6017 61.5284 48.7453 61.5284C48.889 61.5284 49.0311 61.4981 49.1622 61.4395C49.2934 61.381 49.4108 61.2954 49.5067 61.1885Z" fill="black"/>
<path d="M44.8657 90.0032C44.6411 90 44.4186 90.046 44.2137 90.1379C44.0087 90.2297 43.8264 90.3653 43.6793 90.535C43.3683 90.8879 43.1968 91.342 43.1968 91.8124C43.1968 92.2827 43.3683 92.7368 43.6793 93.0897C43.8266 93.2588 44.0091 93.3937 44.2141 93.4848C44.419 93.5759 44.6415 93.621 44.8657 93.617C45.0861 93.6228 45.305 93.5806 45.5075 93.4935C45.71 93.4064 45.8912 93.2764 46.0385 93.1124C46.3494 92.7596 46.521 92.3054 46.521 91.8351C46.521 91.3648 46.3494 90.9106 46.0385 90.5578C45.8957 90.3849 45.7166 90.2456 45.5139 90.1498C45.3112 90.0539 45.0899 90.0039 44.8657 90.0032Z" fill="black"/>
<path d="M77.9759 74.3571C77.7672 74.2498 77.5323 74.2041 77.2986 74.2253H76.5259V75.5117H77.2804C77.5249 75.537 77.771 75.4811 77.9805 75.3526C78.0483 75.2866 78.1003 75.2061 78.1325 75.1171C78.1648 75.0282 78.1765 74.9331 78.1668 74.8389C78.1779 74.7491 78.1662 74.6579 78.1328 74.5737C78.0995 74.4895 78.0455 74.415 77.9759 74.3571Z" fill="black"/>
<path d="M89.3854 90.1305H88.6899V93.567H89.4854C89.9639 93.5971 90.4357 93.4425 90.8037 93.1351C90.964 92.9683 91.0874 92.7695 91.1657 92.5518C91.2441 92.334 91.2756 92.1022 91.2582 91.8715C91.274 91.6395 91.2418 91.4067 91.1636 91.1877C91.0854 90.9687 90.9629 90.7682 90.8037 90.5987C90.4098 90.2641 89.9011 90.0961 89.3854 90.1305Z" fill="black"/>
<path d="M79.3761 93.1124C79.5364 92.9456 79.6598 92.7468 79.7381 92.5291C79.8165 92.3113 79.848 92.0795 79.8306 91.8488C79.8467 91.6167 79.8147 91.3839 79.7364 91.1648C79.6582 90.9458 79.5355 90.7453 79.3761 90.576C78.9802 90.2463 78.4716 90.0833 77.9578 90.1214H77.2578V93.567H78.0533C78.5363 93.5915 79.0102 93.4287 79.3761 93.1124Z" fill="black"/>
<path d="M72.7849 75.4754C72.9165 75.3165 72.9817 75.1129 72.9667 74.9072C72.9772 74.8067 72.9613 74.7053 72.9206 74.6128C72.88 74.5204 72.816 74.4401 72.7349 74.3799C72.5122 74.2599 72.2598 74.2062 72.0076 74.2253H71.3894V75.6663H72.0985C72.3435 75.6946 72.5898 75.6261 72.7849 75.4754Z" fill="black"/>
<path d="M80.6579 59.2793H80.0579V60.3476H80.6443C80.8423 60.3692 81.0417 60.3209 81.2079 60.2112C81.2619 60.1557 81.3033 60.0892 81.3292 60.0162C81.3551 59.9433 81.3649 59.8656 81.3579 59.7884C81.3678 59.7135 81.3589 59.6372 81.3319 59.5666C81.3049 59.4959 81.2607 59.4331 81.2034 59.3839C81.0342 59.3007 80.8458 59.2646 80.6579 59.2793Z" fill="black"/>
<path d="M50.025 76.7481C50.1944 76.7519 50.3628 76.7204 50.5193 76.6554C50.6759 76.5904 50.8171 76.4935 50.9341 76.3708C51.1733 76.1288 51.3073 75.802 51.3068 75.4617C51.308 75.293 51.2757 75.1258 51.2117 74.9697C51.1477 74.8137 51.0534 74.6719 50.9341 74.5526C50.8162 74.4305 50.675 74.3334 50.5188 74.2671C50.3626 74.2008 50.1947 74.1666 50.025 74.1666C49.8553 74.1666 49.6873 74.2008 49.5311 74.2671C49.3749 74.3334 49.2337 74.4305 49.1158 74.5526C48.9972 74.6721 48.9035 74.814 48.8403 74.9701C48.7771 75.1262 48.7456 75.2933 48.7477 75.4617C48.7455 75.8015 48.8779 76.1283 49.1158 76.3708C49.2331 76.4931 49.3745 76.5897 49.5309 76.6546C49.6874 76.7195 49.8556 76.7514 50.025 76.7481Z" fill="black"/>
<path d="M61.0391 59.2793H60.4346V60.3476H61.0391C61.2357 60.3685 61.4334 60.3203 61.5982 60.2112C61.6523 60.1557 61.6937 60.0892 61.7196 60.0162C61.7455 59.9433 61.7552 59.8656 61.7483 59.7884C61.7582 59.7135 61.7492 59.6372 61.7223 59.5666C61.6953 59.4959 61.6511 59.4331 61.5937 59.3839C61.4223 59.2977 61.2301 59.2615 61.0391 59.2793Z" fill="black"/>
<path d="M64.3393 9.34125C34.52 9.47307 9.92368 34.124 10.0737 63.775C9.93277 94.0897 34.7291 119.482 66.0757 118.654C94.9131 117.895 119.073 94.1079 119.096 64.1659C119.118 33.7558 94.5131 9.22306 64.3393 9.34125ZM92.5994 66.216C92.9223 66.3739 93.2647 66.4885 93.6176 66.5569C94.0736 66.6487 94.4999 66.8516 94.8585 67.1479C95.0135 67.2939 95.1346 67.4722 95.2131 67.6701C95.2917 67.868 95.3258 68.0808 95.3131 68.2934C95.3193 68.5279 95.2713 68.7607 95.1727 68.9736C95.0742 69.1864 94.9277 69.3737 94.7449 69.5207C94.317 69.8432 93.789 70.0042 93.2539 69.9752C92.356 69.9713 91.495 69.6174 90.8539 68.9888L91.5993 68.0797C92.0466 68.5371 92.6437 68.8179 93.2812 68.8706C93.4726 68.8826 93.6626 68.8315 93.8221 68.7252C93.887 68.6805 93.9391 68.6197 93.9733 68.5487C94.0076 68.4778 94.0229 68.3992 94.0176 68.3206C94.0206 68.2415 94.0029 68.163 93.9662 68.0928C93.9295 68.0227 93.8752 67.9633 93.8085 67.9206C93.5517 67.7746 93.2719 67.6731 92.9812 67.6206C92.4646 67.5264 91.9755 67.3183 91.5493 67.0115C91.3885 66.8641 91.2638 66.6817 91.1849 66.4783C91.1061 66.2748 91.0752 66.056 91.0948 65.8387C91.0828 65.6023 91.1287 65.3665 91.2285 65.1518C91.3283 64.9371 91.479 64.7501 91.6675 64.6069C92.0862 64.3096 92.5908 64.1579 93.1039 64.175C93.4862 64.1764 93.8655 64.2409 94.2267 64.3659C94.5837 64.4881 94.9162 64.6728 95.2086 64.9114L94.5722 65.8205C94.1448 65.473 93.6137 65.2779 93.063 65.266C92.8854 65.2564 92.71 65.3095 92.5675 65.416C92.509 65.4625 92.462 65.5221 92.4305 65.59C92.3989 65.6578 92.3836 65.7321 92.3857 65.8069C92.3816 65.888 92.3992 65.9686 92.4368 66.0406C92.4743 66.1125 92.5305 66.1731 92.5994 66.216ZM89.7265 76.3573C89.8355 76.4775 89.968 76.5743 90.1157 76.6415C90.2635 76.7087 90.4234 76.745 90.5857 76.7482C90.7719 76.7531 90.9568 76.7158 91.1266 76.6391C91.2947 76.5514 91.4481 76.4379 91.5811 76.3027L91.9766 76.7073C91.8045 76.9072 91.5909 77.0673 91.3507 77.1764C91.1105 77.2855 90.8495 77.341 90.5857 77.3391C90.3345 77.3477 90.0843 77.3054 89.85 77.2148C89.6156 77.1242 89.402 76.9871 89.222 76.8118C89.0444 76.6404 88.9045 76.4338 88.8114 76.2053C88.7182 75.9767 88.6738 75.7312 88.681 75.4845C88.6759 75.2352 88.7221 74.9875 88.8167 74.7569C88.9113 74.5262 89.0523 74.3174 89.2311 74.1436C89.4142 73.9656 89.6314 73.8263 89.8696 73.7342C90.1078 73.642 90.3622 73.5988 90.6175 73.6072C90.8818 73.6023 91.1439 73.655 91.3857 73.7618C91.6275 73.8686 91.8431 74.0268 92.0175 74.2254L91.6311 74.6481C91.4891 74.507 91.3248 74.3902 91.1448 74.3027C90.9725 74.2355 90.7887 74.2031 90.6038 74.2072C90.2665 74.1997 89.9399 74.3254 89.6947 74.5572C89.5713 74.6733 89.4741 74.8146 89.4098 74.9714C89.3455 75.1282 89.3156 75.297 89.322 75.4663C89.326 75.6344 89.3639 75.7999 89.4335 75.953C89.503 76.1061 89.6026 76.2436 89.7265 76.3573ZM83.3627 64.3114H84.6173V69.9298H83.3581L83.3627 64.3114ZM83.0081 62.1931V58.5657H83.8127V62.2022L83.0081 62.1931ZM84.4854 60.3749C84.4754 60.1216 84.5192 59.8691 84.614 59.634C84.7089 59.3989 84.8525 59.1866 85.0355 59.0112C85.2149 58.8345 85.4282 58.6959 85.6625 58.6037C85.8969 58.5116 86.1474 58.4677 86.3991 58.4748C86.6815 58.471 86.9613 58.5298 87.2182 58.6469C87.4752 58.764 87.7031 58.9365 87.8856 59.1521L87.3855 59.7203C87.2738 59.5755 87.1297 59.4589 86.9647 59.3799C86.7996 59.301 86.6184 59.2618 86.4355 59.2658C86.1476 59.2578 85.8681 59.364 85.6582 59.5612C85.5501 59.6636 85.4653 59.788 85.4097 59.9261C85.354 60.0641 85.3287 60.2125 85.3355 60.3612C85.3284 60.5098 85.3518 60.6581 85.4042 60.7973C85.4566 60.9364 85.5368 61.0634 85.64 61.1704C85.736 61.268 85.8507 61.3453 85.9772 61.3977C86.1037 61.45 86.2395 61.4763 86.3764 61.4749C86.5628 61.4806 86.748 61.4424 86.9169 61.3635C87.0859 61.2845 87.234 61.167 87.3492 61.0204L87.8628 61.5522C87.6882 61.7674 87.4679 61.941 87.2179 62.0605C86.9679 62.18 86.6944 62.2424 86.4173 62.2431C86.1667 62.251 85.917 62.2088 85.6828 62.1191C85.4487 62.0293 85.2348 61.8938 85.0536 61.7204C84.87 61.5501 84.7242 61.3431 84.6256 61.1129C84.5269 60.8827 84.4776 60.6344 84.4809 60.384L84.4854 60.3749ZM84.6491 73.6663H85.2582L87.3537 76.3573V73.6663H87.9583V77.2709H87.2992L85.2582 74.6436V77.2709H84.6491V73.6663ZM86.0128 69.9207V64.3114H90.0584V65.4296H87.2628V66.5842H89.7765V67.657H87.2628V68.8206H90.1311V69.9298L86.0128 69.9207ZM88.4947 62.1931V58.5657H89.2993V62.2022L88.4947 62.1931ZM92.7403 59.2839H91.7175V62.2022H90.9129V59.293H89.8902V58.5657H92.7403V59.2839ZM86.4173 26.4691L87.5583 24.1645L88.6947 26.4691L91.2402 26.8419L89.3993 28.6328L89.8538 31.1693L87.581 29.9738L85.3082 31.1693L85.7628 28.6328L83.9172 26.8419L86.4173 26.4691ZM85.0127 41.6379C85.5232 44.0143 85.251 46.4921 84.2367 48.701C83.2225 50.91 81.5206 52.7314 79.3856 53.893C77.2505 55.0547 74.7968 55.4943 72.3912 55.146C69.9856 54.7978 67.7573 53.6804 66.0393 51.961L68.003 50.2609C69.6402 51.7424 71.768 52.565 73.976 52.5701C75.8272 52.5515 77.6235 51.9386 79.0999 50.8217C80.5763 49.7048 81.6548 48.143 82.1763 46.3667C82.6978 44.5903 82.6347 42.6934 81.9963 40.9557C81.358 39.2179 80.1781 37.7313 78.6307 36.715C77.0657 35.6579 75.1883 35.1633 73.3056 35.3119C71.4229 35.4606 69.6464 36.2437 68.2667 37.5332C65.1484 40.4651 62.2255 43.6061 59.1254 46.5608C58.2875 47.3752 57.2594 47.9674 56.1344 48.2835C54.1434 48.779 52.0797 47.4199 51.3888 45.4744C51.0596 44.5434 51.0464 43.5299 51.3513 42.5907C51.6561 41.6515 52.262 40.8389 53.0752 40.2787C53.9104 39.7193 54.9171 39.4744 55.9159 39.5876C56.9148 39.7008 57.8411 40.1648 58.53 40.8969C57.6208 41.6742 57.1663 42.9197 55.5753 42.3424C55.2026 42.2061 54.2116 42.9288 53.9934 43.4606C53.9298 43.7721 53.9443 44.0945 54.0355 44.3991C54.1267 44.7036 54.2918 44.9809 54.5162 45.2062C54.9207 45.538 55.7571 45.4971 56.3344 45.388C56.7163 45.3198 57.0345 44.838 57.3526 44.5152C60.1891 41.6833 62.9892 38.8105 65.862 36.0149C69.044 32.9057 72.8941 31.8602 77.1852 33.133C81.4762 34.4058 84.0263 37.3377 85.0127 41.6379ZM66.1075 84.4121V86.6213H64.8529V81.0074H66.1075V83.353H68.3394V81.0074H69.594V86.6213H68.3394V84.4121H66.1075ZM65.6529 61.1795C65.7487 61.2773 65.8634 61.3548 65.99 61.4071C66.1165 61.4595 66.2524 61.4856 66.3893 61.484C66.5756 61.489 66.7605 61.4505 66.9294 61.3716C67.0982 61.2927 67.2464 61.1756 67.3621 61.0295L67.8758 61.5613C67.7011 61.7765 67.4808 61.9501 67.2308 62.0696C66.9808 62.1891 66.7073 62.2515 66.4302 62.2522C66.1797 62.2596 65.9301 62.2172 65.696 62.1275C65.462 62.0377 65.248 61.9025 65.0666 61.7295C64.7178 61.372 64.5226 60.8924 64.5226 60.3931C64.5226 59.8937 64.7178 59.4141 65.0666 59.0567C65.2457 58.8795 65.4589 58.7407 65.6933 58.6484C65.9277 58.5562 66.1785 58.5126 66.4302 58.5203C66.7126 58.5165 66.9924 58.5753 67.2493 58.6924C67.5063 58.8095 67.7342 58.982 67.9167 59.1976L67.403 59.7476C67.2913 59.6027 67.1471 59.4861 66.9821 59.4072C66.8171 59.3282 66.6359 59.2891 66.453 59.293C66.165 59.285 65.8856 59.3913 65.6757 59.5885C65.5666 59.6901 65.4812 59.8144 65.4254 59.9526C65.3696 60.0909 65.3449 60.2397 65.3529 60.3885C65.3484 60.534 65.373 60.6789 65.4253 60.8148C65.4776 60.9506 65.5565 61.0746 65.6575 61.1795H65.6529ZM66.4712 73.6708V74.2436H64.5484V75.1981H66.2757V75.7391H64.5484V76.7027H66.5303V77.2755H63.9393V73.6708H66.4712ZM64.1983 89.0395H68.2439V90.1578H65.4484V91.2942H67.9621V92.3624H65.4484V93.567H68.3121V94.6761H64.1756L64.1983 89.0395ZM69.4531 77.2755L68.5667 75.9118H68.5394L67.6303 77.2755H66.8712L68.1121 75.4254L66.9621 73.6708H67.7121L68.5167 74.889H68.544L69.3485 73.6708H70.1304L68.9803 75.4254L70.2167 77.2755H69.4531ZM69.1485 70.0025C68.2502 70.0005 67.3885 69.6463 66.7484 69.0161L67.4939 68.107C67.94 68.5634 68.5353 68.8441 69.1713 68.8979C69.3641 68.9105 69.5558 68.8594 69.7167 68.7525C69.7794 68.7057 69.8299 68.6445 69.864 68.5741C69.898 68.5037 69.9145 68.4261 69.9122 68.3479C69.9152 68.2688 69.8975 68.1903 69.8608 68.1201C69.8241 68.0499 69.7698 67.9906 69.7031 67.9479C69.4459 67.8027 69.1663 67.7013 68.8758 67.6479C68.3581 67.5526 67.8678 67.3446 67.4394 67.0388C67.2791 66.891 67.1547 66.7084 67.0759 66.5051C66.9972 66.3019 66.966 66.0832 66.9848 65.866C66.9728 65.6296 67.0187 65.3938 67.1185 65.1791C67.2184 64.9644 67.3691 64.7774 67.5576 64.6341C67.974 64.336 68.4775 64.1841 68.9894 64.2023C69.3731 64.2036 69.754 64.2681 70.1167 64.3932C70.4725 64.5151 70.8036 64.6998 71.094 64.9387L70.4622 65.8478C70.0348 65.5003 69.5038 65.3052 68.9531 65.2932C68.7753 65.2829 68.5997 65.336 68.4576 65.4433C68.3973 65.4883 68.3491 65.5476 68.3174 65.6158C68.2856 65.684 68.2714 65.7591 68.2758 65.8342C68.2758 65.9131 68.2963 65.9906 68.3354 66.0591C68.3744 66.1277 68.4306 66.1849 68.4985 66.2251C68.8215 66.383 69.1638 66.4976 69.5167 66.566C69.972 66.6599 70.3978 66.8626 70.7577 67.1569C70.9127 67.303 71.0337 67.4812 71.1123 67.6792C71.1908 67.8771 71.2249 68.0899 71.2122 68.3024C71.2194 68.5366 71.1722 68.7693 71.0744 68.9822C70.9766 69.1951 70.8309 69.3825 70.6486 69.5298C70.2177 69.857 69.6842 70.0198 69.144 69.9889L69.1485 70.0025ZM70.944 60.0612V60.7476H69.3258V61.4977H71.1804V62.2022H68.5212V58.5657H71.1213V59.2839H69.3258V60.0294L70.944 60.0612ZM70.785 73.6981H72.0259C72.4493 73.6612 72.8723 73.7738 73.2214 74.0163C73.3525 74.1391 73.4542 74.29 73.5187 74.4577C73.5833 74.6253 73.6091 74.8055 73.5941 74.9845C73.6093 75.163 73.5827 75.3426 73.5164 75.5091C73.4501 75.6756 73.346 75.8243 73.2123 75.9436C72.8638 76.1714 72.4502 76.2784 72.035 76.2482H71.3941V77.3028H70.785V73.6981ZM78.9671 77.3028H78.1943L77.3306 76.0891H76.5352V77.3028H75.926V73.6981H77.2897C77.7022 73.6635 78.1149 73.7623 78.467 73.9799C78.5947 74.0919 78.6936 74.233 78.7553 74.3912C78.817 74.5494 78.8397 74.7202 78.8216 74.889C78.8481 75.1383 78.7843 75.3888 78.6416 75.5949C78.4989 75.8009 78.2869 75.9489 78.0443 76.0118L78.9671 77.3028ZM76.8352 62.2022V59.293H75.8124V58.5657H78.6625V59.2658H77.6397V62.2022H76.8352ZM76.317 64.3205V65.4387H73.5214V66.5933H76.0397V67.657H73.526V68.8206H76.4079V69.9298H72.2714V64.3114L76.317 64.3205ZM74.9169 73.6799V77.2846H74.3078V73.6799H74.9169ZM75.2215 62.2022H74.4169L72.6987 59.9294V62.2022H71.8941V58.5657H72.6486L74.4169 60.8931V58.5657H75.2215V62.2022ZM70.9759 81.0165H72.2259V85.5167H74.6215V86.6304H70.985L70.9759 81.0165ZM74.2669 81.0165H75.6306L76.8443 83.103L78.0534 81.0165H79.4171L77.4715 84.4121V86.6304H76.2215V84.4121L74.2669 81.0165ZM76.0079 89.0214H77.9897C78.8235 88.9658 79.6473 89.229 80.2944 89.7578C80.5681 90.0195 80.7818 90.3375 80.9207 90.6899C81.0596 91.0423 81.1205 91.4206 81.099 91.7987C81.1178 92.1794 81.0582 92.5599 80.9236 92.9165C80.7891 93.2731 80.5827 93.5982 80.3171 93.8715C79.7944 94.3806 78.9943 94.6352 77.9261 94.6352H76.0079V89.0214ZM79.6444 77.2573V73.6526H80.2535V77.2573H79.6444ZM80.8853 69.9298L79.6398 68.1388H78.7671V69.9298H77.517V64.3114H79.6444C80.2996 64.2598 80.9543 64.4191 81.5126 64.766C81.7101 64.9432 81.8635 65.1641 81.9606 65.4112C82.0577 65.6582 82.0957 65.9244 82.0717 66.1887C82.0717 67.0979 81.7141 67.6782 80.999 67.9297L82.4217 69.9389L80.8853 69.9298ZM82.4035 62.2022H81.4126L80.6126 61.0522H80.058V62.2022H79.2489V58.5657H80.6126C81.0331 58.5278 81.4545 58.6284 81.8126 58.8521C81.9388 58.9655 82.0369 59.1066 82.0992 59.2644C82.1615 59.4222 82.1863 59.5922 82.1717 59.7612C82.1996 59.9976 82.1471 60.2365 82.0225 60.4394C81.898 60.6423 81.7088 60.7973 81.4853 60.8794L82.4035 62.2022ZM72.9214 48.8836L73.9123 49.4018L74.9078 48.879L74.7169 49.9836L75.5215 50.7655L74.4124 50.9291L73.9169 51.9382L73.4214 50.9336L72.3077 50.77L73.1123 49.9882L72.9214 48.8836ZM76.0397 37.2468L77.0806 37.6695L78.017 37.0559L77.9352 38.1741L78.808 38.8741L77.7216 39.1423L77.3215 40.1923L76.7306 39.2378L75.5851 39.1878L76.3079 38.3286L76.0397 37.2468ZM78.8762 40.2924L79.1171 39.1969L79.8398 40.0514L80.958 39.9423L80.3671 40.8969L80.8217 41.9197L79.7307 41.656L78.8943 42.4015L78.7898 41.2924L77.8216 40.7242L78.8762 40.2924ZM78.9398 42.9515L80.0398 43.1515L80.8353 42.3606L80.9808 43.4697L81.9808 43.9834L80.949 44.4743L80.7762 45.5835L80.0035 44.7698L78.8943 44.9425L79.4307 43.9561L78.9398 42.9515ZM78.7489 45.5289L79.6307 46.2244L80.7035 45.8926L80.3126 46.9426L80.9626 47.8517L79.8398 47.8063L79.1716 48.7154L78.8671 47.6381L77.8034 47.279L78.7125 46.6517L78.7489 45.5289ZM78.7807 49.2472L77.8579 49.9291L77.9034 51.0473L76.9943 50.4018L75.9397 50.7927L76.2715 49.72L75.5851 48.829H76.7079L77.3306 47.8926L77.6943 48.9563L78.7807 49.2472ZM74.8169 38.9423L73.8214 38.4196L72.8305 38.9423L73.0168 37.8377L72.2168 37.0513L73.3259 36.8922L73.8214 35.8876L74.3169 36.8922L75.4306 37.0513L74.626 37.8377L74.8169 38.9423ZM75.476 23.1554L76.8715 20.3235L78.2716 23.1554L81.3944 23.6099L79.1216 25.8146L79.6535 28.9238L76.8579 27.4555L74.0623 28.9238L74.5942 25.8373L72.3214 23.6327L75.476 23.1554ZM62.7938 18.4461L64.5756 14.8369L66.3575 18.4461L70.344 19.0189L67.4621 21.8281L68.1394 25.7964L64.5756 23.9236L61.0119 25.7964L61.6937 21.8281L58.8072 19.0189L62.7938 18.4461ZM50.9024 23.1554L52.2979 20.3235L53.698 23.1554L56.8254 23.6099L54.5525 25.8146L55.0844 28.9238L52.2888 27.4555L49.4933 28.9238L50.0388 25.8373L47.7659 23.6327L50.9024 23.1554ZM52.5116 33.0375C56.3299 31.9239 60.9937 33.1648 63.3438 35.9922L61.4937 37.6559C59.9073 36.3558 58.089 35.3831 55.9026 35.3104C53.989 35.2111 52.0968 35.7511 50.5238 36.8452C48.9508 37.9393 47.7862 39.5255 47.2135 41.354C46.6408 43.1825 46.6924 45.1496 47.3602 46.9456C48.0281 48.7415 49.2742 50.2645 50.9024 51.2746C52.5126 52.302 54.4212 52.7588 56.322 52.5717C58.2228 52.3845 60.0057 51.5644 61.3846 50.2427C64.5665 47.1881 67.6394 43.9925 70.785 40.8878C71.4426 40.214 72.2987 39.7684 73.2279 39.6163C74.1571 39.4642 75.1106 39.6135 75.9488 40.0423C76.7874 40.4743 77.4627 41.1673 77.8727 42.0169C78.2828 42.8664 78.4052 43.8263 78.2216 44.7516C78.1106 45.5494 77.7681 46.2972 77.2365 46.9023C76.7049 47.5075 76.0074 47.9435 75.2306 48.1563C74.4816 48.412 73.6754 48.4495 72.906 48.2644C72.1365 48.0793 71.4356 47.6792 70.885 47.1108C71.7714 46.2562 72.2486 44.9743 73.876 45.6198C74.2305 45.7562 75.1578 45.1152 75.4169 44.6198C75.5188 44.3368 75.5489 44.0329 75.5045 43.7354C75.46 43.4379 75.3425 43.1561 75.1624 42.9152C74.9135 42.7177 74.6276 42.5722 74.3216 42.4871C74.0155 42.402 73.6955 42.3791 73.3805 42.4197C72.9259 42.4652 72.4714 42.9743 72.0895 43.3288C69.244 46.1517 66.4166 48.9972 63.5801 51.8337C61.9552 53.5199 59.8441 54.6564 57.5418 55.0843C55.2395 55.5121 52.861 55.21 50.7388 54.2201C46.6023 52.3246 43.8885 47.8563 44.184 43.4152C44.3053 41.0297 45.1752 38.7431 46.6702 36.8802C48.1651 35.0172 50.209 33.6727 52.5116 33.0375ZM55.789 77.2755V73.6708H58.3118V74.2436H56.389V75.1981H58.1163V75.7391H56.389V76.7027H58.3709V77.2755H55.789ZM57.4481 81.0074V86.6213H56.1981V81.0074H57.4481ZM52.3797 94.1897H51.6297L50.1297 91.1214V94.6534H48.8751V89.0214H50.5842L52.0297 92.1033L53.4843 89.0214H55.1298V94.6352H53.8753V91.1033L52.3797 94.1897ZM44.4385 69.9843C44.0513 69.9936 43.6661 69.9247 43.3061 69.7818C42.946 69.6389 42.6185 69.4248 42.343 69.1525C41.7984 68.6019 41.4929 67.8587 41.4929 67.0842C41.4929 66.3098 41.7984 65.5666 42.343 65.016C42.9099 64.4815 43.6595 64.1838 44.4385 64.1838C45.2176 64.1838 45.9672 64.4815 46.5341 65.016C47.0809 65.5654 47.3879 66.309 47.3879 67.0842C47.3879 67.8594 47.0809 68.603 46.5341 69.1525C46.2586 69.4248 45.9311 69.6389 45.571 69.7818C45.211 69.9247 44.8258 69.9936 44.4385 69.9843ZM44.834 74.9572C44.8482 75.1361 44.8208 75.3158 44.7537 75.4823C44.6867 75.6487 44.5819 75.7973 44.4476 75.9164C44.0992 76.1441 43.6855 76.2511 43.2703 76.2209H42.6294V77.2755H42.0248V73.6708H43.2612C43.6847 73.6339 44.1077 73.7465 44.4567 73.989C44.5887 74.1114 44.6912 74.2621 44.7565 74.4298C44.8219 74.5975 44.8484 74.7778 44.834 74.9572ZM42.4021 60.9113C42.2359 60.8193 42.0565 60.7533 41.8703 60.7158C41.5426 60.6552 41.2322 60.5233 40.9612 60.3294C40.8577 60.2346 40.7776 60.1172 40.7272 59.9863C40.6767 59.8554 40.6572 59.7146 40.6702 59.5749C40.6604 59.4227 40.6889 59.2705 40.7533 59.1323C40.8176 58.9941 40.9157 58.8743 41.0384 58.7839C41.3024 58.5929 41.6218 58.4939 41.9476 58.5021C42.194 58.5023 42.4386 58.5454 42.6703 58.6294C42.9006 58.7032 43.1139 58.8222 43.2976 58.9794L42.893 59.5658C42.6172 59.3427 42.2749 59.218 41.9203 59.2112C41.8063 59.2051 41.6938 59.2388 41.6021 59.3067C41.5645 59.3372 41.5347 59.3762 41.5149 59.4204C41.4952 59.4646 41.4861 59.5129 41.4884 59.5612C41.4879 59.6116 41.5006 59.6613 41.5253 59.7052C41.5501 59.7491 41.586 59.7856 41.6294 59.8112C41.838 59.91 42.0578 59.9833 42.2839 60.0294C42.5776 60.0874 42.8524 60.217 43.084 60.4067C43.1813 60.5028 43.2568 60.6187 43.3054 60.7465C43.354 60.8744 43.3746 61.0112 43.3658 61.1476C43.3697 61.2979 43.3389 61.4469 43.2759 61.5833C43.2128 61.7197 43.1191 61.8397 43.0021 61.934C42.728 62.1445 42.3882 62.2508 42.043 62.234C41.4666 62.2325 40.9136 62.0058 40.502 61.6022L40.9566 61.0113C41.244 61.3067 41.6279 61.489 42.0385 61.5249C42.161 61.5319 42.2824 61.4983 42.3839 61.4295C42.4249 61.4002 42.458 61.3612 42.4802 61.316C42.5024 61.2707 42.5131 61.2207 42.5112 61.1704C42.5148 61.1216 42.5068 61.0727 42.4878 61.0277C42.4689 60.9827 42.4395 60.9428 42.4021 60.9113ZM43.7203 59.2839V58.5657H46.5704V59.2658H45.5522V62.2022H44.7431V59.293L43.7203 59.2839ZM45.5386 73.6708H46.1477V76.6982H47.7932V77.2755H45.5204L45.5386 73.6708ZM47.4023 61.6977C47.0522 61.3437 46.8559 60.8659 46.8559 60.3681C46.8559 59.8702 47.0522 59.3925 47.4023 59.0385C47.7668 58.6945 48.2489 58.5029 48.7501 58.5029C49.2512 58.5029 49.7334 58.6945 50.0978 59.0385C50.4501 59.3913 50.6479 59.8695 50.6479 60.3681C50.6479 60.8666 50.4501 61.3448 50.0978 61.6977C49.7324 62.0396 49.2506 62.2298 48.7501 62.2298C48.2496 62.2298 47.7678 62.0396 47.4023 61.6977ZM53.5843 61.8931H53.1025L52.1252 59.9294V62.2022H51.3206V58.5657H52.4025L53.3343 60.5522L54.2662 58.5657H55.3526V62.2022H54.548V59.9294L53.5843 61.8931ZM52.4525 64.7523C52.65 64.9296 52.8034 65.1505 52.9005 65.3975C52.9975 65.6445 53.0356 65.9108 53.0116 66.1751C53.0116 67.0842 52.6525 67.657 51.9434 67.9161L53.3616 69.9252H51.8115L50.5842 68.1343H49.716V69.9298H48.4478V64.3114H50.5842C51.235 64.2577 51.886 64.4121 52.4434 64.7523H52.4525ZM48.6842 74.1163C49.0517 73.7747 49.5348 73.5849 50.0365 73.5849C50.5382 73.5849 51.0213 73.7747 51.3888 74.1163C51.738 74.4716 51.9337 74.9499 51.9337 75.4482C51.9337 75.9464 51.738 76.4247 51.3888 76.78C51.0213 77.1216 50.5382 77.3114 50.0365 77.3114C49.5348 77.3114 49.0517 77.1216 48.6842 76.78C48.3349 76.4247 48.1392 75.9464 48.1392 75.4482C48.1392 74.9499 48.3349 74.4716 48.6842 74.1163ZM51.3388 84.4121V86.6213H50.0842V81.0074H51.3388V83.353H53.5707V81.0074H54.8253V86.6213H53.5707V84.4121H51.3388ZM53.9889 75.8391V77.2619H53.3707V75.8391L52.0343 73.6572H52.6979L53.6798 75.2981L54.6662 73.6572H55.3298L53.9889 75.8391ZM54.2844 69.9298V64.3114H55.5389V68.8116H57.9299V69.9298H54.2844ZM56.2435 62.2022V58.5657H58.8482V59.2839H57.0299V60.0294H58.6482V60.7158H57.0299V61.4658H58.8845V62.2022H56.2435ZM61.4937 75.1981V75.7391H59.7664V76.7027H61.7528V77.2755H59.1618V73.6708H61.6892V74.2436H59.7664V75.1981H61.4937ZM59.3664 81.7166C59.6358 81.4447 59.9577 81.2304 60.3124 81.0866C60.6671 80.9429 61.0474 80.8726 61.4301 80.8802C62.2058 80.8686 62.9568 81.1531 63.5301 81.6756L62.8801 82.612C62.6749 82.4233 62.4399 82.2697 62.1846 82.1575C61.9662 82.0711 61.7331 82.0279 61.4982 82.0302C61.275 82.0256 61.0531 82.0663 60.8461 82.1499C60.639 82.2335 60.4511 82.3582 60.2937 82.5166C59.9814 82.8675 59.8069 83.3199 59.8027 83.7896C59.7986 84.2594 59.9649 84.7148 60.2709 85.0712C60.4149 85.2241 60.589 85.3455 60.7823 85.4276C60.9755 85.5098 61.1837 85.5509 61.3937 85.5485C61.7701 85.5629 62.1436 85.4766 62.4756 85.2985V83.7575H63.7392V85.7485C63.4452 86.0637 63.0857 86.3104 62.6859 86.4714C62.2861 86.6324 61.8559 86.7038 61.4255 86.6804C61.0421 86.69 60.6607 86.6226 60.3038 86.482C59.947 86.3415 59.622 86.1307 59.3482 85.8622C58.8059 85.3075 58.5023 84.5627 58.5023 83.7871C58.5023 83.0115 58.8059 82.2666 59.3482 81.712L59.3664 81.7166ZM63.1574 69.1616C62.6362 69.6737 61.8392 69.9298 60.7664 69.9298H58.8482V64.3114H60.83C61.6641 64.2539 62.4885 64.5174 63.1347 65.0478C63.4082 65.3097 63.6217 65.6278 63.7606 65.9801C63.8995 66.3324 63.9604 66.7106 63.9393 67.0888C63.9592 67.4695 63.9001 67.8503 63.7655 68.2071C63.6309 68.5638 63.4239 68.8888 63.1574 69.1616ZM62.7756 62.2022H61.7846L60.9846 61.0522H60.4255V62.2022H59.6209V58.5657H60.9846C61.405 58.5291 61.826 58.6296 62.1846 58.8521C62.3108 58.9655 62.4089 59.1066 62.4712 59.2644C62.5335 59.4222 62.5584 59.5922 62.5437 59.7612C62.5716 59.9976 62.5191 60.2365 62.3946 60.4394C62.27 60.6423 62.0808 60.7973 61.8574 60.8794L62.7756 62.2022ZM40.352 26.4691L41.493 24.1645L42.6294 26.4691L45.1749 26.8419L43.3567 28.6328L43.7885 31.1693L41.5157 29.9738L39.2429 31.1693L39.6975 28.6328L37.852 26.8419L40.352 26.4691ZM36.8201 58.5657H37.6247V60.5613C37.6102 60.8056 37.6827 61.0471 37.8292 61.2431C37.8958 61.3216 37.9787 61.3847 38.0721 61.428C38.1655 61.4713 38.2672 61.4937 38.3702 61.4937C38.4731 61.4937 38.5748 61.4713 38.6682 61.428C38.7616 61.3847 38.8445 61.3216 38.9111 61.2431C39.0527 61.045 39.1217 60.8042 39.1065 60.5613V58.5657H39.9111V60.584C39.9235 60.8061 39.8895 61.0283 39.8113 61.2365C39.733 61.4447 39.6122 61.6342 39.4566 61.7931C39.1499 62.0644 38.7546 62.2142 38.3451 62.2142C37.9357 62.2142 37.5404 62.0644 37.2337 61.7931C37.0785 61.6349 36.9578 61.4461 36.8796 61.2387C36.8013 61.0313 36.7671 60.8099 36.7792 60.5885L36.8201 58.5657ZM33.4245 59.0203C33.6041 58.8438 33.8174 58.7053 34.0517 58.6132C34.286 58.521 34.5365 58.4771 34.7882 58.4839C35.0706 58.4801 35.3503 58.5389 35.6073 58.656C35.8643 58.7731 36.0922 58.9456 36.2746 59.1612L35.7746 59.7294C35.6629 59.5845 35.5187 59.4679 35.3537 59.389C35.1887 59.31 35.0075 59.2709 34.8246 59.2748C34.5368 59.2678 34.2577 59.3739 34.0473 59.5703C33.9392 59.6727 33.8544 59.7971 33.7987 59.9352C33.743 60.0732 33.7177 60.2216 33.7245 60.3703C33.7185 60.5187 33.7424 60.6668 33.7947 60.8058C33.847 60.9448 33.9267 61.0719 34.0291 61.1795C34.1257 61.2775 34.2412 61.355 34.3685 61.4073C34.4958 61.4596 34.6324 61.4857 34.77 61.484C34.9557 61.4893 35.1401 61.451 35.3083 61.372C35.4764 61.2931 35.6237 61.1757 35.7382 61.0295L36.2564 61.5613C36.0856 61.763 35.8757 61.928 35.6392 62.0463C35.4028 62.1645 35.1449 62.2336 34.881 62.2494C34.6171 62.2651 34.3528 62.2271 34.104 62.1378C33.8552 62.0484 33.6272 61.9095 33.4336 61.7295C33.0838 61.3726 32.8879 60.8928 32.8879 60.3931C32.8879 59.8933 33.0838 59.4135 33.4336 59.0567L33.4245 59.0203ZM34.3609 64.2932L35.4655 67.5206L36.4655 64.2932H37.7747L38.7611 67.5206L39.8748 64.2932H41.2384L39.2747 69.9298H38.3429L37.1156 66.0251L35.8928 69.9298H34.9609L33.0018 64.3159L34.3609 64.2932ZM39.1565 76.9437H38.8156L37.5656 74.4436V77.2573H36.9474V73.6526H37.8974L38.9838 75.9254L40.0702 73.6526H41.0384V77.2573H40.4293V74.4754L39.1565 76.9437ZM33.5836 73.6526H36.1155V74.2254H34.1927V75.18H35.9201V75.7209H34.1927V76.6846H36.1792V77.2573H33.5836V73.6526ZM36.1383 91.8351C36.1289 91.4472 36.2 91.0615 36.347 90.7024C36.4941 90.3433 36.714 90.0186 36.9928 89.7487C37.2681 89.4773 37.5949 89.2638 37.9541 89.1209C38.3132 88.9781 38.6974 88.9086 39.0838 88.9168C39.5232 88.9094 39.9587 88.9997 40.3589 89.1813C40.7591 89.3629 41.1138 89.6312 41.3975 89.9669L40.6202 90.876C40.45 90.6445 40.2274 90.4567 39.9706 90.328C39.7138 90.1992 39.4302 90.1331 39.1429 90.135C38.696 90.123 38.2621 90.2862 37.9338 90.5896C37.7647 90.7475 37.6321 90.9403 37.5449 91.1546C37.4578 91.3688 37.4183 91.5995 37.4292 91.8306C37.4188 92.0619 37.4558 92.2929 37.5379 92.5094C37.6199 92.7259 37.7454 92.9234 37.9065 93.0897C38.056 93.24 38.2349 93.3579 38.432 93.4361C38.629 93.5143 38.8401 93.5511 39.052 93.5443C39.3442 93.5505 39.6337 93.4874 39.8968 93.3602C40.1599 93.233 40.3891 93.0453 40.5657 92.8124L41.3657 93.6397C41.1009 93.9543 40.7748 94.2116 40.4073 94.396C40.0398 94.5804 39.6386 94.688 39.2282 94.7122C38.8177 94.7365 38.4066 94.6769 38.0199 94.537C37.6333 94.3972 37.2792 94.18 36.9792 93.8988C36.7024 93.6319 36.4846 93.3099 36.3398 92.9537C36.195 92.5975 36.1263 92.2149 36.1383 91.8306V91.8351ZM42.5021 102.135L41.3612 104.44L40.2248 102.135L37.6792 101.763L39.5202 99.9445L39.0656 97.4126L41.3384 98.6081L43.6112 97.4126L43.1567 99.9445L44.9977 101.763L42.5021 102.135ZM44.8522 94.7125C44.4653 94.7221 44.0804 94.6538 43.7204 94.5117C43.3604 94.3696 43.0327 94.1565 42.7567 93.8852C42.2098 93.3357 41.9028 92.5921 41.9028 91.8169C41.9028 91.0417 42.2098 90.2981 42.7567 89.7487C43.3235 89.2142 44.0731 88.9165 44.8522 88.9165C45.6313 88.9165 46.3809 89.2142 46.9477 89.7487C47.4924 90.2993 47.7978 91.0425 47.7978 91.8169C47.7978 92.5914 47.4924 93.3346 46.9477 93.8852C46.672 94.154 46.3455 94.3652 45.9873 94.5064C45.629 94.6477 45.2463 94.7162 44.8613 94.7079L44.8522 94.7125ZM53.4889 105.449L52.0888 108.281L50.6933 105.449L47.5659 104.995L49.8387 102.79L49.3069 99.6763L52.1025 101.149L54.898 99.6763L54.3662 102.79L56.639 104.995L53.4889 105.449ZM57.7981 94.6579H56.5435V89.0214H58.239L59.6846 92.1033L61.1391 89.0214H62.8256V94.6352H61.571V91.1033L60.0527 94.1715H59.3073L57.7981 91.1033V94.6579ZM66.1484 110.158L64.3665 113.768L62.5847 110.158L58.5982 109.577L61.4937 106.749L60.8119 102.781L64.3756 104.654L67.9394 102.781L67.2575 106.749L70.144 109.558L66.1484 110.158ZM70.694 94.6579H69.4394V89.0214H70.6122L73.3669 92.6579V89.0214H74.6215V94.6352H73.3669L70.694 91.1169V94.6579ZM78.0216 105.449L76.6261 108.281L75.226 105.449L72.1032 104.995L74.376 102.79L73.8441 99.6763L76.6397 101.149L79.4353 99.6763L78.8989 102.79L81.1717 104.995L78.0216 105.449ZM81.2717 73.6754H83.8036V74.2481H81.8808V75.2027H83.6081V75.7436H81.8808V76.7073H83.8627V77.28H81.2717V73.6754ZM82.1808 89.0441H86.231V90.1623H83.4354V91.2942H85.9491V92.3624H83.4354V93.567H86.3173V94.6761H82.1808V89.0441ZM88.5765 102.135L87.4401 104.44L86.2991 102.135L83.7672 101.749L85.5855 99.9308L85.1536 97.3989L87.4264 98.5944L89.6993 97.3989L89.2674 99.9308L91.1084 101.749L88.5765 102.135ZM91.7584 93.8943C91.2342 94.4034 90.4372 94.6579 89.3674 94.6579H87.4492V89.0214H89.4311C90.2651 88.9639 91.0895 89.2273 91.7357 89.7578C92.0095 90.0195 92.2231 90.3375 92.3621 90.6899C92.501 91.0423 92.5618 91.4206 92.5403 91.7987C92.561 92.1835 92.501 92.5683 92.364 92.9285C92.227 93.2886 92.016 93.6161 91.7448 93.8897L91.7584 93.8943ZM95.354 77.28H92.763V73.6754H95.2949V74.2481H93.3585V75.2027H95.0858V75.7436H93.3585V76.7073H95.3404L95.354 77.28ZM94.8994 60.7749V62.2022H94.0949V60.7794L92.8085 58.5657H93.6812L94.4631 59.9294L95.2404 58.5657H96.1131L94.8994 60.7749Z" fill="black"/>
</g>
<defs>
<clipPath id="clip0_14_3728">
<rect width="128.891" height="128" fill="white" transform="translate(0.132324)"/>
</clipPath>
</defs>
</svg>
