<?xml version="1.0" encoding="UTF-8"?>
<svg id="_Шар_2" xmlns="http://www.w3.org/2000/svg" version="1.1" viewBox="0 0 500 500">
  <!-- Generator: Adobe Illustrator 29.1.0, SVG Export Plug-In . SVG Version: 2.1.0 Build 142)  -->
  <defs>
    <style>
      .st0 {
        fill: #b1b1b2;
      }

      .st1 {
        fill: none;
      }

      .st2 {
        fill: #7e8082;
      }

      .st3 {
        fill: #eaeaea;
      }

      .st4 {
        fill: #050808;
      }

      .st5 {
        fill: #040707;
      }

      .st6 {
        fill: #090c0c;
      }

      .st7 {
        fill: #888a8c;
      }

      .st8 {
        fill: #f6f6f6;
      }

      .st9 {
        fill: #080b0b;
      }

      .st10 {
        fill: #060909;
      }

      .st11 {
        fill: #96989a;
      }

      .st12 {
        fill: #bcbec0;
      }

      .st13 {
        fill: #b9b9ba;
      }

      .st14 {
        fill: #b1b1b1;
      }

      .st15 {
        fill: #838587;
      }

      .st16 {
        fill: #97999b;
      }

      .st17 {
        fill: #7b7d7f;
      }

      .st18 {
        fill: #fff;
      }

      .st19 {
        fill: #7d7f80;
      }

      .st20 {
        fill: #b8b9b9;
      }

      .st21 {
        fill: #f5f5f5;
      }

      .st22 {
        fill: #dde4ea;
      }

      .st23 {
        fill: #d6d8db;
      }

      .st24 {
        fill: #d3d3d3;
      }
    </style>
  </defs>
  <g>
    <g>
      <path class="st18" d="M358,145.2c0,65.7-48,119-107.2,119s-107.2-53.3-107.2-119S196.5,26.3,250.7,26.3s107.2,53.3,107.2,119h.1Z"/>
      <g>
        <path class="st14" d="M271.1,255.8l46-17c6.1-5.4,11.7-11.5,16.7-18.2l-62.7,35.1h0Z"/>
        <path class="st14" d="M358,145.4c0-5.4-.4-10.8-1.2-16l-90.5,118.3,91.5-95.9c.1-2.1.2-4.3.2-6.4Z"/>
        <path class="st14" d="M275.6,243.3l76.4-58.6c2.7-8.6,4.6-17.7,5.4-27.2l-81.9,85.8h.1Z"/>
        <path class="st14" d="M269.4,252.6l69-38.7c4.5-7.1,8.4-14.9,11.4-23l-80.5,61.8h.1Z"/>
        <path class="st14" d="M350.1,103.9l-79.8,132.5,85.7-112c-1.3-7.1-3.3-13.9-5.9-20.5Z"/>
        <path class="st14" d="M144.5,130.1c-.6,5-1,10.1-1,15.3s0,5.6.3,8.3l80.8,80.8-80.1-104.4Z"/>
        <path class="st14" d="M228.1,223.8l-67.3-141.3c-3.4,5.7-6.3,11.6-8.8,17.9l76,123.4h.1Z"/>
        <path class="st14" d="M241.3,256.4l-97.1-97.1c1,9.5,3,18.7,5.9,27.3l91.2,69.7h0Z"/>
        <path class="st14" d="M163.1,78.9l76.1,159.9L174.6,63.7c-4.2,4.7-8,9.8-11.5,15.2Z"/>
        <path class="st14" d="M235.6,243l-85.1-138.2c-2.3,6.5-4.1,13.4-5.3,20.4l90.4,117.8Z"/>
        <path class="st14" d="M263.7,240.4l84.7-140.6c-2.5-5.7-5.3-11.2-8.6-16.4l-76.1,157.1h0Z"/>
        <path class="st14" d="M243.2,231l-32.4-195.1c-5.5,2.6-10.8,5.8-15.9,9.4l48.3,185.7Z"/>
        <path class="st14" d="M246.3,227l-10.8-199,3.6-.2,11.6,213.7-3.6.2v-1.4l-1.4.2.7,2.8-1.5.4,1.3,3.5-3.4,1.3h0l-2.1,1.3,3.6,4.7,7,7,5.5-7.2-1-.6,5.9-9.8-1.8-.9-.8,2.3-2.2-.8-1,3.6-3.5-.9,1.7-6.4h-2.5c0-.1,10.5-213.1,10.5-213.1-3.8-.6-7.7-.9-11.4-.9-12.4,0-24.8,2.8-36.5,7.9l32,192.6v-.3h0Z"/>
        <path class="st14" d="M225.6,249l-73.1-55.9c3,7.7,6.8,15,11.2,21.8l61.9,34.1Z"/>
        <path class="st14" d="M289.6,36.5l-28.6,178.4,45.1-168.2c-5.3-3.9-10.9-7.3-16.5-10.2Z"/>
        <path class="st14" d="M245,263.9l-76.7-42.3c18.6,24.7,46.1,41,77.1,42.6l-.5-.4h.1Z"/>
        <path class="st14" d="M237.5,223.5l-45.7-175.8c-5.1,3.9-9.9,8.2-14.4,13l60.1,162.8Z"/>
        <path class="st14" d="M259.7,263.9c17.5-1.6,33.9-7.9,48-17.7l-48,17.7Z"/>
        <path class="st14" d="M256.2,222.1l30-187.3c-6.7-3.1-13.6-5.4-20.4-6.8l-9.6,194.1Z"/>
        <path class="st14" d="M264.5,230.4l73-150.7c-3.5-5.3-7.5-10.4-11.6-15.1l-61.4,165.8Z"/>
        <path class="st14" d="M260.6,230.4l62.5-168.8c-4.4-4.6-9-8.8-13.8-12.6l-48.6,181.4h-.1Z"/>
      </g>
    </g>
    <g>
      <path class="st5" d="M457.3,254.7c.2,2,.1,7.6,1.5,7.4,4.5-14.7,14.6-20.6,29-23.8,2.3,6.6-2.1,18.1-6.7,23s-22.2,11.3-23.1,12.6c-.7,7.5-.1,15.5-1.8,26.6l14.4-13.9c7.3-5.5,20.9-5.8,20.9-2.9-4,19.2-17.2,27.3-35.7,29-.6,8.6-4.3,17.2-7.5,25.2,5-5,8.3-6.8,10.5-8.1,4.3-2.5,25.6-6.9,26.6-1.5.8,4.3-10,15.1-13.8,17.4-8,4.7-26.6,4.9-27.6,5.8s-5.4,19-9.1,21.4c3.9,1.3,7.4-3.4,11.5-4.8,10.2-3.5,17.1-.6,27.1,1.1,2.2,2.5-13.1,15.1-17,16.4-10.3,3.5-14.7,1.3-23.9,1.2-8.6,0-12.2,13-17,18.9,8.4-3.8,10.9-4,16.8-3.8,3.4.1,21.7,5.1,21.8,8.1-8.8,10.2-18.3,14-31.8,12.5s-13.6-4.7-16.2-4.1-10.9,11.5-14.4,13.9l15.5.9c4,.2,21.1,8.7,20.2,12.5-1.1,4.4-19.5,8.6-24.5,8.2-7.9-.7-21-11.1-24.5-9.7-16.9,6.8,1.9,39.5-15.8,42.3h-225.7c-18.1-2.9,1.4-35.4-15.8-42.3-3.6-1.4-17.2,9.3-25.9,9.8-5.1.3-21.8-3.2-23.1-8.3s12.5-10.3,15.5-11.2c7.3-2.1,10-1.3,17.1-.6,1.2.1,4.5,1.8,3-1.6s-13.4-13.7-14.4-13.9c-2.6-.7-11.9,3.6-16.2,4.1-13.5,1.5-22.9-2.3-31.8-12.5,10.7-7.9,27-11.6,37.9-2.2,1.1.2,1-1.4.7-2.2-.6-1.8-11.7-18-12.9-18.4-4.7-1.7-9.1,1.4-13.1,1.2-13.4-.4-27-6-31.9-19.3,13.8-3.6,25.2-4.8,37.1,4.4.9-1.2-7.6-20.7-8.9-21.5-4-2.5-17.9-2.4-25.3-5.9-5.9-2.8-12.8-12.4-16.2-18s.4-1.9,2.2-2.2c12.1-1.6,25.3,1.2,33.5,10.4-.7-4.9-1.5-18.7-3.7-22.3s-10.6-3.3-14.5-4.8c-12-4.6-20.1-12.5-21.9-25.7,7.8-2.4,20.9,1.9,26.8,7.3,3.2,2.9,4.1,7.6,7.3,9.7l-1.6-28.1c-18.6-4.5-29.5-14.7-31-34.3,10.4,1,20.4,5.7,26.5,14.3l4.7,10.9c-.3-6.3,4.4-23.9,2.8-28.7s-7.7-5.5-10.2-7.7c-10.8-9.6-14.9-16.7-13.4-32,14.9,4.1,24.9,13.6,25.3,29.7l5.8-17.3,5.6-8.5c-1.8,5.7-5.9,22.7-8.5,28.8,4.8.3,5.8-5.6,8.8-8.2,5.8-5.1,19.3-7.5,26.8-5.9-4.7,14-10.8,22.1-25.2,23.8s-8.4,0-10.5,1.3c-3,2-4.3,21.4-3.6,26.1,5.8-3.7,7-10.9,13.6-14.7,2.6-1.5,17.1-5.9,18.4-4.7,0,14.1-7.8,22.6-19.8,28.5-2.9,1.4-12.1,2.7-12.5,4.9l3.3,26.1c3.8-14.7,13.4-25,29-26.8,1.1,19.3-10.3,30.8-26.8,38.1-.3,9.5,4.9,18,6,27.2l3.7-14.9c4.4-8.4,12.5-15.1,21.6-17.8,3.8,17.5-4.1,34.6-20.7,41.7v1.8c2.5,4.8,4.1,9.7,6.6,14.4,1.1,2.1,3,6.6,5.2,7.4-1.6-11.2,3.1-20.8,10.4-29,1.2-1.4,7.4-8.1,8.9-6.6,4.5,14.7,4,24.7-4.7,37.6s-8.6,8-8.1,10l12.8,17.8c0-7.7-.6-13.8,1.8-21.2s9.5-18.6,13-15.9c8.5,16.8,7.2,34.3-5.9,48.3,8.9,8.8,17.1,18.4,28.2,24.5v-32.7h242.3v32.7c11.1-6.1,19.3-15.7,28.2-24.5-12-13-16.9-34.5-3.7-48.3,10.5,9.9,15.4,22.9,11.2,37.1,2.8.6,2.9-.9,4.2-2.5s9.8-13.6,10-15.3-9.1-10.9-11-14.4c-6.6-12.2-5.1-20.2-1.7-33.2,2.8-2.7,15.7,15.2,16.7,18.2,2.1,6.3.9,12.5,1.2,18.9,6.2-6.3,9.5-15.5,13.2-23.3v-1.8c-16-6.7-25.1-24.8-20.6-41.7,14.5,4.7,24,17.3,23.8,32.7l7-20.4c3.4-9.5-6.3-9.5-12.9-14.6-10.2-7.9-13.7-17.6-13.5-30.3,8.7.9,20.4,7.3,24.4,15,4.3,8.3,2.6,6.2,5.3,11.8l1.2-12.8c.2-1.8.3-3.6.2-5.4v-10c-16.1-2.1-32.2-13.6-31.2-31.3,13.6.5,26.5,6.6,29.7,20.8,2.7,0,1.4-5.5,1.5-7.4l2.8-4.6v.6h.1Z"/>
      <path class="st4" d="M452.9,239.8c-17.5-2.1-33.8-7.1-37.1-26.7,8.5-.3,21.1,1.6,27.5,7.4,2.9,2.6,5.8,5.7,6.7,8.9.9-.5,2.9-5.8,4.2-8.4,2.4-4.9,2.3-9.6,6.2-14.6s11.6-8.5,17.8-11.2c3.2,13-2.6,24.4-12.7,32.7-2.4,2-10.4,5.8-10.8,6.3-.7.9,0,2.2-.3,2.7-.4.9-1.5,2.8-1.5,3h0Z"/>
      <path class="st4" d="M59,187.8v3c0,.9-.6,3,.7,3,7.8-9.6,18.8-13.5,31.1-11.7,8.9,1.3,4.5,5.3,0,10.3-5.9,6.6-13.4,9.6-22.3,10.4-8.1.7-12.8-4.1-15.6,4.5h-1.5c6.2-14.1.7-10.6-6.7-19.3s-10-19.8-6.7-32.7c6.4,2.9,12.8,8.1,16.1,14.4,3.6,6.8,2.2,11.9,4.7,18.3v-.2h.2Z"/>
      <path class="st4" d="M76.8,156.1l-.6,2.9c-.2.9-1.2,2.8,0,3.1,9.6-7.7,21.2-9.2,32.9-4.9,8.4,3.1,3.3,6.1-2.2,10.1-7.2,5.2-15.1,6.6-24,5.5-8.1-1-11.7-6.7-16.2,1.1l-3.6,4.4c8-12.8,5.1-15-.3-25s-5.6-21.5.3-33.4c5.6,4.2,10.8,10.6,12.7,17.5,2.1,7.4-.4,12.1.7,18.9v-.2s.2,0,.2,0Z"/>
      <path class="st4" d="M439.5,202.7c-15,1.7-30.5-4.3-35.7-19.3,8.4-2.5,17.9-2.6,25.8,1.7l9.9,8.7c.6-.7,2.7-4.7,2.9-5.5.8-3.3-.4-7.7.1-11.5,1.2-8.2,10.4-17.1,17-21.6,7.4,10.7,2.7,23.3-4.6,32.5-4.1,5.2-11.2,7.1-9.5,13.5-2.3-1.2-5,1.4-5.9,1.5h0Z"/>
      <path class="st11" d="M278.1,57.9c-7.4.8-13.4.6-21.4.6,0,0-3.7.3-3.7,0s3.6-1.4,3.7-1.5c.3-1.4,3.8-6.1-.8-7.4s-4.2,2.2-5.2,3c-2.4,1.7-4.7,3.1-5.9,5.9h-6.1c3.5-3.3,10.5-12,12.7-15.6s2.9-4.1,1.6-5-2.1.4-4.7,2.8c-6,5.4-14.1,12-19.9,17.8-3.4,0-10.2.2-13.7,0,1.8-2.4,1.7-2.3,3.3-4.5,6.7-10.1-1.8,2.6,15.9-22.3,7.4-10.4.5,0,13.8-19.3l30.3,45.5h0Z"/>
      <path class="st4" d="M423.1,136.5c.7-3.3,11.5-19.4,15.6-14.1,5.1,6.6,2,23.4-2.4,30.2s-10.1,9.1-8.7,10.4c.7.6,14.6,28.7,13.8,30.3-.8,1.6-2.1,1-1.6,1.3.4.2-10.5-25.8-12.1-25.6-5.4.4-22.7,1.4-25.8.7s-15.9-10.1-15.9-13.8c13.5-6,24.4-4.1,37.2,2.2.9-6.4-1.2-15.6,0-21.6h-.1Z"/>
      <path class="st4" d="M98.9,128.3c13.3-4.8,23.2-3,35.7,3,2.9,3.8-15.5,11.3-18.9,11.5-18.4-.1-21.8-7.1-23.5-7s-8.6,13.9-14.6,22.7-9.8,12.9-1.9-.5,6.8-10.5,12.2-19.3c6.9-10.6,2.8-8.5-.4-17.6-4.4-12.8-4.7-22.5,4.9-33.1,11.4,12.5,9.8,24.8,6.7,40.1h0Z"/>
      <path class="st10" d="M404.7,129.9c.4.2-1.6,1.5,0,2.2s.5-1.9,1.4-2.9l19.8,30.9,1.8,6-20-30.3c-6.4,4.6-18.4,7.9-26,6.8s-19.3-7.5-16.3-11.3c13.8-6.3,18.5-7.5,32.6-2.4,1.4.5,4.8,1.8,4.9,1.9l-1.3-5.1,3.2,4.1Z"/>
      <path class="st10" d="M406.8,129.8c-.9.9-1.5,3.2-2.2,3-1.6-.6-2.1-4.7-2.5-4.9-3.3-11.8-6-19.4-.5-30.9.8-1.6,3.9-8.2,6-7.4,10.9,4.1,7.3,31.7-.7,40.1h0Z"/>
      <path class="st6" d="M393.4,119.4c-12.9-2.9-26.3-8.8-26.7-23.8,14.7,1,23.5,9.9,26.7,23.8Z"/>
      <path class="st9" d="M133.3,95.7c-1.6,12.9-13.9,22.8-26.7,22.3,3.3-14.5,12-21,26.7-22.3Z"/>
      <path class="st0" d="M234.4,31.8c-5.5,7.7-9.5,12.9-16.3,22.3-.2-.5-1.4-1.1-1.5-1.5"/>
      <path class="st13" d="M219.5,257.7c1.4.7,2.4,1.4,3,3h-5.9c-6.6-3-12.9-5.3-19.3-8.9,1.3-2.8,4.8-.7,6.7,0,4.7,1.5,11.4,3.7,15.6,6h-.1Z"/>
      <path class="st20" d="M302.8,251.7c-5.8,3.3-12.1,5.5-17.8,8.9h-5.9v-3c7.6-.6,16.2-8.9,23.8-5.9h-.1Z"/>
      <path d="M71.2,168l-12.2,25.7c0-.9-.8-4-.8-4.8,2.4-7.5,8.3-15.6,11.3-22,.2.7,1.1.9,1.8,1Z"/>
      <path d="M457.3,254.7l-2.9,4.5c0-7.5-1.6-13.1-1.6-19.3,0-.2,1.1-5.4,1.5-6.4,1,5.4,2.4,15.6,3,21.2h0Z"/>
      <path d="M445.4,201.2c.7,2.6,8,26.6,6.8,31.3-2.6.7-5.3-17.5-6.1-19.9-1.4-4.2-2-10.8-6.6-10,.9-.1,3.6-2.7,5.9-1.5h0Z"/>
      <path class="st16" d="M273,251.7c-1.7,2.8-4,4.7-4.5,7.4h-1.5c.8-4.5-2.3-2.9-5.1-3-10-.4-20,2-29,1.5s-5.2-4.6-4.5,1.5h-1.5l-1.5-7.4c3.2,1.5,7.7-1.4,8.9-1.5s1,0,1.5,0c4,0,7.3,1.5,11.1,1.5,8.7.1,17.4-.2,26.1,0h0Z"/>
      <path class="st8" d="M232.9,257.7c10.6,3.4,23.1.6,34.2,1.5h1.5v1.5c-13.3,0-27.4-1.5-40.1-1.5-.8-6.1,3.3-1.6,4.5-1.5h-.1Z"/>
      <path class="st7" d="M244.8,242.8c-4.6.8-9.9,2.7-14.9,3v-1.5c8.8-4.5,15.6-3.8,14.9-16.3.2,0,.8-1.3,1.5-1.5l-1.5,16.4h0Z"/>
      <path class="st21" d="M246.3,39.2c6.9-5.3,10.1,1.5,7.4,4.5-9.9,10.1-9.6,10.1-13.1,13.4l-1.6,1.5c-2.4.4-8,0-10.6,0,5.7-6.2,12.2-13.7,17.8-19.3h.1Z"/>
      <path class="st21" d="M251.3,50.5c6.3-5.7,10.1,1.5,7.4,4.5-2.1,2.1-.2.3-3.6,3.6h0c-2.4.4-8.9,0-11.4,0,5.7-6.2,2-2.4,7.6-8h0Z"/>
      <path class="st3" d="M235.9,250.2c-.2-5.2-.9-4.1,3.6-4.5,12.2-1,24.3,2.2,35.7,0,.4,1.3-1.5,4.8-2.2,6-8.7-.2-17.4.2-26.1,0s-7.1-1.6-11.1-1.5h.1Z"/>
      <path class="st17" d="M232.9,257.7c9.1.5,19-1.8,29-1.5,10,.3,6-1.5,5.1,3-11-.9-23.6,1.9-34.2-1.5h0Z"/>
      <path class="st15" d="M261.1,115v-1.5c6.2-7.2,8-16.5,10.4-25.3,3.8,4.3-6.4,25.9-8.9,27.5s-1.4-.7-1.5-.7Z"/>
    </g>
    <circle class="st11" cx="250" cy="41.8" r="3.5"/>
    <circle class="st11" cx="255" cy="53.2" r="3.3" transform="translate(93.4 257.4) rotate(-63.4)"/>
    <polyline class="st11" points="247.7 7.6 212.6 55.5 214.8 58.5 247.8 12.4 247.7 7.6"/>
    <path class="st11" d="M241.5,20.7"/>
    <line class="st1" x1="247.8" y1="12.4" x2="214.8" y2="58.5"/>
    <polygon class="st18" points="215 58.2 215 58.2 247.7 12.6 247.7 12.6 215 58.2"/>
    <polygon class="st12" points="215.1 58.2 278.1 57.9 283.4 60.5 212.1 60.5 215.1 58.2"/>
    <path class="st11" d="M269.4,250h-39.5v-9.1c0-1.4,1.2-2.1,2.6-2.1h32.9c2.4,0,4,1.4,4,3.8v7.4h0Z"/>
    <g>
      <path class="st18" d="M184.5,442.7h-3.2v-22.8h10.4v4.2h-7.2v18.6h0ZM184.2,430.1h6.6v4.2h-6.6v-4.2Z"/>
      <path class="st18" d="M200.5,443.1c-1.1,0-2.1-.3-3-.9s-1.7-1.4-2.4-2.5-1.2-2.3-1.6-3.7-.6-3-.6-4.7.2-3.3.6-4.7.9-2.7,1.6-3.7c.7-1.1,1.5-1.9,2.4-2.5s1.9-.9,3-.9,2.1.3,3,.9,1.7,1.4,2.4,2.5,1.2,2.3,1.6,3.7c.4,1.4.6,3,.6,4.7s-.2,3.3-.6,4.7c-.4,1.4-.9,2.7-1.6,3.8-.7,1.1-1.5,1.9-2.4,2.5s-1.9.9-3,.9h0ZM200.5,438.6c.6,0,1.2-.2,1.7-.5.5-.4,1-.9,1.4-1.5.4-.7.7-1.4.9-2.3s.3-1.9.3-2.9-.1-2.1-.3-2.9c-.2-.9-.5-1.6-.9-2.3s-.9-1.2-1.4-1.5c-.5-.4-1.1-.5-1.7-.5s-1.2.2-1.7.5c-.5.4-1,.9-1.4,1.5-.4.7-.7,1.4-.9,2.3s-.3,1.9-.3,2.9.1,2.1.3,2.9c.2.9.5,1.6.9,2.3.4.7.8,1.2,1.4,1.5.5.4,1.1.5,1.7.5Z"/>
      <path class="st18" d="M210.5,442.7v-22.8h6c1.2,0,2.3.3,3.2,1s1.6,1.6,2.1,2.8c.5,1.2.7,2.7.7,4.4s-.2,3.2-.7,4.4c-.5,1.2-1.2,2.2-2.1,2.8-.9.6-2,1-3.2,1h-4.2l1.5-2.3v8.7h-3.3ZM213.7,434.6l-1.5-2.5h4c1,0,1.7-.3,2.2-1s.7-1.7.7-2.9-.2-2.2-.7-2.9c-.5-.7-1.2-1-2.2-1h-4l1.5-2.5v12.9h0ZM219.2,442.7l-3.5-8.3h3.4l3.5,8.3h-3.4Z"/>
      <path class="st18" d="M235.1,443.1c-1.1,0-2.2-.2-3.2-.7s-1.8-1.1-2.5-1.9l1.1-4c.6.7,1.3,1.3,2.1,1.7.8.4,1.6.7,2.5.7s1.1-.1,1.5-.3c.4-.2.7-.5.9-.9s.3-.8.3-1.3-.1-1.1-.4-1.4-.7-.7-1.2-.9c-.5-.2-1-.4-1.6-.7-.6-.2-1.1-.5-1.7-.7-.6-.3-1.1-.7-1.6-1.2s-.9-1.1-1.1-1.9c-.3-.8-.4-1.8-.4-3s.2-2.5.6-3.6c.4-1.1,1.1-1.9,1.9-2.6.9-.6,1.9-1,3.2-1s1.7.2,2.6.5c.8.3,1.6.8,2.2,1.5l-1,4c-.6-.6-1.3-1-1.9-1.3-.7-.3-1.3-.4-1.9-.4s-1.1.1-1.5.3c-.4.2-.7.5-.8.9s-.3.8-.3,1.3.1,1.1.4,1.5c.3.4.7.7,1.1.9.5.2,1,.4,1.6.6s1.1.5,1.7.8c.6.3,1.1.7,1.6,1.2s.9,1.1,1.2,1.9.4,1.8.4,2.9-.2,2.5-.6,3.5c-.4,1.1-1.1,1.9-1.9,2.6s-2,1-3.2,1h-.1Z"/>
      <path class="st18" d="M241.3,442.7l6.1-22.8h3.2l6.2,22.8h-3.3l-5.1-20.1h1.3l-5.1,20.1h-3.3ZM244.4,437.8l.8-4h7.1l.8,4h-8.8,0Z"/>
      <path class="st18" d="M258.2,442.7v-22.8h3.2v18.5h6.9v4.3h-10.1Z"/>
      <path class="st18" d="M273.2,438.4h7.5v4.2h-10.7v-22.8h10.4v4.2h-7.2v14.3h0ZM273,429h6.6v4.1h-6.6v-4.1Z"/>
      <path class="st18" d="M287.8,443.1c-1.1,0-2.2-.2-3.2-.7s-1.8-1.1-2.5-1.9l1.1-4c.6.7,1.3,1.3,2.1,1.7.8.4,1.6.7,2.5.7s1.1-.1,1.5-.3c.4-.2.7-.5.9-.9.2-.4.3-.8.3-1.3s-.1-1.1-.4-1.4-.7-.7-1.2-.9c-.5-.2-1-.4-1.6-.7-.6-.2-1.1-.5-1.7-.7-.6-.3-1.1-.7-1.6-1.2s-.9-1.1-1.1-1.9c-.3-.8-.4-1.8-.4-3s.2-2.5.6-3.6,1.1-1.9,1.9-2.6c.9-.6,1.9-1,3.2-1s1.7.2,2.6.5c.8.3,1.6.8,2.2,1.5l-1,4c-.6-.6-1.3-1-1.9-1.3-.7-.3-1.3-.4-1.9-.4s-1.1.1-1.5.3c-.4.2-.7.5-.8.9s-.3.8-.3,1.3.1,1.1.4,1.5.7.7,1.1.9c.5.2,1,.4,1.6.6s1.1.5,1.7.8,1.1.7,1.6,1.2.9,1.1,1.2,1.9c.3.8.4,1.8.4,2.9s-.2,2.5-.6,3.5c-.4,1.1-1.1,1.9-1.9,2.6s-2,1-3.2,1h-.1Z"/>
      <path class="st18" d="M305.7,443.1c-1,0-1.9-.3-2.7-.8-.8-.5-1.4-1.3-1.9-2.2-.5-.9-.7-2-.7-3.2s.2-2.1.5-3.1c.3-.9.8-1.8,1.4-2.5.7-.8,1.5-1.6,2.5-2.3.7-.6,1.3-1.1,1.7-1.5s.7-.8.9-1.2c.2-.4.3-.8.3-1.2s-.1-1-.3-1.4c-.2-.4-.6-.5-1-.5s-.8.2-1.1.6-.4.9-.4,1.5,0,.6.1,1c0,.3.2.7.5,1.1.2.4.5.9.9,1.6l7.3,11.1-1.7,3.2-8-12.3c-.4-.7-.8-1.3-1.1-1.9-.3-.6-.5-1.2-.6-1.8s-.2-1.2-.2-1.8c0-1.1.2-2.1.5-2.9.4-.8.9-1.5,1.5-2,.7-.5,1.4-.7,2.2-.7s1.5.2,2.1.6,1,1,1.4,1.8c.3.8.5,1.7.5,2.8s-.1,1.8-.4,2.6-.7,1.6-1.4,2.2-1.4,1.4-2.4,2.1c-.7.5-1.2,1-1.6,1.5s-.7,1-.8,1.4c-.2.5-.3,1-.3,1.6s0,1,.3,1.4c.2.4.5.8.8,1,.4.2.8.3,1.3.3.8,0,1.5-.3,2.2-.9s1.2-1.5,1.7-2.8.8-2.7,1-4.4l2.5,1.2c-.3,2.2-.8,4.1-1.5,5.8-.7,1.6-1.6,2.9-2.6,3.8s-2.2,1.3-3.5,1.3h.1Z"/>
    </g>
    <g>
      <path class="st18" d="M152,474.3c-1,0-2-.3-2.9-.9s-1.7-1.5-2.3-2.6c-.7-1.1-1.2-2.4-1.5-3.9s-.6-3.1-.6-4.9.2-3.4.6-4.9.9-2.8,1.6-3.9c.7-1.1,1.4-2,2.3-2.6.9-.6,1.9-.9,2.9-.9s2.2.4,3.2,1.1,1.8,1.8,2.4,3.2l-2,3.3c-.5-.9-1-1.6-1.5-2.1-.6-.5-1.2-.7-1.9-.7s-1.2.2-1.7.6-1,.9-1.4,1.6-.7,1.5-.9,2.4-.3,2-.3,3.1.1,2.2.3,3.1.5,1.7.9,2.4c.4.7.8,1.2,1.4,1.6.5.4,1.1.6,1.7.6s1.3-.2,1.9-.7c.6-.5,1.1-1.2,1.5-2.1l2,3.3c-.6,1.4-1.4,2.4-2.4,3.2-1,.7-2,1.1-3.2,1.1v-.4h-.1Z"/>
      <path class="st18" d="M165.7,474.3c-1.9,0-3.4-.9-4.5-2.8s-1.6-4.6-1.6-8.1v-13.3h3.2v13.2c0,2.2.3,3.9.8,4.9s1.3,1.5,2.2,1.5,1.7-.5,2.2-1.5.8-2.6.8-4.9v-13.2h3.1v13.3c0,3.5-.5,6.2-1.6,8.1s-2.6,2.8-4.5,2.8h0Z"/>
      <path class="st18" d="M179.4,474.3c-1.1,0-2.1-.3-3.1-.8s-1.8-1.2-2.4-2l1.1-4.2c.6.7,1.3,1.3,2.1,1.8s1.6.7,2.4.7,1.1-.1,1.5-.3c.4-.2.7-.5.8-.9.2-.4.3-.8.3-1.3s-.1-1.1-.4-1.5-.7-.7-1.1-.9c-.5-.2-1-.5-1.5-.7-.6-.2-1.1-.5-1.7-.8-.6-.3-1.1-.7-1.6-1.2s-.8-1.2-1.1-2-.4-1.9-.4-3.1.2-2.6.6-3.7c.4-1.1,1-2,1.9-2.7.8-.7,1.9-1,3.2-1s1.7.2,2.5.5c.8.4,1.6.9,2.2,1.6l-1,4.2c-.6-.6-1.2-1.1-1.9-1.4-.6-.3-1.3-.5-1.9-.5s-1.1.1-1.5.4c-.4.2-.6.6-.8,1s-.3.9-.3,1.4.1,1.1.4,1.5c.3.4.7.7,1.1.9.5.2,1,.4,1.6.6s1.1.5,1.7.8c.6.3,1.1.7,1.5,1.2.5.5.8,1.1,1.1,2,.3.8.4,1.9.4,3.1s-.2,2.6-.6,3.7c-.4,1.1-1.1,2-1.9,2.7s-1.9,1-3.2,1h0Z"/>
      <path class="st18" d="M190.1,473.9v-19.3h-4.3v-4.5h11.8v4.5h-4.3v19.3h-3.2Z"/>
      <path class="st18" d="M205.9,474.3c-1.1,0-2.1-.3-3-.9s-1.7-1.5-2.4-2.6-1.2-2.4-1.6-3.9-.6-3.1-.6-4.9.2-3.4.6-4.9.9-2.8,1.6-3.9c.7-1.1,1.5-2,2.4-2.6s1.9-.9,3-.9,2.1.3,3,.9,1.7,1.5,2.4,2.6,1.2,2.4,1.6,3.9c.4,1.5.6,3.1.6,4.9s-.2,3.4-.6,4.9c-.4,1.5-.9,2.8-1.6,3.9-.7,1.1-1.5,2-2.4,2.6s-1.9.9-2.9.9h-.1ZM205.9,469.6c.6,0,1.2-.2,1.7-.6s1-.9,1.3-1.6c.4-.7.7-1.5.9-2.4s.3-1.9.3-3.1-.1-2.2-.3-3.1-.5-1.7-.9-2.4-.8-1.2-1.3-1.6-1.1-.6-1.7-.6-1.2.2-1.7.6-1,.9-1.3,1.6c-.4.7-.7,1.5-.9,2.4s-.3,1.9-.3,3.1.1,2.2.3,3.1.5,1.7.9,2.4c.4.7.8,1.2,1.3,1.6s1.1.6,1.7.6Z"/>
      <path class="st18" d="M215.7,473.9v-23.8h2.6l5.8,16.8h-1.4l5.7-16.8h2.6v23.8h-2.9v-15.9h.5l-4.6,13.4h-1.4l-4.6-13.4h.6v15.9h-2.9Z"/>
      <path class="st18" d="M237.3,469.4h7.4v4.4h-10.5v-23.8h10.3v4.4h-7.1v15h0ZM237.1,459.6h6.5v4.3h-6.5v-4.3Z"/>
      <path class="st18" d="M247.2,473.9v-23.8h5.9c1.2,0,2.3.3,3.1,1,.9.7,1.6,1.7,2,3,.5,1.3.7,2.8.7,4.6s-.2,3.3-.7,4.6c-.5,1.3-1.2,2.3-2,2.9-.9.7-1.9,1-3.1,1h-4.1l1.4-2.4v9.1h-3.2,0ZM250.3,465.4l-1.4-2.6h4c1,0,1.7-.4,2.2-1.1s.7-1.7.7-3.1-.2-2.3-.7-3-1.2-1.1-2.2-1.1h-4l1.4-2.6v13.5h0ZM255.8,473.9l-3.4-8.7h3.4l3.4,8.7h-3.4Z"/>
      <path class="st18" d="M271.4,474.3c-1.1,0-2.1-.3-3.1-.8s-1.8-1.2-2.4-2l1.1-4.2c.6.7,1.3,1.3,2.1,1.8.8.5,1.6.7,2.4.7s1.1-.1,1.5-.3c.4-.2.7-.5.8-.9.2-.4.3-.8.3-1.3s-.1-1.1-.4-1.5-.7-.7-1.1-.9c-.5-.2-1-.5-1.5-.7-.6-.2-1.1-.5-1.7-.8s-1.1-.7-1.6-1.2-.8-1.2-1.1-2c-.3-.8-.4-1.9-.4-3.1s.2-2.6.6-3.7,1-2,1.9-2.7c.8-.7,1.9-1,3.2-1s1.7.2,2.5.5c.8.4,1.6.9,2.2,1.6l-1,4.2c-.6-.6-1.2-1.1-1.9-1.4-.6-.3-1.3-.5-1.9-.5s-1.1.1-1.5.4c-.4.2-.6.6-.8,1s-.3.9-.3,1.4.1,1.1.4,1.5.7.7,1.1.9c.5.2,1,.4,1.6.6s1.1.5,1.7.8,1.1.7,1.5,1.2c.5.5.8,1.1,1.1,2,.3.8.4,1.9.4,3.1s-.2,2.6-.6,3.7-1.1,2-1.9,2.7-1.9,1-3.2,1h0Z"/>
      <path class="st18" d="M282.4,469.4h7.4v4.4h-10.5v-23.8h10.3v4.4h-7.1v15h0ZM282.2,459.6h6.5v4.3h-6.5v-4.3Z"/>
      <path class="st18" d="M292.3,473.9v-23.8h5.9c1.2,0,2.3.3,3.1,1,.9.7,1.6,1.7,2,3,.5,1.3.7,2.8.7,4.6s-.2,3.3-.7,4.6c-.5,1.3-1.2,2.3-2,2.9-.9.7-1.9,1-3.1,1h-4.1l1.4-2.4v9.1h-3.2,0ZM295.5,465.4l-1.4-2.6h4c1,0,1.7-.4,2.2-1.1s.7-1.7.7-3.1-.2-2.3-.7-3-1.2-1.1-2.2-1.1h-4l1.4-2.6v13.5h0ZM300.9,473.9l-3.4-8.7h3.4l3.4,8.7h-3.4Z"/>
      <path class="st18" d="M310.6,473.9l-5.9-23.8h3.4l5.1,21.1h-2l5.2-21.1h3.1l-5.9,23.8h-3.1,0Z"/>
      <path class="st18" d="M321,473.9v-23.8h3.2v23.8h-3.2Z"/>
      <path class="st18" d="M333.9,474.3c-1,0-2-.3-2.9-.9s-1.7-1.5-2.3-2.6c-.7-1.1-1.2-2.4-1.5-3.9s-.6-3.1-.6-4.9.2-3.4.6-4.9.9-2.8,1.6-3.9,1.4-2,2.3-2.6,1.9-.9,2.9-.9,2.2.4,3.2,1.1,1.8,1.8,2.4,3.2l-2,3.3c-.5-.9-1-1.6-1.5-2.1-.6-.5-1.2-.7-1.9-.7s-1.2.2-1.7.6-1,.9-1.4,1.6-.7,1.5-.9,2.4c-.2.9-.3,2-.3,3.1s.1,2.2.3,3.1c.2.9.5,1.7.9,2.4.4.7.8,1.2,1.4,1.6.5.4,1.1.6,1.7.6s1.3-.2,1.9-.7,1.1-1.2,1.5-2.1l2,3.3c-.6,1.4-1.4,2.4-2.4,3.2-1,.7-2,1.1-3.2,1.1v-.4h-.1Z"/>
      <path class="st18" d="M344.7,469.4h7.4v4.4h-10.5v-23.8h10.3v4.4h-7.1v15h0ZM344.5,459.6h6.5v4.3h-6.5v-4.3Z"/>
    </g>
    <path class="st22" d="M283.4,60.5c-1-.5-2.2-1.1-2.5-1.2-.8-.3-2.3-1.3-2.9-1.4l-30.3-45.5v-4.8c5.4,7.7,12.9,18.3,17.9,25.1s10.1,15.2,15.5,22.8l2.4,5s-.1,0-.1,0Z"/>
    <path class="st11" d="M235.1,240.1s9.4,2.4,8.8-11c-.6-13.4-3.5-21.3-3.5-21.3,0,0-2.6-23.2-1.9-31.7.6-8.5-.2-36.1-.2-36.1,0,0-.6-6.3-5.8-15.4s-9.8-21.2-9.9-28.2-3.5-28.8-3.5-28.8c0,0-1.4-5.1-7.4-9.8-5.9-4.6-1.1-7.2,8.6-1.6,0,0,8.2,2.7,6.9,8.2s.5,20.5.5,20.5c0,0,5,18.7,11.2,26.9,0,0,1.8,2.3,3.8.5s1.1-4.1,1.1-4.1c0,0-2.7-3.2-2.4-8.4.3-5.2,2.3-8.8,2.3-8.8,0,0,2.7-5,9.4-2.2,6.7,2.8,5.4,11.6,5.4,11.6,0,0,.4,3.5-2.7,7.7,0,0-1.2,3.6,2.2,4.9s6.9-8.1,6.9-8.1c0,0,8.4-15.7,8.9-35.5,0,0-5.3-9.3.9-10.8s11.9-6.2,11.9-6.2c0,0,3.9.6-3.7,8.9,0,0-3.6,4.4-4,15.7-.4,11.3-3.9,25-3.9,25,0,0-2.6,12.8-9,22.4,0,0-4.7,6.2-4,27.5.7,21.4-1.3,48.9-1.3,48.9,0,0-.8,9.8-4.1,20.6l-.2,6.4s-.9,9.7,7.1,10.8c7.8,1.1,5.4,11.5,5.4,11.5h-37.6l3.6-9.9h.2Z"/>
    <path class="st23" d="M282.3,63.8s-2,3.4-2.6,12.4-4.2,27-4.2,27c0,0-3.3,15.3-8.5,23.5,0,0-3,3-3.4,19.2-.3,16.2.7,49.6-2.3,61.6-3,11.9-3.1,25.9-3.1,25.9,0,0-.6,5.4,8,5.4s.1,0,.2,0c.4,0,2,.5,2.7,2.1s-.3,1.4-1,1.2c-2.8-.7-9.4-2.5-11-4.3-2-2.3-.3-17.1-.3-17.1,0,0,3-26.4,3.3-49.1.3-22.6.4-30.5.4-30.5,0,0-.3-8.4,5.5-16.6,5.6-8,7.6-19.2,7.7-19.9s0,0,0,0c.2-.9,5.6-21.9,5.2-32.8,0,0,0-8.5,5.3-11.4l-1.8,3.6v-.2h-.1Z"/>
    <path class="st23" d="M227.4,63.2s-.4-2.9-.8-1.7c-1.2,3.8-2.7,17.5,4.2,36.9,0,0,4.7,14.4,10.4,14.5,0,0-1.6-1.2-7.7-13.4s-6.5-33.3-6.5-33.3l.4-3.1h0Z"/>
    <path class="st19" d="M214.8,60.2s5.4,2.6,6.6,13.9c1.2,11.2,3.6,26.3,3.6,26.3,0,0,1.3,8,5.2,15.5s8.9,14.5,10,22c1.1,7.6,0,32.4,0,32.4,0,0-.5,18.3.5,24.1l3.5,24.8s-.4,18.1-.9,18.7-2,.5-2,.5c0,0,1.6-18.6-.9-30.4s-2.8-30.8-1.7-36.6c1-5.8-.4-27.4-.4-27.4,0,0,.8-6.1-5.1-18.1-5.9-12-9.7-20.1-10.2-26.2-.5-6.2-3.3-28.1-3.3-28.1,0,0,0-6-4.9-11.2"/>
    <path class="st2" d="M246,88.7s-6.9,2.5-6,12.6c0,0,0,2.6,2,6s-.4,5.1-.4,5.1c0,0-1.3.7-3.5-.8,0,0,.8,2.7,4.1,2.9s3.3-3,3.3-3c0,0,.1-1.6-2.9-7.5s3.5-15.3,3.5-15.3h-.1Z"/>
    <path class="st19" d="M229.9,244.3s0-5.5,2.6-5.6c4.2-.1,8.7-.4,8.7-.4l2-.5h0c0,.8-.5,1.5-1.3,1.7-2.3.6-7,2-8.4,4.8s-3.7,2.3-3.7,2.3v-2.2h0Z"/>
    <path d="M378.3,246.5c4.7,0,8.4,3.8,8.4,8.4v60.1H111.8v-61.4c0-3.9,3.2-7.1,7.1-7.1"/>
    <path class="st19" d="M251.6,88.2s5.5.8,6.8,7.6c.6,3.2,0,8.1-.7,6.6s.7-3.4-1.5-8.6c-.5-1.1-1.1-2.1-2-3s-1.4-1.5-2.6-2.6h0Z"/>
    <rect class="st18" x="184.1" y="262" width="9.9" height="37.9"/>
    <rect class="st18" x="201.8" y="262" width="10.5" height="37.9"/>
    <rect class="st18" x="201.8" y="291.1" width="29.3" height="8.8"/>
    <rect class="st18" x="276.9" y="262" width="9.6" height="37.1"/>
    <rect class="st18" x="276.9" y="290.6" width="29.1" height="8.5"/>
    <rect class="st18" x="276.9" y="277.1" width="27.5" height="7.3"/>
    <rect class="st18" x="276.9" y="262" width="29.1" height="9.1"/>
    <polygon class="st18" points="231.2 262 243.1 262 251.8 285.7 259.8 262 271.5 262 257 299.9 246.2 299.9 231.2 262"/>
    <polygon class="st18" points="323.1 299.1 312.6 299.1 312.6 262 319.4 262 323.1 262 323.1 299.1"/>
    <path class="st18" d="M338.3,285.7c7.4-2.9,8-9.6,8-9.6.8-13.5-11.6-14.1-11.6-14.1h-14.5l.4,25.7h7.2c0-.1,7.5,11.4,7.5,11.4h12.2l-9.2-13.4ZM330.5,278.9h-7.4v-8.8s3.6-.1,7.7,0,4.4,3.8,4.4,3.8c.6,5.5-4.7,5-4.7,5Z"/>
    <g>
      <path class="st18" d="M162.3,300.3c-2.9,0-5.7-.4-8.4-1.2-2.7-.8-4.9-1.8-6.5-3.1l2.9-6.4c1.5,1.1,3.4,2,5.5,2.7,2.2.7,4.3,1.1,6.5,1.1s3-.2,4-.5,1.8-.8,2.3-1.4.7-1.2.7-2-.4-1.7-1.1-2.3-1.8-1-3.1-1.4-2.7-.7-4.1-1c-1.5-.3-3-.7-4.5-1.2s-2.9-1.1-4.2-1.9-2.3-1.8-3-3.1c-.7-1.3-1.1-2.9-1.1-4.8s.6-4,1.7-5.7c1.1-1.7,2.8-3.1,5.1-4.1s5.1-1.5,8.6-1.5,4.6.3,6.8.8c2.2.6,4.2,1.4,5.9,2.4l-2.7,6.4c-1.6-.9-3.3-1.6-5.1-2.1-1.7-.5-3.4-.7-5-.7s-3,.2-4,.5c-1,.4-1.7.9-2.2,1.5s-.7,1.3-.7,2.1.4,1.8,1.1,2.3c.8.6,1.8,1.1,3,1.4,1.3.3,2.6.7,4.2,1,1.5.3,3,.7,4.5,1.2s2.9,1.1,4.1,1.9c1.3.7,2.3,1.8,3.1,3,.8,1.3,1.2,2.8,1.2,4.7s-.6,3.9-1.7,5.6c-1.1,1.7-2.8,3.1-5.1,4.1s-5.2,1.6-8.6,1.6h0Z"/>
      <path class="st18" d="M162.5,300.8h-.2c-2.9,0-5.8-.4-8.5-1.2-2.9-.9-5.1-1.9-6.7-3.2l-.3-.2,3.3-7.3.5.4c1.4,1,3.2,1.9,5.4,2.6,2.3.7,4.3,1.1,6.3,1.1s2.9-.2,3.9-.5c.9-.3,1.6-.7,2.1-1.2.4-.5.6-1,.6-1.7s-.4-1.4-.9-1.9c-.6-.5-1.6-.9-2.9-1.3-1.3-.4-2.7-.7-4.1-1-1.5-.3-3-.7-4.6-1.2-1.7-.6-3.1-1.2-4.3-1.9-1.4-.9-2.5-1.9-3.2-3.3-.8-1.4-1.2-3.1-1.2-5s.6-4.2,1.8-6c1.2-1.8,3-3.3,5.3-4.3,2.4-1,5.3-1.5,8.8-1.5s4.6.3,6.5.7h.4c2.3.7,4.3,1.5,6,2.5l.4.2-3.1,7.3-.5-.3c-1.6-.9-3.2-1.6-5-2.1-1.5-.5-3.2-.7-4.9-.7s-2.8.2-3.9.5c-.8.3-1.5.8-2,1.3-.4.5-.6,1-.6,1.8s.3,1.5.9,1.9c.8.6,1.8,1.1,2.8,1.3.5.1.9.2,1.4.4.9.2,1.7.5,2.8.6,1.5.3,3.1.7,4.6,1.2,1.7.6,3.1,1.2,4.2,2,1.2.6,2.3,1.7,3.2,3.1.9,1.4,1.3,3,1.3,5s-.6,4.1-1.8,5.9c-1.2,1.8-3,3.3-5.3,4.3-2.4,1.1-5.4,1.6-8.6,1.6h-.1ZM148,295.8c1.5,1.1,3.4,2,6,2.8,2.6.8,5.3,1.2,8.1,1.2h0c0,0,.2,0,.2,0,3.1,0,6.1-.5,8.4-1.6,2.2-.9,3.8-2.3,4.9-3.9,1-1.6,1.6-3.5,1.6-5.3s-.4-3.2-1.1-4.4c-.9-1.3-1.8-2.2-2.9-2.8-1.1-.7-2.4-1.3-4-1.9-1.5-.5-3-.9-4.4-1.2-1-.2-1.9-.4-2.8-.7-.5-.1-.9-.2-1.4-.3-1.2-.3-2.3-.8-3.2-1.5-.9-.6-1.3-1.8-1.3-2.7s.3-1.8.8-2.4c.6-.7,1.4-1.2,2.4-1.6,1.2-.4,2.6-.5,4.2-.5s3.5.2,5.1.7c1.6.5,3.2,1.1,4.7,1.9l2.3-5.5c-1.5-.9-3.4-1.6-5.4-2.1h-.3c-1.9-.5-3.1-.8-6.3-.8s-6.1.5-8.4,1.5c-2.2.9-3.8,2.3-4.9,3.9-1,1.6-1.6,3.6-1.6,5.4s.4,3.3,1,4.6c.6,1.2,1.6,2.1,2.8,2.9,1.2.7,2.5,1.3,4.1,1.9,1.5.5,3,.9,4.4,1.2,1.4.3,2.8.6,4.1,1,1.5.5,2.5.9,3.3,1.5.8.7,1.3,1.7,1.3,2.7s-.3,1.6-.8,2.3c-.6.7-1.5,1.2-2.5,1.6-1.1.3-1.9.5-4.1.5s-4.2-.4-6.7-1.1c-2-.7-3.7-1.5-5.1-2.4l-2.5,5.5Z"/>
    </g>
    <path d="M341.3,364.7c1.2,0,2.4.2,3.7.6,1.3.4,2.4,1,3.5,1.8s1.9,1.8,2.6,2.9c.6,1.1,1,2.5,1,4s-.4,2.6-1.1,3.8c-.7,1.2-1.6,2.3-2.7,3.2-1.1.9-2.2,1.6-3.4,2,.9,1.6,1.8,3,2.7,4.4.9,1.3,1.8,2.7,2.7,4,.9,1.3,2,2.7,3.1,4.3.8,1,1.6,1.8,2.4,2.3.9.5,2.1.8,3.5.9.1.1.2.4.1.8s-.1.6-.2.7c-1.8,0-3.2,0-4.4-.2-1.2-.1-2-.3-2.5-.5-.4-.1-.9-.4-1.5-.7-.6-.3-1.3-.9-1.9-1.7-.2-.3-.6-.9-1.2-1.7-.6-.9-1.3-1.9-2.1-3.1-.8-1.2-1.6-2.5-2.5-3.9s-1.8-2.8-2.6-4.1c-.3-.4-.8-.7-1.6-.7h-2.8v12.7c0,.6.1,1,.2,1.4,0,.2.4.4.9.5s1,.3,1.6.3h1.2c.1.1.2.4.2.8s0,.6-.2.8c-1.1,0-2.1-.1-3.1-.2-1,0-2-.1-3-.1s-2,0-3.1.1c-1,0-2.1,0-3.2.2-.1-.1-.2-.4-.2-.8s.1-.6.2-.8h1.2c.6,0,1.1-.2,1.6-.3.5-.1.8-.3.9-.5.1-.4.2-1,.2-1.7v-25.4c0-.8,0-1.6-.1-2.3,0-.7,0-1.3-.2-1.8,0-.2-.3-.4-.9-.5-.5-.1-1-.2-1.6-.2s-.9-.1-1.1-.1c-.1-.1-.2-.4-.2-.8s0-.6.2-.8c1.1,0,2.1,0,3.1.2h10.6v.2h0ZM347,374.6c0-2.4-.6-4.3-1.9-5.8-1.2-1.5-3.3-2.3-6.2-2.3s-.8,0-1.5,0-1,.2-1.1.4c-.1.3-.2.9-.3,1.7v13.7h2.9c1.4,0,2.7-.3,3.9-.9,1.3-.7,2.3-1.6,3.1-2.7.8-1.2,1.2-2.6,1.2-4.2h-.1Z"/>
    <path d="M302.9,364.8c2.5,0,5.2,0,8.2-.2,3-.1,5.9-.2,8.7-.2.2,1.4.4,2.6.7,3.8.3,1.1.6,2.3.8,3.5-.2.2-.5.3-.9.3s-.7-.1-.8-.4c-.6-2.2-1.4-3.6-2.4-4.2s-2.3-.9-3.7-.9h-5.7c-.6,0-1.1,0-1.6.1-.5,0-.8.2-.9.4-.1.4-.2.9-.2,1.4v12.5c0,.1.2.2.7.3h4.4c1.3,0,2.2,0,2.9-.1.7,0,1.2-.2,1.6-.5.3-.3.6-.6.8-1.2.2-.5.4-1.2.6-2.1,0-.3.3-.4.8-.4s.7,0,.9.3v10.2c-.1.1-.4.2-.9.2s-.7-.1-.8-.4c-.3-1-.5-1.8-.6-2.2-.1-.5-.3-.8-.4-.9-.1-.2-.3-.3-.4-.4-.2-.1-.6-.2-1.2-.3-.6,0-1.4-.1-2.2-.1h-3.8c-.6,0-1.1,0-1.5.1-.4,0-.6.1-.6.3v12.6c0,.8.1,1.3.3,1.4.4.3.8.4,1.3.5h5c1.3,0,2.5-.1,3.7-.4s2.2-.6,2.9-1.1c.8-.5,1.5-1.3,1.9-2.2.5-1,.9-2.1,1.3-3.2,0-.2.3-.3.8-.3s1.1.1,1.3.3c-.5,1.5-1.1,3-1.7,4.7s-1,3.1-1.1,4.3c-2.8,0-5.7,0-8.5-.1-2.8,0-6-.1-9.5-.1s-2.3,0-3.3,0-2,.1-3,.1c-.1-.1-.2-.4-.2-.8s.1-.6.2-.8h1.2c.6,0,1.1-.2,1.6-.3.5-.1.8-.3.9-.5.1-.4.2-1,.2-1.7v-27.7c0-.7,0-1.3-.2-1.8,0-.2-.3-.4-.9-.5-.5-.1-1-.2-1.6-.2s-1-.1-1.2-.1c-.1-.1-.2-.4-.2-.8s0-.6.2-.8c1.1,0,2.1,0,3.2.2h3.1l-.2.4h0Z"/>
    <path d="M260.9,364.7h4c.5.9,1.4,2.1,2.6,3.6,1.2,1.6,2.6,3.3,4.2,5.3s3.2,4,4.9,6.1c1.7,2.1,3.3,4.2,4.9,6.3,1.6,2,3,3.9,4.1,5.5v-22.8c0-.6-.2-1.1-.5-1.5-.1-.2-.4-.4-1-.5-.5-.2-1.1-.3-1.7-.4s-1-.2-1.3-.2c-.1-.2-.2-.4-.2-.8s0-.6.1-.8c1,0,2,0,2.9.2h5.1c.5,0,1.1,0,1.6-.1.6,0,1.3,0,2.1-.1,0,.1.1.4.2.7,0,.3,0,.6-.2.9-.2,0-.6,0-1.3.1-.6,0-1.2.2-1.8.4-.6.1-.9.3-1.1.6-.3.4-.4.9-.4,1.4v29.3c0,.7,0,1.5.1,2.5,0,.1-.1.2-.3.3h-.4c-.1,0-.4,0-.8-.3-.3-.2-.7-.5-1.1-1l-23-29.8v26.9c0,.5.2,1,.5,1.4.1.2.4.4.9.6.5.1,1.1.3,1.7.4s1.1.2,1.4.2c.1.2.2.4.2.8s0,.6-.1.8c-1,0-2-.1-2.9-.2-.9,0-1.9-.1-3.1-.1h-2.1c-.5,0-1.1,0-1.6.1-.5,0-1.2,0-2,.1,0-.1-.1-.4-.2-.7,0-.3,0-.6.2-.9.2,0,.6,0,1.2-.1s1.2-.2,1.8-.4c.6-.2,1-.4,1.1-.6.3-.4.4-.9.4-1.3s.1-1.3.1-2.3v-23.5c0-1,0-1.8-.1-2.3,0-.5-.2-1-.4-1.4-.1-.2-.5-.4-1.1-.6s-1.2-.3-1.8-.4c-.6,0-1-.1-1.2-.1-.1-.3-.2-.6-.2-.9s0-.5.2-.7c1.2,0,2.2,0,3,.2h2.4,0Z"/>
    <path d="M220,364.7h4c.5.9,1.4,2.1,2.6,3.6,1.2,1.6,2.6,3.3,4.2,5.3,1.6,2,3.2,4,4.9,6.1s3.3,4.2,4.9,6.3c1.6,2,3,3.9,4.1,5.5v-22.8c0-.6-.2-1.1-.5-1.5-.1-.2-.4-.4-1-.5-.5-.2-1.1-.3-1.7-.4-.6-.1-1-.2-1.3-.2-.1-.2-.2-.4-.2-.8s0-.6.1-.8c1,0,2,0,2.9.2h5.1c.5,0,1.1,0,1.6-.1.6,0,1.3,0,2.1-.1,0,.1.1.4.2.7,0,.3,0,.6-.2.9-.2,0-.6,0-1.3.1-.6,0-1.2.2-1.8.4-.6.1-.9.3-1.1.6-.3.4-.4.9-.4,1.4v29.3c0,.7,0,1.5.1,2.5,0,.1-.1.2-.3.3h-.4c-.1,0-.4,0-.8-.3-.3-.2-.7-.5-1.1-1l-23-29.8v26.9c0,.5.2,1,.5,1.4.1.2.4.4.9.6.5.1,1.1.3,1.7.4.6.1,1.1.2,1.3.2.1.2.2.4.2.8s0,.6-.1.8c-1,0-2-.1-2.9-.2-.9,0-1.9-.1-3.1-.1h-2.1c-.5,0-1.1,0-1.6.1-.5,0-1.2,0-2,.1,0-.1-.1-.4-.2-.7,0-.3,0-.6.2-.9.2,0,.6,0,1.2-.1.6-.1,1.2-.2,1.8-.4.6-.2,1-.4,1.1-.6.3-.4.4-.9.4-1.3s.1-1.3.1-2.3v-23.5c0-1,0-1.8-.1-2.3,0-.5-.2-1-.4-1.4s-.5-.4-1.1-.6-1.2-.3-1.8-.4c-.6,0-1-.1-1.2-.1-.1-.3-.2-.6-.2-.9s0-.5.2-.7c1.2,0,2.2,0,3,.2h2.5Z"/>
    <path d="M204,364.8h3c1,0,2.1-.1,3.1-.2.1.1.2.4.2.8s0,.6-.2.8c-.2,0-.6,0-1.2.1-.6,0-1.1.1-1.6.2s-.8.3-.9.5c-.1.4-.2.9-.2,1.4v28.3c0,.6.1,1,.2,1.4,0,.2.4.4.9.5s1,.3,1.6.3h1.2c.1.1.2.4.2.8s0,.6-.2.8c-1.1,0-2.1-.1-3.1-.2-1,0-2-.1-3-.1s-2,0-3.1.1c-1,0-2.1,0-3.2.2-.1-.1-.2-.4-.2-.8s.1-.6.2-.8h1.2c.6,0,1.1-.2,1.6-.3.5-.1.8-.3.9-.5.1-.4.2-1,.2-1.7v-27.7c0-.7,0-1.3-.2-1.8,0-.2-.3-.4-.9-.5-.5-.1-1-.2-1.6-.2s-1-.1-1.2-.1c-.1-.1-.2-.4-.2-.8s0-.6.2-.8c1.1,0,2.1,0,3.2.2h3.1Z"/>
    <path d="M154.2,364.8h2.9c.8,0,1.7-.1,2.8-.2v.9c0,.4,0,.6-.2.7-.1,0-.5,0-1,.2-.5,0-1,.2-1.5.5-.5.2-.7.6-.7,1.1s0,.5.2,1.2c.1.6.3,1.4.6,2.4.4,1.5.9,3.4,1.6,5.7.7,2.3,1.4,4.8,2.2,7.4s1.5,5.2,2.3,7.8c.6-2.1,1.3-4.4,2.1-6.8s1.5-4.9,2.3-7.3,1.5-4.7,2.1-6.8c.6-2.1,1.2-3.8,1.6-5.1.2-.5.5-.9.9-1.3.4-.3.7-.5,1-.5s.3.3.6.8c0,.2.3.9.6,2.2.4,1.2.9,2.8,1.5,4.7.6,1.9,1.2,4,1.9,6.3s1.5,4.6,2.2,6.9c.8,2.4,1.5,4.6,2.2,6.8.6-2.1,1.1-3.9,1.6-5.6s.9-3.2,1.3-4.7c.4-1.5.9-3.1,1.3-4.7.4-1.6.9-3.3,1.3-5.3.2-.6.3-1.3.4-2s.2-1.3.2-1.8-.3-1-.8-1.3-1-.5-1.6-.6-1-.2-1.2-.2-.2-.3-.2-.7,0-.7.2-.8c1,0,1.9,0,2.9.2h4.8c.5,0,.9,0,1.3-.1.5,0,1,0,1.7-.1v.9c0,.4,0,.7-.2.7s-.7.1-1.5.3c-.7.2-1.3.6-1.9,1.1-.4.3-.7.8-1,1.5-.3.6-.6,1.5-.9,2.6-1,3.4-1.9,6.5-2.6,9.4-.8,2.9-1.6,5.7-2.4,8.5-.8,2.8-1.6,5.8-2.5,9.1-.1.5-.4.9-.9,1.3-.4.4-.8.6-1.1.6s-.2-.1-.3-.3c-.1-.3-.2-.4-.2-.6-.4-1.3-.9-2.8-1.5-4.7-.6-1.8-1.2-3.7-1.8-5.7s-1.3-4-1.9-5.9c-.6-1.9-1.2-3.7-1.7-5.2-.5-1.6-.9-2.8-1.2-3.8s-.4-1.4-.4-1.4c-.8,2.5-1.5,4.8-2.1,6.9s-1.3,4.2-1.9,6.2c-.6,2-1.2,4-1.9,6-.6,2-1.3,4.3-2,6.7-.1.5-.4.9-.9,1.3-.4.4-.8.6-1.2.6s-.2-.1-.3-.3c0-.3-.1-.4-.2-.6-1-3.4-2-6.5-2.9-9.4s-1.7-5.9-2.6-8.9c-.9-3-1.9-6.3-3-9.8-.3-1.1-.6-1.9-.8-2.6s-.6-1.3-1.1-1.8-.9-.6-1.6-.8c-.6-.2-1.1-.3-1.5-.3s0-.2,0-.7v-.8c1.2,0,2.3,0,3.2.2h3.2l.2-.2h0Z"/>
    <path d="M209.8,356.1h-12.9v-1.5h1.6c1.9,0,2.9-1.1,2.9-3.3v-23.8c0-1.6-.5-2.4-1.5-2.4s-1.4.3-2.3.8l-.5-1.3,7.4-3.7h1v30.4c0,2.2.9,3.3,2.8,3.3h1.4v1.5h.1Z"/>
    <path d="M191,349.6l-1.9,6.5h-19.6v-1l8.8-9.7c4.5-5,6.8-9.3,6.8-12.9s-.6-4-1.9-5.6c-1.2-1.6-2.8-2.4-4.7-2.4s-2.9.5-4.1,1.6c-1.1,1.1-1.9,2.5-2.2,4.3h-1.3c.3-2.9,1.3-5.2,3-7s3.8-2.6,6.4-2.6,4.5.9,6.2,2.7c1.7,1.8,2.6,4.2,2.6,6.9s-2.1,8-6.2,12.4l-8.6,9.1h12.9c1.4,0,2.3-.8,2.7-2.3h1.2,0Z"/>
    <path d="M163.5,338.1c0,5.8-1.2,10.3-3.5,13.6-2,2.9-4.5,4.3-7.4,4.3s-5.5-1.5-7.6-4.6c-2.3-3.3-3.4-7.7-3.4-13.2s1.2-10.6,3.6-13.9c2-2.8,4.5-4.2,7.3-4.2s5,1.3,7.1,3.8c2.5,3.2,3.8,7.9,3.8,14.1h0ZM158.9,337.1c0-5.3-.7-9.3-2-12-1.1-2.1-2.4-3.2-4.1-3.2s-3.8,1.6-5,4.8c-1,2.9-1.5,6.9-1.5,12.1s.4,6.5,1.1,9.3c1.1,4.1,2.8,6.1,5.1,6.1,4.3,0,6.5-5.7,6.5-17.2h-.1Z"/>
    <path d="M135.7,349.6l-1.9,6.5h-19.6v-1l8.8-9.7c4.5-5,6.8-9.3,6.8-12.9s-.6-4-1.9-5.6c-1.2-1.6-2.8-2.4-4.7-2.4s-2.9.5-4.1,1.6c-1.1,1.1-1.9,2.5-2.2,4.3h-1.3c.3-2.9,1.3-5.2,3-7s3.8-2.6,6.4-2.6,4.5.9,6.2,2.7c1.7,1.8,2.6,4.2,2.6,6.9s-2.1,8-6.2,12.4l-8.6,9.1h12.9c1.4,0,2.3-.8,2.7-2.3h1.2-.1Z"/>
    <path d="M367.1,321.4c2.3,0,4.9,0,7.7-.2,2.8-.1,5.6-.2,8.3-.2.2,1.3.4,2.5.7,3.6.3,1.1.5,2.2.8,3.4-.2.2-.5.3-.9.3s-.7-.1-.7-.4c-.5-2.1-1.3-3.4-2.3-4s-2.1-.9-3.5-.9h-5.4c-.5,0-1.1,0-1.5.1-.5,0-.7.2-.8.4-.1.4-.2.8-.2,1.4v12c0,.1.2.2.7.3h4.1c1.2,0,2.1,0,2.8-.1.7,0,1.2-.2,1.5-.5.3-.2.5-.6.7-1.1s.4-1.2.6-2c0-.2.3-.4.7-.4s.7,0,.9.3v9.8c-.1.1-.4.2-.8.2s-.7-.1-.8-.4c-.2-1-.4-1.7-.6-2.1-.1-.5-.3-.8-.4-.9-.1-.2-.2-.3-.4-.4-.2-.1-.6-.2-1.2-.3-.6,0-1.3-.1-2-.1h-3.5c-.5,0-1,0-1.4.1-.4,0-.6.1-.6.3v12.1c0,.8.1,1.2.3,1.3.3.2.7.4,1.2.5h4.7c1.2,0,2.4-.1,3.5-.4,1.2-.2,2.1-.6,2.8-1.1.8-.5,1.4-1.2,1.8-2.1.4-1,.9-2,1.3-3.1,0-.2.3-.3.7-.3.6,0,1,.1,1.2.3-.5,1.4-1,2.9-1.6,4.5-.5,1.6-.9,3-1.1,4.1-2.7,0-5.3,0-8-.1-2.6,0-5.6-.1-9-.1s-2.2,0-3.1,0-1.9.1-2.9.1c-.1-.1-.2-.4-.2-.7s.1-.6.2-.7h1.1c.5,0,1.1-.2,1.5-.3.5-.1.8-.3.8-.5.1-.4.2-1,.2-1.6v-26.6c0-.7,0-1.3-.2-1.7,0-.2-.3-.4-.8-.5s-1-.2-1.5-.2-.9-.1-1.1-.1c-.1-.1-.2-.4-.2-.7s0-.6.2-.7c1,0,2,0,3,.2h2.9l-.2.2h0Z"/>
    <path d="M350.9,321.4h2.9c1,0,1.9-.1,3-.2.1.1.2.4.2.7s0,.6-.2.7c-.2,0-.6,0-1.1.1-.5,0-1.1.1-1.5.2-.5.1-.7.3-.8.5-.1.4-.2.8-.2,1.4v27.2c0,.5.1,1,.2,1.3,0,.2.3.3.8.5.5.1,1,.2,1.5.3h1.1c.1.1.2.4.2.7s0,.6-.2.7c-1,0-2-.1-3-.2-.9,0-1.9-.1-2.9-.1s-1.9,0-2.9.1c-1,0-2,0-3,.2-.1-.1-.2-.4-.2-.7s.1-.6.2-.7h1.1c.5,0,1.1-.2,1.5-.3.5-.1.8-.3.8-.5.1-.4.2-1,.2-1.6v-26.6c0-.7,0-1.3-.2-1.7,0-.2-.3-.4-.8-.5s-1-.2-1.5-.2-.9-.1-1.1-.1c-.1-.1-.2-.4-.2-.7s0-.6.2-.7c1,0,2,0,3,.2h2.9Z"/>
    <path d="M316.5,321.4h3.2c1,0,2-.1,3-.2v.9c0,.4,0,.6-.2.6s-.5,0-1,.2c-.5,0-.9.2-1.4.5-.4.2-.7.6-.7,1.1s.3,1.7.9,3.5c.3.8.6,1.8,1.1,3.1.5,1.3,1,2.7,1.5,4.3.5,1.6,1.1,3.1,1.6,4.7.6,1.6,1.1,3,1.5,4.3.5,1.3.8,2.4,1.1,3.2.3.8.5,1.3.5,1.3,0-.1.3-.7.7-1.6.4-1,.8-2.2,1.4-3.6.6-1.5,1.2-3,1.9-4.8.7-1.8,1.4-3.6,2-5.4.7-1.8,1.4-3.5,2-5.1.2-.6.4-1.2.6-1.9.2-.7.3-1.2.3-1.7s-.2-1-.7-1.3c-.4-.3-.9-.5-1.5-.6-.5-.1-.9-.2-1.1-.2s-.2-.3-.2-.7,0-.7.2-.9c.9,0,1.8,0,2.6.2h4.4c.5,0,.9,0,1.4-.1.4,0,1,0,1.6-.1v.9c0,.4,0,.6-.2.6s-.7,0-1.4.3c-.7.2-1.3.5-1.7,1.1-.3.4-.7,1.1-1.2,2.2s-.9,2.1-1.3,3.1c-.9,2.4-1.8,4.6-2.5,6.5-.7,2-1.5,3.9-2.2,5.7-.7,1.8-1.5,3.8-2.2,5.7-.8,2-1.7,4.2-2.6,6.6-.3.7-.6,1.1-.9,1.4-.3.2-.6.4-1,.4s-.2-.1-.3-.3c0-.2-.1-.4-.2-.5-1.1-3.1-2.2-6-3.2-8.6-1-2.7-1.9-5.4-3-8.2-1-2.8-2.1-5.8-3.4-9.1-.4-1-.7-1.9-1.1-2.8-.3-.8-.7-1.6-1.2-2.2-.2-.3-.5-.5-.9-.7s-.9-.3-1.3-.4c-.4,0-.7-.1-.9-.1s0-.2,0-.7v-.8c1.2,0,2.1,0,2.9.2h3.1Z"/>
    <path d="M290.2,321.4c2.3,0,4.9,0,7.7-.2,2.8-.1,5.6-.2,8.3-.2.2,1.3.4,2.5.7,3.6.3,1.1.5,2.2.8,3.4-.2.2-.5.3-.9.3s-.7-.1-.7-.4c-.5-2.1-1.3-3.4-2.3-4s-2.1-.9-3.5-.9h-5.4c-.5,0-1.1,0-1.5.1-.5,0-.7.2-.8.4-.1.4-.2.8-.2,1.4v12c0,.1.2.2.7.3h4.1c1.2,0,2.1,0,2.8-.1.7,0,1.2-.2,1.5-.5.3-.2.5-.6.7-1.1s.4-1.2.6-2c0-.2.3-.4.7-.4s.7,0,.9.3v9.8c-.1.1-.4.2-.8.2s-.7-.1-.8-.4c-.2-1-.4-1.7-.6-2.1-.1-.5-.3-.8-.4-.9-.1-.2-.2-.3-.4-.4-.2-.1-.6-.2-1.2-.3-.6,0-1.3-.1-2-.1h-3.5c-.5,0-1,0-1.4.1-.4,0-.6.1-.6.3v12.1c0,.8.1,1.2.3,1.3.3.2.7.4,1.2.5h4.7c1.2,0,2.4-.1,3.5-.4,1.2-.2,2.1-.6,2.8-1.1.8-.5,1.4-1.2,1.8-2.1.4-1,.9-2,1.3-3.1,0-.2.3-.3.7-.3.6,0,1,.1,1.2.3-.5,1.4-1,2.9-1.6,4.5-.5,1.6-.9,3-1.1,4.1-2.7,0-5.3,0-8-.1-2.6,0-5.6-.1-9-.1s-2.2,0-3.1,0-1.9.1-2.9.1c-.1-.1-.2-.4-.2-.7s.1-.6.2-.7h1.1c.5,0,1.1-.2,1.5-.3.5-.1.8-.3.8-.5.1-.4.2-1,.2-1.6v-26.6c0-.7,0-1.3-.2-1.7,0-.2-.3-.4-.8-.5s-1-.2-1.5-.2-.9-.1-1.1-.1c-.1-.1-.2-.4-.2-.7s0-.6.2-.7c1,0,2,0,3,.2h2.9l-.2.2h0Z"/>
    <path d="M276.2,321.2c.4,0,.9,0,1.6-.3.6-.2,1.1-.3,1.4-.5.3-.1.5-.2.6-.2s.2,0,.4.1c.2,1.6.4,3.1.6,4.6s.5,2.9.8,4.3c0,0-.2.2-.4.3-.2.1-.4.1-.6.1-.4,0-.6,0-.7-.3-.3-1.8-.9-3.3-1.7-4.5-.8-1.2-1.8-1.8-3.1-1.8h-6.3v28.7c0,.7.1,1.2.3,1.6,0,.2.3.3.8.5.5.1,1,.2,1.5.3h1.1c.1.1.2.4.2.7s0,.6-.2.7c-1,0-2-.1-3-.2-.9,0-1.9-.1-2.9-.1s-1.9,0-2.9.1c-1,0-2,0-3,.2-.1-.1-.2-.4-.2-.7s.1-.6.2-.7h1.1c.5,0,1.1-.2,1.5-.3.5-.1.8-.3.8-.5.1-.4.2-1,.2-1.6v-28.7h-6.4c-1.3,0-2.3.6-3.1,1.8-.8,1.2-1.4,2.7-1.7,4.5-.1.2-.3.3-.7.3s-.4,0-.6-.1c-.1-.1-.2-.2-.3-.3.3-1.4.5-2.8.7-4.3s.4-3,.6-4.6h.6c.2,0,.4,0,.6.2.3.1.7.3,1.3.5.6.1,1.1.2,1.5.2h19.5,0Z"/>
    <path d="M239,321c1.1,0,1.9,0,2.6.2.7.1,1.4.3,2.1.5.7.2,1.7.5,2.8.7.2,1.3.4,2.7.5,4.2.1,1.4.2,2.5.3,3.2,0,.2,0,.3-.4.4-.3,0-.5.1-.7.1s-.4,0-.6-.2c0-.6-.3-1.4-.6-2.2-.3-.9-.8-1.7-1.4-2.4-.6-.8-1.3-1.4-2.1-1.9s-1.7-.8-2.8-.8-2.4.3-3.2.9-1.3,1.3-1.7,2.2c-.3.9-.5,1.8-.5,2.6,0,1.4.3,2.5,1,3.5.7.9,1.6,1.7,2.6,2.4,1.1.7,2.2,1.4,3.3,2.2.8.5,1.7,1.1,2.7,1.8,1,.6,1.9,1.3,2.9,2.1.9.8,1.7,1.7,2.2,2.7.6,1,.9,2.1.9,3.4,0,1.9-.5,3.5-1.5,5-1,1.4-2.3,2.5-3.9,3.3-1.6.8-3.2,1.2-5,1.2s-3.3-.2-4.8-.6-2.9-.7-4.1-1c-.2-1-.4-2.1-.6-3.3-.1-1.2-.3-2.2-.4-3.1,0-.9-.1-1.4-.1-1.6.2-.2.4-.3.6-.4.2-.1.5-.2.7-.2s.5.2.6.5c.1.5.3,1.2.6,2.1s.8,1.7,1.4,2.7c.6.9,1.5,1.7,2.4,2.3,1,.6,2.3.9,3.8.9s3-.5,4.2-1.6,1.8-2.7,1.8-4.7-.3-2.6-1-3.4c-.6-.8-1.4-1.5-2.4-2.1s-2.1-1.2-3.2-1.9c-1.3-.8-2.6-1.6-3.9-2.6-1.3-1-2.4-2.1-3.4-3.3-.9-1.3-1.4-2.8-1.4-4.5s.5-3.4,1.4-4.8c1-1.4,2.2-2.4,3.7-3.2s3.1-1.1,4.7-1.1v-.2h-.1Z"/>
    <path d="M388.5,326.8c-2.2,0-4-1.8-4-4s1.8-4,4-4,4,1.8,4,4-1.8,4-4,4ZM388.5,319.3c-1.9,0-3.5,1.5-3.5,3.5s1.5,3.5,3.5,3.5,3.5-1.5,3.5-3.5-1.5-3.5-3.5-3.5Z"/>
    <path d="M386.7,324.9v-4h1.6c.4,0,.7,0,.9.2.3.1.4.3.6.5.1.2.2.5.2.8s0,.5-.2.8c-.1.2-.3.4-.6.5-.3.1-.5.2-.9.2h-1.2l.3-.3v1.5h-.7v-.2h0ZM389.3,324.9l-1-1.4h.8l1,1.4h-.8ZM387.5,323.5l-.3-.4h1.2c.3,0,.6,0,.7-.2.2-.1.3-.3.3-.6s0-.4-.3-.6c-.2-.1-.4-.2-.7-.2h-1.2l.3-.4v2.3h0Z"/>
  </g>
  <path class="st19" d="M235.7,238.7s6,0,5.9-6.9l1.2,3.7-.2,2.6-2.1.9-4.9-.3h.1Z"/>
  <path class="st12" d="M250.3,94.8c0,1.9-1.6,3.5-3.5,3.5s-3.5-1.6-3.5-3.5.3-1.5.7-2.1,1.6-1.3,2.7-1.3c1.9,0,3.5,1.6,3.5,3.5h.1Z"/>
  <path class="st14" d="M248.4,93.6h-2.3,2.3Z"/>
  <path class="st12" d="M247.9,88.1s-3.4,0-4.4,5.6,5.4,1.8,5.4,1.8h1.3s0-6.8,3.6-6.4c0,0-1.2-1.3-5.9-1h0Z"/>
  <circle class="st24" cx="246.8" cy="94.8" r="2.2"/>
</svg>