<svg width="124" height="128" viewBox="0 0 124 128" fill="none" xmlns="http://www.w3.org/2000/svg">
<g clip-path="url(#clip0_271_492)">
<path d="M58.273 23.3076C54.3359 24.038 50.7038 25.9194 47.8361 28.7141C44.9683 31.5088 42.9936 35.0911 42.1618 39.008C41.33 42.9249 41.6785 47.0005 43.163 50.7195C44.6476 54.4384 47.2016 57.6335 50.5021 59.9009C53.8026 62.1683 57.7013 63.406 61.7053 63.4575C65.7092 63.509 69.6385 62.3721 72.9963 60.1904C76.3541 58.0088 78.9895 54.8804 80.5692 51.2009C82.149 47.5215 82.6022 43.4561 81.8715 39.5191C80.8911 34.2404 77.8544 29.5672 73.429 26.5271C69.0037 23.487 63.5521 22.3289 58.273 23.3076Z" fill="#020000"/>
<path d="M57.3203 17.6273C52.2594 18.5668 47.5908 20.9859 43.9046 24.5786C40.2184 28.1713 37.6803 32.7763 36.6111 37.8114C35.542 42.8465 35.9898 48.0856 37.8979 52.8662C39.806 57.6469 43.0888 61.7544 47.3312 64.6694C51.5736 67.5844 56.5851 69.1761 61.732 69.2432C66.879 69.3102 71.9302 67.8497 76.2471 65.0461C80.564 62.2426 83.9527 58.222 85.9847 53.4927C88.0168 48.7635 88.6009 43.5378 87.6633 38.4766C87.0405 35.115 85.7616 31.909 83.8995 29.0417C82.0374 26.1745 79.6287 23.7022 76.811 21.766C73.9932 19.8299 70.8216 18.4679 67.4774 17.7577C64.1331 17.0476 60.6817 17.0033 57.3203 17.6273ZM66.3025 66.2231C61.7474 67.0684 57.0439 66.544 52.7868 64.7164C48.5297 62.8888 44.9101 59.84 42.3855 55.9553C39.861 52.0707 38.545 47.5248 38.6039 42.8923C38.6627 38.2598 40.0938 33.7488 42.7162 29.9296C45.3386 26.1104 49.0346 23.1545 53.3368 21.4356C57.639 19.7168 62.3542 19.3121 66.8863 20.2729C71.4185 21.2336 75.564 23.5166 78.7988 26.8332C82.0335 30.1497 84.2123 34.351 85.0595 38.9057C86.1933 45.0142 84.854 51.323 81.3364 56.4441C77.8188 61.5653 72.411 65.0794 66.3025 66.2134" fill="#020000"/>
<path d="M103.984 39.8487L96.1485 38.6632C96.0758 38.125 95.9893 37.5852 95.8891 37.0438C95.8236 36.6971 95.7533 36.3529 95.6806 36.011L102.646 32.04C103.068 31.7977 103.391 31.4132 103.557 30.955C103.723 30.4968 103.72 29.9946 103.55 29.5381L102.612 27.0264C102.441 26.5699 102.113 26.1892 101.687 25.9524C101.261 25.7156 100.765 25.6383 100.287 25.7343L92.512 27.2907C92.0918 26.4971 91.6441 25.7246 91.1689 24.973L96.3667 18.8419C96.685 18.4706 96.86 17.9976 96.86 17.5085C96.86 17.0194 96.685 16.5464 96.3667 16.1751L94.6284 14.1411C94.3118 13.7702 93.8733 13.5242 93.3917 13.4473C92.9101 13.3705 92.4168 13.4677 92.0005 13.7217L85.1929 17.8649C84.5351 17.2717 83.8571 16.7061 83.1589 16.1679L85.9566 8.60151C86.1257 8.14456 86.1266 7.64234 85.9591 7.18479C85.7916 6.72725 85.4667 6.34427 85.0426 6.10444L82.7128 4.7856C82.2887 4.5458 81.793 4.46484 81.3145 4.55724C80.8361 4.64964 80.4062 4.90935 80.1018 5.28987L75.1053 11.5325C74.2972 11.1996 73.4705 10.899 72.6252 10.6307L72.6688 2.53097C72.6714 2.04357 72.5003 1.57117 72.1863 1.19844C71.8722 0.82572 71.4356 0.577035 70.9548 0.496958L68.3147 0.0557294C67.8343 -0.0252146 67.3407 0.0677289 66.9226 0.317878C66.5045 0.568027 66.1893 0.959001 66.0334 1.42063L63.4661 9.01849C62.5981 8.98698 61.7254 8.98698 60.8454 9.01849L58.1059 1.36487C57.9413 0.906392 57.619 0.521433 57.1966 0.278903C56.7742 0.0363723 56.2792 -0.0478952 55.8003 0.041184L53.1699 0.526051C52.6904 0.614684 52.2581 0.871285 51.9507 1.24982C51.6432 1.62836 51.4807 2.10406 51.4923 2.59158L51.679 10.6282C50.8434 10.8933 50.0247 11.1875 49.2231 11.5107L44.0253 5.24865C43.7142 4.87326 43.2796 4.62096 42.7994 4.53699C42.3191 4.45302 41.8246 4.54288 41.4046 4.79045L39.0991 6.1505C38.6789 6.39773 38.3605 6.78656 38.201 7.24727C38.0415 7.70797 38.0514 8.21043 38.2288 8.66454L41.1549 16.1582C40.4664 16.6915 39.8013 17.2491 39.1597 17.8309L32.1291 13.7096C31.7083 13.4638 31.2136 13.3758 30.7339 13.4616C30.2541 13.5473 29.8205 13.8011 29.5109 14.1775L27.8138 16.243C27.5012 16.6192 27.3334 17.0949 27.341 17.584C27.3486 18.0731 27.5309 18.5434 27.855 18.9098L33.174 24.9561C32.7085 25.6914 32.2722 26.4422 31.8649 27.2083L23.8476 25.7537C23.3679 25.6666 22.8729 25.7532 22.4513 25.9979C22.0297 26.2427 21.7091 26.6297 21.5469 27.0895L20.6548 29.6132C20.4919 30.0721 20.4979 30.5741 20.6716 31.029C20.8453 31.4839 21.1754 31.8621 21.6027 32.0957L28.6478 35.948C28.4603 36.7981 28.3068 37.658 28.1872 38.5275L20.1869 39.8948C19.7082 39.9791 19.2749 40.2306 18.9641 40.6044C18.6534 40.9781 18.4853 41.45 18.4898 41.9361L18.5141 44.6029C18.5193 45.0901 18.6975 45.5596 19.0167 45.9277C19.336 46.2958 19.7756 46.5385 20.2572 46.6126L28.1823 47.8248C28.2599 48.3994 28.3496 48.9739 28.4563 49.5485C28.512 49.8394 28.5678 50.1279 28.6284 50.414L21.5566 54.4408C21.133 54.6815 20.8091 55.0655 20.6434 55.5237C20.4776 55.9819 20.4808 56.4842 20.6523 56.9403L21.5906 59.4495C21.7618 59.9057 22.0896 60.2862 22.5155 60.5229C22.9414 60.7596 23.4377 60.8371 23.9155 60.7417L31.7388 59.1731C32.1477 59.9618 32.5857 60.7295 33.0528 61.4762L27.8308 67.6316C27.5138 68.0036 27.3397 68.4763 27.3397 68.965C27.3397 69.4537 27.5138 69.9264 27.8308 70.2984L29.5715 72.3348C29.888 72.7052 30.326 72.9507 30.8071 73.0276C31.2881 73.1044 31.7809 73.0075 32.197 72.7542L38.9851 68.6159C39.6413 69.2155 40.3201 69.7885 41.0216 70.3347L38.2263 77.889C38.0572 78.3459 38.0564 78.8481 38.2238 79.3057C38.3913 79.7632 38.7162 80.1462 39.1403 80.386L41.4725 81.7049C41.8996 81.9487 42.3999 82.0312 42.8827 81.9373C43.3654 81.8434 43.7984 81.5794 44.1029 81.1933L49.0558 75.004C49.8825 75.3458 50.7238 75.6586 51.5771 75.935L51.5335 83.9522C51.5314 84.4395 51.7026 84.9116 52.0166 85.2843C52.3306 85.6569 52.7669 85.9057 53.2475 85.9862L55.8852 86.4226C56.3656 86.5028 56.8588 86.4092 57.2764 86.1586C57.694 85.9081 58.0087 85.5169 58.164 85.0553L60.6926 77.5738C61.5896 77.6126 62.4915 77.6126 63.3982 77.5738L66.0916 85.0892C66.2562 85.5484 66.5787 85.9339 67.0016 86.1769C67.4245 86.4199 67.9201 86.5044 68.3996 86.4153L71.03 85.9305C71.5093 85.8424 71.9415 85.5863 72.249 85.2081C72.5565 84.83 72.7191 84.3546 72.7076 83.8674L72.5234 75.998C73.3929 75.7248 74.2454 75.4194 75.081 75.0816L80.1721 81.2176C80.4838 81.5921 80.9184 81.8438 81.3984 81.9277C81.8784 82.0117 82.3726 81.9224 82.7928 81.6758L85.0984 80.3157C85.5182 80.0681 85.836 79.6791 85.9951 79.2185C86.1541 78.7578 86.1439 78.2555 85.9663 77.8017L83.1056 70.4705C83.8264 69.9161 84.5206 69.3335 85.1881 68.7226L92.0732 72.7445C92.4938 72.9906 92.9882 73.0789 93.468 72.9936C93.9478 72.9084 94.3815 72.655 94.6915 72.2791L96.3885 70.2111C96.7008 69.8346 96.8681 69.3588 96.8601 68.8696C96.8521 68.3805 96.6693 67.9104 96.3449 67.5443L91.1422 61.6265C91.6271 60.8629 92.0805 60.0798 92.5023 59.2798L100.36 60.7247C100.839 60.8116 101.334 60.7252 101.756 60.4809C102.178 60.2367 102.499 59.8505 102.663 59.3913L103.555 56.8676C103.717 56.408 103.711 55.9056 103.537 55.4504C103.362 54.9951 103.032 54.6166 102.604 54.3826L95.6879 50.6007C95.8818 49.7214 96.0386 48.8325 96.1582 47.9339L104.032 46.586C104.511 46.5026 104.945 46.2518 105.256 45.8783C105.566 45.5048 105.734 45.033 105.729 44.5471L105.705 41.8682C105.701 41.3812 105.524 40.9115 105.205 40.5436C104.886 40.1756 104.446 39.9336 103.965 39.8609M85.639 21.7438C85.8729 21.6976 86.1152 21.7214 86.3357 21.8123C86.5561 21.9031 86.7449 22.0569 86.8783 22.2545C87.0118 22.452 87.084 22.6846 87.086 22.923C87.088 23.1614 87.0196 23.3951 86.8894 23.5948C86.7592 23.7946 86.5731 23.9515 86.3542 24.046C86.1353 24.1404 85.8934 24.1683 85.6587 24.1259C85.4241 24.0836 85.2072 23.9731 85.035 23.8081C84.8629 23.6431 84.7433 23.431 84.6911 23.1984C84.6557 23.0405 84.6522 22.8772 84.6809 22.7179C84.7096 22.5587 84.7699 22.4068 84.8583 22.2712C84.9466 22.1356 85.0612 22.0191 85.1953 21.9286C85.3294 21.838 85.4803 21.7752 85.639 21.7438ZM76.8047 14.9557C77.009 14.8313 77.2455 14.7701 77.4844 14.7799C77.7234 14.7896 77.9541 14.8698 78.1476 15.0103C78.3411 15.1509 78.4887 15.3455 78.5718 15.5698C78.6549 15.794 78.6698 16.0379 78.6146 16.2706C78.5595 16.5033 78.4367 16.7144 78.2618 16.8775C78.0869 17.0406 77.8677 17.1484 77.6317 17.1871C77.3957 17.2259 77.1536 17.194 76.9356 17.0955C76.7178 16.9969 76.5339 16.8361 76.4071 16.6333C76.3222 16.4973 76.265 16.3458 76.239 16.1876C76.213 16.0293 76.2187 15.8675 76.2557 15.7115C76.2926 15.5555 76.3602 15.4083 76.4545 15.2786C76.5487 15.1488 76.6678 15.0391 76.8047 14.9557ZM66.1886 11.5762C66.338 11.3896 66.5393 11.2513 66.7671 11.1788C66.9949 11.1063 67.239 11.1028 67.4688 11.1687C67.6986 11.2346 67.9038 11.3669 68.0585 11.5491C68.2133 11.7313 68.3107 11.9552 68.3386 12.1926C68.3665 12.43 68.3235 12.6703 68.2152 12.8834C68.1068 13.0965 67.9379 13.2728 67.7296 13.3901C67.5213 13.5074 67.283 13.5605 67.0446 13.5427C66.8062 13.5249 66.5784 13.4371 66.3898 13.2902C66.2631 13.1915 66.1573 13.0686 66.0785 12.9288C65.9998 12.7889 65.9495 12.6347 65.9308 12.4752C65.9121 12.3158 65.9253 12.1542 65.9695 11.9998C66.0138 11.8455 66.0882 11.7015 66.1886 11.5762ZM55.0536 12.0489C55.1302 11.8225 55.272 11.6237 55.4612 11.4777C55.6505 11.3316 55.8787 11.2448 56.1171 11.2281C56.3555 11.2113 56.5936 11.2655 56.8014 11.3837C57.0091 11.5019 57.1773 11.6789 57.2847 11.8924C57.3922 12.106 57.4341 12.3465 57.4052 12.5838C57.3763 12.8211 57.2779 13.0445 57.1223 13.226C56.9668 13.4075 56.7611 13.539 56.531 13.6039C56.301 13.6688 56.0569 13.6642 55.8294 13.5908C55.6766 13.5414 55.5351 13.4622 55.4132 13.3577C55.2912 13.2532 55.1912 13.1255 55.1191 12.9821C55.0469 12.8386 55.0039 12.6823 54.9927 12.5221C54.9815 12.3619 55.0022 12.201 55.0536 12.0489ZM44.7526 16.3036C44.7471 16.0646 44.8123 15.8293 44.9401 15.6272C45.0679 15.4252 45.2526 15.2655 45.471 15.1681C45.6894 15.0708 45.9316 15.0402 46.1673 15.0803C46.403 15.1203 46.6217 15.2291 46.7957 15.393C46.9697 15.557 47.0913 15.7687 47.1453 16.0016C47.1993 16.2345 47.1832 16.4782 47.0991 16.7019C47.0149 16.9257 46.8665 17.1196 46.6724 17.2593C46.4784 17.3989 46.2474 17.478 46.0084 17.4867C45.848 17.4925 45.6881 17.4664 45.5378 17.4099C45.3876 17.3534 45.2501 17.2677 45.1333 17.1576C45.0164 17.0476 44.9226 16.9154 44.8573 16.7688C44.792 16.6222 44.7564 16.4641 44.7526 16.3036ZM37.213 22.2384C37.4357 22.1517 37.6791 22.1328 37.9125 22.1841C38.1459 22.2354 38.359 22.3545 38.5249 22.5265C38.6908 22.6985 38.8022 22.9158 38.845 23.1509C38.8879 23.386 38.8602 23.6285 38.7656 23.848C38.671 24.0675 38.5136 24.2541 38.3132 24.3843C38.1128 24.5146 37.8784 24.5827 37.6394 24.5802C37.4004 24.5776 37.1675 24.5044 36.97 24.3699C36.7725 24.2353 36.6192 24.0453 36.5293 23.8239C36.4689 23.675 36.4387 23.5156 36.4404 23.355C36.4421 23.1943 36.4758 23.0356 36.5394 22.8881C36.603 22.7406 36.6953 22.6072 36.8109 22.4956C36.9266 22.3841 37.0632 22.2966 37.213 22.2384ZM31.4721 31.9794C31.6517 31.8217 31.8739 31.7206 32.1108 31.6888C32.3477 31.657 32.5887 31.696 32.8035 31.8008C33.0183 31.9056 33.1973 32.0715 33.318 32.2778C33.4388 32.484 33.4959 32.7214 33.4821 32.96C33.4684 33.1986 33.3844 33.4278 33.2407 33.6188C33.0971 33.8098 32.9001 33.9541 32.6747 34.0335C32.4493 34.1129 32.2054 34.1239 31.9738 34.0651C31.7421 34.0063 31.533 33.8804 31.3727 33.7031C31.265 33.5839 31.182 33.4445 31.1287 33.2929C31.0753 33.1414 31.0526 32.9808 31.0618 32.8204C31.0711 32.66 31.1121 32.5031 31.1825 32.3587C31.253 32.2143 31.3514 32.0854 31.4721 31.9794ZM29.4115 43.0974C29.5272 42.888 29.7024 42.7176 29.9148 42.6077C30.1272 42.4977 30.3675 42.453 30.6052 42.4792C30.843 42.5055 31.0677 42.6015 31.251 42.7552C31.4343 42.9089 31.568 43.1134 31.6353 43.343C31.7027 43.5725 31.7005 43.8169 31.6293 44.0452C31.558 44.2736 31.4208 44.4757 31.2348 44.6262C31.0489 44.7768 30.8226 44.8689 30.5844 44.891C30.3462 44.9132 30.1068 44.8644 29.8963 44.7507C29.7553 44.6746 29.6308 44.5713 29.53 44.4468C29.4292 44.3222 29.3541 44.1789 29.309 44.0252C29.2639 43.8714 29.2497 43.7103 29.2673 43.551C29.2849 43.3918 29.3339 43.2376 29.4115 43.0974ZM33.6904 54.6008C33.6546 54.8373 33.5496 55.0579 33.3887 55.2349C33.2278 55.4118 33.0182 55.5372 32.7862 55.5953C32.5542 55.6534 32.3101 55.6415 32.0849 55.5612C31.8596 55.4809 31.6631 55.3357 31.5201 55.144C31.3771 54.9522 31.2941 54.7225 31.2814 54.4836C31.2688 54.2448 31.327 54.0075 31.4489 53.8017C31.5708 53.5959 31.7508 53.4308 31.9663 53.3271C32.1818 53.2234 32.4232 53.1858 32.6601 53.2189C32.8188 53.2412 32.9716 53.2947 33.1095 53.3764C33.2475 53.4581 33.3678 53.5663 33.4637 53.6948C33.5595 53.8233 33.6289 53.9696 33.6678 54.1251C33.7067 54.2806 33.7144 54.4423 33.6904 54.6008ZM38.2845 65.0376C38.0506 65.0838 37.8083 65.06 37.5879 64.9691C37.3674 64.8783 37.1787 64.7245 37.0452 64.5269C36.9118 64.3293 36.8395 64.0968 36.8375 63.8584C36.8356 63.62 36.9039 63.3863 37.0341 63.1866C37.1643 62.9868 37.3505 62.8299 37.5694 62.7354C37.7883 62.641 38.0302 62.6131 38.2648 62.6554C38.4994 62.6978 38.7164 62.8083 38.8885 62.9733C39.0606 63.1383 39.1802 63.3503 39.2324 63.583C39.2679 63.7409 39.2713 63.9042 39.2426 64.0635C39.2139 64.2227 39.1536 64.3746 39.0652 64.5102C38.9769 64.6458 38.8623 64.7623 38.7282 64.8528C38.5941 64.9434 38.4433 65.0062 38.2845 65.0376ZM47.1188 71.8257C46.9145 71.9501 46.678 72.0113 46.4391 72.0015C46.2001 71.9918 45.9694 71.9116 45.7759 71.7711C45.5824 71.6305 45.4349 71.4358 45.3517 71.2116C45.2686 70.9874 45.2537 70.7435 45.3089 70.5108C45.364 70.2781 45.4868 70.0669 45.6617 69.9038C45.8366 69.7407 46.0558 69.633 46.2918 69.5942C46.5278 69.5555 46.77 69.5874 46.9879 69.6859C47.2058 69.7845 47.3897 69.9453 47.5164 70.1481C47.6013 70.2841 47.6585 70.4356 47.6845 70.5938C47.7105 70.752 47.7048 70.9139 47.6679 71.0699C47.6309 71.2259 47.5633 71.3731 47.4691 71.5028C47.3748 71.6326 47.2558 71.7423 47.1188 71.8257ZM57.7446 75.1883C57.5952 75.3748 57.3939 75.5131 57.1661 75.5856C56.9384 75.6581 56.6942 75.6616 56.4644 75.5957C56.2346 75.5299 56.0295 75.3975 55.8747 75.2153C55.7199 75.0331 55.6225 74.8093 55.5946 74.5719C55.5667 74.3344 55.6097 74.0941 55.718 73.881C55.8264 73.6679 55.9954 73.4917 56.2036 73.3743C56.4119 73.257 56.6502 73.2039 56.8886 73.2217C57.127 73.2395 57.3548 73.3273 57.5434 73.4743C57.6701 73.5729 57.7759 73.6958 57.8547 73.8357C57.9335 73.9756 57.9837 74.1297 58.0024 74.2892C58.0211 74.4486 58.008 74.6102 57.9637 74.7646C57.9195 74.9189 57.845 75.0629 57.7446 75.1883ZM68.8772 74.7155C68.8006 74.9419 68.6588 75.1407 68.4695 75.2867C68.2803 75.4328 68.0521 75.5196 67.8137 75.5363C67.5753 75.5531 67.3372 75.4989 67.1294 75.3807C66.9217 75.2625 66.7535 75.0855 66.6461 74.872C66.5386 74.6584 66.4967 74.4179 66.5256 74.1806C66.5545 73.9434 66.6529 73.7199 66.8084 73.5384C66.964 73.3569 67.1697 73.2254 67.3998 73.1605C67.6298 73.0956 67.8739 73.1002 68.1014 73.1736C68.2542 73.223 68.3957 73.3022 68.5176 73.4067C68.6396 73.5112 68.7396 73.6389 68.8117 73.7823C68.8839 73.9258 68.9269 74.0822 68.9381 74.2424C68.9493 74.4025 68.9286 74.5634 68.8772 74.7155ZM79.1782 70.4608C79.1837 70.6998 79.1185 70.9351 78.9907 71.1372C78.8629 71.3392 78.6782 71.4989 78.4598 71.5963C78.2414 71.6936 77.9992 71.7242 77.7635 71.6842C77.5277 71.6442 77.3091 71.5353 77.1351 71.3714C76.9611 71.2075 76.8395 70.9957 76.7855 70.7628C76.7315 70.5299 76.7476 70.2863 76.8317 70.0625C76.9159 69.8387 77.0643 69.6448 77.2584 69.5052C77.4524 69.3655 77.6834 69.2864 77.9224 69.2777C78.0828 69.2719 78.2427 69.298 78.3929 69.3545C78.5432 69.411 78.6807 69.4967 78.7975 69.6068C78.9143 69.7169 79.0082 69.849 79.0735 69.9956C79.1388 70.1422 79.1744 70.3003 79.1782 70.4608ZM86.7178 64.526C86.4951 64.6127 86.2517 64.6316 86.0183 64.5803C85.7849 64.5291 85.5718 64.4099 85.4059 64.2379C85.2399 64.0659 85.1286 63.8487 85.0858 63.6135C85.0429 63.3784 85.0706 63.1359 85.1652 62.9164C85.2598 62.6969 85.4172 62.5104 85.6176 62.3801C85.818 62.2498 86.0524 62.1817 86.2914 62.1843C86.5304 62.1868 86.7633 62.26 86.9608 62.3946C87.1583 62.5291 87.3116 62.7191 87.4015 62.9405C87.4619 63.0894 87.4921 63.2488 87.4904 63.4094C87.4887 63.5701 87.455 63.7288 87.3914 63.8763C87.3278 64.0239 87.2355 64.1573 87.1198 64.2688C87.0042 64.3803 86.8676 64.4678 86.7178 64.526ZM92.4587 54.7851C92.2791 54.9428 92.0569 55.0439 91.82 55.0756C91.5831 55.1074 91.3421 55.0684 91.1273 54.9636C90.9125 54.8589 90.7335 54.6929 90.6127 54.4866C90.492 54.2804 90.4349 54.043 90.4487 53.8044C90.4624 53.5658 90.5464 53.3366 90.6901 53.1456C90.8337 52.9546 91.0307 52.8103 91.2561 52.7309C91.4815 52.6515 91.7254 52.6405 91.957 52.6993C92.1887 52.7581 92.3978 52.8841 92.5581 53.0614C92.6658 53.1805 92.7487 53.3199 92.8021 53.4715C92.8555 53.623 92.8782 53.7836 92.869 53.944C92.8597 54.1044 92.8187 54.2613 92.7483 54.4057C92.6778 54.5501 92.5794 54.6791 92.4587 54.7851ZM67.3765 71.6705C61.7522 72.7148 55.9445 72.0677 50.688 69.8109C45.4315 67.5542 40.9623 63.7892 37.8458 58.9922C34.7293 54.1952 33.1054 48.5817 33.1796 42.8617C33.2538 37.1417 35.0226 31.5722 38.2625 26.8577C41.5023 22.1431 46.0675 18.4952 51.3808 16.3755C56.694 14.2558 62.5165 13.7594 68.1119 14.9492C73.7073 16.139 78.8241 18.9614 82.8152 23.0595C86.8063 27.1577 89.4924 32.3474 90.5337 37.9723C91.9301 45.5116 90.275 53.2969 85.9325 59.6162C81.5899 65.9355 74.9153 70.2714 67.3765 71.6705ZM94.529 43.6719C94.4132 43.8812 94.2381 44.0516 94.0257 44.1616C93.8133 44.2716 93.573 44.3163 93.3353 44.29C93.0975 44.2638 92.8728 44.1677 92.6895 44.014C92.5062 43.8603 92.3725 43.6558 92.3052 43.4263C92.2378 43.1967 92.2399 42.9524 92.3112 42.7241C92.3825 42.4957 92.5197 42.2935 92.7056 42.143C92.8916 41.9925 93.1179 41.9004 93.3561 41.8782C93.5943 41.8561 93.8337 41.9049 94.0442 42.0185C94.1852 42.0946 94.3097 42.1979 94.4105 42.3225C94.5113 42.447 94.5864 42.5903 94.6315 42.7441C94.6766 42.8978 94.6908 43.059 94.6732 43.2183C94.6556 43.3775 94.6066 43.5317 94.529 43.6719ZM92.6647 32.52C92.6312 32.7567 92.5284 32.9783 92.3692 33.1567C92.2101 33.3352 92.0017 33.4626 91.7704 33.5229C91.539 33.5833 91.2949 33.5738 91.0689 33.4958C90.8429 33.4177 90.645 33.2746 90.5001 33.0844C90.3553 32.8941 90.2699 32.6653 90.2548 32.4267C90.2397 32.188 90.2955 31.9502 90.4152 31.7432C90.5348 31.5362 90.7131 31.3693 90.9274 31.2633C91.1418 31.1574 91.3827 31.1172 91.6198 31.1478C91.7788 31.17 91.9318 31.2236 92.07 31.3055C92.2081 31.3873 92.3286 31.4958 92.4244 31.6246C92.5203 31.7533 92.5896 31.8999 92.6283 32.0557C92.6671 32.2115 92.6745 32.3734 92.6502 32.5321" fill="#020000"/>
<path d="M74.4675 42.7023C74.9015 40.1761 75.8615 37.6112 77.1634 36.1566C78.8604 34.268 80.4144 32.2777 81.2193 31.3249C81.4617 30.9637 81.3744 30.7746 81.1344 30.6921C80.2762 31.6788 77.8591 34.0183 76.2057 35.8657C75.8864 36.2354 75.6128 36.6424 75.3912 37.0778C74.7633 38.2706 74.2978 39.8246 73.9632 41.3544C73.8541 41.8392 73.762 42.3241 73.6796 42.809C73.2456 45.3327 70.2855 57.2119 67.8079 64.851C67.7012 65.1807 67.5994 65.5032 67.5 65.8208C67.2115 66.7517 66.9593 67.6293 66.7387 68.4633C65.3593 73.6756 65.2162 77.1715 65.2065 81.0698H66.9763C66.9763 76.3278 67.1945 72.1919 69.5752 64.8462C72.0529 57.2265 74.036 45.2285 74.4675 42.7023Z" fill="#D1D4D6"/>
<path d="M56.2245 64.8654C55.1699 61.6095 54.0959 57.5633 53.1771 53.7959C52.6001 51.4201 52.0813 49.1533 51.6692 47.2672C51.5121 46.7346 51.3834 46.194 51.2837 45.6477C50.8722 43.5264 50.3298 41.4326 49.6594 39.3784C49.4773 38.8078 49.252 38.2518 48.9855 37.7153C48.5006 36.7844 47.4145 35.5722 46.3332 34.3406C45.8168 33.7564 45.3005 33.1648 44.8423 32.6C43.9841 31.5405 43.5428 31.2035 43.3149 31.1454C43.2868 31.1408 43.2582 31.1408 43.2301 31.1454C43.2022 31.1495 43.1759 31.1611 43.1541 31.1791C43.1323 31.197 43.1158 31.2206 43.1064 31.2472C43.9598 32.2727 45.3853 34.0715 46.9175 35.7831C48.2194 37.2377 49.1939 40.1809 49.6279 42.7046C50.0619 45.2283 52.0522 57.2288 54.5202 64.8678C56.9009 72.2136 57.107 76.3495 57.1215 81.0915H58.8186C58.8186 79.8939 58.7992 78.735 58.741 77.5544C58.5761 74.0585 58.0112 70.3565 56.2245 64.8654Z" fill="#888C96"/>
<path d="M44.4809 30.7939C44.5059 30.8491 44.5359 30.9019 44.5706 30.9515L44.7016 31.1067H44.5415C44.6667 31.1544 44.7882 31.2112 44.9052 31.2764C45.1501 31.3357 45.3751 31.4587 45.5573 31.6327C45.5961 31.674 45.7101 31.72 45.7489 31.7661H45.8168C46.0301 32.0085 46.3428 32.3503 46.7089 32.7601C47.6253 33.7783 48.869 35.1626 49.6884 36.0693L50.1248 36.5541C51.1188 37.6427 51.0727 38.9203 51.3564 41.0052C51.64 43.0902 52.6025 48.3049 53.2182 51.1462C53.4607 52.2323 53.8292 53.6312 54.268 54.9936C54.8983 56.9525 55.6547 58.8411 56.2971 59.6241L56.4741 59.8229L56.5202 59.8714C56.5784 59.932 56.6366 59.9902 56.6947 60.0411L56.7117 60.0581C56.765 60.1041 56.816 60.1453 56.8669 60.1841L56.9202 60.2253C56.9735 60.2641 57.0269 60.3005 57.0802 60.332L57.1263 60.3563C57.1651 60.3805 57.2063 60.3999 57.2451 60.4193L57.3129 60.4508L57.4317 60.4969C57.4633 60.5088 57.4957 60.5185 57.5287 60.526L57.6063 60.5454L57.6936 60.5623H57.7445C57.8018 60.5659 57.8593 60.5659 57.9166 60.5623H57.9505C58.061 60.5592 58.1708 60.5438 58.2778 60.5163C58.4306 60.4761 58.5773 60.4157 58.7142 60.3369H58.7288C58.7845 60.3073 58.8387 60.2749 58.8912 60.2399L58.93 60.2132C58.9906 60.1672 59.0512 60.1211 59.107 60.0726C59.107 60.0726 58.0427 60.4896 57.1263 58.6835C54.6728 53.8348 53.1285 47.5315 52.6364 45.1799C51.8315 41.3277 51.7442 39.0536 52.1152 37.6015C52.5225 36.0135 51.2788 35.2983 50.4181 35.0438C49.9502 34.908 49.5526 34.5929 49.0823 34.1128C48.9898 34.1107 48.8986 34.09 48.8142 34.0521C48.7297 34.0141 48.6538 33.9596 48.5907 33.8919C48.5277 33.8241 48.4789 33.7443 48.4471 33.6574C48.4154 33.5704 48.4014 33.478 48.4059 33.3855C48.1635 33.1286 47.9211 32.8449 47.6253 32.5322C46.7556 31.5997 45.6748 30.8897 44.4737 30.4618C44.4677 30.4743 44.4629 30.4873 44.4591 30.5006C44.4424 30.5484 44.4357 30.5991 44.4395 30.6495C44.4432 30.7 44.4574 30.7491 44.4809 30.7939Z" fill="#D1D4D6"/>
<path d="M43.3752 30.8545C43.4029 30.8627 43.4313 30.8684 43.46 30.8715C43.7889 30.9187 44.1133 30.9933 44.4298 31.0945C44.5534 31.1358 44.6722 31.177 44.8056 31.2255C44.7304 31.1285 44.6552 31.0339 44.5849 30.9515C44.5502 30.9019 44.5201 30.8491 44.4952 30.7939C44.4697 30.7495 44.4537 30.7003 44.4483 30.6494C44.4429 30.5984 44.4481 30.5469 44.4637 30.4982C44.4675 30.4848 44.4723 30.4719 44.4783 30.4594C44.3989 30.43 44.3179 30.4049 44.2358 30.3842C43.8258 30.2594 43.3917 30.2353 42.9703 30.3139C42.9524 30.3405 42.9393 30.3701 42.9315 30.4012C42.8903 30.583 43.0382 30.7866 43.3752 30.8545Z" fill="#D1D4D6"/>
<path d="M58.0547 52.4263C57.9311 54.5112 58.6123 56.3416 59.1699 57.7307C59.7275 58.8047 59.7275 59.8156 59.1093 60.0678C59.0511 60.1163 58.9905 60.1623 58.9299 60.2084L58.8911 60.2399C58.8358 60.2802 58.7784 60.3174 58.719 60.3514H58.7045C58.5676 60.4303 58.4208 60.4906 58.2681 60.5308C58.6373 60.6071 59.0211 60.5685 59.3678 60.4203C59.7145 60.2721 60.0075 60.0213 60.2075 59.7017C60.2646 59.5973 60.3093 59.4867 60.3409 59.372C60.3953 59.1904 60.4214 59.0015 60.4185 58.812C60.4186 58.7196 60.413 58.6273 60.4015 58.5356C60.2003 56.8846 59.7445 55.6264 59.4536 53.7524C59.4196 53.5318 59.393 53.299 59.3736 53.0615C59.3445 52.7051 59.3299 52.3342 59.3324 51.9681C59.3469 50.6177 59.5918 49.2746 60.1057 48.5958C58.8645 49.408 58.142 50.9741 58.0547 52.4263Z" fill="#888C96"/>
<path d="M62.5059 28.7236L64.6538 26.5756C64.8013 26.4217 64.9189 26.2416 65.0005 26.0447C64.9189 26.2416 64.8013 26.4217 64.6538 26.5756L62.5059 28.7236Z" fill="#EEF5FB"/>
<path d="M65.4368 26.7525L62.2852 29.8848L65.4368 26.7525C66.2126 25.9186 66.2586 24.9998 65.9217 24.3064C66.2465 24.9998 66.2005 25.9186 65.4368 26.7525Z" fill="#EEF5FB"/>
<path d="M65.3062 28.5272C65.6086 28.1996 66.0049 27.9735 66.4407 27.8799C66.0049 27.9735 65.6086 28.1996 65.3062 28.5272Z" fill="#EEF5FB"/>
<path d="M62.6997 23.8869C63.0029 23.5604 63.3989 23.3345 63.8343 23.2396C63.3989 23.3345 63.0029 23.5604 62.6997 23.8869Z" fill="#EEF5FB"/>
<path d="M65.0006 26.0423C65.0938 25.8216 65.1229 25.5792 65.0845 25.3427C65.0462 25.1063 64.9418 24.8855 64.7836 24.7057C64.6253 24.5259 64.4195 24.3944 64.1899 24.3264C63.9602 24.2583 63.716 24.2565 63.4854 24.321C63.716 24.2565 63.9602 24.2583 64.1899 24.3264C64.4195 24.3944 64.6253 24.5259 64.7836 24.7057C64.9418 24.8855 65.0462 25.1063 65.0845 25.3427C65.1229 25.5792 65.0938 25.8216 65.0006 26.0423Z" fill="#EEF5FB"/>
<path d="M49.0751 34.1079H75.7112C75.9827 33.8146 76.2834 33.4824 76.6373 33.1042L76.6494 33.0897L76.6325 33.0557L63.1556 11.1325C63.0937 11.0323 63.0072 10.9495 62.9043 10.8921C62.8014 10.8347 62.6855 10.8046 62.5677 10.8046C62.4499 10.8046 62.334 10.8347 62.2311 10.8921C62.1282 10.9495 62.0417 11.0323 61.9798 11.1325L48.5005 33.0557C48.441 33.1552 48.4061 33.2674 48.3987 33.383C48.3945 33.4753 48.4087 33.5675 48.4406 33.6541C48.4725 33.7408 48.5214 33.8203 48.5844 33.8878C48.6474 33.9553 48.7232 34.0096 48.8075 34.0474C48.8918 34.0852 48.9827 34.1057 49.0751 34.1079Z" fill="white"/>
<path d="M50.7258 33.017H53.572L62.6996 23.8869C63.0028 23.5604 63.3988 23.3345 63.8342 23.2396C64.2477 23.168 64.6733 23.2334 65.0462 23.426C65.4191 23.6185 65.7188 23.9277 65.8997 24.3063C66.2464 24.9997 66.2004 25.9185 65.4149 26.7525L62.2851 29.8847L59.1528 33.017H60.8305L65.3179 28.5271C65.6203 28.1995 66.0166 27.9735 66.4525 27.8798C66.9363 27.7979 67.4333 27.9024 67.8431 28.1723C68.253 28.4422 68.5453 28.8575 68.6611 29.3344C68.8235 29.9647 68.6829 30.709 68.0404 31.3975L66.4185 33.0218H74.4795C74.5877 33.0221 74.694 32.9934 74.7874 32.9388C74.8807 32.8841 74.9578 32.8054 75.0105 32.7109C75.0632 32.6164 75.0896 32.5095 75.087 32.4013C75.0845 32.2931 75.053 32.1876 74.9958 32.0957L63.1166 12.7883C63.0625 12.6995 62.9865 12.6261 62.8958 12.5752C62.8052 12.5243 62.703 12.4976 62.599 12.4976C62.495 12.4976 62.3928 12.5243 62.3022 12.5752C62.2115 12.6261 62.1355 12.6995 62.0814 12.7883L50.2022 32.0957C50.146 32.188 50.1155 32.2937 50.1138 32.4018C50.1122 32.5099 50.1395 32.6164 50.1929 32.7104C50.2464 32.8044 50.3239 32.8824 50.4176 32.9363C50.5113 32.9902 50.6177 33.018 50.7258 33.017Z" fill="#96A2AD"/>
<path d="M62.285 29.8848L65.4366 26.7526C66.2124 25.9186 66.2585 24.9998 65.9215 24.3064C65.7405 23.9278 65.4408 23.6186 65.0679 23.426C64.6951 23.2335 64.2695 23.168 63.856 23.2397C63.4205 23.3345 63.0246 23.5604 62.7214 23.887L53.5938 33.017H54.5974L62.9032 24.7088C63.0697 24.5322 63.277 24.399 63.5069 24.321C63.7375 24.2564 63.9817 24.2583 64.2114 24.3264C64.441 24.3944 64.6468 24.5259 64.8051 24.7057C64.9633 24.8855 65.0677 25.1063 65.106 25.3427C65.1444 25.5791 65.1153 25.8216 65.0221 26.0422C64.9405 26.2392 64.8229 26.4193 64.6754 26.5732L62.5056 28.7235L58.2121 33.017H59.16L62.285 29.8848Z" fill="#D1D4D6"/>
<path d="M66.4405 27.8798C66.0046 27.9735 65.6083 28.1996 65.3059 28.5271L60.8306 33.017H61.8003L65.6938 29.1211C66.9423 27.8435 68.7581 29.606 67.466 30.9854L65.4368 33.017H66.4065L68.0284 31.3927C68.6709 30.7042 68.8115 29.9599 68.649 29.3296C68.5322 28.8536 68.2395 28.4395 67.8298 28.1705C67.42 27.9016 66.9237 27.7977 66.4405 27.8798Z" fill="#D1D4D6"/>
<path d="M61.3154 48.0819C61.3663 48.0819 61.4148 48.0989 61.4633 48.1061C61.527 48.0753 61.5926 48.0486 61.6597 48.0261C61.5579 48.0407 61.4342 48.0576 61.3154 48.0819Z" fill="#F8D182"/>
<path d="M64.993 60.0678C64.3118 59.8787 64.4354 59.0568 64.8694 57.7307C65.4246 56.3416 66.1058 54.5112 65.9822 52.4263C65.9209 51.4466 65.5977 50.5013 65.0464 49.6892C65.0562 49.7331 65.0627 49.7777 65.0658 49.8225C65.1045 50.3607 64.5518 50.7026 63.8003 50.7438C63.8415 50.9256 63.8754 51.1147 63.9021 51.3062C63.9287 51.4978 63.9457 51.6966 63.9554 51.9002C63.9554 52.0311 63.9554 52.1693 63.9554 52.3075C63.9554 54.3924 63.2523 57.081 63.1917 59.1441C63.186 59.2866 63.1991 59.4293 63.2305 59.5684C63.2495 59.6562 63.2763 59.7422 63.3105 59.8253C63.4043 60.0676 63.5566 60.2829 63.7537 60.4521C63.9508 60.6212 64.1866 60.7391 64.4403 60.7951C64.5241 60.8122 64.6093 60.822 64.6948 60.8242C64.7384 60.8266 64.7821 60.8266 64.8257 60.8242C65.3567 60.7902 65.9191 60.4629 66.3628 59.7187C66.4743 59.532 66.5713 59.3453 66.6634 59.1562C65.7906 60.3684 64.993 60.0678 64.993 60.0678Z" fill="#D1D4D6"/>
<path d="M67.5 65.8352C67.5994 65.5176 67.7012 65.1952 67.8079 64.8655C70.2856 57.2264 73.2457 45.3472 73.6796 42.8235C73.7621 42.3386 73.8542 41.8537 73.9633 41.3689C74.2978 39.8391 74.7633 38.2851 75.3912 37.0923C75.6129 36.6569 75.8864 36.2499 76.2058 35.8802C77.8592 34.0328 80.2762 31.6933 81.1345 30.7066C80.8266 30.5975 80.2738 30.6654 79.8568 30.7721C79.1174 30.9588 77.9465 31.7127 76.6494 33.0922L76.6373 33.1067C76.2834 33.4849 75.9828 33.8171 75.7112 34.1104C74.9839 34.8983 74.4821 35.3856 73.8493 35.565C72.9814 35.8074 71.7087 36.3772 72.1159 37.9651C72.4869 39.4197 72.5475 41.7543 71.7426 45.6042C71.2577 47.9558 69.6843 53.8469 66.9739 58.6762C66.883 58.84 66.7817 58.9979 66.6709 59.1489C66.5788 59.338 66.4818 59.5247 66.3703 59.7114C65.9266 60.4556 65.3642 60.7829 64.8333 60.8169C64.7896 60.8193 64.7459 60.8193 64.7023 60.8169C64.6168 60.8147 64.5316 60.8049 64.4478 60.7878C64.1941 60.7318 63.9583 60.6139 63.7612 60.4447C63.5641 60.2756 63.4118 60.0603 63.318 59.818C63.2838 59.7349 63.257 59.6489 63.238 59.5611C63.2066 59.422 63.1935 59.2793 63.1992 59.1368C63.2599 57.0737 63.9556 54.3851 63.9629 52.3002C63.9629 52.1612 63.9629 52.0254 63.9629 51.8929C63.9629 51.6892 63.9363 51.4929 63.9096 51.2989C63.8829 51.105 63.849 50.9183 63.8078 50.7365C63.4718 50.7516 63.1356 50.714 62.8114 50.625C62.5186 50.5477 62.2373 50.4319 61.975 50.2807C60.9737 49.7061 60.4961 48.5691 61.478 48.0988C61.4295 48.0988 61.381 48.0794 61.3301 48.0746C60.8969 48.1629 60.4851 48.335 60.1179 48.5813C59.604 49.2601 59.3591 50.6031 59.3446 51.9535C59.3446 52.322 59.3567 52.6808 59.3858 53.0469C59.4052 53.2893 59.4318 53.5172 59.4658 53.7378C59.7567 55.6215 60.2125 56.87 60.4137 58.521C60.4252 58.6127 60.4308 58.705 60.4307 58.7974C60.4337 58.9869 60.4075 59.1758 60.3531 59.3574C60.3215 59.4721 60.2768 59.5828 60.2197 59.6871C60.0197 60.0067 59.7267 60.2575 59.38 60.4057C59.0333 60.5539 58.6495 60.5925 58.2803 60.5162C58.1733 60.5438 58.0635 60.5592 57.953 60.5623H57.9191C57.8617 60.5659 57.8042 60.5659 57.7469 60.5623H57.696L57.6087 60.5453L57.5312 60.5259C57.4982 60.5185 57.4658 60.5088 57.4342 60.4969L57.3154 60.4508L57.2475 60.4193C57.2087 60.3999 57.1675 60.3805 57.1287 60.3562L57.0827 60.332C57.0293 60.3005 56.976 60.2641 56.9227 60.2253L56.8693 60.1841C56.8184 60.1453 56.7675 60.1041 56.7142 60.058L56.6972 60.0411C56.639 59.9902 56.5808 59.932 56.5226 59.8714L56.4766 59.8229L56.2996 59.6241C55.6572 58.841 54.9008 56.9573 54.2704 54.9936C53.8316 53.6311 53.4559 52.2323 53.2207 51.1462C52.6049 48.3049 51.6425 43.0877 51.3588 41.0052C51.0752 38.9227 51.1164 37.6427 50.1272 36.5541L49.6909 36.0693C48.8714 35.1626 47.6278 33.7783 46.7114 32.76C46.3453 32.3503 46.0326 32.0012 45.8192 31.7661C45.5134 31.5402 45.176 31.3605 44.818 31.2327C44.6919 31.1842 44.5755 31.143 44.4422 31.1018C44.1257 31.0006 43.8013 30.926 43.4725 30.8788C43.4437 30.8756 43.4153 30.87 43.3876 30.8618C43.0603 30.7939 42.9027 30.5903 42.9464 30.4084C42.9541 30.3773 42.9673 30.3478 42.9852 30.3212C42.7427 30.4036 42.6385 30.5927 42.8882 30.9588C42.9633 31.046 43.0458 31.1454 43.1306 31.2521C43.14 31.2255 43.1565 31.202 43.1783 31.184C43.2001 31.1661 43.2263 31.1544 43.2543 31.1503C43.2824 31.1458 43.311 31.1458 43.3391 31.1503C43.567 31.2036 44.0082 31.5406 44.8664 32.6049C45.3246 33.1698 45.8362 33.7613 46.3574 34.3456C47.4387 35.5771 48.5126 36.7893 49.0096 37.7202C49.2761 38.2567 49.5014 38.8127 49.6836 39.3833C50.3539 41.4376 50.8964 43.5313 51.3079 45.6527C51.4079 46.1989 51.5365 46.7394 51.6934 47.2721C52.1055 49.1582 52.6219 51.425 53.2013 53.8008C54.1201 57.5683 55.1941 61.6145 56.2487 64.8703C58.0306 70.3615 58.5954 74.061 58.7724 77.5569C58.8306 78.7375 58.8451 79.8964 58.85 81.094H65.226C65.226 77.1908 65.3787 73.6949 66.7582 68.4875C66.9594 67.6438 67.2115 66.7662 67.5 65.8352Z" fill="#96A2AD"/>
<path d="M65.0659 49.8152C65.0628 49.7703 65.0563 49.7258 65.0465 49.6819C64.3677 48.7121 63.3495 47.9994 62.0185 47.9994C61.9011 47.9997 61.7837 48.0061 61.667 48.0188C61.5999 48.0412 61.5343 48.0679 61.4706 48.0988C60.4887 48.5691 60.9663 49.7061 61.9676 50.2807C62.2299 50.4319 62.5112 50.5477 62.804 50.6249C63.1283 50.714 63.4645 50.7516 63.8004 50.7365C64.5519 50.7025 65.1047 50.3607 65.0659 49.8152ZM63.6113 50.1886C63.1621 50.206 62.7172 50.095 62.3288 49.8685C61.6282 49.4661 61.2936 48.6709 61.9797 48.3412C62.0233 48.3218 62.0694 48.3024 62.1203 48.2855C62.1712 48.2685 62.2828 48.2733 62.3628 48.2733C62.7862 48.2774 63.2019 48.3873 63.5719 48.5931C63.942 48.7989 64.2547 49.094 64.4816 49.4516C64.5931 49.8879 64.1859 50.1643 63.6186 50.1958L63.6113 50.1886Z" fill="#D1D4D6"/>
<path d="M64.4916 49.4589C64.2647 49.1013 63.952 48.8062 63.5819 48.6004C63.2119 48.3946 62.7962 48.2847 62.3727 48.2806C62.2903 48.2806 62.2079 48.2806 62.1303 48.2928C62.0527 48.3049 62.0333 48.3291 61.9897 48.3485C61.3036 48.6782 61.6382 49.4734 62.3388 49.8758C62.7272 50.1023 63.1721 50.2133 63.6213 50.1959C64.1862 50.1643 64.5934 49.888 64.4916 49.4589Z" fill="#ECF2FA"/>
<path d="M42.7548 120.645C40.3159 120.303 39.0116 119.377 37.0867 118.274C36.0952 117.704 34.0393 116.269 34.9048 117.243C32.9896 116.147 31.2683 114.838 29.4719 113.478C30.4877 111.644 31.0419 109.591 31.0865 107.495C31.1665 104.307 28.3082 101.643 28.3082 101.643C28.3082 101.643 25.7626 105.17 26.2136 108.431C26.3784 109.628 27.1469 111.073 27.8524 112.193C26.0609 110.71 24.3812 109.097 22.8268 107.366C24.1366 105.766 25.0324 103.868 25.4354 101.839C26.056 98.7722 23.7505 95.7175 23.7505 95.7175C23.7505 95.7175 20.6934 98.6849 20.5746 101.917C20.5285 103.112 21.0328 104.656 21.5273 105.861C19.9322 104.042 18.4828 102.101 17.1926 100.055C18.7591 98.7236 19.9676 97.0218 20.7079 95.1042C21.8304 92.2532 20.1261 88.91 20.1261 88.91C20.1261 88.91 16.669 91.2567 16.0047 94.3526C15.7404 95.5939 16.0217 97.3321 16.3223 98.6194C15.0351 96.4091 13.9175 94.1042 12.9791 91.7246C14.7078 90.7057 16.1558 89.2727 17.1926 87.5548C18.7587 84.9923 17.6775 81.477 17.6775 81.477C17.6775 81.477 13.9416 83.1522 12.7731 86.0275C12.3197 87.1427 12.2882 88.7936 12.3464 90.0712C11.5014 87.6971 10.8234 85.2669 10.3172 82.7982C12.1598 82.1096 13.8026 80.9742 15.098 79.4939C17.0375 77.2877 16.6059 73.7118 16.6059 73.7118C16.6059 73.7118 12.727 74.6816 11.0979 77.2708C10.4675 78.2744 10.1524 79.8769 9.99478 81.123C9.56002 78.6325 9.29757 76.1149 9.20929 73.5882C11.1453 73.2515 12.964 72.4281 14.4943 71.1954C16.7514 69.3965 16.9332 65.8619 16.9332 65.8619C16.9332 65.8619 13.0131 66.1455 11.013 68.3589C10.1499 69.3141 9.53415 71.0427 9.18263 72.2597C9.15259 69.6299 9.33745 67.0021 9.73537 64.4024C11.6983 64.4288 13.6343 63.9433 15.3526 62.9939C17.8375 61.6435 18.6157 58.2713 18.6157 58.2713C18.6157 58.2713 14.7804 57.8785 12.4724 59.675C11.3815 60.5235 10.4166 62.3223 9.89538 63.4375C10.1262 62.1381 10.424 60.8515 10.7875 59.5828C11.1488 58.1598 11.5512 56.8142 11.9827 55.539C13.8676 55.9011 15.8143 55.7666 17.6314 55.1487C20.2546 54.2687 21.5807 51.1437 21.5807 51.1437C21.5807 51.1437 17.9442 50.1158 15.4156 51.454C14.2349 52.0771 12.7658 53.4784 12.3173 54.6057C13.561 51.4953 14.4556 49.3473 15.5586 47.3084C17.3407 48.0054 19.2763 48.2146 21.1661 47.9145C23.8498 47.5121 25.6584 44.7241 25.6584 44.7241C25.6584 44.7241 22.3274 43.1119 19.6582 43.9701C18.2642 44.4211 16.4217 45.8029 15.8592 46.7581C17.1175 44.6223 17.8811 43.495 18.6787 42.3531C19.3018 42.2464 21.2316 41.7955 22.2643 40.3239C23.1759 39.0567 23.7135 37.559 23.8159 36.0013C23.8159 36.0013 21.1055 36.7286 19.9976 37.8608C18.6157 39.2766 18.4339 41.5797 18.4121 42.1034C17.7357 43.0174 16.9987 44.2004 16.138 45.6599C16.7175 44.6902 17.1514 42.5228 16.9502 41.1143C16.5526 38.336 13.6458 36.0474 13.6458 36.0474C13.6458 36.0474 11.9294 38.8936 12.7415 41.4828C13.2784 43.293 14.2954 44.9242 15.6847 46.2029C14.3434 48.5565 13.1837 51.009 12.2155 53.539C12.4021 52.3486 12.6106 50.3558 12.1888 49.0637C11.2966 46.3363 7.98016 44.552 7.98016 44.552C7.98016 44.552 6.76799 47.7036 8.03349 50.1764C8.91163 51.9075 10.2313 53.3761 11.8591 54.4335C11.2773 55.99 10.7294 57.6603 10.2421 59.4568C9.99963 60.2277 9.79841 61.0253 9.60688 61.8423C9.55355 60.6107 9.36445 58.921 8.80201 57.8543C7.42498 55.2772 3.76424 54.0723 3.76424 54.0723C3.76424 54.0723 3.09755 57.4664 4.81398 59.7162C5.98233 61.2617 7.5273 62.482 9.30142 63.2605C8.81778 65.7679 8.54048 68.3106 8.4723 70.8633C8.1935 69.6511 7.72318 68.1044 6.9983 67.1807C5.15581 64.8364 1.26233 64.2715 1.26233 64.2715C1.26233 64.2715 1.19929 67.8013 3.32059 69.7529C4.77086 71.1004 6.54186 72.0543 8.46502 72.5239C8.47229 75.1315 8.66429 77.7353 9.03959 80.3157C8.55472 79.1399 7.78379 77.6078 6.85769 76.7883C4.58609 74.7592 0.585938 74.8828 0.585938 74.8828C0.585938 74.8828 1.14596 78.4441 3.61636 80.0297C5.31201 81.1277 7.26115 81.7722 9.27717 81.9012C9.70576 84.3687 10.3011 86.8043 11.0591 89.1912C10.3633 88.1439 9.40324 86.9026 8.42139 86.282C5.78613 84.6432 1.77629 85.4796 1.77629 85.4796C1.77629 85.4796 2.96906 88.9585 5.7425 90.11C7.61315 90.9025 9.65418 91.2078 11.6748 90.9973C12.4741 93.2318 13.4268 95.4083 14.5259 97.5115C13.687 96.6654 12.6494 95.7781 11.6773 95.3878C8.7414 94.2072 4.86246 95.7587 4.86246 95.7587C4.86246 95.7587 6.67829 99.0437 9.66507 99.7104C11.6465 100.163 13.709 100.121 15.6701 99.5868C16.8361 101.59 18.1479 103.505 19.5951 105.315C18.6109 104.627 17.4326 103.938 16.4096 103.723C13.2579 103.056 9.62143 105.301 9.62143 105.301C9.62143 105.301 12.0264 108.28 15.1489 108.423C17.2304 108.525 19.3044 108.108 21.1855 107.211C22.5907 108.901 24.1121 110.49 25.7384 111.968C24.6499 111.466 23.3892 111.013 22.3443 110.979C19.0472 110.872 15.7986 113.769 15.7986 113.769C15.7986 113.769 18.7442 116.336 21.908 115.924C24.0026 115.664 26.0009 114.893 27.7264 113.677C29.4304 115.067 31.2225 116.344 33.0914 117.503C31.8986 117.187 30.524 116.943 29.4549 117.093C26.1214 117.578 23.3771 121.057 23.3771 121.057C23.3771 121.057 26.793 123.115 29.8986 122.143C32.7665 121.243 34.3812 118.337 35.3509 118.843C37.9377 120.194 39.2419 121.12 42.5075 122.523C41.3438 122.029 43.9839 120.817 42.7548 120.645Z" fill="#020000"/>
<path d="M81.3307 120.645C83.7696 120.303 85.0739 119.377 86.9988 118.274C87.9903 117.704 90.0462 116.269 89.1807 117.243C91.0959 116.147 92.8172 114.838 94.6136 113.478C93.5978 111.644 93.0436 109.591 92.999 107.495C92.9166 104.307 95.7749 101.643 95.7749 101.643C95.7749 101.643 98.3229 105.17 97.8719 108.431C97.7071 109.628 96.9386 111.073 96.2331 112.193C98.0246 110.71 99.7043 109.097 101.259 107.366C99.9489 105.766 99.0531 103.868 98.6501 101.839C98.0295 98.7722 100.347 95.7175 100.347 95.7175C100.347 95.7175 103.407 98.6849 103.523 101.917C103.569 103.114 103.065 104.656 102.57 105.861C104.161 104.042 105.607 102.1 106.893 100.055C105.326 98.7236 104.118 97.0218 103.378 95.1042C102.255 92.2532 103.959 88.91 103.959 88.91C103.959 88.91 107.417 91.2567 108.081 94.3526C108.345 95.5939 108.064 97.3321 107.763 98.6194C109.051 96.4093 110.168 94.1044 111.106 91.7246C109.378 90.7057 107.93 89.2727 106.893 87.5548C105.327 84.9923 106.408 81.477 106.408 81.477C106.408 81.477 110.144 83.1522 111.312 86.0275C111.766 87.1427 111.797 88.7936 111.739 90.0712C112.583 87.6968 113.261 85.2666 113.768 82.7982C111.926 82.1096 110.283 80.9742 108.988 79.4939C107.048 77.2877 107.48 73.7143 107.48 73.7143C107.48 73.7143 111.371 74.684 112.988 77.2708C113.618 78.2744 113.933 79.8769 114.091 81.123C114.524 78.6323 114.787 76.1148 114.876 73.5882C112.94 73.2515 111.122 72.4281 109.591 71.1954C107.334 69.3965 107.152 65.8619 107.152 65.8619C107.152 65.8619 111.072 66.1479 113.072 68.3589C113.936 69.3141 114.551 71.0427 114.903 72.2597C114.932 69.6299 114.747 67.0022 114.35 64.4024C112.387 64.4288 110.451 63.9433 108.733 62.9939C106.248 61.6435 105.47 58.2713 105.47 58.2713C105.47 58.2713 109.305 57.8785 111.613 59.675C112.704 60.5235 113.669 62.3223 114.19 63.4375C113.96 62.1378 113.661 60.8512 113.296 59.5828C112.937 58.1598 112.534 56.8142 112.103 55.539C110.218 55.9011 108.271 55.7666 106.454 55.1487C103.831 54.2687 102.505 51.1437 102.505 51.1437C102.505 51.1437 106.141 50.1158 108.67 51.454C109.851 52.0771 111.32 53.4784 111.768 54.6057C110.525 51.4953 109.63 49.3473 108.527 47.3084C106.745 48.0054 104.809 48.2146 102.919 47.9145C100.236 47.5072 98.4271 44.7241 98.4271 44.7241C98.4271 44.7241 101.758 43.1119 104.427 43.9726C105.821 44.4211 107.664 45.8029 108.226 46.7581C106.968 44.6223 106.204 43.495 105.407 42.3531C104.784 42.2464 102.854 41.7955 101.821 40.3239C100.91 39.0567 100.372 37.559 100.27 36.0013C100.27 36.0013 102.98 36.7286 104.088 37.8608C105.47 39.2766 105.652 41.5797 105.673 42.1034C106.35 43.0174 107.087 44.2004 107.947 45.6599C107.368 44.6902 106.934 42.5228 107.135 41.1143C107.533 38.336 110.44 36.0474 110.44 36.0474C110.44 36.0474 112.156 38.8936 111.344 41.4828C110.807 43.293 109.79 44.9242 108.401 46.2029C109.742 48.5568 110.901 51.0092 111.87 53.539C111.683 52.3486 111.475 50.3558 111.897 49.0637C112.789 46.3411 116.115 44.5568 116.115 44.5568C116.115 44.5568 117.327 47.7085 116.062 50.1813C115.18 51.9118 113.857 53.3787 112.226 54.4335C112.808 55.99 113.356 57.6603 113.843 59.4592C114.086 60.2277 114.287 61.0253 114.479 61.8423C114.532 60.6107 114.721 58.921 115.283 57.8543C116.661 55.2772 120.321 54.0723 120.321 54.0723C120.321 54.0723 120.988 57.4664 119.272 59.7162C118.103 61.2617 116.558 62.482 114.784 63.2605C115.268 65.7679 115.545 68.3106 115.613 70.8633C115.892 69.6511 116.362 68.1044 117.087 67.1807C118.93 64.8364 122.823 64.2715 122.823 64.2715C122.823 64.2715 122.886 67.8013 120.765 69.7529C119.315 71.1004 117.544 72.0543 115.62 72.5239C115.613 75.1323 115.421 77.7369 115.046 80.3182C115.531 79.1399 116.302 77.6078 117.228 76.7883C119.492 74.7592 123.502 74.8828 123.502 74.8828C123.502 74.8828 122.942 78.4441 120.464 80.0297C118.768 81.1274 116.819 81.7718 114.803 81.9012C114.375 84.3687 113.78 86.8043 113.022 89.1912C113.715 88.1439 114.677 86.9026 115.659 86.282C118.295 84.6432 122.304 85.4796 122.304 85.4796C122.304 85.4796 121.112 88.9585 118.338 90.11C116.467 90.9025 114.426 91.2078 112.406 90.9973C111.607 93.2312 110.656 95.4077 109.56 97.5115C110.398 96.6654 111.436 95.7781 112.408 95.3878C115.344 94.2072 119.223 95.7587 119.223 95.7587C119.223 95.7587 117.407 99.0437 114.42 99.7104C112.439 100.163 110.376 100.121 108.415 99.5868C107.249 101.59 105.938 103.505 104.49 105.315C105.475 104.627 106.653 103.938 107.676 103.723C110.84 103.056 114.464 105.301 114.464 105.301C114.464 105.301 112.059 108.28 108.937 108.423C106.855 108.525 104.781 108.108 102.9 107.211C101.495 108.901 99.9734 110.49 98.3471 111.968C99.4356 111.468 100.699 111.013 101.741 110.979C105.038 110.872 108.287 113.769 108.287 113.769C108.287 113.769 105.341 116.336 102.178 115.924C100.083 115.664 98.0846 114.893 96.3591 113.677C94.6547 115.066 92.8627 116.344 90.9941 117.503C92.1869 117.187 93.5615 116.943 94.6306 117.093C97.9641 117.578 100.708 121.057 100.708 121.057C100.708 121.057 97.2925 123.115 94.1869 122.143C91.319 121.243 89.7043 118.337 88.7346 118.843C86.1478 120.194 84.8436 121.12 81.578 122.523C82.7417 122.029 80.1016 120.817 81.3307 120.645Z" fill="#020000"/>
<path d="M34.9873 126.082C34.9879 126.591 35.1904 127.079 35.5504 127.439C35.9103 127.799 36.3983 128.002 36.9074 128.002H87.1783C87.6874 128.002 88.1754 127.799 88.5353 127.439C88.8953 127.079 89.0978 126.591 89.0984 126.082V110.547H34.9873V126.082Z" fill="#020000"/>
<path d="M57.2304 113.384H59.5651V114.111H58.1638V115.789H59.4002V116.516H58.1638V118.909H57.228L57.2304 113.384Z" fill="white"/>
<path d="M59.9795 116.259V116.017C59.9795 114.157 60.6801 113.306 61.6765 113.306C62.6729 113.306 63.3736 114.157 63.3736 116.017V116.259C63.3736 118.118 62.6754 118.969 61.6765 118.969C60.6777 118.969 59.9795 118.118 59.9795 116.259ZM62.4378 116.259V116.017C62.4378 114.589 62.1275 114.014 61.6814 114.014C61.2353 114.014 60.925 114.589 60.925 116.017V116.259C60.925 117.684 61.2377 118.261 61.6814 118.261C62.125 118.261 62.4378 117.697 62.4378 116.259Z" fill="white"/>
<path d="M64.1035 113.384H65.1799C66.3533 113.384 67.1848 113.927 67.1848 115.1V115.156C67.198 115.462 67.1206 115.765 66.9623 116.027C66.8041 116.289 66.572 116.499 66.2951 116.63L67.2988 118.899H66.2951L65.4078 116.882H65.2842H65.0417V118.909H64.1035V113.384ZM65.1945 116.189C65.8175 116.189 66.2442 115.873 66.2442 115.163V115.117C66.2442 114.361 65.7909 114.109 65.1654 114.109H65.0345V116.189H65.1945Z" fill="white"/>
<path d="M37.2031 123.016V122.843C37.2031 121.047 38.1219 120.133 39.3511 120.133C39.6455 120.129 39.9378 120.183 40.2117 120.291V121.11C39.9575 120.963 39.6713 120.88 39.3778 120.868C38.6698 120.868 38.1486 121.498 38.1486 122.807V123.049C38.1486 124.538 38.7159 125.02 39.3123 125.02C39.3861 125.02 39.4595 125.009 39.5305 124.989V123.35H38.8299V122.657H40.3814V125.508C40.0315 125.656 39.6558 125.733 39.2759 125.736C38.1413 125.733 37.2031 124.907 37.2031 123.016Z" fill="white"/>
<path d="M41.1934 120.172H42.2722C43.4431 120.172 44.2771 120.715 44.2771 121.888V121.944C44.2892 122.251 44.21 122.555 44.0495 122.818C43.889 123.08 43.6544 123.289 43.3753 123.418L44.3765 125.687H43.3753L42.4855 123.67H42.3643H42.1219V125.697H41.1934V120.172ZM42.2916 122.977C42.9146 122.977 43.3413 122.662 43.3413 121.951V121.905C43.3413 121.149 42.8855 120.897 42.2625 120.897H42.1292V122.977H42.2916Z" fill="white"/>
<path d="M44.9561 120.172H47.4046V120.899H45.8918V122.545H47.2543V123.273H45.9015V124.953H47.4434V125.68H44.9561V120.172Z" fill="white"/>
<path d="M49.1162 120.155H50.1102L51.4242 125.697H50.4884L50.2241 124.468H48.9756L48.7089 125.697H47.7998L49.1162 120.155ZM50.0859 123.757L49.6011 121.542L49.1162 123.757H50.0859Z" fill="white"/>
<path d="M52.2749 120.904H51.3755V120.177H54.0907V120.904H53.201V125.697H52.2749V120.904Z" fill="white"/>
<path d="M56.2656 120.172H58.7142V120.899H57.1941V122.545H58.5445V123.273H57.1941V124.953H58.7336V125.68H56.2656V120.172Z" fill="white"/>
<path d="M59.4219 120.172H60.3771L61.3129 122.511L62.2486 120.172H63.2038V125.697H62.3068V121.939L61.3226 124.364H61.2935L60.3116 121.939V125.697H59.4219V120.172Z" fill="white"/>
<path d="M64.0552 120.172H65.0249C66.2637 120.172 67.0953 120.771 67.0953 121.993V122.007C67.0953 123.19 66.3001 123.811 65.1098 123.867H64.9958V125.697H64.0552V120.172ZM65.1146 123.149C65.7377 123.134 66.1546 122.763 66.1546 122.031V122.014C66.1546 121.251 65.7571 120.889 65.134 120.889H64.991V123.149H65.1146Z" fill="white"/>
<path d="M67.6963 120.172H68.6321V124.955H69.9824V125.682H67.6963V120.172Z" fill="white"/>
<path d="M70.1738 123.047V122.805C70.1738 120.945 70.872 120.094 71.8709 120.094C72.8697 120.094 73.5679 120.945 73.5679 122.805V123.047C73.5679 124.907 72.8697 125.757 71.8709 125.757C70.872 125.757 70.1738 124.907 70.1738 123.047ZM72.6297 123.047V122.805C72.6297 121.377 72.3194 120.802 71.8733 120.802C71.4272 120.802 71.1193 121.377 71.1193 122.805V123.047C71.1193 124.473 71.4296 125.05 71.8733 125.05C72.3169 125.05 72.6297 124.485 72.6297 123.047Z" fill="white"/>
<path d="M75.0032 123.45L73.728 120.172H74.6978L75.4735 122.424L76.2687 120.172H77.2142L75.9366 123.45V125.697H75.0008L75.0032 123.45Z" fill="white"/>
<path d="M77.6895 120.172H80.138V120.899H78.6252V122.545H79.9829V123.273H78.6252V124.953H80.1671V125.68H77.6895V120.172Z" fill="white"/>
<path d="M80.8462 120.172H81.9226C83.096 120.172 83.9275 120.715 83.9275 121.888V121.944C83.9407 122.25 83.8633 122.553 83.705 122.815C83.5468 123.077 83.3147 123.287 83.0378 123.418L84.0415 125.687H83.0378L82.165 123.67H82.0414H81.799V125.697H80.8607L80.8462 120.172ZM81.9444 122.977C82.5675 122.977 82.9942 122.662 82.9942 121.951V121.905C82.9942 121.149 82.5384 120.897 81.9153 120.897H81.7844V122.977H81.9444Z" fill="white"/>
<path d="M84.4581 125.491V124.671C84.7874 124.862 85.157 124.973 85.5369 124.994C85.9345 124.994 86.2351 124.805 86.2351 124.427V124.41C86.2351 124.094 86.1139 123.867 85.5078 123.26C84.6957 122.448 84.4023 122.102 84.4023 121.479V121.464C84.4023 120.652 85.0642 120.116 85.9151 120.116C86.2657 120.105 86.6142 120.172 86.9358 120.312V121.132C86.6569 120.969 86.3421 120.877 86.0194 120.865C85.6412 120.865 85.3381 121.079 85.3381 121.425V121.44C85.3381 121.748 85.4618 121.913 86.0654 122.511C86.9455 123.379 87.1734 123.748 87.1734 124.371V124.388C87.1734 125.197 86.4824 125.743 85.6218 125.743C85.2207 125.739 84.8247 125.653 84.4581 125.491Z" fill="white"/>
<path d="M35.3531 98.1152C35.3179 98.1146 35.2843 98.1003 35.2595 98.0754C35.2346 98.0506 35.2203 98.017 35.2197 97.9819C35.2197 97.9043 35.3167 97.8194 35.4112 97.7394C36.7519 96.5612 38.6574 95.0727 38.6574 93.0483C38.6574 91.5356 37.8259 91.2277 37.3459 91.2277C37.1621 91.2136 36.9774 91.2369 36.8028 91.296C36.6282 91.3552 36.4674 91.449 36.3301 91.5719C36.0983 91.8264 35.9569 92.1502 35.9276 92.4932C35.9276 92.5877 35.901 92.675 35.804 92.675C35.7555 92.675 35.7288 92.6071 35.7191 92.4932C35.7094 92.3792 35.661 91.6107 35.661 91.3343C35.661 91.2471 35.661 91.2083 35.7749 91.1428C36.3139 90.8806 36.9094 90.7557 37.5083 90.7792C39.1932 90.7792 39.9132 91.698 39.9132 92.818C39.9132 94.6751 37.8526 96.2945 36.6186 97.2812C36.5701 97.3176 36.5895 97.3467 36.638 97.3467H37.2877C37.4525 97.3467 38.5823 97.3467 38.9362 97.2909C39.5957 97.2133 39.906 96.8885 40.0272 96.4376C40.0563 96.3236 40.0854 96.2848 40.1411 96.2848C40.1969 96.2848 40.2187 96.3697 40.2187 96.4666C40.1557 96.9286 40.0634 97.3861 39.9423 97.8364C39.8648 98.0934 39.6999 98.1225 39.1084 98.1225L35.3531 98.1152Z" fill="#020000"/>
<path d="M42.7184 98.2777C40.8323 98.2777 40.3159 96.0958 40.3159 94.7358C40.3159 92.5054 41.099 90.772 42.8712 90.772C44.767 90.772 45.2761 92.7817 45.2761 94.3042C45.2761 96.6801 44.3646 98.2777 42.7184 98.2777ZM42.6699 91.2011C41.9426 91.2011 41.436 92.1878 41.436 94.3721C41.436 96.0279 41.8481 97.8486 42.8906 97.8486C43.6663 97.8486 44.1439 96.5346 44.1439 94.6776C44.1536 93.0218 43.7148 91.2011 42.6699 91.2011Z" fill="#020000"/>
<path d="M45.5039 98.1152C45.4688 98.1146 45.4352 98.1003 45.4104 98.0754C45.3855 98.0506 45.3712 98.017 45.3706 97.9819C45.3706 97.9043 45.4676 97.8194 45.5621 97.7394C46.9028 96.5612 48.8083 95.0727 48.8083 93.0483C48.8083 91.5356 47.9768 91.2277 47.4967 91.2277C47.313 91.2136 47.1282 91.2369 46.9537 91.296C46.7791 91.3552 46.6183 91.449 46.481 91.5719C46.2483 91.8258 46.1067 92.1499 46.0785 92.4932C46.0785 92.5877 46.0518 92.675 45.9549 92.675C45.9064 92.675 45.8773 92.6071 45.87 92.4932C45.8627 92.3792 45.8118 91.6107 45.8118 91.3343C45.8118 91.2471 45.8118 91.2083 45.9258 91.1428C46.4648 90.8806 47.0602 90.7557 47.6592 90.7792C49.3562 90.7792 50.0641 91.698 50.0641 92.818C50.0641 94.6751 48.0034 96.2945 46.7694 97.2812C46.721 97.3176 46.7404 97.3467 46.7888 97.3467H47.4386C47.601 97.3467 48.7332 97.3467 49.0871 97.2909C49.7465 97.2133 50.0568 96.8885 50.1781 96.4376C50.2072 96.3236 50.2362 96.2848 50.292 96.2848C50.3478 96.2848 50.3696 96.3697 50.3696 96.4666C50.3068 96.9289 50.2137 97.3864 50.0908 97.8364C50.0156 98.0934 49.8629 98.1225 49.2592 98.1225L45.5039 98.1152Z" fill="#020000"/>
<path d="M52.5346 93.7103V92.4569C52.5346 92.2266 52.5346 92.1126 52.3891 92.1126C52.2073 92.1126 51.4897 92.486 51.2788 92.5708C51.2369 92.5913 51.1918 92.6045 51.1454 92.6096C51.123 92.6029 51.1034 92.5891 51.0894 92.5703C51.0755 92.5515 51.0679 92.5288 51.0679 92.5054C51.0714 92.4764 51.0821 92.4489 51.0991 92.4252C51.116 92.4014 51.1386 92.3823 51.1648 92.3696C51.2036 92.3502 53.0413 91.1574 53.3758 90.8956C53.4449 90.8346 53.5283 90.792 53.6183 90.772C53.7055 90.772 53.7322 90.8762 53.7322 90.9732C53.7322 91.0702 53.6764 91.9963 53.6764 93.463V95.2327C53.6764 96.1516 53.6764 96.9661 53.7152 97.388C53.7419 97.6934 53.7904 97.8389 54.0959 97.9044C54.3056 97.935 54.5168 97.9545 54.7286 97.9625C54.7408 97.9628 54.7529 97.9656 54.764 97.9707C54.7751 97.9758 54.785 97.9831 54.7932 97.9922C54.8013 98.0013 54.8076 98.0119 54.8115 98.0235C54.8154 98.0351 54.8169 98.0473 54.8159 98.0595C54.8159 98.125 54.7674 98.1444 54.6632 98.1444C53.9359 98.1444 53.3225 98.1153 53.0631 98.1153C52.8425 98.1153 52.0376 98.1444 51.4242 98.1444C51.32 98.1444 51.2618 98.125 51.2618 98.0595C51.2618 97.9941 51.3006 97.9625 51.3394 97.9625C51.5959 97.9563 51.8518 97.9336 52.1055 97.8947C52.411 97.8292 52.4594 97.6934 52.4885 97.388C52.5273 96.9661 52.5467 96.1516 52.537 95.2327L52.5346 93.7103Z" fill="#020000"/>
<path d="M58.4064 98.0304C58.2537 97.9625 58.2246 97.914 58.2246 97.7031C58.2246 97.177 58.2634 96.6024 58.2731 96.4497C58.2828 96.297 58.3119 96.2073 58.387 96.2073C58.4622 96.2073 58.484 96.2945 58.484 96.3697C58.492 96.5342 58.5205 96.6971 58.5689 96.8546C58.6495 97.1499 58.8302 97.408 59.08 97.5848C59.3298 97.7617 59.6333 97.8464 59.9386 97.8243C60.8017 97.8243 61.2211 97.24 61.2211 96.7309C61.2211 96.263 61.078 95.8218 60.2829 95.2012L59.8441 94.8545C58.7895 94.0326 58.4258 93.3611 58.4258 92.5853C58.4258 91.5332 59.3059 90.7768 60.6368 90.7768C61.0674 90.7712 61.4966 90.8259 61.912 90.9392C61.9969 90.9586 62.0454 90.9852 62.0454 91.0531C62.0454 91.1768 62.0066 91.4556 62.0066 92.2023C62.0066 92.4132 61.9775 92.4908 61.9023 92.4908C61.8272 92.4908 61.8053 92.4326 61.8053 92.3162C61.7885 92.0868 61.7041 91.8675 61.5629 91.6859C61.441 91.5274 61.2819 91.4015 61.0996 91.3195C60.9172 91.2374 60.7175 91.2017 60.518 91.2156C59.8101 91.2156 59.3786 91.6277 59.3786 92.2023C59.3786 92.6435 59.5992 92.9781 60.3944 93.5817L60.6611 93.7829C61.8199 94.6533 62.232 95.3151 62.232 96.2242C62.2369 96.5556 62.1568 96.8826 61.9993 97.1742C61.8418 97.4657 61.6123 97.7121 61.3326 97.8898C60.874 98.1656 60.345 98.302 59.8101 98.2825C59.3295 98.3009 58.8506 98.2149 58.4064 98.0304Z" fill="#020000"/>
<path d="M65.0976 91.4411L63.6697 91.4799C63.1145 91.4993 62.8842 91.5453 62.7412 91.7563C62.6695 91.8593 62.6147 91.973 62.5787 92.0932C62.5593 92.1684 62.5302 92.2072 62.4745 92.2072C62.4187 92.2072 62.3872 92.1587 62.3872 92.0544C62.3872 91.9017 62.569 91.029 62.5884 90.9538C62.6175 90.8277 62.6466 90.772 62.7024 90.772C62.836 90.8224 62.974 90.8605 63.1145 90.8859C63.3933 90.915 63.757 90.9344 64.0721 90.9344H67.8613C68.0829 90.9345 68.3041 90.9183 68.5232 90.8859C68.6086 90.8646 68.6952 90.8485 68.7826 90.8374C68.848 90.8374 68.8577 90.8956 68.8577 91.0387C68.8577 91.2399 68.8287 91.9017 68.8287 92.149C68.8287 92.246 68.802 92.3042 68.7438 92.3042C68.6856 92.3042 68.6468 92.2557 68.6371 92.1126V92.006C68.6202 91.7635 68.3608 91.4896 67.5074 91.4702L66.2952 91.4411V95.3685C66.2952 96.2485 66.2952 97.0049 66.3413 97.4171C66.3704 97.6862 66.4286 97.9019 66.7171 97.9335C66.8777 97.9563 67.0397 97.9693 67.2019 97.9722C67.3062 97.9722 67.3547 98.0013 67.3547 98.0498C67.3547 98.0983 67.2795 98.1444 67.1728 98.1444C66.5401 98.1444 65.9388 98.1153 65.6697 98.1153C65.4491 98.1153 64.8455 98.1444 64.4576 98.1444C64.3339 98.1444 64.2661 98.1153 64.2661 98.0498C64.2661 97.9844 64.3048 97.9722 64.4188 97.9722C64.5354 97.9723 64.6517 97.9593 64.7655 97.9335C64.957 97.8947 65.0079 97.691 65.0418 97.4074C65.0903 97.0049 65.0903 96.2485 65.0903 95.3685L65.0976 91.4411Z" fill="#020000"/>
<path d="M69.9507 93.6811C69.9507 92.2265 69.9507 91.9574 69.9337 91.6519C69.9168 91.3464 69.8368 91.167 69.5216 91.1064C69.3984 91.0848 69.2734 91.0751 69.1483 91.0773C69.0416 91.0773 68.9858 91.0579 68.9858 90.9901C68.9858 90.9222 69.0513 90.9052 69.1943 90.9052C69.4537 90.9052 69.7325 90.9052 69.9725 90.9052C70.2125 90.9052 70.4404 90.9246 70.5738 90.9246C70.8817 90.9246 72.7872 90.9246 72.969 90.9246C73.1074 90.9127 73.2449 90.8933 73.3812 90.8664C73.4307 90.8487 73.4819 90.8357 73.5339 90.8276C73.5824 90.8276 73.5921 90.8664 73.5921 90.9149C73.5553 91.1211 73.5294 91.3291 73.5145 91.538C73.5145 91.6325 73.4854 92.0543 73.466 92.1683C73.466 92.2168 73.4369 92.275 73.3715 92.275C73.306 92.275 73.2842 92.2265 73.2842 92.1392C73.2846 92.022 73.2649 91.9055 73.226 91.7949C73.1605 91.6228 73.0636 91.5089 72.586 91.4507C72.4235 91.4313 71.4174 91.4119 71.2259 91.4119C71.1774 91.4119 71.158 91.441 71.158 91.5089V93.9332C71.158 94.0011 71.158 94.0399 71.2259 94.0399C71.4368 94.0399 72.5375 94.0399 72.7581 94.0205C72.9244 94.0313 73.0888 93.9794 73.2187 93.875C73.2842 93.7999 73.323 93.7514 73.3715 93.7514C73.4199 93.7514 73.4369 93.7708 73.4369 93.829C73.4369 93.8871 73.4005 94.0399 73.3618 94.5272C73.3618 94.7187 73.323 95.1017 73.323 95.1696C73.323 95.2375 73.323 95.3514 73.2357 95.3514C73.2239 95.3531 73.2119 95.352 73.2007 95.3482C73.1895 95.3444 73.1793 95.338 73.171 95.3295C73.1627 95.3209 73.1566 95.3106 73.1531 95.2992C73.1496 95.2879 73.1488 95.2759 73.1508 95.2642C73.1459 95.1487 73.133 95.0336 73.1121 94.9199C73.0636 94.7284 72.9302 94.5854 72.5763 94.5466C72.3945 94.5272 71.4465 94.5175 71.2162 94.5175C71.1677 94.5175 71.158 94.5563 71.158 94.6144V95.3708C71.158 95.6957 71.158 96.583 71.158 96.8545C71.1774 97.514 71.3302 97.6594 72.3072 97.6594C72.6125 97.6782 72.9185 97.6387 73.209 97.543C73.4515 97.4291 73.5727 97.2279 73.6381 96.8351C73.6575 96.7285 73.6769 96.6921 73.7448 96.6921C73.8127 96.6921 73.82 96.7673 73.82 96.8642C73.8044 97.2207 73.7631 97.5756 73.6963 97.9261C73.6284 98.1685 73.5436 98.1685 73.1799 98.1685C72.4526 98.1685 71.9338 98.1491 71.5217 98.1394C71.1096 98.1297 70.8138 98.1103 70.5277 98.1103C70.421 98.1103 70.2101 98.1103 69.9798 98.1103C69.7495 98.1103 69.5119 98.1297 69.3204 98.1297C69.1943 98.1297 69.1289 98.1006 69.1289 98.0352C69.1289 97.9697 69.1677 97.9576 69.2816 97.9576C69.3974 97.9577 69.5129 97.9447 69.6259 97.9188C69.8174 97.88 69.8683 97.6764 69.9047 97.3927C69.9507 96.9903 69.9507 96.2339 69.9507 95.3539V93.6811Z" fill="#020000"/>
<path d="M74.4529 91.8435C74.2322 91.3175 74.0698 91.2108 73.7256 91.1162C73.6033 91.0872 73.4778 91.0742 73.3522 91.0775C73.2649 91.0775 73.2358 91.0484 73.2358 90.9902C73.2358 90.932 73.3425 90.9053 73.4783 90.9053C73.985 90.9053 74.5329 90.9344 74.8674 90.9344C75.1098 90.9344 75.5656 90.9053 76.0456 90.9053C76.1596 90.9053 76.2663 90.9247 76.2663 90.9902C76.2663 91.0556 76.2081 91.0775 76.1208 91.0775C75.9924 91.0643 75.863 91.0878 75.7474 91.1453C75.7158 91.168 75.6905 91.1984 75.674 91.2336C75.6574 91.2689 75.6502 91.3077 75.6529 91.3466C75.693 91.5979 75.7672 91.8426 75.8735 92.0739L77.5196 96.4207H77.5584C77.9706 95.3685 79.2142 92.2848 79.4446 91.652C79.4914 91.5393 79.52 91.4198 79.5294 91.2981C79.5319 91.2583 79.5211 91.2189 79.4987 91.186C79.4763 91.1531 79.4436 91.1285 79.4058 91.1162C79.2813 91.0805 79.1521 91.0641 79.0227 91.0678C78.9354 91.0678 78.8603 91.0678 78.8603 90.9902C78.8603 90.9126 78.9476 90.8956 79.1294 90.8956C79.6143 90.8956 80.0094 90.9247 80.1331 90.9247C80.2955 90.9247 80.7464 90.8956 81.0349 90.8956C81.1586 90.8956 81.2361 90.915 81.2361 90.9805C81.2361 91.0459 81.1779 91.0678 81.081 91.0678C80.9172 91.0589 80.7544 91.0985 80.6131 91.1817C80.4894 91.269 80.344 91.4241 80.087 92.0448C79.7137 92.9442 79.4542 93.4606 78.9354 94.6388C78.3245 96.0376 77.8736 97.0825 77.6627 97.5601C77.4202 98.1153 77.3572 98.268 77.2214 98.268C77.0857 98.268 77.0396 98.1347 76.8578 97.6838L74.4529 91.8435Z" fill="#020000"/>
<path d="M81.5976 93.6811C81.5976 92.2265 81.5976 91.9574 81.5782 91.652C81.5588 91.3465 81.4618 91.1671 81.2509 91.1162C81.1383 91.0883 81.0226 91.0752 80.9066 91.0774C80.8121 91.0774 80.7539 91.058 80.7539 90.9804C80.7539 90.9029 80.8315 90.9053 80.9842 90.9053C81.3479 90.9053 81.954 90.9344 82.2279 90.9344C82.5019 90.9344 83.0328 90.9053 83.3964 90.9053C83.5225 90.9053 83.5977 90.9247 83.5977 90.9804C83.5977 91.0362 83.5419 91.0774 83.4449 91.0774C83.3489 91.0784 83.2531 91.0882 83.1588 91.1065C82.8994 91.155 82.8219 91.3174 82.8025 91.652C82.7831 91.9865 82.7831 92.2265 82.7831 93.6811V95.3782C82.7831 96.3067 82.7831 97.0752 82.8219 97.4752C82.851 97.7322 82.9188 97.9043 83.2049 97.9431C83.3656 97.9659 83.5275 97.9788 83.6898 97.9819C83.794 97.9819 83.8425 98.011 83.8425 98.0595C83.8425 98.108 83.7649 98.154 83.6607 98.154C83.0279 98.154 82.4243 98.125 82.1673 98.125C81.9467 98.125 81.343 98.154 80.9551 98.154C80.8315 98.154 80.7636 98.125 80.7636 98.0595C80.7636 97.994 80.8024 97.9819 80.9163 97.9819C81.0322 97.982 81.1477 97.969 81.2606 97.9431C81.4521 97.9043 81.503 97.7419 81.5394 97.4583C81.5879 97.0558 81.5879 96.2994 81.5879 95.3709L81.5976 93.6811Z" fill="#020000"/>
<path d="M85.2559 93.6811C85.2559 92.2265 85.2559 91.9574 85.2365 91.6519C85.2171 91.3464 85.1395 91.167 84.8243 91.1064C84.7011 91.0848 84.5761 91.0751 84.451 91.0773C84.3443 91.0773 84.2886 91.0579 84.2886 90.9901C84.2886 90.9222 84.354 90.9052 84.4971 90.9052C84.7565 90.9052 85.0353 90.9052 85.2729 90.9052C85.5104 90.9052 85.7432 90.9246 85.8765 90.9246C86.1844 90.9246 88.0899 90.9246 88.2718 90.9246C88.4101 90.9127 88.5477 90.8933 88.6839 90.8664C88.7335 90.8487 88.7846 90.8357 88.8366 90.8276C88.8851 90.8276 88.8948 90.8664 88.8948 90.9149C88.858 91.1211 88.8321 91.3291 88.8172 91.538C88.8172 91.6325 88.7881 92.0543 88.7687 92.1683C88.7687 92.2168 88.7397 92.275 88.6742 92.275C88.6087 92.275 88.5869 92.2265 88.5869 92.1392C88.5872 92.0222 88.5683 91.9059 88.5312 91.7949C88.4633 91.6228 88.3663 91.5089 87.8887 91.4507C87.7263 91.4313 86.7202 91.4119 86.5287 91.4119C86.4802 91.4119 86.4608 91.441 86.4608 91.5089V93.9332C86.4608 94.0011 86.4608 94.0399 86.5287 94.0399C86.7396 94.0399 87.8402 94.0399 88.0608 94.0205C88.2815 94.0011 88.4342 93.972 88.519 93.875C88.6039 93.778 88.6257 93.7514 88.6742 93.7514C88.7227 93.7514 88.7396 93.7708 88.7396 93.829C88.7396 93.8871 88.7033 94.0399 88.6645 94.5272C88.6645 94.7187 88.6257 95.1017 88.6257 95.1696C88.6257 95.2375 88.6257 95.3514 88.5384 95.3514C88.5267 95.3531 88.5147 95.352 88.5034 95.3482C88.4922 95.3444 88.482 95.338 88.4737 95.3295C88.4655 95.3209 88.4593 95.3106 88.4558 95.2992C88.4523 95.2879 88.4515 95.2759 88.4536 95.2642C88.4487 95.1487 88.4357 95.0336 88.4148 94.9199C88.3663 94.7284 88.233 94.5854 87.879 94.5466C87.6972 94.5272 86.7493 94.5175 86.519 94.5175C86.4705 94.5175 86.4608 94.5563 86.4608 94.6144V95.3708C86.4608 95.6957 86.4608 96.583 86.4608 96.8545C86.4802 97.514 86.6329 97.6594 87.6099 97.6594C87.9152 97.6782 88.2213 97.6387 88.5118 97.543C88.7542 97.4291 88.8754 97.2279 88.9409 96.8351C88.9603 96.7285 88.9797 96.6921 89.0475 96.6921C89.1154 96.6921 89.1251 96.7673 89.1251 96.8642C89.1088 97.2208 89.0666 97.5756 88.9991 97.9261C88.9312 98.1685 88.8463 98.1685 88.4827 98.1685C87.7554 98.1685 87.2366 98.1491 86.8244 98.1394C86.4123 98.1297 86.1165 98.1103 85.8304 98.1103C85.7238 98.1103 85.5129 98.1103 85.285 98.1103C85.0571 98.1103 84.8147 98.1297 84.6231 98.1297C84.4971 98.1297 84.4316 98.1006 84.4316 98.0352C84.4316 97.9697 84.4704 97.9576 84.5843 97.9576C84.7002 97.9577 84.8157 97.9447 84.9286 97.9188C85.1201 97.88 85.171 97.6764 85.2074 97.3927C85.2559 96.9903 85.2559 96.2339 85.2559 95.3539V93.6811Z" fill="#020000"/>
<path d="M89.6583 91.7756C89.6457 91.5816 89.6916 91.3883 89.7902 91.2207C89.8888 91.0532 90.0355 90.9192 90.2112 90.836C90.3869 90.7528 90.5835 90.7244 90.7756 90.7544C90.9677 90.7844 91.1463 90.8714 91.2883 91.0042C91.4303 91.137 91.5291 91.3093 91.5719 91.499C91.6147 91.6886 91.5996 91.8867 91.5284 92.0676C91.4572 92.2485 91.3333 92.4038 91.1728 92.5134C91.0122 92.623 90.8224 92.6819 90.628 92.6823C90.5039 92.6902 90.3795 92.6727 90.2624 92.6307C90.1454 92.5888 90.0381 92.5233 89.9473 92.4384C89.8565 92.3535 89.784 92.2509 89.7343 92.1369C89.6846 92.0229 89.6587 91.8999 89.6583 91.7756ZM91.3796 91.7756C91.3796 91.5737 91.2994 91.38 91.1566 91.2373C91.0139 91.0945 90.8202 91.0143 90.6183 91.0143C90.4164 91.0143 90.2228 91.0945 90.0801 91.2373C89.9373 91.38 89.8571 91.5737 89.8571 91.7756C89.8571 91.9775 89.9373 92.1711 90.0801 92.3138C90.2228 92.4566 90.4164 92.5368 90.6183 92.5368C90.8202 92.5368 91.0139 92.4566 91.1566 92.3138C91.2994 92.1711 91.3796 91.9775 91.3796 91.7756ZM90.2232 91.6277V91.3683C90.2232 91.3052 90.1795 91.2955 90.0971 91.2955C90.0971 91.2955 90.0753 91.2834 90.0753 91.264C90.0753 91.2446 90.0971 91.2228 90.1286 91.2228H90.165C90.1868 91.2228 90.2692 91.2228 90.342 91.2228C90.4147 91.2228 90.4777 91.2228 90.5844 91.2228C90.7614 91.2228 91.0426 91.2519 91.0426 91.504C91.0426 91.6083 91.0014 91.6907 90.8244 91.8168L91.0135 92.035C91.1468 92.1925 91.1687 92.1925 91.1905 92.1925C91.2123 92.1925 91.222 92.1926 91.222 92.2216C91.222 92.2507 91.2099 92.2653 91.1274 92.2653C91.0475 92.2762 90.9661 92.2632 90.8936 92.2278C90.8211 92.1924 90.7607 92.1362 90.7202 92.0665L90.5747 91.8677H90.4486V91.9622C90.4486 92.1489 90.4608 92.1707 90.4705 92.1804C90.5041 92.191 90.5395 92.1951 90.5747 92.1925C90.5965 92.1925 90.6062 92.1926 90.6062 92.2216C90.6069 92.2273 90.6064 92.2331 90.6046 92.2386C90.6028 92.2441 90.5999 92.249 90.5959 92.2532C90.592 92.2574 90.5872 92.2606 90.5818 92.2627C90.5765 92.2648 90.5707 92.2657 90.565 92.2653H90.5214C90.502 92.2653 90.4074 92.2532 90.3541 92.2532L90.1989 92.2653H90.148C90.1262 92.2653 90.0729 92.2532 90.0729 92.2216C90.0729 92.1901 90.085 92.1925 90.1044 92.1925C90.1989 92.1925 90.2086 92.1926 90.2207 92.1295C90.2259 92.0391 90.2259 91.9484 90.2207 91.858L90.2232 91.6277ZM90.4511 91.7319C90.4972 91.754 90.5478 91.7648 90.5989 91.7634C90.6309 91.7662 90.6629 91.7595 90.6911 91.7441C90.7209 91.7254 90.7454 91.6992 90.762 91.6682C90.7786 91.6371 90.7867 91.6023 90.7856 91.5671C90.786 91.5357 90.7799 91.5045 90.7677 91.4756C90.7555 91.4467 90.7375 91.4206 90.7147 91.399C90.6919 91.3773 90.665 91.3607 90.6354 91.35C90.6059 91.3392 90.5745 91.3348 90.5432 91.3368C90.5432 91.3368 90.4705 91.3368 90.4486 91.3586L90.4511 91.7319Z" fill="#020000"/>
<path d="M42.1901 101.621C42.1381 101.369 42.0173 101.136 41.841 100.949C41.7232 100.892 41.5937 100.863 41.4628 100.864C41.3682 100.864 41.3101 100.864 41.3101 100.78C41.3101 100.695 41.3876 100.695 41.5186 100.695C42.0034 100.695 42.5295 100.721 42.6168 100.721C42.704 100.721 43.1162 100.695 43.6641 100.695C43.7974 100.695 43.8629 100.721 43.8629 100.78C43.8629 100.838 43.7877 100.864 43.6932 100.864C43.6106 100.857 43.5274 100.869 43.4507 100.901C43.3659 100.94 43.3465 101.005 43.3465 101.109C43.3948 101.404 43.4645 101.695 43.555 101.98C43.715 102.603 44.595 105.468 44.7672 105.997H44.7938L46.629 101.073C46.7236 100.806 46.7891 100.731 46.8715 100.731C46.9539 100.731 47.0218 100.874 47.1454 101.175L49.1116 105.931H49.1407C49.3104 105.299 50.0667 102.801 50.3965 101.696C50.4539 101.519 50.4857 101.334 50.491 101.148C50.491 100.995 50.4062 100.864 50.0377 100.864C49.9431 100.864 49.8777 100.835 49.8777 100.78C49.8777 100.724 49.9528 100.695 50.0934 100.695C50.5953 100.695 50.9928 100.721 51.0777 100.721C51.1625 100.721 51.5626 100.695 51.8632 100.695C51.9674 100.695 52.0329 100.712 52.0329 100.77C52.0329 100.828 51.9844 100.864 51.8995 100.864C51.7879 100.862 51.6767 100.878 51.5698 100.91C51.3419 100.995 51.2377 101.374 51.0389 101.914C50.6049 103.104 49.6134 106.111 49.1479 107.529C49.0461 107.861 48.9976 107.975 48.874 107.975C48.7503 107.975 48.7237 107.861 48.5806 107.51L46.6145 102.775H46.5951C46.4157 103.26 45.1599 106.603 44.7526 107.473C44.5732 107.861 44.5247 107.975 44.4132 107.975C44.3017 107.975 44.2799 107.871 44.195 107.623L42.1901 101.621Z" fill="#020000"/>
<path d="M52.8306 103.437C52.8306 101.999 52.8306 101.74 52.8112 101.432C52.7918 101.124 52.6972 100.947 52.4887 100.901C52.3775 100.875 52.2635 100.863 52.1493 100.864C52.0548 100.864 51.9966 100.845 51.9966 100.77C51.9966 100.695 52.0742 100.695 52.2245 100.695C52.5833 100.695 53.1797 100.721 53.4536 100.721C53.7276 100.721 54.2488 100.695 54.6076 100.695C54.7312 100.695 54.8064 100.712 54.8064 100.77C54.8064 100.828 54.7482 100.864 54.6536 100.864C54.5585 100.866 54.4637 100.875 54.37 100.891C54.1155 100.94 54.0403 101.1 54.0209 101.432C54.0015 101.764 54.0015 101.999 54.0015 103.437V105.09C54.0015 106.006 54.0015 106.753 54.0403 107.16C54.0694 107.403 54.1348 107.587 54.4185 107.623C54.5791 107.647 54.7411 107.66 54.9034 107.662C55.0076 107.662 55.0537 107.689 55.0537 107.737C55.0537 107.786 54.9785 107.832 54.8743 107.832C54.2512 107.832 53.6621 107.803 53.4003 107.803C53.1384 107.803 52.5857 107.832 52.2075 107.832C52.0863 107.832 52.0184 107.803 52.0184 107.737C52.0184 107.672 52.0572 107.662 52.1711 107.662C52.2854 107.662 52.3992 107.649 52.5105 107.623C52.6996 107.587 52.753 107.425 52.7845 107.139C52.833 106.741 52.833 105.994 52.833 105.078L52.8306 103.437Z" fill="#020000"/>
<path d="M56.9518 106.545C56.9712 107.284 57.0924 107.529 57.2815 107.597C57.4386 107.644 57.6023 107.666 57.7664 107.662C57.8706 107.662 57.9264 107.682 57.9264 107.737C57.9264 107.793 57.8415 107.832 57.7106 107.832C57.0948 107.832 56.7166 107.803 56.5372 107.803C56.4524 107.803 56.0087 107.832 55.5166 107.832C55.393 107.832 55.3081 107.832 55.3081 107.737C55.3081 107.643 55.3663 107.662 55.4608 107.662C55.6038 107.665 55.7464 107.648 55.8851 107.614C56.1275 107.539 56.1687 107.265 56.1784 106.443L56.2633 100.845C56.2633 100.656 56.2924 100.523 56.3869 100.523C56.4815 100.523 56.576 100.646 56.736 100.816C56.85 100.94 58.2876 102.481 59.6671 103.851C60.3095 104.494 61.5871 105.856 61.7471 106.006H61.8005L61.7083 101.761C61.7083 101.184 61.6114 101.005 61.3859 100.91C61.2227 100.865 61.0533 100.846 60.8841 100.855C60.7701 100.855 60.7338 100.826 60.7338 100.77C60.7338 100.714 60.838 100.685 60.9762 100.685C61.4611 100.685 61.9217 100.712 62.1205 100.712C62.2247 100.712 62.5835 100.685 63.0466 100.685C63.1702 100.685 63.2648 100.685 63.2648 100.77C63.2648 100.855 63.209 100.855 63.0951 100.855C62.9998 100.851 62.9044 100.86 62.8114 100.881C62.5472 100.959 62.4696 101.158 62.4599 101.686L62.3581 107.653C62.3581 107.861 62.3193 107.946 62.2344 107.946C62.1496 107.946 62.0162 107.842 61.912 107.737C61.318 107.17 60.1059 105.931 59.124 104.957C58.0937 103.936 57.0439 102.755 56.8742 102.576H56.8451L56.9518 106.545Z" fill="#020000"/>
<path d="M64.8722 106.545C64.8916 107.284 65.0153 107.529 65.2044 107.597C65.3614 107.645 65.5251 107.667 65.6892 107.662C65.7935 107.662 65.8517 107.682 65.8517 107.737C65.8517 107.793 65.7668 107.832 65.6335 107.832C65.0177 107.832 64.6395 107.803 64.4601 107.803C64.3752 107.803 63.9316 107.832 63.4395 107.832C63.3182 107.832 63.231 107.832 63.231 107.737C63.231 107.643 63.2891 107.662 63.3837 107.662C63.5266 107.665 63.6693 107.648 63.8079 107.614C64.0504 107.539 64.0916 107.265 64.1013 106.443L64.1861 100.845C64.1861 100.656 64.2152 100.523 64.3098 100.523C64.4043 100.523 64.4989 100.646 64.6589 100.816C64.7728 100.94 66.2105 102.481 67.5899 103.851C68.2324 104.494 69.51 105.856 69.67 106.006H69.7185L69.6239 101.761C69.6239 101.184 69.5294 101.005 69.3015 100.91C69.1383 100.865 68.9688 100.846 68.7997 100.855C68.6881 100.855 68.6493 100.826 68.6493 100.77C68.6493 100.714 68.7536 100.685 68.8918 100.685C69.3766 100.685 69.8348 100.712 70.0336 100.712C70.1379 100.712 70.4967 100.685 70.9622 100.685C71.0834 100.685 71.1779 100.685 71.1779 100.77C71.1779 100.855 71.1222 100.855 71.0082 100.855C70.9129 100.851 70.8176 100.86 70.7246 100.881C70.4603 100.959 70.3852 101.158 70.3755 101.686L70.2858 107.662C70.2858 107.871 70.247 107.956 70.1621 107.956C70.0773 107.956 69.9439 107.851 69.8421 107.747C69.2457 107.18 68.036 105.941 67.0517 104.966C66.0214 103.946 64.9716 102.765 64.8019 102.586H64.7728L64.8722 106.545Z" fill="#020000"/>
<path d="M72.6349 103.437C72.6349 101.999 72.6349 101.74 72.6155 101.432C72.5961 101.124 72.5209 100.959 72.2082 100.891C72.0864 100.872 71.9631 100.863 71.8397 100.864C71.7354 100.864 71.6797 100.845 71.6797 100.78C71.6797 100.714 71.7451 100.695 71.8882 100.695H72.6543C72.8967 100.695 73.1173 100.714 73.2482 100.714C73.5513 100.714 75.4301 100.714 75.612 100.714C75.7488 100.704 75.8848 100.685 76.0192 100.658C76.0689 100.641 76.12 100.628 76.172 100.62C76.218 100.62 76.2277 100.658 76.2277 100.704C76.1917 100.908 76.1666 101.114 76.1526 101.32C76.1526 101.415 76.1235 101.832 76.1041 101.943C76.1041 101.992 76.075 102.048 76.0095 102.048C75.9441 102.048 75.9247 102.001 75.9247 101.917C75.9253 101.8 75.9064 101.685 75.8689 101.575C75.8011 101.405 75.7065 101.291 75.2338 101.235C75.0738 101.216 74.0822 101.197 73.8931 101.197C73.8446 101.197 73.8252 101.226 73.8252 101.291V103.684C73.8252 103.749 73.8252 103.788 73.8931 103.788C74.0992 103.788 75.1877 103.788 75.4059 103.769C75.6241 103.749 75.7744 103.723 75.8592 103.628C75.9441 103.534 75.9635 103.505 76.0095 103.505C76.0556 103.505 76.075 103.524 76.075 103.58C76.075 103.636 76.0386 103.788 75.9999 104.271C75.9999 104.46 75.9635 104.838 75.9635 104.903C75.9635 104.969 75.9635 105.083 75.8786 105.083C75.7938 105.083 75.7914 105.046 75.7914 104.998C75.7887 104.884 75.7765 104.77 75.755 104.659C75.7065 104.469 75.5756 104.326 75.2265 104.29C75.0447 104.271 74.1089 104.261 73.8834 104.261C73.8349 104.261 73.8252 104.297 73.8252 104.356V105.09C73.8252 105.413 73.8252 106.28 73.8252 106.545C73.8446 107.199 73.9949 107.34 74.9598 107.34C75.2609 107.358 75.5628 107.32 75.8495 107.226C76.092 107.112 76.2083 106.916 76.2738 106.528C76.2932 106.423 76.3126 106.385 76.378 106.385C76.4435 106.385 76.4556 106.46 76.4556 106.554C76.4389 106.907 76.3976 107.258 76.332 107.604C76.2665 107.847 76.1792 107.847 75.8204 107.847C75.1125 107.847 74.5913 107.827 74.1864 107.817C73.7816 107.808 73.4858 107.788 73.2022 107.788C73.0979 107.788 72.8894 107.788 72.664 107.788C72.4385 107.788 72.2009 107.808 72.0118 107.808C71.8882 107.808 71.8227 107.779 71.8227 107.713C71.8227 107.648 71.8591 107.638 71.973 107.638C72.0873 107.638 72.2011 107.625 72.3124 107.599C72.5015 107.563 72.5549 107.357 72.5864 107.08C72.6349 106.683 72.6349 105.936 72.6349 105.066V103.437Z" fill="#020000"/>
<path d="M77.9488 103.437C77.9488 101.999 77.9488 101.74 77.9294 101.432C77.91 101.124 77.8349 100.959 77.5222 100.891C77.4003 100.872 77.277 100.863 77.1537 100.864C77.0494 100.864 76.9937 100.845 76.9937 100.78C76.9937 100.714 77.0591 100.695 77.2021 100.695C77.7016 100.695 78.2979 100.721 78.4967 100.721C78.8192 100.721 79.5368 100.695 79.8301 100.695C80.4241 100.695 81.0593 100.75 81.5684 101.1C81.7679 101.252 81.9298 101.448 82.0416 101.673C82.1534 101.898 82.2121 102.145 82.2132 102.397C82.2132 103.095 81.9199 103.737 80.9647 104.513C81.8059 105.572 82.4581 106.414 83.0157 107C83.5466 107.548 83.9321 107.614 84.0751 107.643C84.1621 107.661 84.2506 107.67 84.3394 107.672C84.4145 107.672 84.4533 107.699 84.4533 107.747C84.4533 107.796 84.3879 107.842 84.2739 107.842H83.3769C83.0299 107.874 82.6807 107.812 82.366 107.662C81.9587 107.444 81.5999 107 81.0714 106.273C80.6932 105.752 80.2568 105.109 80.1356 104.966C80.1141 104.943 80.0872 104.924 80.0573 104.913C80.0274 104.902 79.9953 104.898 79.9635 104.901L79.1416 104.882C79.0955 104.882 79.0665 104.901 79.0665 104.959V105.09C79.0665 105.97 79.0665 106.717 79.1125 107.114C79.1416 107.388 79.1974 107.599 79.481 107.633C79.6354 107.655 79.7907 107.667 79.9465 107.672C80.0216 107.672 80.058 107.699 80.058 107.747C80.058 107.796 79.9925 107.842 79.8689 107.842C79.321 107.842 78.6228 107.813 78.4798 107.813C78.3004 107.813 77.704 107.842 77.3258 107.842C77.2046 107.842 77.1367 107.813 77.1367 107.747C77.1367 107.682 77.1755 107.672 77.2894 107.672C77.4037 107.672 77.5175 107.659 77.6288 107.633C77.8179 107.597 77.8713 107.391 77.9028 107.114C77.9513 106.717 77.9513 105.97 77.9513 105.1L77.9488 103.437ZM79.064 104.183C79.064 104.288 79.0834 104.324 79.1489 104.353C79.3854 104.42 79.6304 104.452 79.8762 104.448C80.1121 104.48 80.3516 104.423 80.5477 104.288C80.8314 104.079 81.1053 103.643 81.1053 102.869C81.1053 101.526 80.218 101.138 79.6507 101.138C79.4826 101.131 79.3142 101.143 79.1489 101.175C79.0834 101.194 79.064 101.233 79.064 101.308V104.183Z" fill="#020000"/>
<path d="M89.0984 76.2599C89.0984 75.7455 88.894 75.2522 88.5303 74.8885C88.1666 74.5248 87.6733 74.3204 87.1589 74.3204H36.9194C36.4051 74.3204 35.9118 74.5248 35.548 74.8885C35.1843 75.2522 34.98 75.7455 34.98 76.2599V87.8531H89.0984V76.2599Z" fill="#020000"/>
<path d="M39.751 84.3984L41.0601 82.8347C41.8323 83.4815 42.8045 83.8413 43.8117 83.8529C44.4421 83.8529 44.7815 83.6348 44.7815 83.2711V83.2469C44.7815 82.8953 44.5027 82.7014 43.3511 82.4347C41.545 82.0226 40.151 81.5135 40.151 79.7679V79.7437C40.151 78.1679 41.3995 77.0284 43.436 77.0284C44.8784 77.0284 46.0058 77.4163 46.927 78.1558L45.7512 79.8164C45.0618 79.3042 44.2336 79.0126 43.3754 78.98C42.8056 78.98 42.5268 79.2225 42.5268 79.5255V79.5497C42.5268 79.9376 42.8178 80.1073 43.9936 80.374C45.933 80.7983 47.1452 81.4286 47.1452 83.0166V83.0408C47.1452 84.7742 45.7754 85.8045 43.7148 85.8045C42.266 85.8361 40.8559 85.3359 39.751 84.3984Z" fill="white"/>
<path d="M48.2363 77.1738H50.6V85.659H48.2363V77.1738Z" fill="white"/>
<path d="M52.0425 77.1738H54.3941V83.5983H58.5033V85.659H52.0425V77.1738Z" fill="white"/>
<path d="M58.7217 77.1738H61.3521L63.2916 82.5437L65.2189 77.1738H67.7887L64.3461 85.7196H62.1642L58.7217 77.1738Z" fill="white"/>
<path d="M68.5034 77.1738H75.3279V79.1739H70.8308V80.4588H74.9037V82.3134H70.8308V83.6589H75.3885V85.659H68.5034V77.1738Z" fill="white"/>
<path d="M76.4795 77.1738H80.4918C81.7888 77.1738 82.6737 77.5132 83.2555 78.0951C83.5106 78.3545 83.7091 78.6641 83.8385 79.0042C83.9679 79.3443 84.0253 79.7075 84.0071 80.0709V80.0951C84.0262 80.6577 83.8679 81.2121 83.5547 81.6798C83.2414 82.1475 82.789 82.5048 82.2615 82.7013L84.2858 85.659H81.5706L79.8614 83.0892H78.8311V85.659H76.4795V77.1738ZM80.3827 81.2467C81.1827 81.2467 81.6433 80.8588 81.6433 80.2406V80.2164C81.6433 79.5497 81.1585 79.2103 80.3706 79.2103H78.8311V81.2467H80.3827Z" fill="white"/>
</g>
<defs>
<clipPath id="clip0_271_492">
<rect width="122.914" height="128" fill="white" transform="translate(0.585938)"/>
</clipPath>
</defs>
</svg>
