<svg width="130" height="128" viewBox="0 0 130 128" fill="none" xmlns="http://www.w3.org/2000/svg">
<g clip-path="url(#clip0_14_3800)">
<path d="M120.404 35.2466C119.977 37.5195 121.418 39.865 123.877 41.7787C124.413 42.1969 124.895 42.6878 125.409 43.1424C127.268 44.7652 127.872 46.747 127.127 49.1199C126.959 49.6608 126.868 50.2335 126.672 50.7563C125.409 53.8837 125.841 56.7338 127.945 59.3929C130.409 62.484 130.391 65.6204 127.904 68.6933C125.763 71.3388 125.427 74.2207 126.691 77.3299C128.159 80.9301 127.413 83.8438 124.172 86.0939C121.363 88.0394 120.081 90.7077 120.499 94.1578C120.954 97.9716 119.281 100.522 115.663 101.731C112.231 102.863 110.354 105.231 109.704 108.704C109.026 112.308 106.922 114.249 103.172 114.399C99.5987 114.54 97.0668 116.195 95.3076 119.441C93.2757 123.195 91.6712 123.872 87.4528 123.018C84.03 122.327 81.1526 122.936 78.7752 125.532C76.1069 128.45 73.0887 128.768 69.7476 126.791C66.8475 125.077 63.9429 125.036 61.0382 126.754C57.6336 128.768 54.5789 128.464 51.8606 125.482C49.5333 122.932 46.7014 122.332 43.3421 123.004C38.9374 123.882 37.5147 123.304 35.3691 119.368C33.5509 116.036 30.8872 114.559 27.287 114.368C23.9824 114.19 21.7777 112.604 21.1641 109.299C20.4504 105.445 18.4913 102.817 14.6729 101.572C11.3046 100.458 9.82731 97.9352 10.2228 94.4487C10.6319 90.8122 9.31366 88.0303 6.34992 85.9484C3.32708 83.8074 2.54069 81.0255 3.94983 77.6072C5.31352 74.3253 4.85895 71.3388 2.65433 68.516C0.381522 65.6204 0.240608 62.6067 2.65433 59.6566C4.92714 56.8747 5.31352 53.8564 3.97711 50.5654C2.58615 47.1516 3.31345 44.356 6.3681 42.2287C9.33639 40.1559 10.6501 37.3694 10.2364 33.7284C9.83186 30.1556 11.3365 27.6146 14.782 26.4554C18.4594 25.2327 20.4822 22.7553 21.1459 19.0052C21.855 15.005 24.7824 13.7413 28.3189 13.5504C31.5008 13.3777 33.6145 11.8413 35.0964 9.14573C35.6415 8.21579 36.2666 7.33514 36.9646 6.51381C37.4405 5.9008 38.0684 5.42302 38.7861 5.12795C39.5039 4.83289 40.2863 4.73084 41.0557 4.83194C42.6376 4.9774 44.2376 5.12286 45.7922 5.31832C46.6399 5.43218 47.5023 5.35935 48.3189 5.10495C49.1355 4.85054 49.8866 4.42071 50.5197 3.84554C50.9728 3.50473 51.4054 3.13741 51.8152 2.7455C54.5971 -0.272785 57.6972 -0.809168 61.2564 1.38182C64.0292 3.08188 66.8748 3.0046 69.634 1.34091C73.1296 -0.768256 76.207 -0.300057 78.9252 2.70459C81.2799 5.30923 84.18 5.72743 87.4755 5.09104C91.6893 4.28192 93.2439 4.94104 95.3667 8.65026C97.0441 11.5731 99.1714 13.5459 102.722 13.5913C103.503 13.5913 104.272 13.9141 105.058 14.0459C107.24 14.4277 108.835 15.6778 109.208 17.8006C110.04 22.5189 112.622 25.469 117.122 27.0782C120.404 28.2282 120.649 31.2238 120.404 35.2466ZM8.37726 63.7795C8.52272 95.8306 33.9009 121.286 65.5429 121.1C96.885 120.941 122.436 95.2351 122.299 63.9931C122.168 32.2647 96.5713 6.76382 65.0247 6.90019C33.8873 7.03656 8.2318 32.8102 8.37726 63.7795ZM78.2207 93.0396H77.2661V89.5485H78.1252C79.4616 89.5485 80.1298 90.1319 80.1298 91.2986C80.1469 91.5379 80.1118 91.7781 80.027 92.0025C79.9423 92.2269 79.8099 92.4303 79.6389 92.5987C79.2371 92.9162 78.7317 93.0733 78.2207 93.0396ZM50.7424 78.3936C50.8971 78.3965 51.0507 78.3668 51.1932 78.3065C51.3358 78.2462 51.464 78.1566 51.5697 78.0436C51.7889 77.8158 51.9113 77.512 51.9113 77.1958C51.9113 76.8797 51.7889 76.5759 51.5697 76.3481C51.4621 76.2376 51.3335 76.1497 51.1914 76.0898C51.0493 76.0298 50.8966 75.9989 50.7424 75.9989C50.5882 75.9989 50.4355 76.0298 50.2934 76.0898C50.1513 76.1497 50.0227 76.2376 49.9151 76.3481C49.6959 76.5759 49.5735 76.8797 49.5735 77.1958C49.5735 77.512 49.6959 77.8158 49.9151 78.0436C50.0208 78.1566 50.1491 78.2462 50.2916 78.3065C50.4341 78.3668 50.5877 78.3965 50.7424 78.3936ZM54.5607 65.2568C54.129 65.0409 53.6462 64.9481 53.1652 64.9886H51.5743V67.6478H53.1334C53.6353 67.7012 54.1406 67.586 54.5698 67.3205C54.7071 67.1836 54.8125 67.0181 54.8785 66.8358C54.9445 66.6536 54.9695 66.459 54.9517 66.2659C54.9755 66.0785 54.9523 65.888 54.884 65.7118C54.8158 65.5356 54.7047 65.3792 54.5607 65.2568ZM90.1029 92.5987C90.2744 92.4306 90.4075 92.2273 90.4931 92.0029C90.5786 91.7785 90.6145 91.5382 90.5984 91.2986C90.5984 90.1289 89.9302 89.5455 88.5938 89.5485H87.7301V93.0396H88.6847C89.1957 93.0733 89.7011 92.9162 90.1029 92.5987ZM80.9026 76.1935C80.7078 76.0989 80.4912 76.0581 80.2753 76.0753H79.5707V77.2572H80.2617C80.4876 77.2813 80.715 77.2284 80.9071 77.1072C80.9662 77.048 81.0118 76.9767 81.0408 76.8983C81.0698 76.8198 81.0816 76.736 81.0753 76.6526C81.0867 76.5678 81.0769 76.4815 81.0467 76.4014C81.0166 76.3212 80.967 76.2498 80.9026 76.1935ZM64.0838 81.9119L63.4838 83.2756H64.6838L64.0838 81.9119ZM71.0386 67.5569C71.3101 67.2323 71.4453 66.8153 71.4159 66.3932C71.4364 66.1863 71.4033 65.9777 71.3197 65.7874C71.2361 65.5971 71.1048 65.4316 70.9386 65.3068C70.4819 65.0612 69.9648 64.9508 69.4476 64.9886H68.1749V67.9523H69.6249C70.1297 68.0107 70.6373 67.8687 71.0386 67.5569ZM61.4519 70.1888C61.7996 70.1953 62.1447 70.1286 62.465 69.9931C62.7853 69.8577 63.0735 69.6564 63.311 69.4024C63.796 68.8886 64.0661 68.2088 64.0661 67.5023C64.0661 66.7958 63.796 66.1161 63.311 65.6022C63.0689 65.3546 62.7797 65.1578 62.4604 65.0234C62.1412 64.8891 61.7983 64.8198 61.4519 64.8198C61.1055 64.8198 60.7626 64.8891 60.4433 65.0234C60.1241 65.1578 59.8349 65.3546 59.5927 65.6022C59.1078 66.1161 58.8377 66.7958 58.8377 67.5023C58.8377 68.2088 59.1078 68.8886 59.5927 69.4024C59.8306 69.6559 60.1189 69.8569 60.4391 69.9923C60.7593 70.1278 61.1043 70.1947 61.4519 70.1888ZM62.1792 76.0981H61.4701V77.2799H62.161C62.3855 77.3044 62.6116 77.2515 62.8019 77.1299C62.8616 77.0709 62.9078 76.9998 62.9376 76.9214C62.9674 76.843 62.9801 76.7591 62.9747 76.6754C62.986 76.5908 62.9756 76.5047 62.9446 76.4252C62.9136 76.3457 62.863 76.2754 62.7974 76.2208C62.603 76.1138 62.3826 76.0634 62.161 76.0753L62.1792 76.0981ZM71.825 83.7484C71.9362 83.6399 72.0223 83.5084 72.0773 83.3631C72.1323 83.2179 72.1548 83.0623 72.1432 82.9074C72.1432 82.1528 71.7113 81.7755 70.8477 81.7755H70.2886V84.0483H70.9068C71.2426 84.0605 71.5706 83.9452 71.825 83.7256V83.7484ZM47.4514 89.4395C47.2123 89.4342 46.9749 89.4797 46.7547 89.5729C46.5345 89.6662 46.3366 89.805 46.1741 89.9804C45.8386 90.3328 45.6515 90.8007 45.6515 91.2872C45.6515 91.7738 45.8386 92.2417 46.1741 92.5941C46.3402 92.7655 46.5391 92.9018 46.7589 92.9949C46.9787 93.088 47.215 93.1359 47.4537 93.1359C47.6924 93.1359 47.9286 93.088 48.1484 92.9949C48.3683 92.9018 48.5671 92.7655 48.7332 92.5941C49.0656 92.2401 49.2506 91.7728 49.2506 91.2872C49.2506 90.8017 49.0656 90.3344 48.7332 89.9804C48.5715 89.8012 48.3736 89.6584 48.1527 89.5612C47.9317 89.4641 47.6927 89.4148 47.4514 89.4167V89.4395ZM68.1885 82.7983C68.2475 82.7391 68.2931 82.6678 68.3222 82.5894C68.3512 82.5109 68.363 82.4271 68.3567 82.3437C68.3681 82.2596 68.3583 82.1739 68.3281 82.0945C68.2979 82.0151 68.2484 81.9445 68.1839 81.8892C67.9913 81.7929 67.7757 81.752 67.5612 81.771H66.8521V82.9483H67.543C67.7715 82.9657 67.9992 82.9048 68.1885 82.7756V82.7983ZM55.3426 83.271H56.5426L55.9426 81.9074L55.3426 83.271ZM82.6481 68.4205H85.3436L83.98 65.375L82.6481 68.4205ZM119.84 64.1613C119.818 94.1169 95.6531 117.89 66.8157 118.65C35.451 119.477 10.6773 94.1033 10.8183 63.7749C10.6683 34.1239 35.2646 9.45028 65.0793 9.33664C95.2576 9.223 119.863 33.7511 119.84 64.1613ZM84.6163 26.8373L86.4573 28.6328L86.0255 31.1692L88.2983 29.9692L90.5711 31.1692L90.1393 28.6328L91.9802 26.8373L89.4347 26.4691L88.2937 24.1599L87.1573 26.4691L84.6163 26.8373ZM84.2936 77.1936C84.2876 77.0397 84.3144 76.8863 84.3724 76.7436C84.4305 76.6009 84.5182 76.4723 84.63 76.3663C84.7418 76.2595 84.8737 76.176 85.0181 76.1206C85.1624 76.0652 85.3164 76.039 85.4709 76.0435C85.6402 76.0391 85.8086 76.0684 85.9664 76.1299C86.1356 76.2082 86.2895 76.3159 86.421 76.4481L86.7755 76.0617C86.6157 75.8799 86.4183 75.7349 86.197 75.6368C85.9757 75.5387 85.7357 75.4898 85.4936 75.4935C85.2594 75.486 85.0261 75.5255 84.8075 75.6098C84.5888 75.6942 84.3894 75.8216 84.2209 75.9844C84.0574 76.1435 83.9287 76.3346 83.8426 76.5459C83.7566 76.7571 83.7151 76.9838 83.7209 77.2118C83.7138 77.4377 83.7538 77.6627 83.8383 77.8724C83.9229 78.0821 84.05 78.272 84.2118 78.43C84.3764 78.5898 84.5715 78.7148 84.7855 78.7976C84.9995 78.8804 85.228 78.9192 85.4573 78.9118C85.6992 78.9143 85.9386 78.8635 86.1586 78.7629C86.3786 78.6624 86.5737 78.5145 86.73 78.33L86.371 77.9618C86.236 78.0885 86.0828 78.1943 85.9164 78.2754C85.7601 78.3428 85.591 78.3754 85.4209 78.3709C85.2712 78.3725 85.1229 78.343 84.9851 78.2843C84.8474 78.2257 84.7234 78.139 84.6209 78.03C84.5117 77.9206 84.4263 77.7898 84.37 77.6459C84.3137 77.502 84.2877 77.348 84.2936 77.1936ZM87.9301 71.2615L84.6664 63.8613H83.3345L80.0753 71.2615H81.4071L82.1481 69.5797H85.8528L86.5937 71.2615H87.9301ZM82.4754 75.5753V78.8755H83.0345V75.5753H82.4754ZM56.3517 76.2844V78.8618H56.9108V75.5617H56.0471L55.0517 77.6481L54.0516 75.5753H53.1834V78.8755H53.7425V76.2844L54.888 78.5573H55.2017L56.3517 76.2844ZM56.1108 89.8576V93.8396H56.9699V88.7531H55.638L54.0971 91.935L52.5607 88.7531H51.2197V93.8487H52.0788V89.8667L53.8516 93.4032H54.3334L56.1108 89.8576ZM54.6335 68.5569C55.7123 68.2539 56.2517 67.4963 56.2517 66.2841C56.28 65.9449 56.2285 65.6039 56.1014 65.2882C55.9744 64.9725 55.7752 64.6908 55.5199 64.4659C55.035 64.084 54.2274 63.8931 53.097 63.8931H50.3424V71.2934H51.5924V68.8024H53.2334L55.0017 71.2934H56.5926L54.6335 68.5569ZM49.506 75.9708C49.1851 76.2951 49.0051 76.7328 49.0051 77.189C49.0051 77.6452 49.1851 78.083 49.506 78.4072C49.8422 78.7191 50.2839 78.8923 50.7424 78.8923C51.201 78.8923 51.6426 78.7191 51.9788 78.4072C52.2997 78.083 52.4797 77.6452 52.4797 77.189C52.4797 76.7328 52.2997 76.2951 51.9788 75.9708C51.6426 75.659 51.201 75.4857 50.7424 75.4857C50.2839 75.4857 49.8422 75.659 49.506 75.9708ZM64.0747 55.1564C67.6112 51.6245 71.1295 48.0744 74.6796 44.5561C75.1342 44.1015 75.7115 43.4515 76.2842 43.3924C77.0206 43.3151 78.0343 43.5197 78.5116 44.0106C78.7362 44.3113 78.8828 44.663 78.9383 45.0342C78.9938 45.4055 78.9565 45.7846 78.8298 46.1379C78.5025 46.7516 77.3479 47.5562 76.907 47.3834C74.8524 46.5789 74.2842 48.1789 73.175 49.2426C74.8251 50.7608 76.6251 51.1608 78.5934 50.5426C79.5616 50.2781 80.4309 49.7353 81.0934 48.9814C81.756 48.2275 82.1828 47.2957 82.3208 46.3016C82.5495 45.1481 82.3964 43.9515 81.8847 42.8927C81.3729 41.8339 80.5303 40.9706 79.4843 40.4332C78.4415 39.9037 77.2567 39.7213 76.1029 39.9127C74.9491 40.104 73.8866 40.6591 73.0705 41.4969C69.1476 45.3652 65.3429 49.3426 61.3519 53.1564C59.6347 54.8114 57.4106 55.8405 55.0376 56.0779C52.6646 56.3154 50.2806 55.7474 48.2696 54.4655C46.2616 53.1947 44.7292 51.2967 43.9102 49.0659C43.0912 46.8352 43.0314 44.3965 43.7402 42.1283C44.4489 39.8601 45.8865 37.8893 47.8299 36.5217C49.7733 35.1541 52.1137 34.4662 54.488 34.5648C57.2154 34.6512 59.4882 35.8648 61.4564 37.4922L63.7292 35.4148C60.7973 31.892 54.9835 30.3465 50.2288 31.7329C44.2649 33.4557 40.342 38.4013 39.8875 44.6742C39.5193 50.1972 42.9012 55.7746 48.0696 58.1384C53.5607 60.6566 59.7246 59.5111 64.0747 55.1655V55.1564ZM47.1423 76.0662V78.8573H47.7014V76.0662H48.7014V75.5571H46.1422V76.0662H47.1423ZM40.4148 91.235C40.4067 90.9979 40.4491 90.7618 40.5392 90.5423C40.6293 90.3229 40.7651 90.1252 40.9375 89.9622C41.2862 89.6307 41.752 89.4509 42.233 89.4622C42.4941 89.4566 42.7537 89.503 42.9967 89.5985C43.2527 89.7204 43.4851 89.8866 43.6831 90.0895L44.2331 89.4894C43.986 89.2087 43.6807 88.9851 43.3384 88.8344C42.9962 88.6837 42.6251 88.6094 42.2512 88.6167C41.8904 88.6048 41.5308 88.666 41.1942 88.7964C40.8575 88.9268 40.5507 89.1239 40.292 89.3758C39.7984 89.8796 39.5219 90.5569 39.5219 91.2622C39.5219 91.9676 39.7984 92.6448 40.292 93.1487C40.5455 93.3952 40.8459 93.5882 41.1754 93.7163C41.505 93.8444 41.8569 93.9049 42.2103 93.8941C42.5842 93.8959 42.954 93.8153 43.2934 93.6582C43.6327 93.5011 43.9334 93.2713 44.174 92.985L43.6194 92.4168C43.42 92.6021 43.193 92.7554 42.9467 92.8714C42.7062 92.9769 42.4455 93.0281 42.183 93.0214C41.9525 93.0236 41.724 92.9788 41.5114 92.8897C41.2988 92.8006 41.1067 92.6691 40.9466 92.5032C40.7798 92.3393 40.6469 92.1442 40.5557 91.9289C40.4644 91.7136 40.4165 91.4824 40.4148 91.2486V91.235ZM40.3693 77.3845V75.5662H39.8102V77.4163C39.797 77.6159 39.8249 77.8161 39.8922 78.0045C39.9594 78.193 40.0646 78.3656 40.2011 78.5118C40.4774 78.7606 40.8361 78.8983 41.208 78.8983C41.5798 78.8983 41.9385 78.7606 42.2148 78.5118C42.3514 78.3656 42.4565 78.193 42.5238 78.0045C42.591 77.8161 42.6189 77.6159 42.6058 77.4163V75.5662H42.0466V77.3845C42.0619 77.6437 41.981 77.8994 41.8194 78.1027C41.7433 78.1897 41.6487 78.2586 41.5425 78.3042C41.4363 78.3499 41.3212 78.3711 41.2057 78.3663C41.0903 78.3701 40.9756 78.3485 40.8695 78.3029C40.7634 78.2573 40.6687 78.189 40.592 78.1027C40.4371 77.9014 40.3582 77.6519 40.3693 77.3981V77.3845ZM44.5831 78.8936C44.891 78.9103 45.1945 78.815 45.4377 78.6254C45.5426 78.5419 45.6267 78.4353 45.6835 78.3138C45.7403 78.1924 45.7682 78.0594 45.765 77.9254C45.7739 77.8038 45.7552 77.6818 45.7103 77.5685C45.6655 77.4551 45.5956 77.3534 45.5059 77.2709C45.2823 77.0968 45.0205 76.9783 44.7422 76.9254C44.5114 76.8812 44.288 76.8047 44.0785 76.6981C44.0282 76.6644 43.9875 76.6181 43.9604 76.5639C43.9334 76.5098 43.9208 76.4495 43.924 76.389C43.9206 76.3297 43.9331 76.2706 43.9603 76.2179C43.9875 76.1651 44.0283 76.1206 44.0785 76.089C44.2 76.0192 44.3385 75.9845 44.4786 75.989C44.6458 75.9911 44.8116 76.0203 44.9695 76.0753C45.1168 76.1187 45.2532 76.1931 45.3695 76.2935L45.665 75.8708C45.5053 75.7421 45.3235 75.6435 45.1286 75.5799C44.9263 75.5121 44.7146 75.4768 44.5013 75.4753C44.2053 75.464 43.9141 75.552 43.674 75.7253C43.5648 75.8062 43.4773 75.9129 43.4194 76.0359C43.3615 76.1588 43.335 76.2942 43.3421 76.4299C43.3324 76.5586 43.3538 76.6877 43.4044 76.8063C43.455 76.925 43.5335 77.0297 43.6331 77.1117C43.736 77.1903 43.8492 77.2545 43.9694 77.3027C44.1514 77.3652 44.3365 77.4184 44.524 77.4618C44.7033 77.4961 44.8755 77.5606 45.0331 77.6527C45.081 77.6872 45.12 77.7326 45.1469 77.7852C45.1738 77.8377 45.1878 77.8959 45.1878 77.9549C45.1878 78.014 45.1738 78.0722 45.1469 78.1247C45.12 78.1773 45.081 78.2227 45.0331 78.2572C44.9073 78.3419 44.7573 78.3834 44.6058 78.3754C44.2156 78.3591 43.8458 78.1968 43.5694 77.9209L43.2194 78.3436C43.5863 78.6973 44.0736 78.8987 44.5831 78.9073V78.8936ZM47.4878 70.4524C47.795 70.1246 48.0318 69.7372 48.1835 69.3142C48.3352 68.8912 48.3985 68.4417 48.3696 67.9932V63.8431H47.1196V67.9342C47.1519 68.5147 46.9709 69.087 46.6104 69.5433C46.4336 69.7313 46.2202 69.881 45.9834 69.9834C45.7465 70.0858 45.4912 70.1386 45.2331 70.1386C44.9751 70.1386 44.7198 70.0858 44.4829 69.9834C44.246 69.881 44.0326 69.7313 43.8558 69.5433C43.4989 69.0854 43.3197 68.5139 43.3512 67.9342V63.8431H42.1012V67.9932C42.0717 68.4413 42.1343 68.8907 42.2851 69.3137C42.436 69.7366 42.672 70.1242 42.9785 70.4524C43.5976 71.0089 44.4007 71.3167 45.2331 71.3167C46.0656 71.3167 46.8686 71.0089 47.4878 70.4524ZM77.7797 37.6786L78.7843 36.7012L77.3979 36.5012L76.7797 35.2466L76.1615 36.5012L74.7978 36.7012L75.7979 37.6786L75.5615 39.0422L76.7979 38.3922L78.0343 39.0422L77.7797 37.6786ZM79.9116 38.2922L79.0025 39.3604L80.398 39.4286L81.1344 40.615L81.6299 39.3059L82.9936 38.9741L81.9026 38.0967L82.0026 36.7058L80.8344 37.4694L79.5389 36.9422L79.9116 38.2922ZM81.8435 52.7336L82.9617 51.8972L81.5981 51.5199L81.1435 50.1972L80.3662 51.3609H78.9661L79.8344 52.4563L79.4207 53.7927L80.7344 53.3109L81.8753 54.1155L81.8435 52.7336ZM83.0708 49.9199L83.4527 51.2836L84.2891 50.1608L85.6846 50.2153L84.8891 49.0426L85.3709 47.7289L84.0391 48.1471L82.939 47.2789V48.6789L81.7435 49.4653L83.0708 49.9199ZM85.6936 45.9652L86.9528 45.3652L85.7073 44.7288L85.5255 43.3424L84.5391 44.3333L83.1754 44.0788L83.8118 45.3243L83.1436 46.5516L84.5072 46.3334L85.4709 47.3471L85.6936 45.9652ZM85.6936 40.3286L84.3027 40.465L83.3936 39.4013L83.0936 40.765L81.789 41.2832L82.9936 41.9878L83.0981 43.3833L84.1436 42.4514L85.5073 42.7833L84.9482 41.5014L85.6936 40.3286ZM75.9342 52.8473L74.9342 53.8291L76.3206 54.0246L76.9433 55.2792L77.557 54.0246L78.9434 53.82L77.9388 52.8473L78.1707 51.4836L76.9342 52.1381L75.6978 51.4881L75.9342 52.8473ZM66.0157 77.1936C66.0105 77.0394 66.0382 76.8858 66.097 76.7432C66.1558 76.6005 66.2443 76.472 66.3566 76.3663C66.4681 76.2591 66.6 76.1753 66.7444 76.1199C66.8889 76.0644 67.0429 76.0385 67.1975 76.0435C67.3653 76.0394 67.5322 76.0688 67.6885 76.1299C67.8583 76.207 68.0124 76.3149 68.143 76.4481L68.4976 76.0617C68.3384 75.8792 68.1411 75.7337 67.9196 75.6356C67.6982 75.5374 67.4579 75.4889 67.2157 75.4935C66.9822 75.4863 66.7497 75.5261 66.5318 75.6104C66.314 75.6947 66.1153 75.8219 65.9475 75.9844C65.7826 76.1426 65.6525 76.3335 65.5656 76.5448C65.4787 76.7562 65.437 76.9833 65.4429 77.2118C65.4356 77.4382 65.476 77.6636 65.5613 77.8735C65.6467 78.0833 65.7751 78.2729 65.9384 78.43C66.1019 78.5901 66.2962 78.7153 66.5095 78.7981C66.7228 78.881 66.9507 78.9196 67.1794 78.9118C67.4213 78.9146 67.6608 78.864 67.8809 78.7634C68.1009 78.6628 68.296 78.5148 68.4521 78.33L68.093 77.9618C67.9599 78.0907 67.8063 78.1967 67.6385 78.2754C67.4823 78.3432 67.3132 78.3758 67.143 78.3709C66.9934 78.3719 66.8452 78.3422 66.7075 78.2836C66.5699 78.2249 66.4458 78.1386 66.343 78.03C66.2347 77.9199 66.1498 77.7891 66.0936 77.6453C66.0373 77.5016 66.0108 77.3479 66.0157 77.1936ZM66.293 84.5438H66.8521V83.4302H67.5839L68.3703 84.5438H69.0794L68.2158 83.3438C68.4388 83.2862 68.6337 83.1502 68.7647 82.9607C68.8957 82.7713 68.9542 82.541 68.9294 82.3119C68.9424 82.1595 68.9196 82.0061 68.8627 81.864C68.8059 81.722 68.7167 81.5952 68.6021 81.4937C68.2769 81.298 67.8986 81.209 67.5203 81.2392H66.293V84.5438ZM69.4749 69.0887C70.5613 69.0887 71.3704 68.8842 71.8932 68.466C72.1695 68.2224 72.385 67.9176 72.5223 67.5758C72.6597 67.234 72.7151 66.8648 72.6841 66.4977C72.7136 66.1291 72.6594 65.7586 72.5256 65.4138C72.3918 65.069 72.1818 64.759 71.9114 64.5068C71.3932 64.0734 70.5734 63.8583 69.4522 63.8613H66.9112V71.2615H68.1612V69.0887H69.4749ZM57.5427 67.5069C57.5289 68.0147 57.6217 68.5197 57.8151 68.9895C58.0085 69.4592 58.2982 69.8833 58.6654 70.2342C59.4169 70.9386 60.4083 71.3305 61.4382 71.3305C62.4682 71.3305 63.4596 70.9386 64.2111 70.2342C64.9273 69.5071 65.3288 68.5275 65.3288 67.5069C65.3288 66.4863 64.9273 65.5066 64.2111 64.7795C63.4596 64.0751 62.4682 63.6832 61.4382 63.6832C60.4083 63.6832 59.4169 64.0751 58.6654 64.7795C58.3012 65.1311 58.0144 65.555 57.8234 66.0238C57.6324 66.4927 57.5414 66.9963 57.5563 67.5023L57.5427 67.5069ZM62.8247 77.6754C62.9988 77.6071 63.1532 77.4965 63.2739 77.3536C63.3947 77.2108 63.4779 77.0401 63.5163 76.857C63.5546 76.6739 63.5468 76.4842 63.4935 76.3048C63.4402 76.1255 63.3431 75.9623 63.211 75.8299C62.8873 75.6307 62.5078 75.5414 62.1292 75.5753H60.9019V78.8755H61.4564V77.7663H62.1883L62.9792 78.8755H63.6883L62.8247 77.6754ZM58.37 76.9708V76.0981H60.1337V75.5753H57.8108V78.8755H60.1882V78.3527H58.37V77.4436H59.9518V76.9663L58.37 76.9708ZM57.6154 81.2346L58.7654 84.5393H59.32L60.0109 82.2665H60.0518L60.7428 84.5393H61.2973L62.4474 81.2346H61.8474L61.0201 83.612L60.2837 81.2346H59.7791L59.0427 83.612L58.2109 81.2346H57.6154ZM62.3519 84.5393H62.9428L63.2747 83.7847H64.9293L65.2566 84.5393H65.852L64.3974 81.2346H63.8065L62.3519 84.5393ZM65.5657 93.8487H69.234V93.0396H66.4248V91.6759H68.8658V90.9122H66.4248V89.5485H69.1522V88.7394H65.5748L65.5657 93.8487ZM71.5159 78.8709V78.3482H69.6976V77.439H71.2522V76.9663H69.6703V76.0935H71.4341V75.5708H69.1158V78.8709H71.5159ZM69.7522 84.5393H70.8477C71.3602 84.5786 71.8678 84.4154 72.2614 84.0847C72.4173 83.9241 72.5381 83.733 72.6164 83.5233C72.6946 83.3136 72.7285 83.09 72.7159 82.8665C72.728 82.6432 72.6916 82.4199 72.6092 82.2119C72.5268 82.004 72.4004 81.8164 72.2386 81.6619C71.8541 81.3524 71.3675 81.1983 70.875 81.2301H69.7431L69.7522 84.5393ZM72.7887 78.8709V76.4617L74.6569 78.8709H75.2615V75.5708H74.7024V78.0345L72.7887 75.5708H72.2295V78.8709H72.7887ZM75.1478 83.6347C75.1485 83.6947 75.1343 83.7538 75.1065 83.807C75.0788 83.8601 75.0383 83.9055 74.9887 83.9393C74.8629 84.0239 74.7129 84.0654 74.5614 84.0574C74.1712 84.0411 73.8014 83.8789 73.525 83.6029L73.175 84.0256C73.5463 84.3685 74.0334 84.5584 74.5387 84.5575C74.8463 84.5713 75.1488 84.4764 75.3933 84.2893C75.4985 84.2051 75.5829 84.0976 75.6396 83.9754C75.6964 83.8532 75.7241 83.7194 75.7206 83.5847C75.7288 83.4632 75.7098 83.3414 75.665 83.2281C75.6202 83.1149 75.5507 83.0131 75.4615 82.9301C75.236 82.7602 74.9748 82.6437 74.6978 82.5892C74.4659 82.5468 74.242 82.4686 74.0341 82.3574C73.9839 82.3247 73.9431 82.2793 73.916 82.2259C73.8888 82.1724 73.8763 82.1127 73.8796 82.0528C73.8752 81.9934 73.8873 81.934 73.9145 81.881C73.9418 81.8281 73.9832 81.7837 74.0341 81.7528C74.1547 81.6809 74.2939 81.6461 74.4342 81.6528C74.6016 81.6531 74.7676 81.6824 74.9251 81.7392C75.0704 81.7819 75.2052 81.8547 75.3206 81.9528L75.6206 81.5346C75.462 81.4042 75.2799 81.3055 75.0842 81.2437C74.881 81.1734 74.6674 81.138 74.4523 81.1392C74.1588 81.1303 73.8703 81.2163 73.6296 81.3846C73.5203 81.4665 73.4329 81.574 73.375 81.6977C73.3172 81.8214 73.2906 81.9574 73.2978 82.0937C73.2876 82.2218 73.3088 82.3503 73.3595 82.4684C73.4102 82.5864 73.4888 82.6902 73.5887 82.771C73.6888 82.8538 73.8027 82.9184 73.9251 82.962C74.1061 83.0286 74.2914 83.0832 74.4796 83.1256C74.6593 83.1586 74.8316 83.2233 74.9887 83.3165C75.0379 83.3527 75.0768 83.401 75.1015 83.4569C75.1263 83.5127 75.1359 83.574 75.1296 83.6347H75.1478ZM79.5116 71.257V70.0797H75.4206V68.1023H78.9798V66.9887H75.4342V65.0295H79.3843V63.8567H74.166V71.257H79.5116ZM75.8751 76.0799H76.8752V78.8709H77.4343V76.0799H78.4343V75.5708H75.8751V76.0799ZM76.4342 93.8487H78.1252C78.917 93.9127 79.7023 93.6629 80.3116 93.1532C80.5548 92.9073 80.744 92.6133 80.8669 92.29C80.9898 91.9667 81.0437 91.6213 81.0253 91.2759C81.0443 90.9319 80.9883 90.5878 80.8611 90.2676C80.734 89.9473 80.5387 89.6586 80.2889 89.4213C79.6967 88.9411 78.945 88.7024 78.1843 88.7531H76.4342V93.8487ZM81.1162 78.8709H81.8253L80.9617 77.6709C81.1358 77.6025 81.2902 77.4919 81.4109 77.3491C81.5317 77.2062 81.615 77.0355 81.6533 76.8525C81.6916 76.6694 81.6838 76.4796 81.6305 76.3003C81.5772 76.121 81.4801 75.9578 81.348 75.8253C81.0243 75.6261 80.6448 75.5368 80.2662 75.5708H79.0389V78.8709H79.598V77.7618H80.3298L81.1162 78.8709ZM87.4255 75.5708V78.8709H87.9846V75.5708H87.4255ZM86.8982 93.8487H88.5892C89.3811 93.9127 90.1663 93.6629 90.7757 93.1532C91.0189 92.9073 91.208 92.6133 91.3309 92.29C91.4538 91.9667 91.5077 91.6213 91.4893 91.2759C91.5083 90.9319 91.4523 90.5878 91.3251 90.2676C91.198 89.9473 91.0027 89.6586 90.7529 89.4213C90.1608 88.9411 89.409 88.7024 88.6483 88.7531H86.8982V93.8487ZM91.1484 75.5708H88.5892V76.0799H89.5892V78.8709H90.1484V76.0799H91.1484V75.5708ZM90.7757 42.4287C89.5483 37.0649 86.3255 33.3966 81.0253 31.8283C75.7251 30.2601 70.9068 31.542 66.9339 35.4194C63.352 38.9013 59.8655 42.4833 56.329 46.0198C55.929 46.4152 55.5335 47.0152 55.0607 47.1016C54.3107 47.238 53.2698 47.2925 52.7652 46.8789C52.2606 46.4652 51.8561 45.2606 52.1152 44.7015C52.4016 44.0379 53.6198 43.1378 54.0834 43.306C56.0562 44.0288 56.6426 42.4742 57.7654 41.4878C56.9075 40.5797 55.756 40.0045 54.5148 39.8639C53.2735 39.7233 52.0226 40.0264 50.9833 40.7196C49.9628 41.4117 49.199 42.4211 48.8103 43.5913C48.4216 44.7616 48.4297 46.0273 48.8332 47.1925C49.6924 49.6153 52.2697 51.3154 54.7425 50.6926C56.1433 50.2966 57.4239 49.5594 58.47 48.5471C62.3337 44.8652 65.9702 40.9468 69.834 37.2922C73.4159 33.9284 78.6434 33.633 82.7526 36.274C84.6996 37.5296 86.1882 39.3812 86.9962 41.5525C87.8041 43.7238 87.8881 46.0981 87.2356 48.321C86.5831 50.544 85.2291 52.4962 83.3757 53.8863C81.5224 55.2763 79.2691 56.0297 76.9524 56.0337C74.0023 56.0747 71.5795 54.8928 69.5067 53.1564L67.0612 55.2792C71.2613 59.6839 78.0979 60.6748 83.539 57.7929C86.2515 56.3682 88.424 54.096 89.7255 51.3223C91.027 48.5486 91.3862 45.4255 90.7484 42.4287H90.7757ZM73.0705 23.6053L75.3433 25.8099L74.8114 28.9237L77.607 27.4555L80.4026 28.9237L79.8571 25.8281L82.1299 23.6235L79.0025 23.1689L77.6161 20.3188L76.216 23.1508L73.0705 23.6053ZM59.5518 19.0097L62.4383 21.8189L61.7564 25.7918L65.3202 23.9144L68.884 25.7918L68.2021 21.8189L71.0886 19.0097L67.1021 18.4324L65.3429 14.8323L63.5247 18.4461L59.5518 19.0097ZM48.5242 23.6053L50.797 25.8099L50.2651 28.9237L53.0607 27.4555L55.8562 28.9237L55.3062 25.8281L57.579 23.6235L54.4562 23.1689L53.0561 20.337L51.6606 23.1689L48.5242 23.6053ZM38.5556 26.8373L40.3966 28.6328L39.942 31.1692L42.2148 29.9692L44.4876 31.1692L44.0331 28.6328L45.8786 26.8373L43.3331 26.4691L42.1921 24.1599L41.0557 26.4691L38.5556 26.8373ZM35.2782 71.257H40.6011V70.0797H36.5101V68.1023H40.0602V66.9887H36.5101V65.0295H40.4602V63.8567H35.2737L35.2782 71.257ZM37.9056 78.9073C38.1475 78.9098 38.3869 78.859 38.6069 78.7584C38.8269 78.6578 39.022 78.51 39.1784 78.3254L38.8193 77.9572C38.6852 78.0851 38.5318 78.191 38.3647 78.2709C38.2084 78.3383 38.0394 78.3708 37.8692 78.3663C37.7195 78.3679 37.5712 78.3385 37.4334 78.2798C37.2957 78.2211 37.1717 78.1345 37.0692 78.0254C36.9584 77.9168 36.8713 77.7864 36.8134 77.6425C36.7555 77.4985 36.7281 77.3441 36.7328 77.189C36.7279 77.0353 36.7553 76.8822 36.8133 76.7397C36.8712 76.5972 36.9584 76.4684 37.0692 76.3617C37.181 76.255 37.313 76.1714 37.4573 76.116C37.6017 76.0606 37.7556 76.0344 37.9101 76.039C38.0794 76.0345 38.2478 76.0639 38.4056 76.1253C38.5754 76.2025 38.7295 76.3104 38.8602 76.4435L39.2147 76.0572C39.0555 75.8746 38.8582 75.7292 38.6368 75.631C38.4153 75.5328 38.1751 75.4844 37.9329 75.489C37.6993 75.481 37.4665 75.5204 37.2486 75.6047C37.0306 75.6891 36.832 75.8167 36.6646 75.9799C36.3453 76.3068 36.1666 76.7457 36.1666 77.2027C36.1666 77.6596 36.3453 78.0985 36.6646 78.4254C36.8282 78.5841 37.0218 78.7085 37.2342 78.7912C37.4465 78.874 37.6732 78.9134 37.901 78.9073H37.9056ZM45.7968 101.74L43.9558 99.9216L44.4104 97.3852L42.1376 98.5852L39.8647 97.3852L40.3193 99.9216L38.5011 101.74L41.0466 102.108L42.183 104.413L43.324 102.108L45.7968 101.74ZM47.4514 93.8805C47.8041 93.8901 48.155 93.8282 48.4831 93.6985C48.8113 93.5688 49.1097 93.3741 49.3605 93.1259C49.8555 92.6256 50.1331 91.9501 50.1331 91.2463C50.1331 90.5425 49.8555 89.8671 49.3605 89.3667C48.8432 88.8816 48.1606 88.6116 47.4514 88.6116C46.7422 88.6116 46.0596 88.8816 45.5422 89.3667C45.0473 89.8671 44.7697 90.5425 44.7697 91.2463C44.7697 91.9501 45.0473 92.6256 45.5422 93.1259C45.7922 93.3765 46.09 93.5741 46.4181 93.7068C46.7461 93.8396 47.0975 93.9049 47.4514 93.8987V93.8805ZM57.3426 104.972L55.0698 102.767L55.6062 99.6535L52.8107 101.122L50.0151 99.6535L50.5469 102.767L48.2741 104.972L51.397 105.426L52.797 108.258L54.1925 105.426L57.3426 104.972ZM57.6927 84.5165L56.2381 81.2119H55.6426L54.188 84.5165H54.7835L55.1153 83.762H56.7699L57.0972 84.5165H57.6927ZM59.2427 89.844L61.0155 93.3805H61.4973L63.2747 89.844V93.826H64.1338V88.7531H62.8019L61.261 91.935L59.7245 88.7531H58.3836V93.8487H59.2427V89.844ZM70.8613 109.549L67.9794 106.74L68.6612 102.772L65.0975 104.645L61.5292 102.772L62.211 106.74L59.3291 109.554L63.3156 110.131L65.0975 113.745L66.8793 110.131L70.8613 109.549ZM71.1749 90.1077L74.0614 93.826H74.9933V88.7531H74.1341V92.5577L71.1749 88.7531H70.3158V93.8487H71.1749V90.1077ZM81.8981 104.967L79.6253 102.763L80.1616 99.6489L77.3661 101.117L74.5705 99.6489L75.1024 102.763L72.8296 104.967L75.9569 105.422L77.357 108.254L78.7525 105.422L81.8981 104.967ZM82.1072 93.826H85.7709V93.0168H82.9663V91.6532H85.4073V90.8895H82.9663V89.5258H85.6936V88.7167H82.1162L82.1072 93.826ZM91.8666 101.74L90.0211 99.9216L90.4756 97.3852L88.2028 98.5852L85.93 97.3852L86.3846 99.9216L84.5436 101.74L87.0892 102.108L88.2256 104.413L89.3665 102.108L91.8666 101.74ZM94.2531 75.5526H93.6439L92.7348 77.0527L91.8257 75.5526H91.2529L92.4803 77.5481V78.8527H93.0485V77.5481L94.2531 75.5526ZM95.744 63.8386H94.494V69.366L90.1938 63.8386H88.9483V71.2388H90.1938V65.8568L94.3894 71.257H95.7531L95.744 63.8386Z" fill="black"/>
</g>
<defs>
<clipPath id="clip0_14_3800">
<rect width="128.891" height="128" fill="white" transform="translate(0.872559)"/>
</clipPath>
</defs>
</svg>
