<?xml version="1.0" encoding="UTF-8"?>
<svg id="_Шар_1" data-name="Шар_1" xmlns="http://www.w3.org/2000/svg" version="1.1" viewBox="0 0 1000 1000">
  <!-- Generator: Adobe Illustrator 29.4.0, SVG Export Plug-In . SVG Version: 2.1.0 Build 152)  -->
  <defs>
    <style>
      .st0 {
        fill: #fff;
      }

      .st1 {
        fill: #fdf1fc;
      }

      .st2 {
        fill: #f7f7fb;
      }

      .st3 {
        fill: none;
        stroke: #000;
        stroke-miterlimit: 10;
        stroke-width: 6px;
      }

      .st4 {
        fill: #fefdfc;
      }

      .st5 {
        fill: #fa81fd;
      }
    </style>
  </defs>
  <path class="st1" d="M304.8,276.4l1-1-1,1Z"/>
  <path class="st5" d="M319.8,304.3v8c-4.9,0-8.2.5-13-1l13-7Z"/>
  <path d="M852.3,65.7v582.8l-352.9,322.6-2.6-2.5-349.1-320.1V65.7h704.6ZM163.9,83.4c0,18.8,0,37.7,0,56.6-.2,44.7,0,89.5,0,134.2,0,121.9-.1,243.9.3,365.9l335.3,308.1,334.3-311.9c1.4-120.7.9-241.4.8-362.1,0-44.2.2-88.4,0-132.6,0-.5,0-1.1,0-1.6,0-19.4,0-38.8,0-58.2H165.5s-1.6,1.6-1.6,1.6Z"/>
  <path class="st0" d="M166.9,140c7.7,2.4,13,1.5,21,1.6,207.7,2.7,416,0,623.8,0h22.8c.2,44.2,0,88.4,0,132.6H163.7c0-44.7-.2-89.5,0-134.2,1,.2,2.4-.3,3.2,0ZM365.3,174.4c-34.8,5.8-32,70.9,10.8,65.8,37.8-4.5,33.7-73.2-10.8-65.8ZM441.5,174.1h-15.8c0,0-22.8,66.1-22.8,66.1l13-.8,5-11.9h24.7s4.1,12,4.1,12l13,.7-21.2-66.1ZM590.7,207.8c0-18.7-15.1-33.8-33.8-33.8s-33.8,15.1-33.8,33.8,15.1,33.8,33.8,33.8,33.8-15.1,33.8-33.8ZM658.9,207.8c0-18.7-15.1-33.8-33.8-33.8s-33.8,15.1-33.8,33.8,15.1,33.8,33.8,33.8,33.8-15.1,33.8-33.8ZM516,175.6h-42l-6.1,35.4c5.4-.6,11.1-.2,16.3-.7s2.5-2,3.8-2.3c18.3-4.5,17.1,17.9,4.6,17.9s-8.1-5.5-8.4-6.7c0,0-10.3,1.7-15.6.9-.5,26,42,27.9,50.3,6.1,8.4-22-10.7-37-31.2-29.6l.8-6.4h27.5v-14.5Z"/>
  <path class="st4" d="M188.1,274.2v338.9c.1,2.2,1.1,4.1,1.6,5.5s.4,2.9,1.5,4l307.9,290.2,10.5-7.3,302.2-287v-344.3h22.6c0,120.7.6,241.5-.8,362.1l-334.3,311.9-335.3-308.1c-.4-122-.4-244-.3-365.9h24.2Z"/>
  <path class="st2" d="M165.5,81.8h669c0,19.4,0,38.8,0,58.2l-22.6-11.3v-22.6H188.1c1.9,1.5,3.2,19.1,3.2,21.6l-27.5,14c0-.9,0-.4,0-1.7,0-18.8,0-39.4,0-58.2h1.6Z"/>
  <path d="M834.5,140c0,.5,0,1.1,0,1.6h-22.6v-12.9l22.6,11.3Z"/>
  <path d="M163.9,141.7h24.4s0-12.9,0-12.9"/>
  <path d="M811.9,274.2l.6,344.9c-164.6-78.5-357.9-89.9-532.2-36.9-31.1,9.5-63.2,22.3-92.2,37,0-1.6,0-3.6,0-6.1v-338.9h623.9Z"/>
  <path d="M188.1,106.1h623.8v35.6c-207.8,0-416,2.7-623.8,0"/>
  <path d="M590.9,207.8c0,18.7-15.1,33.8-33.8,33.8s-33.8-15.1-33.8-33.8,15.1-33.8,33.8-33.8,33.8,15.1,33.8,33.8ZM554.5,190.4c-15.4,3.1-14.1,37.1,4.3,35.3,15.7-1.6,15.3-39.3-4.3-35.3Z"/>
  <path d="M659,207.8c0,18.7-15.1,33.8-33.8,33.8s-33.8-15.1-33.8-33.8,15.1-33.8,33.8-33.8,33.8,15.1,33.8,33.8ZM622.4,190.4c-15,3.1-14,37.1,4.3,35.3s15.5-39.3-4.3-35.3Z"/>
  <path d="M516.2,175.6v14.5h-27.5l-.8,6.4c20.5-7.4,39.6,7.6,31.2,29.6-8.3,21.9-53.5,19.1-53-6.9,5.8,0,12.8,0,18.3,0,0,0,1.6,6.7,8.4,6.7,12,0,13.7-22.4-4.6-17.9s-3.4,2.9-3.4,2.9c-5.4.1-11.8.2-17.1.3l6.5-35.6h42Z"/>
  <path d="M365.5,174.4c44.4-7.4,48.5,61.3,10.8,65.8-42.8,5.1-45.6-59.9-10.8-65.8ZM368.7,185.6c-20.8,4.1-17.9,44.7,4.2,43.3s20.3-48-4.2-43.3Z"/>
  <path d="M441.7,174.1l21.2,66.1-12.6.2-4.5-12.9h-24.7s-4.8,12.9-4.8,12.9l-13.2-.2,22.8-66.1h15.8ZM441.8,216c-2.3-7.4-4.3-15.4-7.3-22.6s.6-3.8-1.6-3.3l-7.3,25.9h16.2Z"/>
  <path class="st0" d="M812.5,619.1l-311.3,295.7-1.4-1.4-307.9-290.2c-1.2-1.1-2.2-2.2-3.2-3.4,17.9-20.7,59.1-31.4,90.3-40.8,174.3-53,368.9-38.3,533.5,40.2Z"/>
  <path class="st0" d="M554.5,190.4c19.6-4,20,33.7,4.3,35.3-18.4,1.8-19.7-32.1-4.3-35.3Z"/>
  <path class="st0" d="M622.4,190.4c19.9-4.1,20.9,33.6,4.3,35.3s-19.3-32.2-4.3-35.3Z"/>
  <path class="st0" d="M368.7,185.6c24.6-4.8,27.6,41.8,4.2,43.3s-25.1-39.2-4.2-43.3Z"/>
  <path class="st0" d="M442.2,216h-17.5s8.9-28.4,8.9-28.4"/>
  <g>
    <path class="st0" d="M635.9,504.6l21.3-27.8v7.9l-20.4-27h13l14.1,18.9h-5.5c0,0,13.9-18.9,13.9-18.9h12.5l-20.3,26.6v-7.8l21.5,28.2h-13.3l-14.6-19.9h5.2l-14.4,19.9h-13.2Z"/>
    <path class="st0" d="M607.1,475.9h22.2v8.5h-22.2v-8.5ZM607.9,495.3h25v8.7h-35.6v-47h34.8v8.7h-24.2v29.5Z"/>
    <path class="st0" d="M553.1,505.6v-48.6h18.3c4.4,0,8.2,1,11.6,3.1,3.3,2,5.9,4.8,7.8,8.4,1.9,3.6,2.8,7.9,2.8,12.8s-.9,9.2-2.8,12.8c-1.9,3.6-4.5,6.4-7.8,8.5-3.3,2-7.2,3-11.6,3h-18.3ZM562.5,496.4h8.5c2.7,0,5-.6,7-1.8,2-1.3,3.5-3,4.6-5.3,1.1-2.3,1.7-4.9,1.7-8s-.6-5.8-1.7-8c-1.1-2.3-2.6-4-4.6-5.2-2-1.2-4.3-1.9-7-1.9h-8.5v30.1Z"/>
    <path class="st0" d="M506,505.6v-48.6h8.1l25,35h-3.9v-35h9.7v48.6h-8.1l-25.1-35h3.9v35h-9.7Z"/>
    <path class="st0" d="M411,505.6v-48.6h8.5l19,39.1h-4.5l18.6-39.1h8.5v48.6c.1,0-9.5,0-9.5,0v-32.4c0,0,1.7,0,1.7,0l-14.9,32.1h-4.6l-15.2-32.1h2.2v32.4h-9.7Z"/>
    <path class="st0" d="M326.1,478.9h17.5v7.4h-17.5v-7.4ZM326.7,505.6h-8.4v-48.6h27.5v9h-19.1v39.6Z"/>
    <path class="st0" d="M640.4,434.4v-48.6h8.4l26,35h-4.1v-35h10.1v48.6h-8.4l-26.1-35h4.1v35h-10.1Z"/>
    <path class="st0" d="M600.7,435.4c-3.5,0-6.8-.6-9.9-1.7-3-1.2-5.6-2.9-7.9-5.1-2.2-2.2-4-4.8-5.2-7.7-1.2-3-1.8-6.2-1.8-9.7s.6-6.8,1.8-9.7c1.3-3,3-5.5,5.2-7.7,2.3-2.2,4.9-3.9,7.9-5,3-1.2,6.3-1.8,9.9-1.8s7.5.7,10.7,2.1c3.2,1.4,5.9,3.4,8.1,6.2l-6.8,6.4c-1.6-1.8-3.3-3.2-5.2-4.1-1.9-.9-4-1.4-6.3-1.4s-4.1.4-5.9,1.1c-1.8.7-3.3,1.7-4.6,3.1-1.3,1.3-2.3,2.9-3.1,4.8-.7,1.8-1,3.9-1,6.1s.3,4.3,1,6.1c.7,1.8,1.8,3.4,3.1,4.8,1.3,1.3,2.9,2.4,4.6,3.1,1.8.7,3.8,1.1,5.9,1.1s4.4-.4,6.3-1.3c1.9-.9,3.7-2.3,5.2-4.2l6.8,6.4c-2.2,2.7-4.9,4.8-8.1,6.2-3.2,1.4-6.8,2.1-10.8,2.1Z"/>
    <path class="st0" d="M539.1,434.4v-48.6h15.8c3.3,0,6.1.7,8.5,2.2,2.4,1.4,4.2,3.4,5.5,6,1.3,2.6,1.9,5.8,1.9,9.4s-.6,6.7-1.9,9.4c-1.3,2.6-3.1,4.6-5.5,6-2.4,1.4-5.2,2.1-8.5,2.1h-11.1l3.8-4.9v18.5h-8.5ZM564.8,434.4l-13-17,10.4-.6,14.7,17.6h-12.1ZM547.5,417.1l-3.8-5.3h10.7c2.6,0,4.6-.7,5.9-2.2,1.3-1.5,1.9-3.6,1.9-6.2s-.6-4.8-1.9-6.2c-1.3-1.5-3.2-2.2-5.9-2.2h-10.7l3.8-5.3v27.6Z"/>
    <path class="st0" d="M368.9,505.6v-48.6h15.8c3.3,0,6.1.7,8.5,2.2,2.4,1.4,4.2,3.4,5.5,6,1.3,2.6,1.9,5.8,1.9,9.4s-.6,6.7-1.9,9.4c-1.3,2.6-3.1,4.6-5.5,6-2.4,1.4-5.2,2.1-8.5,2.1h-11.1l3.8-4.9v18.5h-8.5ZM394.6,505.6l-13-17,10.4-.6,14.7,17.6h-12.1ZM377.3,488.4l-3.8-5.3h10.7c2.6,0,4.6-.7,5.9-2.2,1.3-1.5,1.9-3.6,1.9-6.2s-.6-4.8-1.9-6.2-3.2-2.2-5.9-2.2h-10.7l3.8-5.3v27.6Z"/>
    <path class="st0" d="M416.3,434.1c-3.3,0-6.4-.5-9.4-1.5-3-1-5.4-2.3-7.2-4l3.2-8.2c1.8,1.4,3.8,2.6,6.2,3.6,2.4.9,4.8,1.3,7.3,1.3s3.4-.2,4.5-.6c1.2-.4,2-1.1,2.6-1.8.5-.8.8-1.6.8-2.6s-.4-2.2-1.3-3c-.9-.8-2-1.4-3.4-1.8-1.4-.5-3-.9-4.7-1.3-1.7-.4-3.4-1-5.1-1.6-1.7-.6-3.2-1.4-4.6-2.4-1.4-1-2.6-2.3-3.4-3.9-.9-1.6-1.3-3.7-1.3-6.2s.6-5.1,1.9-7.3c1.3-2.2,3.2-4,5.7-5.3,2.6-1.3,5.8-2,9.6-2s5.1.4,7.6,1.1c2.5.7,4.7,1.7,6.6,3.1l-2.9,8.3c-1.9-1.3-3.8-2.2-5.7-2.8-1.9-.6-3.8-.9-5.6-.9s-3.3.2-4.5.7c-1.2.5-2,1.1-2.5,1.9-.5.8-.8,1.7-.8,2.7s.4,2.2,1.3,3c.9.7,2,1.3,3.4,1.7,1.4.4,2.9.9,4.6,1.3,1.7.4,3.4,1,5.1,1.5,1.7.6,3.3,1.4,4.7,2.3,1.4,1,2.5,2.3,3.4,3.9.9,1.6,1.3,3.6,1.3,6.1s-.6,5.1-1.9,7.2c-1.3,2.2-3.2,4-5.8,5.3-2.5,1.3-5.7,2-9.6,2Z"/>
    <path class="st0" d="M342.1,434.4c-5.8,0-10.4-1.9-13.7-5.7-3.3-3.8-4.9-9.2-4.9-16.2v-26.7h9.5v26.3c0,4.5.8,7.8,2.4,9.8,1.6,2,3.9,3,6.8,3s5.1-1,6.8-3c1.6-2,2.4-5.3,2.4-9.8v-26.3h9.4v26.7c0,7-1.6,12.4-4.9,16.2-3.3,3.8-7.9,5.7-13.7,5.7Z"/>
    <path class="st0" d="M512.2,434.4c-5.8,0-10.4-1.9-13.7-5.7-3.3-3.8-4.9-9.2-4.9-16.2v-26.7h9.5v26.3c0,4.5.8,7.8,2.4,9.8,1.6,2,3.9,3,6.8,3s5.2-1,6.8-3c1.6-2,2.4-5.3,2.4-9.8v-26.3h9.4v26.7c0,7-1.6,12.4-4.9,16.2-3.3,3.8-7.9,5.7-13.7,5.7Z"/>
    <path class="st0" d="M547,363.1l17.4-47h8.9l17.4,47h-9.5l-14.3-41.5h3.6l-14.3,41.5h-9.2ZM555.9,353.4l2.2-8.6h20.1l2.5,8.3-24.7.3Z"/>
    <path class="st0" d="M513.3,361.5v-47h16.4c4.2,0,7.4,1.1,9.5,3.4,2.1,2.2,3.2,5.2,3.2,8.9s-.4,4.6-1.3,6.4c-.9,1.8-2,3.2-3.5,4.2-1.5,1-3.2,1.5-5.2,1.5l.9-2.8c2.1,0,4,.5,5.6,1.5,1.6.9,2.9,2.3,3.8,4.2.9,1.9,1.4,4.2,1.4,6.9,0,4-1.1,7.2-3.4,9.5-2.3,2.2-5.6,3.4-10,3.4h-17.3ZM521,353.3h9.1c2,0,3.5-.4,4.6-1.3,1.1-.9,1.6-2.4,1.6-4.4s-.5-3.4-1.6-4.4c-1-1-2.5-1.5-4.6-1.5h-9.6v-7.9h8.3c1.9,0,3.3-.4,4.3-1.3,1-.9,1.5-2.3,1.5-4.2s-.5-3.2-1.5-4.1c-1-.9-2.4-1.4-4.3-1.4h-7.7v30.6Z"/>
    <path class="st0" d="M480.6,363.1c-3.5,0-6.8-.6-9.8-1.8-3-1.2-5.5-2.9-7.7-5.1-2.2-2.2-3.8-4.8-5.1-7.7-1.2-3-1.8-6.2-1.8-9.7s.6-6.7,1.8-9.7c1.2-3,2.9-5.5,5.1-7.7,2.2-2.2,4.8-3.9,7.7-5.1,3-1.2,6.2-1.8,9.6-1.8s6.7.6,9.6,1.8c3,1.2,5.5,2.9,7.7,5.1,2.2,2.2,3.9,4.8,5.1,7.7,1.2,2.9,1.8,6.1,1.8,9.7s-.6,6.7-1.8,9.7c-1.2,3-2.9,5.5-5.1,7.7-2.2,2.1-4.7,3.8-7.7,5-2.9,1.2-6.1,1.8-9.6,1.8ZM480.6,353.8c2,0,3.8-.4,5.5-1.1,1.7-.7,3.2-1.7,4.4-3.1,1.3-1.3,2.2-2.9,2.9-4.8.7-1.8,1.1-3.9,1.1-6.1s-.4-4.3-1.1-6.1c-.7-1.8-1.6-3.4-2.9-4.8-1.2-1.3-2.7-2.4-4.4-3.1-1.7-.7-3.5-1.1-5.5-1.1s-3.8.4-5.5,1.1c-1.7.7-3.1,1.7-4.4,3.1-1.3,1.3-2.3,2.9-3,4.8-.7,1.8-1,3.9-1,6.1s.3,4.2,1,6.1c.7,1.8,1.7,3.4,2.9,4.8,1.3,1.3,2.7,2.4,4.4,3.1,1.7.7,3.5,1.1,5.5,1.1Z"/>
    <path class="st0" d="M291.2,434.4c-3.5,0-6.8-.6-9.8-1.8-3-1.2-5.5-2.9-7.7-5.1-2.2-2.2-3.8-4.8-5.1-7.7-1.2-3-1.8-6.2-1.8-9.7s.6-6.7,1.8-9.7c1.2-3,2.9-5.5,5.1-7.7,2.2-2.2,4.8-3.9,7.7-5.1,3-1.2,6.2-1.8,9.6-1.8s6.7.6,9.6,1.8c3,1.2,5.5,2.9,7.7,5.1,2.2,2.2,3.9,4.8,5.1,7.7,1.2,2.9,1.8,6.1,1.8,9.7s-.6,6.7-1.8,9.7c-1.2,3-2.9,5.5-5.1,7.7-2.2,2.1-4.7,3.8-7.7,5-2.9,1.2-6.1,1.8-9.6,1.8ZM291.1,425.1c2,0,3.8-.4,5.5-1.1,1.7-.7,3.2-1.7,4.4-3.1,1.3-1.3,2.2-2.9,2.9-4.8.7-1.8,1.1-3.9,1.1-6.1s-.4-4.3-1.1-6.1c-.7-1.8-1.6-3.4-2.9-4.8-1.2-1.3-2.7-2.4-4.4-3.1-1.7-.7-3.5-1.1-5.5-1.1s-3.8.4-5.5,1.1c-1.6.7-3.1,1.7-4.4,3.1s-2.3,2.9-3,4.8c-.7,1.8-1,3.9-1,6.1s.3,4.2,1,6.1c.7,1.8,1.7,3.4,2.9,4.8,1.3,1.3,2.7,2.4,4.4,3.1,1.7.7,3.5,1.1,5.5,1.1Z"/>
    <path class="st0" d="M462.8,434.4c-3.5,0-6.8-.6-9.8-1.8-3-1.2-5.5-2.9-7.7-5.1-2.2-2.2-3.8-4.8-5.1-7.7-1.2-3-1.8-6.2-1.8-9.7s.6-6.7,1.8-9.7c1.2-3,2.9-5.5,5.1-7.7,2.2-2.2,4.8-3.9,7.7-5.1,3-1.2,6.2-1.8,9.6-1.8s6.7.6,9.6,1.8c3,1.2,5.5,2.9,7.7,5.1,2.2,2.2,3.9,4.8,5.1,7.7,1.2,2.9,1.8,6.1,1.8,9.7s-.6,6.7-1.8,9.7c-1.2,3-2.9,5.5-5.1,7.7-2.2,2.1-4.7,3.8-7.7,5-2.9,1.2-6.1,1.8-9.6,1.8ZM462.8,425.1c2,0,3.8-.4,5.5-1.1,1.7-.7,3.2-1.7,4.4-3.1,1.3-1.3,2.2-2.9,2.9-4.8.7-1.8,1.1-3.9,1.1-6.1s-.4-4.3-1.1-6.1c-.7-1.8-1.6-3.4-2.9-4.8-1.2-1.3-2.7-2.4-4.4-3.1-1.7-.7-3.5-1.1-5.5-1.1s-3.8.4-5.5,1.1c-1.7.7-3.1,1.7-4.4,3.1-1.3,1.3-2.3,2.9-3,4.8-.7,1.8-1,3.9-1,6.1s.3,4.2,1,6.1c.7,1.8,1.7,3.4,2.9,4.8,1.3,1.3,2.7,2.4,4.4,3.1,1.7.7,3.5,1.1,5.5,1.1Z"/>
    <path class="st0" d="M401,364.7c-3.7,0-7.1-.6-10.2-1.8-3.1-1.2-5.8-3-8.1-5.3-2.3-2.3-4.1-4.9-5.3-8-1.2-3.1-1.9-6.4-1.9-10.1s.6-7,1.9-10.1c1.3-3.1,3.1-5.7,5.4-8,2.3-2.3,5-4,8.2-5.2,3.1-1.2,6.6-1.9,10.3-1.9s7.9.7,11.2,2.1c3.3,1.4,6.2,3.5,8.4,6.2l-7,6.7c-1.7-1.8-3.5-3.2-5.6-4.1-2-.9-4.2-1.4-6.6-1.4s-4.3.4-6.2,1.1c-1.9.7-3.5,1.8-4.9,3.2-1.3,1.4-2.4,3-3.1,4.9-.7,1.9-1.1,4-1.1,6.3s.4,4.3,1.1,6.2c.8,1.9,1.8,3.6,3.1,5,1.4,1.4,3,2.4,4.8,3.2,1.9.7,3.9,1.1,6.2,1.1s4.2-.3,6.2-1c2.1-.7,4-2,6-3.7l6.2,8.1c-2.5,2-5.5,3.5-8.9,4.6-3.3,1.1-6.7,1.6-10,1.6ZM410.1,357.1v-18.2h9.9v19.7l-9.9-1.5Z"/>
    <path class="st0" d="M399.6,335.6h20.3v8.1h-20.3v-8.1Z"/>
    <path class="st0" d="M713.4,436c-3.7,0-7.1-.6-10.2-1.8-3.1-1.2-5.8-3-8.1-5.3-2.3-2.3-4.1-4.9-5.4-8-1.2-3.1-1.9-6.4-1.9-10.1s.6-7,1.9-10.1c1.3-3.1,3.1-5.7,5.4-8,2.3-2.3,5-4,8.2-5.2,3.1-1.2,6.6-1.9,10.3-1.9s7.9.7,11.2,2.1c3.3,1.4,6.2,3.5,8.4,6.2l-7,6.7c-1.7-1.8-3.5-3.2-5.6-4.1-2-.9-4.2-1.4-6.6-1.4s-4.3.4-6.2,1.1c-1.9.7-3.5,1.8-4.9,3.2-1.3,1.4-2.4,3-3.1,4.9-.7,1.9-1.1,4-1.1,6.3s.4,4.3,1.1,6.2c.8,1.9,1.8,3.6,3.1,5,1.4,1.4,3,2.4,4.8,3.2,1.9.7,3.9,1.1,6.2,1.1s4.2-.3,6.2-1c2.1-.7,4-2,6-3.7l6.2,8.1c-2.5,2-5.5,3.5-8.9,4.6-3.3,1.1-6.7,1.6-10,1.6ZM722.4,428.3v-18.2h9.9v19.7l-9.9-1.5Z"/>
    <path class="st0" d="M712,406.8h20.3v8.1h-20.3v-8.1Z"/>
    <rect class="st0" x="428.8" y="314.5" width="9.7" height="48.6"/>
    <rect class="st0" x="349.4" y="457" width="9.7" height="48.6"/>
    <rect class="st0" x="487.1" y="457" width="9.7" height="48.6"/>
    <rect class="st0" x="623.1" y="385.8" width="9.7" height="48.6"/>
    <rect class="st0" x="375.3" y="385.8" width="9.7" height="48.6"/>
    <rect class="st0" x="364" y="385.8" width="32.4" height="9.7"/>
    <rect class="st0" x="595.6" y="314.5" width="9.7" height="48.6"/>
    <rect class="st0" x="428.8" y="355" width="27.5" height="8.1"/>
    <rect class="st0" x="595.6" y="355" width="27.5" height="8.1"/>
  </g>
  <path d="M497.9,631.6c-2.7,0-5.2-.5-7.5-1.4-2.3-.9-4.2-2.2-5.9-3.9-1.7-1.7-2.9-3.7-3.9-5.9-.9-2.3-1.4-4.7-1.4-7.4s.5-5.1,1.4-7.4c.9-2.3,2.3-4.2,3.9-5.9,1.7-1.7,3.7-3,5.9-3.9,2.3-.9,4.7-1.4,7.4-1.4s5.2.5,7.4,1.4c2.3.9,4.2,2.2,5.9,3.9,1.7,1.7,3,3.7,3.9,5.9.9,2.2,1.4,4.7,1.4,7.4s-.5,5.2-1.4,7.5c-.9,2.3-2.3,4.2-3.9,5.9-1.7,1.6-3.6,2.9-5.9,3.9-2.2.9-4.7,1.4-7.3,1.4ZM497.8,624.5c1.5,0,2.9-.3,4.2-.8,1.3-.5,2.4-1.3,3.4-2.4,1-1,1.7-2.2,2.2-3.7.6-1.4.8-3,.8-4.7s-.3-3.3-.8-4.7c-.5-1.4-1.3-2.6-2.2-3.7-.9-1-2.1-1.8-3.4-2.4-1.3-.5-2.7-.8-4.2-.8s-2.9.3-4.2.8c-1.3.5-2.4,1.3-3.4,2.4-1,1-1.7,2.2-2.3,3.7-.5,1.4-.8,3-.8,4.7s.3,3.2.8,4.7c.6,1.4,1.3,2.6,2.2,3.7,1,1,2.1,1.8,3.4,2.4,1.3.5,2.7.8,4.2.8Z"/>
  <rect x="462.2" y="594.4" width="6.7" height="37.2"/>
  <rect x="452.5" y="594.4" width="25.9" height="6.8"/>
  <path d="M522.6,631.6v-37.2h12.1c2.5,0,4.7.5,6.5,1.6,1.8,1.1,3.2,2.6,4.2,4.6,1,2,1.5,4.4,1.5,7.2s-.5,5.2-1.5,7.2c-1,2-2.4,3.6-4.2,4.7-1.8,1.1-4,1.6-6.5,1.6h-8.5l2.9-3.9v14.2h-6.5ZM529,618.4l-2.9-4.1h8.2c2,0,3.5-.6,4.5-1.7,1-1.1,1.5-2.7,1.5-4.7s-.5-3.7-1.5-4.8c-1-1.1-2.5-1.7-4.5-1.7h-8.2l2.9-4.1v21.1Z"/>
  <path d="M545.9,819.5c-2.4,0-4.8-.4-7.2-1.1-2.3-.7-4.3-1.8-6-3.1l3.2-7c1.3,1.1,2.8,1.9,4.5,2.6,1.7.6,3.5,1,5.3,1s3.6-.4,4.7-1.3c1.2-.9,1.7-2.2,1.7-3.8s-.2-1.9-.7-2.7c-.5-.8-1.3-1.4-2.5-1.8-1.2-.4-2.8-.6-4.9-.6h-8.8l1.8-22.1h21.1v7.3h-18.2l4.2-4.2-1.2,15.8-4.2-4.2h7.3c3.4,0,6.2.5,8.3,1.6,2.1,1,3.6,2.5,4.6,4.3,1,1.8,1.4,3.9,1.4,6.2s-.5,4.5-1.5,6.5c-1,1.9-2.6,3.5-4.7,4.8-2.1,1.2-4.8,1.8-8.1,1.8Z"/>
  <path d="M503.6,818.9v-5.9l13.3-14.3c1.1-1.1,1.8-2.1,2.3-2.9.5-.9.8-1.6,1-2.4.2-.7.3-1.4.3-2,0-1.6-.5-2.8-1.4-3.6-.9-.9-2.3-1.3-4.1-1.3s-2.8.3-4.1,1c-1.2.6-2.3,1.6-3.1,3l-5.8-4.3c1.3-2.2,3.2-4,5.5-5.3,2.4-1.3,5.1-2,8.2-2s4.8.5,6.7,1.5c1.9.9,3.4,2.3,4.5,4,1.1,1.7,1.6,3.8,1.6,6.2s-.1,2.5-.4,3.8c-.3,1.2-.8,2.5-1.7,3.9-.8,1.4-2,2.9-3.7,4.7l-11.1,11.8-1.5-3.3h19.5v7.4h-26.1Z"/>
  <path d="M485.9,819.6c-2.8,0-5.4-.8-7.6-2.4-2.2-1.6-4-3.9-5.3-7-1.3-3-1.9-6.7-1.9-11s.6-8,1.9-11c1.3-3,3-5.3,5.3-6.9,2.2-1.6,4.8-2.4,7.6-2.4s5.4.8,7.6,2.4c2.2,1.6,4,3.9,5.3,6.9,1.3,3,1.9,6.7,1.9,11s-.6,8-1.9,11c-1.3,3-3,5.4-5.3,7-2.2,1.6-4.7,2.4-7.6,2.4ZM485.9,811.9c1.4,0,2.5-.4,3.5-1.3,1-.9,1.8-2.2,2.4-4.1.6-1.9.9-4.3.9-7.2s-.3-5.4-.9-7.2c-.6-1.9-1.4-3.2-2.4-4.1-1-.9-2.2-1.3-3.5-1.3s-2.5.4-3.5,1.3c-1,.9-1.8,2.2-2.4,4.1-.6,1.9-.8,4.3-.8,7.2s.3,5.4.8,7.2c.6,1.9,1.4,3.2,2.4,4.1,1,.9,2.2,1.3,3.5,1.3Z"/>
  <path d="M442.1,818.9v-5.9l13.3-14.3c1.1-1.1,1.8-2.1,2.3-2.9.5-.9.8-1.6,1-2.4.2-.7.3-1.4.3-2,0-1.6-.5-2.8-1.4-3.6-.9-.9-2.3-1.3-4.1-1.3s-2.8.3-4.1,1c-1.2.6-2.3,1.6-3.1,3l-5.8-4.3c1.3-2.2,3.2-4,5.5-5.3,2.4-1.3,5.1-2,8.2-2s4.8.5,6.7,1.5c1.9.9,3.4,2.3,4.5,4,1.1,1.7,1.6,3.8,1.6,6.2s-.1,2.5-.4,3.8c-.3,1.2-.8,2.5-1.7,3.9-.8,1.4-2,2.9-3.7,4.7l-11.1,11.8-1.5-3.3h19.5v7.4h-26.1Z"/>
  <path d="M572.5,740.6c-6.3,0-11.9-1.7-16.9-5.2-5-3.6-8.9-8.7-11.8-15.4-2.9-6.7-4.3-14.9-4.3-24.4s1.4-17.7,4.3-24.4c2.9-6.7,6.8-11.8,11.8-15.3,5-3.6,10.6-5.4,16.9-5.4s12,1.8,16.9,5.4c5,3.5,8.9,8.6,11.8,15.3,2.9,6.7,4.3,14.9,4.3,24.4s-1.4,17.7-4.3,24.4c-2.9,6.7-6.8,11.9-11.8,15.4-4.9,3.5-10.5,5.2-16.9,5.2ZM572.5,723.6c3,0,5.6-1,7.8-2.9,2.3-1.9,4-4.9,5.3-9.1,1.3-4.1,2-9.5,2-16.1s-.7-11.9-2-16.1c-1.2-4.1-3-7.2-5.3-9.1-2.2-1.9-4.8-2.9-7.8-2.9s-5.5,1-7.8,2.9c-2.2,1.9-4,4.9-5.3,9.1-1.2,4.1-1.9,9.5-1.9,16.1s.6,11.9,1.9,16.1c1.3,4.1,3.1,7.2,5.3,9.1,2.3,1.9,4.9,2.9,7.8,2.9Z"/>
  <path d="M499,740.6c-6.3,0-11.9-1.7-16.9-5.2-5-3.6-8.9-8.7-11.8-15.4-2.9-6.7-4.3-14.9-4.3-24.4s1.4-17.7,4.3-24.4c2.9-6.7,6.8-11.8,11.8-15.3,5-3.6,10.6-5.4,16.9-5.4s12,1.8,16.9,5.4c5,3.5,8.9,8.6,11.8,15.3,2.9,6.7,4.3,14.9,4.3,24.4s-1.4,17.7-4.3,24.4c-2.9,6.7-6.8,11.9-11.8,15.4-4.9,3.5-10.5,5.2-16.9,5.2ZM499,723.6c3,0,5.6-1,7.8-2.9,2.3-1.9,4-4.9,5.3-9.1,1.3-4.1,2-9.5,2-16.1s-.7-11.9-2-16.1c-1.2-4.1-3-7.2-5.3-9.1-2.2-1.9-4.8-2.9-7.8-2.9s-5.5,1-7.8,2.9c-2.2,1.9-4,4.9-5.3,9.1-1.2,4.1-1.9,9.5-1.9,16.1s.6,11.9,1.9,16.1c1.3,4.1,3.1,7.2,5.3,9.1,2.3,1.9,4.9,2.9,7.8,2.9Z"/>
  <path d="M401.7,739.2v-13.1l29.7-31.7c2.3-2.4,4.1-4.6,5.2-6.5,1.1-1.9,1.8-3.7,2.2-5.2.4-1.6.7-3,.7-4.4,0-3.5-1.1-6.1-3.2-8-2.1-1.9-5.1-2.9-9.1-2.9s-6.2.7-9,2.1c-2.7,1.4-5,3.6-6.9,6.6l-13-9.5c2.9-5,7-8.9,12.3-11.8,5.3-2.9,11.4-4.4,18.2-4.4s10.7,1.1,14.9,3.2c4.3,2.1,7.7,5,10,8.8,2.4,3.8,3.6,8.4,3.6,13.7s-.3,5.6-1,8.5c-.6,2.7-1.8,5.6-3.7,8.7-1.8,3.1-4.5,6.5-8.1,10.3l-24.6,26.3-3.4-7.3h43.4v16.4h-58.1Z"/>
  <line class="st3" x1="482.1" y1="532.4" x2="299.3" y2="546"/>
  <polyline class="st3" points="190.1 617 499.8 913.4 810.4 617"/>
</svg>