<?xml version="1.0" encoding="utf-8"?>
<!-- Generator: Adobe Illustrator 27.5.0, SVG Export Plug-In . SVG Version: 6.00 Build 0)  -->
<svg version="1.1" id="Layer_1" xmlns="http://www.w3.org/2000/svg" xmlns:xlink="http://www.w3.org/1999/xlink" x="0px" y="0px"
	 viewBox="0 0 515 310" style="enable-background:new 0 0 515 310;" xml:space="preserve">
<style type="text/css">
	.st0{fill:transparent;}
	.st1{fill:#181818;}
</style>
<path class="st0" d="M12.8,0.1h489.5c6.5,0,11.8,5.3,11.8,11.8v286.1c0,6.5-5.3,11.8-11.8,11.8H12.8c-6.5,0-11.8-5.3-11.8-11.8V11.9
	C1,5.4,6.2,0.1,12.8,0.1z"/>
<g>
	<g>
		<path class="st1" d="M302.4,82.3h6.2l3,15.1c0.3,1.5,0.3,2.5,0.3,2.5l0,0c0,0,0-1,0.4-2.5l3.7-15.1h4.8l3.6,15.1
			c0.4,1.5,0.4,2.5,0.4,2.5l0,0c0,0,0-1,0.3-2.5l3.3-15.1h6.1l-6.1,24.2h-6.6l-3-12.2c-0.4-1.6-0.5-2.8-0.5-2.8l0,0
			c0,0-0.1,1.3-0.5,2.8l-3,12.2H308l-5.9-24.2L302.4,82.3z"/>
		<path class="st1" d="M345.2,88.7c5.5,0,9.9,3.7,9.9,9.2s-4.4,9.1-9.9,9.1s-9.9-3.6-9.9-9.1s4.4-9.2,9.8-9.2H345.2z M345.2,102.1
			c2.1,0,4-1.6,4-4.2s-1.8-4.3-4-4.3s-4,1.7-4,4.3S343,102.1,345.2,102.1z"/>
		<path class="st1" d="M357.9,89.1h5.6v1.5c0,0.6,0,1.1,0,1.1l0,0c0.8-1.2,2.4-3,5.2-3s4,1,4.9,2.9l0,0c0.9-1.5,3-2.9,5.6-2.9
			s5.7,1.7,5.7,6.5v11.3H379V96.2c0-1.3-0.2-2.2-1.4-2.2c-1.9,0-2.8,1.4-3.2,3.3c-0.1,0.6-0.1,1.3-0.1,2v7.2h-5.9V96.2
			c0-1.3-0.2-2.2-1.4-2.2c-1.8,0-2.8,1.3-3.2,3.1c-0.1,0.6-0.2,1.4-0.2,2.2v7.2h-5.9V89L357.9,89.1z"/>
		<path class="st1" d="M396.5,88.7c5.1,0,8.1,3.6,8.1,8.4s-0.1,1.8-0.1,1.8h-11c0.4,2.1,2.2,3.1,4.1,3.1s4.8-1.8,4.8-1.8l2.2,4.1
			c0,0-2.8,2.5-7.4,2.5s-9.6-4.5-9.6-9.1s3.5-9.1,9.1-9.1L396.5,88.7z M398.7,95.6c0-1.3-0.9-2.5-2.3-2.5s-2.5,1.2-2.8,2.5H398.7
			L398.7,95.6z"/>
		<path class="st1" d="M407.4,89.1h5.6v1.5c0,0.6,0,1.1,0,1.1l0,0c0.8-1.4,2.5-3,5.6-3s6.3,1.6,6.3,6.5v11.3H419V96.3
			c0-1.6-0.6-2.3-1.9-2.3c-1.8,0-2.9,1-3.5,2.5c-0.2,0.7-0.3,1.5-0.3,2.3v7.7h-5.9L407.4,89.1L407.4,89.1z"/>
		<path class="st1" d="M436,89.1h5.9v17.4H436V89.1z M436,82.2h5.7v4.6H436V82.2z"/>
		<path class="st1" d="M445.8,89.1h5.6v1.5c0,0.6,0,1.1,0,1.1l0,0c0.8-1.4,2.5-3,5.6-3s6.3,1.6,6.3,6.5v11.3h-5.9V96.3
			c0-1.6-0.6-2.3-1.9-2.3c-1.8,0-2.9,1-3.5,2.5c-0.2,0.7-0.3,1.5-0.3,2.3v7.7h-5.9L445.8,89.1L445.8,89.1z"/>
		<path class="st1" d="M304.6,116.2h5.9v19.1h9.9v5.1h-15.8C304.6,140.4,304.6,116.2,304.6,116.2z"/>
		<path class="st1" d="M330.4,122.6c5.1,0,8.1,3.6,8.1,8.4s-0.1,1.8-0.1,1.8h-11c0.4,2.1,2.2,3.1,4.1,3.1s4.8-1.8,4.8-1.8l2.2,4.1
			c0,0-2.8,2.5-7.4,2.5s-9.6-4.5-9.6-9.1s3.5-9.1,9.1-9.1L330.4,122.6z M332.6,129.4c0-1.3-0.9-2.5-2.3-2.5s-2.5,1.2-2.8,2.5H332.6
			L332.6,129.4z"/>
		<path class="st1" d="M350.1,129.6h0.2v-0.3c0-1.5-1.1-1.9-2.6-1.9c-2.2,0-4.7,1.7-4.7,1.7l-2-4.1c0,0,3-2.3,7.3-2.3
			s7.9,2.7,7.9,7.1v10.7h-5.3v-1c0-0.6,0-1.1,0-1.1l0,0c0,0-1.3,2.5-4.9,2.5s-5.9-2.2-5.9-5.6c0-5.1,7.4-5.7,10.1-5.7L350.1,129.6z
			 M347.5,136.4c1.5,0,2.9-1.7,2.9-3.1v-0.4h-0.5c-1.9,0-4,0.5-4,2s0.5,1.5,1.7,1.5H347.5z"/>
		<path class="st1" d="M366.7,122.6c3.5,0,4.6,1.4,4.6,1.4l0,0c0,0,0-0.3,0-0.8v-7h5.9v24.2h-5.5v-1.2c0-0.5,0-1,0-1l0,0
			c0,0-1.5,2.5-5,2.5s-7.9-3.7-7.9-9.1s3.3-9.1,8-9.1L366.7,122.6z M368.1,135.9c1.8,0,3.4-1.3,3.4-4.3s-1.1-4.2-3.4-4.2
			s-3.4,1.5-3.4,4.2S366.1,135.9,368.1,135.9z"/>
		<path class="st1" d="M389,122.6c5.1,0,8.1,3.6,8.1,8.4s-0.1,1.8-0.1,1.8h-11c0.4,2.1,2.2,3.1,4.1,3.1s4.8-1.8,4.8-1.8l2.2,4.1
			c0,0-2.8,2.5-7.4,2.5s-9.6-4.5-9.6-9.1s3.5-9.1,9.1-9.1L389,122.6z M391.2,129.4c0-1.3-0.9-2.5-2.3-2.5s-2.5,1.2-2.8,2.5H391.2
			L391.2,129.4z"/>
		<path class="st1" d="M399.9,122.9h5.6v2.9c0,0.6,0,1.1,0,1.1l0,0c0.7-2.4,2.9-4.3,5.6-4.3s0.7,0,0.7,0v5.8c0,0-0.5-0.1-1.2-0.1
			c-1.4,0-3.7,0.4-4.5,3c-0.2,0.6-0.3,1.4-0.3,2.4v6.6h-5.9L399.9,122.9L399.9,122.9z"/>
		<path class="st1" d="M415.2,134.2c0,0,1.9,1.8,4.4,1.8s1.7-0.2,1.7-0.8c0-1.5-8.2-1.7-8.2-7.4s3.1-5.3,7.2-5.3s6.1,2,6.1,2l-2,4.2
			c0,0-1.7-1.4-4.1-1.4s-1.7,0.2-1.7,0.8c0,1.3,8.2,1.5,8.2,7.1s-2.6,5.5-7.1,5.5s-7-2.6-7-2.6L415.2,134.2L415.2,134.2z"/>
		<path class="st1" d="M429.7,116.2h5.9v7.6c0,0.9,0,1.5,0,1.5l0,0c1-1.7,3-2.8,5.3-2.8c3.5,0,6.3,1.6,6.3,6.5v11.3h-5.9v-10.2
			c0-1.6-0.6-2.3-1.9-2.3s-3,1-3.5,2.6c-0.2,0.7-0.3,1.4-0.3,2.2v7.7h-5.9V116.2L429.7,116.2z"/>
		<path class="st1" d="M450.9,122.9h5.9v17.4h-5.9C450.9,140.3,450.9,122.9,450.9,122.9z M450.9,116.1h5.7v4.6h-5.7V116.1z"/>
		<path class="st1" d="M460.8,122.9h5.3v0.9c0,0.6,0,1.1,0,1.1l0,0c0,0,1.6-2.4,5.3-2.4s7.9,3.7,7.9,9.1s-3.5,9.1-8.1,9.1
			s-4.4-1.7-4.4-1.7l0,0c0,0,0,0.6,0,1.5v6.5h-5.9L460.8,122.9L460.8,122.9z M469.9,135.9c1.8,0,3.4-1.5,3.4-4.2s-1.4-4.3-3.4-4.3
			s-3.4,1.3-3.4,4.3S467.6,135.9,469.9,135.9z"/>
		<path class="st1" d="M316.7,169.1h-7.5l-1.5,5.1h-6.1l8.2-24.2h6.2l8.2,24.2h-6.1L316.7,169.1L316.7,169.1z M312.9,155.5
			c0,0-0.5,2.6-1,4.2l-1.4,4.7h4.8l-1.4-4.7C313.5,158.2,312.9,155.5,312.9,155.5L312.9,155.5z"/>
		<path class="st1" d="M324.1,156.9h6.2l2.2,10.3c0.2,0.9,0.2,1.8,0.2,1.8l0,0c0,0,0-0.9,0.3-1.8l2.4-10.3h5l2.4,10.3
			c0.2,0.9,0.3,1.8,0.3,1.8l0,0c0,0,0-0.9,0.2-1.8l2.2-10.3h6.1l-4.9,17.4h-6.5l-2-8.1c-0.2-0.9-0.3-1.9-0.3-1.9l0,0
			c0,0-0.1,0.9-0.3,1.9l-2,8.1H329L324.1,156.9L324.1,156.9z"/>
		<path class="st1" d="M362.7,163.4h0.2v-0.3c0-1.5-1.1-1.9-2.6-1.9c-2.2,0-4.7,1.7-4.7,1.7l-2-4.1c0,0,3-2.3,7.3-2.3
			s7.9,2.7,7.9,7.1v10.7h-5.3v-1c0-0.6,0-1.1,0-1.1l0,0c0,0-1.3,2.5-4.9,2.5s-5.9-2.2-5.9-5.6c0-5.1,7.4-5.7,10.1-5.7L362.7,163.4z
			 M360.1,170.2c1.5,0,2.9-1.7,2.9-3.1v-0.4h-0.5c-1.9,0-4,0.5-4,2s0.5,1.5,1.7,1.5H360.1z"/>
		<path class="st1" d="M372.5,156.9h5.6v2.9c0,0.6,0,1.1,0,1.1l0,0c0.7-2.4,2.9-4.3,5.6-4.3s0.7,0,0.7,0v5.8c0,0-0.5-0.1-1.2-0.1
			c-1.4,0-3.7,0.4-4.5,3c-0.2,0.6-0.3,1.4-0.3,2.4v6.6h-5.9L372.5,156.9L372.5,156.9z"/>
		<path class="st1" d="M393.5,156.4c3.5,0,4.6,1.4,4.6,1.4l0,0c0,0,0-0.3,0-0.8v-7h5.9v24.2h-5.5v-1.2c0-0.5,0-1,0-1l0,0
			c0,0-1.5,2.5-5,2.5s-7.9-3.7-7.9-9.1s3.3-9.1,8-9.1L393.5,156.4z M394.9,169.8c1.8,0,3.4-1.3,3.4-4.3s-1.1-4.2-3.4-4.2
			s-3.4,1.5-3.4,4.2S392.9,169.8,394.9,169.8z"/>
		<path class="st1" d="M409.1,168.1c0,0,1.9,1.8,4.4,1.8s1.7-0.2,1.7-0.8c0-1.5-8.2-1.7-8.2-7.4s3.1-5.3,7.2-5.3s6.1,2,6.1,2l-2,4.2
			c0,0-1.7-1.4-4.1-1.4s-1.7,0.2-1.7,0.8c0,1.3,8.2,1.5,8.2,7.1s-2.6,5.5-7.1,5.5s-7-2.6-7-2.6L409.1,168.1L409.1,168.1z"/>
		<path class="st1" d="M303.4,209.6c0-8.9,10.5-10.5,10.5-14s-1.4-2.4-2.6-2.4c-2.3,0-3.6,2.6-3.6,2.6l-4.4-2.9c0,0,2.2-5.2,8.5-5.2
			s8.3,2.3,8.3,7.4c0,7.5-9.7,9-9.9,12.1h10.3v5.1h-16.8c-0.2-0.9-0.3-1.8-0.3-2.6V209.6z"/>
		<path class="st1" d="M323.5,200.1c0-6.9,2.2-12.5,9.1-12.5s9.1,5.5,9.1,12.5s-2.2,12.6-9.1,12.6S323.5,207.1,323.5,200.1z
			 M335.6,200.1c0-3.9-0.7-7-3-7s-3,3.1-3,7s0.7,7.1,3,7.1S335.6,204,335.6,200.1z"/>
		<path class="st1" d="M344.7,209.6c0-8.9,10.5-10.5,10.5-14s-1.4-2.4-2.6-2.4c-2.3,0-3.6,2.6-3.6,2.6l-4.4-2.9c0,0,2.2-5.2,8.5-5.2
			s8.3,2.3,8.3,7.4c0,7.5-9.7,9-9.9,12.1h10.3v5.1H345c-0.2-0.9-0.3-1.8-0.3-2.6V209.6z"/>
		<path class="st1" d="M366.9,204.9c0,0,2.2,2.2,5,2.2s3.5-1.1,3.5-2.4c0-1.9-1.9-2.7-4.5-2.7h-1.7l-1.3-2.9l3.2-3.8
			c1.2-1.4,2.1-2.3,2.1-2.3l0,0c0,0-0.8,0.1-2.3,0.1h-5.8V188h15.3v3.7l-4.9,5.7c3.6,0.8,5.9,3.6,5.9,7s-2.9,8.3-9,8.3
			s-8.3-3.2-8.3-3.2L366.9,204.9L366.9,204.9z"/>
	</g>
	<g>
		<path class="st1" d="M47.5,274.8h-8.2l-1.6,5.5H31l9-26.4h6.8l9,26.4h-6.6l-1.6-5.5H47.5z M43.4,260c0,0-0.6,2.9-1.1,4.5l-1.5,5.1
			H46l-1.5-5.1C44,262.8,43.4,260,43.4,260C43.4,260,43.4,260,43.4,260z"/>
		<path class="st1" d="M70.9,253.4c6.5,0,9.9,3.7,9.9,3.7l-3,4.9c0,0-3-2.7-6.6-2.7s-7.5,3.7-7.5,7.5s2.6,7.9,7.5,7.9s7-3.3,7-3.3
			l3.3,4.7c0,0-3.7,4.4-10.6,4.4S57,274.6,57,266.8s5.9-13.6,13.9-13.6L70.9,253.4z"/>
		<path class="st1" d="M97.6,253.4c6.5,0,9.9,3.7,9.9,3.7l-3,4.9c0,0-3-2.7-6.6-2.7s-7.5,3.7-7.5,7.5s2.6,7.9,7.5,7.9s7-3.3,7-3.3
			l3.3,4.7c0,0-3.7,4.4-10.6,4.4s-13.9-5.9-13.9-13.7s5.9-13.6,13.9-13.6L97.6,253.4z"/>
		<path class="st1" d="M124.2,253.4c8,0,13.8,5.9,13.8,13.5s-5.8,13.8-13.8,13.8s-13.8-6.1-13.8-13.8S116.2,253.5,124.2,253.4
			L124.2,253.4z M124.2,274.9c4,0,7.1-3.4,7.1-7.9s-3.2-7.6-7.1-7.6s-7.1,3.3-7.1,7.6S120.3,274.9,124.2,274.9z"/>
		<path class="st1" d="M144.1,253.9h7l3.8,11.2c0.6,1.7,1.3,4.4,1.3,4.4l0,0c0,0,0.7-2.7,1.3-4.4l3.8-11.2h7l2.1,26.4h-6.5
			l-0.8-11.9c-0.1-2,0-4.4,0-4.4l0,0c0,0-0.9,2.8-1.5,4.4l-2.8,7.6h-5.5l-2.8-7.6c-0.6-1.7-1.5-4.4-1.5-4.4l0,0c0,0,0.1,2.4,0,4.4
			l-0.8,11.9h-6.5l2.2-26.4H144.1z"/>
		<path class="st1" d="M176.3,253.9h11c5.1,0,8.6,3.8,8.6,9.1s-3.5,9.2-8.6,9.2h-4.5v8.2h-6.5V254V253.9z M185.9,266.6
			c2.3,0,3.4-1.5,3.4-3.6s-1.1-3.5-3.3-3.5h-3.3v7.2h3.2L185.9,266.6z"/>
		<path class="st1" d="M200,253.9h6.5v20.9h10.8v5.5H200V253.9z"/>
		<path class="st1" d="M221,253.9h6.5v26.4H221V253.9z"/>
		<path class="st1" d="M235.4,272c0,0,3,2.7,6.3,2.7s2.8-0.5,2.8-2.1c0-3.1-11.9-3-11.9-11.2s4.1-8.1,9.3-8.1s8.5,3,8.5,3l-2.7,5.3
			c0,0-2.7-2.3-5.8-2.3s-2.8,0.6-2.8,2.1c0,3.3,11.9,2.7,11.9,11.1s-3.4,8.2-9.3,8.2s-9.6-3.8-9.6-3.8L235.4,272L235.4,272z"/>
		<path class="st1" d="M255.6,253.9h6.5v10.6h9.6v-10.6h6.5v26.4h-6.5V270h-9.6v10.3h-6.5V253.9z"/>
		<path class="st1" d="M284.6,253.9h16.6v5.5h-10.1v4.8h8.1v5.5h-8.1v5h10.6v5.5h-17.1v-26.4V253.9z"/>
		<path class="st1" d="M306.6,253.9h9.4c8.3,0,13.6,4.8,13.6,13.2s-5.3,13.3-13.6,13.3h-9.4V254V253.9z M315.7,274.8
			c4.5,0,7.2-2.7,7.2-7.7s-2.8-7.6-7.2-7.6H313v15.3L315.7,274.8L315.7,274.8z"/>
		<path class="st1" d="M343.1,253.9h6.5v20.9h10.8v5.5h-17.3V253.9z"/>
		<path class="st1" d="M364.2,253.9h16.6v5.5h-10.1v4.8h8.1v5.5h-8.1v5h10.6v5.5h-17.1v-26.4V253.9z"/>
		<path class="st1" d="M399.4,274.8h-8.2l-1.6,5.5h-6.7l9-26.4h6.8l9,26.4H401L399.4,274.8L399.4,274.8z M395.2,260
			c0,0-0.6,2.9-1.1,4.5l-1.5,5.1h5.2l-1.5-5.1C395.9,262.8,395.2,260,395.2,260L395.2,260z"/>
		<path class="st1" d="M410.9,253.9h9.4c8.3,0,13.6,4.8,13.6,13.2s-5.3,13.3-13.6,13.3h-9.4V254V253.9z M420,274.8
			c4.5,0,7.2-2.7,7.2-7.7s-2.8-7.6-7.2-7.6h-2.7v15.3L420,274.8L420,274.8z"/>
		<path class="st1" d="M438.7,253.9h16.6v5.5h-10.1v4.8h8.1v5.5h-8.1v5h10.6v5.5h-17.1v-26.4V253.9z"/>
		<path class="st1" d="M460.7,253.9h9.2c2.7,0,4,0.2,5.1,0.6c3,1.1,4.9,3.8,4.9,7.7s-1.3,5.9-4,7.2l0,0c0,0,0.4,0.6,1,1.7l5.1,9.2
			h-7.2l-4.7-8.9h-3v8.9h-6.5v-26.4L460.7,253.9z M470,265.9c2.1,0,3.4-1.1,3.4-3.3s-0.7-3.2-4-3.2h-2.2v6.4h2.8L470,265.9z"/>
	</g>
	<g>
		<path class="st1" d="M141.7,180.4c2.7,0,4,1.6,4,1.6l-1.2,1.8c0,0-1.1-1.1-2.7-1.1s-3.2,1.5-3.2,3.2s1.3,3.3,3.3,3.3
			s3.1-1.3,3.1-1.3l1,1.8c0,0-1.5,1.7-4.3,1.7s-5.7-2.4-5.7-5.5S138.2,180.4,141.7,180.4L141.7,180.4z"/>
		<path class="st1" d="M151.9,180.4c2.7,0,4,1.6,4,1.6l-1.2,1.8c0,0-1.1-1.1-2.7-1.1s-3.2,1.5-3.2,3.2s1.3,3.3,3.3,3.3
			s3.1-1.3,3.1-1.3l1,1.8c0,0-1.5,1.7-4.3,1.7s-5.7-2.4-5.7-5.5S148.4,180.4,151.9,180.4L151.9,180.4z"/>
		<path class="st1" d="M162.5,184.4h0.3c0-1.5-0.9-2-2-2s-2.9,1-2.9,1l-1-1.9c0,0,1.6-1.3,4.1-1.3s4.3,1.5,4.3,4.2v6.5h-2.4v-0.9
			c0-0.4,0-0.7,0-0.7l0,0c0,0-0.8,1.8-3.2,1.8s-3.5-1.2-3.5-3.3C156.2,184.6,160.7,184.4,162.5,184.4L162.5,184.4z M160.5,189.2
			c1.4,0,2.4-1.5,2.4-2.7v-0.2h-0.5c-1.3,0-3.5,0.2-3.5,1.6s0.5,1.4,1.6,1.4V189.2z"/>
		<path class="st1" d="M167.3,184.1h6.2v2.3h-6.2V184.1z"/>
		<path class="st1" d="M179.4,193.1c1.6,0,3-0.7,3-2.5V190c0-0.2,0-0.6,0-0.6l0,0c-0.6,0.9-1.5,1.4-2.9,1.4c-3,0-4.7-2.4-4.7-5.3
			s1.6-5.2,4.6-5.2s3.1,1.3,3.1,1.3l0,0c0,0,0-0.1,0-0.3v-0.8h2.4v9.8c0,3.6-2.8,4.9-5.5,4.9s-2.7-0.4-3.7-0.9l0.8-2
			c0,0,1.3,0.7,2.9,0.7L179.4,193.1z M182.4,185.5c0-2.4-1.2-3-2.6-3s-2.5,1.1-2.5,2.9s0.9,3.2,2.6,3.2s2.4-0.7,2.4-3.1L182.4,185.5
			z"/>
		<path class="st1" d="M186.7,176.4h2.6v10.9c0,1.1,0.4,1.4,1.1,1.4s0.4,0,0.4,0v2.3c0,0-0.4,0-0.8,0c-1.4,0-3.2-0.4-3.2-3.4v-11.3
			L186.7,176.4z"/>
		<path class="st1" d="M196.6,180.4c3.2,0,5.8,2.3,5.8,5.5s-2.6,5.5-5.7,5.5s-5.8-2.3-5.8-5.5S193.5,180.4,196.6,180.4z
			 M196.6,189.1c1.7,0,3.1-1.3,3.1-3.3s-1.4-3.3-3.1-3.3s-3.1,1.3-3.1,3.3S194.9,189.1,196.6,189.1z"/>
		<path class="st1" d="M203.5,176.4h2.6v4.5c0,0.5,0,0.9,0,0.9l0,0c0,0,0.9-1.5,3.1-1.5s4.6,2.2,4.6,5.5s-2,5.5-4.8,5.5
			s-3.1-1.6-3.1-1.6l0,0c0,0,0,0.3,0,0.7v0.6h-2.5L203.5,176.4L203.5,176.4z M208.6,189.1c1.4,0,2.6-1.2,2.6-3.2s-1.1-3.3-2.6-3.3
			s-2.6,1-2.6,3.3S206.9,189.1,208.6,189.1z"/>
		<path class="st1" d="M220.3,184.4h0.3c0-1.5-0.9-2-2-2s-2.9,1-2.9,1l-1-1.9c0,0,1.6-1.3,4.1-1.3s4.3,1.5,4.3,4.2v6.5h-2.4v-0.9
			c0-0.4,0-0.7,0-0.7l0,0c0,0-0.8,1.8-3.2,1.8s-3.5-1.2-3.5-3.3C214,184.6,218.5,184.4,220.3,184.4L220.3,184.4z M218.3,189.2
			c1.4,0,2.4-1.5,2.4-2.7v-0.2h-0.5c-1.3,0-3.5,0.2-3.5,1.6s0.5,1.4,1.6,1.4V189.2z"/>
		<path class="st1" d="M224.8,176.4h2.6v10.9c0,1.1,0.4,1.4,1.1,1.4s0.4,0,0.4,0v2.3c0,0-0.4,0-0.8,0c-1.4,0-3.2-0.4-3.2-3.4v-11.3
			L224.8,176.4z"/>
		<path class="st1" d="M229.7,188.4h2.6v2.6h-2.6V188.4z"/>
		<path class="st1" d="M239,180.4c2.7,0,4,1.6,4,1.6l-1.2,1.8c0,0-1.1-1.1-2.7-1.1s-3.2,1.5-3.2,3.2s1.3,3.3,3.3,3.3
			s3.1-1.3,3.1-1.3l1,1.8c0,0-1.5,1.7-4.3,1.7s-5.7-2.4-5.7-5.5S235.5,180.4,239,180.4L239,180.4z"/>
		<path class="st1" d="M249.2,180.4c3.2,0,5.8,2.3,5.8,5.5s-2.6,5.5-5.7,5.5s-5.8-2.3-5.8-5.5S246.1,180.4,249.2,180.4z
			 M249.2,189.1c1.7,0,3.1-1.3,3.1-3.3s-1.4-3.3-3.1-3.3s-3.1,1.3-3.1,3.3S247.4,189.1,249.2,189.1z"/>
		<path class="st1" d="M256.1,180.6h2.5v1.2c0,0.4,0,0.7,0,0.7l0,0c0.5-1,1.8-2.2,3.4-2.2s2.6,0.7,3.1,2.2l0,0
			c0.6-1.1,1.9-2.2,3.6-2.2s3.4,1.2,3.4,4v6.7h-2.6v-6.2c0-1.2-0.2-2.1-1.4-2.1s-2.2,1.1-2.5,2.4c-0.1,0.4-0.1,0.9-0.1,1.4v4.6h-2.6
			v-6.2c0-1.1-0.2-2.1-1.4-2.1s-2.2,1.1-2.6,2.4c-0.1,0.4-0.1,0.9-0.1,1.3v4.6h-2.6L256.1,180.6L256.1,180.6z"/>
	</g>
	<g>
		<path class="st1" d="M160.2,120.4c12.2,0,18.4,6.9,18.4,6.9l-5.6,9.1c0,0-5.5-5-12.3-5s-13.9,6.9-13.9,14s4.8,14.8,13.9,14.8
			s13.1-6,13.1-6l6.2,8.8c0,0-6.9,8.2-19.8,8.2s-25.8-10.9-25.8-25.5S145.3,120.4,160.2,120.4L160.2,120.4z"/>
		<path class="st1" d="M207.3,120.4c12.2,0,18.4,6.9,18.4,6.9l-5.6,9.1c0,0-5.5-5-12.3-5s-13.9,6.9-13.9,14s4.8,14.8,13.9,14.8
			s13.1-6,13.1-6l6.2,8.8c0,0-6.9,8.2-19.8,8.2s-25.8-10.9-25.8-25.5S192.4,120.4,207.3,120.4L207.3,120.4z"/>
		<path class="st1" d="M256.9,160.1h-15.3l-3,10.3h-12.4l16.7-49.1h12.6l16.7,49.1h-12.4L256.9,160.1L256.9,160.1z M249.2,132.5
			c0,0-1.1,5.4-2,8.5l-2.8,9.6h9.7l-2.7-9.6c-0.9-3.1-2-8.5-2-8.5H249.2L249.2,132.5z"/>
	</g>
	<path class="st1" d="M288.2,217.4c-0.4,0-0.8-0.3-0.8-0.8V76.7c0-0.4,0.3-0.8,0.8-0.8s0.8,0.3,0.8,0.8v139.9
		C289,216.9,288.8,217.3,288.2,217.4L288.2,217.4z"/>
	<g>
		<path class="st1" d="M124,238.4c-6.9-23.8-12.2-48-22-71.3c-12,14.4-19.2,31.1-26.3,47.9c-0.3,0-0.5-0.1-0.8-0.2
			c0.6-4.1,0.8-8.4,1.7-12.5c3.9-17.2,9.6-33.8,18.4-49.1c0.8-1.4,0.8-2.5,0.1-4c-6.7-15.5-21.8-34.7-30.4-40.3
			c0.3-0.4,0.7-0.8,1-1.2c1.5,0.9,3.1,1.6,4.5,2.8c5.9,5,11.9,10,17.6,15.4c4.9,4.7,9.7,9,14.8,14.4c14-19.8,26.9-37.7,40.3-56.6
			c0.3,0.1,0.5,0.3,0.8,0.4c-0.5,1.2-0.8,2.5-1.4,3.7c-10.3,21.6-20.6,43.1-30.9,64.7c-0.5,1-0.6,2.6-0.2,3.6
			c6,13.8,9.4,28.4,11.8,43.2c2,12.3,2.1,24.6,1.9,37c0,0.7-0.1,1.4-0.2,2.1c-0.2,0-0.4,0.1-0.6,0.2L124,238.4z"/>
		<path class="st1" d="M106.8,125.4c0,4.7-1.3,7.2-3.6,7.7c-2.2,0.5-4.7-1-6.3-4.1c-1.8-3.3-2.4-6.8-1.1-10.4c1.2-3.4,4.3-4.2,7-1.8
			c2.9,2.6,4,5.9,4,8.5V125.4z"/>
		<circle class="st1" cx="167.3" cy="40.5" r="2.6"/>
		<g>
			<path class="st1" d="M128.7,66.2c-1.4-1-2.7-2.3-4-3.8c1.7,5.9,5,11.2,9.8,15.2c0.9,0,1.9,0.1,2.9,0.2c-4.6-3.7-7.3-7.7-8.8-11.6
				L128.7,66.2z"/>
			<path class="st1" d="M139.4,70.9c-2.7-0.6-5.6-1.6-8.4-3.2c1.7,3.4,4.5,6.8,8.9,10l0,0c1.9,0.2,3.8,0.2,5.9,0
				C143.1,75.4,140.9,73.2,139.4,70.9L139.4,70.9z"/>
			<path class="st1" d="M121.4,45.1c-4.5-0.6-7.3-1.2-8.4-1.6c-10.1-3.1-19-6.3-29-9.6c-8.7-2.9-19.5-5.6-28.8-4.3
				c-2.5,0.4-5.4,1-6.9,1.8c16.2,2.1,39.4,12.1,44.4,20c-6.8-1.2-15.1-0.9-21.8,1.5c-6.6,2.4-11.7,6.4-16.8,11.1
				c0.5,0,1.9-0.4,2.2-0.6c11.6-5.2,23.1-4.1,34.7,0.8c8.3,3.5,16.7,6.8,25.1,9.9c2.4,0.9,7,2.1,13.3,3c-7.6-8.6-10-20.7-8.1-32
				L121.4,45.1z"/>
			<path class="st1" d="M160.5,53.9c1.5-2.8,3.1-5.9,4.9-9.4c-4.5,0.6-8.7,0.9-12.6,1.2c-1,1.8-3.3,6.3-3.9,11.5
				C152.9,56.7,156.9,55.5,160.5,53.9z"/>
			<path class="st1" d="M147.3,57.4c0.4-4.9,2.4-9.2,3.6-11.6c-3.6,0.2-7,0.3-10.1,0.4c-0.8,1.2-3.3,5.2-3.8,10.5
				C140.2,57.6,143.7,57.7,147.3,57.4z"/>
			<path class="st1" d="M135.7,56.2c0.5-4.6,2.3-8.2,3.4-10.1c-2.8,0-5.3,0-7.7-0.2c-0.4,0.8-1.5,3.1-2.2,6.3
				C131.1,54,133.3,55.3,135.7,56.2L135.7,56.2z"/>
			<path class="st1" d="M129.7,45.9c-1.8-0.1-3.5-0.2-5.1-0.4c0.9,2.2,2,4,3.3,5.6C128.5,48.8,129.2,47,129.7,45.9z"/>
			<path class="st1" d="M137,58.7c0,3.3,0.9,7.1,3.3,10.9c4.5,0.8,8.4,0.5,10.3,0.2c-2.5-3.4-3.4-7.1-3.3-10.6
				C143.8,59.6,140.3,59.4,137,58.7z"/>
			<path class="st1" d="M151.9,69.1c1.9-3.1,4.4-7.3,7.4-13c-3.4,1.4-7,2.4-10.6,2.9c0,3.4,0.7,6.9,3.1,10L151.9,69.1z"/>
			<path class="st1" d="M141.5,71.3c1.4,1.8,3.1,3.6,5.2,5.4c0.7-0.9,2-2.6,3.7-5.4c-1.1,0.1-2.6,0.3-4.3,0.3S143.1,71.7,141.5,71.3
				L141.5,71.3z"/>
			<path class="st1" d="M128.7,54.8c-0.3,3-0.2,6.6,1.2,10.3c2.7,2,5.6,3.3,8.4,4c-2.1-3.8-2.8-7.5-2.7-10.8
				C133.1,57.6,130.8,56.4,128.7,54.8L128.7,54.8z"/>
			<path class="st1" d="M127.4,53.6c-1.5-1.5-2.9-3.2-4-5.3c-0.2,1.8-0.2,3.6-0.1,5.4c0,1.6,0.3,3.3,0.5,4.9c1.2,1.9,2.6,3.5,4,4.8
				C126.9,60,127,56.5,127.4,53.6z"/>
			<path class="st1" d="M123.8,58.6c-0.3-1.6-0.5-3.2-0.5-4.9c0-1.8,0-3.6,0.1-5.4c1.1,2.1,2.5,3.9,4,5.3c-0.4,2.9-0.5,6.2,0.4,9.8
				C126.4,62.1,125,60.5,123.8,58.6z M129.9,65.2c-1.3-3.7-1.5-7.3-1.2-10.3c2,1.6,4.3,2.8,6.8,3.5c0,3.3,0.7,7,2.7,10.8
				C135.4,68.6,132.5,67.2,129.9,65.2L129.9,65.2z M150.6,69.9c-1.9,0.3-5.8,0.6-10.3-0.2c-2.4-3.8-3.3-7.6-3.3-10.9
				c3.2,0.8,6.7,0.9,10.3,0.5C147.3,62.8,148.1,66.5,150.6,69.9z"/>
		</g>
	</g>
</g>
</svg>
