<svg id="Layer_1" data-name="Layer 1" xmlns="http://www.w3.org/2000/svg" viewBox="0 0 499.31 490.31"><path d="M378.21,156.65c.22,70.75-57.76,128.74-128.74,128.51-70.3,0-128.73-57.31-128.73-129C121,85,179.4,27.69,249.92,27.92,321.12,28.14,378.66,86.35,378.21,156.65ZM249.7,31.5C181.19,31.5,124.77,86.8,124.54,156A125.31,125.31,0,0,0,249.47,281.8c69.41,0,125.38-56.41,125.38-124.92S319.33,31.5,249.7,31.5Z" transform="translate(-4.69 -18.29)"/><path d="M94.32,315.39a25.9,25.9,0,0,0,3.58,3.36,156,156,0,0,0,28,17,9.29,9.29,0,0,1,3.13,2,2.61,2.61,0,0,1,.9,3.13,3,3,0,0,1-3.14,1.12,12.77,12.77,0,0,1-2.68-.89A160.69,160.69,0,0,1,52,271.51a175.71,175.71,0,0,1-18.58-56,195.77,195.77,0,0,1-2-39.62c1.79-29.56,9.85-57.1,25.07-82.39A159.2,159.2,0,0,1,85.14,58.59a4.82,4.82,0,0,1,1.79-1.12A10.1,10.1,0,0,1,85.36,59C60.51,83,44.84,112.1,37.45,145.9a200.32,200.32,0,0,0-3.36,23.29,173.91,173.91,0,0,0-.22,26.42A179.52,179.52,0,0,0,49.54,258.3,158.74,158.74,0,0,0,83.12,306L91.86,314a11.36,11.36,0,0,0,1.79,1.12C94.1,315.39,94.1,315.39,94.32,315.39Z" transform="translate(-4.69 -18.29)"/><path d="M406.42,314.72c3.36-2.91,6.72-5.6,9.85-8.51C438,284.72,452.32,259,459.93,229.42A175.54,175.54,0,0,0,464.85,201a156.77,156.77,0,0,0,.68-25.07c-2-38.51-14.33-73.22-39.18-103.22-3.36-4.25-7.39-8.06-11-11.86a4,4,0,0,1-.89-1.12l.22-.23a134.76,134.76,0,0,1,9.85,9.86c20.6,22.83,33.59,49.7,40.08,79.92a176.82,176.82,0,0,1,3.58,28.66c1.57,34.93-5.59,67.84-23.06,98.29a158.53,158.53,0,0,1-69.85,65.15,7.29,7.29,0,0,1-3.14.89,2.25,2.25,0,0,1-2.68-1.11c-.67-1.12,0-2,.67-2.69a15.45,15.45,0,0,1,3.13-2.24,143,143,0,0,0,18.14-10.08,72.43,72.43,0,0,0,13.21-9.85.83.83,0,0,1,.67-.22A2.26,2.26,0,0,1,406.42,314.72Z" transform="translate(-4.69 -18.29)"/><path d="M240.74,325.91a34.08,34.08,0,0,1-2.46,13.43,21.88,21.88,0,0,1-5.15,7.62,13.79,13.79,0,0,1-19.48.22,22,22,0,0,1-6.49-12.31,42.18,42.18,0,0,1,.22-19,22.39,22.39,0,0,1,6.05-10.75c5.82-5.82,14.55-5.82,20.15.22A24.17,24.17,0,0,1,239.85,319,66.3,66.3,0,0,1,240.74,325.91Zm-7.39-.89c0-1.12-.22-3.14-.44-5.15-.68-3.59-1.57-6.94-4-9.63-2.91-3.58-7.39-3.81-10.75-.45a20.08,20.08,0,0,0-2.46,3.58,30.51,30.51,0,0,0-2,7.39,28.76,28.76,0,0,0,2,16.79,19,19,0,0,0,2.91,4.48,6.15,6.15,0,0,0,9.4,0,21.26,21.26,0,0,0,3.13-4.7C232.91,333.75,233.35,329.94,233.35,325Z" transform="translate(-4.69 -18.29)"/><path d="M257.76,350.09c3.13-3.81,6-7.16,8.73-10.75,3.81-4.7,7.84-9.62,11.64-14.32a30,30,0,0,0,3.58-5.6c1.79-3.36,1.57-6.72-.67-9.18a8.23,8.23,0,0,0-9.4-2.24,6.88,6.88,0,0,0-4.26,4c-.44,1.34-.89,2.69-1.34,4H259.1c-.45-4.7,2.69-11.19,7.17-13.43,6-2.91,12.31-2.69,17.91,1.34,6,4.25,7.61,11.87,4,18.58a32.19,32.19,0,0,1-3.81,5.82c-3.36,4.26-6.94,8.51-10.52,12.77a12.52,12.52,0,0,1-1.57,2c2,.67,3.81.22,5.82.22H290v6.72Z" transform="translate(-4.69 -18.29)"/><path d="M318.65,316.06h-6.94c-.22-8.51,5.83-15,14.11-15.22a17.48,17.48,0,0,1,7.61,1.11c8.06,3.36,11.64,12.09,7.84,19.93a40.56,40.56,0,0,1-3.81,6.05c-3.36,4.47-7.16,8.73-10.75,13-.44.67-.89,1.12-1.79,2.24h17.69v6.72H310.37a12.81,12.81,0,0,1,1.34-1.79C317.54,341.14,323.36,334,329,327a36.07,36.07,0,0,0,4.71-6.72,12.48,12.48,0,0,0,1.56-4,7.49,7.49,0,0,0-5.82-8.5c-4.48-1.12-8.28.67-9.85,4.92C319.33,313.6,319.1,314.72,318.65,316.06Z" transform="translate(-4.69 -18.29)"/><path d="M167.53,343.15h17.24v6.72H152.53a12.57,12.57,0,0,0,1.57-2c5.59-6.71,11-13.43,16.56-20.15,2-2.46,3.81-5.15,5.6-7.83a7.88,7.88,0,0,0,1.12-6.72c-.89-3.36-3.8-5.6-7.61-6a7.57,7.57,0,0,0-7.84,4.93c-.44,1.12-.67,2.46-1.12,3.81h-6.94c-.67-8.29,5.6-15,13.88-15.45a16.44,16.44,0,0,1,9.18,1.79c7.39,3.8,10.08,12.31,6,19.92-1.57,3.14-4,6-6,8.74-3.13,4-6.27,7.61-9.62,11.41A3.67,3.67,0,0,1,167.53,343.15Z" transform="translate(-4.69 -18.29)"/><path d="M30.29,207.47c-3.36-5.59-4.48-6.26-8.06-6-1.12,4.48,2,10.07,6.27,12.09a14.76,14.76,0,0,1-6.94-.22,18.27,18.27,0,0,1-11-9,38,38,0,0,1-4.48-11.87,75.91,75.91,0,0,1-1.35-18.8A2.37,2.37,0,0,1,5,172.55a11,11,0,0,1,2.68.22A21.63,21.63,0,0,1,23.12,184a49.79,49.79,0,0,1,5.6,15.89,52.32,52.32,0,0,1,1.12,5.82C30.29,206.13,30.29,206.58,30.29,207.47Z" transform="translate(-4.69 -18.29)"/><path d="M477.17,201.43c-5.15-.45-6.94,2.91-8.73,6.27.67-2.91,1.12-6,1.79-9a60.94,60.94,0,0,1,4.48-13.21A22.21,22.21,0,0,1,489,173a31.53,31.53,0,0,1,4.93-.9c0,.9.22,1.34.22,2a72.2,72.2,0,0,1-2.24,21.95c-1.56,5.15-3.58,9.85-7.83,13.43-3.81,3.36-8.51,4.7-14.11,4.25C476.05,211.28,476.5,206.58,477.17,201.43Z" transform="translate(-4.69 -18.29)"/><path d="M37.45,249.34c-6.94,2.24-13,.23-17.69-5.15a38.46,38.46,0,0,1-4.92-7.39A59.07,59.07,0,0,1,9,217.33c2.91-1.12,5.82-.68,8.73,0,4.25.89,7.61,3.35,10.52,6.49,4,4.7,6.72,10.3,9.18,16.12a19.2,19.2,0,0,1,1.12,3.36c-2.24-2.69-4.48-5.15-8.51-3.59C31,243.74,32.3,248,37.45,249.34Z" transform="translate(-4.69 -18.29)"/><path d="M490.38,217.1a72.77,72.77,0,0,1-2.69,12.09c-1.57,4.7-3.36,9.18-6.49,13.21a17.83,17.83,0,0,1-10.3,7.17,16.93,16.93,0,0,1-9.4-.45c5.37-1.35,6.71-5.38,8.28-9.63-3.81-1.34-6.27.67-8.51,3.58V242c2.24-5.59,4.7-11.19,8.29-16.12,3.13-4.25,6.94-7.61,12.31-9C484.56,216.43,487.47,216,490.38,217.1Z" transform="translate(-4.69 -18.29)"/><path d="M29.62,169c-.68-3.59-1.8-6.72-6.05-7.39-1.57,4.7-.22,9.62,3.36,12.09a14.2,14.2,0,0,1-9.18-4,20.53,20.53,0,0,1-6.05-11.2,56.09,56.09,0,0,1-.22-17.24c.45-2.91,1.12-5.82,1.57-8.95a6.34,6.34,0,0,1,2.46.89A20.28,20.28,0,0,1,27.15,145C30.29,152.62,30.06,160.91,29.62,169Z" transform="translate(-4.69 -18.29)"/><path d="M469.11,168.29v-5.37a56.33,56.33,0,0,1,1.79-15c1.79-6.72,5.6-11.64,11.86-14.55.9-.45,2-.67,3.14-1.12.22,1.12.67,2.24.89,3.36a58.73,58.73,0,0,1,1.35,17.68,26.09,26.09,0,0,1-3.36,12.32,17.27,17.27,0,0,1-12.76,8.5,11.7,11.7,0,0,0,3.58-12.31c-3.81.67-5.15,3.36-5.82,6.72A.81.81,0,0,0,469.11,168.29Z" transform="translate(-4.69 -18.29)"/><path d="M39.47,211.73c4.25-3.36,4.25-7.84,3.8-12.32-4,.45-4.92,1.35-7.16,7.17a32.06,32.06,0,0,1,0-4.7c.22-4.7.67-9.63,2.46-14.11,2.46-6,6.72-10.07,13-11.42a54.58,54.58,0,0,1,5.82-.67c.67,0,1.34.23,2.24.23a33.7,33.7,0,0,0-.23,4.7,55.23,55.23,0,0,1-3.8,17c-2.91,6.72-7.84,11-14.78,13.44C40.81,211.5,40.36,211.5,39.47,211.73Z" transform="translate(-4.69 -18.29)"/><path d="M463.06,207.47c-.89-4.7-2.46-7.61-7.16-8.06-.45,4.48-.45,8.74,3.58,12.09h-1.12c-6.49-2.23-11.42-6-14.55-12.31a52.79,52.79,0,0,1-4-15.22q-.34-3.71-.67-7.39a14,14,0,0,1,8.06.22c6.49,1.57,10.74,5.6,13.21,11.87A33.44,33.44,0,0,1,462.62,201,30.11,30.11,0,0,1,463.06,207.47Z" transform="translate(-4.69 -18.29)"/><path d="M52,274.42c-2.46-2.24-4.92-4-8.5-1.79,2.24,3.58,4,7.16,9.4,7.16A13.18,13.18,0,0,1,43.5,282,18.76,18.76,0,0,1,33,276.88a42.32,42.32,0,0,1-9.18-13.43c-1.12-2.24-2-4.48-3.13-6.94a16,16,0,0,1,10.07-1.57,17.33,17.33,0,0,1,8.51,3.8C44.62,263,48.42,268.6,52,274.42Z" transform="translate(-4.69 -18.29)"/><path d="M446.72,279.79c3.81,0,6.49-2,8.73-6.94-2.24-2-4.25-1.57-8.28,1.57a9.7,9.7,0,0,1,.67-1.57,56.36,56.36,0,0,1,11-13.21,17.6,17.6,0,0,1,17.69-3.81,14.87,14.87,0,0,0,1.79.68c-.23.44-.23,1.12-.45,1.56-2.69,6.94-6.27,13.66-11.64,19a16.86,16.86,0,0,1-10.53,5.15A16.42,16.42,0,0,1,446.72,279.79Z" transform="translate(-4.69 -18.29)"/><path d="M59.39,208.15l.67,4.7c.68,6,.9,12.09-.67,18.13A22,22,0,0,1,48,244.86c3.14-3.58,2.24-7.61,1.12-11.64-3.58.45-4.47,2.46-4.92,8.51a34.35,34.35,0,0,1-1.79-8.06,31.53,31.53,0,0,1,.44-11.2C44.62,214.64,50.66,209.27,59.39,208.15Z" transform="translate(-4.69 -18.29)"/><path d="M440,208.37A18.13,18.13,0,0,1,456.79,224c.9,5.6,0,11.2-1.34,16.57,0,.22-.22.22-.45.45,0-3.81-.67-6.94-4.7-8.29-1.12,4-2,7.84.9,11.65a11.09,11.09,0,0,1-1.57-.68,22.48,22.48,0,0,1-10.52-15.89c-1.12-6.49-.45-13,.44-19.48C439.78,208.59,439.78,208.37,440,208.37Z" transform="translate(-4.69 -18.29)"/><path d="M62.3,147a63.16,63.16,0,0,1-6.94,18.14,19.72,19.72,0,0,1-17,9.63,7.84,7.84,0,0,0,3.8-4.26,53.09,53.09,0,0,0,1.57-5.59c-3.81-.9-5.37.22-8.06,5.14.22-1.56.67-3.13.9-4.92a36.85,36.85,0,0,1,4.25-10.75c4.7-8.06,12.76-10.07,20.82-7.61C61.63,146.58,61.86,146.8,62.3,147Z" transform="translate(-4.69 -18.29)"/><path d="M436.87,147c6.94-2.91,15.22-1.56,20.15,4.71a36,36,0,0,1,6,14.1c.23.9.23,1.79.45,2.69v1.12c-1.57-3.36-3.36-5.6-7.39-5.15.45,4,1.12,8.06,5.38,10.07-5.83-.22-10.75-2-14.78-6.49a29.31,29.31,0,0,1-5.82-9.85A66.81,66.81,0,0,1,436.87,147Z" transform="translate(-4.69 -18.29)"/><path d="M27.6,98.22A15.52,15.52,0,0,1,33,102a20,20,0,0,1,5.38,12.09c.67,6.5-.45,12.54-1.79,18.81,0,.22-.23.45-.45.89-.23-3.13-.9-6-4.26-7.16-1.79,3.81-1.79,8.73.68,11.42-.68-.23-1.12-.45-1.8-.67a16,16,0,0,1-8.5-12.09,32.81,32.81,0,0,1,1.12-14.78c.89-3.36,2.24-6.49,3.35-9.85A15.54,15.54,0,0,1,27.6,98.22Z" transform="translate(-4.69 -18.29)"/><path d="M471.35,98.22a2.94,2.94,0,0,0,.67.89c3.36,7.39,5.6,15.23,5.15,23.51-.45,6.49-3.14,11.42-9,14.55a3.09,3.09,0,0,1-1.34.45c2.91-3.58,2-7.39.89-11.42-3.58,1.57-4.25,4.26-4.47,7.61a37.51,37.51,0,0,1-1.12-4.92c-1.12-5.6-1.79-11.2-.67-16.79a17.82,17.82,0,0,1,8.06-12.54A11,11,0,0,1,471.35,98.22Z" transform="translate(-4.69 -18.29)"/><path d="M39,290.31c4.7-3.36,9.63-4.25,15-2.46a30.34,30.34,0,0,1,3.81,1.79,63.54,63.54,0,0,1,12.53,10.75c-2.46-1.35-5.15-2.47-7.61-.23,1.79,3.36,5.6,6,9.4,4.93a14,14,0,0,1-10.52,3.81,18.37,18.37,0,0,1-8.73-3.36C46.85,301.73,42.82,296.36,39,290.31Z" transform="translate(-4.69 -18.29)"/><path d="M434.18,238.15A17.67,17.67,0,0,1,446.5,257a40.42,40.42,0,0,1-3.36,12.32,5,5,0,0,1-1.12,1.79c.67-3.36.45-6.27-2.91-8.51-1.79,3.58-3.14,6.94-1.12,11.19-.67-.67-1.12-.89-1.57-1.34A21.15,21.15,0,0,1,429.93,257C429.93,250.46,431.72,244.19,434.18,238.15Z" transform="translate(-4.69 -18.29)"/><path d="M460.15,290.31a51.53,51.53,0,0,1-13,14.78A19.72,19.72,0,0,1,438,308.9a12.71,12.71,0,0,1-10.08-3.36,6.19,6.19,0,0,0,4.93-1.35c1.34-1.12,2.68-2.24,4-3.58-2.24-2.69-4.7-1.57-7.17-.67a.81.81,0,0,1,.23-.67c4-4.26,8.06-8.06,13.43-10.75,4.93-2.46,9.85-2.24,14.78.23a4.52,4.52,0,0,1,1.34.89Z" transform="translate(-4.69 -18.29)"/><path d="M61.86,273.3c.89-4.48.67-6.94-1.57-10.53-2.91,1.35-3.81,3.59-2.69,9a21.79,21.79,0,0,1-1.12-2A37.6,37.6,0,0,1,52.68,254a17.28,17.28,0,0,1,12.09-15.89,11.69,11.69,0,0,1,.67,1.56,53.9,53.9,0,0,1,3.8,17A21.2,21.2,0,0,1,62.3,273.3C62.3,273.07,62.08,273.3,61.86,273.3Z" transform="translate(-4.69 -18.29)"/><path d="M69,120.38v.45c-2.46,5.82-5.6,11.42-10.3,15.9-4.48,4.25-10.07,5.37-16.34,4a9,9,0,0,0,6.94-8.06c-3.36-1.12-5.6.44-7.39,3.13,1.79-5.6,4.25-10.75,8.73-14.55A15.14,15.14,0,0,1,69,120.38Z" transform="translate(-4.69 -18.29)"/><path d="M429.93,120.61c6.94-4.48,14.55-3.59,19.92,2,3.59,3.81,5.82,8.28,7.62,13.43a41.77,41.77,0,0,0-3.36-3.13c-1.35-.9-2.69-.67-4.48,0,1.34,3.58,2.46,7.16,6.72,8.06-6.05,1.34-11.42.22-15.9-4C435.52,132.25,432.61,126.43,429.93,120.61Z" transform="translate(-4.69 -18.29)"/><path d="M453.44,70.9c.22.45.22.67.44.9,3.81,5.6,6.72,11.42,7.84,17.91,1.12,6.27-.22,12.09-5.37,16.34a4.85,4.85,0,0,1-1.12.67c2-3.58.44-6.71-1.12-10.07-2.91,1.57-2.91,4.25-2.91,6.94a50.25,50.25,0,0,1-4.26-12.31,25.39,25.39,0,0,1-.44-9.18,17.7,17.7,0,0,1,5.14-9.63A6.06,6.06,0,0,1,453.44,70.9Z" transform="translate(-4.69 -18.29)"/><path d="M46,70.9c4.25,3.36,6.72,7.61,6.72,13a49.23,49.23,0,0,1-.9,8.06,45,45,0,0,1-4,11.64c.22-2.91.22-5.37-2.69-7.39-1.79,3.36-2.91,6.49-1.12,10.52a15.54,15.54,0,0,1-6.71-9.85,20,20,0,0,1,.45-9.62,57.28,57.28,0,0,1,7.38-15.9A1.15,1.15,0,0,0,46,70.9Z" transform="translate(-4.69 -18.29)"/><path d="M74.62,295.91c-3.81-5.37-7.17-10.75-7.17-17.69.23-6,3.14-10.3,8.29-13.65.89,1.56,1.79,2.91,2.46,4.25a37.46,37.46,0,0,1,5.15,13.66c.89,5.59-.67,10.52-4.26,15,.9-3.81-.89-6.72-3.13-9.41C73.72,290.09,73.5,291.66,74.62,295.91Z" transform="translate(-4.69 -18.29)"/><path d="M424.55,295.69c1.12-2.69,1.35-5.38-1.12-7.39-2.68,2-3.8,5.37-3.58,9.4a17.87,17.87,0,0,1-4.25-9.63,22.52,22.52,0,0,1,.89-9.4c1.35-4.93,3.81-9.18,6.5-13.43l.67-.67c4.7,3.13,7.61,7.16,8.06,13a17.63,17.63,0,0,1-1.34,8.28,36.49,36.49,0,0,1-4.93,9.18,1.78,1.78,0,0,0-.45.9A.81.81,0,0,1,424.55,295.69Z" transform="translate(-4.69 -18.29)"/><path d="M61,316.28c3.81-4,8.51-5.59,13.88-4.25a44.13,44.13,0,0,1,7.61,2.91,31.5,31.5,0,0,1,8.06,5.37c-2.46-.67-4.7-1.12-6.71,1.12,2,2.91,5.37,4,9.18,3.36a12.32,12.32,0,0,1-9,4.7,14.4,14.4,0,0,1-7.39-1.34c-6-2.46-10.74-6.49-15-11.19C61.41,317,61.18,316.73,61,316.28Z" transform="translate(-4.69 -18.29)"/><path d="M415.6,321.88c-2.24-2.24-2.69-2.24-7.17-1.34,1.57-1.12,2.47-1.79,3.59-2.69,3.8-2.46,7.61-4.92,12.31-5.82a14.18,14.18,0,0,1,13.88,4.48,3,3,0,0,1-.67.89,45.67,45.67,0,0,1-13.88,10.53,19.07,19.07,0,0,1-7.84,1.79,12.49,12.49,0,0,1-9.4-4.7C410.45,326.13,412.91,323.9,415.6,321.88Z" transform="translate(-4.69 -18.29)"/><path d="M52.9,111.43c4.25-.23,5.82-2.91,7.39-5.82-2.69-1.57-4-1.35-7.39,1.56.45-.89.9-1.56,1.12-2a39.51,39.51,0,0,1,6-7.39c6-5.37,13.44-5.37,19.71,0a4.77,4.77,0,0,1-.9,1.34,42.67,42.67,0,0,1-9.4,10.53c-4.48,3.58-9.63,4.25-15,2.46C54,112.1,53.8,111.87,52.9,111.43Z" transform="translate(-4.69 -18.29)"/><path d="M445.6,106.5c-2-1.79-4-2.46-6.27-1.12a7.87,7.87,0,0,0,6.49,6.05c-1.56,1.12-4.92,1.79-7.61,1.56a14,14,0,0,1-6.72-2.24c-5.14-3.35-8.73-7.83-12.09-13,4.26-4.48,11.2-5.6,15.9-2.69a21.46,21.46,0,0,1,5.6,4.48c1.79,2,3.36,4.25,4.92,6.27C445.82,106.05,445.6,106.28,445.6,106.5Z" transform="translate(-4.69 -18.29)"/><path d="M63.2,78.29c.45-2.24.45-4.25-1.34-6-2.24,1.56-3.36,4.47-3.14,8.5a13.3,13.3,0,0,1-4-11.86A25.16,25.16,0,0,1,56.93,62a44.45,44.45,0,0,1,9-12.54c.67.89,1.34,1.57,1.79,2.24A15.91,15.91,0,0,1,69.92,64,35.33,35.33,0,0,1,63.2,78.29Z" transform="translate(-4.69 -18.29)"/><path d="M437.54,72.25c-1.79,1.79-1.79,2-1.57,6l-1.12-1.12a45.34,45.34,0,0,1-5.82-13,15.55,15.55,0,0,1,2.24-12.09c.45-.68,1.12-1.35,1.57-2h.45C438.21,55,442.47,60.6,444,67.77a13.69,13.69,0,0,1-2.91,12.31l-.45.45a.77.77,0,0,1-.44.22C441.12,77.4,439.55,74.71,437.54,72.25Z" transform="translate(-4.69 -18.29)"/><path d="M94.32,315.39H94.1a37.69,37.69,0,0,1-6.95-8.73c-3.58-6.5-2.91-13.21,2-18.59a4.75,4.75,0,0,1,1.12-.89c4.25,4.48,7.84,9.18,10.07,15a15.74,15.74,0,0,1-1.12,13.88,31.68,31.68,0,0,0-1.56-4.25c-.67-1.35-2-2.47-2.91-3.59a4,4,0,0,0-1.12,4.71A5.81,5.81,0,0,0,94.32,315.39Z" transform="translate(-4.69 -18.29)"/><path d="M406.42,314.72c-.45.44-.9.67-1.34,1.12-.68-.9.22-1.35.44-2a4.74,4.74,0,0,0-.67-5.6,9.41,9.41,0,0,0-4.7,8.06,14.07,14.07,0,0,1-.9-1.56,16.93,16.93,0,0,1-.22-13.21,46.5,46.5,0,0,1,9.63-14.11.77.77,0,0,1,.45-.22,14.92,14.92,0,0,1,4,17,35.1,35.1,0,0,1-5.6,8.51A9.5,9.5,0,0,1,406.42,314.72Z" transform="translate(-4.69 -18.29)"/><path d="M162.38,387.93c-2.91-7.61-6-15-9.18-22.84.9,0,1.35-.22,2-.22H157c1.79,4.7,3.58,9.4,5.82,14.55,2-5.37,4-10.3,6-15.67,2,5.37,3.81,10.3,5.82,15.67,2.24-5.15,4-9.85,6.05-14.55h3.58c-3.36,7.83-6.49,15.45-9.63,23.06h-.44c-1.79-4.93-3.59-9.63-5.6-15-2,5.37-3.81,10.07-5.82,15Z" transform="translate(-4.69 -18.29)"/><path d="M364.55,365.09c.45,0,.9-.22,1.35-.22,2.23,0,2.23,0,2.91,2,1.34,3.58,2.91,7.17,4.25,11a11.18,11.18,0,0,1,.67,1.57c2-5.15,3.81-10.07,5.6-15h.45c1.79,4.93,3.58,9.63,5.59,15,.45-1.12.9-1.79,1.12-2.46,1.35-3.36,2.69-6.5,4-9.85,1.12-2.69,1.12-2.69,4.48-2-3.13,7.61-6.49,15.23-9.85,23.29-2-5.38-3.81-10.3-5.6-15.45-2,5.37-3.8,10.07-5.82,15C373.06,386.81,365.9,369.35,364.55,365.09Z" transform="translate(-4.69 -18.29)"/><path d="M67.9,82.77C71,79,74.62,75.6,79.77,74c4.7-1.35,9.85.67,13,4.92-3.58,4-7.61,7.61-12.76,9.85a12.85,12.85,0,0,1-12.09-.89c-.22,0-.22-.23-.67-.67,3.36.22,5.15-1.79,6.94-4C71.71,81.43,71.26,81.43,67.9,82.77Z" transform="translate(-4.69 -18.29)"/><path d="M406.64,79A12.23,12.23,0,0,1,419.4,74c4,.89,9.41,4.92,11.65,8.5-3.59-1.11-3.59-1.11-5.82.68,1.79,2.24,3.58,4.25,6.94,4.25a12.3,12.3,0,0,1-6.72,2.46,13.71,13.71,0,0,1-7.39-1.56A46.81,46.81,0,0,1,406.64,79Z" transform="translate(-4.69 -18.29)"/><path d="M86.26,34.63a12.79,12.79,0,0,1,2.46,10.08,18.54,18.54,0,0,1-2.24,5.82c-1.56,2.46-3.36,4.92-5.15,7.39A4.9,4.9,0,0,0,80.21,59c.68-2,1.12-3.81-.44-5.38-2,1.79-3.59,3.81-3.36,7.17a11.83,11.83,0,0,1-2.24-9.63,19.19,19.19,0,0,1,4.25-8.51A29.87,29.87,0,0,1,86.26,34.63Z" transform="translate(-4.69 -18.29)"/><path d="M423.21,60.38a9.62,9.62,0,0,0-3.58-6.94C418.06,55,418.06,55,419,59c-3.59-4-6.94-8.06-8.29-13.21a13.11,13.11,0,0,1,2-11.42A30.26,30.26,0,0,1,419,40a24.13,24.13,0,0,1,5.37,8.06,11.85,11.85,0,0,1-.45,11C423.88,59.48,423.66,59.71,423.21,60.38Z" transform="translate(-4.69 -18.29)"/><path d="M296,375.84c-.45-5.38,4.7-11.42,11.42-11.42a11.56,11.56,0,0,1,11.64,11.64,11.38,11.38,0,0,1-11.64,11.42C301.19,387.48,295.59,382.33,296,375.84Zm19.48,0a8.07,8.07,0,0,0-8.06-8.29,8,8,0,0,0-8.06,8.29,8.12,8.12,0,0,0,8.28,8.28C312.16,384.12,315.52,380.76,315.52,375.84Z" transform="translate(-4.69 -18.29)"/><path d="M431.72,363.52l15.67,16.35c.22,0,.22,0,.45-.23V365.09h2.91c.45,1.57.67,20.6,0,23.06l-15.23-15.89h-.44V387h-3.36Z" transform="translate(-4.69 -18.29)"/><path d="M422.76,365.09h3.14c.45,1.57.67,20.15,0,23.06L410.45,372c-.22,0-.22,0-.45.23V387h-3.13V363.75l15.45,16.12c.67-1.79.22-3.36.22-4.93V370A35.36,35.36,0,0,0,422.76,365.09Z" transform="translate(-4.69 -18.29)"/><path d="M33.2,369.12a19.68,19.68,0,0,0-2,2.24l-1.56-1.57a7.8,7.8,0,0,0-9.86-.67,8.35,8.35,0,0,0-2.91,10.08,8,8,0,0,0,8.51,5.15A6.17,6.17,0,0,0,30.51,379H25.36v-3.13h8.73c1.35,6.49-4,12.54-11.19,11.86a11.56,11.56,0,0,1-10.08-12.76c.45-5.82,5.82-10.3,11.87-10.3C28.05,364.64,30.73,366,33.2,369.12Z" transform="translate(-4.69 -18.29)"/><path d="M292.68,375.61a9.91,9.91,0,0,1-5.15,10.53,11.38,11.38,0,0,1-15.22-15.45,11.48,11.48,0,0,1,13.21-6.05,11.79,11.79,0,0,1,6.27,4.26l-2.24,2.24a7.39,7.39,0,0,1-1.34-1.35,8.09,8.09,0,0,0-9.85-.89,8.48,8.48,0,0,0-3.36,9.85,8.11,8.11,0,0,0,8.5,5.37,6.38,6.38,0,0,0,5.6-5.37H284v-3.14Z" transform="translate(-4.69 -18.29)"/><path d="M49.32,375.84a11.64,11.64,0,0,1,23.28.22,11.71,11.71,0,0,1-11.86,11.42A11.52,11.52,0,0,1,49.32,375.84ZM61,384.12a7.94,7.94,0,0,0,8.28-8.06,8.27,8.27,0,0,0-8.06-8.51,8.08,8.08,0,0,0-8.28,8.06C52.9,380.54,56.26,384.12,61,384.12Z" transform="translate(-4.69 -18.29)"/><path d="M491.05,18.29c6,.22,10.75,3.36,12.31,8.28a12.61,12.61,0,0,1-3.8,13.66,13.17,13.17,0,0,1-15.23,1.12,12.56,12.56,0,0,1-6-12.54,12.35,12.35,0,0,1,10.07-10.07A23.83,23.83,0,0,0,491.05,18.29Zm9.85,12.54c0-5.6-4.25-10.08-9.63-9.85a9.66,9.66,0,0,0-9.62,10.07,9.63,9.63,0,1,0,19.25-.22Z" transform="translate(-4.69 -18.29)"/><path d="M224.85,364.64c3.13.23,6,0,8.73.68,5.15.89,8.51,5.59,8.28,11.19-.22,5.37-3.8,9.63-9,10.3-2.69.22-5.15,0-8.06,0Zm3.35,3.59v15.44c3.59.23,6.94,0,9-3.35a7.78,7.78,0,0,0,0-8.74C235.14,368.23,231.79,368,228.2,368.23Z" transform="translate(-4.69 -18.29)"/><path d="M392.76,63.51c2.69-4,6.05-6.26,10.75-5.59,4.48.44,8.06,3.13,11.42,6-1.79-.45-3.59-.67-5.15,1.12,1.79,1.79,3.8,3.36,6.94,2.69-3.58,2.91-7.17,4-11.42,2.91C400.6,69.34,396.57,66.65,392.76,63.51Z" transform="translate(-4.69 -18.29)"/><path d="M84.92,63.51c3.35-2.91,7.16-5.37,11.86-5.59,4.26-.23,7.39,2,9.85,5.59-.44.45-.67.9-1.12,1.12a38.67,38.67,0,0,1-10.74,6.05,11.69,11.69,0,0,1-11.65-2.46,21.43,21.43,0,0,0,3.59-.9,13.68,13.68,0,0,0,2.91-2C88.05,63.51,87.83,63.29,84.92,63.51Z" transform="translate(-4.69 -18.29)"/><path d="M336.79,387V365.09c3.36,0,6.94-.45,10.07.67a10.51,10.51,0,0,1,6.95,11.2c-.45,6-4.26,9.62-10.3,10.07a42,42,0,0,1-5.38,0Zm3.13-3.36c4.71.45,7.84-.67,9.41-3.8a7.81,7.81,0,0,0-.67-8.73,8.25,8.25,0,0,0-8.74-2.69Z" transform="translate(-4.69 -18.29)"/><path d="M207.16,365.09a28.67,28.67,0,0,1,7.61.23,5.94,5.94,0,0,1,4.7,4.92c.23,2.91-.45,5.15-3.13,6.72a11.18,11.18,0,0,1-1.57.67c2.24,2.91,4.25,5.82,6.27,8.73-2.69,1.12-3.58.67-5.15-1.34-1.34-2-2.69-4-4.25-6a7.35,7.35,0,0,0-1.35-1.56v9.17h-3.13C206.93,385.47,206.71,368.67,207.16,365.09Zm3.36,3.14v6.71c2,0,4,.23,5.15-1.79a3,3,0,0,0-.23-3.58C214.32,368,212.53,368,210.52,368.23Z" transform="translate(-4.69 -18.29)"/><path d="M481,377.85c2.24,2.91,4.26,5.82,6.27,8.73-2.68.9-3.58.68-5.15-1.34-1.56-2.46-3.36-4.7-5.15-7.39-.67,1.57-.22,3.14-.44,4.48v4.48h-3.14c-.45-1.57-.45-18.58-.22-21.94a21.45,21.45,0,0,1,8.51.67,5.33,5.33,0,0,1,3.58,4.92c.22,2.69-.45,4.71-2.69,6.27A8.73,8.73,0,0,1,481,377.85Zm-4.25-9.62v6.71c2,.23,3.81.23,4.93-1.34a3.38,3.38,0,0,0,.22-3.81C480.53,368,478.73,368,476.72,368.23Z" transform="translate(-4.69 -18.29)"/><path d="M77.08,387.26V365.09a18,18,0,0,1,6.94.45,6,6,0,0,1,3.58,7.84,7.85,7.85,0,0,1-1.12,1.79c1.57,1.12,2.91,2.24,3.36,4.25a6.19,6.19,0,0,1-4.7,7.39C82.68,387,80,387,77.08,387.26Zm3.36-3.36a22.44,22.44,0,0,0,4-.23A3.08,3.08,0,0,0,86.93,381a3.18,3.18,0,0,0-1.79-3.14,5.76,5.76,0,0,0-4.7-.22Zm0-15.67a52.92,52.92,0,0,0,0,6c3.13.22,4.48-.89,4.48-3.13S83.57,368,80.44,368.23Z" transform="translate(-4.69 -18.29)"/><path d="M193.73,364c3.35,7.61,6.71,15,10.29,22.84h-3.58c-.45-1.12-1.12-2.69-1.79-4a1.42,1.42,0,0,0-1.57-1.12h-7.16c-.67,0-1.12.22-1.57,1.12a11.67,11.67,0,0,1-1.12,2.46c-.89,2-.89,2-3.13,1.79a3.43,3.43,0,0,1-1.35-.22c3.59-7.84,7.17-15.23,10.53-22.84Zm-.23,7.17c-1.12,2.68-2.24,4.92-3.36,7.16h6.5C195.52,375.84,194.62,373.6,193.5,371.14Z" transform="translate(-4.69 -18.29)"/><path d="M154.55,387H151a26.47,26.47,0,0,1-1.56-3.8,2,2,0,0,0-2-1.35h-6.94c-.9,0-1.57.23-1.79,1.12s-.9,1.57-1.12,2.47c-.45,1.56-1.34,2-2.91,1.79a4.27,4.27,0,0,1-1.57-.23c3.58-7.83,7.17-15.22,10.75-22.83C144.92,365.09,152.75,381.88,154.55,387ZM144,371.14c-1.12,2.68-2.24,4.92-3.36,7.16h6.5C146.26,375.84,145.14,373.6,144,371.14Z" transform="translate(-4.69 -18.29)"/><path d="M459.93,368v5.15c2.68.45,5.6,0,8.28.23v2.91h-8.28a39.55,39.55,0,0,0,0,7.38h8.73v3.14H456.57V364.87h12.09V368Z" transform="translate(-4.69 -18.29)"/><path d="M98.13,43.81c.22-1.57.67-2.68-.23-4.25-2.24,1.12-3.36,2.91-4,5.6-1.34-2.69-1.79-4.93-1.12-7.17a17.26,17.26,0,0,1,2.69-5.37,35.63,35.63,0,0,1,10.3-8.73,10,10,0,0,1,1.12,8.28,14.71,14.71,0,0,1-2,4.25A23.67,23.67,0,0,1,98.13,43.81Z" transform="translate(-4.69 -18.29)"/><path d="M393.43,24.33a1.68,1.68,0,0,0,.9.23,28.12,28.12,0,0,1,9.18,7.83c2.24,2.91,3.8,6,2.91,10.08a10.62,10.62,0,0,1-.9,2.46,7.27,7.27,0,0,0-4-5.15c-1.34,1.57-.44,2.91.23,4.48-3.81-2-9-8.51-9.41-12.31A11,11,0,0,1,393.43,24.33Z" transform="translate(-4.69 -18.29)"/><path d="M123.2,365.09V368h-8.73v5.38H123v3.13h-8.51v7.16c2.91.45,5.6,0,8.73.23v2.91H111.33V365.09A69.1,69.1,0,0,1,123.2,365.09Z" transform="translate(-4.69 -18.29)"/><path d="M94.54,364.87h11.87V368H97.68v5.15H106v3.14H97.68v7.38h8.73v3.14H94.77C94.1,385.24,94.1,368.67,94.54,364.87Z" transform="translate(-4.69 -18.29)"/><path d="M369.48,29.48c9.62-1.34,18.8,2.69,23.51,11.42a7.63,7.63,0,0,0-6.05-2.24c.9,2.24,2.69,3.36,4.7,4.48C383.13,43.14,372.61,36.65,369.48,29.48Z" transform="translate(-4.69 -18.29)"/><path d="M130.14,29.48c-5.6,8.06-12.76,13.21-22.84,13.88,2.24-1.12,4-2.23,4.93-4.7-2.24-.45-3.81.45-5.37,1.57.44-2.69,5.15-7.16,9.4-9.18A26.27,26.27,0,0,1,130.14,29.48Z" transform="translate(-4.69 -18.29)"/><path d="M258.65,368.23c-.89.44-1.79,1.12-2.68,1.56-.45-.44-.68-1.12-1.12-1.34a3.7,3.7,0,0,0-4.26,0,2.31,2.31,0,0,0,0,3.81,4.57,4.57,0,0,0,1.79.89c.9.45,2,.9,3.14,1.34,3.36,1.8,4.7,4.48,3.8,8.06-.67,2.92-3.58,4.93-6.71,5.15a6.53,6.53,0,0,1-6.94-5.15c0-.44-.23-.67-.23-1.34a16.81,16.81,0,0,0,3.14-.89,5.88,5.88,0,0,1,.45,1.56c.67,1.79,1.56,2.69,3.58,2.47a3.18,3.18,0,0,0,3.36-2.69,3.44,3.44,0,0,0-1.57-4l-2.69-1.34a8.84,8.84,0,0,1-2.46-1.35c-2-1.34-3.13-3.13-2.69-5.59a5.74,5.74,0,0,1,4.48-4.71C254,363.75,256.41,364.87,258.65,368.23Z" transform="translate(-4.69 -18.29)"/><path d="M379.1,51.65a9.68,9.68,0,0,1,10.75-5.82,27.68,27.68,0,0,1,8.51,3.58c-1.79.22-3.36,0-4,1.57,1.79,1.79,3.13,2.24,5.82,1.79-.45.45-.67.89-.9,1.12a9.84,9.84,0,0,1-8.5,2.24A24.51,24.51,0,0,1,379.1,51.65Z" transform="translate(-4.69 -18.29)"/><path d="M99.47,53a8.39,8.39,0,0,0,5.82-2c-.9-1.79-2.46-1.57-4-1.57,3.13-2.24,6.72-4,10.75-3.81,3.8,0,6.71,2.47,8.28,6-4.25,2.46-8.51,4.92-13.43,4.92A9.11,9.11,0,0,1,99.47,53Z" transform="translate(-4.69 -18.29)"/><path d="M38.57,365.09h3.36V383.9h6.49V387H38.79C38.57,379.64,38.57,372.48,38.57,365.09Z" transform="translate(-4.69 -18.29)"/><path d="M326.71,383.9h6.5v2.91H323.8c-.44-1.57-.67-17.69-.22-21.94h2.91C326.94,371.14,326.49,377.41,326.71,383.9Z" transform="translate(-4.69 -18.29)"/><path d="M398.14,365.09h3.13V387h-3.36C398.14,379.64,398.14,372.48,398.14,365.09Z" transform="translate(-4.69 -18.29)"/><path d="M414.26,59.26c-1.35-1.12-2.47-2.24-3.81-3.36a9.51,9.51,0,0,1,3.81,3.36Z" transform="translate(-4.69 -18.29)"/><path d="M407.76,53.22c.45.44,1.12.89,1.57,1.34l-.22.22c-.45-.45-1.12-.89-1.57-1.34Z" transform="translate(-4.69 -18.29)"/><path d="M88.27,55.9c.68-.45,1.12-.89,1.8-1.34l.22.22c-.45.45-1.12.9-1.57,1.35A.8.8,0,0,1,88.27,55.9Z" transform="translate(-4.69 -18.29)"/><path d="M91.41,53.22c.22-.23.67-.45.89-.9l.45.45c-.45.22-.67.45-1.12.67A.22.22,0,0,0,91.41,53.22Z" transform="translate(-4.69 -18.29)"/><path d="M347.31,156.65c.45,53.51-43.66,97.84-97.61,97.84-53.06,0-97.84-43.21-97.84-97.84a97.85,97.85,0,0,1,98.06-97.84C304.1,58.81,347.76,103.59,347.31,156.65ZM249.7,61.5c-52.17.22-95.15,41.87-95.15,94.93a95.16,95.16,0,0,0,94.7,95.37c52.39.23,95.38-42.53,95.38-94.92A95.08,95.08,0,0,0,249.7,61.5Z" transform="translate(-4.69 -18.29)"/><path d="M314.18,235.91c3.13,3.58,3.36,6.71.44,11.19,2.24-.45,4.26-1.12,6.27-.45a10.9,10.9,0,0,1,4.93,3.36c-3.14,3.36-8.06,3.81-11,.9a12.23,12.23,0,0,1-4-6.94C310.15,240.83,311.49,238.15,314.18,235.91Z" transform="translate(-4.69 -18.29)"/><path d="M340.82,236.58c-1.57,1.12-2.91,2-4.25,2.91a6.87,6.87,0,0,1-6.27,0,11.84,11.84,0,0,1-5.82-6.49c-1.35-3.36,0-6.05,1.79-8.51,3.58,2.24,4.25,4.93,2.68,10.75C333.21,232.77,337,233.22,340.82,236.58Z" transform="translate(-4.69 -18.29)"/><path d="M149.4,135.83c-1.35,6.72-6.94,8.06-12.09,6.94-5.15-1.34-7.39-5.82-5.83-10.75,4.48.68,6.5,2.91,7.62,8.51C142.23,135.61,144.47,134.71,149.4,135.83Z" transform="translate(-4.69 -18.29)"/><path d="M351.79,153.07c4.93-.22,6.27.67,9.18,6,2.24-5.15,4.7-6.94,9-6.94a7.56,7.56,0,0,1-5.83,9.18,11.31,11.31,0,0,1-7.16-.44C353.58,160,351.79,157.1,351.79,153.07Z" transform="translate(-4.69 -18.29)"/><path d="M357.61,211.28a17.77,17.77,0,0,1-1.57,2.24c-2.68,3.36-6,4.25-10.07,2.46a9,9,0,0,1-2.46-1.57c-4-3.13-4.93-6.71-2.69-11.41,4.25,1.34,5.82,4.47,5.15,10.07,1.79-1.57,3.36-2.91,5.6-3.13A9.92,9.92,0,0,1,357.61,211.28Z" transform="translate(-4.69 -18.29)"/><path d="M141.56,211.28c4.7-2.46,8.28-1.57,11.87,2-.68-5.83.44-8.29,4.92-10.3a8,8,0,0,1-.45,9.62,11.82,11.82,0,0,1-5.37,3.81,7.68,7.68,0,0,1-8.51-2A29.5,29.5,0,0,1,141.56,211.28Z" transform="translate(-4.69 -18.29)"/><path d="M134,192.47c4.92-1.56,8.51-.22,11.42,4.26-.23-2.69,0-4.7,1.34-6.27a9.5,9.5,0,0,1,5.15-3.14,7.77,7.77,0,0,1-2.24,9.41,12.53,12.53,0,0,1-5.82,2.68,7.05,7.05,0,0,1-8.06-3.58C135.07,194.49,134.62,193.59,134,192.47Z" transform="translate(-4.69 -18.29)"/><path d="M365,192.25c-1.34,5.6-5.6,8.06-11,6.49a12.6,12.6,0,0,1-4.48-2.46c-2.91-2.24-3.58-5.82-2.24-9.4,4.7,1.34,6.05,3.13,6.72,9.18C356.72,192.25,360.3,190.91,365,192.25Z" transform="translate(-4.69 -18.29)"/><path d="M167.08,217.55c3.58,4.7,2.69,9.85-2.46,13.43-4.48,3.14-9.18,2.24-12.31-2.46,4.25-3.36,7.61-2.69,11.64,0-.9-2.24-1.35-4-.9-6.05A9.94,9.94,0,0,1,167.08,217.55Z" transform="translate(-4.69 -18.29)"/><path d="M331.86,217.33c4,2.91,4.71,5.14,3.36,10.74,4.93-3.13,8.06-2.46,11.42.23-3.13,4.92-8.06,5.37-11.64,2.91-2.24-1.57-4.26-3.59-4.93-6.27S330.3,219.79,331.86,217.33Z" transform="translate(-4.69 -18.29)"/><path d="M184.77,235.91c5.15,4,4.48,9.4.9,13.88-2.69,3.36-7.17,4.92-12.32.67,2.24-3.58,5.15-4.48,11.2-3.13C181.41,243.3,181.86,239.71,184.77,235.91Z" transform="translate(-4.69 -18.29)"/><path d="M349.78,135.61c4.7-.9,8.06.22,10.29,4.7.45-4.93,3.14-7.61,7.62-8.73,1.79,6.49-2,10.29-6.94,11.19-5.38.9-9.41-1.34-10.75-6A3,3,0,0,0,349.78,135.61Z" transform="translate(-4.69 -18.29)"/><path d="M344.63,194.94c4.25,1.79,6.71,4.7,5.59,9.62,4.93-4,7.39-4.47,11.2-2.68-1.35,4.92-5.6,7.39-10.53,5.59a14.23,14.23,0,0,1-4-2.23C343.51,202.77,342.83,199.41,344.63,194.94Z" transform="translate(-4.69 -18.29)"/><path d="M336.79,210.38c4.48,2.69,5.15,4.93,4,10.75q5.37-5,11.42-1.34a7.85,7.85,0,0,1-10.3,4.48,14.08,14.08,0,0,1-4.7-3.36C334.55,217.77,334.33,214.19,336.79,210.38Z" transform="translate(-4.69 -18.29)"/><path d="M165.74,243.52q5-5,11.42-2a8.61,8.61,0,0,1-1.57-6.5,8.78,8.78,0,0,1,2.91-4.7c2,2.46,3.58,4.7,2.91,8.06a11,11,0,0,1-4.48,6.72C173.58,247.77,169.32,247.33,165.74,243.52Z" transform="translate(-4.69 -18.29)"/><path d="M350.89,170.31c5.15.89,6.95,2.69,8.06,8.28,1.35-2.91,2.92-4.92,5.6-5.59,1.57-.45,2.91-.9,4.48-.23-.22,5.6-3.81,8.73-9.4,8.06C354.7,180.16,349.78,177,350.89,170.31Z" transform="translate(-4.69 -18.29)"/><path d="M300.07,245.54c2.24,4.25,2.24,8.06-1.79,11.19,4.93-1.12,8.29.67,10.75,4.7a7.7,7.7,0,0,1-10.75-.67,10.2,10.2,0,0,1-2.91-6.49Q294.37,248.56,300.07,245.54Z" transform="translate(-4.69 -18.29)"/><path d="M200.89,257c-3.81-4.47-4.25-6.94-1.79-11.19,4.7,1.79,6.27,7.16,3.58,12.54-2.69,5.15-7.61,6.49-12.54,3.36C192.61,256.73,196.64,256.06,200.89,257Z" transform="translate(-4.69 -18.29)"/><path d="M158.13,220.91c-.9-5.82,0-7.84,4.25-10.53,1.57,2.47,2.46,5.15,1.12,8.06a10.51,10.51,0,0,1-9.18,6.5c-3.58.22-5.6-2.24-7.61-4.7C150.29,217.55,153.65,217.33,158.13,220.91Z" transform="translate(-4.69 -18.29)"/><path d="M157.9,111.43c-2.46,5.82-8.28,6.49-13.21,3.8-4-2-6.26-6.27-3.13-11.86,4,1.56,6,4.92,5.15,10.52C149.84,109.86,153.43,109.19,157.9,111.43Z" transform="translate(-4.69 -18.29)"/><path d="M137.31,112.32c4.25,2,6.49,4.93,5.82,10.08,1.79-2.24,3.13-3.81,5.59-4a9.17,9.17,0,0,1,5.38.89c-2,6.27-8.06,6.72-12.76,4.7C136.41,122.17,134.84,117.47,137.31,112.32Z" transform="translate(-4.69 -18.29)"/><path d="M134,122c4.48,1.57,6.94,4.48,6.94,9.18,1.34-2,2.68-3.81,5.15-4.26a9,9,0,0,1,5.37.45c-1.12,5.38-5.82,7.61-11.64,6.27C133.28,131.8,132.16,126.43,134,122Z" transform="translate(-4.69 -18.29)"/><path d="M306.57,252.48c5.59-1.12,8.73,0,11,3.8-3.59,2.91-9.18,3.36-12.54-2a11,11,0,0,1-1.79-4.48c-.9-3.58.67-6.49,4-8.73a9.21,9.21,0,0,1,2,5.82C309.48,249.34,307.91,250.68,306.57,252.48Z" transform="translate(-4.69 -18.29)"/><path d="M347.76,127.55c4.7-1.57,7.84-.45,10.3,3.35.67-1.79,1.12-3.8,2.24-5.37a8.56,8.56,0,0,1,4.92-3.36c2.24,4.48.23,9.18-4.25,11.2C354.7,135.61,349.55,133.37,347.76,127.55Z" transform="translate(-4.69 -18.29)"/><path d="M147.6,161.8c-.22,3.14-.67,6-3.58,7.84a12,12,0,0,1-8.73,1.79c-4-.67-6.27-3.81-6.27-8.51,4.93-.9,7.84,1.79,9.63,6.49.45-2.68,1.34-4.92,3.58-6.27A7.8,7.8,0,0,1,147.6,161.8Z" transform="translate(-4.69 -18.29)"/><path d="M129.92,172.55c4.7-.67,7.39.67,10.3,5.59.44-2,.89-4,2.46-5.59a9.9,9.9,0,0,1,5.82-2.47,7.31,7.31,0,0,1-2,7.39,10.89,10.89,0,0,1-11.2,2.69C131.48,179,130.37,176.13,129.92,172.55Z" transform="translate(-4.69 -18.29)"/><path d="M131.48,182.62c4.93-1.12,7.39,0,11,4.7,0-5.15,2.46-7.83,7.38-8.73.68,2.91.45,5.6-1.56,7.61a10.88,10.88,0,0,1-10.75,3.59C134,189.12,132.6,186,131.48,182.62Z" transform="translate(-4.69 -18.29)"/><path d="M360.75,150.38c1.79-5.59,3.8-7.61,8.28-8.06a7.41,7.41,0,0,1-4.7,9.63,12.53,12.53,0,0,1-7.61.22c-3.36-1.12-5.15-3.13-5.83-7.38C355.6,143.44,359.18,145.68,360.75,150.38Z" transform="translate(-4.69 -18.29)"/><path d="M138.2,150.38c2.69-5.15,4.93-6.27,9.85-5.59-.22,2.91-1.34,5.37-3.8,6.71a10.62,10.62,0,0,1-11.2-.22c-3.36-2-3.58-5.38-3.36-8.73C134,142.1,137.08,145,138.2,150.38Z" transform="translate(-4.69 -18.29)"/><path d="M137.53,201.88c4.48-1.79,8.28-.9,11.42,3.36-.45-2.69-.45-4.71.89-6.5a8.39,8.39,0,0,1,4.71-3.58c2.91,5.6-.9,10.08-5.15,12.09C145.14,209,140.22,208.59,137.53,201.88Z" transform="translate(-4.69 -18.29)"/><path d="M129,152.4c4.26-.23,6.49,1.34,9.18,6.94,2-5.15,4.26-6.72,9-6.27.44,4.92-3.36,8.73-9.41,9C132.16,162.25,128.8,158.44,129,152.4Z" transform="translate(-4.69 -18.29)"/><path d="M333.43,243.52c-5.37,5.15-10.07,3.58-13.21-.22a21.38,21.38,0,0,1-1.79-2.91,7.91,7.91,0,0,1,2-9.86c3.35,2.47,3.8,5.6,1.56,11.2C326.49,239.27,330.07,240.16,333.43,243.52Z" transform="translate(-4.69 -18.29)"/><path d="M191.93,241.28c5.15,2.91,5.15,8.51,2.47,13-3.14,5.15-8.29,5.37-12.76,2.24,2.23-3.81,5.14-4.93,11-4C188.35,248,189.47,244.42,191.93,241.28Z" transform="translate(-4.69 -18.29)"/><path d="M357.61,103.14c2.69,5.38,1.57,9.63-3.36,12.09s-10.52,2-13-3.58c3.36-2.69,7.16-2,11,1.79.22-2.24-.45-4.25.89-6.27A15.75,15.75,0,0,1,357.61,103.14Z" transform="translate(-4.69 -18.29)"/><path d="M158.8,236.13c3.13-2.68,6.94-3.58,11.64-.67-.89-2.24-2-4-1.34-6.27a10.76,10.76,0,0,1,3.36-4.92c4,4,3.58,9.4-1.12,13.43C167.53,241.06,162.6,241.06,158.8,236.13Z" transform="translate(-4.69 -18.29)"/><path d="M360.3,169.19c3.13-5.37,5.6-7.17,9.63-6.49a7.67,7.67,0,0,1-7.84,8.73,11.71,11.71,0,0,1-6.72-1.79c-2.91-1.79-3.8-4.48-3.8-7.84Q359,161.47,360.3,169.19Z" transform="translate(-4.69 -18.29)"/><path d="M344.85,119.49c3.81-2.24,6.94-1.35,11,3.13a10.21,10.21,0,0,1,1.12-6.27,9.26,9.26,0,0,1,4.93-3.8c2.46,5.14.44,9.4-2.92,11.19a12.39,12.39,0,0,1-6.26,1.57C348.88,125.08,346.42,123.29,344.85,119.49Z" transform="translate(-4.69 -18.29)"/><path d="M367.46,182.4c-1.12,5.82-4.92,8.51-10.3,7.39-4.25-.9-7.38-3.59-8.06-7.39a19.46,19.46,0,0,1,0-3.58c4.93.67,6.94,2.91,7.62,8.5,1.34-1.79,2.46-3.58,4.47-4.47A11.74,11.74,0,0,1,367.46,182.4Z" transform="translate(-4.69 -18.29)"/><path d="M249.47,258.74c.9,2.24,1.57,4,2.24,6.05H258c-1.34,1.79-3.36,2.69-4.7,4,.67,1.79,1.12,3.81,1.79,5.6l-.22.22c-1.57-1.12-3.14-2.24-4.93-3.36-1.57,1.12-3.36,2.24-5.37,3.81.67-2.24,1.12-4.26,1.79-6.27-1.57-1.12-3.14-2.24-4.93-3.58,2.24-.67,4-.23,6.27-.45C248.13,263,248.8,261.21,249.47,258.74Z" transform="translate(-4.69 -18.29)"/><path d="M278.8,42.69c1.35,0,1.57.45,1.57,1.57,0,2.69,0,5.37-.22,7.84v2.68c3.13-3.13,5.59-6.27,8.73-9.4.22,4.48.22,8.28.45,12.31.22.23.44.23.67.45a4.73,4.73,0,0,1,.89-1.34l5.38-6.72c.67-.89,1.34-.89,2.46,0-3.58,4.25-6.94,8.28-10.75,13-.22-4.48-.45-8.51-.67-13-2.91,3.36-5.6,6.27-8.51,9.63Z" transform="translate(-4.69 -18.29)"/><path d="M291.34,261c1.34,1.57,2.46,3.14,3.58,4.71l-.22.22c-1.79-.45-3.81-.9-5.82-1.57-1.12,1.57-2.24,3.14-3.58,4.93-.9-2.24-.23-4.26-.68-6.27-1.79-.67-3.58-1.12-5.59-1.79v-.45c1.79-.67,3.58-1.34,5.59-2.24,0-2-.22-3.81-.22-6.27,2,1.35,2.69,3.36,4.25,4.7l5.38-2,.22.22A15.77,15.77,0,0,1,291.34,261Z" transform="translate(-4.69 -18.29)"/><path d="M272.53,266.58c.9,1.79,1.8,3.58,2.69,5.15L275,272c-1.79-.89-3.59-1.56-5.6-2.68-1.34,1.34-2.46,2.91-3.81,4.48a.76.76,0,0,1-.44-.23c.22-2,.44-3.8.67-5.82-1.79-.9-3.36-1.79-5.38-2.69,2-1.12,4-.67,6.05-1.56.22-1.79.67-3.81,1.12-6.27,1.12,2,2,3.8,3.13,5.59,2-.22,4-.67,6.5-.89C275.44,263.67,274.1,265.24,272.53,266.58Z" transform="translate(-4.69 -18.29)"/><path d="M203.8,266.36c1.57-2,2.69-3.59,4-5.15-1.12-1.57-2.24-3.36-3.36-4.93l.23-.22c1.79.67,3.58,1.34,5.59,2,1.35-1.56,2.47-3.13,4-4.92v6.27a55.66,55.66,0,0,1,5.38,2.23v.45c-1.79.67-3.59,1.12-5.6,1.79-.22,2-.22,4-.45,6.5-1.34-2-2.46-3.59-3.58-5.15C208.28,265,206.26,265.68,203.8,266.36Z" transform="translate(-4.69 -18.29)"/><path d="M228.65,263c.9-1.79,1.79-3.36,2.91-5.15H232c.45,2,.67,3.8,1.12,5.82,2,.45,3.81.67,5.6,1.12v.45c-1.79.89-3.36,1.79-5.15,2.68.22,2,.45,4,.89,6.5l-4.7-4.71c-1.79.9-3.58,1.8-5.6,2.69.45-2.24,2-3.8,2.69-5.82-1.34-1.34-2.69-2.91-4.48-4.7C224.62,262.33,226.64,262.55,228.65,263Z" transform="translate(-4.69 -18.29)"/><path d="M180.29,62.84a8,8,0,0,1,8.06,7.84,8.21,8.21,0,0,1-8.28,8.06,8,8,0,0,1,.22-15.9Zm0,14.11a6.37,6.37,0,0,0,6.27-6,6.5,6.5,0,0,0-6.49-6.49A6.27,6.27,0,1,0,180.29,77Z" transform="translate(-4.69 -18.29)"/><path d="M156.78,87.47c.23.45.23.45.23.67a.82.82,0,0,0,.22.67c-.22,0-.45.23-.67.23A5.94,5.94,0,0,0,151.19,94a6.21,6.21,0,0,0,5.15,7.39A6,6,0,0,0,163.5,96c0-1.57-.22-3.14-1.79-4-.9,1.12-1.57,2.24-2.46,3.36l-1.35-.68c1.12-1.79,2.24-3.58,3.36-5.14,5.15,1.79,5.15,9,1.12,12.09a8.62,8.62,0,0,1-8.95.89,7.88,7.88,0,0,1,1.79-14.55A11.87,11.87,0,0,1,156.78,87.47Z" transform="translate(-4.69 -18.29)"/><path d="M198.2,58.36a4.27,4.27,0,0,0,1.57.23c3.58,1.12,4.25,4.92,1.57,7.16a48.11,48.11,0,0,1-4.93,3.14c-2.46-4.7-4.92-9-7.39-13.66,1.35-.67,2.69-1.34,3.81-1.79,2.91-.9,5.15.67,5.37,3.58Zm-1.12,8.29c1.12-.9,2.24-1.34,2.91-2a2.19,2.19,0,0,0,.45-3.13,2.22,2.22,0,0,0-2.91-1.12,19.14,19.14,0,0,0-3.13,1.34C195.29,63.51,196.19,64.86,197.08,66.65Zm-3.35-6.27c1.56-.67,2.91-1.34,2.91-2.91A2.6,2.6,0,0,0,195.07,55c-1.34-.45-2.46.22-3.58,1.12C192.16,57.47,192.83,58.81,193.73,60.38Z" transform="translate(-4.69 -18.29)"/><path d="M322,85.68c4.26-3.81,8.06-6.94,11.87-10.52a17.73,17.73,0,0,1,4,5.15,7.59,7.59,0,0,1-11.42,9C324.92,88.37,323.8,87,322,85.68Zm11.87-8.06c-2.91,2.69-6.05,5.15-9,7.84,3.14,4,6.72,4.7,9.85,2C337.24,85,337.91,81,333.88,77.62Z" transform="translate(-4.69 -18.29)"/><path d="M316.86,72c-1.34,1.57-2.46,2.91-3.8,4.7-.45-.22-.9-.67-1.35-.89,3.36-4,6.5-7.84,9.86-11.87,1.11,1.12,2.46,2.24,3.35,3.36a3.45,3.45,0,0,1,.23,4.7,4,4,0,0,1-4.48,1.79,3.16,3.16,0,0,1-1.34-.44c-.23,2.46-.45,4.92-.68,7.61-1.11-.23-1.79-.67-1.56-1.79.22-1.79.22-3.36.45-5.15V72Zm4.71-5.82a50.15,50.15,0,0,0-3.14,4c2.24,2.24,3.58,2.46,4.93.9C324.48,69.56,324,68.22,321.57,66.2Z" transform="translate(-4.69 -18.29)"/><path d="M267.38,40.23c1.35,5.37,2.69,10.75,4.26,16.12-1.34.45-2,0-2.24-1.12a18.19,18.19,0,0,0-.9-3.36c-2-.45-4.25-.67-6.26-1.12-.68,1.12-1.35,2-2,3.14-.45.89-1.12.89-2.24.22,2.91-4.7,6-9.4,9-14.1A.68.68,0,0,0,267.38,40.23Zm-.67,4.25h-.44c-.9,1.57-2.24,3.14-2.92,5.15l4.71.67C267.61,47.84,267.16,46.27,266.71,44.48Z" transform="translate(-4.69 -18.29)"/><path d="M300.74,63.51c-1.12.68-2,1.35-2.91,2s-1.56.45-2.24-.45c4.71-3.36,9.18-6.49,14.11-10.07-.9,6-1.57,11.41-2.24,17-1.79-.22-2-.45-1.57-1.57,1.12-3.13-.44-4.47-2.91-5.59A19.17,19.17,0,0,0,300.74,63.51Zm5.83,1.57c.22-2.24.67-4,.89-6.49a52.23,52.23,0,0,0-5.15,3.8,13.56,13.56,0,0,0,1.34.9A15,15,0,0,1,306.57,65.08Z" transform="translate(-4.69 -18.29)"/><path d="M220.37,42.47c2.68-.67,5.15-1.12,7.61-1.79a11,11,0,0,1,.67,1.56l-6,1.35c.22,1.34.67,2.68.89,4.25,2-.45,3.81-.67,5.82-1.12.68.9.45,1.57-.67,1.79-1.57.23-2.91.68-4.7,1.12a52.32,52.32,0,0,1,1.12,5.82c2.24-.44,4-.67,6-1.12.45,1.12.23,1.57-.67,1.8-2.24.44-4.25.89-6.71,1.34C222.38,52.54,221.49,47.62,220.37,42.47Z" transform="translate(-4.69 -18.29)"/><path d="M204.47,47.62c2.46-.9,4.48-1.79,6.72-2.46.89-.23,1.12.44,1.12,1.11-1.79.68-3.58,1.35-5.6,2.24.45,1.35.9,2.69,1.57,4.26A39.26,39.26,0,0,1,213,51.2c.9-.22.9-.22,1.57,1.12-1.79.67-3.59,1.34-5.6,2.24.67,1.79,1.34,3.58,2,5.6,2-.68,3.81-1.35,5.83-2,.67.67.89,1.34-.23,1.79-2,.9-4.25,1.57-6.71,2.46C208.05,57.25,206.26,52.54,204.47,47.62Z" transform="translate(-4.69 -18.29)"/><path d="M349.1,98.66,347.76,98c0-.44.22-.89.22-1.34a2.77,2.77,0,0,0-2.68-2.91c-1.57,0-2.24,1.12-2,2.91a17,17,0,0,1,.45,3.58c0,3.14-2.46,4.93-5.6,4.26-3.58-.9-4.7-4.93-2.24-8.06l1.35.67c-.23.67-.67,1.12-.9,1.79a3.12,3.12,0,0,0,3.14,4,2.54,2.54,0,0,0,2.46-2.69,17.26,17.26,0,0,0-.22-3.36c-.23-2.24.22-3.8,1.79-4.7a3.39,3.39,0,0,1,4.25.45,4.7,4.7,0,0,1,1.79,4.93C349.55,98,349.33,98.22,349.1,98.66Z" transform="translate(-4.69 -18.29)"/><path d="M171.56,89.49C167.75,85.9,164,82.54,160.14,79a6.07,6.07,0,0,1,1.35-1.12c3.35,3.14,6.71,6,10.07,9.18a35,35,0,0,1,2.69-2.91c.44.45.89.67,1.34,1.12C174.25,86.57,173.13,87.92,171.56,89.49Z" transform="translate(-4.69 -18.29)"/><path d="M486.57,24.78c2,0,4-.22,6.05-.22a5.13,5.13,0,0,1,1.79.45,3.08,3.08,0,0,1,2.46,2.46,2.86,2.86,0,0,1-1.34,3.13l-.68.67c2,1.57,1.8,3.81,2.69,5.83h-3.13c-.23-.68-.45-1.35-.67-2-.68-2.69-1.12-2.91-4-2.46V37.1h-2.92C486.57,33.07,486.57,29,486.57,24.78Zm2.91,2v3.35a11.11,11.11,0,0,0,2.69-.22,2.34,2.34,0,0,0,1.34-1.57c.23-.89-.45-1.56-1.34-1.79C491.5,26.57,490.6,26.8,489.48,26.8Z" transform="translate(-4.69 -18.29)"/><path d="M320.67,192c-.45-.68-.9-1.57-2-1.8-.67-.22-1.34-.67-2-.89a3.12,3.12,0,0,1-1.57-1.79,19.49,19.49,0,0,1-1.12-6.27c0-1.79-.67-3.58-.89-5.37V175c2,0,1.34,2.24,2.68,2.91-.22-1.57.23-3.13-.44-4.7a4.62,4.62,0,0,1,.22-2.46,22.64,22.64,0,0,0,.45-7.84l-2,.67c.9-2.91-.67-5.15-1.12-7.61-.89.22-1.56.45-2.23.67a43.61,43.61,0,0,1-4.71,6,2.87,2.87,0,0,0-.89,2.24,10,10,0,0,1-.45,2.23,3.89,3.89,0,0,0,.22,3.14,3.66,3.66,0,0,1,.23,2.24c0,.67-.45,1.12-.9,1.79-1.34-.9-.67-2-.89-3.14a7.3,7.3,0,0,1-1.35.68c-.67-4.93-2.24-9.86-2-15-1.57,0-1.79-.23-2.46-1.35a44.55,44.55,0,0,0-2.24-4.48c-1.35,0-2.69.23-3.81.23a9.35,9.35,0,0,1-3.36-.9l-.45.45c.23.45.45,1.12.9,1.34,2,1.35,2.24,2,.9,4-.68,1.12-1.12,2.69-2.24,3.59a29.1,29.1,0,0,1-7.84,4.92c-.45.23-1.12.45-1.57.67-1.34.67-1.34.67-.44,2.24,1.79-.45,3.58-.89,5.59-1.34a4.21,4.21,0,0,1-.22,2.91c-1.57,3.13-2.69,6.27-5.6,8.51a18.39,18.39,0,0,0-3.8,4.47,7.87,7.87,0,0,0-.68,6.72c.68,2.24-.44,5.82-2.46,7.17a9.44,9.44,0,0,0-1.57,1.34,2.18,2.18,0,0,0-.89,2c.22,1.57.22,2.91-1.57,3.59-.22,0-.45.67-.45.89-.22,2-1.79,3.58-2.91,5.15a4.1,4.1,0,0,1-4,2c-.44,0-.89.22-1.34.22-1.57.22-2,0-2.46-1.79a23.77,23.77,0,0,0-1.35-4.25c-.22-.9-.67-2-.89-2.92-.67-1.79-.9-3.8-1.79-5.37a6.26,6.26,0,0,1,.22-6.27,2.14,2.14,0,0,0,.22-2c-.22-.67-.22-1.35-.44-2-.67-1.56-.9-3.36-2-4.48-1.12-1.56-2-3.13-1.34-4.92a5.64,5.64,0,0,0,.22-1.79l-1.56-1.57c-.68,0-2,.22-2.47-1.57a1.15,1.15,0,0,0-1.56-.67c-.68.23-1.35.67-2,.9a5.36,5.36,0,0,1-1.79.45H234c-1.35-1.35-3.59-2.47-4.26-5.15-.22-1.12-1.34-2-2.24-2.91a5.35,5.35,0,0,1-.89-4.48,11.13,11.13,0,0,0,0-5.38,5.27,5.27,0,0,1,0-2.68,41.19,41.19,0,0,1,2.46-5.6c0-.22.22-.45.22-.67,2-1.12,2.47-2.91,2.69-4.93a3.38,3.38,0,0,1,1.57-2.46,3.34,3.34,0,0,0,1.12-1.34c.67-1.79.22-2.47-1.57-3.14a8.79,8.79,0,0,1,0-5.37,9.17,9.17,0,0,0,0-2.46c0-1.35.67-2,2-1.79,1.12.22,2.24.22,3.36.44,1.12-2.46.9-4-1.12-5.59-.67-.68-.67-1.35,0-1.8s1.79,0,2-1.34h.45a4.57,4.57,0,0,0,1.79-.89c-1.79-.45-3.36.22-5.38,1.12a3.52,3.52,0,0,0,.68-1.35,3.78,3.78,0,0,0,.44-1.12,4.84,4.84,0,0,1,1.12-3.8c-.89,0-1.34,0-1.56.89-.45,2-1.12,2.46-3.59,2.46.23-1.34.45-2.68.68-4.25.67-.67,1.56-1.34,2.46-2.24-1.12-2.68.67-4,3.13-4.92-.22,1.56.45,2.91.23,4.47-.23,1.12.67,2.69,1.34,3.81a4.09,4.09,0,0,1,.67,3.58c1.57-.22,1.12-1.79,2-2.24l2.68-1.34v-1.34a3.64,3.64,0,0,1,1.57-4.26c.45-.22.45-.89.9-1.56-.23,0-.23-.23-.45-.23a16.81,16.81,0,0,0-2.46,1.79c-2.24-2.24-1.12-4.92-1.35-7.16,1.35-1.57,3.36-2.46,4.26-4.48.89-1.79,1.79-3.58,2.91-5.6-.68.23-.9.45-1.57.68.89-1.12,1.34-2.24,2-2.91a19.56,19.56,0,0,1,5.15-3.59c1.12-.67,3.59,0,4.48,1.12a6.24,6.24,0,0,0,2.46,1.79,21.11,21.11,0,0,1,4,2.69c.68.45.68,1.57.9,2.46a9,9,0,0,0,1.34-.44c-.22-1.12-.44-2.24-.67-3.59a1.38,1.38,0,0,1,2,.67,6.36,6.36,0,0,1,.22,2c1.12-1.34,2.24-2.46,3.36-3.58a2.33,2.33,0,0,1,1.34-.45c.67.22,1.35.45,1.79-.22s0-1.35-.44-2a.81.81,0,0,1-.23-.67l4.7,1.34a33.68,33.68,0,0,1-.67-4.25c-.22-1.34-.22-2.91-.45-4.93L284.85,77V75.38c.22.22.67.45.89.67.45-.45.9-.67,1.35-1.12-.23,0-.45-.22-.9-.22,0-1.34.45-2.46,2-2.69A89.75,89.75,0,0,1,307,83.44a94.82,94.82,0,0,1,25.3,30.45c1.57,3.13,1.12,6.27.9,9.4,0,.23-.45.45-.45.67a10.32,10.32,0,0,0-.67,2.47,14.48,14.48,0,0,0,.67,6.94c.45,1.79.22,3.8.45,5.59h0c-.23-.89-.67-1.12-1.35-1.12-.44-2.68-1.11-5.37-1.79-8.28-.67.9-.89,1.12-1.34,1.79a17.81,17.81,0,0,0-.45-1.79h-.45c-.22.9-.89,2-.44,2.69.22.67,1.56.89,2.46,1.34-.22.45-.22.9-.45,1.34a3.9,3.9,0,0,0-.45,3.81c1.12,3.58,1.8,7.39.23,11.19-.23.68,0,1.35-.23,2h0c-.67,1.12-.89,2.24-1.79,2.91-.89.9-2.24,1.57-2.91,2.69-.67.89-.67,2.24-1.12,3.58a.22.22,0,0,0-.22.22c-.9-.44-.67-1.34-.22-2,.22-.67.67-1.12-.23-1.79a3.8,3.8,0,0,0-.89,4.7,8.69,8.69,0,0,1,.67,4.7,10.53,10.53,0,0,1-1.35,3.36,14.07,14.07,0,0,1-1.79,2c-.44-1.56-.89-2.91-1.34-4.47h-.45a4.78,4.78,0,0,0-.67,1.56c.22,1.79-.45,3.59.67,5.15a1.33,1.33,0,0,1,.23.9,30.64,30.64,0,0,1-.23,4.7c-.67,2.46-.89,2.69.67,4.7-1.56.23-1.56,1.34-2,2.46.67.23.67,1.57,1.79,1.12.22,0,.67.23.67.45.9,2.69,2.91,1.34,4.7,1.57h1.57c-1.34.89-2.24,1.57-3.13,2.24a9.59,9.59,0,0,1,.22-1.12C320.67,190.46,320.89,191.58,320.67,192Zm-61.79-90.9c-1.12.22-1.79-.45-2.47-1.12,0-1.57-.22-3.14-.22-4.93-2.46,1.79-2.69,2.69-1.57,4.93a2.05,2.05,0,0,1-.22,2.68,3.6,3.6,0,0,0-.9,2.69,3.39,3.39,0,0,1-.22,1.57c-1.12.67-2,1.12-2.91,1.57.45.67.67,1.11,1.12,1.79,1.57-2.24,3.58-1.12,5.6-1.12-1.12-1.57-1.35-2-.9-3.59a19.27,19.27,0,0,1,2.69-4.47c.67,0,1.34.22,1.79.22.22,0,.67-.45.89-.67A3,3,0,0,0,258.88,101.13Zm-6.72,34.48c-.9-.9-2.24-1.12-2.46-2.47a2.87,2.87,0,0,0,1.34-.22c1.57-.22,2-1.12,1.12-2.46-1.34-1.35-2.69-2.69-4-3.81a6.63,6.63,0,0,0-.22,2.91c0,.9.44,2-1.12,2.24-.67-4.25-.45-5.37,1.34-6.49-.22-.45-.45-.67-.67-1.12a19.07,19.07,0,0,0-2.24,1.79c-.67-.23-1.34-.23-2-.45-.22,1.57-.44,2.91-1.79,3.81a2.17,2.17,0,0,0-.89,2c0,2-.9,2.91-3.14,3.36-.67.22-1.12.45-.89,1.12a3.43,3.43,0,0,0,3.58-.45,5.45,5.45,0,0,1,2.69-.89,35.57,35.57,0,0,1,4.92-.45c.45,0,1.12.45,1.12.89a18.72,18.72,0,0,1,0,3.59,2,2,0,0,0,2,1.56,2.26,2.26,0,0,1,1.56.9c.68,1.57,2.47,1.57,3.59,2.91a12.83,12.83,0,0,1,.22-1.57c.22-.45.22-1.12.67-1.56.67-.68,1.57-.45,2.46,0,2.24,1.11,4.26,2.68,6.95,1.56.22-.22.67,0,1.11.23,1.12.67,1.57.22,2-.9l.67-2a4.38,4.38,0,0,0-.22-3.36,9.61,9.61,0,0,1-1.79.67,3.36,3.36,0,0,1-1.57-.67c-1.79,1.12-2.69.67-3.81-.9s-.67-3.58-1.79-5.37a9.93,9.93,0,0,0-1.57,1.34c.45.9.9,1.57,1.35,2.46a20.89,20.89,0,0,0-1.79,2.24,7.43,7.43,0,0,1-1.57-2.46,9.3,9.3,0,0,0-.9-2.24c-.67-1.12-1.56.23-2.23-.67C254.85,132.7,252.38,133.59,252.16,135.61Zm21.49-6.27c1.12-2.69-.89-3.14-1.79-4.26a2.68,2.68,0,0,0-4-.44c-.89-.9-.67-2.47-2.46-2.92-.45,1.12-1.12,2-1.57,3.14-.22.45-.22.89-.45,1.34a1.69,1.69,0,0,0,.45,2.24,2.59,2.59,0,0,0,2.24,0c1.57-1.12,2.91-.89,4.48,0A7.36,7.36,0,0,0,273.65,129.34Zm7.62-4.48c-.45-1.79,2-2,1.56-3.58-1.79-.9-2.46.67-3.36,1.34a1.42,1.42,0,0,0-.44,2c.89,2,1.79,3.8,2.91,6-.45.9-1.12,2.24-.23,3.58s1.79,1.35,3.59.67C283.5,131.35,283.5,127.55,281.27,124.86ZM276.34,164c-.22-1.57-.22-2.69-.45-3.81-.89-2.46-2.91-4.47-3.13-7.38,0-.23,0-.23-.23-.45-1.12-1.12-1.34-2.47-2-3.81-.22-.45-.67-.89-1.12-1.79-.22.9-.45,1.12-.22,1.57.44,1.56.67,3.36,1.79,4.7a10.09,10.09,0,0,1,1.12,3.36l.67,2c.22.45.67.9.67,1.35C273.43,161.8,274.77,162.7,276.34,164Zm4.93-18.81c0,2.69,2.91,4,2.91,6.72,1.79,0,2,0,2.91-2.24-.9-.45-1.57-.67-2.47-1.12a5.49,5.49,0,0,1-2-2.46C282.39,145.23,282.16,144.56,281.27,145.23Zm-26-15.45c.23-2,0-2.23-1.34-3.13a4,4,0,0,1-2-1.79,11.43,11.43,0,0,0-1.57-1.79C250.82,126.2,253.06,128,255.29,129.78Zm10.53-36.71H266a12.56,12.56,0,0,0,.45-1.57c.67.22,1.12.67,1.79.9v-2a15,15,0,0,1-3.13-.22A7.86,7.86,0,0,1,265.82,93.07Zm-7.39-1.35c-1.79,0-1.79,0-1.79,3.36C257.76,94,258.43,93.07,258.43,91.72Zm-8.73,13.66c-.23,0-.45.23-.67.23l.67,1.34c.22,0,.22-.23.45-.23C249.92,106.28,249.92,105.83,249.7,105.38Z" transform="translate(-4.69 -18.29)"/><path d="M180.52,94.41a7.94,7.94,0,0,0,.22,1.34c.9-1.34,2.69-1.79,2.46-3.58,0-.45.67-1.12,1.12-1.57,1.57-1.34,2.69-2.91,4.93-3.35.22,0,.45-.45.67-.68A9.14,9.14,0,0,0,191,85c.67.89,1.12,1.34,1.57,2s.89,1.12,1.79.9.89.67.44,1.57c1.12-.45,2.24-.9,2.92.22.44.67.22,1.34-.68,2,1.79.9,3.59,1.8,5.38,2.91l-2.69,2.69-2.69-2c-.67,1.34,0,2,.68,2.68,1.11,1.12,1.11,1.35.22,3.14-.67-.23-1.57-.67-2.69-1.12a12.07,12.07,0,0,1,1.79,2c0,.23-.22.23-.22.45-1.57-.45-3.58,0-4.7-2.24-.67-1.34-1.35-1.34-2.69-.89-.67.22-1.57.67-2.24-.23.45-2,2.47-.67,3.58-1.56.45-1.12,1.12-2.47,1.8-3.81-1.35-1.12-2.69-2.24-4-3.14-1.35.23-2.69.68-4.26.9a6,6,0,0,1,1.12,1.34c-.22.23-.67.45-.67.9-.22.67-.22,1.57-.45,2.24s-1.79-.23-1.79,1.12c-2.91.45-3.36,3.8-6,4.7-.23,1.57-2,2-2.69,3.13a13.61,13.61,0,0,0-1.12,4,18.85,18.85,0,0,1,1.57,2.91,8.21,8.21,0,0,1,2.24.23,5.6,5.6,0,0,1,2,.89,4.19,4.19,0,0,0,3.14,1.12c.89,1.79.22,4.26,2.46,5.82a12,12,0,0,0,.22-2.68c0-1.57.23-3.14,1.79-4.26,1.12-.67,1.12-1.79.45-2.91a3.84,3.84,0,0,1,0-3.8c.45-.67.22-1.79.22-3.14,2.47-.67,4.71.67,7.17,1.35v2.68a1.22,1.22,0,0,0,.67,1.12c.67.45,1.12,0,1.34-.45a22.78,22.78,0,0,0,1.8-2.46c.89,1.79,2.23,2.91,2.46,4.93a2.51,2.51,0,0,0,1.57,1.79c.89.45,1.56.67,2,1.79.22.45.67.45,1.34.89,0,.45,0,1.12-.44,1.35-2,1.56-3.59,3.8-6.27,3.58a5.31,5.31,0,0,0-5.38,2.46c-.22.45-.89.67-1.12,1.35a1.32,1.32,0,0,0,.9-.23l2-2a1.38,1.38,0,0,1,2.24.22c-.22,1.12-.44,2-.67,3.14.9.22,1.57.44,2.24.67a3,3,0,0,0-.67.89c1.34.45,1.57-1.12,2.46-1.34,0,.22.45.67.23.67-.45.9-2.47,2-5.15,2.91a6.79,6.79,0,0,0,.89-1.79l-.22-.22c-1.35.89-2.69,1.56-4,2.46s-1.35,1.57-.67,2.91c-.23.22-.68.22-.9.45-2.46,1.34-3.58,3.8-4,6.49a6.12,6.12,0,0,1-1.12,2.46c-2.46,1.79-3.13,4-2.69,6.94a14.77,14.77,0,0,1,.45,3.14c0,.45-.22.89-.22,1.57h-.67c-.45-.9-.9-1.8-1.35-2.92-.89-2.46-1.56-3.13-4-3.13a3.84,3.84,0,0,0-1.56.22v1.57c-1.57-.89-4.93-.22-6.05,1.34-.22.23-.45.45-.45.68a63.82,63.82,0,0,0,0,6.49c.45,2.91,1.35,4,4.93,3.58.45-.67.67-1.57,1.12-2.24a2.41,2.41,0,0,1,1.57-.67c.22,0,.67.9.67,1.34,0,1.35-.45,2.47-.45,3.59a3.08,3.08,0,0,1-.22,1.12c.89,0,1.56-.23,2.23-.23,1.57,0,2.24.67,2.47,2.24a8.89,8.89,0,0,1-.23,2.46c0,2,.45,2.69,2.47,2.69a16.65,16.65,0,0,1,3.35.45c1.12-1.35,2.47-2.69,3.81-4.26a12.89,12.89,0,0,1,.9,2.69c.44-.67.89-1.34,1.12-1.79a20.81,20.81,0,0,0,3.13,1.57,3.23,3.23,0,0,0,3.13-.67c2,1.79,4.26,3.58,6.27,5.37,3.59-.23,5.82,1.57,6.72,5.37a1.67,1.67,0,0,0,.45.9,10.46,10.46,0,0,1,1.57,1.56c1.56-.67,2.91-.22,3.8,1.57a4.36,4.36,0,0,1,5.15,0,8.8,8.8,0,0,1,3.81,4.7,5.13,5.13,0,0,1-1.12,4.71,6.61,6.61,0,0,0-1.35,4.47,40.67,40.67,0,0,1-.44,5.15,2.25,2.25,0,0,1-2.24,2.24,6.73,6.73,0,0,0-4.26,2.69c1.35,4.25-.89,7.83-5.59,9.4.22.9,1.34,2,.22,2.91a7.78,7.78,0,0,1-2.91,1.12,19.07,19.07,0,0,0-1.79,2.24c1.12,1.34-.45,2.69-.9,4,.45.45,1.35.9,1.35,1.57a2.77,2.77,0,0,1-.9,1.79c-.67,1.12-.67,2,.67,2.69.67.44,1.35.67,2.24,1.34-2.24.89-3.8-1.12-5.82-.23a1.71,1.71,0,0,0,.22-.67,20.29,20.29,0,0,1-3.35-2.91,4.29,4.29,0,0,1-.23-2l-.89-.9,1.34-.67c-.22-1.12-.67-2-.9-3.13h-.22c-.22.22-.22.44-.45.67-1.56-4.26-.89-8.73-1.34-13.21-.22-2.46-.45-4.93-.67-7.17a8.65,8.65,0,0,0-3.58-6,22.4,22.4,0,0,1-3.59-3.14,34.7,34.7,0,0,1-2.46-3.58c-.67-.89-.9-2-1.57-2.68a2.65,2.65,0,0,1-.67-3.81.81.81,0,0,1,.23-.67c-1.35-.67-1.12-1.79-.68-2.69a5.74,5.74,0,0,1,.9-1.57c1.79-2.24,1.12-4.47.22-6.94-.22-.44-.67-1.12-1.12-1.12s-.89.68-1.56,1.12c-2.69-.89-4.71-3.13-6.05-6-1.79.22-2.91-1.12-4.25-2.24-.67-.67-1.35-1.34-2.69-.67-.45.22-1.57-.23-2.24-.45a12.64,12.64,0,0,1-6.49-6.27,55.57,55.57,0,0,0-3.14-6.27,4.52,4.52,0,0,0-.89-1.34c-1.79-1.79-1.79-3.81-1.34-6.27a94.73,94.73,0,0,1,22.38-48.14A10.41,10.41,0,0,0,180.52,94.41Zm.67,33.36c.22.9-.23,2,1.34,2.24a12.56,12.56,0,0,1,.45-1.57c.22-.45.89-.45,1.79-.89a28.06,28.06,0,0,0-3.36-1.12,6,6,0,0,0-2.69.67c-1.34.67-.67,2.24-1.11,3.36-.23.67-.45,1.34.67,1.79.22-1.12.67-2.24.89-3.36C179.17,127.77,180.07,127.55,181.19,127.77Zm-6.72-2c1.34,0,2.24-.44,2.69-.22,1.12.9,2,.22,3.36.22a19.41,19.41,0,0,0-2.47-3.13C176.93,123.74,175.81,124.64,174.47,125.75Z" transform="translate(-4.69 -18.29)"/><path d="M217.46,98.66c-.67-.22-1.35-.22-1.57-.67-.45-.44-.67-.44-.9-.22-.67.45-1.34.22-2-.45a17.61,17.61,0,0,1-4.48-6.94q-.67-1.68,1.35-2c.22-.9.44-1.8.67-2.91h-2c-1.57,0-2.24-.9-2-2.47.44-2.24-2-4.92-4.26-4.92h-2.46a89.7,89.7,0,0,1,34.48-13.21,7.72,7.72,0,0,1-.67,1.79c.89.45,1.56.67,2.91,1.34-1.35.45-2.24.67-3.36,1.12,1.12.45,1.79.67,2.91,1.12a13.54,13.54,0,0,1-1.79.9c.22.22.67.44.89.67-.22.67-.22,1.34-.67,1.79a3.09,3.09,0,0,1-2,.67c-1.12,0-2,.22-1.79,1.57,1.34.45,2.46.67,3.8,1.12-.89,2.46-2.91,1.34-4.25,2a10.54,10.54,0,0,0-.45,1.35c1.12-.23,2-.68,3.14-.9,0,.22.22.22.22.45-.67.45-1.34,1.12-2,1.57a56.49,56.49,0,0,0-4.92,2.91l-.67.67c-.9.89-1.79,2-2.69,2.91-.45.45-.67,1.34-1.57.67a9.12,9.12,0,0,0-.89.67A13.11,13.11,0,0,1,219,92.4C218.13,94.19,218.8,96.65,217.46,98.66ZM209.4,84.78a.77.77,0,0,1,.22-.44c-.67-.23-.89-1.8-2.24-.23A3.17,3.17,0,0,1,209.4,84.78Z" transform="translate(-4.69 -18.29)"/><path d="M319.33,194.94c.22.67.44,1.12.67,1.79,1.12-1.57,2.46-2.47,4.25-2.24a16.54,16.54,0,0,0,2,2,21.56,21.56,0,0,0-2,2.24c.45,1.57.9,3.14,1.35,4.93,2.68-1.12,2.68-4,4.7-5.6l.22.22c-.45,2-.67,4-1.12,6.05a8,8,0,0,1-.89,2,96.22,96.22,0,0,1-13.44,16.8,3.15,3.15,0,0,1-.89.67c.22-1.79.22-3.36.45-4.93h-1.12c0-1.56.44-3.58-1.12-4.25s-3.36-.9-4.48.45a16.14,16.14,0,0,0-3.58.22,1.68,1.68,0,0,1-2.24-1.12c2-2,1.79-5.15,2.46-7.61a32.57,32.57,0,0,1,1.79-4.93c.67-1.34,2-1.56,3.36-1.56a6.12,6.12,0,0,0,5.15-2.24C315.74,196.06,317.76,195.61,319.33,194.94Z" transform="translate(-4.69 -18.29)"/><path d="M258.88,68.89c.89,1.34,1.34,2.24,2,3.13-.67,1.12-.67,1.12-1.79,1.12,0-.45-.22-1.12-.22-1.79-.23.22-.45.22-.45.45a15.71,15.71,0,0,1-1.57,3.58c-.45-1.12-.89-2-1.34-3.13,0-.23-.23-.68-.45-.68-1.12-.67-.67-1.79-.67-2.68s.22-1.57,1.34-1.57c.45,0,1.35-.22,1.57-.67.9-1.57,2.24-1.12,3.36-.45.22.22.67.22,1.12.45C261.56,67.77,261.34,69.56,258.88,68.89Z" transform="translate(-4.69 -18.29)"/><path d="M279,190.91a6.76,6.76,0,0,1-.23,5.15c-.89,2-1.79,4.25-2.68,6.26-.23.23-.23.9-.45.9a3.58,3.58,0,0,1-2,.67c-.22,0-.67-1.12-.67-1.57a5,5,0,0,1,.67-3.13c.45-.45.23-1.34.45-2a6.92,6.92,0,0,1,1.12-2.24,25.61,25.61,0,0,0,3.81-4Z" transform="translate(-4.69 -18.29)"/><path d="M333,139c.68-2.23,2.24-4,2.47-6.49a20.66,20.66,0,0,0-.23-7.39,13.77,13.77,0,0,1,0-4.25c.9,1.34,1.79,2.46,1.12,4-.22.45,0,.89,0,1.34.23,2.24.45,4.7.67,6.94.23,2.69.45,2.69-1.34,5.6a8.44,8.44,0,0,0-1.79,5.15c-.45-1.79-1.57-3.13-.9-4.93Z" transform="translate(-4.69 -18.29)"/><path d="M324.92,173.44c.23.67.23,1.57.45,2.69a4.83,4.83,0,0,0-1.57,4v.45a58.27,58.27,0,0,1-2.91,5.15c-.67-.45-1.34-.67-2-1.12v-1.12c0-1.79.22-3.58,2-4.93C322.46,177.25,323.58,175.23,324.92,173.44Z" transform="translate(-4.69 -18.29)"/><path d="M329.18,192.92c-.9-.22,0-1.57-1.35-1.34-.22-.67-.67-1.35-.44-2a3.38,3.38,0,0,0,0-3.8c-.45-.9.22-2.47.22-3.59,1.79.45,2.24,1.35,3.36,5.15.45-.89.89-1.34,1.34-2.23-.22.67-.22,1.56-.45,2.23s-.44,1.35-1.34,1.57c-.89,0-1.12.9-.89,1.57C330.52,191.8,329.63,192.25,329.18,192.92Z" transform="translate(-4.69 -18.29)"/><path d="M278.58,68.22a11.06,11.06,0,0,0-3.14,6.49c-.22,2.46-.22,4.48,2.47,6.27-.9.22-1.35.45-1.79.22-.68-.45-1.57-.89-2.24-1.34-.9-.67-.45-1.35-.45-2.24a47.56,47.56,0,0,0,0-5.6c0-1.57,2-4,3.58-4.48A16,16,0,0,0,278.58,68.22Z" transform="translate(-4.69 -18.29)"/><path d="M230.67,88.59c1.34,1.12,2.68.45,4,.22.67,2.24.67,2.91-.45,4-2,1.57-2.69,1.79-4.93.68C229.77,92,228.43,90.16,230.67,88.59Z" transform="translate(-4.69 -18.29)"/><path d="M329.4,160v1.79c-.67,2,0,3.81.23,5.82a13.68,13.68,0,0,1-1.35,7.84c-.45-1.12-1.34-1.57-.45-3.14.68-1.12.23-2.91,0-4.47a15.68,15.68,0,0,1,.68-6.5C328.51,160.91,328.73,160.68,329.4,160Z" transform="translate(-4.69 -18.29)"/><path d="M205.14,119c.9.67,1.57,1.12,2.47,1.79a18.72,18.72,0,0,1,.89,2.69c-1.79-.23-3.58-.45-5.6-.68C202.68,121.05,204.25,120.38,205.14,119Z" transform="translate(-4.69 -18.29)"/><path d="M185.67,100.9c-1.35.23-2.47.68-3.81.9-.22,0-.67-.45-1.34-.9a16.5,16.5,0,0,1,1.79-2C183.2,98.22,184.55,99.11,185.67,100.9Z" transform="translate(-4.69 -18.29)"/><path d="M181,156.2a2.14,2.14,0,0,1,2.91-.67c.45.23,1.12.45,1.57.67a20.22,20.22,0,0,1,3.58,2.24c-1.12.23-1.79.45-2.68-.45C185,156.65,183.2,155.31,181,156.2Z" transform="translate(-4.69 -18.29)"/><path d="M324,182.17c.89.23.89.23,1.57,1.57h-1.12c-.23,1.12-.45,2.24-.68,3.36h-1.34c-.67-.67.45-3.81,1.57-4.93Z" transform="translate(-4.69 -18.29)"/><path d="M190.14,160.91a6.74,6.74,0,0,1,.9-2.24c1.12,0,2.46-.23,3.58,1.56Z" transform="translate(-4.69 -18.29)"/><path d="M158.58,154.19a5,5,0,0,1-1.57-4.93l2,4.7A.76.76,0,0,1,158.58,154.19Z" transform="translate(-4.69 -18.29)"/><path d="M329.18,151.5c.22.23.89.23.89.45a25.32,25.32,0,0,1-.89,4c-.9-1.57,0-3.13,0-4.48Z" transform="translate(-4.69 -18.29)"/><path d="M191.26,94c-.45,1.12-.45,1.12-1.56,1.12C189.92,93.52,189.92,93.52,191.26,94Z" transform="translate(-4.69 -18.29)"/><path d="M324,182.17c.22-1.79.22-1.79,2.68-1.56a2.92,2.92,0,0,1-1.56.67,1.13,1.13,0,0,0-1.12.89Z" transform="translate(-4.69 -18.29)"/><path d="M313.28,166.28c-.22.89-.45,1.79-.67,2.91h-.45c.23-.9.45-1.79.67-2.69A.71.71,0,0,1,313.28,166.28Z" transform="translate(-4.69 -18.29)"/><path d="M272.76,83.22c1.57.89,1.34,1.34.22,2A5.63,5.63,0,0,1,272.76,83.22Z" transform="translate(-4.69 -18.29)"/><path d="M325.37,185.31c.45-.22.9-.9,2,.22-.9,0-1.35.23-2,.23Z" transform="translate(-4.69 -18.29)"/><path d="M198.65,120.16a3.28,3.28,0,0,0,1.34.45c0,.22,0,.22-.22.44a3.25,3.25,0,0,0-1.34-.44C198.65,120.38,198.65,120.38,198.65,120.16Z" transform="translate(-4.69 -18.29)"/><path d="M261.34,70l1.34-.67c0,.22.23.22.23.44l-1.35.67A.77.77,0,0,0,261.34,70Z" transform="translate(-4.69 -18.29)"/><path d="M328.06,180.16c-.23.45-.23.9-.45,1.34-.22,0-.22,0-.45-.22a12.56,12.56,0,0,0,.45-1.57C327.61,180.16,327.83,180.16,328.06,180.16Z" transform="translate(-4.69 -18.29)"/><path d="M269.18,137.4a8.15,8.15,0,0,1-1.35,1.34,1.35,1.35,0,0,1-.89-.22c-.23-.23,0-.9.22-.9a4.29,4.29,0,0,1,1.79-.45C269.18,137,269.18,137.17,269.18,137.4Z" transform="translate(-4.69 -18.29)"/><path d="M262.24,137.84a15,15,0,0,0-2.47-.44C260.44,137,261.12,136.73,262.24,137.84Z" transform="translate(-4.69 -18.29)"/><path d="M243.88,130.23a14.05,14.05,0,0,1-1.57.9C242.53,130.23,242.53,130.23,243.88,130.23Z" transform="translate(-4.69 -18.29)"/><path d="M238.06,38.21a3.28,3.28,0,0,1,3.13,2,3.1,3.1,0,0,1-.9,3.36,3.39,3.39,0,0,1-3.8.22,3.18,3.18,0,0,1-1.57-3.13,3.1,3.1,0,0,1,2.46-2.47Zm2.46,2.92a2.49,2.49,0,0,0-2.46-2.47,2.36,2.36,0,0,0-2.47,2.47,2.49,2.49,0,0,0,2.47,2.46A2.24,2.24,0,0,0,240.52,41.13Z" transform="translate(-4.69 -18.29)"/><path d="M236.94,39.78h2c.22,0,.45.23.67.67,0,.45,0,.68-.45.9l-.22.22c.45.45.45.9.67,1.57H239c0-.22-.22-.22-.22-.45-.23-.67-.23-.67-1.12-.67v1.12h-.67Zm.67.45v.9h.67c.22,0,.22-.23.45-.45a.48.48,0,0,0-.45-.45Z" transform="translate(-4.69 -18.29)"/><path d="M92.08,438.3H80.44V445H91.63v4H80.44v9.4H92.08v4H76V434.27H92.08Z" transform="translate(-4.69 -18.29)"/><path d="M97,444.8h4.25v1.56a8.32,8.32,0,0,1,2-1.56,6.55,6.55,0,0,1,2.24-.45,5.62,5.62,0,0,1,4.93,2.68,6.37,6.37,0,0,1,5.37-2.68c4,0,6.27,2.46,6.27,7.39v11h-4.25v-9.85a6.77,6.77,0,0,0-.67-3.59,2.48,2.48,0,0,0-2.24-1.12,2.58,2.58,0,0,0-2.47,1.35,9,9,0,0,0-.89,4v9.18H107.3v-9.85c0-3.14-.89-4.71-2.91-4.71a3.17,3.17,0,0,0-2.68,1.35,8.89,8.89,0,0,0-.9,4v9.18H96.56V444.8Z" transform="translate(-4.69 -18.29)"/><path d="M132.16,472.11H127.9V444.57h4.26v2a8,8,0,0,1,5.59-2.47,8.12,8.12,0,0,1,6.27,2.69,10.36,10.36,0,0,1,0,13.43,7.81,7.81,0,0,1-6.27,2.69,8.55,8.55,0,0,1-5.82-2.46v11.64Zm10.07-18.36a6.48,6.48,0,0,0-1.34-4.25,4.46,4.46,0,0,0-3.58-1.57,4.62,4.62,0,0,0-3.81,1.57,6.22,6.22,0,0,0-1.34,4,5.84,5.84,0,0,0,1.34,4,4.62,4.62,0,0,0,3.81,1.56,4.18,4.18,0,0,0,3.58-1.56A6.49,6.49,0,0,0,142.23,453.75Z" transform="translate(-4.69 -18.29)"/><path d="M155.22,431.59v30.89H151V431.59Z" transform="translate(-4.69 -18.29)"/><path d="M159.69,453.53a8.39,8.39,0,0,1,2.92-6.5,10.33,10.33,0,0,1,13.88,0,9.33,9.33,0,0,1,2.91,6.72,8.53,8.53,0,0,1-2.91,6.72,10,10,0,0,1-6.94,2.68,9.62,9.62,0,0,1-6.94-2.68A9.32,9.32,0,0,1,159.69,453.53Zm4.26,0a5.57,5.57,0,0,0,1.57,4.25,4.77,4.77,0,0,0,4,1.57,5.41,5.41,0,0,0,4-1.57,6.59,6.59,0,0,0,1.56-4.25,5.62,5.62,0,0,0-1.56-4.26,4.79,4.79,0,0,0-4-1.56,5.37,5.37,0,0,0-4,1.56A6.3,6.3,0,0,0,164,453.53Z" transform="translate(-4.69 -18.29)"/><path d="M188.58,459.12l-8.29-14.55h4.93l5.59,10.3,5.15-10.3h4.71l-14.56,27.54h-4.7Z" transform="translate(-4.69 -18.29)"/><path d="M219.7,454.65H206.49a5.93,5.93,0,0,0,1.56,3.58,4.59,4.59,0,0,0,3.36,1.34,4.76,4.76,0,0,0,2.69-.67,10,10,0,0,0,2.24-2.69l3.58,2a6.2,6.2,0,0,1-1.79,2.24,11.56,11.56,0,0,1-2,1.56,9.07,9.07,0,0,1-2.23.9,11.16,11.16,0,0,1-2.69.22,8.92,8.92,0,0,1-6.49-2.46,9.9,9.9,0,0,1-2.47-6.72,9.12,9.12,0,0,1,2.47-6.71c1.56-1.79,3.8-2.46,6.49-2.46a8.94,8.94,0,0,1,6.49,2.46c1.57,1.57,2.24,4,2.24,6.94Zm-4.26-3.36c-.67-2.24-2-3.36-4.25-3.36a2.85,2.85,0,0,0-1.34.22l-1.35.68a2.19,2.19,0,0,0-.89,1.11l-.68,1.35Z" transform="translate(-4.69 -18.29)"/><path d="M224.4,444.8h4.25v1.56a5.4,5.4,0,0,1,2-1.56,6.45,6.45,0,0,1,2.24-.45,8.27,8.27,0,0,1,3.58,1.12l-2,3.8a5.84,5.84,0,0,0-2.24-.89c-2.23,0-3.35,1.79-3.35,5.15v9.18h-4.26V444.8Z" transform="translate(-4.69 -18.29)"/><path d="M249.7,453.53a8.38,8.38,0,0,1,2.91-6.5,10.33,10.33,0,0,1,13.88,0,9.33,9.33,0,0,1,2.91,6.72,8.53,8.53,0,0,1-2.91,6.72,10,10,0,0,1-6.94,2.68,9.62,9.62,0,0,1-6.94-2.68A9.31,9.31,0,0,1,249.7,453.53Zm4.48,0a5.56,5.56,0,0,0,1.56,4.25,4.8,4.8,0,0,0,4,1.57,5.39,5.39,0,0,0,4-1.57,6.54,6.54,0,0,0,1.57-4.25,5.59,5.59,0,0,0-1.57-4.26,4.78,4.78,0,0,0-4-1.56,5.4,5.4,0,0,0-4,1.56A6.29,6.29,0,0,0,254.18,453.53Z" transform="translate(-4.69 -18.29)"/><path d="M278.13,448.6v13.88h-4.25V448.6h-1.57v-3.8h1.57v-6.95a8,8,0,0,1,1.12-4.7,5.78,5.78,0,0,1,4.7-2,8.71,8.71,0,0,1,2.91.67v4.25l-.45-.22a5,5,0,0,0-2.24-.67,1.49,1.49,0,0,0-1.56.89,7.66,7.66,0,0,0-.45,2.91v5.83h4.7v3.8Z" transform="translate(-4.69 -18.29)"/><path d="M301.42,448.6v13.88h-4.26V448.6h-1.79v-3.8h1.79v-6.5h4.26v6.5h3.35v3.8Z" transform="translate(-4.69 -18.29)"/><path d="M308.36,431.59h4.25v14.55a7.37,7.37,0,0,1,4.93-2,6.26,6.26,0,0,1,4.92,2c1.12,1.12,1.57,2.91,1.57,5.37v11h-4.26V452a5.9,5.9,0,0,0-.67-3.13,2.77,2.77,0,0,0-2.46-.9,3.48,3.48,0,0,0-3.13,1.34c-.68.9-.9,2.47-.9,4.7v8.51h-4.25Z" transform="translate(-4.69 -18.29)"/><path d="M346.19,454.65H333a6,6,0,0,0,1.57,3.58,4.59,4.59,0,0,0,3.36,1.34,4.79,4.79,0,0,0,2.69-.67,9.81,9.81,0,0,0,2.23-2.69l3.59,2a6.2,6.2,0,0,1-1.79,2.24,12.35,12.35,0,0,1-2,1.56,9.14,9.14,0,0,1-2.24.9,11,11,0,0,1-2.68.22,9,9,0,0,1-6.5-2.46,9.94,9.94,0,0,1-2.46-6.72,9.15,9.15,0,0,1,2.46-6.71c1.57-1.79,3.81-2.46,6.5-2.46a9,9,0,0,1,6.49,2.46c1.57,1.57,2.24,4,2.24,6.94Zm-4.47-3.36c-.68-2.24-2-3.36-4.26-3.36a2.87,2.87,0,0,0-1.34.22l-1.35.68a2.24,2.24,0,0,0-.89,1.11l-.67,1.35Z" transform="translate(-4.69 -18.29)"/><path d="M369.25,450.39l-9.4-16.12h4.93l6.71,11.2,6.72-11.2h4.92l-9.4,16.12v12.09h-4.48Z" transform="translate(-4.69 -18.29)"/><path d="M399.93,454.65H386.72a5.93,5.93,0,0,0,1.56,3.58,4.59,4.59,0,0,0,3.36,1.34,4.76,4.76,0,0,0,2.69-.67,10,10,0,0,0,2.24-2.69l3.58,2a6.2,6.2,0,0,1-1.79,2.24,11.56,11.56,0,0,1-2,1.56,9.07,9.07,0,0,1-2.23.9,11.16,11.16,0,0,1-2.69.22,8.92,8.92,0,0,1-6.49-2.46,9.9,9.9,0,0,1-2.47-6.72,9.12,9.12,0,0,1,2.47-6.71c1.56-1.79,3.8-2.46,6.49-2.46a8.94,8.94,0,0,1,6.49,2.46c1.57,1.57,2.24,4,2.24,6.94Zm-4.26-3.36c-.67-2.24-2-3.36-4.25-3.36a2.85,2.85,0,0,0-1.34.22l-1.35.68a2.19,2.19,0,0,0-.89,1.11l-.68,1.35Z" transform="translate(-4.69 -18.29)"/><path d="M418.06,444.8h4.26v17.68h-4.26v-1.79a8.42,8.42,0,0,1-5.6,2.46,8.1,8.1,0,0,1-6.26-2.68,10.38,10.38,0,0,1,0-13.44,8.1,8.1,0,0,1,6.26-2.68,8.55,8.55,0,0,1,5.83,2.46v-2ZM408,453.53a6.42,6.42,0,0,0,1.34,4.25,4.46,4.46,0,0,0,3.58,1.57,4.62,4.62,0,0,0,3.81-1.57,6.28,6.28,0,0,0,1.34-4,5.87,5.87,0,0,0-1.34-4,4.62,4.62,0,0,0-3.81-1.57,4.46,4.46,0,0,0-3.58,1.57A5.26,5.26,0,0,0,408,453.53Z" transform="translate(-4.69 -18.29)"/><path d="M427.69,444.8h4.25v1.56a5.4,5.4,0,0,1,2-1.56,6.45,6.45,0,0,1,2.24-.45,8.23,8.23,0,0,1,3.58,1.12l-2,3.8a5.84,5.84,0,0,0-2.24-.89c-2.23,0-3.35,1.79-3.35,5.15v9.18h-4.48Z" transform="translate(-4.69 -18.29)"/><path d="M79.54,493.38v13.88H75.29V493.38H73.72v-3.81h1.57v-6.94a8,8,0,0,1,1.12-4.7,5.78,5.78,0,0,1,4.7-2,8.71,8.71,0,0,1,2.91.67v4.25l-.45-.22a4.93,4.93,0,0,0-2.24-.67,1.49,1.49,0,0,0-1.56.89,7.66,7.66,0,0,0-.45,2.91v5.82H84v3.81Z" transform="translate(-4.69 -18.29)"/><path d="M86.26,498.3a8.36,8.36,0,0,1,2.91-6.49,10,10,0,0,1,6.94-2.68,9.62,9.62,0,0,1,6.94,2.68,9.31,9.31,0,0,1,2.91,6.72,8.51,8.51,0,0,1-2.91,6.72,10,10,0,0,1-6.94,2.68,9.62,9.62,0,0,1-6.94-2.68A9.31,9.31,0,0,1,86.26,498.3Zm4.25,0a5.58,5.58,0,0,0,1.57,4.26,4.8,4.8,0,0,0,4,1.57,5.39,5.39,0,0,0,4-1.57,6.55,6.55,0,0,0,1.57-4.26,5.57,5.57,0,0,0-1.57-4.25,4.8,4.8,0,0,0-4-1.57,5.39,5.39,0,0,0-4,1.57A6.28,6.28,0,0,0,90.51,498.3Z" transform="translate(-4.69 -18.29)"/><path d="M110.22,489.57h4.25v1.57a5.52,5.52,0,0,1,2-1.57,6.8,6.8,0,0,1,2.24-.44,8.28,8.28,0,0,1,3.59,1.11l-2,3.81a5.79,5.79,0,0,0-2.24-.89c-2.24,0-3.36,1.79-3.36,5.14v9.18h-4.25V489.57Z" transform="translate(-4.69 -18.29)"/><path d="M158.8,480.62v5.15a12.47,12.47,0,0,0-7.84-3.14,10.7,10.7,0,0,0-10.74,10.75,10.18,10.18,0,0,0,3.13,7.39A10.32,10.32,0,0,0,151,503.9a10.79,10.79,0,0,0,4-.67c.67-.22,1.12-.67,1.79-.9a11.56,11.56,0,0,0,2-1.56v5.15a16.37,16.37,0,0,1-7.84,2,14.91,14.91,0,0,1-15-14.55,14.33,14.33,0,0,1,3.58-9.63,15,15,0,0,1,11.65-5.15A15.43,15.43,0,0,1,158.8,480.62Z" transform="translate(-4.69 -18.29)"/><path d="M167.75,489.57v10.3c0,2.91,1.12,4.48,3.59,4.48s3.58-1.57,3.58-4.48v-10.3h4.25v10.3a15.13,15.13,0,0,1-.45,3.58,6.21,6.21,0,0,1-1.79,2.47,9,9,0,0,1-10.74,0,4.64,4.64,0,0,1-1.79-2.47,8.14,8.14,0,0,1-.45-3.58v-10.3Z" transform="translate(-4.69 -18.29)"/><path d="M195.07,492.71l-3.58,1.79a2.29,2.29,0,0,0-2-1.57,1.15,1.15,0,0,0-.89.45,1.64,1.64,0,0,0-.45.89c0,.68.89,1.35,2.46,2,2.24.9,3.81,1.79,4.48,2.69a4.85,4.85,0,0,1,1.12,3.13,5.17,5.17,0,0,1-2,4.25,6.43,6.43,0,0,1-4.47,1.57,6.53,6.53,0,0,1-6.5-4.25l3.58-1.57a5.76,5.76,0,0,0,1.12,1.57,2.54,2.54,0,0,0,1.8.67c1.34,0,2.23-.67,2.23-1.79,0-.67-.44-1.34-1.56-2l-1.35-.67-1.34-.67a14.22,14.22,0,0,1-2.69-1.79,4.13,4.13,0,0,1-.89-2.91,4.62,4.62,0,0,1,1.57-3.81,5.37,5.37,0,0,1,4-1.56A5.48,5.48,0,0,1,195.07,492.71Z" transform="translate(-4.69 -18.29)"/><path d="M204.47,493.38v13.88h-4.25V493.38h-1.79v-3.81h1.79v-6.49h4.25v6.49h3.36v3.81Z" transform="translate(-4.69 -18.29)"/><path d="M209.85,498.3a8.36,8.36,0,0,1,2.91-6.49,10,10,0,0,1,6.94-2.68,9.64,9.64,0,0,1,6.94,2.68,9.31,9.31,0,0,1,2.91,6.72,8.54,8.54,0,0,1-2.91,6.72,10,10,0,0,1-6.94,2.68,9.62,9.62,0,0,1-6.94-2.68A10.22,10.22,0,0,1,209.85,498.3Zm4.47,0a5.58,5.58,0,0,0,1.57,4.26,4.8,4.8,0,0,0,4,1.57,5.39,5.39,0,0,0,4-1.57,6.55,6.55,0,0,0,1.57-4.26,5.57,5.57,0,0,0-1.57-4.25,4.8,4.8,0,0,0-4-1.57,5.39,5.39,0,0,0-4,1.57A6.28,6.28,0,0,0,214.32,498.3Z" transform="translate(-4.69 -18.29)"/><path d="M234,489.57h4.25v1.57a8.25,8.25,0,0,1,2-1.57,6.8,6.8,0,0,1,2.24-.44,5.62,5.62,0,0,1,4.93,2.68,6.37,6.37,0,0,1,5.37-2.68c4,0,6.27,2.46,6.27,7.38v11h-4.25v-9.85a6.75,6.75,0,0,0-.67-3.58,2.48,2.48,0,0,0-2.24-1.12,2.59,2.59,0,0,0-2.47,1.34,9.07,9.07,0,0,0-.89,4v9.18h-4.26v-9.85c0-3.13-.89-4.7-2.91-4.7a3.19,3.19,0,0,0-2.68,1.34,8.92,8.92,0,0,0-.9,4v9.18h-4.25V489.57Z" transform="translate(-4.69 -18.29)"/><path d="M281,499.42H267.83A5.94,5.94,0,0,0,269.4,503a4.58,4.58,0,0,0,3.36,1.34,4.73,4.73,0,0,0,2.68-.67,9.78,9.78,0,0,0,2.24-2.69l3.59,2a6.12,6.12,0,0,1-1.8,2.24,12.43,12.43,0,0,1-2,1.56,9.55,9.55,0,0,1-2.24.9,11.07,11.07,0,0,1-2.69.22,9,9,0,0,1-6.49-2.46,9.9,9.9,0,0,1-2.46-6.72A9.1,9.1,0,0,1,266,492c1.57-1.8,3.81-2.47,6.49-2.47A9,9,0,0,1,279,492c1.56,1.56,2.24,4,2.24,6.94Zm-4.25-3.35c-.67-2.24-2-3.36-4.26-3.36a2.89,2.89,0,0,0-1.34.22l-1.34.67a2.28,2.28,0,0,0-.9,1.12l-.67,1.35Z" transform="translate(-4.69 -18.29)"/><path d="M285.74,489.57H290v1.57a5.44,5.44,0,0,1,2-1.57,6.75,6.75,0,0,1,2.24-.44,8.2,8.2,0,0,1,3.58,1.11l-2,3.81a5.79,5.79,0,0,0-2.24-.89c-2.24,0-3.36,1.79-3.36,5.14v9.18H286V489.57Z" transform="translate(-4.69 -18.29)"/><path d="M329.18,483.3l-3.58,2a11.15,11.15,0,0,0-1.8-2.24,4,4,0,0,0-2.46-.67,5.12,5.12,0,0,0-3.13.89,2.86,2.86,0,0,0-1.12,2.47c0,1.34,1.12,2.46,3.13,3.36l2.91,1.11a11.47,11.47,0,0,1,5.15,3.36,7.25,7.25,0,0,1,1.57,4.93,8.61,8.61,0,0,1-2.69,6.49,8.94,8.94,0,0,1-6.71,2.46,8.64,8.64,0,0,1-6.27-2.23A10.54,10.54,0,0,1,311,499.2l4.48-.9c.22,1.57.45,2.92,1.12,3.36a4.92,4.92,0,0,0,4,1.79,4.58,4.58,0,0,0,4.7-4.7,3.81,3.81,0,0,0-.22-1.56c-.23-.45-.45-.9-.67-1.35s-.68-.67-1.35-1.12a13.54,13.54,0,0,0-1.79-.89l-2.91-1.12c-4-1.57-6-4-6-7.17a7.52,7.52,0,0,1,2.46-5.37,9.72,9.72,0,0,1,6.27-2.24C324.7,478.6,327.39,480.17,329.18,483.3Z" transform="translate(-4.69 -18.29)"/><path d="M351.12,499.42H337.91a5.88,5.88,0,0,0,1.57,3.59,4.55,4.55,0,0,0,3.35,1.34,4.76,4.76,0,0,0,2.69-.67,10.15,10.15,0,0,0,2.24-2.69l3.58,2a6.2,6.2,0,0,1-1.79,2.24,12.43,12.43,0,0,1-2,1.56,9.72,9.72,0,0,1-2.24.9,11.11,11.11,0,0,1-2.69.22,8.94,8.94,0,0,1-6.49-2.46,9.9,9.9,0,0,1-2.46-6.72,9.1,9.1,0,0,1,2.46-6.71c1.57-1.8,3.8-2.47,6.49-2.47A8.93,8.93,0,0,1,349.1,492c1.57,1.56,2.24,4,2.24,6.94Zm-4.48-3.35c-.67-2.24-2-3.36-4.25-3.36a2.91,2.91,0,0,0-1.35.22c-.44.23-.89.45-1.34.67a2.28,2.28,0,0,0-.9,1.12c-.22.45-.44.9-.67,1.35Z" transform="translate(-4.69 -18.29)"/><path d="M355.6,489.57h4.25v1.57a5.45,5.45,0,0,1,2-1.57,6.69,6.69,0,0,1,2.23-.44,8.28,8.28,0,0,1,3.59,1.11l-2,3.81a5.74,5.74,0,0,0-2.24-.89c-2.24,0-3.36,1.79-3.36,5.14v9.18h-4.25V489.57Z" transform="translate(-4.69 -18.29)"/><path d="M374,489.57l4.7,10.08,4.7-10.08h4.7l-9.4,19-9.41-19Z" transform="translate(-4.69 -18.29)"/><path d="M390.52,482.18a2,2,0,0,1,.9-1.79,2.87,2.87,0,0,1,2-.89,3.09,3.09,0,0,1,2.91,2.68,2,2,0,0,1-.89,1.8,2.87,2.87,0,0,1-2,.89,2.72,2.72,0,0,1-2-.89A2.05,2.05,0,0,1,390.52,482.18Zm4.7,7.39v17.69H391V489.57Z" transform="translate(-4.69 -18.29)"/><path d="M414.93,490.24v5.38a8.84,8.84,0,0,0-2.69-2.46,4.76,4.76,0,0,0-2.69-.68,5.36,5.36,0,0,0-5.59,5.6,5.36,5.36,0,0,0,5.59,5.6,4.85,4.85,0,0,0,2.69-.67,12,12,0,0,0,2.69-2.47v5.38a11.11,11.11,0,0,1-5.15,1.34,10.2,10.2,0,0,1-7.17-2.69,9.2,9.2,0,0,1,0-13.43,10.2,10.2,0,0,1,7.17-2.69C411.57,489.13,413.36,489.57,414.93,490.24Z" transform="translate(-4.69 -18.29)"/><path d="M435.75,499.42H422.54a5.88,5.88,0,0,0,1.57,3.59,4.55,4.55,0,0,0,3.35,1.34,4.76,4.76,0,0,0,2.69-.67,10.15,10.15,0,0,0,2.24-2.69l3.58,2a6.2,6.2,0,0,1-1.79,2.24,12.43,12.43,0,0,1-2,1.56,9.72,9.72,0,0,1-2.24.9,11.11,11.11,0,0,1-2.69.22,8.94,8.94,0,0,1-6.49-2.46,9.9,9.9,0,0,1-2.46-6.72,9.1,9.1,0,0,1,2.46-6.71c1.57-1.8,3.8-2.47,6.49-2.47a8.93,8.93,0,0,1,6.49,2.47c1.57,1.56,2.24,4,2.24,6.94Zm-4.48-3.35c-.67-2.24-2-3.36-4.25-3.36a2.91,2.91,0,0,0-1.35.22c-.44.23-.89.45-1.34.67a2.28,2.28,0,0,0-.9,1.12c-.22.45-.44.9-.67,1.35Z" transform="translate(-4.69 -18.29)"/></svg>