<svg id="Layer_1" data-name="Layer 1" xmlns="http://www.w3.org/2000/svg" viewBox="0 0 487.95 495.06"><path d="M377.24,157.31c.22,69.14-56.45,125.81-125.81,125.59-68.7,0-125.8-56-125.8-126C125.85,87.3,183,31.29,251.87,31.51,321.45,31.73,377.67,88.61,377.24,157.31ZM251.65,35c-67,0-122.08,54-122.3,121.65a122.46,122.46,0,0,0,122.08,123c67.83,0,122.53-55.14,122.53-122.09S319.69,35,251.65,35Z" transform="translate(-12.22 -22.1)"/><path d="M99.81,312.44a25.31,25.31,0,0,0,3.5,3.28,152.47,152.47,0,0,0,27.35,16.63,9,9,0,0,1,3.06,2,2.55,2.55,0,0,1,.88,3.06,2.9,2.9,0,0,1-3.07,1.09,12.78,12.78,0,0,1-2.62-.87,157,157,0,0,1-70.45-68.05A171.31,171.31,0,0,1,40.3,214.86a191.35,191.35,0,0,1-2-38.73c1.75-28.88,9.63-55.79,24.5-80.52a155.59,155.59,0,0,1,28-34.13,4.73,4.73,0,0,1,1.75-1.09,10.51,10.51,0,0,1-1.53,1.53c-24.29,23.41-39.6,51.85-46.82,84.89A197.67,197.67,0,0,0,41,169.57a169.77,169.77,0,0,0-.21,25.81,175.29,175.29,0,0,0,15.31,61.26,155.2,155.2,0,0,0,32.82,46.61l8.53,7.87a12.71,12.71,0,0,0,1.75,1.1C99.59,312.44,99.59,312.44,99.81,312.44Z" transform="translate(-12.22 -22.1)"/><path d="M404.8,311.78c3.29-2.84,6.57-5.47,9.63-8.31,21.22-21,35.23-46.17,42.67-75.05a173,173,0,0,0,4.81-27.79,154.32,154.32,0,0,0,.66-24.5c-2-37.63-14-71.55-38.29-100.86-3.28-4.16-7.22-7.88-10.72-11.6a4,4,0,0,1-.88-1.09l.22-.22A134.42,134.42,0,0,1,422.53,72c20.13,22.32,32.82,48.58,39.16,78.11a172.15,172.15,0,0,1,3.5,28c1.53,34.13-5.47,66.29-22.53,96a155,155,0,0,1-68.27,63.67,7.21,7.21,0,0,1-3.06.87,2.22,2.22,0,0,1-2.63-1.09c-.65-1.1,0-2,.66-2.63a16.16,16.16,0,0,1,3.06-2.19,139.62,139.62,0,0,0,17.73-9.84,70.82,70.82,0,0,0,12.9-9.63.81.81,0,0,1,.66-.22A2.28,2.28,0,0,1,404.8,311.78Z" transform="translate(-12.22 -22.1)"/><path d="M242.9,322.72a33.36,33.36,0,0,1-2.41,13.13,21.32,21.32,0,0,1-5,7.44,13.46,13.46,0,0,1-19,.21,21.52,21.52,0,0,1-6.35-12,41.15,41.15,0,0,1,.22-18.6,21.88,21.88,0,0,1,5.91-10.5c5.69-5.69,14.22-5.69,19.69.22A23.48,23.48,0,0,1,242,315.94,62.9,62.9,0,0,1,242.9,322.72Zm-7.22-.88c0-1.09-.22-3.06-.44-5-.65-3.5-1.53-6.78-3.94-9.41-2.84-3.5-7.22-3.72-10.5-.43a19.89,19.89,0,0,0-2.41,3.5,29.28,29.28,0,0,0-2,7.22,28.13,28.13,0,0,0,2,16.41,18.66,18.66,0,0,0,2.85,4.37,6,6,0,0,0,9.19,0,20.87,20.87,0,0,0,3.06-4.59C235.24,330.38,235.68,326.66,235.68,321.84Z" transform="translate(-12.22 -22.1)"/><path d="M259.53,346.35c3.06-3.72,5.9-7,8.53-10.5,3.72-4.6,7.66-9.41,11.38-14a29.33,29.33,0,0,0,3.5-5.47c1.75-3.28,1.53-6.56-.66-9a8,8,0,0,0-9.19-2.18,6.7,6.7,0,0,0-4.15,3.93l-1.32,3.94h-6.78c-.44-4.59,2.63-10.94,7-13.12,5.91-2.85,12-2.63,17.5,1.31,5.91,4.15,7.44,11.59,3.94,18.16a31.09,31.09,0,0,1-3.72,5.69c-3.28,4.15-6.78,8.31-10.28,12.47a12.38,12.38,0,0,1-1.53,2c2,.65,3.72.22,5.69.22H291v6.56Z" transform="translate(-12.22 -22.1)"/><path d="M319,313.09h-6.78c-.22-8.31,5.68-14.66,13.78-14.88a17.19,17.19,0,0,1,7.44,1.1c7.88,3.28,11.38,11.81,7.66,19.47a39.49,39.49,0,0,1-3.72,5.91c-3.28,4.37-7,8.53-10.5,12.69-.44.65-.88,1.09-1.76,2.19h17.29v6.56H310.94a12.07,12.07,0,0,1,1.32-1.75c5.68-6.78,11.37-13.78,16.84-20.57a35.5,35.5,0,0,0,4.6-6.56,12.48,12.48,0,0,0,1.53-3.94,7.32,7.32,0,0,0-5.69-8.31c-4.38-1.1-8.09.65-9.63,4.81C319.69,310.69,319.48,311.78,319,313.09Z" transform="translate(-12.22 -22.1)"/><path d="M171.35,339.57H188.2v6.56H156.7a12.52,12.52,0,0,0,1.53-2C163.7,337.6,169,331,174.42,324.47c2-2.41,3.72-5,5.47-7.66a7.69,7.69,0,0,0,1.09-6.56c-.87-3.28-3.72-5.47-7.44-5.91a7.39,7.39,0,0,0-7.66,4.81c-.43,1.1-.65,2.41-1.09,3.72H158c-.66-8.09,5.47-14.66,13.56-15.09a16.13,16.13,0,0,1,9,1.75c7.22,3.72,9.85,12,5.91,19.47-1.53,3.06-3.94,5.91-5.91,8.53-3.06,3.94-6.12,7.44-9.4,11.16A3.61,3.61,0,0,1,171.35,339.57Z" transform="translate(-12.22 -22.1)"/><path d="M37.24,207c-3.29-5.47-4.38-6.13-7.88-5.91-1.1,4.38,2,9.85,6.12,11.82a14.61,14.61,0,0,1-6.78-.22A17.9,17.9,0,0,1,18,203.92a37.1,37.1,0,0,1-4.37-11.6,74,74,0,0,1-1.32-18.38,2.33,2.33,0,0,1,.22-1.09,10.63,10.63,0,0,1,2.63.22A21.12,21.12,0,0,1,30.23,184a48.44,48.44,0,0,1,5.47,15.53,51.87,51.87,0,0,1,1.1,5.69C37.24,205.67,37.24,206.1,37.24,207Z" transform="translate(-12.22 -22.1)"/><path d="M473.94,201.07c-5-.44-6.78,2.85-8.53,6.13.66-2.85,1.09-5.91,1.75-8.75a59.44,59.44,0,0,1,4.38-12.91,21.73,21.73,0,0,1,14-12.26,32.42,32.42,0,0,1,4.81-.87c0,.87.22,1.31.22,2a70.75,70.75,0,0,1-2.19,21.44c-1.53,5-3.5,9.63-7.65,13.13-3.72,3.28-8.32,4.59-13.79,4.15C472.85,210.7,473.29,206.1,473.94,201.07Z" transform="translate(-12.22 -22.1)"/><path d="M202.86,420.74c-.66,4.59-1.53,9.41-2.19,14.22h-6.78c1.53-8.75,3.06-17.5,4.38-26.26h7c1.75,4.38,3.28,8.76,5.25,13.79q2.63-7.23,5.25-13.79h7c1.53,8.54,3.06,17.29,4.38,26a1.66,1.66,0,0,1-.88.22h-5.91c-.65-4.81-1.53-9.41-2.18-14.66l-.88,1.75c-1.53,3.94-3.28,7.66-4.81,11.6a1.92,1.92,0,0,1-2,1.31,1.76,1.76,0,0,1-2-1.31c-1.31-3.72-2.85-7.22-4.16-10.94-.22-.66-.65-1.32-.87-2C203.08,421,203.08,421,202.86,420.74Z" transform="translate(-12.22 -22.1)"/><path d="M183.83,475.65H181c-1.75-4.81-3.72-9.4-5.47-14.22h-.44c-.65,4.6-1.31,9.19-2.18,14H166.1c1.53-8.76,3.07-17.51,4.38-26.26h6.78c1.75,4.38,3.28,8.75,5,13.35h.44c1.75-4.38,3.28-9,5-13.35h6.79c1.53,8.75,3.06,17.5,4.59,26.47h-7c-.66-4.81-1.53-9.4-2.19-14-.22,0-.22,0-.22-.22h-.22C187.76,466.25,185.79,470.84,183.83,475.65Z" transform="translate(-12.22 -22.1)"/><path d="M44.24,247.89c-6.79,2.19-12.69.22-17.29-5a37.49,37.49,0,0,1-4.81-7.22,58.24,58.24,0,0,1-5.69-19c2.84-1.1,5.69-.66,8.53,0,4.16.87,7.44,3.28,10.29,6.34,3.93,4.6,6.56,10.06,9,15.75A20.12,20.12,0,0,1,45.33,242c-2.19-2.63-4.38-5-8.31-3.51C37.89,242.42,39.2,246.58,44.24,247.89Z" transform="translate(-12.22 -22.1)"/><path d="M486.85,216.39a71.86,71.86,0,0,1-2.62,11.81c-1.54,4.6-3.29,9-6.35,12.91a17.37,17.37,0,0,1-10.06,7,16.46,16.46,0,0,1-9.19-.44c5.25-1.31,6.56-5.25,8.09-9.4-3.72-1.32-6.12.65-8.31,3.5v-1.1c2.19-5.47,4.59-10.94,8.09-15.75,3.07-4.16,6.79-7.44,12-8.75C481.16,215.73,484,215.29,486.85,216.39Z" transform="translate(-12.22 -22.1)"/><path d="M36.58,169.35c-.66-3.5-1.75-6.57-5.91-7.22-1.53,4.59-.22,9.4,3.28,11.81A13.87,13.87,0,0,1,25,170a20,20,0,0,1-5.9-10.94,54.13,54.13,0,0,1-.22-16.84c.43-2.85,1.09-5.69,1.53-8.76a6.21,6.21,0,0,1,2.41.88,19.86,19.86,0,0,1,11.37,11.6C37.24,153.37,37,161.47,36.58,169.35Z" transform="translate(-12.22 -22.1)"/><path d="M466.07,168.69v-5.25a54.6,54.6,0,0,1,1.75-14.66c1.75-6.56,5.47-11.38,11.59-14.22.88-.44,2-.66,3.07-1.1.21,1.1.65,2.19.87,3.29A57.69,57.69,0,0,1,484.66,154a25.34,25.34,0,0,1-3.28,12,16.89,16.89,0,0,1-12.47,8.32,11.43,11.43,0,0,0,3.5-12c-3.72.65-5,3.28-5.69,6.56A.79.79,0,0,0,466.07,168.69Z" transform="translate(-12.22 -22.1)"/><path d="M419.46,424V408.7a36.65,36.65,0,0,1,6.79,0v26.48H419.9c-.44,0-1.09-.66-1.31-1.31-3.5-4.38-6.78-8.54-10.07-12.91-.43-.44-.65-.88-1.31-1.53a48.32,48.32,0,0,0-.22,7.87V435h-6.56c-.44-1.53-.66-23.41-.22-26.47h5.91a2,2,0,0,1,1.53,1.09l9.84,12.47A11,11,0,0,0,419,423.8.67.67,0,0,0,419.46,424Z" transform="translate(-12.22 -22.1)"/><path d="M46.21,211.14c4.15-3.29,4.15-7.66,3.72-12-3.94.44-4.82,1.32-7,7a33.48,33.48,0,0,1,0-4.59c.22-4.6.66-9.41,2.41-13.78,2.41-5.91,6.56-9.85,12.69-11.16a50.09,50.09,0,0,1,5.69-.66c.66,0,1.31.22,2.19.22a33.64,33.64,0,0,0-.22,4.59A54,54,0,0,1,62,197.35c-2.85,6.57-7.66,10.72-14.44,13.13C47.52,210.92,47.08,210.92,46.21,211.14Z" transform="translate(-12.22 -22.1)"/><path d="M460.16,207c-.88-4.6-2.41-7.44-7-7.88-.44,4.38-.44,8.54,3.5,11.82h-1.1c-6.34-2.19-11.15-5.91-14.22-12A52,52,0,0,1,437.4,184q-.31-3.62-.65-7.22a13.68,13.68,0,0,1,7.87.21c6.35,1.54,10.51,5.47,12.91,11.6a32.39,32.39,0,0,1,2.19,12A28.8,28.8,0,0,1,460.16,207Z" transform="translate(-12.22 -22.1)"/><path d="M427.78,515.91h-7c-4.16-5.25-8.1-10.28-12.26-15.53-.21,0-.21,0-.43.22v15.31H401.3V489.66h6.35c.66,0,1.09.65,1.53,1.31L419,503.44a10,10,0,0,0,1.53,1.75,21.44,21.44,0,0,0,.22-5.25V489.66h6.78C427.78,498.41,427.78,506.94,427.78,515.91Z" transform="translate(-12.22 -22.1)"/><path d="M100.25,504.75V489.66a34.89,34.89,0,0,1,6.78,0v26.47H100.9c-.65,0-1.09-.66-1.53-1.31l-9.84-12.47c-.44-.44-.88-1.1-1.75-2v15.53c-2.41.22-4.6,0-6.79.22V489.66a30.63,30.63,0,0,1,6.35,0c.65,0,1.09.87,1.53,1.31l9.85,12.47c.43.44.87,1.1,1.31,1.53Z" transform="translate(-12.22 -22.1)"/><path d="M377.24,488.78c7.22,0,12.69,4.16,14.22,10.72a13.69,13.69,0,0,1-9.63,16.63c-6.12,1.75-11.81.66-16-4.37a12.94,12.94,0,0,1-2-14.66c2.41-5.25,6.56-7.66,12.25-8.1A1.65,1.65,0,0,1,377.24,488.78ZM377,510a7.22,7.22,0,1,0,0-14.44,7.3,7.3,0,0,0-7.44,7A7.51,7.51,0,0,0,377,510Z" transform="translate(-12.22 -22.1)"/><path d="M181.2,488.78c5.69,0,10.28,2.19,13.13,7.44a13.8,13.8,0,0,1-9.41,20.13c-5.69,1.09-10.72.22-14.88-4.16a13,13,0,0,1-2.41-14.88c2.19-5.25,6.57-8.09,12.26-8.53Zm.22,21.22a7.22,7.22,0,1,0,0-14.44,7,7,0,0,0-7.22,7.22C174,506.94,177,510,181.42,510Z" transform="translate(-12.22 -22.1)"/><path d="M143.13,476.31c-7,0-12.25-3.72-14.22-9.84a14.08,14.08,0,0,1,11.59-18.16c5.47-.66,10.51.65,14,5a13.46,13.46,0,0,1,2,14.44c-2.19,5-6.35,7.66-11.6,8.31A4.79,4.79,0,0,1,143.13,476.31Zm0-21.22a7.22,7.22,0,1,0,0,14.44,7.53,7.53,0,0,0,7.66-7.22A7.68,7.68,0,0,0,143.13,455.09Z" transform="translate(-12.22 -22.1)"/><path d="M462.57,415.27c-2,.87-4.16,1.75-6.13,2.62a4.43,4.43,0,0,1-.88-1.31c-2.18-3.72-8.09-3.5-10.28,0a9.79,9.79,0,0,0-.44,10.07c1.54,3.06,6.35,4.15,9.41,2.18a3.58,3.58,0,0,0,1.75-3.28h-5.25V420.3a65.24,65.24,0,0,1,6.56,0h6.79a10,10,0,0,1-.22,5.69,11,11,0,0,1-2.85,5.47c-4.15,4.37-9.4,5.25-15.09,3.72-5.47-1.53-8.32-5.25-9.19-10.72a16.54,16.54,0,0,1,.22-6.57c1.53-6.34,7.44-10.28,14.22-9.84,4.16.22,7.88,1.75,10.28,5.25a3.51,3.51,0,0,1,.88,1.53C462.57,414.61,462.57,415.05,462.57,415.27Z" transform="translate(-12.22 -22.1)"/><path d="M58.46,272.4c-2.41-2.19-4.82-3.94-8.32-1.75,2.19,3.5,3.94,7,9.19,7a12.9,12.9,0,0,1-9.19,2.19,18.35,18.35,0,0,1-10.28-5,41.26,41.26,0,0,1-9-13.12c-1.09-2.19-2-4.38-3.06-6.79a15.67,15.67,0,0,1,9.84-1.53A16.93,16.93,0,0,1,46,257.08C51.24,261.24,55,266.71,58.46,272.4Z" transform="translate(-12.22 -22.1)"/><path d="M444.19,277.65c3.72,0,6.34-2,8.53-6.78-2.19-2-4.16-1.54-8.1,1.53a10.08,10.08,0,0,1,.66-1.53A55.19,55.19,0,0,1,456,258a17.19,17.19,0,0,1,17.29-3.72,12.91,12.91,0,0,0,1.75.65c-.22.44-.22,1.1-.44,1.54-2.63,6.78-6.13,13.34-11.38,18.59a16.43,16.43,0,0,1-10.28,5A16,16,0,0,1,444.19,277.65Z" transform="translate(-12.22 -22.1)"/><path d="M65.68,207.64l.65,4.59c.66,5.91.88,11.81-.65,17.72a21.57,21.57,0,0,1-11.16,13.57c3.06-3.5,2.19-7.44,1.09-11.38-3.5.44-4.37,2.41-4.81,8.31a34.26,34.26,0,0,1-1.75-7.87,30.54,30.54,0,0,1,.44-10.94C51.24,214,57.15,208.73,65.68,207.64Z" transform="translate(-12.22 -22.1)"/><path d="M437.62,207.85A17.72,17.72,0,0,1,454,223.17c.88,5.47,0,10.94-1.31,16.19,0,.22-.22.22-.44.44,0-3.72-.65-6.79-4.59-8.1-1.1,3.94-2,7.66.87,11.38a11.06,11.06,0,0,1-1.53-.66,22,22,0,0,1-10.28-15.53c-1.1-6.35-.44-12.69.44-19C437.4,208.07,437.4,207.85,437.62,207.85Z" transform="translate(-12.22 -22.1)"/><path d="M118,515.91v-26c.22-.22.22-.22.44-.22,3.72,0,7.65-.22,11.37,0,6.57.65,11.82,7.22,11.38,13.56a13.54,13.54,0,0,1-12.91,12.91C124.75,515.91,121.47,515.91,118,515.91Zm7-5.91c3.28,0,6.13-.43,7.88-3.28a7.63,7.63,0,0,0-.22-8.31c-1.75-2.63-4.6-3.28-7.66-3.06Z" transform="translate(-12.22 -22.1)"/><path d="M68.52,147.91a62,62,0,0,1-6.78,17.72A19.29,19.29,0,0,1,45.11,175a7.72,7.72,0,0,0,3.72-4.16,48.59,48.59,0,0,0,1.53-5.47c-3.72-.88-5.25.22-7.87,5,.22-1.53.65-3.06.87-4.81a36.39,36.39,0,0,1,4.16-10.5c4.59-7.88,12.47-9.85,20.35-7.44C67.87,147.47,68.08,147.69,68.52,147.91Z" transform="translate(-12.22 -22.1)"/><path d="M434.56,147.91c6.78-2.85,14.88-1.54,19.69,4.59a35.2,35.2,0,0,1,5.91,13.78c.22.88.22,1.75.44,2.63V170c-1.53-3.28-3.29-5.47-7.22-5,.43,3.94,1.09,7.88,5.25,9.85-5.69-.22-10.5-2-14.44-6.35a28.51,28.51,0,0,1-5.69-9.63A65.14,65.14,0,0,1,434.56,147.91Z" transform="translate(-12.22 -22.1)"/><path d="M34.61,100.21a15.17,15.17,0,0,1,5.25,3.72,19.58,19.58,0,0,1,5.25,11.81c.66,6.35-.44,12.26-1.75,18.38,0,.22-.22.44-.44.88-.21-3.07-.87-5.91-4.15-7-1.75,3.71-1.75,8.53.65,11.15-.65-.22-1.09-.43-1.75-.65a15.6,15.6,0,0,1-8.31-11.82,32.19,32.19,0,0,1,1.09-14.44c.88-3.28,2.19-6.34,3.28-9.62A14,14,0,0,1,34.61,100.21Z" transform="translate(-12.22 -22.1)"/><path d="M468.25,100.21a3,3,0,0,0,.66.87c3.28,7.22,5.47,14.88,5,23-.43,6.34-3.06,11.16-8.75,14.22a3.09,3.09,0,0,1-1.31.44c2.84-3.5,2-7.22.87-11.16-3.5,1.53-4.15,4.15-4.37,7.44a38.42,38.42,0,0,1-1.1-4.82c-1.09-5.47-1.75-10.94-.65-16.41a17.45,17.45,0,0,1,7.87-12.25A12.64,12.64,0,0,1,468.25,100.21Z" transform="translate(-12.22 -22.1)"/><path d="M240.93,466.47v9h-6.78V449.18c.44,0,.65-.22.87-.22h10.29c5,0,8.09,3.28,8.09,8.32,0,3.93-1.75,6.12-5.69,7.44,2.63,3.5,5.25,7,8.1,10.5a6.79,6.79,0,0,1-3.5.43c-1.53,0-3.5.44-4.82-.43-1.31-.66-1.75-2.41-2.62-3.72q-1.65-2.62-3.28-5.25C241.37,466.25,241.15,466.47,240.93,466.47Zm.22-11.82v6.13c2,.22,3.72.22,4.81-1.53a3,3,0,0,0-.22-3.51C244.65,454.43,242.9,454.43,241.15,454.65Z" transform="translate(-12.22 -22.1)"/><path d="M270.25,408.49c3.94,0,7.66-.22,11.59,0,5.91.21,9.41,6.12,7.22,11.59a6.39,6.39,0,0,1-3.06,3.28,13.84,13.84,0,0,0-2,.88c2.63,3.5,5.25,7,8.1,10.72a32.33,32.33,0,0,0-4.82.22c-2.84.44-4.59-.66-5.9-3.06a53.44,53.44,0,0,0-4.16-6.35c-.66,1.75-.22,3.28-.22,4.81v4.6h-6.56C270,433.43,269.81,411.77,270.25,408.49Zm7,11.81c2,0,3.72.22,4.81-1.53a3.34,3.34,0,0,0,0-3.5c-1.09-1.53-2.84-1.53-4.81-1.31Z" transform="translate(-12.22 -22.1)"/><path d="M266.75,506.5v9.41H260v-26c.22,0,.66-.22.88-.22,3.5,0,7-.22,10.5,0,6.78.22,8.75,6.12,7.66,10.72a6.43,6.43,0,0,1-3.5,4.37,12.94,12.94,0,0,0-1.75.88l3.94,5.25c1.31,1.75,2.62,3.5,4.15,5.47h-5.68a4.13,4.13,0,0,1-4.6-2.41c-1.09-2-2.41-3.94-3.72-5.9C267.62,507.38,267.19,507.16,266.75,506.5Zm0-5.25c2,0,3.94.22,5-1.75a2.63,2.63,0,0,0-.22-3.28c-1.31-1.53-2.84-1.53-4.81-1.31Z" transform="translate(-12.22 -22.1)"/><path d="M300.22,408.7H307V419a14.94,14.94,0,0,0,3.06-3.5,38.24,38.24,0,0,1,2.84-3.5l2.63-3.29h8.53c-3.5,4.16-6.78,8.32-10.28,12.48,3.72,4.59,7.44,9,11.37,14h-8.31c-.44,0-1.09-.66-1.53-1.1-2.19-2.62-4.16-5.25-6.35-7.87a10,10,0,0,0-1.53-1.75,23.79,23.79,0,0,0-.22,5.47v5.47a34.88,34.88,0,0,1-6.78,0C300.22,426.21,300.22,417.46,300.22,408.7Z" transform="translate(-12.22 -22.1)"/><path d="M44.24,449.18H51V464.5a16.88,16.88,0,0,0,.44,3.28c.65,2,1.75,2.62,4.15,2.62s3.5-.65,4.16-2.62a17.18,17.18,0,0,0,.44-3.06v-15.1H67c0,.44.22.87.22,1.31V466a7.45,7.45,0,0,1-.22,2.19q-1.3,7.88-9.19,8.53H53.43c-5.26-.44-8.54-3.5-9.19-8.53a10.63,10.63,0,0,1-.22-2.63v-14C44,450.49,44.24,449.84,44.24,449.18Z" transform="translate(-12.22 -22.1)"/><path d="M332.38,449.18v16.19a16.66,16.66,0,0,1-.43,3.28c-.88,4.16-3.5,6.79-7.66,7.44a18.72,18.72,0,0,1-7,0c-4.6-.65-7.22-3.72-7.88-8.53a10.63,10.63,0,0,1-.22-2.63V449.18H316v14.88a11,11,0,0,0,.21,2.62c.44,2.41,2,3.5,4.38,3.5,2.63,0,3.94-1.09,4.38-3.5a11,11,0,0,0,.21-2.62V449.18Z" transform="translate(-12.22 -22.1)"/><path d="M75.52,435H68.08c-.43-1.53-1.09-2.84-1.53-4.38H56.71c-.44,1.32-1.1,2.85-1.53,4.38h-7c0-1.75,6.57-19,9.63-26.26h7.66C68.74,417.24,72,426,75.52,435Zm-10.94-9.85c-1.09-2.84-2-5.47-2.84-7.87a38.73,38.73,0,0,0-3.06,7.87Z" transform="translate(-12.22 -22.1)"/><path d="M261.72,435c-.66,0-1.1.22-1.54.22H254.5c-.66-1.53-1.1-3.06-1.76-4.6h-9.62c-.44,1.32-1.1,2.85-1.75,4.38h-7.22c.87-3.06,2.19-5.91,3.28-9,1.09-2.85,2.19-5.69,3.28-8.53s2.19-5.91,3.28-8.76h7.66C255.15,417.24,258.43,426,261.72,435Zm-13.79-18.38a77.43,77.43,0,0,0-2.84,8.53,26,26,0,0,0,5.9-.22C249.9,422.27,249,419.64,247.93,416.58Z" transform="translate(-12.22 -22.1)"/><path d="M54.74,489.66H62.4c3.28,8.75,6.56,17.5,10.06,26.25H65c-.44-1.53-1.09-2.84-1.53-4.37H53.64c-.43,1.53-1.09,2.84-1.53,4.37H44.67C48.17,506.94,51.46,498.41,54.74,489.66Zm3.94,7.87c-1.1,3.07-2,5.69-3.07,8.54h5.91C60.65,503.22,59.77,500.6,58.68,497.53Z" transform="translate(-12.22 -22.1)"/><path d="M297.38,489.66H305c3.28,8.75,6.56,17.28,10.06,26.25h-7.44c-.44-1.31-.87-2.62-1.53-4.15h-9.85c-.43,1.31-1.09,2.84-1.53,4.15h-7.44C290.81,506.94,294.1,498.19,297.38,489.66Zm4.16,8.53h-.44l-2.63,7.88h5.91C303.29,503.22,302.41,500.6,301.54,498.19Z" transform="translate(-12.22 -22.1)"/><path d="M45.77,287.93c4.59-3.28,9.41-4.16,14.66-2.41a29,29,0,0,1,3.72,1.76,62.18,62.18,0,0,1,12.25,10.5c-2.41-1.32-5-2.41-7.44-.22,1.75,3.28,5.47,5.91,9.19,4.81a13.67,13.67,0,0,1-10.28,3.72,17.88,17.88,0,0,1-8.54-3.28C53.43,299.09,49.49,293.84,45.77,287.93Z" transform="translate(-12.22 -22.1)"/><path d="M431.93,237a17.27,17.27,0,0,1,12,18.38,39.52,39.52,0,0,1-3.28,12,4.83,4.83,0,0,1-1.1,1.75c.66-3.29.44-6.13-2.84-8.32-1.75,3.5-3.06,6.78-1.1,10.94-.65-.66-1.09-.87-1.53-1.31a20.69,20.69,0,0,1-6.34-15.1C427.78,249,429.53,242.86,431.93,237Z" transform="translate(-12.22 -22.1)"/><path d="M457.31,287.93a50.19,50.19,0,0,1-12.69,14.44,19.14,19.14,0,0,1-9,3.72,12.33,12.33,0,0,1-9.84-3.28,6,6,0,0,0,4.81-1.31c1.31-1.1,2.63-2.19,3.94-3.5-2.19-2.63-4.59-1.54-7-.66a.81.81,0,0,1,.22-.66c3.94-4.15,7.87-7.87,13.13-10.5,4.81-2.41,9.62-2.19,14.44.22a4.7,4.7,0,0,1,1.31.88C456.88,287.49,457.1,287.71,457.31,287.93Z" transform="translate(-12.22 -22.1)"/><path d="M68.08,271.3c.88-4.37.66-6.78-1.53-10.28-2.84,1.31-3.72,3.5-2.62,8.75a18.76,18.76,0,0,1-1.1-2,36.81,36.81,0,0,1-3.72-15.31A16.92,16.92,0,0,1,70.93,237a11.06,11.06,0,0,1,.66,1.53,52.73,52.73,0,0,1,3.71,16.63,20.69,20.69,0,0,1-6.78,16.19C68.52,271.08,68.3,271.3,68.08,271.3Z" transform="translate(-12.22 -22.1)"/><path d="M212.49,507.16v8.53H205.7V489.44c.66,0,1.1-.22,1.75-.22h9.19a10.63,10.63,0,0,1,2.63.22c3.28.65,5.47,2.41,6.13,5.91a14.48,14.48,0,0,1,0,5.25c-.66,3.5-2.85,5.47-6.35,6.12a25,25,0,0,1-4.16.22A7.39,7.39,0,0,1,212.49,507.16Zm0-5.69c2.19,0,4.15.44,5.69-1.53A3.68,3.68,0,0,0,218,496c-1.53-1.53-3.28-1.31-5.25-1.09,0,.65-.22,1.31-.22,1.75Z" transform="translate(-12.22 -22.1)"/><path d="M75.09,121.87v.44C72.68,128,69.62,133.46,65,137.84c-4.37,4.16-9.84,5.25-16,3.94a8.84,8.84,0,0,0,6.78-7.88c-3.28-1.09-5.47.44-7.22,3.07,1.75-5.47,4.16-10.51,8.54-14.23A14.79,14.79,0,0,1,75.09,121.87Z" transform="translate(-12.22 -22.1)"/><path d="M427.78,122.09c6.78-4.38,14.22-3.5,19.47,2a35.37,35.37,0,0,1,7.44,13.12,43.68,43.68,0,0,0-3.28-3.06c-1.32-.87-2.63-.66-4.38,0,1.31,3.5,2.41,7,6.57,7.88-5.91,1.31-11.16.22-15.54-3.94C433.25,133.46,430.4,127.78,427.78,122.09Z" transform="translate(-12.22 -22.1)"/><path d="M450.75,73.52c.22.43.22.65.44.87,3.72,5.47,6.56,11.16,7.66,17.5,1.09,6.13-.22,11.82-5.25,16a4.82,4.82,0,0,1-1.1.65c2-3.5.44-6.56-1.09-9.84-2.85,1.53-2.85,4.15-2.85,6.78a48.91,48.91,0,0,1-4.15-12,24.69,24.69,0,0,1-.44-9,17.25,17.25,0,0,1,5-9.41A5.72,5.72,0,0,1,450.75,73.52Z" transform="translate(-12.22 -22.1)"/><path d="M437.62,513.72c.88-1.75,2-3.5,2.85-5.25a20.07,20.07,0,0,1,2.19,1.32,7.5,7.5,0,0,0,4.81,1.09,2.61,2.61,0,0,0,2.41-2c.21-1.31-.22-2-1.54-2.62a27.51,27.51,0,0,0-3.93-1.32c-4.38-1.53-5.91-3.94-5.69-7.66.22-4.37,2.62-7.22,6.78-8.09a15.57,15.57,0,0,1,10.72,2l-2.62,5.25a7.91,7.91,0,0,0-2-.88,5.43,5.43,0,0,0-3.72-.43,2.1,2.1,0,0,0-1.75,2c-.22,1.09.65,1.53,1.31,2a10.93,10.93,0,0,0,2.41.87c.87.44,2,.66,2.84,1.09a7.11,7.11,0,0,1,4.59,7c0,3.5-1.31,6.34-4.59,7.87a14,14,0,0,1-9.85.66A20.36,20.36,0,0,1,437.62,513.72Z" transform="translate(-12.22 -22.1)"/><path d="M424.28,473.25a42.74,42.74,0,0,0,2.84-5.47c1.1.65,2,1.31,2.85,1.75a6.07,6.07,0,0,0,4.37.65,2.54,2.54,0,0,0,2.19-2.18,2.37,2.37,0,0,0-1.53-2.41c-.88-.44-1.75-.66-2.85-1.09-.43-.22-1.09-.44-1.53-.66-3.94-1.53-5.47-3.72-5.25-7.66a8.2,8.2,0,0,1,6.35-7.87c3.93-.88,7.44,0,11.15,1.75-.87,1.75-1.75,3.28-2.62,5.25-.66-.22-1.09-.66-1.75-.88a22,22,0,0,0-3.72-.65,2.07,2.07,0,0,0-2,1.75,1.93,1.93,0,0,0,1.31,2.18c.66.22,1.53.66,2.19.88a4,4,0,0,0,1.53.44c4.38,1.53,6.35,4.15,5.91,8.53a8.37,8.37,0,0,1-7,7.88C432.37,477,428.22,476.09,424.28,473.25Z" transform="translate(-12.22 -22.1)"/><path d="M95.21,450.49l-2.62,5.25a21.68,21.68,0,0,0-2-1.09,19,19,0,0,0-3.5-.44A1.72,1.72,0,0,0,85.37,456c-.22,1.1.44,1.53,1.31,2,.66.22,1.53.66,2.19.88a4,4,0,0,0,1.53.44c4.6,1.75,6.35,4.37,6.13,8.75a8,8,0,0,1-7.22,7.65A16,16,0,0,1,76.84,473c.87-1.75,2-3.5,2.84-5.47a19.18,19.18,0,0,1,2.19,1.31,6.69,6.69,0,0,0,5,1.1,2.82,2.82,0,0,0,2.41-2.19,2,2,0,0,0-1.53-2.41,33.85,33.85,0,0,0-4.16-1.53c-4.16-1.53-5.69-3.94-5.25-8.1.44-3.93,2.84-6.78,6.78-7.43C88.21,447.87,91.71,448.74,95.21,450.49Z" transform="translate(-12.22 -22.1)"/><path d="M452.28,473.25c.88-1.75,2-3.5,2.85-5.47l2,1.31a7.61,7.61,0,0,0,4.81,1.31,2.4,2.4,0,0,0,2.41-2.18c.21-1.32-.22-2-1.75-2.63a29.59,29.59,0,0,0-3.94-1.53c-4.16-1.31-5.47-3.72-5.47-7.66a8.24,8.24,0,0,1,6.78-8.09,14.66,14.66,0,0,1,10.5,2.18c-.87,1.75-1.75,3.29-2.62,5a9.09,9.09,0,0,0-2-1.1,24.4,24.4,0,0,0-3.72-.44c-.88,0-1.53.66-1.75,1.75a1.6,1.6,0,0,0,1.31,2,9.13,9.13,0,0,0,2.19.88,21.35,21.35,0,0,1,3.28,1.31,7.42,7.42,0,0,1,4.59,6.78c0,3.5-1.09,6.35-4.15,8.1-2.85,1.53-5.69,1.53-8.75,1.09A9.65,9.65,0,0,1,452.28,473.25Z" transform="translate(-12.22 -22.1)"/><path d="M150.13,410c-.87,1.53-1.75,3.28-2.62,5-.66-.22-1.1-.66-1.75-.88a23.21,23.21,0,0,0-3.72-.65,2.11,2.11,0,0,0-2,2,2.22,2.22,0,0,0,1.31,2,7.38,7.38,0,0,1,2,.87,14.93,14.93,0,0,1,1.75.66c4.59,1.75,6.13,4.15,5.91,8.75a8.34,8.34,0,0,1-7,7.66,15.89,15.89,0,0,1-12.48-2.63c.88-1.75,2-3.5,2.85-5.47a13.64,13.64,0,0,0,2.41,1.53,6.57,6.57,0,0,0,5,.88,2.33,2.33,0,0,0,2-2c.22-1.09-.22-2-1.53-2.63a33.85,33.85,0,0,0-4.16-1.53c-3.94-1.31-5.69-3.94-5.47-7.66a7.84,7.84,0,0,1,7-7.87A16,16,0,0,1,150.13,410Z" transform="translate(-12.22 -22.1)"/><path d="M21.7,432.77c.88-1.75,2-3.5,2.85-5.47a13.94,13.94,0,0,0,2.4,1.53,6.58,6.58,0,0,0,5,.88,2.32,2.32,0,0,0,2-2c.22-1.09-.22-2-1.53-2.63a32.69,32.69,0,0,0-4.16-1.53c-4.15-1.31-5.68-3.94-5.47-7.66A8,8,0,0,1,30,408.05a15.77,15.77,0,0,1,10.28,2.19c-.88,1.75-1.75,3.28-2.63,5a10,10,0,0,0-2.19-1.1,11.09,11.09,0,0,0-3.71-.21,1.69,1.69,0,0,0-1.54,1.75,2.28,2.28,0,0,0,1.1,2,9,9,0,0,0,2.19.88c1.09.44,2.4.88,3.5,1.31,2.84,1.32,4.37,3.28,4.37,6.57a8.11,8.11,0,0,1-4.15,8.09,12.87,12.87,0,0,1-9,1.1A14.78,14.78,0,0,1,21.7,432.77Z" transform="translate(-12.22 -22.1)"/><path d="M280.09,473.25c1.1-2,2-3.5,2.85-5.47l2,1.31a6.64,6.64,0,0,0,5,1.09,2.39,2.39,0,0,0,2.41-2.18,2,2,0,0,0-1.54-2.41,31.63,31.63,0,0,0-4.15-1.53c-3.94-1.31-5.47-3.72-5.25-7.66.22-4.37,2.84-7.22,6.78-7.88,3.72-.65,7,.22,10.5,2l-2.62,5.25c-.88-.43-1.32-.87-2-1.09a19.15,19.15,0,0,0-3.5-.44,2.33,2.33,0,0,0-2,1.75c-.22,1.1.43,1.53,1.31,2,.66.22,1.09.44,1.75.66s1.53.44,2.19.66c4.59,1.75,6.12,4.15,5.91,8.75-.22,3.72-2.85,6.56-6.79,7.44A13.67,13.67,0,0,1,280.09,473.25Z" transform="translate(-12.22 -22.1)"/><path d="M52.55,73.52c4.16,3.28,6.56,7.43,6.56,12.69a47.87,47.87,0,0,1-.87,7.87,44.07,44.07,0,0,1-3.94,11.38c.22-2.84.22-5.25-2.62-7.22-1.75,3.28-2.85,6.34-1.1,10.28A15.18,15.18,0,0,1,44,98.9a19.51,19.51,0,0,1,.44-9.41A55.84,55.84,0,0,1,51.68,74,1.16,1.16,0,0,0,52.55,73.52Z" transform="translate(-12.22 -22.1)"/><path d="M107.9,408.7c.22,0,.44-.21.88-.21h14v5.9h-7.87v4.38h7.44v5.91h-7.44v4.37h7.87v5.69H108.12C107.47,433.43,107.47,411.33,107.9,408.7Z" transform="translate(-12.22 -22.1)"/><path d="M333.26,408.7h14.66v5.69H340v4.38h7.44v5.91H340v4.37h7.88v5.69H333.26C333,433.43,332.82,411.77,333.26,408.7Z" transform="translate(-12.22 -22.1)"/><path d="M223.43,459.25v5.9H216v4.6h7.87v5.47c-1.31.43-11.81.65-14.87.22V449.18h14.87v5.69H216v4.38Z" transform="translate(-12.22 -22.1)"/><path d="M407.43,465.15v4.6h7.88v5.47c-1.53.43-12.26.65-14.88.22v-26c1.31-.44,11.81-.44,14.88-.22v5.47h-8.1V459h7.44v5.9C412.46,465.15,410.06,465.15,407.43,465.15Z" transform="translate(-12.22 -22.1)"/><path d="M34.61,449.62v8.31c-2.19-2.19-4.59-3.06-7.44-2.4A6.55,6.55,0,0,0,23,458.15a7.59,7.59,0,0,0,.44,9.63c2.85,2.84,6.35,2.84,10.94-.22,0,.44.22.87.22,1.31v3.28c0,3.29,0,3.5-3.28,4.16-5.69,1.09-10.72-.44-14.44-5.25A13.52,13.52,0,0,1,16,455.53c3.07-5,7.66-7.22,13.57-6.79A24.24,24.24,0,0,1,34.61,449.62Z" transform="translate(-12.22 -22.1)"/><path d="M390.8,467.12v7.22c0,.44-.65.88-1.09,1.1-8.53,3.06-16.85-1.54-18.82-9.63a13.28,13.28,0,0,1,4.6-14c4.37-3.72,9.62-4.16,14.87-2.19.22,0,.22.22.44.44v7.65c-2.4-2-4.81-3.06-7.66-2.4a6.31,6.31,0,0,0-3.93,2.62,7.92,7.92,0,0,0,.65,9.63C382.49,470.4,386.21,470.4,390.8,467.12Z" transform="translate(-12.22 -22.1)"/><path d="M362.14,449.84v7.65a8,8,0,0,0-1.75-1.09,7.28,7.28,0,0,0-9.41.88,7.62,7.62,0,0,0-.22,9.84,7.31,7.31,0,0,0,9.41,1.31c.44-.43,1.1-.65,1.53-1.09a20.9,20.9,0,0,1,.22,7.66,14.05,14.05,0,1,1,.22-25.16Z" transform="translate(-12.22 -22.1)"/><path d="M249.46,489.66v5.47h-7.87v4.37H249a27.8,27.8,0,0,1,0,5.91h-7.66v4.38h7.87v5.68H234.59c-.44-1.53-.44-23.84,0-26.25C239.62,489.66,244.43,489.66,249.46,489.66Z" transform="translate(-12.22 -22.1)"/><path d="M80.56,293.4c-3.72-5.25-7-10.5-7-17.28.22-5.91,3.07-10.07,8.1-13.35.88,1.53,1.75,2.84,2.41,4.16a36.76,36.76,0,0,1,5,13.34,18,18,0,0,1-4.16,14.66c.88-3.72-.87-6.56-3.06-9.19C79.68,287.71,79.46,289.24,80.56,293.4Z" transform="translate(-12.22 -22.1)"/><path d="M422.53,293.18c1.09-2.62,1.31-5.25-1.1-7.22-2.62,2-3.72,5.25-3.5,9.19a17.43,17.43,0,0,1-4.15-9.41,22,22,0,0,1,.87-9.19c1.31-4.81,3.72-9,6.35-13.12l.65-.66c4.6,3.06,7.44,7,7.88,12.69a17.16,17.16,0,0,1-1.31,8.1,35.82,35.82,0,0,1-4.82,9,1.64,1.64,0,0,0-.44.87A.77.77,0,0,1,422.53,293.18Z" transform="translate(-12.22 -22.1)"/><path d="M67.21,313.31c3.72-3.94,8.31-5.47,13.56-4.16A43,43,0,0,1,88.21,312a30.79,30.79,0,0,1,7.88,5.25c-2.41-.66-4.59-1.09-6.56,1.09,2,2.85,5.25,3.94,9,3.29a12,12,0,0,1-8.75,4.59,14.14,14.14,0,0,1-7.22-1.31C76.62,322.5,72,318.56,67.87,314Q67.54,314,67.21,313.31Z" transform="translate(-12.22 -22.1)"/><path d="M413.78,318.78c-2.19-2.19-2.63-2.19-7-1.31,1.54-1.1,2.41-1.75,3.5-2.63,3.72-2.4,7.44-4.81,12-5.69a13.86,13.86,0,0,1,13.56,4.38,3,3,0,0,1-.65.88,44.76,44.76,0,0,1-13.57,10.28,18.68,18.68,0,0,1-7.66,1.75,12.16,12.16,0,0,1-9.19-4.6C408.74,322.94,411.15,320.75,413.78,318.78Z" transform="translate(-12.22 -22.1)"/><path d="M59.33,113.12c4.16-.22,5.69-2.85,7.22-5.69-2.62-1.53-3.93-1.31-7.22,1.53.44-.87.88-1.53,1.1-2a39.06,39.06,0,0,1,5.9-7.22c5.91-5.25,13.13-5.25,19.26,0a4.43,4.43,0,0,1-.88,1.31,41.32,41.32,0,0,1-9.19,10.29c-4.37,3.5-9.4,4.15-14.66,2.4C60.43,113.77,60.21,113.55,59.33,113.12Z" transform="translate(-12.22 -22.1)"/><path d="M443.09,108.3c-2-1.75-3.93-2.4-6.12-1.09a7.68,7.68,0,0,0,6.34,5.91c-1.53,1.09-4.81,1.75-7.44,1.53a13.84,13.84,0,0,1-6.56-2.19c-5-3.28-8.53-7.66-11.82-12.69,4.16-4.37,10.94-5.47,15.54-2.62a20.82,20.82,0,0,1,5.47,4.37c1.75,2,3.28,4.16,4.81,6.13C443.31,107.87,443.09,108.09,443.09,108.3Z" transform="translate(-12.22 -22.1)"/><path d="M69.4,80.74c.44-2.19.44-4.16-1.32-5.91C65.9,76.36,64.8,79.2,65,83.14a13,13,0,0,1-3.94-11.59,24.86,24.86,0,0,1,2.19-6.79A43.47,43.47,0,0,1,72,52.51c.66.88,1.32,1.53,1.75,2.19a15.49,15.49,0,0,1,2.19,12A34.52,34.52,0,0,1,69.4,80.74Z" transform="translate(-12.22 -22.1)"/><path d="M435.22,74.83c-1.75,1.75-1.75,2-1.53,5.91l-1.1-1.1A44.27,44.27,0,0,1,426.9,67a15.18,15.18,0,0,1,2.19-11.81c.44-.66,1.09-1.32,1.53-2h.44c4.81,4.81,9,10.28,10.5,17.28a13.39,13.39,0,0,1-2.84,12l-.44.43a.77.77,0,0,1-.44.22C438.72,79.86,437.19,77.24,435.22,74.83Z" transform="translate(-12.22 -22.1)"/><path d="M99.81,312.44h-.22a36.51,36.51,0,0,1-6.78-8.54c-3.5-6.34-2.85-12.91,2-18.16a4.71,4.71,0,0,1,1.09-.87c4.16,4.37,7.66,9,9.85,14.66a15.41,15.41,0,0,1-1.1,13.56,30.25,30.25,0,0,0-1.53-4.15,22,22,0,0,0-2.84-3.51,3.9,3.9,0,0,0-1.1,4.6A5.7,5.7,0,0,0,99.81,312.44Z" transform="translate(-12.22 -22.1)"/><path d="M404.8,311.78c-.43.44-.87.66-1.31,1.09-.65-.87.22-1.31.44-2a4.66,4.66,0,0,0-.66-5.47,9.2,9.2,0,0,0-4.59,7.88,11.91,11.91,0,0,1-.88-1.53,16.54,16.54,0,0,1-.22-12.91A45.32,45.32,0,0,1,407,285.09a.77.77,0,0,1,.44-.22,14.57,14.57,0,0,1,3.94,16.63,34,34,0,0,1-5.47,8.31A8.86,8.86,0,0,1,404.8,311.78Z" transform="translate(-12.22 -22.1)"/><path d="M368.49,414.39V435c-2.41.22-4.6.22-7,.22-.21-2.41-.21-4.6-.21-7V414.39H355.8V408.7h17.94v5.69Z" transform="translate(-12.22 -22.1)"/><path d="M116,454.87v20.57a39,39,0,0,1-7,0c-.22-2.41,0-4.6,0-6.79v-14h-5.47v-5.91c5.91-.22,12,0,18.16,0v5.91A47.34,47.34,0,0,1,116,454.87Z" transform="translate(-12.22 -22.1)"/><path d="M332.17,515.91h-7V495.35h-5.68v-5.47c1.53-.44,15.75-.66,18.16,0v5.47h-5.47c-.22,2.4,0,4.81,0,7v13.56Z" transform="translate(-12.22 -22.1)"/><path d="M166.32,383.32c-2.84-7.43-5.91-14.65-9-22.31.88,0,1.31-.22,2-.22h1.75c1.75,4.59,3.5,9.19,5.69,14.22,2-5.25,3.94-10.06,5.91-15.31,2,5.25,3.72,10.06,5.69,15.31,2.18-5,3.93-9.63,5.9-14.22h3.5c-3.28,7.66-6.34,15.1-9.4,22.53h-.44c-1.75-4.81-3.5-9.4-5.47-14.65-2,5.25-3.72,9.84-5.69,14.65Z" transform="translate(-12.22 -22.1)"/><path d="M363.89,361c.44,0,.88-.22,1.31-.22,2.19,0,2.19,0,2.85,2,1.31,3.5,2.84,7,4.15,10.72a10.55,10.55,0,0,1,.66,1.53c2-5,3.72-9.85,5.47-14.66h.44c1.75,4.81,3.5,9.41,5.47,14.66.44-1.09.87-1.75,1.09-2.41,1.32-3.28,2.63-6.34,3.94-9.62,1.09-2.63,1.09-2.63,4.38-2-3.07,7.44-6.35,14.88-9.63,22.75-2-5.25-3.72-10.06-5.47-15.09-2,5.25-3.72,9.84-5.69,14.65C372.2,382.23,365.2,365.16,363.89,361Z" transform="translate(-12.22 -22.1)"/><path d="M83.84,435.18V408.7h6.78v20.35h8.1V435C93.9,435.18,88.87,435,83.84,435.18Z" transform="translate(-12.22 -22.1)"/><path d="M74,85.11c3.07-3.72,6.57-7,11.6-8.53,4.59-1.31,9.62.66,12.69,4.81A36.1,36.1,0,0,1,85.81,91,12.56,12.56,0,0,1,74,90.14c-.22,0-.22-.21-.65-.65,3.28.22,5-1.75,6.78-3.94C77.71,83.8,77.27,83.8,74,85.11Z" transform="translate(-12.22 -22.1)"/><path d="M405,81.39a12,12,0,0,1,12.47-4.81c3.94.87,9.19,4.81,11.38,8.31-3.5-1.09-3.5-1.09-5.69.66,1.75,2.19,3.5,4.16,6.79,4.16a12.06,12.06,0,0,1-6.57,2.4,13.41,13.41,0,0,1-7.22-1.53A45.65,45.65,0,0,1,405,81.39Z" transform="translate(-12.22 -22.1)"/><path d="M91.93,38.07a12.47,12.47,0,0,1,2.41,9.85,18,18,0,0,1-2.19,5.69c-1.53,2.4-3.28,4.81-5,7.22A4.46,4.46,0,0,0,86,61.92c.65-2,1.09-3.72-.44-5.25-2,1.75-3.5,3.72-3.28,7a11.53,11.53,0,0,1-2.19-9.41A18.63,18.63,0,0,1,84.28,46,29.07,29.07,0,0,1,91.93,38.07Z" transform="translate(-12.22 -22.1)"/><path d="M421.21,63.23a9.36,9.36,0,0,0-3.5-6.78c-1.53,1.53-1.53,1.53-.65,5.47C413.56,58,410.27,54,409,49a12.81,12.81,0,0,1,2-11.16,29.44,29.44,0,0,1,6.13,5.47,24,24,0,0,1,5.25,7.88,11.6,11.6,0,0,1-.44,10.72C421.87,62.36,421.65,62.58,421.21,63.23Z" transform="translate(-12.22 -22.1)"/><path d="M296.94,371.51c-.44-5.25,4.6-11.16,11.16-11.16a11.3,11.3,0,0,1,11.38,11.38,11.13,11.13,0,0,1-11.38,11.16C302,382.89,296.5,377.85,296.94,371.51Zm19,0a7.9,7.9,0,0,0-7.88-8.1,7.77,7.77,0,0,0-7.88,8.1,8,8,0,0,0,8.1,8.1C312.69,379.61,316,376.32,316,371.51Z" transform="translate(-12.22 -22.1)"/><path d="M429.53,359.48l15.31,16c.22,0,.22,0,.44-.22V361h2.85c.43,1.53.65,20.13,0,22.53-5-5.25-10.07-10.5-14.88-15.53h-.44v14.44h-3.28Z" transform="translate(-12.22 -22.1)"/><path d="M420.78,361h3.06c.44,1.53.66,19.69,0,22.53l-15.1-15.75c-.22,0-.22,0-.43.22v14.44h-3.07V359.7l15.1,15.75c.66-1.75.22-3.28.22-4.82v-4.81A33.63,33.63,0,0,0,420.78,361Z" transform="translate(-12.22 -22.1)"/><path d="M40.08,365a19.5,19.5,0,0,0-2,2.18l-1.53-1.53A7.62,7.62,0,0,0,27,365a8.13,8.13,0,0,0-2.84,9.84,7.83,7.83,0,0,0,8.31,5,6,6,0,0,0,5-5.25h-5v-3.06H41c1.32,6.34-3.93,12.25-10.93,11.6a11.31,11.31,0,0,1-9.85-12.48c.44-5.68,5.69-10.06,11.6-10.06C35.05,360.57,37.67,361.88,40.08,365Z" transform="translate(-12.22 -22.1)"/><path d="M293.66,371.29a9.67,9.67,0,0,1-5,10.28,11.07,11.07,0,0,1-11.82-1.09,11.37,11.37,0,0,1,9.85-19.91,11.49,11.49,0,0,1,6.12,4.16l-2.18,2.19a7.47,7.47,0,0,1-1.32-1.32,7.9,7.9,0,0,0-9.62-.87,8.3,8.3,0,0,0-3.29,9.62,8,8,0,0,0,8.32,5.26,6.25,6.25,0,0,0,5.47-5.26h-5v-3.06Z" transform="translate(-12.22 -22.1)"/><path d="M55.83,371.51a11.38,11.38,0,0,1,22.76.22A11.45,11.45,0,0,1,67,382.89,11.26,11.26,0,0,1,55.83,371.51Zm11.38,8.1a7.77,7.77,0,0,0,8.09-7.88,8.08,8.08,0,0,0-7.87-8.32,7.9,7.9,0,0,0-8.1,7.88C59.33,376.1,62.62,379.61,67.21,379.61Z" transform="translate(-12.22 -22.1)"/><path d="M487.51,22.1c5.91.22,10.5,3.28,12,8.1a12.32,12.32,0,0,1-3.72,13.34,12.87,12.87,0,0,1-14.88,1.1A12.28,12.28,0,0,1,475,32.38a12.08,12.08,0,0,1,9.84-9.84A21.06,21.06,0,0,0,487.51,22.1Zm9.62,12.25c0-5.47-4.15-9.84-9.4-9.62a9.44,9.44,0,0,0-9.41,9.84,9.41,9.41,0,1,0,18.81-.22Z" transform="translate(-12.22 -22.1)"/><path d="M227.36,360.57c3.07.22,5.91,0,8.54.66,5,.87,8.31,5.47,8.09,10.94-.22,5.25-3.72,9.4-8.75,10.06-2.62.22-5,0-7.88,0Zm3.29,3.5v15.1c3.5.22,6.78,0,8.75-3.28a7.6,7.6,0,0,0,0-8.54C237.43,364.07,234.15,363.85,230.65,364.07Z" transform="translate(-12.22 -22.1)"/><path d="M382.49,408.7h6.34c.44,1.54.66,23.2.22,26.26h-6.56Z" transform="translate(-12.22 -22.1)"/><path d="M391.46,66.3c2.62-3.94,5.91-6.13,10.5-5.47,4.38.43,7.88,3.06,11.16,5.9-1.75-.43-3.5-.65-5,1.1,1.75,1.75,3.72,3.28,6.78,2.62-3.5,2.85-7,3.94-11.16,2.85C399.12,72,395.18,69.36,391.46,66.3Z" transform="translate(-12.22 -22.1)"/><path d="M90.62,66.3c3.28-2.85,7-5.26,11.6-5.47,4.15-.22,7.22,2,9.62,5.47-.43.43-.65.87-1.09,1.09a38.24,38.24,0,0,1-10.5,5.91,11.43,11.43,0,0,1-11.38-2.41,21.31,21.31,0,0,0,3.5-.87,13.42,13.42,0,0,0,2.84-2C93.68,66.3,93.46,66.08,90.62,66.3Z" transform="translate(-12.22 -22.1)"/><path d="M346.39,515.69V489.44H353v26.25Z" transform="translate(-12.22 -22.1)"/><path d="M336.76,382.45V361c3.28,0,6.78-.44,9.85.65a10.26,10.26,0,0,1,6.78,10.94c-.44,5.91-4.16,9.41-10.07,9.85a41.8,41.8,0,0,1-5.25,0Zm3.06-3.28c4.6.44,7.66-.66,9.19-3.72a7.61,7.61,0,0,0-.65-8.53,8.06,8.06,0,0,0-8.54-2.63Z" transform="translate(-12.22 -22.1)"/><path d="M210.08,361a27.83,27.83,0,0,1,7.44.22,5.79,5.79,0,0,1,4.59,4.81c.22,2.84-.43,5-3.06,6.56a10.55,10.55,0,0,1-1.53.66c2.19,2.84,4.16,5.69,6.13,8.53-2.63,1.1-3.51.66-5-1.31-1.31-2-2.62-3.94-4.15-5.91a7.26,7.26,0,0,0-1.32-1.53v9h-3.06C209.86,380.92,209.64,364.51,210.08,361Zm3.28,3.06v6.56c2,0,3.94.22,5-1.75a3,3,0,0,0-.21-3.5C217.08,363.85,215.33,363.85,213.36,364.07Z" transform="translate(-12.22 -22.1)"/><path d="M477.66,373.48c2.19,2.84,4.16,5.69,6.13,8.53-2.63.88-3.5.66-5-1.31-1.54-2.41-3.29-4.6-5-7.22-.65,1.53-.21,3.06-.43,4.37v4.38h-3.07c-.43-1.53-.43-18.16-.22-21.44a21.05,21.05,0,0,1,8.32.66,5.19,5.19,0,0,1,3.5,4.81c.22,2.62-.44,4.59-2.63,6.13A9.36,9.36,0,0,1,477.66,373.48Zm-4.15-9.41v6.56c2,.22,3.71.22,4.81-1.31a3.31,3.31,0,0,0,.22-3.72C477.22,363.85,475.47,363.85,473.51,364.07Z" transform="translate(-12.22 -22.1)"/><path d="M83,382.67V361a17.46,17.46,0,0,1,6.79.44,5.82,5.82,0,0,1,3.5,7.65,7.46,7.46,0,0,1-1.1,1.75C93.68,372,95,373,95.43,375a6,6,0,0,1-4.59,7.22C88.43,382.45,85.81,382.45,83,382.67Zm3.28-3.28a22.33,22.33,0,0,0,3.94-.22,3,3,0,0,0,2.41-2.63,3.11,3.11,0,0,0-1.75-3.06,5.61,5.61,0,0,0-4.6-.22Zm0-15.32a55.48,55.48,0,0,0,0,5.91c3.07.22,4.38-.88,4.38-3.06S89.31,363.85,86.24,364.07Z" transform="translate(-12.22 -22.1)"/><path d="M197,359.91c3.28,7.44,6.57,14.66,10.07,22.32h-3.5c-.44-1.09-1.1-2.62-1.75-3.94a1.41,1.41,0,0,0-1.54-1.09h-7c-.65,0-1.09.22-1.53,1.09a11.66,11.66,0,0,1-1.09,2.41c-.88,2-.88,2-3.07,1.75a3.25,3.25,0,0,1-1.31-.22c3.5-7.66,7-14.88,10.29-22.32Zm-.22,7c-1.09,2.62-2.18,4.81-3.28,7h6.35C198.7,371.51,197.83,369.32,196.73,366.92Z" transform="translate(-12.22 -22.1)"/><path d="M158.66,382.45h-3.5a27.8,27.8,0,0,1-1.53-3.72,1.9,1.9,0,0,0-2-1.31h-6.78c-.87,0-1.53.22-1.75,1.09s-.87,1.53-1.09,2.41c-.44,1.53-1.32,2-2.85,1.75a4.25,4.25,0,0,1-1.53-.22c3.5-7.66,7-14.88,10.5-22.32C149.26,361,156.91,377.42,158.66,382.45Zm-10.28-15.53c-1.09,2.62-2.19,4.81-3.28,7h6.34C150.57,371.51,149.48,369.32,148.38,366.92Z" transform="translate(-12.22 -22.1)"/><path d="M457.1,363.85v5c2.62.44,5.47,0,8.09.22V372H457.1a39.57,39.57,0,0,0,0,7.22h8.53v3.06H453.81V360.79h11.82v3.06Z" transform="translate(-12.22 -22.1)"/><path d="M103.53,47c.22-1.53.66-2.62-.22-4.15-2.19,1.09-3.28,2.84-3.94,5.47-1.31-2.63-1.75-4.82-1.09-7a16.79,16.79,0,0,1,2.62-5.25A34.89,34.89,0,0,1,111,27.57a9.76,9.76,0,0,1,1.09,8.1,14.39,14.39,0,0,1-2,4.15A23.18,23.18,0,0,1,103.53,47Z" transform="translate(-12.22 -22.1)"/><path d="M392.11,28a1.66,1.66,0,0,0,.88.22,27.51,27.51,0,0,1,9,7.65c2.19,2.85,3.72,5.91,2.84,9.85a10.31,10.31,0,0,1-.87,2.41,7.16,7.16,0,0,0-3.94-5c-1.31,1.54-.44,2.85.22,4.38-3.72-2-8.75-8.31-9.19-12A10.64,10.64,0,0,1,392.11,28Z" transform="translate(-12.22 -22.1)"/><path d="M128,361v2.84H119.5v5.25h8.31v3.07H119.5v7c2.85.44,5.47,0,8.53.22v2.84H116.44V361A66.87,66.87,0,0,1,128,361Z" transform="translate(-12.22 -22.1)"/><path d="M100,360.79h11.59v3.06h-8.53v5h8.1V372h-8.1v7.22h8.53v3.06H100.25C99.59,380.7,99.59,364.51,100,360.79Z" transform="translate(-12.22 -22.1)"/><path d="M368.7,33c9.41-1.31,18.38,2.63,23,11.16A7.43,7.43,0,0,0,385.77,42c.88,2.19,2.63,3.28,4.59,4.38C382.05,46.39,371.77,40,368.7,33Z" transform="translate(-12.22 -22.1)"/><path d="M134.82,33C129.35,40.92,122.35,46,112.5,46.6c2.19-1.09,3.94-2.18,4.81-4.59-2.19-.44-3.72.44-5.25,1.53.44-2.62,5-7,9.19-9A25.63,25.63,0,0,1,134.82,33Z" transform="translate(-12.22 -22.1)"/><path d="M260.4,364.07c-.87.44-1.75,1.09-2.62,1.53-.44-.44-.66-1.09-1.1-1.31a3.59,3.59,0,0,0-4.15,0,2.24,2.24,0,0,0,0,3.72,4.18,4.18,0,0,0,1.75.87c.87.44,2,.88,3.06,1.32,3.28,1.75,4.59,4.37,3.72,7.87-.66,2.85-3.5,4.82-6.56,5a6.41,6.41,0,0,1-6.79-5c0-.43-.22-.65-.22-1.31a16.83,16.83,0,0,0,3.07-.87,5.38,5.38,0,0,1,.43,1.53c.66,1.75,1.54,2.62,3.51,2.4a3.1,3.1,0,0,0,3.28-2.62,3.36,3.36,0,0,0-1.53-3.94L253.62,372a8.48,8.48,0,0,1-2.41-1.32c-2-1.31-3.06-3.06-2.62-5.47a5.6,5.6,0,0,1,4.37-4.59C255.81,359.7,258.21,360.79,260.4,364.07Z" transform="translate(-12.22 -22.1)"/><path d="M378.11,54.7A9.46,9.46,0,0,1,388.61,49a27.19,27.19,0,0,1,8.32,3.5c-1.75.22-3.28,0-3.94,1.53,1.75,1.75,3.06,2.19,5.69,1.75-.44.44-.66.88-.88,1.1a9.62,9.62,0,0,1-8.31,2.19A23.88,23.88,0,0,1,378.11,54.7Z" transform="translate(-12.22 -22.1)"/><path d="M104.84,56a8.14,8.14,0,0,0,5.69-2c-.87-1.75-2.41-1.53-3.94-1.53,3.07-2.19,6.57-3.94,10.5-3.72,3.72,0,6.57,2.41,8.1,5.91-4.16,2.41-8.31,4.81-13.13,4.81A8.89,8.89,0,0,1,104.84,56Z" transform="translate(-12.22 -22.1)"/><path d="M45.33,361h3.28v18.38H55v3.06H45.55C45.33,375.23,45.33,368.23,45.33,361Z" transform="translate(-12.22 -22.1)"/><path d="M326.92,379.39h6.34v2.84h-9.19c-.44-1.53-.66-17.28-.22-21.44h2.85C327.13,366.92,326.7,373,326.92,379.39Z" transform="translate(-12.22 -22.1)"/><path d="M396.71,361h3.06v21.44h-3.28C396.71,375.23,396.71,368.23,396.71,361Z" transform="translate(-12.22 -22.1)"/><path d="M482.48,480.47h-4.16c1.53-3.94,3.06-7.66,4.37-11.38h5.91C486.63,473,484.44,476.75,482.48,480.47Z" transform="translate(-12.22 -22.1)"/><path d="M475.26,428.4h5.9c-2.18,3.93-4.37,7.65-6.34,11.37h-4.16C472.19,436.05,473.72,432.33,475.26,428.4Z" transform="translate(-12.22 -22.1)"/><path d="M161.73,440h-4.16c1.53-3.94,3.06-7.66,4.6-11.59h5.9C165.88,432.33,163.7,436.05,161.73,440Z" transform="translate(-12.22 -22.1)"/><path d="M412.46,62.14c-1.31-1.1-2.4-2.19-3.72-3.28a9.13,9.13,0,0,1,3.72,3.28Z" transform="translate(-12.22 -22.1)"/><path d="M406.12,56.23c.44.44,1.09.88,1.53,1.31l-.22.22c-.44-.43-1.09-.87-1.53-1.31Z" transform="translate(-12.22 -22.1)"/><path d="M93.9,58.86c.66-.44,1.1-.88,1.75-1.32l.22.22c-.44.44-1.09.88-1.53,1.32A.77.77,0,0,1,93.9,58.86Z" transform="translate(-12.22 -22.1)"/><path d="M97,56.23c.21-.22.65-.44.87-.87l.44.43c-.44.22-.66.44-1.1.66A.21.21,0,0,0,97,56.23Z" transform="translate(-12.22 -22.1)"/><path d="M347,157.31c.44,52.29-42.66,95.61-95.39,95.61-51.85,0-95.61-42.22-95.61-95.61A95.62,95.62,0,0,1,251.87,61.7C304.82,61.7,347.48,105.46,347,157.31Zm-95.39-93c-51,.22-93,40.91-93,92.76a93,93,0,0,0,92.55,93.21c51.2.22,93.21-41.57,93.21-92.77A92.91,92.91,0,0,0,251.65,64.33Z" transform="translate(-12.22 -22.1)"/><path d="M314.66,234.77c3.07,3.5,3.28,6.56.44,10.93,2.19-.43,4.16-1.09,6.13-.43a10.49,10.49,0,0,1,4.81,3.28c-3.06,3.28-7.88,3.72-10.72.87a11.94,11.94,0,0,1-3.94-6.78C310.72,239.58,312,237,314.66,234.77Z" transform="translate(-12.22 -22.1)"/><path d="M340.7,235.42c-1.53,1.1-2.85,2-4.16,2.85a6.74,6.74,0,0,1-6.12,0,11.58,11.58,0,0,1-5.69-6.35c-1.32-3.28,0-5.91,1.75-8.31,3.5,2.18,4.15,4.81,2.62,10.5C333.26,231.7,337,232.14,340.7,235.42Z" transform="translate(-12.22 -22.1)"/><path d="M153.63,137c-1.31,6.56-6.78,7.87-11.81,6.78-5-1.31-7.22-5.69-5.69-10.5,4.37.65,6.34,2.84,7.44,8.31C146.63,136.75,148.82,135.87,153.63,137Z" transform="translate(-12.22 -22.1)"/><path d="M351.42,153.81c4.81-.22,6.13.66,9,5.91,2.19-5,4.59-6.78,8.75-6.78a7.39,7.39,0,0,1-5.69,9,11,11,0,0,1-7-.44C353.17,160.6,351.42,157.75,351.42,153.81Z" transform="translate(-12.22 -22.1)"/><path d="M357.11,210.7a21.2,21.2,0,0,1-1.53,2.19c-2.63,3.28-5.91,4.15-9.85,2.4a8.91,8.91,0,0,1-2.41-1.53c-3.93-3.06-4.81-6.56-2.62-11.16,4.16,1.32,5.69,4.38,5,9.85,1.75-1.53,3.28-2.85,5.47-3.06A9.71,9.71,0,0,1,357.11,210.7Z" transform="translate(-12.22 -22.1)"/><path d="M146,210.7c4.6-2.41,8.1-1.53,11.6,2-.66-5.69.44-8.1,4.81-10.07A7.88,7.88,0,0,1,162,212a11.58,11.58,0,0,1-5.25,3.72,7.51,7.51,0,0,1-8.32-2A30.67,30.67,0,0,1,146,210.7Z" transform="translate(-12.22 -22.1)"/><path d="M138.54,192.32c4.81-1.53,8.31-.22,11.15,4.16-.21-2.63,0-4.6,1.32-6.13a9.31,9.31,0,0,1,5-3.06,7.58,7.58,0,0,1-2.19,9.19,12.28,12.28,0,0,1-5.69,2.62,6.9,6.9,0,0,1-7.87-3.5C139.63,194.29,139.19,193.41,138.54,192.32Z" transform="translate(-12.22 -22.1)"/><path d="M364.33,192.1c-1.31,5.47-5.47,7.88-10.72,6.35a12.45,12.45,0,0,1-4.38-2.41c-2.84-2.19-3.5-5.69-2.19-9.19,4.6,1.31,5.91,3.06,6.57,9C356.23,192.1,359.73,190.79,364.33,192.1Z" transform="translate(-12.22 -22.1)"/><path d="M170.92,216.82c3.5,4.6,2.62,9.63-2.41,13.13-4.38,3.06-9,2.19-12-2.4,4.15-3.29,7.44-2.63,11.37,0-.87-2.19-1.31-3.94-.87-5.91A9.67,9.67,0,0,1,170.92,216.82Z" transform="translate(-12.22 -22.1)"/><path d="M332,216.61c3.94,2.84,4.59,5,3.28,10.5,4.81-3.07,7.88-2.41,11.16.22-3.07,4.81-7.88,5.25-11.38,2.84-2.19-1.53-4.16-3.5-4.81-6.13S330.42,219,332,216.61Z" transform="translate(-12.22 -22.1)"/><path d="M188.2,234.77c5,3.93,4.38,9.18.88,13.56-2.63,3.28-7,4.81-12,.66,2.19-3.5,5-4.38,10.94-3.07C184.92,242,185.36,238.48,188.2,234.77Z" transform="translate(-12.22 -22.1)"/><path d="M349.45,136.75c4.6-.88,7.88.22,10.06,4.59.44-4.81,3.07-7.44,7.44-8.53,1.75,6.34-2,10.06-6.78,10.94-5.25.87-9.19-1.31-10.5-5.91A2.88,2.88,0,0,0,349.45,136.75Z" transform="translate(-12.22 -22.1)"/><path d="M344.42,194.73c4.16,1.75,6.56,4.59,5.47,9.4,4.81-3.93,7.22-4.37,10.94-2.62-1.32,4.81-5.47,7.22-10.29,5.47a13.82,13.82,0,0,1-3.93-2.19C343.32,202.38,342.67,199.1,344.42,194.73Z" transform="translate(-12.22 -22.1)"/><path d="M336.76,209.82c4.38,2.63,5,4.82,3.94,10.51Q346,215.4,351.86,219a7.66,7.66,0,0,1-10.07,4.38,13.67,13.67,0,0,1-4.59-3.28C334.57,217,334.35,213.54,336.76,209.82Z" transform="translate(-12.22 -22.1)"/><path d="M169.6,242.2q4.93-4.92,11.16-2a8.44,8.44,0,0,1-1.53-6.35,8.55,8.55,0,0,1,2.85-4.59c2,2.4,3.5,4.59,2.84,7.87a10.76,10.76,0,0,1-4.38,6.57C177.26,246.36,173.1,245.92,169.6,242.2Z" transform="translate(-12.22 -22.1)"/><path d="M350.54,170.66c5,.87,6.79,2.62,7.88,8.09,1.31-2.84,2.85-4.81,5.47-5.47,1.53-.43,2.85-.87,4.38-.21-.22,5.47-3.72,8.53-9.19,7.87C354.26,180.29,349.45,177.22,350.54,170.66Z" transform="translate(-12.22 -22.1)"/><path d="M300.88,244.17c2.19,4.16,2.19,7.88-1.75,10.94,4.81-1.09,8.09.66,10.5,4.6a7.53,7.53,0,0,1-10.5-.66,10,10,0,0,1-2.85-6.34Q295.31,247.13,300.88,244.17Z" transform="translate(-12.22 -22.1)"/><path d="M204,255.33c-3.72-4.37-4.15-6.78-1.75-10.94,4.6,1.75,6.13,7,3.5,12.25-2.62,5-7.43,6.35-12.25,3.29C195.86,255.11,199.8,254.46,204,255.33Z" transform="translate(-12.22 -22.1)"/><path d="M162.17,220.11c-.88-5.69,0-7.66,4.15-10.29,1.53,2.41,2.41,5,1.1,7.88a10.26,10.26,0,0,1-9,6.34c-3.5.22-5.47-2.18-7.44-4.59C154.51,216.82,157.79,216.61,162.17,220.11Z" transform="translate(-12.22 -22.1)"/><path d="M162,113.12c-2.41,5.69-8.1,6.34-12.91,3.72-3.94-2-6.13-6.13-3.07-11.6,3.94,1.53,5.91,4.81,5,10.28C154.07,111.59,157.57,110.93,162,113.12Z" transform="translate(-12.22 -22.1)"/><path d="M141.82,114c4.15,2,6.34,4.82,5.69,9.85,1.75-2.19,3.06-3.72,5.47-3.94a9,9,0,0,1,5.25.87c-2,6.13-7.88,6.57-12.47,4.6C140.94,123.62,139.41,119,141.82,114Z" transform="translate(-12.22 -22.1)"/><path d="M138.54,123.4c4.37,1.53,6.78,4.38,6.78,9,1.31-2,2.62-3.72,5-4.16a8.8,8.8,0,0,1,5.25.44c-1.09,5.25-5.69,7.44-11.38,6.13C137.88,133,136.79,127.78,138.54,123.4Z" transform="translate(-12.22 -22.1)"/><path d="M307.22,251c5.47-1.1,8.54,0,10.72,3.72-3.5,2.84-9,3.28-12.25-2a11,11,0,0,1-1.75-4.38c-.87-3.5.66-6.34,3.94-8.53a9,9,0,0,1,2,5.69C310.07,247.89,308.54,249.21,307.22,251Z" transform="translate(-12.22 -22.1)"/><path d="M347.48,128.87c4.6-1.53,7.66-.44,10.07,3.28.65-1.75,1.09-3.72,2.18-5.25a8.41,8.41,0,0,1,4.82-3.28c2.19,4.38.22,9-4.16,10.94C354.26,136.75,349.23,134.56,347.48,128.87Z" transform="translate(-12.22 -22.1)"/><path d="M151.88,162.35c-.22,3.06-.65,5.9-3.5,7.65a11.73,11.73,0,0,1-8.53,1.75c-3.94-.65-6.13-3.72-6.13-8.31,4.82-.88,7.66,1.75,9.41,6.34.44-2.62,1.31-4.81,3.5-6.12A7.56,7.56,0,0,1,151.88,162.35Z" transform="translate(-12.22 -22.1)"/><path d="M134.6,172.85c4.59-.66,7.22.65,10.06,5.47.44-2,.88-3.94,2.41-5.47a9.62,9.62,0,0,1,5.69-2.41,7.15,7.15,0,0,1-2,7.22,10.62,10.62,0,0,1-10.94,2.63C136.13,179.19,135,176.35,134.6,172.85Z" transform="translate(-12.22 -22.1)"/><path d="M136.13,182.69c4.81-1.09,7.22,0,10.72,4.6,0-5,2.41-7.66,7.22-8.54.66,2.85.44,5.47-1.53,7.44a10.6,10.6,0,0,1-10.5,3.5C138.54,189,137.22,186,136.13,182.69Z" transform="translate(-12.22 -22.1)"/><path d="M360.17,151.19c1.75-5.47,3.72-7.44,8.1-7.88a7.24,7.24,0,0,1-4.6,9.41,12.44,12.44,0,0,1-7.44.22c-3.28-1.1-5-3.07-5.69-7.22C355.14,144.4,358.64,146.59,360.17,151.19Z" transform="translate(-12.22 -22.1)"/><path d="M142.69,151.19c2.63-5,4.82-6.13,9.63-5.47-.22,2.84-1.31,5.25-3.72,6.56a10.38,10.38,0,0,1-10.94-.22c-3.28-2-3.5-5.25-3.28-8.53C138.54,143.09,141.6,145.94,142.69,151.19Z" transform="translate(-12.22 -22.1)"/><path d="M142,201.51c4.37-1.75,8.09-.88,11.15,3.28-.43-2.62-.43-4.59.88-6.34a8.18,8.18,0,0,1,4.59-3.5c2.85,5.47-.87,9.84-5,11.81C149.48,208.51,144.66,208.07,142,201.51Z" transform="translate(-12.22 -22.1)"/><path d="M133.72,153.16c4.16-.22,6.35,1.31,9,6.78,2-5,4.16-6.57,8.75-6.13.44,4.82-3.28,8.54-9.18,8.75C136.79,162.78,133.5,159.06,133.72,153.16Z" transform="translate(-12.22 -22.1)"/><path d="M333.48,242.2c-5.25,5-9.85,3.5-12.91-.21a19.91,19.91,0,0,1-1.75-2.85,7.73,7.73,0,0,1,2-9.63c3.28,2.41,3.72,5.47,1.53,10.94C326.7,238.05,330.2,238.92,333.48,242.2Z" transform="translate(-12.22 -22.1)"/><path d="M195.2,240c5,2.84,5,8.31,2.41,12.69-3.06,5-8.1,5.25-12.47,2.18,2.19-3.72,5-4.81,10.72-3.93C191.7,246.58,192.8,243.08,195.2,240Z" transform="translate(-12.22 -22.1)"/><path d="M357.11,105c2.62,5.25,1.53,9.41-3.28,11.82s-10.29,2-12.69-3.5c3.28-2.63,7-2,10.72,1.75.22-2.19-.44-4.16.87-6.13A15.47,15.47,0,0,1,357.11,105Z" transform="translate(-12.22 -22.1)"/><path d="M162.82,235c3.06-2.62,6.78-3.5,11.38-.65-.88-2.19-2-3.94-1.31-6.13a10.49,10.49,0,0,1,3.28-4.81c3.94,3.94,3.5,9.19-1.1,13.13C171.35,239.8,166.54,239.8,162.82,235Z" transform="translate(-12.22 -22.1)"/><path d="M359.73,169.57c3.07-5.26,5.47-7,9.41-6.35a7.48,7.48,0,0,1-7.66,8.53,11.34,11.34,0,0,1-6.56-1.75c-2.84-1.75-3.72-4.37-3.72-7.65Q358.42,162,359.73,169.57Z" transform="translate(-12.22 -22.1)"/><path d="M344.64,121c3.72-2.18,6.78-1.31,10.72,3.07a10,10,0,0,1,1.09-6.13,9.12,9.12,0,0,1,4.82-3.72c2.4,5,.43,9.19-2.85,10.94a12.19,12.19,0,0,1-6.13,1.53C348.58,126.46,346.17,124.71,344.64,121Z" transform="translate(-12.22 -22.1)"/><path d="M366.74,182.47c-1.1,5.69-4.82,8.32-10.07,7.22-4.16-.87-7.22-3.5-7.88-7.22a19.48,19.48,0,0,1,0-3.5c4.82.66,6.79,2.85,7.44,8.32,1.32-1.75,2.41-3.5,4.38-4.38A11.72,11.72,0,0,1,366.74,182.47Z" transform="translate(-12.22 -22.1)"/><path d="M251.43,257.08c.88,2.19,1.53,3.94,2.19,5.91h6.13c-1.32,1.75-3.29,2.62-4.6,3.94.66,1.75,1.1,3.72,1.75,5.47l-.22.22c-1.53-1.1-3.06-2.19-4.81-3.29-1.53,1.1-3.28,2.19-5.25,3.72.65-2.18,1.09-4.15,1.75-6.12-1.53-1.1-3.06-2.19-4.81-3.5,2.18-.66,3.93-.22,6.12-.44C250.12,261.24,250.78,259.49,251.43,257.08Z" transform="translate(-12.22 -22.1)"/><path d="M280.09,46c1.32,0,1.54.44,1.54,1.53,0,2.63,0,5.25-.22,7.66v2.62c3.06-3.06,5.47-6.12,8.53-9.19.22,4.38.22,8.1.44,12,.22.22.43.22.65.43a4.7,4.7,0,0,1,.88-1.31l5.25-6.56c.66-.88,1.31-.88,2.41,0-3.5,4.16-6.79,8.09-10.51,12.69-.21-4.38-.43-8.32-.65-12.69-2.85,3.28-5.47,6.12-8.32,9.41Z" transform="translate(-12.22 -22.1)"/><path d="M292.35,259.27c1.31,1.53,2.4,3.06,3.5,4.59l-.22.22c-1.75-.43-3.72-.87-5.69-1.53-1.09,1.53-2.19,3.06-3.5,4.82-.88-2.19-.22-4.16-.66-6.13-1.75-.66-3.5-1.09-5.47-1.75v-.44c1.75-.66,3.5-1.31,5.47-2.19,0-2-.22-3.72-.22-6.12,2,1.31,2.63,3.28,4.16,4.59l5.25-2,.22.22A15.53,15.53,0,0,1,292.35,259.27Z" transform="translate(-12.22 -22.1)"/><path d="M274,264.74c.87,1.75,1.75,3.5,2.62,5l-.22.22c-1.75-.87-3.5-1.53-5.47-2.62-1.31,1.31-2.4,2.84-3.72,4.37a.77.77,0,0,1-.43-.22c.22-2,.43-3.72.65-5.69-1.75-.87-3.28-1.75-5.25-2.62,2-1.1,3.94-.66,5.91-1.53.22-1.75.66-3.72,1.09-6.13,1.1,2,2,3.72,3.07,5.47,2-.22,3.94-.66,6.34-.87C276.81,261.9,275.5,263.43,274,264.74Z" transform="translate(-12.22 -22.1)"/><path d="M206.8,264.52c1.53-2,2.62-3.5,3.94-5-1.1-1.53-2.19-3.28-3.29-4.81l.22-.22c1.75.65,3.5,1.31,5.47,2,1.32-1.54,2.41-3.07,3.94-4.82v6.13a50.85,50.85,0,0,1,5.25,2.19v.43c-1.75.66-3.5,1.1-5.47,1.75-.22,2-.22,3.94-.43,6.35-1.32-2-2.41-3.5-3.51-5C211.17,263.21,209.21,263.86,206.8,264.52Z" transform="translate(-12.22 -22.1)"/><path d="M231.08,261.24c.88-1.75,1.75-3.28,2.85-5h.44c.43,2,.65,3.72,1.09,5.69,2,.43,3.72.65,5.47,1.09v.44c-1.75.87-3.28,1.75-5,2.62.22,2,.44,3.94.87,6.35l-4.59-4.6c-1.75.88-3.5,1.75-5.47,2.63.44-2.19,2-3.72,2.62-5.69-1.31-1.31-2.62-2.84-4.37-4.59C227.15,260.58,229.12,260.8,231.08,261.24Z" transform="translate(-12.22 -22.1)"/><path d="M183.83,65.64a7.8,7.8,0,0,1,7.87,7.66,8,8,0,0,1-8.09,7.87,7.77,7.77,0,1,1,.22-15.53Zm0,13.78a6.21,6.21,0,0,0,6.12-5.9,6.35,6.35,0,0,0-6.34-6.35,6.13,6.13,0,1,0,.22,12.25Z" transform="translate(-12.22 -22.1)"/><path d="M160.85,89.71c.22.43.22.43.22.65a.81.81,0,0,0,.22.66c-.22,0-.44.22-.66.22a5.82,5.82,0,0,0-5.25,4.81,6.08,6.08,0,0,0,5,7.22,5.82,5.82,0,0,0,7-5.25c0-1.53-.22-3.06-1.75-3.94-.88,1.1-1.54,2.19-2.41,3.28L162,96.71c1.09-1.75,2.18-3.5,3.28-5,5,1.75,5,8.75,1.09,11.81a8.41,8.41,0,0,1-8.75.88,7.67,7.67,0,0,1-3.94-7.88,7.75,7.75,0,0,1,5.69-6.35C159.76,89.93,160.2,89.93,160.85,89.71Z" transform="translate(-12.22 -22.1)"/><path d="M201.33,61.26a4.25,4.25,0,0,0,1.53.22c3.5,1.1,4.16,4.82,1.53,7a45.79,45.79,0,0,1-4.81,3.07c-2.41-4.6-4.81-8.75-7.22-13.35,1.31-.66,2.62-1.31,3.72-1.75,2.84-.87,5,.66,5.25,3.5Zm-1.1,8.1c1.1-.88,2.19-1.31,2.85-2a2.15,2.15,0,0,0,.44-3.06,2.18,2.18,0,0,0-2.85-1.1,18.36,18.36,0,0,0-3.06,1.32C198.48,66.3,199.36,67.61,200.23,69.36ZM197,63.23c1.53-.65,2.85-1.31,2.85-2.84A2.56,2.56,0,0,0,198.27,58c-1.32-.44-2.41.22-3.5,1.1C195.42,60.39,196.08,61.7,197,63.23Z" transform="translate(-12.22 -22.1)"/><path d="M322.32,88c4.16-3.72,7.88-6.79,11.6-10.29a17.36,17.36,0,0,1,3.93,5,7.42,7.42,0,0,1-11.15,8.75C325.16,90.58,324.07,89.27,322.32,88Zm11.6-7.88c-2.85,2.63-5.91,5-8.76,7.66,3.07,3.94,6.57,4.59,9.63,2C337.2,87.3,337.85,83.36,333.92,80.08Z" transform="translate(-12.22 -22.1)"/><path d="M317.29,74.61c-1.31,1.53-2.41,2.84-3.72,4.59-.44-.21-.88-.65-1.31-.87,3.28-3.94,6.34-7.66,9.62-11.6A44.17,44.17,0,0,1,325.16,70a3.36,3.36,0,0,1,.22,4.59A4,4,0,0,1,321,76.36a3.13,3.13,0,0,1-1.32-.44c-.21,2.41-.43,4.82-.65,7.44-1.1-.22-1.75-.65-1.53-1.75.22-1.75.22-3.28.43-5v-2Zm4.59-5.69a47.76,47.76,0,0,0-3.06,3.94c2.19,2.19,3.5,2.41,4.81.87C324.73,72.2,324.29,70.89,321.88,68.92Z" transform="translate(-12.22 -22.1)"/><path d="M268.94,43.54c1.31,5.25,2.62,10.5,4.15,15.75-1.31.44-2,0-2.19-1.09a17.3,17.3,0,0,0-.87-3.28c-2-.44-4.16-.66-6.13-1.1-.65,1.1-1.31,2-2,3.07-.43.87-1.09.87-2.18.22,2.84-4.6,5.9-9.19,8.75-13.79A.68.68,0,0,0,268.94,43.54Zm-.66,4.16h-.44c-.87,1.53-2.19,3.06-2.84,5l4.59.66C269.15,51,268.72,49.45,268.28,47.7Z" transform="translate(-12.22 -22.1)"/><path d="M301.54,66.3a30,30,0,0,0-2.85,2c-.87.65-1.53.43-2.19-.44,4.6-3.28,9-6.35,13.79-9.85-.88,5.91-1.53,11.16-2.19,16.63-1.75-.22-2-.44-1.53-1.53,1.09-3.06-.44-4.38-2.85-5.47A17.66,17.66,0,0,0,301.54,66.3Zm5.68,1.53c.22-2.19.66-3.94.88-6.35a51.4,51.4,0,0,0-5,3.72,12.43,12.43,0,0,0,1.31.88A13.78,13.78,0,0,1,307.22,67.83Z" transform="translate(-12.22 -22.1)"/><path d="M223,45.73c2.62-.66,5-1.09,7.44-1.75a9.61,9.61,0,0,1,.65,1.53l-5.9,1.31c.22,1.32.65,2.63.87,4.16,2-.44,3.72-.66,5.69-1.09.66.87.44,1.53-.66,1.75a45.4,45.4,0,0,0-4.59,1.09,51.82,51.82,0,0,1,1.09,5.69c2.19-.44,3.94-.66,5.91-1.09.44,1.09.22,1.53-.66,1.75-2.18.43-4.15.87-6.56,1.31C225,55.58,224.08,50.76,223,45.73Z" transform="translate(-12.22 -22.1)"/><path d="M207.45,50.76c2.41-.87,4.38-1.75,6.57-2.4.87-.22,1.09.43,1.09,1.09-1.75.66-3.5,1.31-5.47,2.19.44,1.31.88,2.62,1.53,4.15a40,40,0,0,1,4.6-1.53c.87-.22.87-.22,1.53,1.1-1.75.65-3.5,1.31-5.47,2.18.66,1.75,1.31,3.5,2,5.47,2-.65,3.72-1.31,5.69-2,.65.66.87,1.32-.22,1.76-2,.87-4.16,1.53-6.56,2.4C211,60.17,209.21,55.58,207.45,50.76Z" transform="translate(-12.22 -22.1)"/><path d="M348.79,100.65l-1.31-.66c0-.44.22-.88.22-1.31a2.72,2.72,0,0,0-2.63-2.85c-1.53,0-2.18,1.1-2,2.85a17.54,17.54,0,0,1,.43,3.5c0,3.06-2.4,4.81-5.47,4.15-3.5-.87-4.59-4.81-2.18-7.87l1.31.65c-.22.66-.66,1.1-.88,1.75a3.06,3.06,0,0,0,3.07,3.94,2.48,2.48,0,0,0,2.4-2.62,16.4,16.4,0,0,0-.22-3.28c-.21-2.19.22-3.72,1.75-4.6a3.31,3.31,0,0,1,4.16.44,4.59,4.59,0,0,1,1.75,4.81C349.23,100,349,100.21,348.79,100.65Z" transform="translate(-12.22 -22.1)"/><path d="M175.29,91.68c-3.72-3.5-7.44-6.79-11.16-10.29a5.77,5.77,0,0,1,1.32-1.09c3.28,3.06,6.56,5.91,9.84,9a35.2,35.2,0,0,1,2.63-2.85c.44.44.87.66,1.31,1.1C177.92,88.83,176.82,90.14,175.29,91.68Z" transform="translate(-12.22 -22.1)"/><path d="M483.13,28.45c2,0,3.94-.22,5.91-.22a5.34,5.34,0,0,1,1.75.43,3.05,3.05,0,0,1,2.41,2.41,2.79,2.79,0,0,1-1.32,3.06l-.65.66c2,1.53,1.75,3.72,2.62,5.69h-3.06l-.66-2c-.65-2.63-1.09-2.84-3.93-2.41v4.38h-2.85C483.13,36.54,483.13,32.6,483.13,28.45Zm2.85,2V33.7a10.55,10.55,0,0,0,2.62-.22A2.29,2.29,0,0,0,489.91,32c.22-.88-.43-1.54-1.31-1.75C488,30.2,487.07,30.41,486,30.41Z" transform="translate(-12.22 -22.1)"/><path d="M321,191.88c-.44-.65-.88-1.53-2-1.75-.66-.22-1.31-.65-2-.87a3,3,0,0,1-1.53-1.75,18.91,18.91,0,0,1-1.1-6.13c0-1.75-.65-3.5-.87-5.25v-.88c2,0,1.31,2.19,2.62,2.85-.21-1.53.22-3.06-.43-4.6a4.5,4.5,0,0,1,.22-2.4,22.12,22.12,0,0,0,.43-7.66l-2,.66c.88-2.85-.65-5-1.09-7.44-.88.22-1.53.43-2.19.65a42.14,42.14,0,0,1-4.59,5.91,2.8,2.8,0,0,0-.88,2.19,9.71,9.71,0,0,1-.44,2.19,3.82,3.82,0,0,0,.22,3.06,3.59,3.59,0,0,1,.22,2.19c0,.65-.44,1.09-.87,1.75-1.32-.88-.66-2-.88-3.07a7.19,7.19,0,0,1-1.31.66c-.66-4.81-2.19-9.63-2-14.66-1.53,0-1.75-.22-2.41-1.31a40.54,40.54,0,0,0-2.18-4.38c-1.32,0-2.63.22-3.72.22a9.36,9.36,0,0,1-3.29-.87l-.43.43c.22.44.43,1.1.87,1.32,2,1.31,2.19,2,.88,3.94-.66,1.09-1.1,2.62-2.19,3.5a28,28,0,0,1-7.66,4.81c-.44.22-1.09.44-1.53.66-1.31.65-1.31.65-.44,2.18,1.75-.43,3.5-.87,5.47-1.31a4.15,4.15,0,0,1-.22,2.85c-1.53,3.06-2.62,6.12-5.47,8.31a17.9,17.9,0,0,0-3.72,4.38,7.68,7.68,0,0,0-.65,6.56c.65,2.19-.44,5.69-2.41,7a10,10,0,0,0-1.53,1.31,2.14,2.14,0,0,0-.88,2c.22,1.53.22,2.85-1.53,3.5-.22,0-.43.66-.43.88-.22,2-1.76,3.5-2.85,5a4,4,0,0,1-3.94,2c-.44,0-.87.22-1.31.22-1.53.22-2,0-2.41-1.75a23,23,0,0,0-1.31-4.16c-.22-.87-.66-2-.87-2.84-.66-1.75-.88-3.72-1.76-5.25a6.14,6.14,0,0,1,.22-6.13,2.12,2.12,0,0,0,.22-2c-.22-.66-.22-1.31-.44-2-.65-1.53-.87-3.28-2-4.37-1.1-1.54-2-3.07-1.32-4.82a5.38,5.38,0,0,0,.22-1.75l-1.53-1.53c-.66,0-2,.22-2.41-1.53a1.13,1.13,0,0,0-1.53-.66c-.65.22-1.31.66-2,.88a5,5,0,0,1-1.75.43h-4.15c-1.32-1.31-3.51-2.4-4.16-5-.22-1.09-1.31-2-2.19-2.84a5.26,5.26,0,0,1-.87-4.38,10.84,10.84,0,0,0,0-5.25,5.26,5.26,0,0,1,0-2.62,41.08,41.08,0,0,1,2.4-5.47c0-.22.22-.44.22-.66,2-1.09,2.41-2.84,2.63-4.81a3.3,3.3,0,0,1,1.53-2.41A3.25,3.25,0,0,0,237,138.5c.66-1.75.22-2.41-1.53-3.07a8.56,8.56,0,0,1,0-5.25,8.73,8.73,0,0,0,0-2.4c0-1.32.66-2,2-1.75,1.09.21,2.19.21,3.28.43,1.1-2.4.88-3.93-1.09-5.47-.66-.65-.66-1.31,0-1.75s1.75,0,2-1.31H242a4.43,4.43,0,0,0,1.75-.87c-1.75-.44-3.28.21-5.25,1.09a3.39,3.39,0,0,0,.66-1.31,3.72,3.72,0,0,0,.44-1.1,4.74,4.74,0,0,1,1.09-3.72c-.87,0-1.31,0-1.53.88-.44,2-1.09,2.41-3.5,2.41.22-1.32.44-2.63.66-4.16.65-.66,1.53-1.31,2.4-2.19-1.09-2.63.66-3.94,3.07-4.81-.22,1.53.43,2.84.21,4.37-.21,1.1.66,2.63,1.32,3.72a4,4,0,0,1,.65,3.5c1.53-.22,1.1-1.75,2-2.19l2.63-1.31v-1.31a3.55,3.55,0,0,1,1.53-4.16c.44-.22.44-.87.87-1.53-.21,0-.21-.22-.43-.22a17.42,17.42,0,0,0-2.41,1.75c-2.19-2.19-1.09-4.81-1.31-7,1.31-1.53,3.28-2.41,4.15-4.37.88-1.76,1.75-3.51,2.85-5.47-.66.21-.88.43-1.53.65.87-1.09,1.31-2.19,2-2.84a18.87,18.87,0,0,1,5-3.5c1.09-.66,3.5,0,4.37,1.09a6.25,6.25,0,0,0,2.41,1.75A20.48,20.48,0,0,1,270,89.71c.66.43.66,1.53.87,2.4a9.46,9.46,0,0,0,1.32-.43c-.22-1.1-.44-2.19-.66-3.5a1.34,1.34,0,0,1,2,.65,6,6,0,0,1,.22,2c1.09-1.31,2.19-2.41,3.28-3.5a2.35,2.35,0,0,1,1.31-.44c.66.22,1.32.44,1.75-.22s0-1.31-.43-2a.78.78,0,0,1-.22-.65L284,85.33a31.93,31.93,0,0,1-.65-4.16c-.22-1.31-.22-2.84-.44-4.81L286,79.42V77.89c.22.22.66.44.88.66.43-.44.87-.66,1.31-1.1-.22,0-.44-.21-.88-.21,0-1.32.44-2.41,2-2.63a87.26,87.26,0,0,1,18.38,11.16,92.76,92.76,0,0,1,24.72,29.75c1.54,3.07,1.1,6.13.88,9.19,0,.22-.44.44-.44.66a9.7,9.7,0,0,0-.65,2.41,14.2,14.2,0,0,0,.65,6.78c.44,1.75.22,3.72.44,5.47h0c-.22-.88-.66-1.1-1.31-1.1-.44-2.62-1.1-5.25-1.75-8.09-.66.87-.88,1.09-1.32,1.75a17.28,17.28,0,0,0-.43-1.75H328c-.22.87-.88,2-.44,2.62.22.66,1.53.88,2.41,1.32-.22.44-.22.87-.44,1.31a3.8,3.8,0,0,0-.44,3.72c1.1,3.5,1.75,7.22.22,10.94-.22.66,0,1.31-.22,2h0c-.65,1.09-.87,2.19-1.75,2.84-.87.88-2.19,1.53-2.84,2.63-.66.87-.66,2.19-1.1,3.5a.21.21,0,0,0-.21.22c-.88-.44-.66-1.32-.22-2,.22-.66.65-1.1-.22-1.75a3.74,3.74,0,0,0-.88,4.59,8.42,8.42,0,0,1,.66,4.6,10.48,10.48,0,0,1-1.31,3.28,14.75,14.75,0,0,1-1.75,2c-.44-1.53-.88-2.85-1.32-4.38h-.43a4.7,4.7,0,0,0-.66,1.53c.22,1.75-.44,3.5.66,5a1.34,1.34,0,0,1,.21.87,32.23,32.23,0,0,1-.21,4.6c-.66,2.4-.88,2.62.65,4.59-1.53.22-1.53,1.31-2,2.41.66.22.66,1.53,1.75,1.09.22,0,.66.22.66.44.88,2.62,2.84,1.31,4.59,1.53H325c-1.32.88-2.19,1.53-3.07,2.19a9.53,9.53,0,0,1,.22-1.1C321,190.35,321.23,191.44,321,191.88Zm-60.39-88.83c-1.09.22-1.75-.43-2.41-1.09,0-1.53-.21-3.06-.21-4.81-2.41,1.75-2.63,2.62-1.54,4.81a2,2,0,0,1-.21,2.62,3.5,3.5,0,0,0-.88,2.63,3.22,3.22,0,0,1-.22,1.53c-1.09.66-2,1.1-2.84,1.53.43.66.65,1.1,1.09,1.75,1.53-2.18,3.5-1.09,5.47-1.09-1.09-1.53-1.31-2-.87-3.5a19.07,19.07,0,0,1,2.62-4.38c.66,0,1.31.22,1.75.22.22,0,.66-.44.88-.65A2.91,2.91,0,0,0,260.62,103.05Zm-6.56,33.7c-.88-.88-2.19-1.1-2.41-2.41a2.73,2.73,0,0,0,1.31-.22c1.54-.22,2-1.09,1.1-2.41-1.32-1.31-2.63-2.62-3.94-3.71a6.46,6.46,0,0,0-.22,2.84c0,.87.44,2-1.09,2.19-.66-4.16-.44-5.25,1.31-6.35-.22-.44-.44-.65-.66-1.09a18.85,18.85,0,0,0-2.19,1.75c-.65-.22-1.31-.22-2-.44-.22,1.53-.44,2.85-1.75,3.72a2.13,2.13,0,0,0-.88,2c0,2-.87,2.84-3.06,3.28-.66.22-1.1.44-.88,1.1a3.4,3.4,0,0,0,3.5-.44,5.35,5.35,0,0,1,2.63-.88,35.52,35.52,0,0,1,4.81-.43c.44,0,1.1.43,1.1.87a19.48,19.48,0,0,1,0,3.5,1.9,1.9,0,0,0,2,1.53,2.23,2.23,0,0,1,1.54.88c.65,1.53,2.4,1.53,3.5,2.84a12.47,12.47,0,0,1,.22-1.53c.21-.44.21-1.09.65-1.53.66-.66,1.53-.44,2.41,0,2.19,1.09,4.16,2.62,6.78,1.53.22-.22.66,0,1.1.22,1.09.66,1.53.22,2-.88l.66-2a4.29,4.29,0,0,0-.22-3.29,8.77,8.77,0,0,1-1.75.66,3.29,3.29,0,0,1-1.53-.66c-1.75,1.1-2.63.66-3.72-.87s-.66-3.5-1.75-5.25a9,9,0,0,0-1.53,1.31c.44.87.87,1.53,1.31,2.41a20,20,0,0,0-1.75,2.18,7.32,7.32,0,0,1-1.53-2.4,9,9,0,0,0-.88-2.19c-.65-1.09-1.53.22-2.18-.66C256.68,133.9,254.28,134.78,254.06,136.75Zm21-6.13c1.1-2.62-.87-3.06-1.75-4.16a2.62,2.62,0,0,0-3.94-.43c-.87-.88-.65-2.41-2.4-2.85-.44,1.1-1.1,2-1.54,3.06-.21.44-.21.88-.43,1.32a1.65,1.65,0,0,0,.43,2.19,2.62,2.62,0,0,0,2.19,0c1.53-1.1,2.85-.88,4.38,0A7.21,7.21,0,0,0,275.06,130.62Zm7.44-4.38c-.44-1.75,2-2,1.53-3.5-1.75-.87-2.4.66-3.28,1.32a1.37,1.37,0,0,0-.44,2c.88,2,1.75,3.72,2.85,5.9-.44.88-1.1,2.19-.22,3.5s1.75,1.32,3.5.66C284.69,132.59,284.69,128.87,282.5,126.24Zm-4.81,38.29c-.22-1.53-.22-2.62-.44-3.72-.88-2.4-2.84-4.37-3.06-7.22,0-.22,0-.22-.22-.43-1.1-1.1-1.32-2.41-2-3.72-.22-.44-.66-.88-1.1-1.75-.21.87-.43,1.09-.21,1.53.43,1.53.65,3.28,1.75,4.59a9.9,9.9,0,0,1,1.09,3.28l.66,2c.22.44.65.88.65,1.32C274.84,162.35,276.16,163.22,277.69,164.53Zm4.81-18.38c0,2.63,2.84,3.94,2.84,6.57,1.76,0,2,0,2.85-2.19-.88-.44-1.53-.66-2.41-1.09a5.45,5.45,0,0,1-2-2.41C283.59,146.15,283.38,145.5,282.5,146.15Zm-25.38-15.09c.22-2,0-2.19-1.31-3.06a3.86,3.86,0,0,1-2-1.76,11.89,11.89,0,0,0-1.53-1.75C252.74,127.56,254.93,129.31,257.12,131.06ZM267.4,95.18h.22a14,14,0,0,0,.44-1.54c.66.22,1.09.66,1.75.88v-2a14.34,14.34,0,0,1-3.06-.22A7.52,7.52,0,0,1,267.4,95.18Zm-7.22-1.32c-1.75,0-1.75,0-1.75,3.29C259.53,96.05,260.18,95.18,260.18,93.86Zm-8.53,13.35c-.22,0-.44.22-.66.22l.66,1.31c.22,0,.22-.22.44-.22C251.87,108.09,251.87,107.65,251.65,107.21Z" transform="translate(-12.22 -22.1)"/><path d="M184,96.49a7.6,7.6,0,0,0,.22,1.31c.88-1.31,2.63-1.75,2.41-3.5,0-.44.66-1.09,1.09-1.53,1.54-1.31,2.63-2.84,4.82-3.28.22,0,.43-.44.65-.66a9.19,9.19,0,0,0,1.1-1.53c.65.88,1.09,1.31,1.53,2s.87,1.09,1.75.87.87.66.44,1.54c1.09-.44,2.18-.88,2.84.21.44.66.22,1.32-.66,2,1.76.88,3.51,1.75,5.26,2.85l-2.63,2.62-2.63-2c-.65,1.32,0,2,.66,2.63,1.1,1.09,1.1,1.31.22,3.06-.66-.22-1.53-.65-2.63-1.09a11.59,11.59,0,0,1,1.75,2c0,.22-.21.22-.21.44-1.54-.44-3.5,0-4.6-2.19-.65-1.32-1.31-1.32-2.62-.88-.66.22-1.54.66-2.19-.22.44-2,2.4-.65,3.5-1.53.44-1.09,1.09-2.4,1.75-3.72a47.76,47.76,0,0,0-3.94-3.06c-1.31.22-2.62.66-4.16.87a5.83,5.83,0,0,1,1.1,1.32c-.22.22-.66.44-.66.87-.22.66-.22,1.53-.44,2.19S186,97.8,186,99.11c-2.84.44-3.28,3.72-5.9,4.6-.22,1.53-2,2-2.63,3.06a13.29,13.29,0,0,0-1.09,3.94,18.79,18.79,0,0,1,1.53,2.84,8.22,8.22,0,0,1,2.19.22,5.46,5.46,0,0,1,2,.88,4.09,4.09,0,0,0,3.06,1.09c.87,1.75.22,4.16,2.4,5.69a11.46,11.46,0,0,0,.22-2.62c0-1.54.22-3.07,1.75-4.16,1.1-.66,1.1-1.75.44-2.85a3.77,3.77,0,0,1,0-3.71c.44-.66.22-1.76.22-3.07,2.41-.65,4.6.66,7,1.31V109a1.18,1.18,0,0,0,.66,1.09c.65.44,1.09,0,1.31-.43a22.85,22.85,0,0,0,1.75-2.41c.88,1.75,2.19,2.84,2.41,4.81a2.44,2.44,0,0,0,1.53,1.75c.87.44,1.53.66,2,1.75.22.44.65.44,1.31.88,0,.44,0,1.09-.44,1.31-2,1.53-3.5,3.72-6.12,3.5a5.16,5.16,0,0,0-5.25,2.41c-.22.44-.88.66-1.1,1.31a1.32,1.32,0,0,0,.88-.22l2-2a1.34,1.34,0,0,1,2.18.22c-.21,1.1-.43,2-.65,3.07.87.21,1.53.43,2.19.65a3,3,0,0,0-.66.88c1.31.44,1.53-1.1,2.41-1.32,0,.22.43.66.22.66-.44.88-2.41,2-5,2.85a6.68,6.68,0,0,0,.88-1.75l-.22-.22c-1.31.87-2.63,1.53-3.94,2.4s-1.31,1.53-.65,2.85c-.22.22-.66.22-.88.43-2.41,1.32-3.5,3.72-3.94,6.35a6.13,6.13,0,0,1-1.09,2.41c-2.41,1.75-3.07,3.93-2.63,6.78a14.67,14.67,0,0,1,.44,3.06c0,.44-.22.88-.22,1.53h-.66c-.43-.87-.87-1.75-1.31-2.84-.87-2.41-1.53-3.06-3.94-3.06a3.72,3.72,0,0,0-1.53.22v1.53a5.45,5.45,0,0,0-5.91,1.31c-.21.22-.43.44-.43.66a60.91,60.91,0,0,0,0,6.34c.43,2.85,1.31,3.94,4.81,3.5.44-.65.66-1.53,1.09-2.19a2.41,2.41,0,0,1,1.54-.65c.21,0,.65.87.65,1.31,0,1.31-.44,2.41-.44,3.5a3,3,0,0,1-.21,1.09c.87,0,1.53-.21,2.18-.21,1.54,0,2.19.65,2.41,2.18a8.91,8.91,0,0,1-.22,2.41c0,2,.44,2.63,2.41,2.63a16.76,16.76,0,0,1,3.28.43c1.09-1.31,2.41-2.62,3.72-4.15a12.24,12.24,0,0,1,.88,2.62c.43-.65.87-1.31,1.09-1.75a19,19,0,0,0,3.06,1.53,3.16,3.16,0,0,0,3.07-.65c2,1.75,4.15,3.5,6.12,5.25q5.25-.33,6.57,5.25a1.62,1.62,0,0,0,.43.87,9.69,9.69,0,0,1,1.53,1.54c1.54-.66,2.85-.22,3.72,1.53a4.26,4.26,0,0,1,5,0,8.57,8.57,0,0,1,3.72,4.59A5,5,0,0,1,228,193a6.47,6.47,0,0,0-1.31,4.37,38.82,38.82,0,0,1-.44,5,2.19,2.19,0,0,1-2.19,2.19,6.51,6.51,0,0,0-4.15,2.63c1.31,4.15-.88,7.66-5.47,9.19.22.87,1.31,2,.22,2.84a7.64,7.64,0,0,1-2.85,1.1,18.9,18.9,0,0,0-1.75,2.18c1.09,1.32-.44,2.63-.87,3.94.43.44,1.31.88,1.31,1.53a2.67,2.67,0,0,1-.88,1.75c-.65,1.1-.65,2,.66,2.63.66.44,1.31.65,2.19,1.31-2.19.88-3.72-1.09-5.69-.22a1.69,1.69,0,0,0,.22-.65,19.92,19.92,0,0,1-3.28-2.85,4.29,4.29,0,0,1-.22-2l-.88-.87,1.31-.66c-.21-1.09-.65-2-.87-3.06h-.22c-.22.22-.22.44-.44.65-1.53-4.15-.87-8.53-1.31-12.9-.22-2.41-.44-4.82-.66-7a8.41,8.41,0,0,0-3.5-5.9,22.3,22.3,0,0,1-3.5-3.07,32.11,32.11,0,0,1-2.4-3.5c-.66-.87-.88-2-1.54-2.62a2.58,2.58,0,0,1-.65-3.72.81.81,0,0,1,.22-.66c-1.32-.65-1.1-1.75-.66-2.62a5.51,5.51,0,0,1,.88-1.54c1.75-2.18,1.09-4.37.21-6.78-.21-.44-.65-1.09-1.09-1.09s-.88.65-1.53,1.09c-2.63-.87-4.6-3.06-5.91-5.9-1.75.21-2.84-1.1-4.16-2.19-.65-.66-1.31-1.32-2.62-.66-.44.22-1.53-.22-2.19-.44a12.37,12.37,0,0,1-6.34-6.12,53.12,53.12,0,0,0-3.07-6.13,4.52,4.52,0,0,0-.87-1.31c-1.75-1.75-1.75-3.72-1.32-6.13a92.71,92.71,0,0,1,21.88-47A8.92,8.92,0,0,0,184,96.49Zm.66,32.6c.22.87-.22,2,1.31,2.19a13.16,13.16,0,0,1,.44-1.53c.22-.44.88-.44,1.75-.88a28.49,28.49,0,0,0-3.28-1.09,5.93,5.93,0,0,0-2.63.65c-1.31.66-.65,2.19-1.09,3.28-.22.66-.44,1.32.66,1.75.22-1.09.65-2.18.87-3.28C182.73,129.09,183.61,128.87,184.7,129.09Zm-6.56-2c1.31,0,2.18-.44,2.62-.22,1.1.88,2,.22,3.28.22a18.53,18.53,0,0,0-2.4-3.06C180.54,125.15,179.45,126,178.14,127.12Z" transform="translate(-12.22 -22.1)"/><path d="M220.14,100.65c-.65-.22-1.31-.22-1.53-.66-.43-.44-.65-.44-.87-.22-.66.44-1.31.22-2-.44a17.29,17.29,0,0,1-4.38-6.78c-.43-1.09,0-1.75,1.32-2,.21-.87.43-1.75.65-2.84h-2c-1.53,0-2.18-.88-2-2.41.44-2.19-2-4.81-4.15-4.81h-2.41a87.71,87.71,0,0,1,33.69-12.91,7.14,7.14,0,0,1-.65,1.75c.87.44,1.53.66,2.84,1.31-1.31.44-2.19.66-3.28,1.1,1.09.43,1.75.65,2.84,1.09a11.2,11.2,0,0,1-1.75.87c.22.22.66.44.88.66-.22.66-.22,1.31-.66,1.75a3,3,0,0,1-2,.66c-1.09,0-2,.22-1.75,1.53,1.32.44,2.41.66,3.72,1.09-.87,2.41-2.84,1.32-4.15,2a9.17,9.17,0,0,0-.44,1.32c1.09-.22,2-.66,3.06-.88,0,.22.22.22.22.44-.66.44-1.31,1.09-2,1.53a54.92,54.92,0,0,0-4.81,2.84l-.66.66c-.87.88-1.75,2-2.62,2.84-.44.44-.66,1.32-1.54.66a9,9,0,0,0-.87.66,13.44,13.44,0,0,1-1.31,3.06C220.8,96.27,221.46,98.68,220.14,100.65Zm-7.87-13.57a.77.77,0,0,1,.22-.44c-.66-.22-.88-1.75-2.19-.22A3.06,3.06,0,0,1,212.27,87.08Z" transform="translate(-12.22 -22.1)"/><path d="M319.69,194.73c.22.65.44,1.09.66,1.75,1.1-1.53,2.41-2.41,4.16-2.19a16.4,16.4,0,0,0,2,2,17.94,17.94,0,0,0-2,2.19c.44,1.53.87,3.06,1.31,4.81,2.63-1.09,2.63-3.94,4.6-5.47l.21.22c-.43,2-.65,3.94-1.09,5.91a8,8,0,0,1-.87,2,93.91,93.91,0,0,1-13.13,16.41,3,3,0,0,1-.88.66c.22-1.75.22-3.28.44-4.81H314c0-1.53.43-3.5-1.1-4.16s-3.28-.88-4.37.44a15.46,15.46,0,0,0-3.5.22,1.63,1.63,0,0,1-2.19-1.1c2-2,1.75-5,2.4-7.44a31,31,0,0,1,1.76-4.81c.65-1.31,2-1.53,3.28-1.53a6,6,0,0,0,5-2.19C316.19,195.82,318.16,195.38,319.69,194.73Z" transform="translate(-12.22 -22.1)"/><path d="M260.62,71.55c.88,1.31,1.31,2.18,2,3.06-.66,1.09-.66,1.09-1.75,1.09,0-.43-.22-1.09-.22-1.75-.22.22-.44.22-.44.44a14.8,14.8,0,0,1-1.53,3.5c-.44-1.09-.87-2-1.31-3.06,0-.22-.22-.66-.44-.66-1.09-.65-.65-1.75-.65-2.62s.21-1.53,1.31-1.53c.44,0,1.31-.22,1.53-.66.87-1.53,2.19-1.09,3.28-.44.22.22.66.22,1.1.44C263.25,70.45,263,72.2,260.62,71.55Z" transform="translate(-12.22 -22.1)"/><path d="M280.31,190.79a6.55,6.55,0,0,1-.22,5c-.87,2-1.75,4.16-2.62,6.13-.22.22-.22.87-.44.87a3.52,3.52,0,0,1-2,.66c-.22,0-.65-1.1-.65-1.53a4.94,4.94,0,0,1,.65-3.07c.44-.43.22-1.31.44-2a7,7,0,0,1,1.09-2.18,6,6,0,0,0,2.85-2.85A6.32,6.32,0,0,0,280.31,190.79Z" transform="translate(-12.22 -22.1)"/><path d="M333,140c.66-2.19,2.19-3.94,2.41-6.35a19.94,19.94,0,0,0-.22-7.22,13.13,13.13,0,0,1,0-4.15c.87,1.31,1.75,2.4,1.09,3.93-.22.44,0,.88,0,1.32.22,2.19.44,4.59.66,6.78.22,2.63.44,2.63-1.31,5.47a8.21,8.21,0,0,0-1.75,5c-.44-1.75-1.54-3.06-.88-4.81Z" transform="translate(-12.22 -22.1)"/><path d="M325.16,173.72c.22.66.22,1.53.44,2.63a4.69,4.69,0,0,0-1.53,3.94v.43c-.87,1.75-1.75,3.29-2.84,5-.66-.44-1.32-.66-2-1.1v-1.09c0-1.75.22-3.5,2-4.82C322.76,177.44,323.85,175.47,325.16,173.72Z" transform="translate(-12.22 -22.1)"/><path d="M329.32,192.76c-.87-.22,0-1.53-1.31-1.32-.22-.65-.66-1.31-.44-2a3.28,3.28,0,0,0,0-3.72c-.44-.88.22-2.41.22-3.5,1.75.43,2.19,1.31,3.28,5,.44-.88.88-1.32,1.31-2.19-.21.66-.21,1.53-.43,2.19s-.44,1.31-1.32,1.53c-.87,0-1.09.87-.87,1.53C330.63,191.66,329.76,192.1,329.32,192.76Z" transform="translate(-12.22 -22.1)"/><path d="M279.87,70.89a10.9,10.9,0,0,0-3.06,6.35c-.22,2.4-.22,4.37,2.41,6.12-.88.22-1.31.44-1.75.22-.66-.44-1.53-.87-2.19-1.31-.87-.66-.44-1.32-.44-2.19a45.38,45.38,0,0,0,0-5.47c0-1.53,2-3.94,3.5-4.38A15.12,15.12,0,0,0,279.87,70.89Z" transform="translate(-12.22 -22.1)"/><path d="M233.05,90.8c1.32,1.09,2.63.44,3.94.22.66,2.19.66,2.84-.44,3.94-2,1.53-2.62,1.75-4.81.65C232.18,94.08,230.87,92.33,233.05,90.8Z" transform="translate(-12.22 -22.1)"/><path d="M329.54,160.6v1.75c-.66,2,0,3.71.22,5.68a13.32,13.32,0,0,1-1.31,7.66c-.44-1.09-1.32-1.53-.44-3.06.66-1.1.22-2.85,0-4.38a15.25,15.25,0,0,1,.66-6.34C328.67,161.47,328.88,161.25,329.54,160.6Z" transform="translate(-12.22 -22.1)"/><path d="M208.11,120.56c.88.65,1.53,1.09,2.41,1.75a18.11,18.11,0,0,1,.87,2.62c-1.75-.22-3.5-.44-5.47-.65C205.7,122.53,207.24,121.87,208.11,120.56Z" transform="translate(-12.22 -22.1)"/><path d="M189.08,102.83c-1.32.22-2.41.66-3.72.88-.22,0-.66-.44-1.32-.88a17.52,17.52,0,0,1,1.75-2C186.67,100.21,188,101.08,189.08,102.83Z" transform="translate(-12.22 -22.1)"/><path d="M184.48,156.88a2.08,2.08,0,0,1,2.85-.66c.43.22,1.09.44,1.53.66a19.09,19.09,0,0,1,3.5,2.18c-1.1.22-1.75.44-2.63-.43C188.42,157.31,186.67,156,184.48,156.88Z" transform="translate(-12.22 -22.1)"/><path d="M324.29,182.26c.87.21.87.21,1.53,1.53h-1.09l-.66,3.28h-1.31c-.66-.66.44-3.72,1.53-4.81Z" transform="translate(-12.22 -22.1)"/><path d="M193.45,161.47a6.62,6.62,0,0,1,.88-2.19c1.09,0,2.4-.22,3.5,1.53C196.3,161,195,161.25,193.45,161.47Z" transform="translate(-12.22 -22.1)"/><path d="M162.6,154.91a4.92,4.92,0,0,1-1.53-4.82c.66,1.53,1.31,3.07,2,4.6A.77.77,0,0,1,162.6,154.91Z" transform="translate(-12.22 -22.1)"/><path d="M329.32,152.28c.22.22.88.22.88.44a25.6,25.6,0,0,1-.88,3.94c-.87-1.53,0-3.07,0-4.38Z" transform="translate(-12.22 -22.1)"/><path d="M194.55,96.05c-.44,1.1-.44,1.1-1.54,1.1C193.23,95.61,193.23,95.61,194.55,96.05Z" transform="translate(-12.22 -22.1)"/><path d="M324.29,182.26c.22-1.75.22-1.75,2.63-1.54a2.92,2.92,0,0,1-1.54.66,1.12,1.12,0,0,0-1.09.88Z" transform="translate(-12.22 -22.1)"/><path d="M313.79,166.72c-.22.88-.44,1.75-.66,2.85h-.44l.66-2.63A.68.68,0,0,1,313.79,166.72Z" transform="translate(-12.22 -22.1)"/><path d="M274.19,85.55c1.53.87,1.31,1.31.22,2A5.43,5.43,0,0,1,274.19,85.55Z" transform="translate(-12.22 -22.1)"/><path d="M325.6,185.32c.44-.22.88-.88,2,.22-.87,0-1.31.22-2,.22Z" transform="translate(-12.22 -22.1)"/><path d="M201.77,121.65a3,3,0,0,0,1.31.44c0,.22,0,.22-.22.44a3.09,3.09,0,0,0-1.31-.44C201.77,121.87,201.77,121.87,201.77,121.65Z" transform="translate(-12.22 -22.1)"/><path d="M263,72.64l1.31-.66c0,.22.22.22.22.44l-1.31.66A.77.77,0,0,0,263,72.64Z" transform="translate(-12.22 -22.1)"/><path d="M328.23,180.29c-.22.43-.22.87-.44,1.31-.22,0-.22,0-.44-.22a13.77,13.77,0,0,0,.44-1.53C327.79,180.29,328,180.29,328.23,180.29Z" transform="translate(-12.22 -22.1)"/><path d="M270.69,138.5a7.79,7.79,0,0,1-1.32,1.31,1.3,1.3,0,0,1-.87-.22c-.22-.22,0-.87.22-.87a4.06,4.06,0,0,1,1.75-.44C270.69,138.06,270.69,138.28,270.69,138.5Z" transform="translate(-12.22 -22.1)"/><path d="M263.9,138.93a15.05,15.05,0,0,0-2.4-.43C262.15,138.06,262.81,137.84,263.9,138.93Z" transform="translate(-12.22 -22.1)"/><path d="M246,131.5a12.93,12.93,0,0,1-1.53.87C244.65,131.5,244.65,131.5,246,131.5Z" transform="translate(-12.22 -22.1)"/><path d="M240.27,41.57a3.21,3.21,0,0,1,3.07,2,3,3,0,0,1-.88,3.28,3.3,3.3,0,0,1-3.72.22A3.1,3.1,0,0,1,237.21,44a3,3,0,0,1,2.41-2.41Zm2.41,2.85A2.42,2.42,0,0,0,240.27,42a2.3,2.3,0,0,0-2.4,2.41,2.42,2.42,0,0,0,2.4,2.4A2.18,2.18,0,0,0,242.68,44.42Z" transform="translate(-12.22 -22.1)"/><path d="M239.18,43.1h2q.33,0,.66.66c0,.44,0,.66-.44.88l-.22.21c.44.44.44.88.66,1.54h-.66c0-.22-.22-.22-.22-.44-.22-.66-.22-.66-1.09-.66v1.1h-.66Zm.66.44v.88h.65c.22,0,.22-.22.44-.44a.47.47,0,0,0-.44-.44Z" transform="translate(-12.22 -22.1)"/></svg>