<svg width="76" height="75" viewBox="0 0 76 75" fill="none" xmlns="http://www.w3.org/2000/svg">
<g clip-path="url(#clip0_7367_368)">
<path d="M11.1655 6.5H32.1059L17.2926 26.4932L6.56714 12.0173L7.66926 9.22945C8.34828 7.51184 9.72919 6.5 11.1655 6.5ZM1.40715 25.0699L5.54239 14.6095L14.8772 27.2085H1.00011C1.00445 26.4812 1.13809 25.7505 1.40715 25.0699ZM2.27921 30.8746C1.98908 30.543 1.74463 30.1645 1.54961 29.7532H16.589L31.7695 64.5029C31.5957 64.3606 31.428 64.1984 31.2684 64.016L2.27921 30.8746ZM66.2356 29.7532C66.0406 30.1645 65.7962 30.543 65.506 30.8746L36.7205 63.7832L51.5866 29.7532H66.2356ZM66.3781 25.0699C66.6471 25.7505 66.7808 26.4812 66.7851 27.2085H53.2984L62.3786 14.953L66.3781 25.0699ZM60.116 9.22945L61.3539 12.3608L50.883 26.4932L36.0696 6.5H56.6197C58.056 6.5 59.4369 7.51184 60.116 9.22945ZM49.0677 29.7532L34.0878 64.0437L19.1079 29.7532H49.0677ZM48.4676 27.2085H19.708L34.0878 7.80038L48.4676 27.2085Z" stroke="white"/>
<path fill-rule="evenodd" clip-rule="evenodd" d="M69.2181 19.234C68.1424 16.7761 65.7138 15.188 63.0308 15.188H25.6809C22.9979 15.188 20.5693 16.7761 19.4936 19.234L14.9338 29.6527C13.8829 32.0539 14.3162 34.8463 16.0453 36.8161L39.2801 63.2852C41.9701 66.3497 46.7416 66.3497 49.4316 63.2852L72.6664 36.8161C74.3955 34.8463 74.8288 32.0539 73.7779 29.6527L69.2181 19.234Z" fill="white"/>
<path fill-rule="evenodd" clip-rule="evenodd" d="M43.1463 15.1882H25.68C22.997 15.1882 20.5684 16.7763 19.4927 19.2343L19.2507 19.7871L29.314 32.0661L43.1463 15.1882ZM18.3822 21.7717L14.9329 29.6529C14.5155 30.6067 14.3323 31.6222 14.3714 32.6234H27.2758L18.3822 21.7717ZM14.7319 34.5531C15.0125 35.3714 15.4526 36.1421 16.0445 36.8164L39.2792 63.2855C40.0792 64.1968 41.0632 64.8371 42.1218 65.2064L28.6835 34.5531H14.7319ZM44.6734 65.5764C44.5804 65.5808 44.4873 65.5832 44.3942 65.5837L30.7905 34.5531H58.274L44.6734 65.5764ZM47.0152 65.0409C47.9107 64.6581 48.7395 64.073 49.4308 63.2855L72.6655 36.8164C73.2574 36.1421 73.6974 35.3714 73.9781 34.5531H60.381L47.0152 65.0409ZM74.3386 32.6234C74.3777 31.6222 74.1945 30.6067 73.777 29.6529L70.4512 22.0536L61.7887 32.6234H74.3386ZM69.5826 20.0691L69.2172 19.2343C68.1415 16.7763 65.7129 15.1882 63.0299 15.1882H45.9182L59.7505 32.0661L69.5826 20.0691ZM44.5322 16.5414L31.3522 32.6234H57.7122L44.5322 16.5414Z" fill="black"/>
</g>
<defs>
<clipPath id="clip0_7367_368">
<rect width="75" height="75" fill="white" transform="translate(0.5)"/>
</clipPath>
</defs>
</svg>
