<svg id="Layer_1" data-name="Layer 1" xmlns="http://www.w3.org/2000/svg" viewBox="0 0 89.5 35"><title>calm-logo</title><path d="M432,308.34c.5-.67,1-1.34,1.49-2a10.4,10.4,0,0,1,3.19-2.86,3.93,3.93,0,0,1,4.7.61,6.64,6.64,0,0,1,1.82,3.16l.05.17c.09-.13.15-.21.2-.3a9.42,9.42,0,0,1,2.85-3.26,4.31,4.31,0,0,1,5.41.37,8.48,8.48,0,0,1,1.28,1.87c.33.59.57,1.23.84,1.85a5.67,5.67,0,0,0,2.14,2.6,5.49,5.49,0,0,0,2.81.78,7.2,7.2,0,0,0,3.11-.48c.83-.34,1.68-.65,2.52-1a.67.67,0,0,1,.88.21.63.63,0,0,1-.2.89,10.59,10.59,0,0,1-2.61,1.55,12,12,0,0,1-4.59,1.16,6.65,6.65,0,0,1-6.45-3.72c-.38-.72-.61-1.52-.93-2.28a6.37,6.37,0,0,0-.63-1.25,1.21,1.21,0,0,0-1.66-.39,3.15,3.15,0,0,0-1.39,1.36c-.56,1.07-1,2.19-1.55,3.27a13,13,0,0,1-1.13,2,1.78,1.78,0,0,1-3-.18,3.26,3.26,0,0,1-.45-1.29c-.1-.82-.08-1.66-.15-2.48a13,13,0,0,0-.31-1.85,2.16,2.16,0,0,0-.45-.79,1.52,1.52,0,0,0-2.05-.36,7.31,7.31,0,0,0-2.06,1.73,19.41,19.41,0,0,0-2.69,4.15,8.42,8.42,0,0,1-.64,1.09,1.42,1.42,0,0,1-2.63-.85c0-.78-.07-1.57-.15-2.36a2.79,2.79,0,0,0-.26-.75.33.33,0,0,0-.54-.17c-.51.35-1,.69-1.51,1.06-1.23.93-2.45,1.88-3.68,2.8a4.15,4.15,0,0,1-6-1,12.14,12.14,0,0,1-1.89-3.79c0-.1-.07-.21-.11-.36-.08.11-.14.18-.19.26a23.05,23.05,0,0,1-3.07,3.89,6,6,0,0,1-2.87,1.7,3.17,3.17,0,0,1-3.39-.94,8,8,0,0,1-.73-1.28,2.2,2.2,0,0,1-.13-.35c-1,2-2.55,3.09-4.82,2.7-1.83-.31-2.73-1.64-3.17-3.39-.26.23-.49.45-.74.65a18.11,18.11,0,0,1-7.79,4.08,14.51,14.51,0,0,1-4.55.36,8.34,8.34,0,0,1-6.69-4.49,11.23,11.23,0,0,1-1.4-4.49,23.81,23.81,0,0,1,3.58-15.12,25.53,25.53,0,0,1,9.78-9.29,12.36,12.36,0,0,1,5.22-1.55c3.24-.19,5.16,1.84,5.79,4.56a6.66,6.66,0,0,1,.12,1,1,1,0,0,1-.89,1.07,1,1,0,0,1-1.13-.86,4.81,4.81,0,0,0-.79-1.86,2.77,2.77,0,0,0-3.14-1.14,12.87,12.87,0,0,0-4.69,2.16A24.13,24.13,0,0,0,380,299.7a17.43,17.43,0,0,0-.42,4.55,9.81,9.81,0,0,0,1.36,4.91,5.1,5.1,0,0,0,3.67,2.32,10,10,0,0,0,5.87-.91,23.81,23.81,0,0,0,7.88-5.75,6.77,6.77,0,0,1,3.74-2.35,4,4,0,0,1,3.28.51,3.89,3.89,0,0,1,1.44,2.24c.34,1.32.62,2.66.93,4l.09.33a1.27,1.27,0,0,0,2,.7,6.85,6.85,0,0,0,2-2c1-1.39,1.91-2.82,2.84-4.25a1,1,0,0,0,.13-.63,50.89,50.89,0,0,1-.29-8.64c.08-1.78.21-3.57.39-5.34a18.25,18.25,0,0,1,1.35-5.63,6.76,6.76,0,0,1,.94-1.54,2.23,2.23,0,0,1,3.55.12,6.39,6.39,0,0,1,1.11,2.71,16.94,16.94,0,0,1,.21,5.27,34,34,0,0,1-3.62,12,2.55,2.55,0,0,0-.24,1.83,22.59,22.59,0,0,0,1.08,3.8,4.74,4.74,0,0,0,1,1.66,1.13,1.13,0,0,0,1.35.27,7.28,7.28,0,0,0,1.25-.78,32.57,32.57,0,0,1,3.83-2.79,5.52,5.52,0,0,1,1.92-.72,3,3,0,0,1,3.29,2.12Zm-32.55.32c0,.26.05.51.1.76A1.58,1.58,0,0,0,402,310.6a2.93,2.93,0,0,0,1.46-1.56c.33-.82.55-1.67.81-2.51a.4.4,0,0,0,0-.24,1.52,1.52,0,0,0-2-1.12A3.74,3.74,0,0,0,399.49,308.66Zm19.58-24h-.18c-.15.47-.32.94-.44,1.42a28.09,28.09,0,0,0-.69,5.32c-.09,2.17-.13,4.33-.19,6.5,0,.11,0,.22,0,.4l.09-.14a21.66,21.66,0,0,0,1.73-12C419.35,285.67,419.19,285.16,419.07,284.65Z" transform="translate(-375.94 -280.05)"/></svg>