<svg width="76" height="75" viewBox="0 0 76 75" fill="none" xmlns="http://www.w3.org/2000/svg">
<g clip-path="url(#clip0_7367_342)">
<path fill-rule="evenodd" clip-rule="evenodd" d="M71.5306 42.3869H72.51C73.0502 42.3869 73.4896 41.9447 73.4896 41.4013V29.9774C73.4896 22.2551 70.8618 15.5327 65.8902 10.5368C57.5166 2.12192 45.2138 1.21305 40.3128 1.21305C40.05 1.21305 39.8031 1.31676 39.6178 1.50448C39.4322 1.69281 39.3314 1.94178 39.3334 2.20562L39.3413 3.18152L42.8993 3.18243C51.1856 3.63883 58.2334 6.21959 63.2811 10.6457C68.6779 15.3754 71.5306 22.0392 71.5306 29.917V42.3869ZM72.51 43.5999H70.3234V29.917C70.3234 22.4004 67.6138 16.0522 62.4876 11.5597C57.6476 7.31588 50.8576 4.83854 42.8498 4.39456H38.1438L38.1262 2.21623C38.1211 1.62609 38.3463 1.07021 38.7603 0.650496C39.1744 0.231085 39.7255 0 40.3128 0C45.3641 0 58.0511 0.943447 66.7437 9.67889C71.9465 14.9074 74.6968 21.9264 74.6968 29.9774V41.4013C74.6968 42.6137 73.7157 43.5999 72.51 43.5999Z" fill="#FEFEFE"/>
<path fill-rule="evenodd" clip-rule="evenodd" d="M36.409 47.4213H64.7424V29.911C64.7424 23.8649 62.6364 19.0412 58.4833 15.5528C54.6232 12.3124 49.115 10.3931 42.5543 10.0019H38.6867L38.4377 10.2703C38.0538 10.6812 37.5076 11.2637 36.8523 11.9615L36.5297 12.3045C35.263 13.651 33.6568 15.3584 32.0503 17.0606L25.4824 24.0235L25.4836 24.0247L25.1157 24.4135L24.9745 24.6494L24.9069 24.65C24.6833 24.9787 24.6742 25.4127 24.8981 25.7499L30.876 34.7695C31.1552 35.1917 31.7023 35.3327 32.1481 35.0964L45.385 28.0917L44.4916 30.9108C43.7806 33.1547 42.5423 35.0961 41.2315 37.1519L41.2007 37.198C39.3603 40.0836 37.4547 43.0704 36.409 47.4213ZM65.346 48.6343H34.909L35.0632 47.9023C36.109 42.9318 38.2775 39.5332 40.1903 36.5345L40.2205 36.4887C41.5369 34.4247 42.6784 32.6346 43.3411 30.543L43.3417 30.5415L43.3411 30.5418L32.7098 36.1703C31.7147 36.6955 30.4942 36.3832 29.871 35.4419L23.894 26.4229C23.4235 25.7151 23.4121 24.8168 23.8195 24.1081L23.7766 24.0668L24.0769 23.7496C24.1104 23.7114 24.1457 23.6741 24.1826 23.6377L24.7922 22.9915L31.1739 16.2263C32.7804 14.5241 34.386 12.8173 35.6524 11.4712L35.9744 11.1288C36.6284 10.4319 37.1741 9.84993 37.5564 9.44113L38.1598 8.78882L42.6077 8.79003C49.4364 9.19398 55.1936 11.211 59.2574 14.6221C63.6354 18.2994 65.9496 23.5789 65.9496 29.8897V48.6313L65.346 48.6343Z" fill="#FEFEFE"/>
<path fill-rule="evenodd" clip-rule="evenodd" d="M30.7106 60.4582H70.5726V55.2236C70.5726 54.682 70.1332 54.2414 69.593 54.2414H31.6899C31.15 54.2414 30.7106 54.682 30.7106 55.2236V60.4582ZM71.7799 61.6713H29.5034V55.2236C29.5034 54.013 30.4842 53.0283 31.6899 53.0283H69.593C70.7987 53.0283 71.7799 54.013 71.7799 55.2236V61.6713Z" fill="#FEFEFE"/>
<mask id="mask0_7367_342" style="mask-type:alpha" maskUnits="userSpaceOnUse" x="25" y="66" width="52" height="9">
<path d="M25.1294 66.0657H76.1529V75H25.1294V66.0657Z" fill="white"/>
</mask>
<g mask="url(#mask0_7367_342)">
<path fill-rule="evenodd" clip-rule="evenodd" d="M26.3367 67.2787V72.8044C26.3367 73.3464 26.7761 73.787 27.3163 73.787H73.9663C74.5062 73.787 74.9456 73.3464 74.9456 72.8044V67.2787H26.3367ZM73.9663 75.0001H27.3163C26.1103 75.0001 25.1294 74.0151 25.1294 72.8044V66.0657H76.1529V72.8044C76.1529 74.0151 75.172 75.0001 73.9663 75.0001Z" fill="#FEFEFE"/>
</g>
<path fill-rule="evenodd" clip-rule="evenodd" d="M34.0534 20.8614H34.045H34.0368H31.1697C31.1667 20.4763 31.1634 20.0851 31.16 19.6908C31.1543 19.0328 31.6822 18.499 32.3347 18.499C35.7303 18.499 44.1893 19.1389 49.9691 24.9464C53.4206 28.4126 55.251 33.0738 55.251 38.4385V46.1534C55.251 46.8054 54.7253 47.3331 54.0764 47.3331H52.9015V38.396C52.9015 32.9828 50.8869 28.7341 47.5067 25.7712C44.1331 22.8144 39.4226 21.1556 34.0534 20.8614Z" fill="#1D1D1F"/>
<mask id="mask1_7367_342" style="mask-type:alpha" maskUnits="userSpaceOnUse" x="30" y="18" width="26" height="30">
<path d="M30.8577 18.1958H55.5523V47.6363H30.8577V18.1958Z" fill="white"/>
</mask>
<g mask="url(#mask1_7367_342)">
<path fill-rule="evenodd" clip-rule="evenodd" d="M53.2027 47.0292H54.0759C54.5572 47.0292 54.9487 46.6358 54.9487 46.1524V38.4378C54.9487 33.1634 53.1529 28.5724 49.7552 25.1601C44.0433 19.4212 35.6694 18.8016 32.3341 18.8016C32.0993 18.8016 31.8793 18.8938 31.7142 19.0609C31.5488 19.2283 31.4592 19.4509 31.4613 19.6874L31.4686 20.5575L34.0692 20.5581C39.6158 20.8616 44.3309 22.5851 47.7045 25.5419C51.3017 28.6949 53.2027 33.1395 53.2027 38.3953V47.0292ZM54.0759 47.6357H52.5991V38.3953C52.5991 33.3199 50.7693 29.0333 47.3079 25.9992C44.0381 23.1334 39.4519 21.4615 34.0445 21.164H30.8698L30.8576 19.6926C30.8541 19.2932 31.0062 18.9171 31.2854 18.6339C31.5648 18.3509 31.9373 18.1951 32.3341 18.1951C35.7445 18.1951 44.3107 18.8322 50.182 24.7313C53.6953 28.2594 55.5523 32.9991 55.5523 38.4378V46.1524C55.5523 46.9703 54.8898 47.6357 54.0759 47.6357Z" fill="#1D1D1F"/>
</g>
<path fill-rule="evenodd" clip-rule="evenodd" d="M27.0592 42.3503C26.5262 42.6323 25.8677 42.4655 25.5339 41.9591L21.4978 35.8696L21.2464 36.0394L21.4978 35.8696C21.1836 35.3965 21.2509 34.7657 21.6581 34.3684L21.6626 34.3624L21.6668 34.3593L21.448 34.1501C21.6668 34.3593 21.6671 34.3593 21.6671 34.3593H21.6674L21.6686 34.3563L21.6738 34.3533L21.694 34.329L21.7728 34.2471L22.0722 33.9287C22.3299 33.6558 22.6984 33.2676 23.1402 32.7975C24.0242 31.8605 25.2031 30.611 26.3816 29.3616C27.5605 28.1122 28.7393 26.8597 29.6233 25.9196C30.0655 25.4465 30.434 25.0553 30.6923 24.7793C30.8212 24.6398 30.9232 24.5306 30.9929 24.4548C30.9995 24.4457 31.0059 24.4397 31.0119 24.4336H33.8622C38.3056 24.6944 42.1772 25.9893 44.9327 28.3032C47.6812 30.611 49.3432 33.953 49.3432 38.3776V38.3927V38.4079V38.423V38.4382V38.4534V38.4685V38.4837V38.4989V38.514V38.5292V38.5443V38.5595V38.5747V38.5929V38.608V38.6232V38.6384V38.6566V38.6717V38.6869V38.7051V38.7202V38.7354V38.7536V38.7688V38.787V38.8021V38.8203V38.8355V38.8537V38.8688V38.887V38.9052V38.9204V38.9386V38.9568V38.9719V38.9901V39.0083V39.0265V39.0417V39.0599V39.0781V39.0963V39.1145V39.1327V39.1509V39.1691V39.1873V39.2055V39.2237V39.2418V39.26V39.2782V39.2964V39.3146V39.3328V39.3541V39.3723V39.3904V39.4086V39.4268V39.4481V39.4663V39.4845V39.5057V39.5239V39.5421V39.5633V39.5815V39.6027V39.6209V39.6422V39.6604V39.6816V39.6998V39.721V39.7392V39.7604V39.7786V39.7999V39.8211V39.8393V39.8605V39.8817V39.8999V39.9212V39.9424V39.9636V39.9848V40.003V40.0243V40.0455V40.0667V40.0879V40.1092V40.1304V40.1516V40.1729V40.1941V40.2153V40.2365V40.2578V40.279V40.3002V40.3215V40.3427V40.3639V40.3851V40.4064V40.4276V40.4519V40.4731V40.4943V40.5155V40.5398V40.561V40.5823V40.6035V40.6278V40.649V40.6702V40.6945V40.7157V40.74V40.7612V40.7824V40.8067V40.8279V40.8522V40.8734V40.8977V40.9189V40.9431V40.9644V40.9886V41.0129V41.0341V41.0584V41.0826V41.1039V41.1281V41.1524V41.1736V41.1979V41.2221V41.2434V41.2676V41.2919V41.3162V41.3374V41.3616V41.3859V41.4102V41.4344V41.4587V41.483V41.5042V41.5284V41.5527V41.577V41.6012V41.6255V41.6497V41.674V41.6983V41.7225V41.7468V41.7711V41.7953V41.8196V41.8438V41.8681V41.8954V41.9196V41.9439V41.9682V41.9924V42.0167V42.041V42.0682V42.0925V42.1168V42.141V42.1683V42.1926V42.2168V42.2411V42.2684V42.2927V42.3169V42.3442V42.3685V42.3927V42.42V42.4443V42.4686V42.4958V42.5201V42.5474V42.5717V42.5959V42.6232V42.6475V42.6748V42.699V42.7263V42.7506V42.7779V42.8021V42.8294V42.8537V42.881V42.9052V42.9325V42.9598V42.9841V43.0114V43.0357V43.0629V43.0902V43.1145V43.1418V43.1691V43.1933V43.2206V43.2479V43.2722V43.2995V43.3268V43.351V43.3783V43.4056V43.4329V43.4572V43.4845V43.5118V43.5391V43.5633V43.5906V43.6179V43.6452V43.6725V43.6968V43.7241V43.7513V43.7786V43.8059V43.8332V43.8575V43.8848V43.9121V43.9394V43.9667V43.994V44.0213V44.0485V44.0758V44.1031V44.1304V44.1547V44.182V44.2093V44.2366V44.2639V44.2912V44.3184V44.3457V44.373V44.4003V44.4276V44.4549V44.4822V44.5095V44.5368V44.5641V44.5914V44.6187V44.646V44.6763V44.7036V44.7309V44.7582V44.7855V44.8128V44.8401V44.8673V44.8946V44.9219V44.9492V44.9765V45.0068V45.0341V45.0614V45.0887V45.116V45.1433V45.1706V45.2009V45.2282V45.2555V45.2828V45.3101V45.3374V45.3647V45.395V45.4223V45.4496V45.4769V45.5042V45.5345V45.5618V45.5891V45.6164V45.6437V45.671V45.7013V45.7286V45.7559V45.7832V45.8135V45.8408V45.8681V45.8954V45.9227V45.953V45.9803V46.0076V46.0349V46.0652V46.0925V46.1198V46.1471V46.1744V46.2047V46.232V46.2593V46.2866V46.3169V46.3442V46.3715V46.3988V46.4291V46.4564V46.4837V46.511V46.5414V46.5686V46.5959V46.6232V46.6536V46.6809V46.7081V46.7354V46.7658V46.7931V46.8204V46.8476V46.878V46.9053V46.9326V46.9629V46.9902V47.0175V47.0448V47.0751V47.1024V47.1297V47.157V47.1873V47.2146V47.2419V47.2692V47.2965V47.3268V47.3541V47.3814V47.4087V47.439V47.4663V47.4936V47.5209V47.5512V47.5785V47.6058V47.6331V47.6634V47.6907V47.718V47.7453V47.7726V47.8029V47.8302V47.8575V47.8848V47.9121V47.9424V47.9697V47.997V48.0243V48.0516V48.0819V48.1092V48.1365V48.1638V48.1911V48.2184V48.2487V48.276V48.3033V48.3306V48.3579V48.3852V48.4125V48.4428V48.4701V48.4974V48.5247V48.552V48.5793V48.6066V48.6339V48.6611V48.6915V48.7188V48.7461V48.7734V48.8007V48.8279V48.8552V48.8825V48.9098V48.9371V48.9644V48.9917V49.019V49.0463V49.0736V49.1009V49.1282V49.1555V49.1828V49.2101V49.2373V49.2646V49.2919V49.3192V49.3465V49.3738V49.4011V49.4284V49.4557V49.483V49.5103V49.5376V49.5649V49.5891V49.6164V49.6437V49.671V49.6983V49.7256V49.7529V49.7802V49.8044V49.8317V49.859V49.8863V49.9136V49.9379V49.9652V49.9925V50.0198V50.0471V50.0713V50.0986V50.1259V50.1532V50.1775V50.2048V50.232V50.2563V50.2836V50.3109V50.3352V50.3624V50.3897V50.414V50.4413V50.4686V50.4929V50.5201V50.5444V50.5717V50.599V50.6233V50.6505V50.6748V50.7021V50.7264V50.7324H29.0574C29.7413 47.3662 31.1746 45.116 32.5049 43.0296L32.5173 43.0114C33.4082 41.6134 34.2065 40.3639 34.6662 38.9113L34.8895 38.2077L34.2379 38.5504L27.0592 42.3503Z" fill="#1D1D1F"/>
<path fill-rule="evenodd" clip-rule="evenodd" d="M29.4317 50.4299H49.0424V38.3783C49.0424 34.2449 47.5949 30.9336 44.7401 28.5369C42.0927 26.314 38.3253 24.9999 33.8456 24.737L31.1444 24.7376L29.8443 26.1278C28.9594 27.0691 27.7805 28.3216 26.6014 29.5713L23.36 33.007C23.0356 33.3524 22.75 33.6538 22.5195 33.8976L22.0939 34.3489L22.1283 34.3819L21.9131 34.5518L21.8645 34.6603L21.8009 34.6613C21.5606 34.9566 21.5353 35.3788 21.7493 35.702L21.7499 35.7023L21.9165 35.9538L25.7859 41.7918C26.0343 42.1688 26.5217 42.294 26.9195 42.083L35.4008 37.5977L34.9544 39.0043C34.4851 40.4881 33.6588 41.7846 32.7838 43.1577L32.7666 43.1841C31.4665 45.222 30.1304 47.3173 29.4317 50.4299ZM49.3442 51.0365H28.6887L28.7626 50.6725C29.4586 47.2469 30.9425 44.9197 32.2518 42.8669L32.2696 42.8402C33.1653 41.4343 33.9337 40.2282 34.3795 38.8205L34.3798 38.8196L34.3789 38.8199L27.2005 42.6194C26.5268 42.9764 25.7029 42.7644 25.2831 42.1272L21.079 35.7885L21.1064 35.77C20.9232 35.313 20.9791 34.792 21.2546 34.3838L21.2407 34.3707L21.3723 34.2318C21.3889 34.2127 21.4061 34.1945 21.4242 34.176L21.4435 34.1409L21.4785 34.119L22.0818 33.4797C22.3124 33.2362 22.597 32.9354 22.9218 32.5903L26.1635 29.154C27.3423 27.9046 28.5209 26.6521 29.4048 25.712L30.89 24.1311H33.8631C38.4907 24.4022 42.3797 25.7645 45.1271 28.0711C48.0832 30.5533 49.646 34.1175 49.646 38.3783V51.0301L49.3442 51.0365Z" fill="#1D1D1F"/>
<path fill-rule="evenodd" clip-rule="evenodd" d="M25.3373 55.4881C25.3373 54.8361 25.8634 54.3054 26.5123 54.3054H52.1065C52.7554 54.3054 53.2815 54.8361 53.2815 55.4881V59.5367H25.3373V55.4881Z" fill="#1D1D1F"/>
<path fill-rule="evenodd" clip-rule="evenodd" d="M25.6387 59.2332H52.9792V55.4876C52.9792 55.003 52.5875 54.6085 52.1061 54.6085H26.5118C26.0305 54.6085 25.6387 55.003 25.6387 55.4876V59.2332ZM53.5828 59.8397H25.0351V55.4876C25.0351 54.6685 25.6976 54.002 26.5118 54.002H52.1061C52.9204 54.002 53.5828 54.6685 53.5828 55.4876V59.8397Z" fill="#1D1D1F"/>
<path fill-rule="evenodd" clip-rule="evenodd" d="M22.3842 67.3571V63.1084H56.2346V67.3571C56.2346 68.0091 55.7086 68.5368 55.0597 68.5368H23.5588C22.9102 68.5368 22.3842 68.0091 22.3842 67.3571Z" fill="#1D1D1F"/>
<path fill-rule="evenodd" clip-rule="evenodd" d="M22.6865 63.4122V67.3579C22.6865 67.841 23.0779 68.234 23.5593 68.234H55.0602C55.5416 68.234 55.9333 67.841 55.9333 67.3579V63.4122H22.6865ZM55.0602 68.8406H23.5593C22.7454 68.8406 22.0829 68.1755 22.0829 67.3579V62.8057H56.5369V67.3579C56.5369 68.1755 55.8745 68.8406 55.0602 68.8406Z" fill="#1D1D1F"/>
</g>
<defs>
<clipPath id="clip0_7367_342">
<rect width="75" height="75" fill="white" transform="translate(0.5)"/>
</clipPath>
</defs>
</svg>
