<?xml version="1.0" encoding="UTF-8"?>
<svg width="125px" height="57px" viewBox="0 0 125 57" version="1.1" xmlns="http://www.w3.org/2000/svg" xmlns:xlink="http://www.w3.org/1999/xlink">
    <title>Wizz_Air_logo</title>
    <g id="Main" stroke="none" stroke-width="1" fill="none" fill-rule="evenodd">
        <g id="SUP_Lending_Social-activities_2" transform="translate(-839.000000, -2658.000000)" fill="#000000">
            <g id="Wizz_Air_logo" transform="translate(839.000000, 2658.000000)">
                <g id="g2498" transform="translate(62.089492, 28.500000) scale(-1, 1) rotate(-180.000000) translate(-62.089492, -28.500000) translate(0.000000, 0.000000)">
                    <polyline id="path2504" points="88.8020825 48.2094095 124.178984 48.2094095 99.603368 16.3786544 117.172012 16.3786544 115.736532 7.41651773 80.7013304 7.41651773 104.627801 39.2472728 88.8020825 39.2472728 88.8020825 48.2094095"></polyline>
                    <polyline id="path2506" points="62.0723139 52.7418395 100.559959 52.7418395 72.9761941 17.2716484 88.1183431 17.2716484 80.7013304 7.41651773 52.2625524 7.41651773 78.7187914 42.8872199 59.7139894 42.9211203 62.0723139 52.7418395"></polyline>
                    <polyline id="path2508" points="57.5260911 16.4132362 47.9556045 16.4132362 54.4843664 57 64.1230234 57 57.5260911 16.4132362"></polyline>
                    <path d="M51.134518,12.4298561 C54.5187908,12.4298561 57.2869858,9.64900268 57.2869858,6.21467253 C57.2869858,2.7810238 54.5187908,-5.04348202e-15 51.134518,-5.04348202e-15 C47.7163296,-5.04348202e-15 44.9474562,2.7810238 44.9474562,6.21467253 C44.9474562,9.64900268 47.7163296,12.4298561 51.134518,12.4298561" id="path2510"></path>
                    <polyline id="path2512" points="0 50.4752838 5.29799701 7.41651773 13.4330378 7.41651773 25.6353786 31.8302441 27.4471524 7.41651773 35.4458184 7.41651773 56.7060108 50.4752838 44.7771997 50.4752838 34.5224649 27.2979844 32.8823043 50.4752838 23.516329 50.4752838 12.6468731 27.2979844 10.8695746 50.4752838 0 50.4752838"></polyline>
                </g>
            </g>
        </g>
    </g>
</svg>