<?xml version="1.0" encoding="UTF-8"?>
<svg width="83px" height="80px" viewBox="0 0 83 80" version="1.1" xmlns="http://www.w3.org/2000/svg" xmlns:xlink="http://www.w3.org/1999/xlink">
    <title>horse-toys</title>
    <g id="Main" stroke="none" stroke-width="1" fill="none" fill-rule="evenodd">
        <g id="SUP_Lending_Social-activities_2" transform="translate(-454.000000, -2647.000000)" fill="#000000" fill-rule="nonzero">
            <g id="horse-toys" transform="translate(454.000000, 2647.000000)">
                <path d="M75.4944943,11.1830365 L76.2509505,15.4355359 C81.370538,29.9182954 72.2728013,30.06656 68.6796344,22.3298416 C65.6808258,21.1437245 63.762669,21.9254835 63.2831298,25.3490488 L66.9776079,42.2579569 L66.8357724,56.6396269 C69.0376002,53.8225988 70.7936593,50.5405588 71.9418517,46.8137249 C72.8604057,43.8349535 76.021312,42.1636067 79.0066124,43.0801517 C81.9919127,43.9966968 83.6669229,47.15069 82.7483689,50.1294614 C79.6820197,60.103628 73.4277479,67.7594748 65.6132851,72.834169 C58.6971141,77.3292833 50.5517018,79.7756499 42.3387487,79.9845682 C34.1122875,80.2002259 25.7912692,78.1582174 18.5373946,73.6900604 C10.6351289,68.8175452 4.04990745,61.0943054 0.308150875,50.2979439 C-0.704960112,47.3596084 0.861984882,44.1517007 3.80676082,43.1408055 C6.75153675,42.1299102 9.96647562,43.6934282 10.9795866,46.6317638 C12.0399761,49.6914068 13.3907908,52.4140847 14.9712439,54.8132761 L15.1063254,42.8240583 C15.3899964,39.9328978 16.4166156,37.1428269 18.5171324,34.5144992 L12.4587286,34.5144992 C7.12301078,34.1101411 6.52865234,27.8425905 12.4587286,26.582341 L28.6617504,26.582341 C28.8913889,29.9856884 30.3705309,33.0520707 32.6398995,35.3232154 C35.1186444,37.7965392 38.5429595,39.3263607 42.3252406,39.3263607 C46.1075216,39.3263607 49.5318367,37.7965392 52.0105816,35.3232154 C54.4893265,32.8498917 56.0225011,29.4330657 56.0225011,25.6590567 C56.0225011,21.8850477 54.4893265,18.4682217 52.0105816,15.994898 C50.3153092,14.3033332 48.1810221,13.0565624 45.7900801,12.4298073 C47.9851539,8.38622627 51.6593698,4.76722122 57.1369232,1.6469245 C62.4793951,-0.401823233 68.551307,-0.853356451 76.1631475,2.11867563 C79.1687101,3.46653598 80.8639825,4.82113563 80.3439189,6.16899599 C79.8441174,7.47642053 78.8985472,7.44272402 77.8584199,7.732514 C76.2171801,8.19078652 75.3053802,9.23537829 75.4944943,11.1830365 L75.4944943,11.1830365 Z M61.2501538,62.1119399 C57.8258387,38.8748274 24.6700931,38.6456912 20.7594847,61.3975739 C21.9414475,62.4084692 23.184197,63.3047963 24.4674709,64.1000339 C29.7896806,67.3820739 35.9426413,68.8714596 42.0685858,68.7164557 C48.2080384,68.5614517 54.2867043,66.7283616 59.4535703,63.3721894 C60.068191,62.9745706 60.6693035,62.5567338 61.2501538,62.1119399 L61.2501538,62.1119399 Z M31.9712463,26.5756017 L43.4058923,26.5756017 C42.9331071,22.6533281 43.2167782,18.9399728 44.4257573,15.4894503 C46.4519793,15.907287 48.2620709,16.911443 49.6736722,18.3132178 C51.5513046,20.1867437 52.7197593,22.7813748 52.7197593,25.6455781 C52.7197593,28.5097813 51.5580587,31.1044125 49.6736722,32.9779384 C47.7960399,34.8514643 45.1957217,36.0173635 42.3252406,36.0173635 C39.4547594,36.0173635 36.8544412,34.8582036 34.9768089,32.9779384 C33.3017987,31.3133309 32.1941307,29.0758827 31.9712463,26.5756017 L31.9712463,26.5756017 Z M70.8882163,10.56976 L70.8882163,10.56976 C71.6446725,10.56976 72.2660473,11.1897758 72.2660473,11.9445776 L72.2660473,13.2789593 C72.2660473,14.0337611 71.6446725,14.6537769 70.8882163,14.6537769 L70.8882163,14.6537769 C70.1317601,14.6537769 69.5103854,14.0337611 69.5103854,13.2789593 L69.5103854,11.9445776 C69.5103854,11.1830365 70.125006,10.56976 70.8882163,10.56976 L70.8882163,10.56976 Z" id="Shape"></path>
            </g>
        </g>
    </g>
</svg>