<?xml version="1.0" encoding="UTF-8"?>
<svg id="_Шар_1" data-name="Шар 1" xmlns="http://www.w3.org/2000/svg" version="1.1" viewBox="0 0 566.93 566.93">
  <defs>
    <style>
      .cls-1 {
        fill: #000;
      }

      .cls-1, .cls-2, .cls-3, .cls-4, .cls-5, .cls-6, .cls-7, .cls-8, .cls-9 {
        stroke-width: 0px;
      }

      .cls-2 {
        fill: #224155;
      }

      .cls-10 {
        fill: none;
        stroke: #fff;
        stroke-miterlimit: 10;
        stroke-width: 3px;
      }

      .cls-3 {
        fill: #d8bd8e;
      }

      .cls-4 {
        fill: #234156;
      }

      .cls-5 {
        fill: #444;
      }

      .cls-6 {
        fill: #fff;
      }

      .cls-7 {
        fill: #6dcca8;
      }

      .cls-8 {
        fill: #dfc595;
      }

      .cls-9 {
        fill: #26475f;
      }
    </style>
  </defs>
  <g>
    <polygon class="cls-6" points="73.37 399.78 73.37 166.8 284.92 49.88 493.4 166.8 493.4 399.78 287.5 518.54 73.37 399.78"/>
    <path class="cls-6" d="M62.57,242.8c0-26.84,0-53.68-.05-80.51,0-1.46.45-2.22,1.69-2.91,37.56-20.92,75.1-41.88,112.65-62.82,34.68-19.35,69.37-38.68,104.05-58.03,1.14-.64,2.22-1.38,3.33-2.07.31,0,.62,0,.94,0,5.1,2.95,10.17,5.96,15.32,8.83,42.61,23.81,85.23,47.6,127.85,71.39,25.4,14.18,50.8,28.35,76.23,42.46,1.57.87,2.21,1.81,2.21,3.64-.06,26.67-.04,53.35-.04,80.02-5.53-.01-11.05-.02-16.58-.03-.02-1.02-.05-2.04-.05-3.07,0-23.04-.02-46.07.04-69.11,0-1.72-.53-2.67-2.03-3.5-9.75-5.43-19.45-10.97-29.18-16.45-8.09-4.56-16.19-9.08-24.29-13.62-8.05-4.6-16.09-9.24-24.17-13.8-10.52-5.95-21.06-11.84-31.6-17.76-11.44-6.51-22.88-13.04-34.33-19.52-9.29-5.26-18.61-10.46-27.91-15.69-10.04-5.72-20.11-11.39-30.09-17.2-1.8-1.05-3.09-.98-4.87.02-24.38,13.86-48.81,27.64-73.21,41.46-7.12,4.04-14.21,8.15-21.31,12.22,0,0,.02-.02.02-.02-.61.34-1.21.68-1.82,1.03-.29.11-.59.19-.86.34-35.04,19.81-70.08,39.63-105.15,59.39-1.44.81-1.52,1.77-1.27,3.08-.03,1.26-.1,2.51-.1,3.77,0,22.81-.01,45.62-.01,68.43-5.14,0-10.27.02-15.41.03Z"/>
    <path class="cls-6" d="M506.95,324.38c0,26.84,0,53.68.05,80.51,0,1.46-.45,2.22-1.69,2.91-37.58,20.92-75.13,41.88-112.7,62.82-34.7,19.35-69.4,38.68-104.1,58.03-1.14.64-2.22,1.38-3.33,2.07-.31,0-.63,0-.94,0-5.11-2.95-10.18-5.96-15.32-8.83-42.63-23.81-85.27-47.6-127.92-71.39-25.41-14.18-50.82-28.35-76.26-42.46-1.57-.87-2.21-1.81-2.21-3.64.06-26.67.04-53.35.04-80.02,5.53.01,11.06.02,16.58.03.02,1.02.05,2.04.05,3.07,0,23.04.02,46.07-.04,69.11,0,1.72.53,2.67,2.03,3.5,9.76,5.43,19.46,10.97,29.19,16.45,8.09,4.56,16.2,9.08,24.3,13.62,8.06,4.6,16.1,9.24,24.18,13.8,10.52,5.95,21.07,11.84,31.61,17.76,11.45,6.51,22.89,13.04,34.35,19.52,9.29,5.26,18.61,10.46,27.92,15.69,10.04,5.72,20.12,11.39,30.11,17.2,1.8,1.05,3.09.98,4.87-.02,24.39-13.86,48.83-27.64,73.24-41.46,7.13-4.04,14.21-8.15,21.32-12.22,0,0-.02.02-.02.02.61-.34,1.21-.68,1.82-1.03.29-.11.59-.19.86-.34,35.06-19.81,70.11-39.63,105.2-59.39,1.44-.81,1.52-1.77,1.27-3.08.03-1.26.1-2.51.1-3.77,0-22.81.01-45.62.01-68.43,5.14,0,10.28-.02,15.42-.03Z"/>
    <path class="cls-5" d="M65.22,242.95c0-26.3,0-52.59-.05-78.89,0-1.43.44-2.17,1.67-2.85,37.1-20.5,74.17-41.03,111.26-61.55,34.26-18.96,68.52-37.9,102.77-56.86,1.13-.62,2.19-1.35,3.29-2.03.31,0,.62,0,.93,0,5.04,2.89,10.05,5.84,15.13,8.66,42.09,23.33,84.18,46.64,126.28,69.95,25.08,13.89,50.17,27.78,75.29,41.61,1.55.85,2.18,1.77,2.18,3.57-.06,26.13-.04,52.27-.04,78.41-5.46-.01-10.91-.02-16.37-.03-.02-1-.05-2-.05-3,0-22.57-.02-45.14.04-67.71,0-1.69-.53-2.61-2-3.43-9.63-5.32-19.21-10.75-28.82-16.11-7.99-4.46-15.99-8.9-23.99-13.34-7.96-4.51-15.89-9.05-23.87-13.52-10.39-5.83-20.81-11.6-31.21-17.4-11.3-6.38-22.59-12.78-33.91-19.13-9.17-5.15-18.38-10.25-27.57-15.37-9.92-5.6-19.86-11.16-29.72-16.86-1.78-1.03-3.06-.96-4.81.02-24.08,13.58-48.2,27.08-72.31,40.62-7.04,3.95-14.03,7.98-21.05,11.98,0,0,.02-.02.02-.02-.6.34-1.2.67-1.79,1.01-.28.11-.59.19-.85.33-34.61,19.41-69.21,38.83-103.85,58.19-1.42.79-1.5,1.74-1.26,3.02-.03,1.23-.1,2.46-.1,3.69,0,22.35,0,44.7-.01,67.05-5.07,0-10.15.02-15.22.03Z"/>
    <path class="cls-1" d="M65.22,242.95c5.07,0,10.15-.02,15.22-.03,1.74,0,3.47,0,5.21.01,9.95.01,19.89.04,29.84.04,11.8,0,23.59-.05,35.39-.07,8.45.02,16.91.07,25.36.07,12.37,0,24.75-.04,37.12-.07,14.81,0,29.62,0,44.43,0,16.66,0,33.32,0,49.98,0,.92.02,1.84.07,2.77.07,26.31,0,52.63.01,78.94,0,1.92,0,3.84-.05,5.77-.08,29.02.01,58.04.02,87.06.03,1.75,0,3.5-.01,5.25-.02,5.46.01,10.91.02,16.37.03,6.85,0,13.7,0,20.81,0v25.75h42.04c-.62,1.12-.98,1.84-1.4,2.51-8.7,13.9-17.39,27.81-26.16,41.66-.87,1.37-.72,2.21.1,3.45,8.71,13.07,17.36,26.19,26.03,39.29.42.63.8,1.29,1.57,2.54-21.3,0-42.11,0-62.92,0,.04-5.21.07-10.43.11-15.64,1.44-.67,2.93-1.27,4.32-2.03,4.74-2.59,9.44-5.23,14.67-8.13h-19.18c-5.46,0-10.91,0-16.37,0-1.74,0-3.49-.01-5.23-.02-.54-.02-1.08-.05-1.62-.05-42.68,0-85.35,0-128.03.01-.62,0-1.23.04-1.85.07-14.08-.03-28.15-.07-42.23-.07-14.62,0-29.23.04-43.85.07-1-.03-2-.08-3-.08-30.63,0-61.26,0-91.89.01-2.62,0-5.23.04-7.85.07-25.44,0-50.89-.02-76.33-.03-1.74,0-3.48,0-5.22.01-5.05,0-10.09-.02-15.14-.03h-21.79c4,2.67,8.06,4.98,12.17,7.2,3.1,1.68,6.26,3.25,9.39,4.87.03,4.61.06,9.21.09,13.82-6.47-.03-12.95-.08-19.42-.09-14.34-.01-28.67,0-43.01,0H-.28c.56-1.03.89-1.74,1.32-2.39,8.62-13.04,17.22-26.1,25.92-39.09,1.07-1.6,1.03-2.67.03-4.25-8.74-13.79-17.39-27.63-26.07-41.46-.35-.56-.62-1.16-1.1-2.06h41.65v-25.92c8.1,0,15.92,0,23.74,0ZM295.32,311.88c3.75,0,7.21,0,10.67,0,7.32-.02,11.1-3.21,11.8-10.47.55-5.72-.6-10.73-6.72-12.95,3.18-.91,4.89-3.05,5.26-5.99.29-2.26.25-4.62-.07-6.88-.45-3.14-2.42-5.31-5.45-6.3-5.1-1.67-10.31-.52-15.48-.89v43.48ZM283.97,290.02c-.09,0-.19,0-.28-.01,0-3.7.13-7.4-.03-11.09-.28-6.41-4.07-10.43-10.04-10.9-7.51-.6-11.91,2.32-13.08,9.19-.56,3.3-.45,6.74-.43,10.12.04,5.22-.11,10.49.5,15.66.74,6.21,4.61,9.2,10.9,9.35,6.67.16,10.61-2.6,11.67-8.99.72-4.37.56-8.88.79-13.33ZM217.74,294.69c-.32,3.16-.36,6.08-.96,8.88-.61,2.9-2.53,3.96-5.72,3.83-2.82-.12-4.17-1.3-4.83-4.3-.18-.82-.32-1.67-.32-2.51-.02-7.25-.02-14.49.03-21.74,0-.98.19-2,.49-2.94.73-2.3,2.77-3.44,5.51-3.19,3.02.27,4.31,1.39,4.67,4.14.23,1.74.38,3.48.57,5.27h5.32c0-1.77.18-3.4-.03-4.98-.74-5.45-3.36-8.34-8.65-8.98-7.28-.88-12.94,1.19-13.51,8.86-.65,8.71-.56,17.53,0,26.26.36,5.54,3.33,8.03,8.21,8.9,4.16.74,7.66-.25,9.75-4.47q1.84,4.63,4.54,3.78v-21.06h-10.7v4.27h5.63ZM342.74,300.86c.74,3.79,1.44,7.37,2.12,10.89h5.69c-3.1-14.52-6.15-28.83-9.24-43.32-1.53,0-2.9.06-4.27-.02-1.23-.07-1.74.39-2,1.63-2.39,11.43-4.86,22.85-7.29,34.28-.52,2.44-.97,4.89-1.5,7.57,1.47,0,2.62-.09,3.76.02,1.59.15,2.13-.52,2.32-2.06.32-2.51.84-5,1.43-7.46.14-.58.85-1.42,1.34-1.45,2.52-.15,5.05-.07,7.64-.07ZM366.38,307.35v-38.79h-6.07v43.14h17.07v-4.35h-11ZM234.72,268.5v43.2h16.81v-4.43h-11v-38.77h-5.81Z"/>
    <path class="cls-5" d="M65.16,358.2c-.03-4.61-.06-9.21-.09-13.82.08-4.02.15-8.05.23-12.07,5.05,0,10.09.02,15.14.03,0,21.35.03,42.71,0,64.06,0,1.47.33,2.34,1.73,3.09,4.71,2.53,9.3,5.28,13.98,7.88,6.2,3.45,12.44,6.84,18.66,10.25,8.02,4.55,16.03,9.12,24.05,13.65,14.98,8.45,29.96,16.91,44.97,25.32,5.79,3.25,11.63,6.38,17.45,9.57,6.12,3.49,12.21,7.03,18.36,10.47,19.36,10.85,38.83,21.5,58.03,32.62,4.39,2.54,7.59,3.15,12.04.22,6.79-4.46,14.08-8.14,21.19-12.1,8.62-4.81,17.29-9.53,25.9-14.36,2.75-1.54,5.38-3.3,8.06-4.96.61-.25,1.27-.43,1.84-.75,10.98-6.17,21.94-12.38,32.94-18.53,8.49-4.75,17.04-9.4,25.54-14.15,11-6.15,21.98-12.34,32.95-18.54,7.95-4.49,15.86-9.07,23.83-13.53,7.05-3.94,14.11-7.85,21.27-11.57,2.96-1.54,4.44-3.13,4.39-6.92-.25-20.57-.09-41.15-.07-61.73,5.46,0,10.91,0,16.37,0,.06,3.39.13,6.78.19,10.16-.04,5.21-.07,10.43-.11,15.64-.02,14.88-.08,29.76-.03,44.65,0,1.68-.47,2.6-1.96,3.42-47.46,26.25-94.89,52.54-142.33,78.83-24.29,13.46-48.6,26.9-72.85,40.43-1.73.97-2.92.82-4.53-.08-41.75-23.19-83.53-46.33-125.3-69.47-30.14-16.69-60.28-33.38-90.45-50.01-1.34-.74-1.31-1.67-1.31-2.83,0-14.96-.03-29.92-.05-44.88Z"/>
    <path class="cls-1" d="M80.55,172.18c-.25-1.28-.16-2.23,1.26-3.02,34.64-19.36,69.24-38.79,103.85-58.19.26-.15.56-.22.85-.33.6-.34,1.2-.67,1.79-1.01,0,0-.02.02-.02.02.88-.18,1.86-.17,2.64-.56,5.08-2.55,10.16-5.1,15.16-7.8,16.42-8.86,32.81-17.79,49.22-26.67,8.37-4.53,16.82-8.92,25.13-13.57,2.36-1.32,4.31-1.55,6.61-.13,7.77,4.8,15.59,9.5,23.35,14.31.68.42,1.03,1.35,1.54,2.05-1.09-.51-2.18-1.02-3.27-1.53-.16-.1-.33-.19-.49-.29-2.14-1.2-4.29-2.4-6.43-3.6-5.18-2.93-10.43-5.74-15.49-8.86-1.99-1.23-3.49-.82-5.21.15-11.78,6.67-23.57,13.32-35.35,20-8.48,4.81-16.95,9.65-25.43,14.48-.45.19-.9.37-1.35.56-.65.06-1.4-.08-1.92.21-10.3,5.5-20.58,11.04-30.86,16.58-7.93,4.27-15.87,8.5-23.77,12.83-15.03,8.24-30.01,16.57-45.05,24.81-11.12,6.09-22.3,12.1-33.46,18.12-1.06.57-2.21.97-3.31,1.45Z"/>
    <path class="cls-1" d="M80.55,172.18c1.11-.48,2.26-.88,3.31-1.45,11.16-6.02,22.34-12.03,33.46-18.12,15.03-8.23,30.02-16.57,45.05-24.81,7.89-4.33,15.84-8.56,23.77-12.83,10.28-5.54,20.56-11.08,30.86-16.58.53-.28,1.28-.15,1.92-.21-4.9,2.81-9.8,5.64-14.72,8.42-9.28,5.24-18.57,10.45-27.86,15.67-6.4,3.54-12.81,7.08-19.21,10.63-6.73,3.73-13.45,7.46-20.17,11.2-.17.1-.33.21-.5.31-1.06.62-2.12,1.25-3.18,1.87-.29.07-.62.07-.86.21-5.52,3.15-11.02,6.34-16.55,9.48-9.58,5.43-19.16,10.86-28.78,16.22-1.22.68-1.67,1.46-1.35,2.75-.03.54-.09,1.07-.09,1.61,0,22.13,0,44.25,0,66.38-1.74,0-3.47,0-5.21-.01,0-22.35,0-44.7.01-67.05,0-1.23.06-2.46.1-3.69Z"/>
    <path class="cls-1" d="M487.54,242.91c-1.75,0-3.5.01-5.25.02,0-22.43-.01-44.87.05-67.3,0-1.78-.28-3.13-2-3.9-.17-.43-.21-1.04-.53-1.26-2.13-1.5-4.29-2.96-6.49-4.35-12.66-8.05-25.34-16.06-37.98-24.14-1.03-.66-1.76-1.77-2.63-2.67,8,4.45,16,8.88,23.99,13.34,9.61,5.37,19.18,10.79,28.82,16.11,1.48.81,2.01,1.74,2,3.43-.06,22.57-.04,45.14-.04,67.71,0,1,.03,2,.05,3Z"/>
    <path class="cls-1" d="M311.93,77.28c-.5-.69-.86-1.63-1.54-2.05-7.76-4.81-15.59-9.51-23.35-14.31-2.3-1.42-4.25-1.19-6.61.13-8.3,4.65-16.75,9.04-25.13,13.57-16.41,8.88-32.8,17.81-49.22,26.67-5,2.7-10.08,5.25-15.16,7.8-.78.39-1.75.39-2.64.56,7.01-3.99,14.01-8.02,21.05-11.98,24.1-13.54,48.23-27.04,72.31-40.62,1.75-.99,3.02-1.05,4.81-.02,9.86,5.7,19.8,11.25,29.72,16.86.42.67.7,1.51,1.28,1.97,1.07.86,2.31,1.5,3.48,2.24,11.35,7.15,22.7,14.29,34.06,21.44,3.12,1.96,6.25,3.9,9.32,5.93.4.26.47,1.02.69,1.55-3.45-1.78-6.95-3.47-10.34-5.35-5.92-3.28-11.77-6.67-17.67-10-7.74-4.37-15.48-8.73-23.22-13.09-.15-.11-.29-.22-.44-.33-.46-.32-.92-.64-1.38-.96Z"/>
    <path class="cls-1" d="M364.98,107.02c-.22-.53-.29-1.28-.69-1.55-3.07-2.03-6.2-3.97-9.32-5.93-11.35-7.15-22.7-14.29-34.06-21.44-1.17-.74-2.41-1.38-3.48-2.24-.58-.47-.86-1.3-1.28-1.97,9.19,5.12,18.39,10.22,27.57,15.37,11.32,6.35,22.61,12.75,33.91,19.13.52.77.86,1.81,1.58,2.27,7.28,4.71,14.61,9.34,21.94,13.96,8.63,5.44,17.29,10.83,25.9,16.3.61.39.97,1.19,1.44,1.81-.28-.12-.58-.21-.84-.36-13.88-7.79-27.77-15.58-41.64-23.39-7.03-3.96-14.03-7.97-21.04-11.96Z"/>
    <path class="cls-1" d="M428.5,142.73c-.47-.61-.83-1.42-1.44-1.81-8.61-5.46-17.27-10.86-25.9-16.3-7.33-4.62-14.66-9.25-21.94-13.96-.72-.46-1.06-1.5-1.58-2.27,10.4,5.8,20.82,11.58,31.21,17.4,7.98,4.47,15.91,9.01,23.87,13.52.87.9,1.6,2.01,2.63,2.67,12.64,8.08,25.32,16.09,37.98,24.14,2.2,1.4,4.36,2.85,6.49,4.35.31.22.36.83.53,1.26-.49-.22-1-.4-1.46-.66-12.57-7.01-25.13-14.02-37.68-21.06-4.26-2.39-8.47-4.85-12.7-7.28Z"/>
    <path class="cls-3" d="M188.3,109.63c-.6.34-1.2.67-1.79,1.01.6-.34,1.2-.67,1.79-1.01Z"/>
    <path class="cls-1" d="M482.15,395.64c.05-.69.15-1.38.15-2.07,0-20.41,0-40.83,0-61.24,1.74,0,3.49.01,5.23.02-.02,20.58-.18,41.16.07,61.73.05,3.79-1.43,5.39-4.39,6.92-7.16,3.71-14.23,7.63-21.27,11.57-7.98,4.45-15.88,9.04-23.83,13.53-10.97,6.2-21.95,12.39-32.95,18.54-8.49,4.75-17.04,9.4-25.54,14.15-10.99,6.15-21.95,12.36-32.94,18.53-.57.32-1.22.5-1.84.75-1.82.74-3.71,1.35-5.45,2.25-6.96,3.57-13.9,7.16-20.79,10.86-10.62,5.7-21.2,11.49-31.79,17.25-1.97,1.07-3.89.81-5.67-.33-7.83-4.98-15.64-10-23.43-15.05-.56-.36-.87-1.12-1.29-1.69,6.26,3.45,12.53,6.9,18.79,10.36,2.49,1.38,4.93,2.86,7.47,4.14.7.35,1.88.46,2.53.1,10.96-6.09,21.87-12.28,32.79-18.44,11.46-6.38,22.91-12.77,34.38-19.14.66-.37,1.37-.67,2.05-1,.59-.12,1.24-.12,1.77-.38,4.97-2.45,9.95-4.87,14.87-7.43,7.36-3.83,14.67-7.78,22.01-11.66,6.46-3.41,12.98-6.72,19.4-10.2,11.15-6.04,22.23-12.21,33.37-18.27,8.11-4.42,16.26-8.75,24.39-13.13,2.98-1.61,5.93-3.27,8.89-4.9,2.8-1.54,3.9-3.64,3.04-5.76Z"/>
    <path class="cls-1" d="M85.66,332.33c0,20.4-.02,40.8,0,61.2,0,.73.27,1.46.41,2.19-.26,2.6,1.23,4.06,3.26,5.3,8.16,4.96,16.29,9.97,24.4,15.01.49.31.71,1.05,1.06,1.59-6.22-3.41-12.46-6.8-18.66-10.25-4.67-2.6-9.27-5.35-13.98-7.88-1.4-.75-1.73-1.63-1.73-3.09.03-21.35.01-42.71,0-64.06,1.74,0,3.48,0,5.22-.01Z"/>
    <path class="cls-5" d="M65.29,332.32c-.08,4.02-.15,8.05-.23,12.07-3.13-1.62-6.29-3.19-9.39-4.87-4.11-2.22-8.17-4.53-12.17-7.2h21.79Z"/>
    <path class="cls-5" d="M504.1,342.51c-.06-3.39-.13-6.78-.19-10.16,6.19,0,12.38,0,19.18,0-5.22,2.9-9.93,5.55-14.67,8.13-1.39.76-2.88,1.36-4.32,2.03Z"/>
    <path class="cls-1" d="M256.42,491.36c.42.57.73,1.33,1.29,1.69,7.79,5.05,15.6,10.07,23.43,15.05,1.79,1.14,3.7,1.4,5.67.33,10.59-5.76,21.17-11.55,31.79-17.25,6.89-3.7,13.83-7.29,20.79-10.86,1.74-.89,3.63-1.5,5.45-2.25-2.68,1.66-5.31,3.42-8.06,4.96-8.61,4.83-17.28,9.55-25.9,14.36-7.11,3.96-14.4,7.64-21.19,12.1-4.45,2.92-7.65,2.32-12.04-.22-19.2-11.12-38.67-21.77-58.03-32.62-6.15-3.44-12.24-6.98-18.36-10.47-.37-.62-.59-1.48-1.13-1.83-5.55-3.55-11.17-7-16.74-10.52-10.56-6.67-21.11-13.35-31.63-20.08-.61-.39-.92-1.26-1.36-1.9,9.95,5.54,19.9,11.09,29.86,16.62,6.39,3.55,12.79,7.08,19.19,10.63,9.58,5.42,19.17,10.83,28.75,16.26,9.41,5.33,18.82,10.68,28.22,16.02Z"/>
    <path class="cls-1" d="M150.4,431.83c.45.64.75,1.51,1.36,1.9,10.52,6.73,21.07,13.41,31.63,20.08,5.57,3.52,11.19,6.97,16.74,10.52.55.35.76,1.21,1.13,1.83-5.82-3.19-11.67-6.33-17.45-9.57-15-8.41-29.99-16.87-44.97-25.32-8.03-4.53-16.04-9.1-24.05-13.65-.35-.54-.57-1.29-1.06-1.59-8.11-5.04-16.24-10.04-24.4-15.01-2.03-1.24-3.52-2.71-3.26-5.3,12.34,6.89,24.7,13.76,37.03,20.68,9.12,5.11,18.2,10.28,27.3,15.43Z"/>
    <path class="cls-3" d="M308.66,75.75c-.16-.1-.33-.19-.49-.29.16.1.33.19.49.29Z"/>
    <path class="cls-9" d="M136.96,144.11c-.16.1-.33.21-.5.31.16-.1.33-.21.5-.31Z"/>
    <path class="cls-8" d="M313.75,78.57c-.15-.11-.29-.22-.44-.33.15.11.29.22.44.33Z"/>
    <path class="cls-4" d="M293.41,428.4c-.46.05-.92.11-1.38.16.31-.41.61-.82.92-1.24.15.36.31.72.46,1.08Z"/>
    <path class="cls-4" d="M282.24,391.06l-.1-.08s.02-.13.02-.13c.23-.19.47-.38.7-.57l.23.36c-.28.14-.57.27-.85.41Z"/>
    <path class="cls-4" d="M284.49,395.86c.13.06.33.08.36.18.04.09-.09.25-.15.38-.13-.06-.33-.08-.36-.18-.04-.09.09-.25.15-.38Z"/>
    <path class="cls-4" d="M299.33,440.07c.17-.31.33-.61.5-.92-.17.31-.33.61-.5.92Z"/>
    <path class="cls-1" d="M482.15,395.64c.87,2.12-.24,4.22-3.04,5.76-2.96,1.63-5.91,3.29-8.89,4.9-8.12,4.39-16.28,8.72-24.39,13.13-11.14,6.07-22.22,12.23-33.37,18.27-6.42,3.48-12.94,6.79-19.4,10.2-7.34,3.88-14.64,7.82-22.01,11.66-4.91,2.56-9.9,4.98-14.87,7.43-.53.26-1.18.26-1.77.38,5.8-3.32,11.59-6.66,17.4-9.96,7.95-4.53,15.92-9.03,23.88-13.55,5.56-3.11,11.12-6.22,16.69-9.33,9.22-5.14,18.46-10.26,27.67-15.42,13.48-7.55,26.95-15.13,40.43-22.69.53-.3,1.1-.53,1.66-.79Z"/>
    <path class="cls-7" d="M301.34,307.4v-16.17c3.48-.19,7.16-.85,9.28,2.57,2.2,3.55,2.2,7.72.22,11.27-2.05,3.67-6.02,1.95-9.5,2.33Z"/>
    <path class="cls-7" d="M301.36,286.49v-13.47c3.24.2,6.62-.91,9.1,1.99,1.47,1.72,1.45,7.17-.07,9.27-2.31,3.2-5.76,1.95-9.02,2.21Z"/>
    <path class="cls-7" d="M277.66,289.94c0,3.78.11,7.56-.03,11.33-.17,4.57-2.03,6.3-6.24,6.12-2.93-.12-4.34-1.31-4.84-4.24-.23-1.36-.41-2.75-.39-4.12.08-7.31.11-14.63.43-21.93.13-2.94,2.17-4.35,5.22-4.42,3.11-.07,5.18,1.16,5.42,4.12.35,4.35.09,8.75.09,13.14.11,0,.22,0,.33,0Z"/>
    <path class="cls-7" d="M342.01,296.49h-7.16c1.13-6.23,2.22-12.27,3.32-18.32.15,0,.3,0,.45,0,1.12,6.01,2.23,12.03,3.4,18.31Z"/>
    <path class="cls-2" d="M292.36,174.02c-.11-.12-.22-.25-.33-.37.11.12.22.25.33.37Z"/>
    <path class="cls-1" d="M235.51,160.67l-5.49,5.6s-8.66-8.76-19.77-4.69c-4.78,1.75-7.1,5.83-8.21,9.75-2.77,9.75,3.41,20,13.46,21.34.34.05.69.08,1.04.11,0,0,7.43.8,13.03-6.06l5.49,6.09s-5.94,7.97-19.32,7.63-18.63-9.49-18.63-9.49c0,0-8.99-12.14-1.49-26.29s24.92-12.23,24.92-12.23c0,0,9.14.69,14.97,8.23Z"/>
    <polygon class="cls-1" points="238.26 150.84 247.17 150.84 247.17 199.76 238.83 199.76 238.26 150.84"/>
    <path class="cls-1" d="M254.6,167.74h7.43v19.11s-.23,6.11,6.86,6.06c5.72-.04,6.9-3.13,7.61-4.95.27-.7.39-1.44.39-2.19v-18.02s8.34,0,8.34,0v32.02s-8.11,0-8.11,0v-1.83s-4.69,3.56-11.2,2.53-11.3-6.98-11.32-12.64,0-20.08,0-20.08Z"/>
    <polygon class="cls-1" points="288.26 167.7 288.26 173.85 293.57 173.85 293.57 199.76 302.72 199.76 302.72 173.85 308.65 173.85 308.65 167.7 302.86 167.7 302.86 156.25 293.64 156.25 293.64 167.63 288.26 167.7"/>
    <path class="cls-1" d="M336.39,177.6l5.47-5.47s-4.36-6.36-15.98-5.68-14.93,11.55-14.93,11.55c0,0-3.63,11.47,5.47,18.57s20.92,1.84,20.92,1.84c0,0,3.36-1.52,4.52-3.63l-5.36-5.15s-5.73,5.89-14.19,1.58c0,0-5.63-3.11-3.88-10.53s10.85-6.55,10.85-6.55c0,0,3.25-.05,7.12,3.47Z"/>
    <path class="cls-1" d="M344.78,150.83h8.52v18.56s6.12-5.02,14.71-1.09c0,0,4.95,1.83,6.69,8.03.27.95.37,1.95.37,2.94v20.48h-7.64v-18.79s-.08-6.5-6.41-6.41c-7.7.11-7.43,6.33-7.43,6.33v18.86h-8.81v-48.92Z"/>
    <circle class="cls-1" cx="327.74" cy="183.57" r="6.04"/>
    <rect class="cls-1" x="168.93" y="257.8" width="269.02" height="59.06"/>
    <path class="cls-6" d="M212.63,294.57v-4.15h11.03v21.25h-4.05v-4.95s-2.05,5.47-7.91,5.47-8.75-4.11-8.75-4.11c0,0-2.8-4.29-2.45-10.28s0-18.24,0-18.24c0,0-.13-7.35,5.47-10.32,0,0,7.3-3.46,13.38.7,0,0,4.18,2.47,3.94,12.36h-5.65s.82-9.36-4-9.36c0,0-6.66-1.03-6.96,5.46s0,21.53,0,21.53c0,0-.39,7.29,5.39,7.55s6.08-6.39,6.08-6.39v-6.49l-5.52-.03Z"/>
    <path class="cls-1" d="M333.31,383.08v-2.86h7.6v14.64h-2.79v-3.41s-1.41,3.76-5.45,3.76-6.02-2.83-6.02-2.83c0,0-1.93-2.95-1.69-7.08s0-12.56,0-12.56c0,0-.09-5.06,3.76-7.11,0,0,5.03-2.38,9.22.48,0,0,2.88,1.7,2.72,8.51h-3.89s.57-6.45-2.76-6.45c0,0-4.59-.71-4.8,3.76s0,14.83,0,14.83c0,0-.27,5.02,3.71,5.2s4.19-4.4,4.19-4.4v-4.47l-3.8-.02Z"/>
    <polygon class="cls-6" points="234.87 268.45 241.16 268.45 241.16 307.5 252.02 307.5 252.02 311.76 234.87 311.76 234.87 268.45"/>
    <path class="cls-6" d="M283.85,295.13c-.06-5.55-.03-11.9-.01-14.8.01-2.04-.15-4.59-.96-6.46-1.16-2.71-3.68-5.06-8.24-5.63-9.12-1.14-12.13,3.65-12.13,3.65,0,0-1.96,2.66-1.96,6.17v22.62s-.22,11.27,10.56,11.51c10.78.25,12.29-8.14,12.29-8.14,0,0,.52-1.44.44-8.92ZM272.54,307.27c-6.14,0-5.92-6.52-5.92-6.52v-22.77s-.22-5.24,5.6-5.24,5.56,5.24,5.56,5.24v22.47s.9,6.82-5.24,6.82Z"/>
    <path class="cls-6" d="M310.63,288.61s5.95,0,5.95-9.65c0-5.22-2.47-7.87-4.73-9.2-1.54-.9-3.32-1.31-5.1-1.31h-11.51v43.31h13.75s8.62-.58,8.62-11.97-6.98-11.18-6.98-11.18ZM301.08,273.28h5.95c4.24,0,4.21,5.89,4.21,5.89.51,7.18-4.41,7.49-4.41,7.49h-5.75v-13.38ZM307.65,307.27h-6.57v-16.1h5.46s4.91,1.03,5.42,8.05c.51,7.02-4.31,8.05-4.31,8.05Z"/>
    <path class="cls-6" d="M341.11,268.45h-6.17l-9.08,43.31h5.91l2.03-10.93,8.55.09,2.12,10.84h5.82l-9.17-43.31ZM334.41,296.34l3.66-19.04,3.57,19.04h-7.23Z"/>
    <polygon class="cls-6" points="359.62 268.45 365.97 268.45 365.97 307.27 376.81 307.27 376.81 311.76 359.62 311.76 359.62 268.45"/>
    <path class="cls-1" d="M239.6,372.64l-3.71.84s-.21-5.56-4-5.18-3.12,4.3-3.12,4.3c0,0,.04,1.9,4.93,5.48s5.6,6.66,5.6,6.66c0,0,2.36,6.07-2.15,9.14,0,0-5.94,3.88-10.49-1.43,0,0-1.64-2.74-1.64-5.86l3.45-.84s.08,4.84,2.78,5.86,4.47-1.14,4.47-1.14c0,0,1.56-2.49-1.01-5.73l-7.46-6.78s-4.84-4.51-1.31-10.19,10.32-1.94,10.32-1.94c0,0,2.99,1.98,3.33,6.82Z"/>
    <path class="cls-1" d="M255.31,365.24h-8.78v29.7h4.42v-13.4l3.8-.22c1.76-.1,3.47-.82,4.62-2.15.86-.98,1.61-2.42,1.9-4.51,0,0,1.76-9.41-5.97-9.41ZM257.42,373.26c.01,5.59-6.5,4.93-6.5,4.93v-9.87h2.56c4.35,0,3.93,4.93,3.93,4.93Z"/>
    <path class="cls-1" d="M278.96,380.09s3.89-.91,3.59-7.66c-.3-6.76-6.22-7.19-6.22-7.19h-8.43v29.7h4.13v-13.9h3.17l3.83,13.9h4.09l-4.15-14.85ZM271.85,377.93v-9.27s6.76-1.14,6.64,4.63c-.12,5.77-6.64,4.63-6.64,4.63Z"/>
    <rect class="cls-1" x="290.56" y="365.24" width="4.31" height="29.97"/>
    <polygon class="cls-1" points="302.88 365.24 302.88 394.94 306.83 394.94 306.83 375.18 315.02 394.94 317.95 394.94 317.95 365.24 314 365.24 314 384.8 306.17 365.24 302.88 365.24"/>
    <path class="cls-1" d="M287.72,436.88h3.21s-.23-3.18,1.43-4.78c1.2-1.14,3.24-.98,4.19.37.72,1.02,1,2.83-.77,5.97l-8.07,12.99v2.91h11.93v-3.25h-7.9l7.39-11.93s2.86-5.15-.62-9.24c0,0-2.98-3.23-7.49-.99-.74.37-1.38.92-1.82,1.62-.69,1.09-1.5,3.07-1.5,6.31Z"/>
    <path class="cls-1" d="M250.16,436.88h3.21s-.23-3.18,1.43-4.78c1.2-1.14,3.24-.98,4.19.37.72,1.02,1,2.83-.77,5.97l-8.07,12.99v2.91h11.93v-3.25h-7.9l7.39-11.93s2.86-5.15-.62-9.24c0,0-2.98-3.23-7.49-.99-.74.37-1.38.92-1.82,1.62-.69,1.09-1.5,3.07-1.5,6.31Z"/>
    <path class="cls-1" d="M281.11,448.48v-14.9s-.11-5.42-6.27-5.42-5.88,5.42-5.88,5.42v14.84c0,6.72,6.61,5.94,6.61,5.94,5.94,0,5.54-5.88,5.54-5.88ZM275.17,451.61c-3.14,0-2.97-3.36-2.97-3.36v-13.72s-.33-3.26,2.84-3.36,2.89,3.36,2.89,3.36v13.9s.21,3.19-2.76,3.19Z"/>
    <path class="cls-1" d="M316.23,444.22v-15.57h-4.14l-6.83,15.01v3.75h7.51v6.5h3.36v-6.5h2.8v-3.19h-2.69ZM313.03,444.28h-4.37l4.37-11.26v11.26Z"/>
  </g>
  <line class="cls-10" x1="505.56" y1="360.04" x2="505.56" y2="332.35"/>
  <line class="cls-10" x1="63.65" y1="360.04" x2="63.65" y2="332.35"/>
</svg>