<?xml version="1.0" encoding="UTF-8"?>
<svg xmlns="http://www.w3.org/2000/svg" xmlns:xlink="http://www.w3.org/1999/xlink" version="1.1" viewBox="0 0 1000 1000">
  <!-- Generator: Adobe Illustrator 29.1.0, SVG Export Plug-In . SVG Version: 2.1.0 Build 142)  -->
  <defs>
    <style>
      .st0 {
        fill: #111a09;
      }

      .st1 {
        fill: #090903;
      }

      .st2 {
        fill: #6dae38;
      }

      .st3 {
        fill: #363a14;
      }

      .st4 {
        fill: #0c1608;
      }

      .st5 {
        fill: #1d2e10;
      }

      .st6 {
        fill: #364919;
      }

      .st7 {
        fill: #1c280d;
      }

      .st8 {
        fill: #1e3212;
      }

      .st9 {
        fill: #101708;
      }

      .st10 {
        fill: #090b04;
      }

      .st11 {
        fill: #080b04;
      }

      .st12 {
        fill: #100f05;
      }

      .st13 {
        fill: #1f290e;
      }

      .st14 {
        fill: #0d1306;
      }

      .st15 {
        fill: #568b2e;
      }

      .st16 {
        fill: #060803;
      }

      .st17 {
        fill: #1b3010;
      }

      .st18 {
        fill: #487627;
      }

      .st19 {
        fill: #6dad39;
      }

      .st20 {
        stroke: #000;
        stroke-miterlimit: 10;
      }

      .st21 {
        fill: #0c0d05;
      }

      .st22 {
        fill: #111e0a;
      }

      .st23 {
        fill: #0b0b03;
      }

      .st24 {
        fill: #0d0904;
      }

      .st25 {
        display: none;
      }

      .st26 {
        fill: #020301;
      }

      .st27 {
        fill: #0c0c04;
      }
    </style>
  </defs>
  <g id="_Шар_3" data-name="Шар_3">
    <path class="st20" d="M308.9,728.2s-14-13.2-5.3-29.7,3.8-19.7,1.8-26.2-2.8-7-5-10.1c-6.9-9.8-24.7-39.7-29.5-51.5s-3-6.8-3.9-8.5-1.6-2.6-2.7-3.7-.1,0-.1,0c.3,1.2,1.5,6.6-1.3,17.1s-3.6,42.2-3.6,42.2c0,0-.9,26.3,15.4,40.7l23.8,20.7s4.6,5.2,2.5,5.8-7.6-3.2-7.6-3.2l15.4,6.4Z"/>
    <path class="st20" d="M216,425.1c-.7,1.1-1.4,2.3-2.2,3.3-5.1,6.8-16.5,19.4-19.9,24.5s-2.7,3.4-4.4,4.8c-3,2.4-8.1,5.2-14.4,4.5-10.6-1.2-14.7,9-14.7,9l.2-9.5s-1.2,3.4-.1,4.7,3.8-3.3,3.8-3.3l1-2c1.2-2.4,1.9-5,2.3-7.7l.7-6.4c1.5-15.7,15.6-23,15.6-23,0,0,5.7-4.4,22.7-8s17.1-5.3,17.7-5.5-5.4,10-5.5,10l-2.8,4.7Z"/>
    <path class="st20" d="M167.4,570.5s.3-11.5,11.1-14.2c6.4-1.6,15.1-9.3,16-10.4,1.9-2.2,5-5.8,6.2-12.6s.8-19.5,3.8-26.5,1.6-4,2.2-5.1,5.9-13.5,5.9-14.5-13.8,8-13.8,8.1c-1,.6-8.4,5.7-13.7,9.6s-10.3,9.2-12.2,12-4.2,7.9-4.9,12.3-1,8.3-1,14.4l.3,18.8s-.5,4.1-1.6,3.4-1.6-4.6-1.6-4.6l3.3,9.4Z"/>
    <path class="st20" d="M294.1,727.3s-10-6.9-32.1,11.1-15.7,12.5-22.4,13.8c-3.7.7-7.9,1.7-12.8,1.6-12-.2-8-1-40.9-6.2-7.3-1.2-14.6-.7-16.8,0s-11.6,3.4-13.1,3.9,0,0,0,0c3-5.1,8.1-8.5,13.8-11.5,11.1-5.7,35.4-21.8,35.4-21.8,0,0,22.9-13,43.2-5.3l29.1,9.4c1.3.5,2.6.8,4,1,2.7.4,4.2-.2,4.1-1.5-.2-1.9-6.4-4.6-6.4-4.6l14.8,10Z"/>
    <path class="st20" d="M232.1,328.4s26.5-22.5,27.6-32.5,2.5-10.2,4.8-12.8,2.7-3.2,4.7-4.7c5-3.7,3.6-2.1,18.8-10.4s6.2-4.4,6.9-5.3,3.7-5.1,4.1-5.8,0,0,0,0c.4,3-.6,6.1-2,9.1-2.7,5.9-7.7,20.2-7.7,20.2,0,0-5.3,12.6-16.1,15.9l-14.9,5.4c-.7.2-1.3.5-2,.8-1.2.7-5,3.8-5.5,4.2-2.9,2.4-7.9,7.4-7.9,7.4l-10.9,8.4Z"/>
    <path class="st20" d="M218.9,672s-4.2-7.9-27-1.3c-8.8,2.6-19.9,1.6-25.4.7s-6.7-.9-10.4-2.3c-9.2-3.4-5.9-2.9-29.5-15.5-5.3-2.8-11.1-4.1-12.9-4.6s-6.6-1.5-11.4-.8,0,0,0,0c4-2.7,9-3.8,14.3-4.3,7.9-.8,23.9-3.6,30.9-4.9,3.8-.7,7.7-1.1,11.6-1,7.6.2,18.9,1.7,26.9,8.4l18.2,13.5c.8.6,1.5,1.2,2.2,1.8,1.8,1.5,5.1,4.1,5.9,4.5,2,1-.8-2.6-.5-3.5.4-1.4-3.5-4.9-3.5-4.9l10.5,14.2Z"/>
    <path class="st20" d="M166.5,582.7s-.2-5.5-17.3-6.7c-6.7-.5-9.9.2-15-1.9s-3.9-1.9-6.1-3.8c-5.4-4.5-7.1-8.4-20.2-22.5-2.9-3.1-6.6-5.5-7.7-6.2s-4.1-2.6-7.6-3.3,0,0,0,0c3.4-.8,9.1-.3,12.9,0,10.3.9,16.1,2.1,21.2,2.9s5.5,1.2,8.1,2.2c5.1,2,11.4,7.8,15.3,14.2l9.2,13.4c.4.6.8,1.1,1.1,1.7.9,1.4,2.5,4,2.9,4.4,1.1,1.2,1.2-.6.9-2.2s-1.5-4.4-1.5-4.4l3.8,12Z"/>
    <path class="st20" d="M155.2,482.7s.7-5.4-15.1-8.6c-6.1-1.2-9.2-.9-13.7-3.6s-3.3-2.3-5.1-4.4c-4.4-5.1-5.3-9.1-15.3-24.5-2.2-3.4-5.3-6.2-6.2-7s-3.4-3.1-6.5-4.2,0,0,0,0c3.3-.4,8.5.8,12.1,1.5,9.4,2,14.7,3.9,19.3,5.4s5,1.8,7.2,3.1c4.5,2.5,9.4,9,12.1,15.8l6.5,14.3c.3.6.5,1.2.8,1.8.6,1.5,1.7,4.2,2,4.7,1.8,3.1,3-.9,2.9-2.5s.5-4.7.5-4.7l-1.4,12.9Z"/>
    <path class="st20" d="M187.1,390.9s.8-5.4,16.9-4.2c6.2.5,9.1,1.6,14.2.2s3.8-1.4,6.1-2.9c5.6-3.7,7.5-7.3,21.4-19.5,3.1-2.7,6.7-4.5,7.9-5.1s4.1-2,7.4-2.2c0,0,0,0,0,0-3-1.3-8.4-1.6-12-1.8-9.6-.6-15.2-.2-20,0s-5.3.4-7.8,1c-5,1.2-11.5,6.1-15.9,11.9l-10.1,12c-.4.5-.8,1-1.2,1.5-1,1.3-2.8,3.6-3.2,4-2.6,2.4-2.6-1.7-2.1-3.2s.8-4.6.8-4.6l-2.2,12.8Z"/>
    <path class="st20" d="M168.9,420.9s3.1-8.6-7.3-20.9c-4-4.8-6.6-6.5-8.5-11.3s-1.1-3.9-1.2-6.6c-.2-6.7,1.5-10.4,3.3-28.6.4-4.1-.3-8.1-.5-9.4s-.8-4.5-2.5-7.3,0,0,0,0c2.8,1.7,6.1,5.9,8.4,8.7,6.1,7.5,9,12.2,11.7,16.2s2.7,4.5,3.7,6.9c1.9,4.8,1.8,12.9-.4,19.8l-3.9,15.2c-.2.6-.3,1.3-.5,1.9-.5,1.5-1.3,4.3-1.4,4.9-.5,3.5,2.5,3,3.5-.6s3.6-2.9,3.6-2.9l-8.2,14Z"/>
    <path class="st20" d="M225.2,673.9s-6.8-5.7,4.3-26.7c4.3-8.1,7.2-21.3,7.5-26.9s.5-6.7-.1-10.6c-1.4-9.7-1.6-6.3-9-32.1-1.6-5.7-2.2-8.5-2.4-10.3s-1.1-6.1.7-12.4,0,0,0,0c-3.5,3.3-4.7,8.3-7.2,13.1-4.1,7.9-8.2,12.4-10.8,18.2-4.2,9.5-3.9,12.4-4.7,16.2-1.4,7.4-1.4,24.7,3.4,34l9.4,20.6c.4.9.8,1.7,1.2,2.6,1.1,2,3,5.8,3.2,6.7.6,2.2-2.4-1.3-3.3-1.2-1.4.1-4.1-4.4-4.1-4.4l11.7,13.3Z"/>
    <path class="st20" d="M211.3,348s4.5-2.8-.4-16c-1.9-5.1-2.5-13.1-2.2-16.4s.3-4,.9-6.2c1.6-5.6,1.5-3.6,7.9-18.1,1.4-3.2,2-4.8,2.2-5.8s1.1-3.5.6-7.3,0,0,0,0c1.8,2.2,2.1,5.3,3.1,8.3,1.8,5,3.8,7.9,4.8,11.6,1.7,5.9,1.3,7.6,1.4,9.9.2,4.5-1.2,14.6-4.8,19.7l-7.2,11.3c-.3.5-.6.9-.9,1.4-.8,1.1-2.2,3.2-2.4,3.7-.5,1.2,1.5-.6,2-.4.8.2,2.8-2.3,2.8-2.3l-7.9,6.8Z"/>
    <path class="st20" d="M232.5,329.4s4.5-4.6,18-.9c5.3,1.4,13.3,1.4,16.5.8s3.9-.6,6.1-1.5c5.4-2.1,3.5-1.8,17.4-9.4s4.6-2.4,5.6-2.7,3.4-1.4,7.2-1.2,0,0,0,0c-2.4-1.6-5.4-1.6-8.5-2.4-5.1-1.4-8.2-3.1-11.9-3.8-6-1.2-7.7-.7-10-.6-4.5.2-14.5,2.4-19.2,6.4l-10.7,8.1c-.4.3-.9.7-1.3,1.1-1,.9-3,2.5-3.4,2.7-1.2.6-1.7.4-1.9-.1-.3-.8,4.2-4.9,4.2-4.9l-8.2,8.4Z"/>
    <g id="_Шар_2" data-name="Шар_2">
      <path class="st20" d="M253.2,310.7c-99.4,83.2-94.3,186.3-94.3,186.3-2.5,137.5,83.5,202,148.4,231.2,38.9,17.5,70.3,22.2,70.3,22.2l3.1,5.6s-229.2-30.9-226.2-259.9c0,0-3-112.8,98.7-185.2h0Z"/>
    </g>
    <path class="st20" d="M690.9,730.7s14-13.2,5.3-29.7c-5.1-9.8-3.8-19.7-1.8-26.2s2.8-7,5-10.1c6.9-9.8,24.7-39.7,29.5-51.5,1.7-4.3,3-6.8,3.9-8.5s1.6-2.6,2.7-3.7.1,0,.1,0c-.3,1.2-1.5,6.6,1.3,17.1,3.2,12,3.6,42.2,3.6,42.2,0,0,.9,26.3-15.4,40.7l-23.8,20.7s-4.6,5.2-2.5,5.8c2.8.9,7.6-3.2,7.6-3.2l-15.4,6.4Z"/>
    <path class="st20" d="M783.7,427.5c.7,1.1,1.4,2.3,2.2,3.3,5.1,6.8,16.5,19.4,19.9,24.5s2.7,3.4,4.4,4.8c3,2.4,8.1,5.2,14.4,4.5,10.6-1.2,14.7,9,14.7,9l-.2-9.5s1.2,3.4.1,4.7-3.8-3.3-3.8-3.3l-1-2c-1.2-2.4-1.9-5-2.3-7.7l-.7-6.4c-1.5-15.7-15.6-23-15.6-23,0,0-5.7-4.4-22.7-8-7.8-1.6-17.1-5.3-17.7-5.5s5.4,10,5.5,10l2.8,4.7Z"/>
    <path class="st20" d="M832.4,572.9s-.3-11.5-11.1-14.2c-6.4-1.6-15.1-9.3-16-10.4-1.9-2.2-5-5.8-6.2-12.6s-.8-19.5-3.8-26.5c-1.1-2.6-1.6-4-2.2-5.1s-5.9-13.5-5.9-14.5,13.8,8,13.8,8.1c1,.6,8.4,5.7,13.7,9.6s10.3,9.2,12.2,12,4.2,7.9,4.9,12.3,1,8.3,1,14.4l-.3,18.8s.5,4.1,1.6,3.4,1.6-4.6,1.6-4.6l-3.3,9.4Z"/>
    <path class="st20" d="M705.6,729.8s10-6.9,32.1,11.1c8.6,7,15.7,12.5,22.4,13.8,3.7.7,7.9,1.7,12.8,1.6,12-.2,8-1,40.9-6.2,7.3-1.2,14.6-.7,16.8,0s11.6,3.4,13.1,3.9,0,0,0,0c-3-5.1-8.1-8.5-13.8-11.5-11.1-5.7-35.4-21.8-35.4-21.8,0,0-22.9-13-43.2-5.3l-29.1,9.4c-1.3.5-2.6.8-4,1-2.7.4-4.2-.2-4.1-1.5.2-1.9,6.4-4.6,6.4-4.6l-14.8,10Z"/>
    <path class="st20" d="M767.6,330.8s-26.5-22.5-27.6-32.5-2.5-10.2-4.8-12.8-2.7-3.2-4.7-4.7c-5-3.7-3.6-2.1-18.8-10.4-3.4-1.8-6.2-4.4-6.9-5.3s-3.7-5.1-4.1-5.8,0,0,0,0c-.4,3,.6,6.1,2,9.1,2.7,5.9,7.7,20.2,7.7,20.2,0,0,5.3,12.6,16.1,15.9l14.9,5.4c.7.2,1.3.5,2,.8,1.2.7,5,3.8,5.5,4.2,2.9,2.4,7.9,7.4,7.9,7.4l10.9,8.4Z"/>
    <path class="st20" d="M780.8,674.4s4.2-7.9,27-1.3c8.8,2.6,19.9,1.6,25.4.7s6.7-.9,10.4-2.3c9.2-3.4,5.9-2.9,29.5-15.5,5.3-2.8,11.1-4.1,12.9-4.6s6.6-1.5,11.4-.8,0,0,0,0c-4-2.7-9-3.8-14.3-4.3-7.9-.8-23.9-3.6-30.9-4.9-3.8-.7-7.7-1.1-11.6-1-7.6.2-18.9,1.7-26.9,8.4l-18.2,13.5c-.8.6-1.5,1.2-2.2,1.8-1.8,1.5-5.1,4.1-5.9,4.5-2,1,.8-2.6.5-3.5-.4-1.4,3.5-4.9,3.5-4.9l-10.5,14.2Z"/>
    <path class="st20" d="M833.2,585.1s.2-5.5,17.3-6.7c6.7-.5,9.9.2,15-1.9,2.1-.9,3.9-1.9,6.1-3.8,5.4-4.5,7.1-8.4,20.2-22.5,2.9-3.1,6.6-5.5,7.7-6.2s4.1-2.6,7.6-3.3c0,0,0,0,0,0-3.4-.8-9.1-.3-12.9,0-10.3.9-16.1,2.1-21.2,2.9-2.8.5-5.5,1.2-8.1,2.2-5.1,2-11.4,7.8-15.3,14.2l-9.2,13.4c-.4.6-.8,1.1-1.1,1.7-.9,1.4-2.5,4-2.9,4.4-1.1,1.2-1.2-.6-.9-2.2s1.5-4.4,1.5-4.4l-3.8,12Z"/>
    <path class="st20" d="M844.5,485.1s-.7-5.4,15.1-8.6c6.1-1.2,9.2-.9,13.7-3.6,1.8-1.1,3.3-2.3,5.1-4.4,4.4-5.1,5.3-9.1,15.3-24.5,2.2-3.4,5.3-6.2,6.2-7s3.4-3.1,6.5-4.2,0,0,0,0c-3.3-.4-8.5.8-12.1,1.5-9.4,2-14.7,3.9-19.3,5.4s-5,1.8-7.2,3.1c-4.5,2.5-9.4,9-12.1,15.8l-6.5,14.3c-.3.6-.5,1.2-.8,1.8-.6,1.5-1.7,4.2-2,4.7-1.8,3.1-3-.9-2.9-2.5s-.5-4.7-.5-4.7l1.4,12.9Z"/>
    <path class="st20" d="M812.7,393.3s-.8-5.4-16.9-4.2c-6.2.5-9.1,1.6-14.2.2s-3.8-1.4-6.1-2.9c-5.6-3.7-7.5-7.3-21.4-19.5-3.1-2.7-6.7-4.5-7.9-5.1s-4.1-2-7.4-2.2c0,0,0,0,0,0,3-1.3,8.4-1.6,12-1.8,9.6-.6,15.2-.2,20,0s5.3.4,7.8,1c5,1.2,11.5,6.1,15.9,11.9l10.1,12c.4.5.8,1,1.2,1.5,1,1.3,2.8,3.6,3.2,4,2.6,2.4,2.6-1.7,2.1-3.2s-.8-4.6-.8-4.6l2.2,12.8Z"/>
    <path class="st20" d="M830.8,423.3s-3.1-8.6,7.3-20.9c4-4.8,6.6-6.5,8.5-11.3s1.1-3.9,1.2-6.6c.2-6.7-1.5-10.4-3.3-28.6-.4-4.1.3-8.1.5-9.4s.8-4.5,2.5-7.3c0,0,0,0,0,0-2.8,1.7-6.1,5.9-8.4,8.7-6.1,7.5-9,12.2-11.7,16.2-1.5,2.2-2.7,4.5-3.7,6.9-1.9,4.8-1.8,12.9.4,19.8l3.9,15.2c.2.6.3,1.3.5,1.9.5,1.5,1.3,4.3,1.4,4.9.5,3.5-2.5,3-3.5-.6s-3.6-2.9-3.6-2.9l8.2,14Z"/>
    <path class="st20" d="M774.5,676.3s6.8-5.7-4.3-26.7c-4.3-8.1-7.2-21.3-7.5-26.9-.1-3.1-.5-6.7.1-10.6,1.4-9.7,1.6-6.3,9-32.1,1.6-5.7,2.2-8.5,2.4-10.3s1.1-6.1-.7-12.4,0,0,0,0c3.5,3.3,4.7,8.3,7.2,13.1,4.1,7.9,8.2,12.4,10.8,18.2,4.2,9.5,3.9,12.4,4.7,16.2,1.4,7.4,1.4,24.7-3.4,34l-9.4,20.6c-.4.9-.8,1.7-1.2,2.6-1.1,2-3,5.8-3.2,6.7-.6,2.2,2.4-1.3,3.3-1.2,1.4.1,4.1-4.4,4.1-4.4l-11.7,13.3Z"/>
    <path class="st20" d="M788.4,350.4s-4.5-2.8.4-16c1.9-5.1,2.5-13.1,2.2-16.4s-.3-4-.9-6.2c-1.6-5.6-1.5-3.6-7.9-18.1-1.4-3.2-2-4.8-2.2-5.8s-1.1-3.5-.6-7.3,0,0,0,0c-1.8,2.2-2.1,5.3-3.1,8.3-1.8,5-3.8,7.9-4.8,11.6-1.7,5.9-1.3,7.6-1.4,9.9-.2,4.5,1.2,14.6,4.8,19.7l7.2,11.3c.3.5.6.9.9,1.4.8,1.1,2.2,3.2,2.4,3.7.5,1.2-1.5-.6-2-.4-.8.2-2.8-2.3-2.8-2.3l7.9,6.8Z"/>
    <path class="st20" d="M767.2,331.8s-4.5-4.6-18-.9c-5.3,1.4-13.3,1.4-16.5.8s-3.9-.6-6.1-1.5c-5.4-2.1-3.5-1.8-17.4-9.4-3.1-1.7-4.6-2.4-5.6-2.7s-3.4-1.4-7.2-1.2,0,0,0,0c2.4-1.6,5.4-1.6,8.5-2.4,5.1-1.4,8.2-3.1,11.9-3.8,6-1.2,7.7-.7,10-.6,4.5.2,14.5,2.4,19.2,6.4l10.7,8.1c.4.3.9.7,1.3,1.1,1,.9,3,2.5,3.4,2.7,1.2.6,1.7.4,1.9-.1.3-.8-4.2-4.9-4.2-4.9l8.2,8.4Z"/>
    <path class="st20" d="M746.6,313.1c99.4,83.2,94.3,186.3,94.3,186.3,2.5,137.5-83.5,202-148.4,231.2-38.9,17.5-70.3,22.2-70.3,22.2l-3.1,5.6s229.2-30.9,226.2-259.9c0,0,3-112.8-98.7-185.2h0Z"/>
    <g>
      <path d="M572.5,256c-5.3,0-9.6-4.1-9.6-9.4,0-5.1,4.3-9.5,9.5-9.5,5.3,0,9.5,4.1,9.5,9.4,0,5.4-4,9.4-9.5,9.4Z"/>
      <path d="M421,209.7l-9,9.2s-14.2-14.3-32.3-7.7c-7.8,2.9-11.6,9.5-13.4,15.9-4.5,15.9,5.6,32.7,22,34.9s1.1.1,1.7.2c0,0,12.1,1.3,21.3-9.9l9,10s-9.7,13-31.6,12.5c-21.9-.6-30.5-15.5-30.5-15.5,0,0-14.7-19.8-2.4-43,12.7-23.9,40.7-20,40.7-20,0,0,14.9,1.1,24.5,13.5Z"/>
      <polygon points="425.5 193.7 440 193.7 440 273.6 426.4 273.6 425.5 193.7"/>
      <path d="M452.2,221.3h12.1v31.2s-.4,10,11.2,9.9c9.4,0,11.3-5.1,12.4-8.1s.6-2.4.6-3.6v-29.5s13.6,0,13.6,0v52.3s-13.3,0-13.3,0v-3s-7.7,5.8-18.3,4.1c-10.7-1.7-18.5-11.4-18.5-20.7s0-32.8,0-32.8Z"/>
      <polygon points="507.2 221.2 507.2 231.3 515.9 231.3 515.9 273.6 530.8 273.6 530.8 231.3 540.6 231.3 540.6 221.2 531.1 221.2 531.1 202.5 516 202.5 516 221.1 507.2 221.2"/>
      <path d="M585.9,237.4l8.9-8.9s-7.1-10.4-26.1-9.3c-19,1.1-24.4,18.9-24.4,18.9,0,0-5.9,18.8,8.9,30.4,14.9,11.6,34.2,3,34.2,3,0,0,5.5-2.5,7.4-5.9l-8.8-8.4s-9.4,9.6-23.2,2.6c0,0-9.2-5.1-6.3-17.2,2.9-12.1,17.7-10.7,17.7-10.7,0,0,5.3,0,11.6,5.7Z"/>
      <path d="M599.6,193.7h13.9v30.3s10-8.2,24-1.8c0,0,8.1,3,10.9,13.1s.6,3.2.6,4.8v33.5h-12.5v-30.7s-.1-10.6-10.5-10.5c-12.6.2-12.1,10.4-12.1,10.4v30.8h-14.4v-80Z"/>
    </g>
    <g>
      <path class="st20" d="M386.1,330.9h-11.8c-3.1,0-5.7-2.5-5.7-5.7s2.5-5.7,5.7-5.7h35.8c3.1,0,5.7,2.5,5.7,5.7s-2.5,5.7-5.7,5.7h-11.8v38.8c0,3.4-2.7,6.1-6.1,6.1s-6.1-2.7-6.1-6.1v-38.8Z"/>
      <path class="st20" d="M424.4,347.6v-.2c0-15.8,12.5-28.8,29.7-28.8s29.5,12.8,29.5,28.7v.2c0,15.9-12.5,28.8-29.7,28.8s-29.5-12.8-29.5-28.7ZM470.9,347.6v-.2c0-9.6-7-17.5-16.9-17.5s-16.7,7.8-16.7,17.4v.2c0,9.6,7,17.5,16.9,17.5s16.7-7.8,16.7-17.4Z"/>
      <path class="st20" d="M499.2,325.7c0-3.4,2.7-6.1,6.1-6.1h16.6c13.3,0,21.3,7.9,21.3,19.3v.2c0,12.9-10,19.6-22.5,19.6h-9.3v11.1c0,3.4-2.7,6.1-6.1,6.1s-6.1-2.7-6.1-6.1v-44ZM521.1,347.7c6.1,0,9.7-3.7,9.7-8.4v-.2c0-5.5-3.8-8.4-10-8.4h-9.5v17h9.7Z"/>
      <path class="st20" d="M553.7,350.6c0-3.2,2.6-5.8,5.8-5.8h13.9c3.2,0,5.8,2.6,5.8,5.8s-2.6,5.8-5.8,5.8h-13.9c-3.2,0-5.8-2.6-5.8-5.8Z"/>
      <path class="st20" d="M592.8,369.9c-1.1-1-2.1-2.6-2.1-4.4,0-3.2,2.7-5.9,5.9-5.9s2.9.7,3.9,1.5c3.2,2.7,6.5,4.1,10.9,4.1s7.9-2.6,7.9-6.8v-.2c0-4.5-4.1-7.1-10.9-7.1h-1.9c-2.9,0-5.3-2.4-5.3-5.3s.7-3.1,2.6-5l10.8-10.9h-17.1c-2.9,0-5.3-2.4-5.3-5.3s2.4-5.3,5.3-5.3h27.2c3.6,0,6.2,2.1,6.2,5.4s-1.4,4.7-3.7,6.9l-10.9,10.4c7.6,1.3,15,5.3,15,15.6v.2c0,10.5-7.6,18.2-20.1,18.2s-13.9-2.5-18.5-6.4Z"/>
    </g>
    <g>
      <path class="st20" d="M292,421.4v-.2c0-15.8,11.9-28.8,29.1-28.8s14,2.2,18.6,5.7c1.3,1,2.4,2.7,2.4,4.9,0,3.3-2.7,6-6.1,6s-2.8-.6-3.7-1.2c-3.4-2.5-7-4-11.4-4-9.4,0-16.2,7.8-16.2,17.4v.2c0,9.6,6.6,17.5,16.2,17.5s8.6-1.6,12.1-4.4c1-.8,2.2-1.4,3.7-1.4,3.1,0,5.7,2.5,5.7,5.7s-1,3.4-2.1,4.4c-5,4.4-10.9,7-19.8,7-16.4,0-28.6-12.7-28.6-28.7Z"/>
      <path class="st20" d="M395.3,443.6c0,3.3-2.7,6.1-6.1,6.1s-6.1-2.7-6.1-6.1v-.5c-2.8,3.6-6.4,6.9-12.5,6.9-9.2,0-14.5-6.1-14.5-15.9v-22.1c0-3.3,2.7-6.1,6.1-6.1s6.1,2.7,6.1,6.1v18.2c0,5.7,2.7,8.7,7.3,8.7s7.6-2.9,7.6-8.7v-18.2c0-3.3,2.7-6.1,6.1-6.1s6.1,2.7,6.1,6.1v31.5Z"/>
      <path class="st20" d="M409.6,445.1c-1.3-.8-2.3-2.2-2.3-4.1,0-2.7,2.1-4.8,4.8-4.8s1.8.2,2.4.6c4.1,2.5,8.1,3.8,11.5,3.8s5.1-1.3,5.1-3.2v-.2c0-2.6-4.1-3.5-8.8-4.9-6-1.8-12.7-4.5-12.7-12.8v-.2c0-8.7,7-13.5,15.6-13.5s9.1,1.2,13.2,3.3c1.8.9,2.9,2.5,2.9,4.5s-2.2,4.8-4.9,4.8-1.4-.2-2.2-.6c-3.4-1.7-6.7-2.7-9.2-2.7s-4.5,1.3-4.5,2.9v.2c0,2.4,4.1,3.5,8.7,5.1,6,2,12.9,4.9,12.9,12.7v.2c0,9.5-7.1,13.8-16.3,13.8s-10.9-1.5-16.1-4.9Z"/>
      <path class="st20" d="M456.4,437v-20.2h-.4c-2.9,0-5.2-2.3-5.2-5.2s2.3-5.2,5.2-5.2h.4v-5.3c0-3.3,2.7-6.1,6.1-6.1s6.1,2.7,6.1,6.1v5.3h5.3c2.9,0,5.2,2.3,5.2,5.2s-2.3,5.2-5.2,5.2h-5.3v18.2c0,2.8,1.2,4.1,3.9,4.1s1.2,0,1.4,0c2.7,0,5,2.2,5,5s-1.4,3.9-3.1,4.5c-2.2.9-4.3,1.2-6.9,1.2-7.4,0-12.4-2.9-12.4-12.8Z"/>
      <path class="st20" d="M488.7,428v-.2c0-12.3,9.9-22.2,23.2-22.2s23,9.8,23,22.1v.2c0,12.3-9.9,22.2-23.2,22.2s-23-9.8-23-22.1ZM523,428v-.2c0-6.3-4.5-11.8-11.2-11.8s-11.1,5.3-11.1,11.6v.2c0,6.3,4.5,11.8,11.2,11.8s11.1-5.3,11.1-11.6Z"/>
      <path class="st20" d="M548.2,412c0-3.3,2.7-6.1,6.1-6.1s6.1,2.7,6.1,6.1v.5c2.8-3.6,6.5-6.8,12.6-6.8s9.8,2.5,12,6.8c3.7-4.4,8.2-6.8,14-6.8,9,0,14.4,5.4,14.4,15.7v22.2c0,3.3-2.7,6.1-6.1,6.1s-6.1-2.7-6.1-6.1v-18.2c0-5.7-2.5-8.7-7.1-8.7s-7.3,2.9-7.3,8.7v18.2c0,3.3-2.7,6.1-6.1,6.1s-6.1-2.7-6.1-6.1v-18.2c0-5.7-2.5-8.7-7.1-8.7s-7.3,2.9-7.3,8.7v18.2c0,3.3-2.7,6.1-6.1,6.1s-6.1-2.7-6.1-6.1v-31.5Z"/>
      <path class="st20" d="M648.7,450.1c-12.8,0-22.3-9-22.3-22.1v-.2c0-12.2,8.7-22.2,21.1-22.2s20.5,11.7,20.5,20.5-2.5,5.8-5.7,5.8h-24c1.2,5.5,5,8.4,10.4,8.4s6.1-1,8.6-2.9c.9-.6,1.7-1,2.9-1,2.7,0,4.7,2.1,4.7,4.8s-.7,2.8-1.6,3.6c-3.7,3.2-8.6,5.2-14.8,5.2ZM656.5,424.4c-.7-5.4-3.9-9.1-9-9.1s-8.3,3.6-9.2,9.1h18.2Z"/>
      <path class="st20" d="M681.8,412c0-3.3,2.7-6.1,6.1-6.1s6.1,2.7,6.1,6.1v1.9c1.8-4.1,4.6-8,8.2-8s5.9,2.5,5.9,5.9-2.1,5.1-4.5,5.7c-6.1,1.4-9.6,6.1-9.6,14.7v11.3c0,3.3-2.7,6.1-6.1,6.1s-6.1-2.7-6.1-6.1v-31.5Z"/>
    </g>
    <g>
      <path class="st20" d="M328.1,522.5c-1.4-1-2.3-2.7-2.3-4.6,0-3.2,2.5-5.7,5.7-5.7s2.7.6,3.5,1.1c4.2,3.1,8.8,5,14.3,5s8-2,8-5.3v-.2c0-3.1-1.9-4.7-11.2-7.1-11.2-2.9-18.5-6-18.5-17v-.2c0-10.1,8.1-16.8,19.5-16.8s12.7,1.8,17.7,4.9c1.4.8,2.7,2.5,2.7,4.9s-2.5,5.7-5.7,5.7-2.2-.3-3.1-.9c-4.1-2.4-7.9-3.7-11.7-3.7s-7.2,2.2-7.2,4.9v.2c0,3.7,2.4,4.9,12,7.3,11.3,2.9,17.7,7,17.7,16.7v.2c0,11.1-8.4,17.3-20.5,17.3s-14.7-2.2-20.9-6.7Z"/>
      <path class="st20" d="M422.3,522.8c0,3.3-2.7,6.1-6.1,6.1s-6.1-2.7-6.1-6.1v-.5c-2.8,3.6-6.4,6.9-12.5,6.9-9.2,0-14.5-6.1-14.5-15.9v-22.1c0-3.3,2.7-6.1,6.1-6.1s6.1,2.7,6.1,6.1v18.2c0,5.7,2.7,8.7,7.3,8.7s7.6-2.9,7.6-8.7v-18.2c0-3.3,2.7-6.1,6.1-6.1s6.1,2.7,6.1,6.1v31.5Z"/>
      <path class="st20" d="M437.7,491.3c0-3.3,2.7-6.1,6.1-6.1s6.1,2.7,6.1,6.1v.6c2.9-4,7-6.9,13.3-6.9,10,0,19.4,7.8,19.4,22.1v.2c0,14.3-9.3,22.1-19.4,22.1s-10.4-2.9-13.3-6.4v12.7c0,3.3-2.7,6.1-6.1,6.1s-6.1-2.7-6.1-6.1v-44.3ZM470.4,507.1v-.2c0-7.1-4.8-11.8-10.4-11.8s-10.4,4.7-10.4,11.8v.2c0,7.1,4.7,11.8,10.4,11.8s10.4-4.6,10.4-11.8Z"/>
      <path class="st20" d="M496,491.3c0-3.3,2.7-6.1,6.1-6.1s6.1,2.7,6.1,6.1v.6c2.9-4,7-6.9,13.3-6.9,10,0,19.4,7.8,19.4,22.1v.2c0,14.3-9.3,22.1-19.4,22.1s-10.4-2.9-13.3-6.4v12.7c0,3.3-2.7,6.1-6.1,6.1s-6.1-2.7-6.1-6.1v-44.3ZM528.7,507.1v-.2c0-7.1-4.8-11.8-10.4-11.8s-10.4,4.7-10.4,11.8v.2c0,7.1,4.7,11.8,10.4,11.8s10.4-4.6,10.4-11.8Z"/>
      <path class="st20" d="M552.2,507.3v-.2c0-12.3,9.9-22.2,23.2-22.2s23,9.8,23,22.1v.2c0,12.3-9.9,22.2-23.2,22.2s-23-9.8-23-22.1ZM586.5,507.3v-.2c0-6.3-4.5-11.8-11.2-11.8s-11.1,5.3-11.1,11.6v.2c0,6.3,4.5,11.8,11.2,11.8s11.1-5.3,11.1-11.6Z"/>
      <path class="st20" d="M611.7,491.3c0-3.3,2.7-6.1,6.1-6.1s6.1,2.7,6.1,6.1v1.9c1.8-4.1,4.6-8,8.2-8s5.9,2.5,5.9,5.9-2.1,5.1-4.5,5.7c-6.1,1.4-9.6,6.1-9.6,14.7v11.3c0,3.3-2.7,6.1-6.1,6.1s-6.1-2.7-6.1-6.1v-31.5Z"/>
      <path class="st20" d="M651.5,516.3v-20.2h-.4c-2.9,0-5.2-2.3-5.2-5.2s2.3-5.2,5.2-5.2h.4v-5.3c0-3.3,2.7-6.1,6.1-6.1s6.1,2.7,6.1,6.1v5.3h5.3c2.9,0,5.2,2.3,5.2,5.2s-2.3,5.2-5.2,5.2h-5.3v18.2c0,2.8,1.2,4.1,3.9,4.1s1.2,0,1.4,0c2.7,0,5,2.2,5,5s-1.4,3.9-3.1,4.5c-2.2.9-4.3,1.2-6.9,1.2-7.4,0-12.4-2.9-12.4-12.8Z"/>
    </g>
    <g>
      <path class="st20" d="M295,560.6c0-3.4,2.7-6.1,6.1-6.1h16.6c13.3,0,21.3,7.9,21.3,19.3v.2c0,12.9-10,19.6-22.5,19.6h-9.3v11.1c0,3.4-2.7,6.1-6.1,6.1s-6.1-2.7-6.1-6.1v-44ZM317,582.6c6.1,0,9.7-3.7,9.7-8.4v-.2c0-5.5-3.8-8.4-10-8.4h-9.5v17h9.7Z"/>
      <path class="st20" d="M351.5,573.1c0-3.3,2.7-6.1,6.1-6.1s6.1,2.7,6.1,6.1v1.9c1.8-4.1,4.6-8,8.2-8s5.9,2.5,5.9,5.9-2.1,5.1-4.5,5.7c-6.1,1.4-9.6,6.1-9.6,14.7v11.3c0,3.3-2.7,6.1-6.1,6.1s-6.1-2.7-6.1-6.1v-31.5Z"/>
      <path class="st20" d="M386.1,589.2v-.2c0-12.3,9.9-22.2,23.2-22.2s23,9.8,23,22.1v.2c0,12.3-9.9,22.2-23.2,22.2s-23-9.8-23-22.1ZM420.3,589.2v-.2c0-6.3-4.5-11.8-11.2-11.8s-11.1,5.3-11.1,11.6v.2c0,6.3,4.5,11.8,11.2,11.8s11.1-5.3,11.1-11.6Z"/>
      <path class="st20" d="M462.5,611.1h-.6c-3.3,0-5.5-2.1-6.8-5.3l-13.1-30.2c-.3-.8-.6-1.8-.6-2.9,0-2.9,2.6-5.7,5.9-5.7s5,1.8,5.9,4.3l9.2,24.8,9.3-24.9c.8-2.1,2.5-4.1,5.7-4.1s5.8,2.5,5.8,5.7-.4,2.3-.6,2.9l-13.1,30.2c-1.4,3.1-3.6,5.3-6.8,5.3Z"/>
      <path class="st20" d="M495.4,557.4c0-3.5,2.9-5.7,6.8-5.7s6.8,2.2,6.8,5.7v.2c0,3.5-2.9,5.7-6.8,5.7s-6.8-2.2-6.8-5.7v-.2ZM496.1,573.1c0-3.3,2.7-6.1,6.1-6.1s6.1,2.7,6.1,6.1v31.5c0,3.3-2.7,6.1-6.1,6.1s-6.1-2.7-6.1-6.1v-31.5Z"/>
      <path class="st20" d="M567.1,604.7c0,3.3-2.7,6.1-6.1,6.1s-6.1-2.7-6.1-6.1v-.6c-2.9,4-7,6.9-13.3,6.9-10,0-19.4-7.8-19.4-22.1v-.2c0-14.3,9.3-22.1,19.4-22.1s10.4,2.9,13.3,6.4v-15.5c0-3.3,2.7-6.1,6.1-6.1s6.1,2.7,6.1,6.1v47ZM534.3,588.8v.2c0,7.1,4.8,11.8,10.4,11.8s10.4-4.7,10.4-11.8v-.2c0-7.1-4.7-11.8-10.4-11.8s-10.4,4.6-10.4,11.8Z"/>
      <path class="st20" d="M602.7,611.2c-12.8,0-22.3-9-22.3-22.1v-.2c0-12.2,8.7-22.2,21.1-22.2s20.5,11.7,20.5,20.5-2.5,5.8-5.7,5.8h-24c1.2,5.5,5,8.4,10.4,8.4s6.1-1,8.6-2.9c.9-.6,1.7-1,2.9-1,2.7,0,4.7,2.1,4.7,4.8s-.7,2.8-1.6,3.6c-3.7,3.2-8.6,5.2-14.8,5.2ZM610.5,585.6c-.7-5.4-3.9-9.1-9-9.1s-8.3,3.6-9.2,9.1h18.2Z"/>
      <path class="st20" d="M635.8,573.1c0-3.3,2.7-6.1,6.1-6.1s6.1,2.7,6.1,6.1v1.9c1.8-4.1,4.6-8,8.2-8s5.9,2.5,5.9,5.9-2.1,5.1-4.5,5.7c-6.1,1.4-9.6,6.1-9.6,14.7v11.3c0,3.3-2.7,6.1-6.1,6.1s-6.1-2.7-6.1-6.1v-31.5Z"/>
      <path class="st20" d="M672.5,606.2c-1.3-.8-2.3-2.2-2.3-4.1,0-2.7,2.1-4.8,4.8-4.8s1.8.2,2.4.6c4.1,2.5,8.1,3.8,11.5,3.8s5.1-1.3,5.1-3.2v-.2c0-2.6-4.1-3.5-8.8-4.9-6-1.8-12.7-4.5-12.7-12.8v-.2c0-8.7,7-13.5,15.6-13.5s9.1,1.2,13.2,3.3c1.8.9,2.9,2.5,2.9,4.5s-2.2,4.8-4.9,4.8-1.4-.2-2.2-.6c-3.4-1.7-6.7-2.7-9.2-2.7s-4.5,1.3-4.5,2.9v.2c0,2.4,4.1,3.5,8.7,5.1,6,2,12.9,4.9,12.9,12.7v.2c0,9.5-7.1,13.8-16.3,13.8s-10.9-1.5-16.1-4.9Z"/>
    </g>
  </g>
  <g id="_Шар_1" data-name="Шар_1" class="st25">
    <g>
      <path d="M176.8,338.5c0-.7-1.3-4.1-.3-4.3,3.3,1.3,3.5,3.2,5.3,5.6,4.8,6.5,8.4,13.9,13,20.4,1.6,3.7,3.7,7.3,5,11.1.2,6,.7,11.4-.6,17.3s-5.9,11.9-5,19.2l7.4-13c2-6.4,5.9-12.2,9.3-18l7.2-8.9,1.5-4.1c.7-.9,2-1.9,2.5-2.5,2.8-3.8,6-7.4,8.1-11.8s0-.4,0-.6c4.4.8,2.4-5.1,6.2-6.8v-.6c.2,0,.5,0,.6,0s.4,0,1.2-.6-.1-1.1,0-1.2,2.1-1.1,2.5-1.2.4,0,.6,0h.6c0,.6.6,1,.6,1.2.1.6,0,1.3,0,1.9-5.4,5.3-11.5,13.4-15.5,19.8-3,1.7-4.5,6-6.2,8.7-3.2,5-6.6,9.4-9.3,14.9s-1.7,3-.6,3.7c-.7,1-.6,1.2-.6,1.2-.2.3.3,1.7-.1,2.4s-4.3,2.8-5.4,4.9-1.9,5.3-2.5,6.9-1.2,3.7-1.9,5.6c-4.2,5.4-5.9,13.2-7.4,19.8-1.7,3.8-2,5.4-3.1,9.3s-.8,3.1-1.2,5c-2.3,2.9-2.5,7.6-3.1,11.1s-2.1,8.9-1.2,11.1,1.1,1.5,1.9,1.9c-1.2,1.7-3.2,4.3-3.7,6.2-1.9,6.3-1.1,14.5-1.2,21.1-2.3.9-1.8,9.9,0,11.1,0,5,.4,9.9.6,14.9s.4,5.9.6,8.7,0,.4,0,.6c.2,2.3-.2,4.7,0,7.1s1.5,8.6,3.1,9.6c.4,2.2.7,4.6,1.2,6.8.8,3.7.1,7.9,3.7,9.9s.4,0,.6,0c.4.1,1,.6,1.2.6-2.4,6.4,2.1,16.9,4.3,23.5s1.7,3.8,3,6.3-.4,4,2,4.9c.2.7.1,1.7.6,3.1,1.4,4,3.3,6.4,5,9.9s3.4,7.4,5,9.9,3.3,4.9,5,7.4c3.1,6.3,5.9,9.8,9.9,15.5s2.9,3.7,4.3,5.6c3.5,4.6,6.2,9.9,10.8,13.6,1.9-.5-.7-12.3-2.8-13.6,0-.2,0-.4,0-.6-1.8-5.4-5.9-10-8.7-14.9s-1.4-1.8-1.9-2.5c-.4-2.5-1-5-1.9-7.4-.6-6.2-1.8-12.2-1.2-18.6s1.8-7.1,2.5-9.9,2.1-7.9,3.1-10.5,2.6-5.6,3.7-8.1,3-5.2,4.3-8.1c2.5-1,3.4-5.4,4.3-7.4s2.1-4.5,3.1-6.2c2.8,1.5,2.7-1.8,3.7-3.1-1.1,7.1-.9,11.9,0,18.9s-.4,1.6,1.9,1.5c0,.4,0,.8,0,1.2.5,4.9,1.5,8.9,2.5,13.6s3.5,10.2,4.3,14.9,1.1,5.2,1.2,7.4c.4,5.6-.4,11.2-.6,16.7-.5,1.7-1.1,2.8-1.9,4.3-1.8,3.9-5.9,6.9-7.4,9.3s-2.4,4.6-3.1,6.2-.5.4-.6.6c-2,5.1-2.6,9.1-1.9,14.9s1.3,4.9,2.5,6.8c3.6,5.7,20,19.4,26,23.5.8,2.7,3.2,3.5,5,4.3s.5,0,.6,0c.9,2.3,3.1,3.6,5,5,4.2,3,10.6,7.4,14.9,9.9s5.9,3.5,9.3,5,.4,0,.6,0c2.2,2.7,4.9,3.7,8.1,4.3s2.6,1.9,3.7.3c-.2-3-2.5-4.1-3.7-5.9-4.6-6.8-13.4-10.3-19.2-15.9-7.2-7-11.5-15-16.1-23.7,0-.2,0-.4,0-.6-1.9-14.7-1.1-27.6,0-42.1s.8-7.9,1.2-11.8l2.5-13.6c1.3-2.7.8-6,1.2-8.7,2.1-.5,1.8,1.2,3.1,3.7.5,7.3.4,12.4,6.2,18,4.1,8.7,10.7,16.4,16.1,24.8,5.3,8.3,9.5,14.7,14.2,23.5,2.2,8.2,1.2,15.3,0,23.5s-2.1,5.9-2.5,8.7c-3-.9-2,9.8-1.9,11.5s.3,2.1,1.3,2.8c.4,2.6,3,8.6,5,10.5,3.6,3.7,20.9,9,26.6,10.5,4.4,2.8,9.8,3.6,14.9,5s3.8.8,5.6,1.2c4,1,6.7,1.8,10.5,2.5s9.5,1.9,14.2,2.5l3.1,5.6c-.3.7-13.9-1.1-15.5-1.2s-2.9-.4-4.3-.6l-15.5-3.7c-5.7-1.7-11.7-3.6-17.3-5.6-8.1-2.8-16.1-6.2-24.2-9.3s-5.5-2.7-8.1-3.7c-4.3-1.8-4.1-2.6-9.6-2.5-2.2,0-14,1.1-13.9,4.3-1.6.6-3.3.7-4.8,1.7s-1.8,1.9-2.7,2.6c-3.4.4-5.3,5.5-7.4,7.4-4.4,3.9-9.6,6.8-15.5,8.1s-5,1.2-5.3,1.2h-11.8c-1,0-6.5-1.1-9-1.2-4.1-.3-8.3-1-12.4-1.2s-4.9-.4-7.4-.6l-14.9-2.5c-7-.9-11.7.4-18,1.9s-4.3,1.5-6.8,1.9l-1.2-.6c1.2-3.8,33.5-24.2,39-27.3s5.3-3,6.8-3.7c6.8-3.2,15.4-7,22.9-8.1s9.8.9,15.5,0c.6.1,1.6.4,2.5.6l9.3,2.5c5.9,2.1,13.2,7.1,19.2,8.7,1.8,2.5,5.4,1.8,8.1,1.9l8,1.2c-.3-1.8-4.6-5.5-6.2-3.7-11.9-9.3-25.8-15.6-37.2-26-1.5-1.4-3.3-5.6-6.2-5.6-4.5-4.5-18.8-19.4-23.5-21.1l1.2-5c-.8,0-1.7,0-2.5,0-2.4-4.2-6.5-7.3-9.3-11.1s-2.3-6.3-5.6-7.4c0-.2,0-.5,0-.6-1-2.1-2-5.2-4.3-6.2-4.9-8.7-10.8-16.8-14.9-26s-1.3-6.3-3.7-8.1c-.5-1.4-.4-3-.6-3.7-.8-2.5-3.2-7.3-4.3-9.9s-4.2-9.1-6.2-11.8-.6-1.7-1.9-2.5h.6l2.5-1c-.7-4.5-.9-7.5-3.1-10.8s-.1-1.6-1.2-1.9c0-1.3-.4-4.7-.6-6.2s-.5-.9-.6-1.2c2.4-2.3-.5-5.1-.6-5.4-.3-1.8.4-9-2.5-8.2-.3-3-1-6.3-1.2-9.3s0-2.9,0-4.3c2.4-2.6-.6-8-.6-9.6v-30.3c0-1.9,3.3-7-2.5-7.7v-.6c1.3-4,3.1.3,3.7-3.7s.8-6.7,1.2-9.9.6-7.9,1.2-11.1,2-8.6,3.1-13,2.6-8.7,3.7-13,2.4-7,3.1-10.5c1.6,1.2,3.1-4.3,3.1-4.6.3-2.3.2-7.6,0-9.9s-1.2-5.8-3.1-4.7c-.4-1.3-1.7-3-2.5-4.3-1.9-3.5-4.2-4.7-6.2-7.4s-1.9-1.4-3.1-4.3l-1.2-45.8Z"/>
      <path d="M168.1,638.9c7.5-.5,15.8,1.7,22.3,0,1,.1,1.7.4,2.5.6,8,1.8,14.3,5.6,21.1,9.9,1,2.9,4.1,4.4,6.2,6.2s7.2,6.9,10.5,8.7,1.9.5,3.7.6,1.7,0,2.5,0l-1.2,5c-12.3-4.4-15.7.4-26,2.5s-12.4,1.7-20.4,0-7.3-2.9-11.8-5-6.2-3.5-9.3-5c-7.7-3.6-17-9.3-24.8-11.8-3.6-1.1-6.8-2-10.5-2.5-2.2-.3-6.7,1-8-.9,2.5-2,5.8-1.6,8.7-2.2,4.1-.9,8.4-1.3,12.4-2.5,4.4.9,8.6-1.7,12.4-2.5s1.6-.5,2.5-.6c2.1-.3,5.2-.5,7.4-.6Z"/>
      <path d="M233.8,486.5l1.9.6c-1.3,2.6-2.1,3.2-3.1,6.2-2.5,3.7-4.5,9.5-3.7,13.6-4,16.6-1.6,31.9-17.3,42.1-7.2,4.7-15.6,5.8-19.2,15.5-.2,0-.9-.5-1.2-.6,2.2-5.4.9-9.4.6-14.9s-1.8-12.7-1.2-19.2c.3-2.2,1.2-4.7,1.9-6.8,1-3.2,1.9-3.8,3.1-6.2l24.2-22.3c.4,0,1,.1,1.2,0,4.7-2.9,7.8-5.7,13-8.1Z"/>
      <path d="M241.2,407.9c.3,0,2.6,1,3.7,0,0,.9-.8,1.8-1.2,2.5-2.3,3.5-4.1,4.6-6.8,9.3s-6.9,12.6-9.9,19.2c-2.4,2.5-3.6,5.9-5.6,8.7s-4.5,4.6-6.2,7.4c-1.2.6-3.6,1.4-5,1.9l-11.8,2.5c-2.1.4-3.4.8-5,2.5h-.6c-2.6,1.9-4.9,3.5-6.8,6.2-.8-.4-1.5-1-1.9-1.9,6.8-4.7,5-15.6,6.8-22.9,2.8-16.1,17-23.6,31-27.9s8.3-.8,9.9-3.7c2.2-.7,5.7-2.7,7.4-3.1s1.4-.5,1.9-.6Z"/>
      <path d="M125.4,537.3c3.1,0,6.2,0,9.3,0s3.7-.1,5.6,0l14.2,4.3c5.1.8,9.3,4,13,7.4s.4.4.6.6c2.6,2.6,6.6,9,8.7,12.4s.8,2.4,1.2,3.1c1.8,3.1,3.3,6.4,6.2,8.7,0,1.2,0,2.5,0,3.7h-.6c-1.9-1.1-3.4-1.6-5.6-1.9s-4.6.2-6.8,0c-3.1-.3-6.9.4-9.9,0-8.5-1.2-13-8.6-18.6-14.2-1.7-1.7-3.5-4.1-5.6-6.2-5-5-8.5-9.4-14.2-13.6s-1.8-2.3-3.7-3.1c-.6-2.1,4.2-1.2,6.2-1.2Z"/>
      <path d="M124.1,430.2c2.8.4,7.7.8,9.9,1.2,7.5,1.7,16.3,5.5,22.9,9.3,4.2,4.8,6.4,8.9,8.7,14.9s3.3,14,6.2,19.2l-1.9,1.9c-.8-.6-3.6-2.3-4.3-2.5-1.3-3.4-9.7-1.8-12.4-1.2-1.2-.2-5-1.4-6.2-1.9l-8.7-9.9c-.3-.5-.4-1.7-1.2-3.1-1.4-2.3-3-4.5-4.3-6.8s-2.8-5.2-4.3-7.4c-2.6-3.9-1.3-4-5.6-8.1s-4.5-3.7-7.4-5.6c2.9.1,4.7-.6,8.7,0Z"/>
      <path d="M339.1,308.8c0,.4.1,1,0,1.2-4.7.8-10.8-.7-14.2,3.1-4.6.4-5.6,2.6-8.7,4.3-7,4-15.5,10.1-22.9,13-3.2-1.4-7,1.1-10.3,1.2s-7.1-1.3-9.6-1.2-3.9,0-5.6,0c-2.7-1.1-8.5-.8-11.2,0-.2-.1-.6-.4-.6-.6s0-1.1,0-1.2c1.5,0,2.2.4,1.9-1.2v-.6c.6-.4,1.2-.8,1.9-1.2,1.8-1.2,3.5-4.1,3.7-4.3s-.1-.5,0-.6c.8-.7,1.2-1.3,1.9-1.9s7.3-2.6,6.8-6.2c.2-.1,1.3.4,2.5-.6s.4-1,.6-1.2c4.7-.4,7-2.5,11.8-3.1,17-2.2,35,1.2,52,1.2Z"/>
      <path d="M274.7,355.8c3.3-.1,6.6,0,9.9,0l-3.1,1.2c-3.3,1-3.2,2.4-4.3,3.1-2.5,1.6-5,3.7-7.4,5.6-4,3-7.4,6.1-11.2,9.3s-.9,1.6-1.9,2.5c-8.6,5.7-15.3,9.3-26,10.5s-11.9-1.6-16.1,1.9c-1,0-2.1,0-3.1,0v-.6c.2-.4.4-.8.6-1.2,2.4-3.5,5.7-8.7,8.1-11.8,3.5-4.7,7.2-9.2,12.4-12.4,3.8-.7,7.4-1.7,11.2-2.5s7.9-.6,10.5-3.1c.2,0,.4,0,.6,0,5.2-.8,10.9-2.1,16.1-2.5s2.5,0,3.7,0Z"/>
      <path d="M323,256.1c0,0,1.5-.6,1.3.9s-.9,3.1-1.3,5.2,0,.8,0,1.2c-.2,1-.4,2.1-.6,3.1-2,2.7-3.6,6.8-5,9.9-2.5,5.7-4.7,10.9-8.1,16.1-3.6,2.6-6.5,5.9-10.5,8.1s-1.9,1.4-3.1,1.9c-.4-2.3-8.2,1-9.3,1.9-4.8,1.4-7,1-11,4.5s0,1.6-.2,1.7c-.3.2-.4,1-.6,1.2-1.3-1.6-3.2-1.8-2.5-4.3,1.5-1.5,4.4-4.7,5.6-6.2,4-5.2,3.6-7.6,6.2-13s3.8-7.4,6.2-11.1c2.7-.6,5.2-2.9,7.4-4.3,4-2.6,6.7-3,9.9-5s8.8-5.6,11.8-8.1,2.6-2.7,3.7-3.7Z"/>
      <path d="M248.6,281.5c1,5.4,2.7,10.8,3.7,16.1.5,7.2-.1,14.5,0,21.7-.2.6-.4,1.3-.6,1.9s-.5.8-.6,1.9,0,1.7,0,2.5c-.2.2-.4.4-.6.6s-.4.4-.6.6c-2,1.8-4.3,5.5-6.2,7.4s-2.7,1.4-4.3,3.1-1,2.2-1.2,2.5-1.7-.3-1.2,1.2v.6c-.1,0-.4,0-.6,0-.6.1-.3.3,0,.6-3.8,1.7-1.8,7.6-6.2,6.8.8-1.8,1.3-3.1,1.9-5s4.6-9.9,0-9.9c-.3-3.6-1.6-7-1.9-10.5-.2-4.9,0-8,1.1-12.9s.8-2.3-1.1-2c.2-.6.5-.9.6-1.2.7-1.9,3.7-6.7,5-9.3s2.7-4.7,3.7-6.8c1.9-4,2.8-5.6,4.3-9.9s.3-1.7.6-2.5,1.2.1,1.2,0c.4-1.2-.7-3.8,1.2-5,.4,2.5,1.4,5,1.9,7.4Z"/>
      <path class="st11" d="M256.1,322.4c.1.2.4.6.6.6s.4,0,.6,0,.4,0,.6,0c0,.4,0,.9,0,1.2-1.1.5-1.6-.2-1.2,1.9v.6c-.6.4-1.4.4-1.9.6-1,.5-2.7.8-2.5,2.5h3.1s.6,0,.6,0c0,.3.4.5.6.6-.1,0-.4,1-.6,1.2-.2,0-.4,0-.6,0-4.4,1-8.2,3.3-11.8,6.2l-.6-.6,1.9-2.8c0-.5-.7-.3-1.2-.3,1.9-1.9,4.2-5.6,6.2-7.4l.6-.6c.2-.2.4-.4.6-.6s1.9.3,2.4,0,0-1.7,0-1.8c.7-.6,1.5-1.1,2.5-1.2Z"/>
      <path class="st0" d="M176.8,529.3c-1-15.1-.3-30.7-1.9-45.8s-1.1-.3-1.2-1.9c5.8.7,2.5,5.8,2.5,7.7v30.3c0,1.6,3,7,.6,9.6Z"/>
      <path class="st18" d="M349,253.6"/>
      <path class="st14" d="M272.2,307.5c-.7,2.5,1.2,2.7,2.5,4.3-1.1,1-2.3.5-2.5.6-1.5,1.2-5.5,3.4-7.4,4.3-.3-.5-.9-.8-1.2-1.2,2.8-2.9,6-5.2,8.7-8.1Z"/>
      <path class="st4" d="M178,542.9c2.9-.8,2.2,6.4,2.5,8.2s3,3.1.6,5.4c-.6-3.3-1.1-7.9-3.1-10.5-.1-1,.1-2.1,0-3.1Z"/>
      <path class="st27" d="M174.3,476c.3.3-.8,1.8-.6,1.9l3.7-.6c-.6,4.1-2.4-.3-3.7,3.7-.9-1.9-2.1-3.1-3.7-4.3l1.9-1.9c.2.3,2.1.8,2.5,1.2Z"/>
      <path class="st10" d="M124.7,536.1l.6,1.2c-2,0-6.8-.8-6.2,1.2-1.4-.6-3.4-1-5-1.2,0-.3-.4-.5-.6-.6,3.8-.3,7.3-.7,11.2-.6Z"/>
      <path class="st17" d="M210.2,456.8c-2,.7-2.6.7-4.3,1.2-3.1.9-4.8.7-7.4,1.2l11.8-2.5Z"/>
      <path class="st6" d="M273.4,714.4l-9.3-2.5c3.9.8,5.5,1.1,9.3,2.5Z"/>
      <path class="st23" d="M257.9,323c-.2,0-.4,0-.6,0,.1-.2.4-.6.6-.6,0,.2,0,.4,0,.6Z"/>
      <path class="st23" d="M259.8,321.2c0,.3-.5.7-.6,1.2-.4,0-.9,0-1.2,0v-.6c.3,0,.4-.5.6-.6.3-.2.5-1.1,1.2-1.2,0,.4,0,.9,0,1.2Z"/>
      <path class="st12" d="M178.6,751c-.3,0-.9,1-1.9.6l.6-1.2,1.2.6Z"/>
      <path class="st22" d="M257.9,321.8v.6c-.3,0-.5.4-.6.6-.2,0-.4,0-.6,0v-.6c0-.2,0-.5,0-.6.4,0,.9.1,1.2,0Z"/>
      <path class="st22" d="M259.2,322.4c0,.2,0,.4,0,.6-.2,0-.4,0-.6,0s-.4,0-.6,0c0-.2,0-.4,0-.6.4,0,.9,0,1.2,0Z"/>
      <path class="st7" d="M258.6,321.2c-.2.1-.4.5-.6.6s-.9,0-1.2,0c.6-.8,1-.7,1.9-.6Z"/>
      <path class="st23" d="M261,319.9c0,.4,0,.8,0,1.2h-.6c0-.4,0-.8,0-1.2s0-.4,0-.6c.3,0,.5.5.6.6Z"/>
      <path class="st1" d="M260.4,321.2h-.6c0-.3,0-.9,0-1.2h.6c0,.4,0,.8,0,1.2Z"/>
      <path class="st7" d="M256.7,323c-.3,0-.5-.4-.6-.6h.6v.6Z"/>
      <path class="st21" d="M183.6,565.8c2.2,3.3,2.4,6.3,3.1,10.8l-2.5,1c0-1.2,0-2.5,0-3.7,0-2.7.3-5.4-.6-8.1Z"/>
      <path class="st16" d="M181.1,495.2c-.1,3.7,0,7.5,0,11.1-1.8-1.2-2.3-10.3,0-11.1Z"/>
      <path class="st26" d="M243.7,337.9v.6l-1.2,1.2c0-.2-.7-.7-.6-1.2s.5-.8.6-1.2c.2,0,.4,0,.6,0l.6.6Z"/>
      <path class="st3" d="M212.1,388c-.2.4-.4.9-.6,1.2s-.5.4-.6.6h-.6c0,0,0-.2.6-1.2s1.1-.5,1.2-.6Z"/>
      <path class="st24" d="M190.4,638.9c-6.5,1.7-14.8-.5-22.3,0,7.2-1,15.2-1,22.3,0Z"/>
      <path class="st8" d="M256.1,329.8h-.6c0-.4,0-.9,0-1.2h.6c0,.2,0,.9,0,1.2Z"/>
      <path class="st13" d="M211.5,389.9h-.6c.2-.2.5-.4.6-.6v.6Z"/>
      <path class="st2" d="M249.9,326.7c.2-.2.4-.4.6-.6l-.6.6Z"/>
      <path class="st9" d="M243.7,334.2c.5,0,1.3-.2,1.2.3l-1.9,2.8c-.2,0-.4,0-.6,0,.2-.8,0-1,.6-1.9.3-.2.4-.4.6-.6s0-.6,0-.6Z"/>
      <path class="st15" d="M256.7,326.1"/>
      <path class="st7" d="M257.9,323c.2,0,.4,0,.6,0"/>
      <path class="st5" d="M243.7,338.5l-1.2,1.2,1.2-1.2Z"/>
      <path class="st19" d="M243.1,335.4c.2-.2.4-.4.6-.6-.2.2-.4.5-.6.6Z"/>
      <path class="st15" d="M259.2,323"/>
    </g>
  </g>
  <g id="_Шар_4" data-name="Шар_4" class="st25">
    <image width="444" height="289" transform="translate(34.2 200.3) scale(2.2)" xlink:href="Сайт/Cluch_Top-3_Providers_only_black.png"/>
  </g>
</svg>