<svg width="17" height="15" viewBox="0 0 17 15" fill="none" xmlns="http://www.w3.org/2000/svg">
<path fill-rule="evenodd" clip-rule="evenodd" d="M12.3236 9.15308C12.5818 9.1532 12.84 9.15333 13.0983 9.15333C13.3609 9.15333 13.6236 9.15318 13.8863 9.15303C14.7493 9.15254 15.6123 9.15205 16.4751 9.15684C16.6126 9.15763 16.645 9.1213 16.6446 8.98615C16.6414 7.81412 16.6411 6.64228 16.6409 5.47037C16.6408 4.95735 16.6407 4.44432 16.6403 3.93125C16.6403 3.86055 16.6356 3.78829 16.6208 3.71915C16.4591 2.96566 15.9017 2.50904 15.129 2.50552C14.1599 2.50123 13.1904 2.5024 12.2209 2.50709C12.1057 2.50748 12.0631 2.48756 12.0678 2.36061C12.0788 2.07468 12.076 1.78797 12.0702 1.50205C12.0526 0.655592 11.4366 0.0165527 10.5937 0.0095217C9.0777 -0.00336845 7.56174 -0.00297784 6.04578 0.0095217C5.28682 0.0157715 4.72669 0.525128 4.60091 1.27588C4.55824 1.53017 4.56549 1.7859 4.57274 2.04143C4.57544 2.13681 4.57815 2.23217 4.57825 2.32741C4.57825 2.47232 4.54505 2.50904 4.39818 2.50787C3.43533 2.50006 2.47247 2.49967 1.50961 2.50513C0.627615 2.51021 0.0041998 3.13949 0.00380919 4.01524C0.00341858 4.566 0.00341858 5.1168 0.00341858 5.66762C0.00341858 6.76926 0.00341858 7.87095 0.000293689 8.97248C-9.69214e-05 9.11036 0.0221679 9.15763 0.176069 9.15724C2.42052 9.15138 4.66536 9.15177 6.90981 9.15684C7.05277 9.15684 7.07816 9.11388 7.07621 8.98263C7.07074 8.58772 7.3344 8.3268 7.7297 8.32406C8.11992 8.32172 8.51053 8.32211 8.90075 8.32406C9.30972 8.32602 9.57417 8.58304 9.56792 8.98927C9.56596 9.1295 9.60815 9.15724 9.74096 9.15645C10.6018 9.15225 11.4627 9.15266 12.3236 9.15308ZM8.8718 2.50413C8.68458 2.50424 8.49736 2.50435 8.31015 2.50435L8.30976 2.50474C8.11652 2.50474 7.92326 2.50452 7.72998 2.5043C7.15007 2.50364 6.57 2.50299 5.98992 2.50826C5.85477 2.50943 5.81376 2.47857 5.81961 2.33951C5.82996 2.09582 5.8269 1.85126 5.82384 1.60682C5.82332 1.56525 5.8228 1.52368 5.82235 1.48212C5.82039 1.32861 5.88719 1.25479 6.04343 1.25479C7.56408 1.25557 9.08473 1.25557 10.6054 1.25479C10.7636 1.25479 10.8237 1.33604 10.8222 1.48681C10.8217 1.52606 10.8213 1.56533 10.8208 1.6046C10.8178 1.85768 10.8148 2.11115 10.8249 2.36373C10.83 2.49498 10.7788 2.50709 10.669 2.5067C10.07 2.50342 9.47088 2.50378 8.8718 2.50413ZM6.28723 14.9988C6.96443 14.9987 7.64164 14.9986 8.31885 14.9986L8.31924 14.999C8.97773 14.999 9.63621 14.9988 10.2947 14.9986C11.8939 14.998 13.4932 14.9974 15.0924 15.0002C16.1291 15.0022 16.665 14.2006 16.6475 13.4717C16.6263 12.5987 16.6351 11.725 16.644 10.8519C16.6448 10.7754 16.6455 10.6988 16.6463 10.6222C16.6478 10.4554 16.6018 10.4246 16.4436 10.425C14.2182 10.4308 11.9933 10.4308 9.76802 10.425C9.6067 10.4246 9.56256 10.4605 9.56764 10.6242C9.57896 10.9863 9.31061 11.2488 8.95086 11.2503C8.68187 11.2511 8.41306 11.2509 8.14419 11.2506C8.00973 11.2505 7.87526 11.2503 7.74075 11.2503C7.32162 11.2499 7.07007 11.0085 7.0771 10.5922C7.07944 10.4508 7.03726 10.4254 6.90445 10.4254C4.65961 10.4301 2.41516 10.4301 0.170319 10.4254C0.0336055 10.425 -0.000768292 10.4574 1.29296e-05 10.5949C0.00455633 11.2716 0.00434536 11.9481 0.00413436 12.6247C0.00403698 12.937 0.00393959 13.2493 0.00430965 13.5616C0.00470026 13.6327 0.00587209 13.7053 0.0203247 13.7745C0.177741 14.5369 0.749986 14.9979 1.54566 14.9982C3.12618 14.9993 4.7067 14.9991 6.28723 14.9988Z" fill="#9C9C9C"/>
</svg>
