<svg width="15" height="19" viewBox="0 0 15 19" fill="none" xmlns="http://www.w3.org/2000/svg">
<path fill-rule="evenodd" clip-rule="evenodd" d="M7.50587 9.34324C10.2739 9.33631 12.1931 7.07412 12.1654 4.67335C12.1654 2.08898 10.0902 0 7.5128 0C4.91457 0 2.84637 2.07166 2.82905 4.66643C2.8152 7.09837 4.75521 9.35017 7.50587 9.34324ZM13.1009 11.2417H7.50257L7.50604 11.2383H1.86614C1.01392 11.2383 0.25524 11.8134 0.0889527 12.6448C-0.042691 13.2926 -0.0219052 13.9578 0.109739 14.6056C0.348776 15.7661 1.0451 16.6218 2.00818 17.2627C3.52208 18.2708 5.23345 18.6138 7.01064 18.7004C7.96679 18.7489 8.92294 18.6727 9.86523 18.4856C11.0847 18.2431 12.2348 17.8343 13.2533 17.093C14.743 16.0086 15.1622 14.4947 14.9474 12.7591C14.8365 11.8619 14.0259 11.2417 13.1009 11.2417Z" fill="#9C9C9C"/>
</svg>
