<svg width="100" height="100" viewBox="0 0 100 100" fill="none" xmlns="http://www.w3.org/2000/svg">
<path d="M22.0442 19.2206L20.3151 21.7904H21.9226L22.8532 20.3257L23.8103 21.8221H25.4547L23.7257 19.2206L25.3754 16.7565H23.7997L22.8849 18.1207L22.0125 16.7565H20.3839L22.0442 19.2206Z" fill="white"/>
<path d="M30.2506 18.5385L31.2976 17.7189C31.2976 17.7189 30.6578 16.4234 28.7066 16.6878C26.6339 16.9681 26.5334 19.0831 26.5334 19.0831C26.5334 19.0831 26.1844 21.6582 29.1085 21.9067C29.1085 21.9067 30.4727 22.0336 31.3505 20.7963L30.3088 20.0402C30.3088 20.0402 29.3359 21.214 28.3312 20.2728C28.3312 20.2728 27.5645 19.5537 28.2096 18.4962C28.3576 18.2477 28.5956 18.0573 28.8758 17.9886C29.2354 17.8934 29.7589 17.9251 30.2506 18.5385Z" fill="white"/>
<path d="M63.9805 18.5385L65.0275 17.7189C65.0275 17.7189 64.3877 16.4234 62.4365 16.6878C60.3638 16.9681 60.2633 19.0831 60.2633 19.0831C60.2633 19.0831 59.9143 21.6582 62.8384 21.9067C62.8384 21.9067 64.2026 22.0336 65.0804 20.7963L64.0387 20.0402C64.0387 20.0402 63.0658 21.214 62.0611 20.2728C62.0611 20.2728 61.2944 19.5537 61.9395 18.4962C62.0876 18.2477 62.3255 18.0573 62.6058 17.9886C62.9653 17.8934 63.4888 17.9251 63.9805 18.5385Z" fill="white"/>
<path d="M38.1927 16.7354V21.8221H42.0315V20.5795H39.6151V16.7354H38.1927Z" fill="white"/>
<path d="M43.3323 16.7354V21.8221H47.1711V20.5795H44.7547V16.7354H43.3323Z" fill="white"/>
<path d="M76.0893 16.7354H74.6563V21.8221H76.0893V16.7354Z" fill="white"/>
<path d="M37.3942 58.9202H36.5694L34.8773 62.8648H35.7868L36.1305 61.9765H37.775L38.1345 62.8648H39.044L37.3942 58.9202ZM36.4478 61.1728L36.9659 59.9619L37.4841 61.1728H36.4478Z" fill="white"/>
<path d="M50.3278 58.9202H49.503L47.8109 62.8648H48.7204L49.0641 61.9765H50.7085L51.0681 62.8648H51.9776L50.3278 58.9202ZM49.3813 61.1728L49.8995 59.9619L50.4177 61.1728H49.3813Z" fill="white"/>
<path d="M15.6039 95.9338C16.0745 92.2377 16.5239 88.6316 16.9892 85.0254C17.4545 81.4192 17.9198 77.813 18.3746 74.1328C18.1102 74.1328 17.9146 74.1328 17.7189 74.1328C12.3943 74.1328 7.07488 74.1328 1.75022 74.1328C1.00466 74.1328 1.09455 74.1328 1.09455 73.4825C1.09455 51.4118 1.09455 29.3412 1.09455 7.27053C1.09455 7.07489 1.09455 6.87924 1.09455 6.69946C1.4594 6.60429 97.5254 6.57256 98.1599 6.65716C98.1811 6.73648 98.2181 6.83166 98.2234 6.92155C98.2339 7.06431 98.2287 7.20708 98.2287 7.34984C98.2287 29.3623 98.2287 51.3801 98.2287 73.3926C98.2287 74.1857 98.3133 74.1328 97.4884 74.1328C77.8183 74.1328 58.143 74.1328 38.4729 74.1223C38.0394 74.1223 37.7327 74.2492 37.4207 74.5506C32.8099 79.0874 28.1885 83.6083 23.5671 88.1398C20.992 90.662 18.4169 93.1895 15.8418 95.7117C15.7942 95.7699 15.7308 95.8175 15.6039 95.9338ZM19.8921 87.1722C19.9239 87.188 19.9556 87.2039 19.9873 87.2198C20.1036 87.1246 20.22 87.0347 20.3257 86.9289C22.9643 84.3486 25.5975 81.7629 28.2361 79.1773C30.9433 76.5229 33.6559 73.8737 36.3579 71.2141C36.5588 71.0131 36.765 70.9391 37.04 70.9444C37.7432 70.9603 38.4412 70.9497 39.1445 70.9497C57.5719 70.9497 75.9994 70.9497 94.4268 70.9497C94.6384 70.9497 94.8446 70.9497 95.1089 70.9497C95.1089 70.68 95.1089 70.4685 95.1089 70.257C95.1089 50.3331 95.1089 30.4093 95.1089 10.4854C95.1089 9.75044 95.2411 9.73986 94.3687 9.74515C64.5675 9.74515 34.7663 9.74515 4.9704 9.74515C4.84349 9.74515 4.7113 9.73986 4.5844 9.75044C4.27243 9.77159 4.2407 9.80331 4.22484 10.0994C4.21955 10.2581 4.22484 10.4167 4.22484 10.57C4.22484 22.1764 4.22484 33.7881 4.22484 45.3945C4.22484 53.6802 4.22484 61.9712 4.22484 70.257C4.22484 70.4685 4.22484 70.68 4.22484 70.9232C4.46807 70.9338 4.64785 70.9497 4.82763 70.9497C8.56071 70.9497 12.2938 70.9497 16.0322 70.9497C17.8194 70.9497 19.6066 70.9497 21.3991 70.9497C21.563 70.9497 21.727 70.9761 21.9437 70.9973C21.7058 72.8479 21.4731 74.6457 21.2405 76.4383C21.0131 78.2255 20.7699 80.0074 20.5584 81.7946C20.3416 83.5924 20.0666 85.3797 19.8921 87.1722Z" fill="white"/>
<path d="M22.6206 82.2917C23.2498 77.7338 23.8632 73.2763 24.4871 68.7553C23.8685 68.75 23.2762 68.75 22.684 68.7448C22.0812 68.7448 21.4837 68.7448 20.8809 68.7448C20.294 68.7448 19.7071 68.7448 19.1202 68.7448C18.5174 68.7448 17.9199 68.7448 17.3171 68.7448C16.7143 68.7448 16.1168 68.7448 15.514 68.7448C14.9112 68.7448 14.3137 68.7448 13.7109 68.7448C13.1081 68.7448 12.5106 68.7448 11.9078 68.7448C11.3209 68.7448 10.7339 68.7448 10.147 68.7448C9.54422 68.7448 8.94671 68.7448 8.34392 68.7448C7.74642 68.7448 7.14891 68.7448 6.51968 68.7448C6.51968 49.7357 6.51968 30.7636 6.51968 11.7598C35.2686 11.7598 64.0176 11.7598 92.7665 11.7598C92.8511 12.0506 92.8723 68.2107 92.7771 68.7448C92.592 68.7448 92.3964 68.7448 92.2007 68.7448C73.6305 68.7448 55.0603 68.7448 36.4954 68.7342C36.0512 68.7342 35.7392 68.8505 35.4167 69.1783C31.2817 73.4402 27.1309 77.6862 22.9854 81.9374C22.8955 82.0432 22.7898 82.1331 22.6206 82.2917ZM91.6878 12.8913C63.658 12.8913 35.6758 12.8913 7.67768 12.8913C7.67768 31.1284 7.67768 49.3391 7.67768 67.6026C13.7267 67.6026 19.7388 67.6026 25.7985 67.6026C25.275 71.3992 24.7568 75.1481 24.2439 78.8917C24.2703 78.9076 24.2968 78.9182 24.3179 78.9341C24.4342 78.8177 24.5559 78.7014 24.6722 78.5798C28.1092 75.0529 31.5461 71.5366 34.9725 67.9992C35.2686 67.6925 35.5647 67.5868 35.9825 67.5868C54.2936 67.5973 72.61 67.5973 90.9211 67.5973C91.0639 67.5973 91.2067 67.6026 91.3494 67.5973C91.4605 67.592 91.5662 67.5709 91.6878 67.555C91.6878 49.3232 91.6878 31.1231 91.6878 12.8913Z" fill="white"/>
<path d="M63.51 29.0186C64.1974 29.0186 64.8689 29.0186 65.5986 29.0186C65.5986 33.6136 65.5986 38.198 65.5986 42.8458C65.017 42.7877 64.4194 42.7242 63.7796 42.6607C63.8272 39.8213 63.8695 37.0188 63.9171 34.2217C63.8907 34.2164 63.8642 34.2111 63.8325 34.2058C63.4095 36.1569 62.9812 38.1081 62.5476 40.091C62.0506 40.0539 61.5853 40.0222 61.0935 39.9852C60.6494 38.0235 60.2105 36.0723 59.7716 34.1265C59.6711 35.4854 59.7557 36.839 59.7875 38.1874C59.8192 39.541 59.8562 40.9 59.8932 42.3171C59.2534 42.2748 58.6506 42.2377 58.0002 42.1954C58.0002 37.7908 58.0002 33.4179 58.0002 29.0186C58.6559 29.0186 59.3222 29.0186 60.036 29.0186C60.6123 31.5778 61.194 34.1529 61.7756 36.7227C61.8021 36.7227 61.8232 36.7227 61.8497 36.7227C62.4049 34.1635 62.9548 31.599 63.51 29.0186Z" fill="white"/>
<path d="M76.0258 28.9975C76.507 28.9975 76.9617 28.9975 77.4165 28.9975C78.1197 28.9975 78.8177 29.0133 79.521 28.9922C81.0597 28.9499 81.5937 29.8647 81.7576 30.9698C81.8052 31.2817 81.8158 31.599 81.8158 31.911C81.8211 33.2276 81.8264 34.5442 81.8105 35.8608C81.8052 36.2891 81.7629 36.7174 81.6889 37.1405C81.5884 37.7274 81.324 38.2244 80.7213 38.5311C81.1496 40.8577 81.5726 43.1842 82.0167 45.5901C81.4086 45.4579 80.8482 45.3416 80.2559 45.2147C79.8435 42.9886 79.4364 40.7731 79.0186 38.5258C78.6485 38.4782 78.2995 38.4412 77.9082 38.3936C77.9082 40.514 77.9082 42.5973 77.9082 44.7335C77.2631 44.6119 76.6709 44.5009 76.0311 44.3845C76.0258 39.2555 76.0258 34.1529 76.0258 28.9975ZM77.8976 36.5694C78.363 36.617 78.7701 36.6751 79.1825 36.7016C79.5157 36.7227 79.7642 36.543 79.8541 36.2151C79.9175 35.9825 79.944 35.7339 79.944 35.496C79.9493 34.3803 79.944 33.2646 79.9334 32.1489C79.9334 31.9374 79.9017 31.7206 79.8488 31.5144C79.78 31.2553 79.6214 31.0226 79.3412 30.9856C78.8653 30.9116 78.3841 30.8852 77.8924 30.9275C77.8976 32.8152 77.8976 34.6711 77.8976 36.5694Z" fill="white"/>
<path d="M24.0535 29.0134C24.6986 29.0134 25.2802 29.0134 25.92 29.0134C25.9253 29.2037 25.9306 29.3835 25.9306 29.5633C25.9148 33.2858 25.8936 37.003 25.8777 40.7255C25.8777 40.8947 25.8725 41.0692 25.9042 41.2384C25.9729 41.6191 26.2214 41.8095 26.6074 41.783C26.893 41.7619 27.1785 41.7249 27.4588 41.672C27.9399 41.5821 28.1726 41.3124 28.2043 40.8207C28.2202 40.6092 28.2096 40.3924 28.2096 40.1756C28.2308 37.0717 28.2519 33.9626 28.2731 30.8588C28.2783 30.2613 28.2731 29.6585 28.2731 29.0292C28.9076 29.0292 29.4998 29.0292 30.1396 29.0292C30.1502 29.135 30.166 29.2619 30.166 29.3835C30.1502 32.2758 30.129 35.1629 30.1132 38.0552C30.1079 38.8695 30.1132 39.6891 30.0867 40.5034C30.0761 40.8418 30.0444 41.1908 29.9651 41.5239C29.7272 42.5286 29.0715 43.142 28.0668 43.3323C27.353 43.4698 26.6286 43.5597 25.9042 43.6337C25.0687 43.7236 24.4448 43.3165 24.1963 42.518C24.0799 42.1373 24.0059 41.7302 24.0059 41.3389C24.0059 38.436 24.0271 35.5277 24.0429 32.6248C24.0482 31.5937 24.0535 30.5626 24.0588 29.5316C24.0588 29.3676 24.0535 29.2143 24.0535 29.0134Z" fill="white"/>
<path d="M55.0074 35.5277C55.0074 36.9025 55.0074 38.272 55.0074 39.6468C55.0074 39.816 55.0074 39.9905 54.9915 40.1597C54.9175 41.2384 54.3094 41.8623 53.2307 41.9522C52.9875 41.9734 52.7443 41.9681 52.5011 41.9628C51.8031 41.9417 51.0998 41.9522 50.4019 41.8782C49.3708 41.7672 48.7891 41.1326 48.6939 40.1016C48.6781 39.9429 48.6781 39.7896 48.6781 39.631C48.6781 36.8549 48.6728 34.0789 48.6834 31.3029C48.6834 30.9909 48.7151 30.6737 48.7838 30.367C48.9372 29.6902 49.3866 29.2777 50.0423 29.098C50.2591 29.0398 50.4917 28.9975 50.7191 28.9975C51.4647 28.9869 52.2049 28.9869 52.9505 28.9975C53.1779 29.0028 53.4052 29.0451 53.6273 29.1032C54.4469 29.3253 54.9281 29.981 54.9757 30.9328C54.9968 31.3769 54.9862 31.8211 54.9862 32.2653C54.9862 33.3545 54.9862 34.4385 54.9862 35.5277C54.9915 35.5277 55.0021 35.5277 55.0074 35.5277ZM53.1091 35.4801C53.1038 35.4801 53.0986 35.4801 53.0986 35.4801C53.0986 34.1212 53.0986 32.7623 53.0986 31.4034C53.0986 30.8482 52.8923 30.6208 52.3424 30.5732C52.0886 30.5521 51.8295 30.5573 51.5704 30.5626C50.7667 30.5679 50.5605 30.7741 50.5605 31.5832C50.5658 34.2005 50.5711 36.8179 50.5763 39.4353C50.5763 39.5516 50.5816 39.6627 50.5922 39.779C50.6292 40.0857 50.809 40.3025 51.1051 40.3289C51.6022 40.3712 52.1045 40.3871 52.6015 40.3606C52.9135 40.3448 53.0721 40.1386 53.1038 39.816C53.1197 39.6891 53.1144 39.5569 53.1144 39.43C53.1091 38.1134 53.1091 36.7968 53.1091 35.4801Z" fill="white"/>
<path d="M21.2246 33.365C20.6007 33.4021 20.0085 33.4338 19.3687 33.4655C19.3687 32.9526 19.3687 32.482 19.3687 32.0114C19.3687 31.1019 19.1624 30.9063 18.2424 30.9486C17.7348 30.9697 17.518 31.1654 17.4545 31.6677C17.4334 31.8211 17.4281 31.9797 17.4281 32.1383C17.4228 35.4431 17.4175 38.7479 17.4122 42.0527C17.4122 42.2536 17.4228 42.4545 17.4598 42.6502C17.5286 42.9727 17.7083 43.1155 18.0415 43.089C18.2847 43.0679 18.5279 43.0309 18.7553 42.9621C19.1677 42.8352 19.3211 42.4968 19.3422 42.1002C19.3581 41.7883 19.3475 41.471 19.3475 41.1009C19.9662 41.0057 20.5637 40.9158 21.2088 40.8206C21.2564 41.8094 21.2934 42.7453 20.8281 43.6178C20.5055 44.2153 19.9873 44.596 19.3475 44.7705C18.7712 44.9291 18.1789 45.056 17.5867 45.1354C16.4499 45.294 15.8577 44.8551 15.6462 43.7236C15.5774 43.3587 15.5616 42.9833 15.5616 42.6131C15.5563 39.0651 15.551 35.5171 15.5668 31.9691C15.5668 31.4721 15.6144 30.9645 15.7413 30.4886C15.9899 29.5262 16.6561 29.0345 17.6449 28.9975C18.0996 28.9816 18.5597 28.9869 19.0197 28.9922C20.3257 29.0027 21.0819 29.6214 21.2193 30.9116C21.2934 31.7047 21.2246 32.5137 21.2246 33.365Z" fill="white"/>
<path d="M33.0267 39.5252C33.6242 39.4776 34.2058 39.4353 34.8403 39.3825C34.8456 39.5887 34.8562 39.7684 34.8562 39.9482C34.8668 40.6991 35.0624 40.8789 35.8185 40.8418C35.8344 40.8418 35.845 40.8418 35.8608 40.8418C36.5429 40.7995 36.7703 40.5616 36.7756 39.8689C36.7809 39.1657 36.7703 38.4677 36.7862 37.7644C36.7967 37.4207 36.6698 37.1934 36.3632 37.04C35.681 36.7069 35.0095 36.3632 34.3274 36.0248C34.1476 35.9349 33.9731 35.8397 33.7934 35.7551C33.2593 35.496 33.0161 35.0466 33.0108 34.4755C33.0002 33.3598 33.0108 32.2441 33.0214 31.1284C33.0214 30.9275 33.0584 30.7266 33.106 30.5362C33.2963 29.7378 33.7669 29.2037 34.5971 29.0715C35.4484 28.9341 36.3103 28.9288 37.1563 29.0768C38.0288 29.2302 38.5364 29.7907 38.658 30.6684C38.6844 30.8535 38.6897 31.0385 38.6897 31.2236C38.695 31.6519 38.6897 32.0802 38.6897 32.5561C38.0658 32.6037 37.4683 32.5878 36.8126 32.5984C36.8126 32.2653 36.8126 31.9533 36.8126 31.6466C36.8073 30.8112 36.5958 30.6102 35.7604 30.6367C35.1576 30.6525 34.9038 30.8958 34.8932 31.5091C34.8826 32.2388 34.8932 32.9685 34.8826 33.6982C34.8773 34.0049 34.9937 34.2217 35.2633 34.3592C35.8767 34.6659 36.4901 34.9673 37.1034 35.2739C37.3995 35.422 37.6904 35.5701 37.9812 35.7287C38.4359 35.9719 38.6686 36.3526 38.6633 36.8761C38.6527 37.9918 38.6791 39.1075 38.6527 40.2232C38.621 41.4552 37.9072 42.2272 36.6963 42.3858C36.1464 42.4599 35.5859 42.5074 35.0307 42.5392C34.761 42.555 34.486 42.5286 34.2269 42.4599C33.4814 42.2642 33.1324 41.6984 33.0372 40.9899C32.9791 40.5299 33.0267 40.054 33.0267 39.5252Z" fill="white"/>
<path d="M68.6601 29.0081C70.2306 29.0081 71.7428 29.0081 73.2974 29.0081C73.2974 29.6003 73.2974 30.1766 73.2974 30.7794C72.3985 30.7794 71.5049 30.7794 70.5531 30.7794C70.5425 32.2388 70.5584 33.6718 70.5849 35.1417C71.4044 35.1999 72.1976 35.2581 73.0119 35.3109C73.0119 35.9137 73.0119 36.4795 73.0119 37.0982C72.2293 37.04 71.452 36.9818 70.6747 36.9184C70.569 37.2039 70.5373 40.5087 70.6272 41.7143C71.5208 41.8412 72.4302 41.9681 73.3556 42.1003C73.3556 42.7031 73.3556 43.2741 73.3556 43.8928C71.8222 43.6654 70.3046 43.4433 68.7395 43.216C68.7342 43.0785 68.7236 42.941 68.7236 42.8035C68.713 40.0592 68.7024 37.3097 68.6919 34.5654C68.6813 32.8786 68.6602 31.1919 68.6443 29.4998C68.6443 29.3465 68.6549 29.1825 68.6601 29.0081Z" fill="white"/>
<path d="M15.1068 26.1369C15.1068 25.9254 15.1068 25.7879 15.1068 25.6187C15.2337 25.5975 15.3395 25.5711 15.4505 25.5605C15.5615 25.5499 15.6779 25.5552 15.7942 25.5552C37.7961 25.5552 59.798 25.5552 81.7999 25.5552C81.9585 25.5552 82.1172 25.5605 82.2705 25.5605C82.4715 25.5658 82.5455 25.6768 82.5402 25.8672C82.5349 26.0417 82.4503 26.1316 82.2758 26.1263C82.1595 26.1263 82.0484 26.1263 81.9321 26.1263C59.8456 26.1263 37.7538 26.1263 15.6673 26.1263C15.4981 26.1369 15.3289 26.1369 15.1068 26.1369Z" fill="white"/>
<path d="M46.3833 55.6102C45.9285 55.6102 45.5267 55.6102 45.0931 55.6102C44.797 54.2566 44.5008 52.9082 44.1995 51.5334C43.9351 51.5334 43.6866 51.5334 43.3957 51.5334C43.3957 52.8818 43.3957 54.2196 43.3957 55.5891C42.9251 55.5891 42.4915 55.5891 42.0368 55.5891C42.0368 52.2103 42.0368 48.842 42.0368 45.4791C42.0738 45.4527 42.1003 45.4262 42.1214 45.4262C43.0203 45.4209 43.9245 45.3945 44.8234 45.4209C45.6747 45.4474 46.1823 45.9391 46.214 46.801C46.2511 47.885 46.2405 48.9742 46.2193 50.0582C46.2088 50.6134 45.9814 51.084 45.4473 51.3854C45.7593 52.7919 46.066 54.1826 46.3833 55.6102ZM43.4116 46.6688C43.4116 47.9008 43.4116 49.0906 43.4116 50.3332C43.6865 50.3332 43.9351 50.3384 44.1889 50.3332C44.6806 50.3226 44.8551 50.1481 44.8657 49.6563C44.8763 49.2016 44.871 48.7469 44.871 48.2868C44.871 47.9431 44.8816 47.6047 44.8657 47.261C44.8445 46.8697 44.6648 46.69 44.2788 46.6741C43.9985 46.6582 43.713 46.6688 43.4116 46.6688Z" fill="white"/>
<path d="M42.6978 30.5785C42.1003 30.5785 41.5609 30.5785 41.0163 30.5785C40.9899 30.5785 40.9687 30.552 40.9211 30.5309C40.9211 30.0444 40.9211 29.5527 40.9211 29.0292C42.7348 29.0292 44.5326 29.0292 46.3568 29.0292C46.3568 29.5209 46.3568 30.0127 46.3568 30.552C45.7858 30.552 45.22 30.552 44.6119 30.552C44.6013 30.7477 44.5855 30.901 44.5855 31.0491C44.5802 33.566 44.5802 36.0882 44.5749 38.6051C44.5749 39.6045 44.5643 40.6091 44.5538 41.6085C44.5538 41.7195 44.5379 41.8306 44.522 41.9681C43.9087 41.9945 43.3112 42.0209 42.6872 42.0474C42.6978 38.2085 42.6978 34.4226 42.6978 30.5785Z" fill="white"/>
<path d="M30.5256 53.2572C30.9856 53.2572 31.4034 53.2572 31.8793 53.2572C31.8793 53.4634 31.874 53.6432 31.8793 53.8283C31.8951 54.1931 32.0379 54.3412 32.3974 54.3835C32.5085 54.3941 32.6248 54.3941 32.7411 54.3835C33.0637 54.357 33.2276 54.2196 33.2382 53.9023C33.2593 53.2572 33.2488 52.6174 33.2435 51.9723C33.2435 51.7608 33.106 51.6339 32.9368 51.5387C32.4662 51.2691 32.0114 50.9624 31.5197 50.7403C30.7583 50.3966 30.4146 49.8625 30.4886 49.0165C30.5415 48.4349 30.4992 47.8427 30.4992 47.2557C30.4992 47.0865 30.4992 46.912 30.5203 46.7428C30.6102 46.0026 31.0121 45.5425 31.7471 45.4685C32.3076 45.4103 32.8892 45.4262 33.455 45.4897C34.063 45.5531 34.412 45.9603 34.5495 46.5472C34.6711 47.0707 34.6077 47.5941 34.6183 48.1441C34.1582 48.1441 33.7352 48.1441 33.2593 48.1441C33.254 47.8955 33.254 47.647 33.2488 47.3932C33.2382 46.764 32.7359 46.452 32.1542 46.727C31.9691 46.8169 31.8793 46.9702 31.8793 47.1764C31.8793 47.8057 31.8687 48.4349 31.8845 49.0641C31.8898 49.1857 31.985 49.3285 32.0749 49.4184C32.1965 49.5347 32.3551 49.6087 32.5085 49.6933C32.9474 49.9366 33.3757 50.1904 33.8251 50.4072C34.412 50.6927 34.65 51.1422 34.6235 51.7873C34.5971 52.4746 34.6235 53.162 34.613 53.8441C34.613 54.0451 34.5918 54.246 34.5548 54.4416C34.4279 55.129 34.0155 55.5415 33.3175 55.6049C32.8205 55.6472 32.3128 55.6525 31.8211 55.6102C31.0808 55.5521 30.6155 55.0497 30.5256 54.246C30.4992 53.9287 30.5256 53.6115 30.5256 53.2572Z" fill="white"/>
<path d="M47.8373 45.4368C48.3238 45.4368 48.731 45.4368 49.191 45.4368C49.5505 47.9325 49.9048 50.4177 50.2591 52.9029C50.2855 52.9029 50.312 52.9029 50.3331 52.9029C50.6874 50.423 51.0417 47.9484 51.3959 45.4473C51.8401 45.4473 52.2631 45.4473 52.7496 45.4473C52.1997 48.8367 51.655 52.2155 51.1104 55.6049C50.5552 55.6049 50.0317 55.6049 49.4818 55.6049C48.9319 52.2208 48.3873 48.8526 47.8373 45.4368Z" fill="white"/>
<path d="M60.7868 48.2815C60.7868 47.9484 60.7868 47.647 60.7868 47.3509C60.7868 47.0971 60.7656 46.838 60.496 46.7375C60.1999 46.6265 59.872 46.6 59.5865 46.7692C59.4807 46.8327 59.4226 46.9966 59.3856 47.1288C59.3485 47.2504 59.3644 47.3826 59.3644 47.5148C59.3644 49.5294 59.3644 51.5493 59.3644 53.5639C59.3644 53.6485 59.3591 53.7384 59.3644 53.823C59.3961 54.2143 59.5389 54.3623 59.9196 54.3887C60.0201 54.394 60.1205 54.394 60.221 54.3887C60.607 54.3623 60.7498 54.2248 60.7762 53.8283C60.7868 53.6485 60.7762 53.4634 60.7762 53.2625C61.2415 53.2625 61.6487 53.2625 62.1193 53.2625C62.1404 53.8494 62.2092 54.4258 61.9078 54.9651C61.6593 55.404 61.2468 55.589 60.7656 55.6155C60.295 55.6419 59.8191 55.6472 59.3538 55.6155C58.6189 55.5679 58.1853 55.1607 58.0478 54.4258C58.0108 54.2143 57.9896 54.0027 57.9896 53.786C57.9843 51.6127 57.9843 49.4395 57.9896 47.261C57.9896 47.0072 58.0161 46.7428 58.0742 46.4943C58.2011 45.9444 58.5448 45.5478 59.1159 45.4949C59.724 45.4368 60.3426 45.4209 60.9507 45.4791C61.6275 45.5478 62.0347 45.992 62.0981 46.6688C62.1457 47.1923 62.1087 47.721 62.1087 48.2815C61.691 48.2815 61.268 48.2815 60.7868 48.2815Z" fill="white"/>
<path d="M36.7333 45.4421C37.849 45.4421 38.9382 45.4421 40.0592 45.4421C40.0592 45.8492 40.0592 46.2247 40.0592 46.6529C39.4088 46.6529 38.769 46.6529 38.1028 46.6529C38.1028 47.7052 38.1028 48.7098 38.1028 49.7621C38.6844 49.7621 39.2502 49.7621 39.8424 49.7621C39.8424 50.1851 39.8424 50.5605 39.8424 50.9835C39.2661 50.9835 38.7003 50.9835 38.1028 50.9835C38.1028 52.1204 38.1028 53.2149 38.1028 54.3729C38.7373 54.3835 39.3877 54.3888 40.0592 54.3994C40.0592 54.8171 40.0592 55.1925 40.0592 55.5996C38.9541 55.5996 37.8595 55.5996 36.7386 55.5996C36.7333 52.2261 36.7333 48.8632 36.7333 45.4421Z" fill="white"/>
<path d="M67.5127 55.6102C66.3917 55.6102 65.313 55.6102 64.1973 55.6102C64.1973 52.2261 64.1973 48.8526 64.1973 45.4843C64.4934 45.3997 66.857 45.3786 67.4704 45.4526C67.5603 45.7804 67.5708 46.2193 67.481 46.6688C66.857 46.6688 66.2172 46.6688 65.5615 46.6688C65.5615 47.7157 65.5615 48.7098 65.5615 49.7515C66.1326 49.7515 66.6984 49.7515 67.3012 49.7515C67.3012 50.1745 67.3012 50.5499 67.3012 50.9729C66.7407 50.9729 66.1802 50.9729 65.6303 50.9729C65.5245 51.3113 65.4981 53.8124 65.5933 54.3834C66.2225 54.3834 66.857 54.3834 67.5233 54.3834C67.5127 54.8065 67.5127 55.1872 67.5127 55.6102Z" fill="white"/>
<path d="M16.7936 58.9837C16.7936 58.1271 16.7936 57.2652 16.7936 56.4086C16.7936 56.2077 16.7936 56.0068 16.8147 55.8058C16.8888 55.2031 17.2959 54.8223 17.904 54.7959C18.2741 54.78 18.6495 54.7853 19.0197 54.7959C19.6859 54.8118 20.1142 55.2136 20.1777 55.8799C20.1935 56.0491 20.1935 56.2236 20.1935 56.3928C20.1935 58.1377 20.1935 59.8826 20.1935 61.6328C20.1935 61.802 20.1988 61.9765 20.1777 62.1457C20.1089 62.8067 19.6859 63.2033 19.0091 63.2297C18.6654 63.2456 18.3217 63.2403 17.978 63.2297C17.2589 63.2033 16.82 62.7961 16.8042 62.077C16.783 61.0459 16.7989 60.0148 16.7989 58.9837C16.8042 58.9837 16.7989 58.9837 16.7936 58.9837ZM17.7982 59.0154C17.7982 59.8297 17.7982 60.644 17.7982 61.4583C17.7982 61.6011 17.8035 61.7439 17.83 61.8866C17.8617 62.0664 17.9674 62.2303 18.1525 62.2515C18.8875 62.3361 19.1889 62.3202 19.1836 61.5112C19.1836 61.4954 19.1836 61.4848 19.1836 61.4689C19.1836 59.8403 19.1836 58.2117 19.1836 56.5778C19.1836 56.4245 19.1836 56.2553 19.1307 56.1125C19.0884 55.9909 18.9932 55.8481 18.8822 55.79C18.3164 55.4992 17.8141 55.8058 17.7982 56.4404C17.7982 56.5408 17.7982 56.6413 17.7982 56.7418C17.7982 57.4979 17.7982 58.2593 17.7982 59.0154Z" fill="white"/>
<path d="M55.8217 55.6102C55.367 55.6102 54.9545 55.6102 54.4786 55.6102C54.4786 52.2261 54.4786 48.8579 54.4786 45.4315C54.9334 45.4051 55.3617 45.3998 55.8217 45.4368C55.8217 48.8314 55.8217 52.1997 55.8217 55.6102Z" fill="white"/>
<path d="M19.2576 20.6324V21.8222C19.2576 21.8222 18.7553 21.8222 18.5068 21.8222C17.592 21.8222 16.5239 21.8169 15.6092 21.8116C15.3659 21.8116 15.1491 21.8116 15.1491 21.8116C15.1491 21.8116 15.1491 21.5366 15.1439 21.3621C15.1386 19.9768 15.1386 18.5861 15.1439 17.206C15.1439 16.9998 15.1439 16.746 15.1439 16.746C15.1439 16.746 15.3924 16.746 15.5986 16.7407C16.1009 16.7407 16.6032 16.746 17.1003 16.746C17.6026 16.746 18.1049 16.7407 18.602 16.746C18.7659 16.7513 19.2101 16.7513 19.2101 16.7513C19.2101 16.7513 19.2101 16.9522 19.2101 17.132C19.2101 17.4969 19.2101 17.9622 19.2101 17.9622C19.2101 17.9622 18.6549 17.9675 18.3429 17.9675C17.7242 17.9675 17.1637 17.9675 16.5398 17.9675L16.5451 18.7289L18.9615 18.7236V19.8287H16.5451L16.5504 20.6377H19.2576V20.6324Z" fill="white"/>
<path d="M36.802 20.6324V21.8222C36.802 21.8222 36.2997 21.8222 36.0512 21.8222C35.1364 21.8222 34.0683 21.8169 33.1535 21.8116C32.9103 21.8116 32.6935 21.8116 32.6935 21.8116C32.6935 21.8116 32.6935 21.5366 32.6882 21.3621C32.6829 19.9768 32.6829 18.5861 32.6882 17.206C32.6882 16.9998 32.6882 16.746 32.6882 16.746C32.6882 16.746 32.9368 16.746 33.143 16.7407C33.6453 16.7407 34.1476 16.746 34.6447 16.746C35.147 16.746 35.6493 16.7407 36.1464 16.746C36.3103 16.7513 36.7544 16.7513 36.7544 16.7513C36.7544 16.7513 36.7544 16.9522 36.7544 17.132C36.7544 17.4969 36.7544 17.9622 36.7544 17.9622C36.7544 17.9622 36.1992 17.9675 35.8873 17.9675C35.2686 17.9675 34.7081 17.9675 34.0842 17.9675L34.0895 18.7289L36.5059 18.7236V19.8287H34.0895L34.0947 20.6377H36.802V20.6324Z" fill="white"/>
<path d="M52.6174 20.6324V21.8222C52.6174 21.8222 52.1151 21.8222 51.8665 21.8222C50.9518 21.8222 49.8837 21.8169 48.9689 21.8116C48.7257 21.8116 48.5089 21.8116 48.5089 21.8116C48.5089 21.8116 48.5089 21.5366 48.5036 21.3621C48.4983 19.9768 48.4983 18.5861 48.5036 17.206C48.5036 16.9998 48.5036 16.746 48.5036 16.746C48.5036 16.746 48.7521 16.746 48.9583 16.7407C49.4607 16.7407 49.963 16.746 50.46 16.746C50.9571 16.746 51.4647 16.7407 51.9617 16.746C52.1256 16.7513 52.5698 16.7513 52.5698 16.7513C52.5698 16.7513 52.5698 16.9522 52.5698 17.132C52.5698 17.4969 52.5698 17.9622 52.5698 17.9622C52.5698 17.9622 52.0146 17.9675 51.7026 17.9675C51.084 17.9675 50.5235 17.9675 49.8995 17.9675L49.9048 18.7289L52.3213 18.7236V19.8287H49.9048L49.9101 20.6377H52.6174V20.6324Z" fill="white"/>
<path d="M70.5108 20.6324V21.8222C70.5108 21.8222 70.0085 21.8222 69.76 21.8222C68.8452 21.8222 67.7771 21.8169 66.8623 21.8116C66.6191 21.8116 66.4023 21.8116 66.4023 21.8116C66.4023 21.8116 66.4023 21.5366 66.397 21.3621C66.3917 19.9768 66.3917 18.5861 66.397 17.206C66.397 16.9998 66.397 16.746 66.397 16.746C66.397 16.746 66.6456 16.746 66.8518 16.7407C67.3541 16.7407 67.8564 16.746 68.3535 16.746C68.8505 16.746 69.3581 16.7407 69.8552 16.746C70.0191 16.7513 70.4632 16.7513 70.4632 16.7513C70.4632 16.7513 70.4632 16.9522 70.4632 17.132C70.4632 17.4969 70.4632 17.9622 70.4632 17.9622C70.4632 17.9622 69.908 17.9675 69.5961 17.9675C68.9774 17.9675 68.4169 17.9675 67.793 17.9675L67.7983 18.7289L70.2147 18.7236V19.8287H67.7983L67.8035 20.6377H70.5108V20.6324Z" fill="white"/>
<path d="M54.0345 16.7354V21.8221H55.4093V19.0831L57.5666 21.8221H58.7987V16.7354H57.4397V19.4321L55.3617 16.7354H54.0345Z" fill="white"/>
<path d="M77.776 16.7354V21.8221H79.1508V19.0831L81.3082 21.8221H82.5402V16.7354H81.1812V19.4321L79.1032 16.7354H77.776Z" fill="white"/>
<path d="M40.4611 58.9203H41.4075L42.2113 61.5218L43.089 58.9203H43.8293L44.7123 61.5218L45.5161 58.9203H46.4414L45.1089 62.8649H44.3369L43.4539 60.3427L42.5655 62.8649H41.8041L40.4611 58.9203Z" fill="white"/>
<path d="M56.1918 61.4531C56.1918 61.4531 57.1066 61.1675 57.0061 60.1523C56.9056 59.1371 56.1019 59.0049 56.1019 59.0049C56.1019 59.0049 56.1654 58.8727 53.7542 58.9256V62.8596H54.6267V61.617H55.2665L56.1231 62.8596H57.1383L56.1918 61.4531ZM55.7424 60.8291H54.6108V59.7081H55.7318C55.7318 59.7081 56.1654 59.7875 56.1389 60.2686C56.1125 60.7392 55.7424 60.8291 55.7424 60.8291Z" fill="white"/>
<path d="M62.3414 60.0042C62.3414 60.0042 61.7175 58.9256 60.4749 58.9097C59.2323 58.8938 58.9097 58.9097 58.9097 58.9097V62.8543H60.7287C60.7287 62.8543 63.0341 62.6375 62.3414 60.0042ZM61.6011 61.1622C61.4161 62.389 59.7875 62.0876 59.7875 62.0876V59.7187H60.7181C60.7181 59.7187 61.7862 59.9355 61.6011 61.1622Z" fill="white"/>
<path d="M81.3716 57.3181V56.3928C81.3716 56.3928 81.3716 56.0068 81.9004 56.0068C82.4292 56.0068 82.3657 56.4457 82.3657 56.4457V58.2276C82.3657 58.2276 82.6248 58.1747 80.6842 59.9672C80.6842 59.9672 80.478 60.147 80.4886 60.7445C80.4992 61.342 80.4886 63.1345 80.4886 63.1345H83.4127V62.1933H81.5779V60.808C81.5779 60.808 81.5356 60.6546 81.948 60.2845C82.3657 59.9144 83.2805 59.026 83.2805 59.026C83.2805 59.026 83.4603 58.8198 83.4603 58.0214C83.4603 57.2229 83.4603 56.213 83.4603 56.213C83.4603 56.213 83.5184 55.0286 81.9163 55.0286C80.3141 55.0286 80.3035 56.1866 80.3035 56.1866V57.334L81.3716 57.3181Z" fill="white"/>
<path d="M87.3255 60.2105V54.8911H86.2521L84.1476 60.2105L84.375 61.1411H86.2786V63.0447H87.3255V61.1411H87.9812V60.2105H87.3255ZM86.342 60.2105H85.2845L86.342 57.0961V60.2105Z" fill="white"/>
<path d="M12.5793 57.133V56.2077C12.5793 56.2077 12.5793 55.8217 13.1081 55.8217C13.6369 55.8217 13.5734 56.2606 13.5734 56.2606V58.0425C13.5734 58.0425 13.8325 57.9896 11.8919 59.7821C11.8919 59.7821 11.6857 59.9619 11.6963 60.5594C11.7069 61.1569 11.6963 62.9494 11.6963 62.9494H14.6204V62.0082H12.7856V60.6176C12.7856 60.6176 12.7433 60.4643 13.1557 60.0941C13.5681 59.724 14.4882 58.8357 14.4882 58.8357C14.4882 58.8357 14.668 58.6294 14.668 57.831C14.668 57.0326 14.668 56.0226 14.668 56.0226C14.668 56.0226 14.7261 54.8382 13.124 54.8382C11.5218 54.8382 11.5112 55.9962 11.5112 55.9962V57.1436L12.5793 57.133Z" fill="white"/>
</svg>
