<?xml version="1.0" encoding="utf-8"?>
<!-- Generator: Adobe Illustrator 28.3.0, SVG Export Plug-In . SVG Version: 6.00 Build 0)  -->
<svg version="1.1" xmlns="http://www.w3.org/2000/svg" xmlns:xlink="http://www.w3.org/1999/xlink" x="0px" y="0px"
	 viewBox="0 0 189.12 189.12" style="enable-background:new 0 0 189.12 189.12;" xml:space="preserve">
<style type="text/css">
	.st0{fill:none;}
	.st1{fill:#4D4D4D;}
</style>
<g id="Шар_2">
	<polygon points="41.69,36.35 38.42,41.21 41.46,41.21 43.22,38.44 45.03,41.27 48.14,41.27 44.87,36.35 47.99,31.69 45.01,31.69 
		43.28,34.27 41.63,31.69 38.55,31.69 	"/>
	<path d="M57.21,35.06l1.98-1.55c0,0-1.21-2.45-4.9-1.95c-3.92,0.53-4.11,4.53-4.11,4.53s-0.66,4.87,4.87,5.34
		c0,0,2.58,0.24,4.24-2.1l-1.97-1.43c0,0-1.84,2.22-3.74,0.44c0,0-1.45-1.36-0.23-3.36c0.28-0.47,0.73-0.83,1.26-0.96
		C55.29,33.84,56.28,33.9,57.21,35.06z"/>
	<path d="M121,35.06l1.98-1.55c0,0-1.21-2.45-4.9-1.95c-3.92,0.53-4.11,4.53-4.11,4.53s-0.66,4.87,4.87,5.34c0,0,2.58,0.24,4.24-2.1
		l-1.97-1.43c0,0-1.84,2.22-3.74,0.44c0,0-1.45-1.36-0.23-3.36c0.28-0.47,0.73-0.83,1.26-0.96C119.08,33.84,120.07,33.9,121,35.06z"
		/>
	<polygon points="72.23,31.65 72.23,41.27 79.49,41.27 79.49,38.92 74.92,38.92 74.92,31.65 	"/>
	<polygon points="81.95,31.65 81.95,41.27 89.21,41.27 89.21,38.92 84.64,38.92 84.64,31.65 	"/>
	<rect x="141.19" y="31.65" width="2.71" height="9.62"/>
	<path d="M70.72,111.43h-1.56l-3.2,7.46h1.72l0.65-1.68h3.11l0.68,1.68h1.72L70.72,111.43z M68.93,115.69l0.98-2.29l0.98,2.29H68.93
		z"/>
	<path d="M95.18,111.43h-1.56l-3.2,7.46h1.72l0.65-1.68h3.11l0.68,1.68h1.72L95.18,111.43z M93.39,115.69l0.98-2.29l0.98,2.29H93.39
		z"/>
</g>
<g id="Шар_1">
	<path d="M29.51,181.43c0.89-6.99,1.74-13.81,2.62-20.63s1.76-13.64,2.62-20.6c-0.5,0-0.87,0-1.24,0c-10.07,0-20.13,0-30.2,0
		c-1.41,0-1.24,0-1.24-1.23c0-41.74,0-83.48,0-125.22c0-0.37,0-0.74,0-1.08c0.69-0.18,182.37-0.24,183.57-0.08
		c0.04,0.15,0.11,0.33,0.12,0.5c0.02,0.27,0.01,0.54,0.01,0.81c0,41.63,0,83.27,0,124.9c0,1.5,0.16,1.4-1.4,1.4
		c-37.2,0-74.41,0-111.61-0.02c-0.82,0-1.4,0.24-1.99,0.81c-8.72,8.58-17.46,17.13-26.2,25.7c-4.87,4.77-9.74,9.55-14.61,14.32
		C29.87,181.12,29.75,181.21,29.51,181.43z M37.62,164.86c0.06,0.03,0.12,0.06,0.18,0.09c0.22-0.18,0.44-0.35,0.64-0.55
		c4.99-4.88,9.97-9.77,14.96-14.66c5.12-5.02,10.25-10.03,15.36-15.06c0.38-0.38,0.77-0.52,1.29-0.51c1.33,0.03,2.65,0.01,3.98,0.01
		c34.85,0,69.7,0,104.55,0c0.4,0,0.79,0,1.29,0c0-0.51,0-0.91,0-1.31c0-37.68,0-75.36,0-113.04c0-1.39,0.25-1.41-1.4-1.4
		c-56.36,0-112.72,0-169.07,0c-0.24,0-0.49-0.01-0.73,0.01c-0.59,0.04-0.65,0.1-0.68,0.66c-0.01,0.3,0,0.6,0,0.89
		c0,21.95,0,43.91,0,65.86c0,15.67,0,31.35,0,47.02c0,0.4,0,0.8,0,1.26c0.46,0.02,0.8,0.05,1.14,0.05c7.06,0,14.12,0,21.19,0
		c3.38,0,6.76,0,10.15,0c0.31,0,0.62,0.05,1.03,0.09c-0.45,3.5-0.89,6.9-1.33,10.29c-0.43,3.38-0.89,6.75-1.29,10.13
		C38.47,158.09,37.95,161.47,37.62,164.86z"/>
	<path d="M42.78,155.63c1.19-8.62,2.35-17.05,3.53-25.6c-1.17-0.01-2.29-0.01-3.41-0.02c-1.14,0-2.27,0-3.41,0
		c-1.11,0-2.22,0-3.33,0c-1.14,0-2.27,0-3.41,0s-2.27,0-3.41,0s-2.27,0-3.41,0s-2.27,0-3.41,0c-1.11,0-2.22,0-3.33,0
		c-1.14,0-2.27,0-3.41,0c-1.13,0-2.26,0-3.45,0c0-35.95,0-71.83,0-107.77c54.37,0,108.74,0,163.11,0
		c0.16,0.55,0.2,106.76,0.02,107.77c-0.35,0-0.72,0-1.09,0c-35.12,0-70.24,0-105.35-0.02c-0.84,0-1.43,0.22-2.04,0.84
		c-7.82,8.06-15.67,16.09-23.51,24.13C43.3,155.16,43.1,155.33,42.78,155.63z M173.4,24.38c-53.01,0-105.93,0-158.88,0
		c0,34.49,0,68.93,0,103.47c11.44,0,22.81,0,34.27,0c-0.99,7.18-1.97,14.27-2.94,21.35c0.05,0.03,0.1,0.05,0.14,0.08
		c0.22-0.22,0.45-0.44,0.67-0.67c6.5-6.67,13-13.32,19.48-20.01c0.56-0.58,1.12-0.78,1.91-0.78c34.63,0.02,69.27,0.02,103.9,0.02
		c0.27,0,0.54,0.01,0.81,0c0.21-0.01,0.41-0.05,0.64-0.08C173.4,93.28,173.4,58.86,173.4,24.38z"/>
	<path d="M120.11,54.88c1.3,0,2.57,0,3.95,0c0,8.69,0,17.36,0,26.15c-1.1-0.11-2.23-0.23-3.44-0.35c0.09-5.37,0.17-10.67,0.26-15.96
		c-0.05-0.01-0.1-0.02-0.16-0.03c-0.8,3.69-1.61,7.38-2.43,11.13c-0.94-0.07-1.82-0.13-2.75-0.2c-0.84-3.71-1.67-7.4-2.5-11.08
		c-0.19,2.57-0.03,5.13,0.03,7.68c0.06,2.56,0.13,5.13,0.2,7.81c-1.21-0.08-2.35-0.15-3.58-0.23c0-8.33,0-16.6,0-24.92
		c1.24,0,2.5,0,3.85,0c1.09,4.84,2.19,9.71,3.29,14.57c0.05,0,0.09,0,0.14,0C118.02,64.61,119.06,59.76,120.11,54.88z"/>
	<path d="M143.78,54.84c0.91,0,1.77,0,2.63,0c1.33,0,2.65,0.03,3.98-0.01c2.91-0.08,3.92,1.65,4.23,3.74
		c0.09,0.59,0.11,1.19,0.11,1.78c0.01,2.49,0.02,4.98-0.01,7.47c-0.01,0.81-0.09,1.62-0.23,2.42c-0.19,1.11-0.69,2.05-1.83,2.63
		c0.81,4.4,1.61,8.8,2.45,13.35c-1.15-0.25-2.21-0.47-3.33-0.71c-0.78-4.21-1.55-8.4-2.34-12.65c-0.7-0.09-1.36-0.16-2.1-0.25
		c0,4.01,0,7.95,0,11.99c-1.22-0.23-2.34-0.44-3.55-0.66C143.78,74.24,143.78,64.59,143.78,54.84z M147.32,69.16
		c0.88,0.09,1.65,0.2,2.43,0.25c0.63,0.04,1.1-0.3,1.27-0.92c0.12-0.44,0.17-0.91,0.17-1.36c0.01-2.11,0-4.22-0.02-6.33
		c0-0.4-0.06-0.81-0.16-1.2c-0.13-0.49-0.43-0.93-0.96-1c-0.9-0.14-1.81-0.19-2.74-0.11C147.32,62.06,147.32,65.57,147.32,69.16z"/>
	<path d="M45.49,54.87c1.22,0,2.32,0,3.53,0c0.01,0.36,0.02,0.7,0.02,1.04c-0.03,7.04-0.07,14.07-0.1,21.11
		c0,0.32-0.01,0.65,0.05,0.97c0.13,0.72,0.6,1.08,1.33,1.03c0.54-0.04,1.08-0.11,1.61-0.21c0.91-0.17,1.35-0.68,1.41-1.61
		c0.03-0.4,0.01-0.81,0.01-1.22c0.04-5.87,0.08-11.75,0.12-17.62c0.01-1.13,0-2.27,0-3.46c1.2,0,2.32,0,3.53,0
		c0.02,0.2,0.05,0.44,0.05,0.67c-0.03,5.47-0.07,10.93-0.1,16.4c-0.01,1.54,0,3.09-0.05,4.63c-0.02,0.64-0.08,1.3-0.23,1.93
		c-0.45,1.9-1.69,3.06-3.59,3.42c-1.35,0.26-2.72,0.43-4.09,0.57c-1.58,0.17-2.76-0.6-3.23-2.11c-0.22-0.72-0.36-1.49-0.36-2.23
		c0-5.49,0.04-10.99,0.07-16.48c0.01-1.95,0.02-3.9,0.03-5.85C45.5,55.54,45.49,55.25,45.49,54.87z"/>
	<path d="M104.03,67.19c0,2.6,0,5.19,0,7.79c0,0.32,0,0.65-0.03,0.97c-0.14,2.04-1.29,3.22-3.33,3.39
		c-0.46,0.04-0.92,0.03-1.38,0.02c-1.32-0.04-2.65-0.02-3.97-0.16c-1.95-0.21-3.05-1.41-3.23-3.36c-0.03-0.3-0.03-0.59-0.03-0.89
		c0-5.25-0.01-10.5,0.01-15.75c0-0.59,0.06-1.19,0.19-1.77c0.29-1.28,1.14-2.06,2.38-2.4c0.41-0.11,0.85-0.19,1.28-0.19
		c1.41-0.02,2.81-0.02,4.22,0c0.43,0.01,0.86,0.09,1.28,0.2c1.55,0.42,2.46,1.66,2.55,3.46c0.04,0.84,0.02,1.68,0.02,2.52
		c0,2.06,0,4.11,0,6.17C104,67.19,104.02,67.19,104.03,67.19z M100.44,67.1c-0.01,0-0.02,0-0.02,0c0-2.57,0-5.14,0-7.71
		c0-1.05-0.39-1.48-1.43-1.57c-0.48-0.04-0.97-0.03-1.46-0.02c-1.52,0.01-1.91,0.4-1.91,1.93c0.01,4.95,0.02,9.9,0.03,14.85
		c0,0.22,0.01,0.43,0.03,0.65c0.07,0.58,0.41,0.99,0.97,1.04c0.94,0.08,1.89,0.11,2.83,0.06c0.59-0.03,0.89-0.42,0.95-1.03
		c0.03-0.24,0.02-0.49,0.02-0.73C100.44,72.08,100.44,69.59,100.44,67.1z"/>
	<path d="M40.14,63.1c-1.18,0.07-2.3,0.13-3.51,0.19c0-0.97,0-1.86,0-2.75c0-1.72-0.39-2.09-2.13-2.01
		c-0.96,0.04-1.37,0.41-1.49,1.36c-0.04,0.29-0.05,0.59-0.05,0.89c-0.01,6.25-0.02,12.5-0.03,18.75c0,0.38,0.02,0.76,0.09,1.13
		c0.13,0.61,0.47,0.88,1.1,0.83c0.46-0.04,0.92-0.11,1.35-0.24c0.78-0.24,1.07-0.88,1.11-1.63c0.03-0.59,0.01-1.19,0.01-1.89
		c1.17-0.18,2.3-0.35,3.52-0.53c0.09,1.87,0.16,3.64-0.72,5.29c-0.61,1.13-1.59,1.85-2.8,2.18c-1.09,0.3-2.21,0.54-3.33,0.69
		c-2.15,0.3-3.27-0.53-3.67-2.67c-0.13-0.69-0.16-1.4-0.16-2.1c-0.01-6.71-0.02-13.42,0.01-20.13c0-0.94,0.09-1.9,0.33-2.8
		c0.47-1.82,1.73-2.75,3.6-2.82c0.86-0.03,1.73-0.02,2.6-0.01c2.47,0.02,3.9,1.19,4.16,3.63C40.27,59.96,40.14,61.49,40.14,63.1z"/>
	<path d="M62.46,74.75c1.13-0.09,2.23-0.17,3.43-0.27c0.01,0.39,0.03,0.73,0.03,1.07c0.02,1.42,0.39,1.76,1.82,1.69
		c0.03,0,0.05,0,0.08,0c1.29-0.08,1.72-0.53,1.73-1.84c0.01-1.33-0.01-2.65,0.02-3.98c0.02-0.65-0.22-1.08-0.8-1.37
		c-1.29-0.63-2.56-1.28-3.85-1.92c-0.34-0.17-0.67-0.35-1.01-0.51c-1.01-0.49-1.47-1.34-1.48-2.42c-0.02-2.11,0-4.22,0.02-6.33
		c0-0.38,0.07-0.76,0.16-1.12c0.36-1.51,1.25-2.52,2.82-2.77c1.61-0.26,3.24-0.27,4.84,0.01c1.65,0.29,2.61,1.35,2.84,3.01
		c0.05,0.35,0.06,0.7,0.06,1.05c0.01,0.81,0,1.62,0,2.52c-1.18,0.09-2.31,0.06-3.55,0.08c0-0.63,0-1.22,0-1.8
		c-0.01-1.58-0.41-1.96-1.99-1.91c-1.14,0.03-1.62,0.49-1.64,1.65c-0.02,1.38,0,2.76-0.02,4.14c-0.01,0.58,0.21,0.99,0.72,1.25
		c1.16,0.58,2.32,1.15,3.48,1.73c0.56,0.28,1.11,0.56,1.66,0.86c0.86,0.46,1.3,1.18,1.29,2.17c-0.02,2.11,0.03,4.22-0.02,6.33
		c-0.06,2.33-1.41,3.79-3.7,4.09c-1.04,0.14-2.1,0.23-3.15,0.29c-0.51,0.03-1.03-0.02-1.52-0.15c-1.41-0.37-2.07-1.44-2.25-2.78
		C62.37,76.65,62.46,75.75,62.46,74.75z"/>
	<path d="M129.85,54.86c2.97,0,5.83,0,8.77,0c0,1.12,0,2.21,0,3.35c-1.7,0-3.39,0-5.19,0c-0.02,2.76,0.01,5.47,0.06,8.25
		c1.55,0.11,3.05,0.22,4.59,0.32c0,1.14,0,2.21,0,3.38c-1.48-0.11-2.95-0.22-4.42-0.34c-0.2,0.54-0.26,6.79-0.09,9.07
		c1.69,0.24,3.41,0.48,5.16,0.73c0,1.14,0,2.22,0,3.39c-2.9-0.43-5.77-0.85-8.73-1.28c-0.01-0.26-0.03-0.52-0.03-0.78
		c-0.02-5.19-0.04-10.39-0.06-15.58c-0.02-3.19-0.06-6.38-0.09-9.58C129.82,55.5,129.84,55.19,129.85,54.86z"/>
	<path d="M28.57,49.43c0-0.4,0-0.66,0-0.98c0.24-0.04,0.44-0.09,0.65-0.11s0.43-0.01,0.65-0.01c41.61,0,83.22,0,124.83,0
		c0.3,0,0.6,0.01,0.89,0.01c0.38,0.01,0.52,0.22,0.51,0.58c-0.01,0.33-0.17,0.5-0.5,0.49c-0.22,0-0.43,0-0.65,0
		c-41.77,0-83.55,0-125.32,0C29.31,49.43,28.99,49.43,28.57,49.43z"/>
	<path d="M87.72,105.17c-0.86,0-1.62,0-2.44,0c-0.56-2.56-1.12-5.11-1.69-7.71c-0.5,0-0.97,0-1.52,0c0,2.55,0,5.08,0,7.67
		c-0.89,0-1.71,0-2.57,0c0-6.39,0-12.76,0-19.12c0.07-0.05,0.12-0.1,0.16-0.1c1.7-0.01,3.41-0.06,5.11-0.01
		c1.61,0.05,2.57,0.98,2.63,2.61c0.07,2.05,0.05,4.11,0.01,6.16c-0.02,1.05-0.45,1.94-1.46,2.51
		C86.54,99.84,87.12,102.47,87.72,105.17z M82.1,88.26c0,2.33,0,4.58,0,6.93c0.52,0,0.99,0.01,1.47,0c0.93-0.02,1.26-0.35,1.28-1.28
		c0.02-0.86,0.01-1.72,0.01-2.59c0-0.65,0.02-1.29-0.01-1.94c-0.04-0.74-0.38-1.08-1.11-1.11C83.21,88.24,82.67,88.26,82.1,88.26z"
		/>
	<path d="M80.75,57.83c-1.13,0-2.15,0-3.18,0c-0.05,0-0.09-0.05-0.18-0.09c0-0.92,0-1.85,0-2.84c3.43,0,6.83,0,10.28,0
		c0,0.93,0,1.86,0,2.88c-1.08,0-2.15,0-3.3,0c-0.02,0.37-0.05,0.66-0.05,0.94c-0.01,4.76-0.01,9.53-0.02,14.29
		c0,1.89-0.02,3.79-0.04,5.68c0,0.21-0.03,0.42-0.06,0.68c-1.16,0.05-2.29,0.1-3.47,0.15C80.75,72.26,80.75,65.1,80.75,57.83z"/>
	<path d="M57.73,100.72c0.87,0,1.66,0,2.56,0c0,0.39-0.01,0.73,0,1.08c0.03,0.69,0.3,0.97,0.98,1.05c0.21,0.02,0.43,0.02,0.65,0
		c0.61-0.05,0.92-0.31,0.94-0.91c0.04-1.22,0.02-2.43,0.01-3.65c0-0.4-0.26-0.64-0.58-0.82c-0.89-0.51-1.75-1.09-2.68-1.51
		c-1.44-0.65-2.09-1.66-1.95-3.26c0.1-1.1,0.02-2.22,0.02-3.33c0-0.32,0-0.65,0.04-0.97c0.17-1.4,0.93-2.27,2.32-2.41
		c1.06-0.11,2.16-0.08,3.23,0.04c1.15,0.12,1.81,0.89,2.07,2c0.23,0.99,0.11,1.98,0.13,3.02c-0.87,0-1.67,0-2.57,0
		c-0.01-0.47-0.01-0.94-0.02-1.42c-0.02-1.19-0.97-1.78-2.07-1.26c-0.35,0.17-0.52,0.46-0.52,0.85c0,1.19-0.02,2.38,0.01,3.57
		c0.01,0.23,0.19,0.5,0.36,0.67c0.23,0.22,0.53,0.36,0.82,0.52c0.83,0.46,1.64,0.94,2.49,1.35c1.11,0.54,1.56,1.39,1.51,2.61
		c-0.05,1.3,0,2.6-0.02,3.89c0,0.38-0.04,0.76-0.11,1.13c-0.24,1.3-1.02,2.08-2.34,2.2c-0.94,0.08-1.9,0.09-2.83,0.01
		c-1.4-0.11-2.28-1.06-2.45-2.58C57.68,101.99,57.73,101.39,57.73,100.72z"/>
	<path d="M90.47,85.93c0.92,0,1.69,0,2.56,0c0.68,4.72,1.35,9.42,2.02,14.12c0.05,0,0.1,0,0.14,0c0.67-4.69,1.34-9.37,2.01-14.1
		c0.84,0,1.64,0,2.56,0c-1.04,6.41-2.07,12.8-3.1,19.21c-1.05,0-2.04,0-3.08,0C92.54,98.76,91.51,92.39,90.47,85.93z"/>
	<path d="M114.96,91.31c0-0.63,0-1.2,0-1.76c0-0.48-0.04-0.97-0.55-1.16c-0.56-0.21-1.18-0.26-1.72,0.06
		c-0.2,0.12-0.31,0.43-0.38,0.68c-0.07,0.23-0.04,0.48-0.04,0.73c0,3.81,0,7.63,0,11.44c0,0.16-0.01,0.33,0,0.49
		c0.06,0.74,0.33,1.02,1.05,1.07c0.19,0.01,0.38,0.01,0.57,0c0.73-0.05,1-0.31,1.05-1.06c0.02-0.34,0-0.69,0-1.07
		c0.88,0,1.65,0,2.54,0c0.04,1.11,0.17,2.2-0.4,3.22c-0.47,0.83-1.25,1.18-2.16,1.23c-0.89,0.05-1.79,0.06-2.67,0
		c-1.39-0.09-2.21-0.86-2.47-2.25c-0.07-0.4-0.11-0.8-0.11-1.21c-0.01-4.11-0.01-8.22,0-12.34c0-0.48,0.05-0.98,0.16-1.45
		c0.24-1.04,0.89-1.79,1.97-1.89c1.15-0.11,2.32-0.14,3.47-0.03c1.28,0.13,2.05,0.97,2.17,2.25c0.09,0.99,0.02,1.99,0.02,3.05
		C116.67,91.31,115.87,91.31,114.96,91.31z"/>
	<path d="M69.47,85.94c2.11,0,4.17,0,6.29,0c0,0.77,0,1.48,0,2.29c-1.23,0-2.44,0-3.7,0c0,1.99,0,3.89,0,5.88c1.1,0,2.17,0,3.29,0
		c0,0.8,0,1.51,0,2.31c-1.09,0-2.16,0-3.29,0c0,2.15,0,4.22,0,6.41c1.2,0.02,2.43,0.03,3.7,0.05c0,0.79,0,1.5,0,2.27
		c-2.09,0-4.16,0-6.28,0C69.47,98.77,69.47,92.41,69.47,85.94z"/>
	<path d="M127.68,105.17c-2.12,0-4.16,0-6.27,0c0-6.4,0-12.78,0-19.15c0.56-0.16,5.03-0.2,6.19-0.06c0.17,0.62,0.19,1.45,0.02,2.3
		c-1.18,0-2.39,0-3.63,0c0,1.98,0,3.86,0,5.83c1.08,0,2.15,0,3.29,0c0,0.8,0,1.51,0,2.31c-1.06,0-2.12,0-3.16,0
		c-0.2,0.64-0.25,5.37-0.07,6.45c1.19,0,2.39,0,3.65,0C127.68,103.65,127.68,104.37,127.68,105.17z"/>
	<path d="M31.76,111.55c0-1.62,0-3.25,0-4.87c0-0.38,0-0.76,0.04-1.14c0.14-1.14,0.91-1.86,2.06-1.91c0.7-0.03,1.41-0.02,2.11,0
		c1.26,0.03,2.07,0.79,2.19,2.05c0.03,0.32,0.03,0.65,0.03,0.97c0,3.3,0,6.6,0,9.91c0,0.32,0.01,0.65-0.03,0.97
		c-0.13,1.25-0.93,2-2.21,2.05c-0.65,0.03-1.3,0.02-1.95,0c-1.36-0.05-2.19-0.82-2.22-2.18c-0.04-1.95-0.01-3.9-0.01-5.85
		C31.78,111.55,31.77,111.55,31.76,111.55z M33.66,111.61c0,1.54,0,3.08,0,4.62c0,0.27,0.01,0.54,0.06,0.81
		c0.06,0.34,0.26,0.65,0.61,0.69c1.39,0.16,1.96,0.13,1.95-1.4c0-0.03,0-0.05,0-0.08c0-3.08,0-6.16,0-9.25c0-0.29,0-0.61-0.1-0.88
		c-0.08-0.23-0.26-0.5-0.47-0.61c-1.07-0.55-2.02,0.03-2.05,1.23c0,0.19,0,0.38,0,0.57C33.66,108.74,33.66,110.18,33.66,111.61z"/>
	<path d="M105.57,105.17c-0.86,0-1.64,0-2.54,0c0-6.4,0-12.77,0-19.25c0.86-0.05,1.67-0.06,2.54,0.01
		C105.57,92.35,105.57,98.72,105.57,105.17z"/>
	<path d="M36.42,39.02v2.25c0,0-0.95,0-1.42,0c-1.73,0-3.75-0.01-5.48-0.02c-0.46,0-0.87,0-0.87,0s0-0.52-0.01-0.85
		c-0.01-2.62-0.01-5.25,0-7.86c0-0.39,0-0.87,0-0.87s0.47,0,0.86-0.01c0.95,0,1.9,0.01,2.84,0.01c0.95,0,1.9-0.01,2.84,0
		c0.31,0.01,1.15,0.01,1.15,0.01s0,0.38,0,0.72c0,0.69,0,1.57,0,1.57s-1.05,0.01-1.64,0.01c-1.17,0-2.23,0-3.41,0l0.01,1.44
		l4.57-0.01v2.09h-4.57l0.01,1.53H36.42z"/>
	<path d="M69.6,39.02v2.25c0,0-0.95,0-1.42,0c-1.73,0-3.75-0.01-5.48-0.02c-0.46,0-0.87,0-0.87,0s0-0.52-0.01-0.85
		c-0.01-2.62-0.01-5.25,0-7.86c0-0.39,0-0.87,0-0.87s0.47,0,0.86-0.01c0.95,0,1.9,0.01,2.84,0.01c0.95,0,1.9-0.01,2.84,0
		c0.31,0.01,1.15,0.01,1.15,0.01s0,0.38,0,0.72c0,0.69,0,1.57,0,1.57s-1.05,0.01-1.64,0.01c-1.17,0-2.23,0-3.41,0l0.01,1.44
		l4.57-0.01v2.09h-4.57l0.01,1.53H69.6z"/>
	<path d="M99.51,39.02v2.25c0,0-0.95,0-1.42,0c-1.73,0-3.75-0.01-5.48-0.02c-0.46,0-0.87,0-0.87,0s0-0.52-0.01-0.85
		c-0.01-2.62-0.01-5.25,0-7.86c0-0.39,0-0.87,0-0.87s0.47,0,0.86-0.01c0.95,0,1.9,0.01,2.84,0.01s1.9-0.01,2.84,0
		c0.31,0.01,1.15,0.01,1.15,0.01s0,0.38,0,0.72c0,0.69,0,1.57,0,1.57s-1.05,0.01-1.64,0.01c-1.17,0-2.23,0-3.41,0l0.01,1.44
		l4.57-0.01v2.09h-4.57l0.01,1.53H99.51z"/>
	<path d="M133.35,39.02v2.25c0,0-0.95,0-1.42,0c-1.73,0-3.75-0.01-5.48-0.02c-0.46,0-0.87,0-0.87,0s0-0.52-0.01-0.85
		c-0.01-2.62-0.01-5.25,0-7.86c0-0.39,0-0.87,0-0.87s0.47,0,0.86-0.01c0.95,0,1.9,0.01,2.84,0.01s1.9-0.01,2.84,0
		c0.31,0.01,1.15,0.01,1.15,0.01s0,0.38,0,0.72c0,0.69,0,1.57,0,1.57s-1.05,0.01-1.64,0.01c-1.17,0-2.23,0-3.41,0l0.01,1.44
		l4.57-0.01v2.09h-4.57l0.01,1.53H133.35z"/>
	<line class="st0" x1="68.89" y1="115.67" x2="71.01" y2="115.67"/>
	<path d="M69.93,113.36"/>
	<path class="st1" d="M103.01,111.7"/>
	<polygon points="102.19,31.65 102.19,41.27 104.79,41.27 104.79,36.09 108.87,41.27 111.2,41.27 111.2,31.65 108.63,31.65 
		108.63,36.75 104.7,31.65 	"/>
	<polygon points="147.09,31.65 147.09,41.27 149.69,41.27 149.69,36.09 153.77,41.27 156.1,41.27 156.1,31.65 153.53,31.65 
		153.53,36.75 149.6,31.65 	"/>
	<polygon points="76.52,111.43 78.31,111.43 79.83,116.35 81.49,111.43 82.89,111.43 84.56,116.35 86.08,111.43 87.83,111.43 
		85.31,118.89 83.85,118.89 82.18,114.12 80.5,118.89 79.06,118.89 	"/>
	<path d="M106.27,116.22c0,0,1.73-0.54,1.54-2.46c-0.19-1.92-1.71-2.17-1.71-2.17s0.12-0.25-4.44-0.15v7.44h1.65v-2.35h1.21
		l1.62,2.35h1.92L106.27,116.22z M105.42,115.04h-2.14v-2.12h2.12c0,0,0.82,0.15,0.77,1.06
		C106.12,114.87,105.42,115.04,105.42,115.04z"/>
	<path d="M117.9,113.48c0,0-1.18-2.04-3.53-2.07c-2.35-0.03-2.96,0-2.96,0v7.46h3.44C114.85,118.87,119.21,118.46,117.9,113.48z
		 M116.5,115.67c-0.35,2.32-3.43,1.75-3.43,1.75v-4.48h1.76C114.83,112.94,116.85,113.35,116.5,115.67z"/>
	<path d="M153.89,108.4v-1.75c0,0,0-0.73,1-0.73s0.88,0.83,0.88,0.83v3.37c0,0,0.49-0.1-3.18,3.29c0,0-0.39,0.34-0.37,1.47
		c0.02,1.13,0,4.52,0,4.52h5.53v-1.78h-3.47V115c0,0-0.08-0.29,0.7-0.99c0.79-0.7,2.52-2.38,2.52-2.38s0.34-0.39,0.34-1.9
		s0-3.42,0-3.42s0.11-2.24-2.92-2.24s-3.05,2.19-3.05,2.19v2.17L153.89,108.4z"/>
	<path d="M165.15,113.87v-10.06h-2.03l-3.98,10.06l0.43,1.76h3.6v3.6h1.98v-3.6h1.24v-1.76H165.15z M163.29,113.87h-2l2-5.89V113.87
		z"/>
	<path d="M23.79,108.05v-1.75c0,0,0-0.73,1-0.73c1,0,0.88,0.83,0.88,0.83v3.37c0,0,0.49-0.1-3.18,3.29c0,0-0.39,0.34-0.37,1.47
		c0.02,1.13,0,4.52,0,4.52h5.53v-1.78h-3.47v-2.63c0,0-0.08-0.29,0.7-0.99s2.52-2.38,2.52-2.38s0.34-0.39,0.34-1.9s0-3.42,0-3.42
		s0.11-2.24-2.92-2.24s-3.05,2.19-3.05,2.19v2.17L23.79,108.05z"/>
</g>
</svg>
