<svg width="177" height="91" viewBox="0 0 177 91" fill="none" xmlns="http://www.w3.org/2000/svg">
<g clip-path="url(#clip0_5693_3775)">
<path d="M0 14.1444V11.0625H1.83575V3.31274H0V0H9.77735V3.31274H7.9416V11.0525H9.77735V14.1444H0Z" fill="#231F20"/>
<path d="M18.6266 14.1436V11.0618H20.0433V7.83937C20.0433 6.86562 19.3549 6.43396 18.467 6.43396C17.3396 6.43396 16.4915 7.26717 16.4915 8.40153V11.0718H17.9482V14.1537H10.2959V11.0718H11.6727V6.41388H10.2959V3.33203H16.3319V5.46022C16.4317 5.37991 16.5315 5.25944 16.6113 5.15906C17.7187 3.89419 18.9758 3.43242 20.632 3.43242C22.9566 3.43242 24.8522 4.38609 24.8522 6.98609V11.0618H26.0993V14.1436H18.6266Z" fill="#231F20"/>
<path d="M38.2817 7.89189L34.1513 8.34363C34.1014 7.18919 33.8619 5.97452 32.4652 5.97452C30.6893 5.97452 30.5496 7.46023 30.5496 8.88572V8.91583C30.5496 10.3413 30.6893 11.827 32.4652 11.827C33.393 11.827 34.2211 11.295 34.2211 10.1506H38.3316L38.3016 10.512C37.6232 13.8749 34.6102 14.3969 32.4352 14.3969C29.0231 14.3969 25.6709 12.7104 25.6709 8.88572C25.6709 5.07104 29.0231 3.38456 32.4352 3.38456C32.4352 3.38456 37.7828 3.03321 38.2817 7.87182" fill="#231F20"/>
<path d="M41.6038 12.6178C41.6038 13.5815 40.8256 14.3645 39.8678 14.3645C38.91 14.3645 38.1318 13.5815 38.1318 12.6178C38.1318 11.6541 38.91 10.8711 39.8678 10.8711C40.8256 10.8711 41.6038 11.6541 41.6038 12.6178Z" fill="#231F20"/>
<path d="M0.129883 46.8008H16.2525V52.4626H7.71232V56.8494H14.4667V62.5112H7.71232V72.2286H0.129883V46.8008Z" fill="#231F20"/>
<path d="M33.5326 62.7222C33.5326 68.5647 30.34 72.6203 24.713 72.6203C19.086 72.6203 15.8535 68.5647 15.8535 62.7222C15.8535 56.8798 19.1259 52.7539 24.713 52.7539C30.3001 52.7539 33.5326 56.8095 33.5326 62.7222ZM26.888 62.7222C26.888 59.2489 25.9801 58.3354 24.713 58.3354C23.2963 58.3354 22.4981 59.2489 22.4981 62.7222C22.4981 65.7941 23.2264 67.1091 24.713 67.1091C25.9801 67.1091 26.888 65.7941 26.888 62.7222Z" fill="#231F20"/>
<path d="M51.4705 53.1155V72.219H45.4445L44.6862 69.5487C43.8881 71.0143 42.621 72.6205 39.7477 72.6205C37.1337 72.6205 34.7393 70.7533 34.7393 66.778V53.1155H41.5235V64.9109C41.5235 66.4066 42.212 66.9587 42.9802 66.9587C43.7484 66.9587 44.6463 66.517 44.6463 64.1781V53.1055H51.4705V53.1155Z" fill="#231F20"/>
<path d="M53.4463 72.2199V53.1164H59.4723L60.2306 55.7867C61.0686 54.4716 62.4854 52.7148 65.1691 52.7148C67.8529 52.7148 70.4369 54.6523 70.4369 59.1797V72.2199H63.6127V61.2276C63.6127 59.4708 62.7448 58.9589 62.0563 58.9589C61.1085 58.9589 60.2805 59.6214 60.2805 61.5488V72.2199H53.4563H53.4463Z" fill="#231F20"/>
<path d="M82.6388 69.3374C81.5114 71.4154 80.0248 72.6301 77.8798 72.6301C73.9589 72.6301 71.7041 68.2834 71.7041 62.6919C71.7041 57.1004 73.9589 52.7235 77.8798 52.7235C80.0248 52.7235 81.5114 53.9683 82.6388 56.0162V46.7305H89.4231V72.2285H83.4369L82.6388 69.3374ZM80.6434 66.4865C81.7708 66.4865 82.7086 64.9505 82.7086 62.6919C82.7086 60.4332 81.7608 58.8872 80.6434 58.8872C79.4063 58.8872 78.5782 60.383 78.5782 62.6919C78.5782 65.0007 79.4162 66.4865 80.6434 66.4865Z" fill="#231F20"/>
<path d="M99.7092 72.6203C94.5911 72.6203 91.0293 68.5246 91.0293 62.7222C91.0293 56.9199 94.3317 52.7539 99.779 52.7539C105.226 52.7539 108.818 56.8798 107.731 63.967H98.0331C98.1428 65.9748 98.7913 67.069 100.248 67.069C101.196 67.069 101.914 66.4064 102.243 65.4929L107.8 67.6813C106.424 70.8535 103.919 72.6103 99.7092 72.6103V72.6203ZM98.1428 60.5338H101.305C101.345 58.9277 100.946 57.974 99.9586 57.974C99.1605 57.974 98.4322 58.4458 98.1428 60.5338Z" fill="#231F20"/>
<path d="M109.656 72.2182V53.1147H115.323L116.082 56.5078C116.55 54.8313 117.828 52.7031 120.292 52.7031C122.946 52.7031 125.919 55.002 124.831 60.6336L119.095 63.846C119.244 62.9726 119.274 62.28 119.274 61.4367C119.274 59.1379 118.366 58.9471 117.927 58.9471C117.089 58.9471 116.471 59.9711 116.471 62.2699V72.2081H109.646L109.656 72.2182Z" fill="#231F20"/>
<path d="M142.56 66.1565C142.56 69.66 139.587 72.6616 134.06 72.6616C129.121 72.6616 126.218 70.1419 125.969 66.9596L131.775 65.9758C131.666 67.2508 132.683 68.094 134.03 68.094C135.267 68.094 135.846 67.4716 135.846 66.8492C135.846 65.8654 134.938 65.7148 133.671 65.4237L131.456 64.9118C127.715 64.0384 126.338 61.8098 126.338 59.1396C126.338 55.9975 129.101 52.7148 134.469 52.7148C139.837 52.7148 142.022 55.4955 142.022 57.684L136.794 59.2901C136.794 58.2662 135.956 57.3928 134.539 57.3928C133.232 57.3928 132.833 58.0453 132.833 58.5272C132.833 58.9689 133.012 59.3704 133.99 59.6214L136.644 60.284C139.298 60.9365 142.56 62.0407 142.56 66.1666V66.1565Z" fill="#231F20"/>
<path d="M0.129883 18.793H16.2525V24.4547H7.71232V28.8416H14.4667V34.5034H7.71232V44.2208H0.129883V18.793Z" fill="#231F20"/>
<path d="M24.6731 44.6242C19.5549 44.6242 15.9932 40.5285 15.9932 34.7262C15.9932 28.9238 19.2955 24.7578 24.7429 24.7578C30.1903 24.7578 33.782 28.8837 32.6945 35.9709H22.9969C23.1067 37.9787 23.7552 39.0729 25.2118 39.0729C26.1596 39.0729 26.878 38.4103 27.2072 37.4968L32.7643 39.6852C31.3875 42.8574 28.8833 44.6142 24.6731 44.6142V44.6242ZM23.1067 32.5377H26.2694C26.3093 30.9316 25.9102 29.9779 24.9225 29.9779C24.1243 29.9779 23.396 30.4497 23.1067 32.5377Z" fill="#231F20"/>
<path d="M41.7431 44.2199H34.9189V25.1164H40.945L41.7032 27.7867C42.3916 26.3612 44.0977 24.7148 46.4921 24.7148C48.2381 24.7148 49.7546 25.5179 50.7024 27.3851C51.8597 25.8492 53.466 24.7148 56.0001 24.7148C58.8336 24.7148 61.5572 26.7226 61.5572 31.1797V44.2199H54.763V33.2276C54.763 31.4708 54.0347 30.9589 53.3064 30.9589C52.5481 30.9589 51.6402 31.5411 51.6402 33.338V44.2199H44.846V33.2276C44.846 31.4708 44.1176 30.9589 43.3893 30.9589C42.6311 30.9589 41.7232 31.5411 41.7232 33.338V44.2199H41.7431Z" fill="#231F20"/>
<path d="M76.9023 44.772C74.438 44.772 73.161 43.6778 72.7619 41.8507C71.854 43.9689 70.0781 44.6314 68.4419 44.6314C64.8801 44.6716 63.2539 42.0716 63.2539 39.5519C63.2539 36.7009 64.521 34.3619 69.0305 33.3079L72.702 32.4345V31.4809C72.702 30.3164 72.263 29.5836 71.2155 29.5836C70.1679 29.5836 69.6591 30.2762 69.6591 31.26C69.6591 31.4006 69.6591 31.6214 69.699 31.8021L64.2217 30.8886C64.1818 30.5975 64.1518 30.2662 64.1518 29.9751C64.1518 26.9434 67.2048 24.7148 72.0635 24.7148C77.2515 24.7148 79.5462 27.0137 79.5462 31.25V39.6924C79.5462 40.4554 79.616 41.0477 80.4541 41.0477C80.6736 41.0477 80.923 40.9774 81.1824 40.9071V43.8986C80.6037 44.2299 78.8977 44.772 76.9322 44.772H76.9023ZM72.692 38.3774V35.7874C72.0336 35.938 71.4948 36.189 71.0259 36.5905C70.6667 36.9218 70.3674 37.4639 70.3674 38.1264C70.3674 38.9998 70.8763 39.6623 71.5647 39.6623C72.293 39.6623 72.692 39.1102 72.692 38.3874V38.3774Z" fill="#231F20"/>
<path d="M82.6387 44.2207V18.7227H89.4629V44.2207H82.6387Z" fill="#231F20"/>
<path d="M99.7092 44.6242C94.5911 44.6242 91.0293 40.5285 91.0293 34.7262C91.0293 28.9238 94.3317 24.7578 99.779 24.7578C105.226 24.7578 108.818 28.8837 107.731 35.9709H98.0331C98.1428 37.9787 98.7913 39.0729 100.248 39.0729C101.196 39.0729 101.914 38.4103 102.243 37.4968L107.8 39.6852C106.424 42.8574 103.919 44.6142 99.7092 44.6142V44.6242ZM98.1428 32.5377H101.305C101.345 30.9316 100.946 29.9779 99.9586 29.9779C99.1605 29.9779 98.4322 30.4497 98.1428 32.5377Z" fill="#231F20"/>
<path d="M18.6173 62.9421C18.6173 58.0533 21.0517 55.0618 25.1422 54.8209C24.9626 54.8108 24.793 54.8008 24.6134 54.8008C20.1937 54.8008 17.5498 57.8425 17.5498 62.9421C17.5498 68.0417 20.1937 71.0131 24.6134 71.0131C24.793 71.0131 24.9726 71.0031 25.1422 70.9931C21.0517 70.7521 18.6173 67.7907 18.6173 62.9421Z" fill="#231F20"/>
<path d="M25.9903 56.6367C25.8008 56.6367 25.6312 56.6568 25.4616 56.6769C27.5966 56.958 28.6841 58.9356 28.6841 62.5695C28.6841 67.2275 26.6987 68.2715 25.4316 68.4622C25.6112 68.4823 25.7908 68.5024 25.9903 68.5024C27.1177 68.5024 29.7516 67.9201 29.7516 62.5695C29.7516 58.6344 28.4846 56.6367 25.9903 56.6367Z" fill="#231F20"/>
<path d="M37.3937 66.4449V54.6797H36.3262V66.4449C36.3262 69.0048 37.5533 70.5407 39.6086 70.5407C39.838 70.5407 40.0575 70.5307 40.2571 70.5005C38.4612 70.2998 37.3837 68.8241 37.3837 66.4449H37.3937Z" fill="#231F20"/>
<path d="M56.3693 54.6797H55.3018V70.1391H56.3693V54.6797Z" fill="#231F20"/>
<path d="M74.6273 62.5396C74.6273 59.0361 75.605 55.5025 78.2888 55.0909C78.0993 55.0608 77.9197 55.0508 77.7501 55.0508C74.6971 55.0508 73.5498 58.8153 73.5498 62.5396C73.5498 66.2639 74.6872 69.9882 77.7501 69.9882C77.9297 69.9882 78.1092 69.9782 78.2988 69.9481C75.605 69.5465 74.6173 66.023 74.6173 62.5396H74.6273Z" fill="#231F20"/>
<path d="M93.9523 62.8405C93.9523 58.0923 96.4665 54.9703 100.407 54.7193C100.218 54.7093 100.028 54.6992 99.8387 54.6992C95.6184 54.6992 92.8848 57.8915 92.8848 62.8405C92.8848 67.7896 95.6484 70.9116 99.7688 70.9116C99.9783 70.9116 100.178 70.9015 100.377 70.8915C96.5164 70.6606 93.9523 67.4884 93.9523 62.8405Z" fill="#231F20"/>
<path d="M103.351 68.2716L102.612 67.9805C102.034 68.6029 101.285 68.9843 100.447 69.0948C100.667 69.1249 100.876 69.1449 101.066 69.1449C101.934 69.1449 102.722 68.8237 103.351 68.2816V68.2716Z" fill="#231F20"/>
<path d="M101.107 56.1758C100.927 56.1758 100.737 56.1959 100.548 56.226C101.107 56.3264 101.595 56.5773 101.995 56.9889C102.693 57.7117 103.012 58.8159 102.982 60.3619L102.942 61.958H104.01L104.05 60.3619C104.08 58.8159 103.76 57.7117 103.062 56.9889C102.543 56.4569 101.875 56.1758 101.107 56.1758Z" fill="#231F20"/>
<path d="M112.32 54.9219H111.253V70.3813H112.32V54.9219Z" fill="#231F20"/>
<path d="M118.845 56.8086C118.696 56.8086 118.516 56.8287 118.316 56.8688C119.194 57.0395 120.551 57.7422 120.711 60.3723L121.719 59.8001C121.329 57.0395 119.464 56.8086 118.845 56.8086Z" fill="#231F20"/>
<path d="M120.092 54.361C119.902 54.3209 119.703 54.3008 119.503 54.3008C117.847 54.3008 117.169 56.0274 116.949 56.8104L118.007 56.8405C118.196 56.1579 118.775 54.6722 120.092 54.3711V54.361Z" fill="#231F20"/>
<path d="M128.532 67.75L127.555 67.9809C128.433 69.6172 129.899 70.621 132.773 70.621C132.992 70.621 133.202 70.621 133.411 70.601C130.757 70.5006 129.37 69.306 128.542 67.75H128.532Z" fill="#231F20"/>
<path d="M135.397 55.1646C135.217 55.1546 135.068 55.1646 134.908 55.1646C135.996 55.3855 136.874 56.1384 137.392 56.9615L138.26 56.7708C137.632 55.9577 136.614 55.265 135.407 55.1646H135.397Z" fill="#231F20"/>
<path d="M138.689 66.627C138.689 64.4084 136.913 63.4146 135.716 63.1436L133.341 62.5915C129.969 61.7984 128.982 60.5837 128.982 59.2185C128.982 57.01 129.301 56.5482 131.097 55.0625C128.742 55.715 127.914 57.4015 127.914 59.2185C127.914 60.5837 128.682 62.3405 132.054 63.1335L134.429 63.6857C135.626 63.9567 137.622 64.4084 137.622 66.627C137.622 68.3737 136.564 69.4077 134.858 70.2007C136.953 70.0602 138.689 68.5845 138.689 66.627Z" fill="#231F20"/>
<path d="M3.45229 20.8125H2.38477V42.4658H3.45229V20.8125Z" fill="#231F20"/>
<path d="M13.0903 21H6.70508V22.0741H13.0903V21Z" fill="#231F20"/>
<path d="M11.504 31.3516H6.70508V32.4257H11.504V31.3516Z" fill="#231F20"/>
<path d="M3.45229 48.8477H2.38477V70.5009H3.45229V48.8477Z" fill="#231F20"/>
<path d="M13.0903 49.0391H6.70508V50.1132H13.0903V49.0391Z" fill="#231F20"/>
<path d="M11.504 59.3906H6.70508V60.4648H11.504V59.3906Z" fill="#231F20"/>
<path d="M28.0955 32.397L28.0556 33.9932H29.1231L29.163 32.397C29.2029 30.8511 28.8737 29.7468 28.1753 29.0241C27.6565 28.492 26.9881 28.2109 26.2198 28.2109C26.0403 28.2109 25.8507 28.231 25.6611 28.2611C26.2198 28.3615 26.7087 28.6125 27.1078 29.0241C27.8062 29.7468 28.1254 30.8511 28.0955 32.397Z" fill="#231F20"/>
<path d="M24.8323 42.8647C25.0418 42.8647 25.2413 42.8547 25.4409 42.8446C21.5798 42.6137 19.0158 39.4415 19.0158 34.7937C19.0158 30.1458 21.5299 26.9234 25.4708 26.6724C25.2813 26.6624 25.0917 26.6523 24.9021 26.6523C20.6819 26.6523 17.9482 29.8446 17.9482 34.7937C17.9482 39.7427 20.7118 42.8647 24.8323 42.8647Z" fill="#231F20"/>
<path d="M28.2646 40.2169L27.5263 39.9258C26.9477 40.5482 26.1994 40.9296 25.3613 41.0401C25.5808 41.0702 25.7903 41.0903 25.9799 41.0903C26.8479 41.0903 27.6361 40.769 28.2646 40.2269V40.2169Z" fill="#231F20"/>
<path d="M54.7737 29.3516C54.6041 29.3516 54.4245 29.3716 54.2549 29.4018C55.512 29.6427 56.7591 30.7269 56.7591 33.2064V42.3516H57.8266V33.2064C57.8266 30.3554 56.1804 29.3516 54.7737 29.3516Z" fill="#231F20"/>
<path d="M45.0959 29.3516C44.9263 29.3516 44.7468 29.3716 44.5771 29.4018C45.8342 29.6427 47.0813 30.7269 47.0813 33.2064V42.3516H48.1489V33.2064C48.1489 30.3554 46.5027 29.3516 45.0959 29.3516Z" fill="#231F20"/>
<path d="M38.0724 27.0039H37.0049V42.4634H38.0724V27.0039Z" fill="#231F20"/>
<path d="M46.5428 26.5111C46.3632 26.481 46.1837 26.4609 45.9941 26.4609C44.2382 26.4609 43.1307 27.776 42.7516 28.549L42.3525 29.3721C42.5521 29.332 42.7616 29.3119 42.9611 29.3119C43.1108 29.3119 43.2704 29.332 43.43 29.3521L43.8191 28.549C44.1584 27.8563 45.0862 26.732 46.5428 26.5111Z" fill="#231F20"/>
<path d="M55.7215 26.3705C55.542 26.3404 55.3624 26.3203 55.1728 26.3203C53.4169 26.3203 52.3094 27.6354 51.9303 28.4083L51.5312 29.2315C51.7308 29.1914 51.9403 29.1713 52.1398 29.1713C52.2895 29.1713 52.4491 29.1914 52.6088 29.2114L52.9979 28.4083C53.3371 27.7157 54.2649 26.5914 55.7215 26.3705Z" fill="#231F20"/>
<path d="M65.8781 39.5126C65.8781 38.7196 65.8581 37.5551 66.9556 36.6315C68.3623 35.457 70.9663 34.5937 71.1359 34.5234L69.2104 34.9852C65.3393 35.8987 64.8105 37.7057 64.8105 39.5227C64.8105 40.4161 65.1099 41.2593 65.6187 41.8516C66.2073 42.5242 67.0753 42.8655 68.2725 42.8655C68.4621 42.8655 68.6417 42.8454 68.8013 42.8254C67.8834 42.735 67.185 42.4138 66.6862 41.8516C66.1674 41.2694 65.8781 40.4161 65.8781 39.5227V39.5126Z" fill="#231F20"/>
<path d="M74.9564 38.2968C74.9564 38.8289 74.9864 41.3486 74.9864 41.3486C75.156 42.1115 75.4952 42.9347 77.4606 42.9347C77.6701 42.9347 77.8697 42.9246 78.0692 42.9046C76.5228 42.7841 76.2035 42.0513 76.0539 41.3486C76.0539 41.3486 76.024 38.8289 76.024 38.2968V31.5308C76.024 28.9509 74.3578 28.0273 72.9411 28.0273C72.7515 28.0273 72.572 28.0474 72.4023 28.0675C73.6794 28.2683 74.9664 29.2521 74.9664 31.5208V38.2868L74.9564 38.2968Z" fill="#231F20"/>
<path d="M72.2628 26.6233C72.1032 26.6233 71.9635 26.6133 71.7939 26.6133C68.4816 26.6133 66.0772 27.838 65.708 29.6449L66.6957 29.8056C67.0449 28.109 69.2498 26.7739 72.2528 26.6334L72.2628 26.6233Z" fill="#231F20"/>
<path d="M85.5324 20.3789H84.4648V42.1125H85.5324V20.3789Z" fill="#231F20"/>
<path d="M93.9923 34.7858C93.9923 30.0376 96.5065 26.9156 100.447 26.6646C100.258 26.6546 100.068 26.6445 99.8787 26.6445C95.6585 26.6445 92.9248 29.8368 92.9248 34.7858C92.9248 39.7349 95.6884 42.8569 99.8089 42.8569C100.018 42.8569 100.218 42.8468 100.417 42.8368C96.5564 42.6059 93.9923 39.4337 93.9923 34.7858Z" fill="#231F20"/>
<path d="M103.899 39.8224L103.161 39.5312C102.582 40.1536 101.834 40.5351 100.996 40.6455C101.216 40.6757 101.425 40.6957 101.615 40.6957C102.483 40.6957 103.271 40.3745 103.899 39.8324V39.8224Z" fill="#231F20"/>
<path d="M101.425 28.5C101.245 28.5 101.056 28.5201 100.866 28.5502C101.425 28.6506 101.914 28.9015 102.313 29.3131C103.011 30.0359 103.331 31.1402 103.301 32.6861L103.261 34.2822H104.328L104.368 32.6861C104.398 31.1402 104.079 30.0359 103.38 29.3131C102.862 28.7811 102.193 28.5 101.425 28.5Z" fill="#231F20"/>
<path d="M47.4503 54.6797H46.3828V70.1391H47.4503V54.6797Z" fill="#231F20"/>
<path d="M85.6222 48.418H84.5547V70.1516H85.6222V48.418Z" fill="#231F20"/>
<path d="M43.6592 29.5256C43.6592 29.5256 43.7192 29.5256 43.7492 29.5256C43.7192 29.5256 43.6992 29.5256 43.6692 29.5156V29.5356L43.6592 29.5256Z" fill="#231F20"/>
<path d="M63.6233 57.7617C63.4537 57.7617 63.2741 57.7818 63.1045 57.8119C64.3616 58.0528 65.6087 59.137 65.6087 61.6165V70.7617H66.6762V61.6165C66.6762 58.7656 65.03 57.7617 63.6233 57.7617Z" fill="#231F20"/>
<path d="M65.0194 54.7807C64.8398 54.7505 64.6602 54.7305 64.4707 54.7305C62.7147 54.7305 61.6073 56.0455 61.2282 56.8185L60.8291 57.6417C61.0286 57.6015 61.2382 57.5814 61.4377 57.5814C61.5873 57.5814 61.747 57.6015 61.9066 57.6216L62.2957 56.8185C62.6349 56.1258 63.5628 55.0015 65.0194 54.7807Z" fill="#231F20"/>
<path d="M147.967 78.5234H109.616V79.0354H147.967V78.5234Z" fill="#231F20"/>
<path d="M155.889 31.9927C155.889 35.0545 156.348 38.1564 158.054 40.7665C159.69 43.2159 162.423 45.0128 166.424 45.0128C170.425 45.0128 173.198 43.2159 174.835 40.7665C176.551 38.1665 177 35.0646 177 31.9927C177 28.9209 176.541 25.829 174.835 23.229C173.198 20.7395 170.465 18.9827 166.424 18.9827C162.384 18.9827 159.69 20.7395 158.054 23.229C156.338 25.829 155.889 28.931 155.889 31.9927ZM161.895 31.9927C161.895 30.0051 162.124 28.0476 162.813 26.592C163.501 25.2167 164.598 24.2931 166.424 24.2931C168.25 24.2931 169.357 25.2167 170.046 26.592C170.764 28.0476 170.994 29.9951 170.994 31.9927C170.994 33.9904 170.764 35.9379 170.046 37.3935C169.357 38.7688 168.3 39.6924 166.424 39.6924C164.549 39.6924 163.491 38.7688 162.813 37.3935C162.124 35.9379 161.895 33.9804 161.895 31.9927ZM132.832 31.9927C132.832 35.0545 133.281 38.1564 134.997 40.7665C136.633 43.2159 139.367 45.0128 143.368 45.0128C147.368 45.0128 150.142 43.2159 151.778 40.7665C153.484 38.1665 153.943 35.0646 153.943 31.9927C153.943 28.9209 153.484 25.829 151.778 23.229C150.142 20.7395 147.398 18.9827 143.368 18.9827C139.337 18.9827 136.633 20.7395 134.997 23.229C133.281 25.829 132.832 28.931 132.832 31.9927ZM138.838 31.9927C138.838 30.0051 139.068 28.0476 139.756 26.592C140.444 25.2167 141.552 24.2931 143.378 24.2931C145.203 24.2931 146.311 25.2167 146.989 26.592C147.708 28.0476 147.947 29.9951 147.947 31.9927C147.947 33.9904 147.717 35.9379 146.989 37.3935C146.301 38.7688 145.243 39.6924 143.378 39.6924C141.512 39.6924 140.444 38.7688 139.756 37.3935C139.068 35.9379 138.838 33.9804 138.838 31.9927ZM118.236 29.5032C118.086 29.0012 118.006 28.4692 118.006 27.9673C118.006 25.8993 119.144 24.2931 121.468 24.2931C123.793 24.2931 124.781 25.6684 124.781 27.2445C124.781 28.8205 124.022 29.9248 122.077 31.0692L118.036 33.4383C113.517 36.0785 112.22 39.8329 112.22 44.3904H130.976V39.341H119.563C119.902 38.6182 120.511 38.1163 121.239 37.6545L125.918 34.8537C129.071 32.9765 130.787 30.3364 130.787 27.124C130.787 22.6869 127.295 18.9727 121.618 18.9727C115.941 18.9727 112.369 22.9479 112.369 27.3951C112.369 28.158 112.479 29.1518 112.599 29.463L118.226 29.5032H118.236Z" fill="#231F20"/>
<path d="M113.537 89.7457V90.9001H109.656C109.656 90.7796 109.656 90.6291 109.656 90.4584C109.656 90.1773 109.676 89.8762 109.716 89.6754C109.995 88.1395 112.3 87.3264 112.3 86.0916C112.3 85.6399 112.031 85.409 111.632 85.409C111.013 85.409 110.903 85.941 111.033 86.6236L109.726 86.714C109.457 85.4391 110.055 84.375 111.672 84.375C112.929 84.375 113.687 85.0074 113.687 86.1016C113.687 87.9688 111.322 88.5511 111.193 89.7557H113.537V89.7457Z" fill="#231F20"/>
<path d="M114.884 87.7162C114.884 85.5779 115.881 84.3633 117.488 84.3633C119.094 84.3633 119.902 85.5478 119.902 87.6057C119.902 89.764 119.054 90.9988 117.368 90.9988C115.682 90.9988 114.894 89.8042 114.894 87.7061L114.884 87.7162ZM118.485 87.6359C118.485 86.0799 118.186 85.4475 117.438 85.4475C116.69 85.4475 116.31 86.0698 116.31 87.666C116.31 89.2621 116.62 89.9548 117.408 89.9548C118.196 89.9548 118.485 89.2922 118.485 87.6258V87.6359Z" fill="#231F20"/>
<path d="M125.13 89.7457V90.9001H121.249C121.249 90.7796 121.249 90.6291 121.249 90.4584C121.249 90.1773 121.269 89.8762 121.309 89.6754C121.588 88.1395 123.893 87.3264 123.893 86.0916C123.893 85.6399 123.624 85.409 123.224 85.409C122.606 85.409 122.496 85.941 122.626 86.6236L121.319 86.714C121.049 85.4391 121.648 84.375 123.264 84.375C124.521 84.375 125.28 85.0074 125.28 86.1016C125.28 87.9688 122.915 88.5511 122.785 89.7557H125.13V89.7457Z" fill="#231F20"/>
<path d="M127.814 87.1356C128.772 87.1055 129.211 86.8445 129.211 86.1318C129.211 85.5997 128.922 85.409 128.523 85.409C128.004 85.409 127.774 85.6901 127.914 86.6236L126.617 86.714C126.358 85.3989 126.926 84.375 128.553 84.375C129.8 84.375 130.588 84.9372 130.588 85.9711C130.588 86.8846 130.039 87.3364 129.381 87.5372C130.259 87.7379 130.718 88.3202 130.718 89.1132C130.718 90.358 129.889 91.0105 128.602 91.0105C127.096 91.0105 126.547 90.3078 126.487 89.0128L127.834 88.9225C127.884 89.6352 128.074 89.9665 128.632 89.9665C129.051 89.9665 129.331 89.6653 129.331 89.1132C129.331 88.3704 128.842 88.1294 127.914 88.1897L127.804 87.1457L127.814 87.1356Z" fill="#231F20"/>
</g>
<defs>
<clipPath id="clip0_5693_3775">
<rect width="177" height="91" fill="white"/>
</clipPath>
</defs>
</svg>
