<svg id="Layer_1" data-name="Layer 1" xmlns="http://www.w3.org/2000/svg" viewBox="0 0 143.42 57.44"><title>gdpr</title><path d="M253.26,127.54a4,4,0,0,0-4.37-4.17H242.6v12.54h3.24v-4.25h3A4,4,0,0,0,253.26,127.54Zm-7.42,1.37v-2.82h2.62a1.41,1.41,0,0,1,1.5,1.43,1.38,1.38,0,0,1-1.5,1.39Zm-4.86.72c0-3.89-2.85-6.26-6.8-6.26H228.9v12.54h5.3C238.13,135.91,241,133.52,241,129.63Zm-8.84,3.46v-6.9h2.06a3.21,3.21,0,0,1,3.46,3.44,3.33,3.33,0,0,1-3.48,3.46ZM258,131.66h1.66l2.11,4.25h3.71l-2.56-4.61a3.79,3.79,0,0,0,2.5-3.76,4,4,0,0,0-4.37-4.17h-6.29v12.54H258Zm0-5.57h2.56a1.42,1.42,0,1,1,0,2.82H258Zm-36.51,10c-3.74,0-6.8-2.5-6.8-6.48s3.06-6.49,6.8-6.49a5.92,5.92,0,0,1,5.37,2.92l-2.71,1.42a3.14,3.14,0,0,0-2.66-1.48,3.63,3.63,0,0,0,0,7.26,3.9,3.9,0,0,0,2.38-.76v-1.05h-2.88v-2.69H227v4.91A7.28,7.28,0,0,1,221.44,136.13Zm45.13-26.32h-86a28.72,28.72,0,0,0-28.72,28.72h0a28.72,28.72,0,0,0,28.72,28.72h86a28.72,28.72,0,0,0,28.72-28.72h0A28.72,28.72,0,0,0,266.57,109.81ZM180.25,121l.63-2.06.64,2.06h2l-1.66,1.27.64,2.06L180.88,123l-1.66,1.28.63-2.06L178.19,121Zm-15.39,8.91.64-2.06.63,2.06h2.06l-1.66,1.27.63,2.06-1.66-1.27-1.67,1.27.64-2.06-1.66-1.27Zm-3.59,8h2l.64-2,.64,2h2.05L165,139.17l.63,2.05L164,140l-1.66,1.27.63-2.05Zm4.23,10.53-1.66,1.27.63-2.06-1.66-1.27h2.05l.64-2.06.63,2.06h2.06l-1.66,1.27.63,2.06Zm7.05,8.19-1.67-1.27-1.66,1.27.63-2.06-1.66-1.27h2.06l.63-2.05.64,2.05h2l-1.66,1.27Zm1.54-29.56-1.67-1.27-1.66,1.27.63-2.06-1.66-1.27h2.06l.63-2,.64,2h2.05L173.45,125Zm8.46,31.1-1.67-1.27-1.66,1.27.63-2.06-1.66-1.27h2.06l.63-2.06.64,2.06h2l-1.66,1.27Zm3.81-21.92-6.05,6.18a1.24,1.24,0,0,1-.77.32H179a1.19,1.19,0,0,1-.76-.32l-2.85-2.92a.45.45,0,0,1,0-.64l1.12-1.15a.45.45,0,0,1,.63,0h0l1.82,1.86a.47.47,0,0,0,.64,0l5-5.1a.44.44,0,0,1,.63,0h0l1.11,1.13A.46.46,0,0,1,186.36,136.23Zm.29-12.51h2.06l.63-2,.64,2H192L190.37,125l.64,2.06-1.67-1.27-1.66,1.27.63-2.06Zm4.23,31.62-1.66,1.27.63-2.06-1.66-1.27h2.06l.63-2.05.64,2.05h2l-1.66,1.27.63,2.06Zm75.69,9.07H193.34a28.73,28.73,0,0,0,0-51.76h73.23a25.88,25.88,0,0,1,0,51.76Zm-67.1-23.19L197.8,140l-1.66,1.27.64-2.05-1.67-1.28h2.06l.63-2,.64,2h2.06l-1.67,1.28Zm-2.18-10.07.64,2.06-1.66-1.27-1.67,1.27.64-2.06-1.67-1.27h2.06l.64-2.06.63,2.06H199Zm-1.66,15.21.64-2.06.63,2.06H199l-1.67,1.27.64,2.06-1.66-1.27-1.67,1.27.64-2.06-1.67-1.27Zm23-1.21a1,1,0,0,0,.13-.47.68.68,0,0,0-.15-.45.57.57,0,0,0-.44-.17.61.61,0,0,0-.51.22.84.84,0,0,0-.17.53h-.7a1.22,1.22,0,0,1,.37-.93,1.37,1.37,0,0,1,1-.38,1.33,1.33,0,0,1,1,.33,1.12,1.12,0,0,1,.34.86,1.27,1.27,0,0,1-.19.68,8.18,8.18,0,0,1-.63.84l-.9,1v0h1.84v.57h-2.75v-.49l1.33-1.54A3.19,3.19,0,0,0,218.66,145.15Zm4,2.3a1.69,1.69,0,0,0,.38-1.16v-1.21a1.69,1.69,0,0,0-.38-1.16,1.42,1.42,0,0,0-2,0,1.69,1.69,0,0,0-.38,1.16v1.21a1.64,1.64,0,0,0,.39,1.16,1.41,1.41,0,0,0,2,0Zm-1.71-1.06V145a1.11,1.11,0,0,1,.18-.67.66.66,0,0,1,1,0,1.11,1.11,0,0,1,.18.67v1.42a1.12,1.12,0,0,1-.18.68.59.59,0,0,1-.5.24.6.6,0,0,1-.51-.24A1.06,1.06,0,0,1,220.91,146.39Zm3-2.75,1.62-.15v4.33h-.71v-3.61h-.91Zm3.9,2a1.24,1.24,0,0,0-.58.4.94.94,0,0,0-.22.62,1.1,1.1,0,0,0,.41.92,1.66,1.66,0,0,0,1.06.33,1.52,1.52,0,0,0,1-.33,1.1,1.1,0,0,0,.4-.92,1,1,0,0,0-.21-.62,1.28,1.28,0,0,0-.56-.4,1.12,1.12,0,0,0,.47-.39,1,1,0,0,0,.17-.57,1.06,1.06,0,0,0-.36-.86,1.39,1.39,0,0,0-.92-.3,1.5,1.5,0,0,0-1,.3,1.07,1.07,0,0,0-.37.86.92.92,0,0,0,.18.57A1.12,1.12,0,0,0,227.79,145.61Zm1.37,1a.69.69,0,0,1-.2.51.68.68,0,0,1-.5.19.8.8,0,0,1-.55-.19.66.66,0,0,1-.21-.51.67.67,0,0,1,.22-.52.77.77,0,0,1,.54-.2.7.7,0,0,1,.5.2A.73.73,0,0,1,229.16,146.61ZM228,144.23a.61.61,0,0,1,.45-.17.57.57,0,0,1,.41.17.64.64,0,0,1,.16.45.63.63,0,0,1-.16.46.52.52,0,0,1-.41.18.61.61,0,0,1-.45-.18.6.6,0,0,1-.18-.46A.58.58,0,0,1,228,144.23Zm5.3-.68H234l-1.68,4.63h-.65Zm5.31,4.13a2.18,2.18,0,0,1-1,.2,1.68,1.68,0,0,1-1.25-.49,1.7,1.7,0,0,1-.48-1.26v-.89a1.7,1.7,0,0,1,.47-1.26,1.59,1.59,0,0,1,1.21-.49,1.67,1.67,0,0,1,1.16.38,1.23,1.23,0,0,1,.41,1v0h-.68a.78.78,0,0,0-.22-.58,1,1,0,0,0-1.36.11,1.28,1.28,0,0,0-.27.84v.9a1.26,1.26,0,0,0,.28.85.94.94,0,0,0,.74.33,1.54,1.54,0,0,0,.54-.08.74.74,0,0,0,.3-.19v-.88h-.89v-.53h1.6v1.61A1.37,1.37,0,0,1,238.62,147.68Zm3.87-.18-.23-.46a1.44,1.44,0,0,1-.39.2,1.51,1.51,0,0,1-.5.07.72.72,0,0,1-.59-.24,1.06,1.06,0,0,1-.2-.64h2V146a1.67,1.67,0,0,0-.32-1.06,1.21,1.21,0,0,0-1-.39,1.28,1.28,0,0,0-1,.45,1.69,1.69,0,0,0-.39,1.15v.12a1.63,1.63,0,0,0,.39,1.13,1.39,1.39,0,0,0,1.09.44,2.06,2.06,0,0,0,.68-.11A1.37,1.37,0,0,0,242.49,147.5Zm-1.69-2.14a.58.58,0,0,1,.45-.2.53.53,0,0,1,.45.19.84.84,0,0,1,.14.49v.06H240.6v0A.94.94,0,0,1,240.8,145.36Zm4.7-.47a1.38,1.38,0,0,1,.28,1v2h-.71v-2a.73.73,0,0,0-.15-.52.53.53,0,0,0-.43-.16.87.87,0,0,0-.4.09.67.67,0,0,0-.26.24v2.32h-.71v-3.17h.65l0,.45a1.06,1.06,0,0,1,.39-.37.93.93,0,0,1,.53-.14A1,1,0,0,1,245.5,144.89Zm2.36,3a2.08,2.08,0,0,0,.69-.11,1.37,1.37,0,0,0,.48-.27l-.23-.46a1.44,1.44,0,0,1-.39.2,1.51,1.51,0,0,1-.5.07.72.72,0,0,1-.59-.24,1,1,0,0,1-.2-.64h2V146a1.62,1.62,0,0,0-.33-1.06,1.17,1.17,0,0,0-1-.39,1.28,1.28,0,0,0-1,.45,1.69,1.69,0,0,0-.39,1.15v.12a1.63,1.63,0,0,0,.39,1.13A1.38,1.38,0,0,0,247.86,147.88Zm-.52-2.52a.56.56,0,0,1,.45-.2.53.53,0,0,1,.45.19.84.84,0,0,1,.14.49v.06h-1.24v0A1,1,0,0,1,247.34,145.36Zm3,2.46h-.71v-3.17h.65l.05.46a1,1,0,0,1,.31-.38.65.65,0,0,1,.43-.14h.12l.1,0-.08.67h-.31a.62.62,0,0,0-.34.09.51.51,0,0,0-.22.24Zm1.76-2.94a.78.78,0,0,0-.34.66v0h.69a.39.39,0,0,1,.14-.3.7.7,0,0,1,.81,0,.52.52,0,0,1,.14.39V146H253a1.75,1.75,0,0,0-1,.26.83.83,0,0,0-.37.71.91.91,0,0,0,.27.7,1.06,1.06,0,0,0,.76.26,1,1,0,0,0,.54-.15,1.25,1.25,0,0,0,.38-.38l0,.23a2.17,2.17,0,0,0,.07.24h.72a2.37,2.37,0,0,1-.09-.36,2.23,2.23,0,0,1,0-.37v-1.41a1,1,0,0,0-.34-.81,1.36,1.36,0,0,0-.9-.28A1.41,1.41,0,0,0,252.13,144.88Zm1.44,2a.66.66,0,0,1-.28.3.92.92,0,0,1-.48.14.48.48,0,0,1-.34-.11.37.37,0,0,1-.12-.29.48.48,0,0,1,.17-.36.74.74,0,0,1,.49-.15h.56Zm1.51.95v-4.57h.71v4.57Zm4.48-4.27h-1.41v4.27h1.41a1.79,1.79,0,0,0,1.32-.51,1.74,1.74,0,0,0,.51-1.3v-.65a1.76,1.76,0,0,0-.51-1.3A1.79,1.79,0,0,0,259.56,143.55Zm1.12,2.46a1.31,1.31,0,0,1-.3.89,1,1,0,0,1-.82.35h-.69v-3.13h.69a1,1,0,0,1,.82.35,1.31,1.31,0,0,1,.3.89Zm2.67-.06a1.75,1.75,0,0,0-1,.26.83.83,0,0,0-.36.71.94.94,0,0,0,.26.7,1.06,1.06,0,0,0,.76.26,1,1,0,0,0,.54-.15,1.15,1.15,0,0,0,.38-.38,1.57,1.57,0,0,0,0,.23,1.05,1.05,0,0,0,.06.24h.72a1.55,1.55,0,0,1-.08-.36,2.22,2.22,0,0,1,0-.37v-1.41a1,1,0,0,0-.34-.81,1.36,1.36,0,0,0-.89-.28,1.44,1.44,0,0,0-.93.29.78.78,0,0,0-.34.66v0h.68a.37.37,0,0,1,.15-.3.56.56,0,0,1,.38-.12.57.57,0,0,1,.42.14.53.53,0,0,1,.15.39V146Zm.56.92a.69.69,0,0,1-.29.3.87.87,0,0,1-.48.14.5.5,0,0,1-.34-.11.37.37,0,0,1-.12-.29.45.45,0,0,1,.18-.36.69.69,0,0,1,.48-.15h.57Zm2.89.38.08.52a.66.66,0,0,1-.21.08,1.15,1.15,0,0,1-.26,0,.83.83,0,0,1-.62-.23,1,1,0,0,1-.22-.72v-1.76h-.49v-.52h.49v-.77h.7v.77h.57v.52h-.57v1.76a.38.38,0,0,0,.09.28.33.33,0,0,0,.22.08h.12Zm2.43.1,0,.23a2.17,2.17,0,0,0,.07.24h.72a2.37,2.37,0,0,1-.09-.36c0-.12,0-.24,0-.37v-1.41a1,1,0,0,0-.34-.81,1.36,1.36,0,0,0-.9-.28,1.41,1.41,0,0,0-.92.29.78.78,0,0,0-.34.66v0h.69a.39.39,0,0,1,.14-.3.7.7,0,0,1,.81,0,.52.52,0,0,1,.14.39V146h-.55a1.75,1.75,0,0,0-1,.26.83.83,0,0,0-.36.71.91.91,0,0,0,.26.7,1.06,1.06,0,0,0,.76.26,1,1,0,0,0,.54-.15A1.25,1.25,0,0,0,269.23,147.35Zm-1.11-.15a.37.37,0,0,1-.12-.29.48.48,0,0,1,.17-.36.74.74,0,0,1,.49-.15h.56v.47a.66.66,0,0,1-.28.3.9.9,0,0,1-.48.14A.48.48,0,0,1,268.12,147.2Zm-49.55,3.55h-1.63V155h.71V153.4h.92a1.61,1.61,0,0,0,1.11-.36,1.35,1.35,0,0,0,0-1.92A1.57,1.57,0,0,0,218.57,150.75Zm.6,1.87a.81.81,0,0,1-.6.21h-.92v-1.51h.92a.82.82,0,0,1,.6.22.78.78,0,0,1,.19.54A.76.76,0,0,1,219.17,152.62Zm3.07-.82.11,0-.09.67H222a.63.63,0,0,0-.35.09.64.64,0,0,0-.22.24V155h-.71v-3.17h.65l0,.46a1,1,0,0,1,.31-.38.65.65,0,0,1,.43-.14Zm1.81,0a1.33,1.33,0,0,0-1.06.45,1.71,1.71,0,0,0-.39,1.16v.06a1.72,1.72,0,0,0,.39,1.17,1.49,1.49,0,0,0,2.13,0,1.72,1.72,0,0,0,.39-1.17v-.06a1.71,1.71,0,0,0-.39-1.16A1.35,1.35,0,0,0,224.05,151.79Zm.75,1.67a1.36,1.36,0,0,1-.19.76.69.69,0,0,1-1.12,0,1.4,1.4,0,0,1-.18-.76v-.06a1.44,1.44,0,0,1,.18-.75.63.63,0,0,1,.56-.29.62.62,0,0,1,.56.29,1.35,1.35,0,0,1,.19.75Zm2.77,1,.08.52a.72.72,0,0,1-.22.08,1.09,1.09,0,0,1-.26,0,.81.81,0,0,1-.61-.23,1,1,0,0,1-.23-.72v-1.75h-.48v-.53h.48v-.77H227v.77h.57v.53H227v1.75a.43.43,0,0,0,.08.28.36.36,0,0,0,.23.08h.11Zm1.88-2.66a1.28,1.28,0,0,0-1,.45,1.69,1.69,0,0,0-.39,1.15v.12a1.63,1.63,0,0,0,.39,1.13,1.39,1.39,0,0,0,1.09.44,2.08,2.08,0,0,0,.69-.11,1.37,1.37,0,0,0,.48-.27l-.24-.46a1.44,1.44,0,0,1-.39.2,1.51,1.51,0,0,1-.5.07.69.69,0,0,1-.58-.24,1.06,1.06,0,0,1-.21-.64h2v-.38a1.62,1.62,0,0,0-.33-1.06A1.19,1.19,0,0,0,229.45,151.79Zm.59,1.31H228.8v0a.94.94,0,0,1,.21-.52.56.56,0,0,1,.44-.2.51.51,0,0,1,.45.19.77.77,0,0,1,.14.49Zm1.86.28v.11a1.49,1.49,0,0,0,.16.73.6.6,0,0,0,.56.29.61.61,0,0,0,.41-.15.51.51,0,0,0,.17-.39h.64v0a1,1,0,0,1-.36.77,1.28,1.28,0,0,1-.87.32,1.3,1.3,0,0,1-1.06-.45,1.75,1.75,0,0,1-.37-1.14v-.11a1.75,1.75,0,0,1,.37-1.14,1.29,1.29,0,0,1,1.05-.45,1.25,1.25,0,0,1,.9.33,1.12,1.12,0,0,1,.34.85h-.65a.64.64,0,0,0-.17-.44.52.52,0,0,0-.42-.18.61.61,0,0,0-.55.29A1.49,1.49,0,0,0,231.9,153.38Zm4,1.07.08.52a.66.66,0,0,1-.21.08,1.15,1.15,0,0,1-.26,0,.83.83,0,0,1-.62-.23,1,1,0,0,1-.22-.72v-1.75h-.49v-.53h.49v-.77h.7v.77h.57v.53h-.57v1.75a.38.38,0,0,0,.09.28.34.34,0,0,0,.23.08h.11Zm.66-4h.72v.62h-.72Zm0,1.4h.72V155h-.72Zm2.83-.06a1.33,1.33,0,0,0-1.06.45,1.71,1.71,0,0,0-.39,1.16v.06a1.72,1.72,0,0,0,.39,1.17,1.49,1.49,0,0,0,2.13,0,1.72,1.72,0,0,0,.39-1.17v-.06a1.71,1.71,0,0,0-.39-1.16A1.33,1.33,0,0,0,239.37,151.79Zm.75,1.67a1.45,1.45,0,0,1-.18.76.7.7,0,0,1-1.13,0,1.4,1.4,0,0,1-.18-.76v-.06a1.35,1.35,0,0,1,.19-.75.61.61,0,0,1,.55-.29.65.65,0,0,1,.57.29,1.44,1.44,0,0,1,.18.75Zm3.71-1.37a1.38,1.38,0,0,1,.28,1v2h-.71v-2a.73.73,0,0,0-.15-.52.53.53,0,0,0-.43-.16.87.87,0,0,0-.4.09.67.67,0,0,0-.26.24V155h-.71v-3.17h.65l0,.45a1.06,1.06,0,0,1,.39-.37,1,1,0,0,1,.53-.14A1,1,0,0,1,243.83,152.09Zm5.55,2.22V154a1.24,1.24,0,0,0-.15-.64.89.89,0,0,0-.52-.37,1.21,1.21,0,0,0,.49-.39.92.92,0,0,0,.18-.57,1.14,1.14,0,0,0-.39-.92,1.73,1.73,0,0,0-1.11-.32h-1.46V155h.71v-1.77H248a.66.66,0,0,1,.51.19.69.69,0,0,1,.19.52v.35a2,2,0,0,0,0,.41.53.53,0,0,0,.14.3h.74V155a.46.46,0,0,1-.16-.27A1.5,1.5,0,0,1,249.38,154.31Zm-.91-1.8a1,1,0,0,1-.62.17h-.72v-1.36h.75a.79.79,0,0,1,.59.19.65.65,0,0,1,.2.5A.61.61,0,0,1,248.47,152.51Zm3-.72a1.28,1.28,0,0,0-1,.45,1.69,1.69,0,0,0-.39,1.15v.12a1.63,1.63,0,0,0,.39,1.13,1.39,1.39,0,0,0,1.09.44,2,2,0,0,0,.68-.11,1.37,1.37,0,0,0,.48-.27l-.23-.46a1.44,1.44,0,0,1-.39.2,1.51,1.51,0,0,1-.5.07.72.72,0,0,1-.59-.24,1.06,1.06,0,0,1-.2-.64h2v-.38a1.62,1.62,0,0,0-.32-1.06A1.19,1.19,0,0,0,251.43,151.79Zm.59,1.31h-1.24v0a.94.94,0,0,1,.2-.52.58.58,0,0,1,.45-.2.52.52,0,0,1,.45.19.84.84,0,0,1,.14.49Zm3.27-.84a1.09,1.09,0,0,0-.36-.35,1,1,0,0,0-.5-.12,1,1,0,0,0-.91.46,2.08,2.08,0,0,0-.33,1.23v.06a1.75,1.75,0,0,0,.33,1.11,1.05,1.05,0,0,0,.9.43,1,1,0,0,0,.47-.1.88.88,0,0,0,.35-.29V155a.7.7,0,0,1-.17.51.83.83,0,0,1-.57.16,2.31,2.31,0,0,1-.46-.05,1.57,1.57,0,0,1-.4-.14l-.12.56a2.35,2.35,0,0,0,.49.17,1.77,1.77,0,0,0,.5.07,1.53,1.53,0,0,0,1.07-.34A1.18,1.18,0,0,0,256,155v-3.17h-.6Zm0,1.87a.68.68,0,0,1-.63.37.6.6,0,0,1-.54-.26,1.32,1.32,0,0,1-.17-.7v-.06a1.67,1.67,0,0,1,.17-.8.58.58,0,0,1,.54-.31.67.67,0,0,1,.38.1.81.81,0,0,1,.25.27Zm3.4-2.28h.71V155h-.61l-.06-.47a1.09,1.09,0,0,1-.38.39,1,1,0,0,1-.53.14,1,1,0,0,1-.8-.34,1.58,1.58,0,0,1-.28-1v-1.85h.7v1.86a1,1,0,0,0,.14.62.48.48,0,0,0,.41.17.94.94,0,0,0,.43-.09.64.64,0,0,0,.27-.27Zm1.51-1.4h.71V155h-.71Zm4,3.84v-1.41a1,1,0,0,0-.34-.81,1.32,1.32,0,0,0-.89-.28,1.46,1.46,0,0,0-.93.29.77.77,0,0,0-.33.66v0h.69a.36.36,0,0,1,.14-.3.59.59,0,0,1,.39-.12.61.61,0,0,1,.42.14.56.56,0,0,1,.14.39v.28h-.55a1.75,1.75,0,0,0-1,.26.81.81,0,0,0-.37.71.91.91,0,0,0,.27.7,1,1,0,0,0,.76.26,1,1,0,0,0,.53-.15,1.29,1.29,0,0,0,.39-.38.85.85,0,0,0,0,.23l.06.24h.73a2.37,2.37,0,0,1-.09-.36A2.22,2.22,0,0,1,264.17,154.29Zm-.71-.22a.66.66,0,0,1-.28.3.93.93,0,0,1-.49.14.51.51,0,0,1-.34-.11.37.37,0,0,1-.12-.29.45.45,0,0,1,.18-.36.74.74,0,0,1,.49-.15h.56Zm2.9.38.08.52a.72.72,0,0,1-.22.08,1.09,1.09,0,0,1-.26,0,.85.85,0,0,1-.62-.23,1,1,0,0,1-.22-.72v-1.75h-.48v-.53h.48v-.77h.71v.77h.57v.53h-.57v1.75a.43.43,0,0,0,.08.28.36.36,0,0,0,.23.08h.11Zm.66-4h.71v.62H267Zm0,1.4h.71V155H267Zm2.83-.06a1.35,1.35,0,0,0-1.07.45,1.71,1.71,0,0,0-.38,1.16v.06a1.72,1.72,0,0,0,.38,1.17,1.5,1.5,0,0,0,2.14,0,1.77,1.77,0,0,0,.38-1.17v-.06a1.76,1.76,0,0,0-.38-1.16A1.35,1.35,0,0,0,269.85,151.79Zm.75,1.67a1.45,1.45,0,0,1-.19.76.69.69,0,0,1-1.12,0,1.4,1.4,0,0,1-.18-.76v-.06a1.44,1.44,0,0,1,.18-.75.69.69,0,0,1,1.12,0,1.44,1.44,0,0,1,.19.75Zm3.71-1.37a1.43,1.43,0,0,1,.27,1v2h-.71v-2a.79.79,0,0,0-.14-.52.55.55,0,0,0-.44-.16.8.8,0,0,0-.39.09.78.78,0,0,0-.27.24V155h-.71v-3.17h.65l0,.45a1.06,1.06,0,0,1,.39-.37,1,1,0,0,1,.53-.14A1,1,0,0,1,274.31,152.09Z" transform="translate(-151.87 -109.81)"/></svg>