<svg id="Layer_1" data-name="Layer 1" xmlns="http://www.w3.org/2000/svg" viewBox="0 0 107.5 35"><title>glovo-logo</title><path d="M386.75,300.92c-2.06-.06-4.13-.05-6.2,0-1.44,0-2.28.79-2.29,1.88s.85,2,2.32,2,2.75,0,4.31,0c0,1.22.07,2.23,0,3.23a2,2,0,0,1-.67,1.37,8.85,8.85,0,0,1-9.06.33c-3.58-2-4.84-6.73-3.15-10.8a7.58,7.58,0,0,1,9.52-4.35,20.67,20.67,0,0,1,3.31,1.62,2.29,2.29,0,0,0,3-.74,2.44,2.44,0,0,0-.84-3.14,14.35,14.35,0,0,0-9.73-2.06,12.05,12.05,0,0,0-10.34,9.34,12.51,12.51,0,0,0,4.54,12.89c4.26,3.1,10.75,3,16-.15a3.21,3.21,0,0,0,1.73-2.92c0-2,0-4,0-6C389.14,301.79,388.39,301,386.75,300.92Zm62.48-5a9.39,9.39,0,0,0-9.62,10,9.26,9.26,0,0,0,9.61,8.84c5.59,0,9.76-4,9.75-9.42A9.31,9.31,0,0,0,449.23,295.93Zm.09,15c-2.94.17-5.27-2.45-5.29-5.68a5.21,5.21,0,0,1,5-5.47,5.42,5.42,0,0,1,5.6,5.25C454.64,308.87,452.62,310.74,449.32,310.94Zm-39.49-15c-5.61.05-9.77,4.05-9.8,9.41a9.31,9.31,0,0,0,9.45,9.43,9.43,9.43,0,1,0,.35-18.84Zm-.13,15a5.56,5.56,0,0,1-5.39-5.65,5.33,5.33,0,0,1,5.36-5.48c3.48-.13,5.35,3,5.44,5.28A5.42,5.42,0,0,1,409.7,310.94Zm60.17-30a7.69,7.69,0,0,0-7.62-.34c-3,1.4-4.5,3.91-4.79,7.77a13.24,13.24,0,0,0,1.14,3.37c1.53,2.44,3.28,4.75,5,7.05a2.84,2.84,0,0,0,4.38,0c1.53-2,3.05-4,4.46-6.11C475.32,288.44,474.21,283.59,469.87,281Zm-.56,8.67c-1,1.69-2.21,3.26-3.53,5.19-1.34-2-2.61-3.6-3.61-5.39a3.6,3.6,0,0,1,1.06-4.46,4,4,0,0,1,5.19.05A3.69,3.69,0,0,1,469.31,289.62ZM436,296.19a3.36,3.36,0,0,0-1.92,1.69c-1.56,3.62-3,7.3-4.53,11.25-1.6-4.06-3.07-7.81-4.58-11.56a2.14,2.14,0,0,0-2.78-1.31,1.94,1.94,0,0,0-1.28,2.85q3,7,6.17,14a2.67,2.67,0,0,0,4.89,0c2.07-4.61,4.12-9.23,6.1-13.88C438.78,297.53,437.57,295.76,436,296.19Zm-41.48-6.73c-1.2.1-1.81.83-1.81,2.3,0,3.41,0,6.82,0,10.23h0c0,3.37,0,6.73,0,10.1a2.18,2.18,0,1,0,4.34.31,9.63,9.63,0,0,0,.1-1.52c0-4.79,0-9.59,0-14.38,0-1.66,0-3.32-.07-5A2.06,2.06,0,0,0,394.52,289.46Zm71.15,11.41a2.4,2.4,0,0,0-2.32,2.43,2.35,2.35,0,0,0,2.43,2.16,2,2,0,0,0,2.24-2.19A2.11,2.11,0,0,0,465.67,300.87Z" transform="translate(-366.54 -279.76)"/></svg>