<svg width="76" height="75" viewBox="0 0 76 75" fill="none" xmlns="http://www.w3.org/2000/svg">
<path fill-rule="evenodd" clip-rule="evenodd" d="M33.9954 62.8999H57.9147V41.4568H33.9954V62.8999Z" fill="#FEFEFE"/>
<path fill-rule="evenodd" clip-rule="evenodd" d="M12.639 32.2725V36.5111C12.639 47.5566 14.4731 55.7253 18.2467 61.4838C21.1816 65.9634 27.7842 73.4785 39.0277 73.4785C46.3832 73.4785 52.1119 70.0536 56.0543 63.2988C59.1812 57.9423 60.1929 51.9994 60.1929 49.9605L60.1918 14.4621C60.1915 12.9182 58.9403 11.6619 57.4021 11.6619C55.8638 11.6619 54.6126 12.9182 54.6126 14.4624L54.6138 14.5625V31.554C54.6138 32.9098 53.5155 34.0126 52.1654 34.0126C50.8151 34.0126 49.7168 32.9098 49.7168 31.554V6.59077C49.7163 5.02913 48.4648 3.77314 46.9271 3.77314C45.3892 3.77314 44.1379 5.02913 44.1377 6.57333V28.9245C44.1377 30.28 43.0394 31.3828 41.6891 31.3828C40.339 31.3828 39.2407 30.28 39.2407 28.9245L39.2396 3.94411C39.2396 2.39992 37.9881 1.14363 36.4502 1.14363C34.9122 1.14363 33.6607 2.4002 33.6607 3.9444L33.6616 4.0316V28.9245C33.6616 30.28 32.5633 31.3828 31.213 31.3828C29.8627 31.3828 28.7644 30.28 28.7644 28.9245L28.7638 9.20369C28.7638 7.65892 27.5123 6.40264 25.9743 6.40264C24.4364 6.40264 23.1849 7.65892 23.1849 9.20311L23.1792 37.9555H23.1034C23.0593 38.1319 22.9978 38.3003 22.9195 38.4587C22.7475 38.8041 22.5055 39.0829 22.1996 39.2884C21.8343 39.5335 21.4029 39.6575 20.9174 39.6575C19.6371 39.6575 19.0354 38.9462 18.7908 38.5219C18.6892 38.3458 18.6106 38.1559 18.5568 37.9555H18.4745V32.2725H18.4526L18.4503 31.679L18.4725 31.0857C18.4739 31.052 18.4745 31.0179 18.4745 30.9834C18.4745 29.4486 17.1655 28.1997 15.5566 28.1997C13.9477 28.1997 12.639 29.4486 12.639 30.9834C12.639 31.0185 12.6396 31.0534 12.641 31.088L12.686 32.2725H12.639ZM39.0277 74.6222C27.25 74.6222 20.3561 66.7843 17.295 62.1122C13.3956 56.1613 11.5 47.7871 11.5 36.5111L11.5026 31.1289C11.5009 31.0791 11.5 31.0317 11.5 30.9834C11.5 28.8179 13.3199 27.0561 15.5566 27.0561C17.7936 27.0561 19.6135 28.8179 19.6135 30.9834C19.6135 31.0325 19.6126 31.0806 19.6107 31.1289L19.6004 31.4002L19.6135 31.7007L19.6161 37.4335C19.6186 37.4643 19.6235 37.5078 19.6334 37.5581C19.6525 37.657 19.6924 37.8028 19.7764 37.9487C19.9897 38.3183 20.3843 38.5139 20.9174 38.5139C21.1737 38.5139 21.3921 38.4547 21.5666 38.3375C21.7059 38.244 21.8181 38.1131 21.9001 37.9484C21.9724 37.8026 22.0066 37.657 22.0225 37.5607C22.0308 37.5089 22.0356 37.4646 22.0379 37.4315L22.0402 37.3863L22.0459 9.20311C22.0459 7.02849 23.8082 5.259 25.9743 5.259C28.1405 5.259 29.9028 7.02849 29.9028 9.20311L29.9034 28.9245C29.9034 29.6496 30.4908 30.2391 31.213 30.2391C31.9351 30.2391 32.5225 29.6496 32.5225 28.9245L32.5217 3.9444C32.5217 1.76949 34.284 0 36.4502 0C38.6163 0 40.3786 1.76949 40.3786 3.94411L40.3798 4.51593V28.9245C40.3798 29.6496 40.9669 30.2391 41.6891 30.2391C42.4112 30.2391 42.9986 29.6496 42.9986 28.9245V6.58505C42.9989 4.39871 44.7613 2.6295 46.9271 2.6295C49.0929 2.6295 50.8553 4.39842 50.8559 6.57275V31.554C50.8559 32.2791 51.4433 32.8689 52.1654 32.8689C52.8876 32.8689 53.4747 32.2791 53.4747 31.554V14.5625C53.4739 14.533 53.4736 14.4979 53.4736 14.4624C53.4736 12.2878 55.236 10.5183 57.4021 10.5183C59.5682 10.5183 61.3305 12.2875 61.3308 14.4621L61.332 49.9605C61.332 52.1006 60.2821 58.3182 57.037 63.8771C52.934 70.9065 46.7067 74.6222 39.0277 74.6222Z" fill="#FEFEFE"/>
<path fill-rule="evenodd" clip-rule="evenodd" d="M46.7369 45.3767C49.0839 43.0222 52.9016 43.0222 55.2477 45.3767C57.5946 47.7311 57.5946 51.5632 55.2477 53.9173L47.2213 61.9728C46.6444 62.5509 45.7087 62.5509 45.1315 61.9728L37.1051 53.9173C34.7582 51.5629 34.7582 47.7308 37.1051 45.3767C39.4512 43.0214 43.2689 43.0214 45.6159 45.3767L46.1766 45.9391L46.7369 45.3767ZM40.8329 12.7445C40.8329 12.7688 40.8331 12.7934 40.8337 12.8177V33.7047C40.8337 34.3137 40.3408 34.8081 39.7337 34.8081C39.1263 34.8081 38.6337 34.3137 38.6337 33.7047V17.1569H38.6331C38.6331 15.3291 37.1555 13.8475 35.3331 13.8475C33.5107 13.8475 32.0331 15.3291 32.0331 17.1569H32.0283V40.8027C32.0283 40.8027 32.0283 41.7511 31.0854 41.7511C29.99 41.7511 29.99 40.8027 29.99 40.8027V38.3616V35.5546H29.9877C29.9891 35.514 29.99 35.4734 29.99 35.4325C29.99 33.6124 28.4643 32.1371 26.5823 32.1371C24.7004 32.1371 23.1747 33.6124 23.1747 35.4325C23.1747 35.4734 23.1755 35.514 23.177 35.5546H23.1747V40.0705C23.1747 50.079 24.98 56.8834 28.0426 61.5522C31.1048 66.2208 37.0206 72.0488 46.2981 72.0488C61.6584 72.0488 65.0335 54.9037 65.0335 51.3559V21.5696H65.0324C65.0324 19.7421 63.5551 18.2605 61.7324 18.2605C59.91 18.2605 58.4324 19.7421 58.4324 21.5699C58.4324 21.5979 58.4329 21.626 58.4335 21.654V35.9111C58.4335 36.5201 57.9409 37.0144 57.3335 37.0144C56.7264 37.0144 56.2335 36.5201 56.2335 35.9111V14.9649V14.9508C56.2335 13.1227 54.7562 11.6412 52.9335 11.6412C51.1111 11.6412 49.6335 13.1227 49.6335 14.9508V14.96V33.7047C49.6335 34.3137 49.1408 34.8081 48.5335 34.8081C47.9264 34.8081 47.4335 34.3137 47.4335 33.7047V12.7442H47.4329C47.4326 10.9164 45.9553 9.43481 44.1329 9.43481C42.3102 9.43481 40.8329 10.9167 40.8329 12.7445Z" fill="#070708"/>
</svg>
