<svg id="Layer_1" data-name="Layer 1" xmlns="http://www.w3.org/2000/svg" viewBox="0 0 177.54 68.14"><title>iso</title><path d="M29.44,22.8l.07.3c1,.34,1.93.66,2.88,1a1.08,1.08,0,0,0,.4.09c.28,0,.47-.17.68-.51.76-1.29,1.59-2.53,2.38-3.79a2.06,2.06,0,0,0,.17-.42,1.79,1.79,0,0,0-1.15-.5,1.67,1.67,0,0,0-1.07.45c-.28.23-.62.38-.91.6C31.74,21,30.59,21.88,29.44,22.8Zm13.43-3.33c.93,1.5,1.84,3,2.77,4.46a.64.64,0,0,0,.42.25h0c1.13-.35,2.25-.74,3.53-1.17a6.57,6.57,0,0,0-.74-.78l-3.74-2.87a1.8,1.8,0,0,0-1.06-.4A1.94,1.94,0,0,0,42.87,19.47Zm1.4-2.06a22.32,22.32,0,0,0-4.79-.53,22.06,22.06,0,0,0-4.93.56c1,1.1,3.08,1.64,5.1,1.64S43.68,18.51,44.27,17.41ZM54.36,36.48a51.89,51.89,0,0,0,0,6.6c.14,1.64,1.1,2.32,2.73,2.42h.3a6.76,6.76,0,0,0,1.19-.12,2.38,2.38,0,0,0,2.18-2.32c.13-1,.16-2,.23-3H61c0-.56,0-1.13,0-1.7a13,13,0,0,0-.23-1.76,2.43,2.43,0,0,0-2.31-2.2,5.49,5.49,0,0,0-.58,0,9.16,9.16,0,0,0-1.65.18A2.1,2.1,0,0,0,54.36,36.48ZM29.82,21.35c.23-.2.46-.41.71-.6l3.21-2.39v-.31c-.28,0-.58-.14-.84-.14a.71.71,0,0,0-.26.05c-2,.92-3.91,1.9-5.86,2.86l-.61.31c1,.84,1.51,1.24,2,1.24S29.06,22,29.82,21.35ZM38.72,20c-.4,0-.85-.25-1.26-.25a.86.86,0,0,0-.74.43c-.81,1.19-1.59,2.39-2.37,3.6a6.58,6.58,0,0,0-.35.85l5,.54c0-1.6,0-2.93,0-4.26C39,20.62,38.83,20,38.72,20Zm2.29-.2a1.53,1.53,0,0,0-.8.2.54.54,0,0,0-.23.4c0,1.52,0,3.05,0,4.78l4.8-.58.12-.33c-.83-1.27-1.65-2.54-2.5-3.8A1.67,1.67,0,0,0,41,19.83Zm9.59,2.58a.15.15,0,0,0,.09,0c.65-.33,1.27-.72,2-1.16A20,20,0,0,0,46,17.89h-.09a3.27,3.27,0,0,0-.7.22c1.77,1.47,3.38,2.81,5,4.14A.74.74,0,0,0,50.6,22.41ZM150.91,5.75H40.35C21.86,5.75,6.87,21,6.86,39.81h0c0,18.81,15,34.07,33.49,34.07H150.91c18.42,0,33.49-15.33,33.49-34.07S169.33,5.75,150.91,5.75ZM38.21,16.08l1.42,0c8.18,0,14.67,3.77,19.61,10.76a1.39,1.39,0,0,1-.52.11,1,1,0,0,1-.8-.46C56.66,25,55.33,23.65,54,22.24a.74.74,0,0,0-.55-.29,1,1,0,0,0-.54.21c-.52.38-1.1.67-1.72,1l2.52,3.6-.23.28a3.87,3.87,0,0,1-1-.61c-.66-.77-1.24-1.62-1.89-2.39a.87.87,0,0,0-.58-.26H50c-1.19.4-2.36.86-3.61,1.33.21.59.41,1.14.6,1.69a1.12,1.12,0,0,1-.46.12c-.34,0-.55-.24-.66-.63-.18-.64-.5-.86-1-.86a2.75,2.75,0,0,0-.59.08,33.63,33.63,0,0,1-3.49.46c-.51.05-1,.08-.79.84a2,2,0,0,1-.52.1c-.24,0-.4-.12-.45-.53,0-.17-.37-.37-.59-.41-1.47-.21-2.94-.35-4.4-.58h-.17c-.48,0-.52.42-.68.74-.29.6-.37.76-.71.76a4.08,4.08,0,0,1-.51-.05c.22-.55.42-1.08.65-1.68-1.24-.46-2.41-.92-3.6-1.32h-.08a.93.93,0,0,0-.61.31c-.63.75-1.19,1.57-1.83,2.33a4.32,4.32,0,0,1-.91.63l-.26-.34,2.45-3.52c-.69-.41-1.36-.87-2.08-1.21a.28.28,0,0,0-.13,0,1.08,1.08,0,0,0-.65.29c-1.3,1.36-2.56,2.77-3.86,4.13a1.76,1.76,0,0,1-1.09.47C24.27,20.22,30.4,16.49,38.21,16.08Zm25,14.17a8.19,8.19,0,0,1,4.8,5.67,15.46,15.46,0,0,1,0,7.76,8.4,8.4,0,0,1-6,6.4,15.86,15.86,0,0,1-4.65.73,13.18,13.18,0,0,1-6-1.45c-3.07-1.56-4.49-4.22-4.87-7.56-.07-.62-.07-1.25-.1-1.88h-.08A34.49,34.49,0,0,1,47,36a8.59,8.59,0,0,1,6.47-6.38A15.26,15.26,0,0,1,57.55,29,13.48,13.48,0,0,1,63.25,30.25Zm-24.53,14q-3.11-1-6.24-2A11,11,0,0,1,28.13,40c-2.86-2.56-2.28-8.13,1.34-9.86A11.11,11.11,0,0,1,34.32,29a13.17,13.17,0,0,1,4.89,1c.51.2,1,.49,1.54.77,0-.44.09-.77.14-1.14h4.36v5.23c0,1.93,0,1.93-1.87,1.93H43l-.48,0A3.3,3.3,0,0,1,40,35.7a6.94,6.94,0,0,0-5.16-1.92c-.35,0-.71,0-1.07,0s-.72.51-1.07.78c.31.32.57.8,1,.92,2.39.77,4.82,1.44,7.22,2.19a6.83,6.83,0,0,1,5.06,6.81,5.81,5.81,0,0,1-3.51,5.3,10.7,10.7,0,0,1-4.5,1,13.83,13.83,0,0,1-5.79-1.4c-.3-.14-.58-.3-.94-.49,0,.3,0,.49-.06.68s0,.39,0,.66H26.49c0-2.43,0-4.81,0-7.19,0-.17.32-.46.5-.47.54,0,1.09,0,1.63,0s1.09,0,1.64,0a.89.89,0,0,1,.59.36,7.47,7.47,0,0,0,5.88,2.93,6.74,6.74,0,0,0,1.89-.26c.33-.1.58-.44.87-.67C39.25,44.72,39,44.32,38.72,44.22ZM12.15,50.28V45.22H15V34.42H12.13V29.28H25.25v5.11H22.34V45.22h2.91v5.06Zm28.9,13.26c-.52,0-1,.05-1.55.05-8.25,0-14.73-3.85-19.7-10.87a1.48,1.48,0,0,1,.55-.14,1,1,0,0,1,.75.46c1.23,1.43,2.52,2.8,3.79,4.2a1,1,0,0,0,.71.38,1.19,1.19,0,0,0,.68-.26c.49-.36,1-.65,1.59-1l-2.56-3.61.27-.31a4.24,4.24,0,0,1,.94.65c.66.78,1.23,1.62,1.88,2.4a.91.91,0,0,0,.59.3l.09,0c1.21-.41,2.41-.88,3.71-1.37l-.69-1.7a1.05,1.05,0,0,1,.49-.14c.33,0,.53.26.64.63.21.64.54.9,1.06.9a2.76,2.76,0,0,0,.53-.07,23.18,23.18,0,0,1,3.32-.42c.64-.05,1.19-.08,1.07-.91a1,1,0,0,1,.44-.12c.4,0,.43.44.47.83,1.73.25,3.41.53,5.1.69h0c.23,0,.56-.5.76-.81s.33-.69.74-.69a1.23,1.23,0,0,1,.44.1l-.66,1.7c1.24.47,2.46.94,3.69,1.36h.06a.88.88,0,0,0,.55-.31c.62-.76,1.18-1.58,1.82-2.33a4,4,0,0,1,.95-.66l.27.3-2.51,3.58c.7.41,1.37.87,2.09,1.2l.15,0a1.16,1.16,0,0,0,.7-.29c1.29-1.38,2.53-2.8,3.81-4.18a1.62,1.62,0,0,1,1.06-.46C54.9,59.33,48.85,63.1,41.05,63.54Zm130.54-2.68a28.84,28.84,0,0,1-20.68,8.75H56.59a34.36,34.36,0,0,0,0-59.59h94.32a28.81,28.81,0,0,1,20.68,8.76,30,30,0,0,1,0,42.08ZM28.37,57.19c-.66.34-1.29.71-2.07,1.16a20.46,20.46,0,0,0,6.85,3.38h.08a2.73,2.73,0,0,0,.68-.23c-1.78-1.49-3.43-2.88-5.09-4.25ZM35,60.65a2,2,0,0,0,1.23-.52c-.94-1.54-1.87-3.08-2.81-4.61L33,55.35c-1.13.37-2.24.78-3.37,1.17,0,.14-.05.27-.07.4,1.42,1.08,2.85,2.15,4.26,3.25A1.89,1.89,0,0,0,35,60.65Zm-.22,1.53a22.44,22.44,0,0,0,4.92.56,22.1,22.1,0,0,0,4.94-.57,7.16,7.16,0,0,0-4.93-1.63C37.64,60.54,35.66,61.13,34.74,62.18Zm16-5a1.12,1.12,0,0,0-.69.33c-1.46,1.23-3,2.39-4.46,3.58a3.92,3.92,0,0,0-.37.44,4.4,4.4,0,0,0,.82.23h.1A20.63,20.63,0,0,0,53,58.32c-.67-.38-1.19-.64-1.67-1A.93.93,0,0,0,50.77,57.15Zm-.94-.63c-1.31-.42-2.38-.79-3.46-1.12H46.3a.58.58,0,0,0-.41.2c-.94,1.5-1.86,3-2.79,4.54a1.77,1.77,0,0,0,1.14.49,1.58,1.58,0,0,0,1-.37c.91-.7,1.88-1.31,2.79-2C48.59,57.77,49.1,57.21,49.83,56.52ZM40.41,59.6a8.27,8.27,0,0,0,1.23.15.71.71,0,0,0,.55-.16c1.09-1.36,2-2.88,3-4.34L45,55l-4.92-.61c0,1.61,0,3,0,4.43C40.11,59.07,40.26,59.58,40.41,59.6Zm-2.27.2a1.52,1.52,0,0,0,.8-.21l.21-.32c0-1.58,0-3.16,0-4.93L34,55c1,1.53,1.82,2.84,2.68,4.11A1.78,1.78,0,0,0,38.14,59.8Zm42.4-40.59a1,1,0,0,1,.86-.46,1,1,0,0,1,.86.36,1.59,1.59,0,0,1,.26,1,2.17,2.17,0,0,1-.29,1,7,7,0,0,1-.93,1.3l-3.15,3.52v1.57h7.11V25.6h-4v0L82.54,24a21.82,21.82,0,0,0,1.86-2.25,3,3,0,0,0,.51-1.74A3,3,0,0,0,84,17.73a3.69,3.69,0,0,0-2.59-.84,3.4,3.4,0,0,0-2.57,1,3.27,3.27,0,0,0-.94,2.45l0,0h2.32A2.05,2.05,0,0,1,80.54,19.21Zm8.58,3.05a9.76,9.76,0,0,0-.74,3.83v1.36h2.37V26.09a10.27,10.27,0,0,1,.61-3.71,12,12,0,0,1,2.23-3.48V17h-7.4V18.9h5.12A12.56,12.56,0,0,0,89.12,22.26Zm9.17,5.34a3.35,3.35,0,0,0,2.58-1.05,4.14,4.14,0,0,0,1-2.92V20.87a4.12,4.12,0,0,0-1-2.92,3.38,3.38,0,0,0-2.59-1.06A3.33,3.33,0,0,0,95.69,18a4.12,4.12,0,0,0-1,2.92v2.76a4.09,4.09,0,0,0,1,2.92A3.36,3.36,0,0,0,98.29,27.6Zm-1.2-6.9a2.77,2.77,0,0,1,.31-1.45,1,1,0,0,1,.87-.5,1,1,0,0,1,.89.5,2.76,2.76,0,0,1,.32,1.45v3.08a2.76,2.76,0,0,1-.32,1.47,1,1,0,0,1-.87.5,1,1,0,0,1-.89-.5,2.77,2.77,0,0,1-.31-1.47Zm9.54,6.9a3.35,3.35,0,0,0,2.57-1.05,4.09,4.09,0,0,0,1-2.92V20.87a4.16,4.16,0,0,0-1-2.92,3.4,3.4,0,0,0-2.59-1.06A3.33,3.33,0,0,0,104,18a4.17,4.17,0,0,0-1,2.92v2.76a4.14,4.14,0,0,0,1,2.92A3.38,3.38,0,0,0,106.63,27.6Zm-1.21-6.9a2.87,2.87,0,0,1,.31-1.45,1,1,0,0,1,1.76,0,2.67,2.67,0,0,1,.32,1.45v3.08a2.77,2.77,0,0,1-.31,1.47,1,1,0,0,1-1.76,0,2.76,2.76,0,0,1-.32-1.47Zm8.89,6.75h2.37V16.89l-4.43.38v1.84h2.06Zm8.14-2h-2.37v2h2.37Zm0-6.26h-2.37v2h2.37Zm3.77,1.23a2.05,2.05,0,0,1,.31-1.18,1.1,1.1,0,0,1,1.71-.1,1.52,1.52,0,0,1,.27,1,2.3,2.3,0,0,1-.29,1,7,7,0,0,1-.93,1.3l-3.15,3.52v1.57h7.11V25.6h-4v0L128.53,24a21.82,21.82,0,0,0,1.86-2.25,3,3,0,0,0,.5-1.74,3,3,0,0,0-.91-2.32,3.69,3.69,0,0,0-2.59-.84,3.4,3.4,0,0,0-2.57,1,3.27,3.27,0,0,0-.94,2.45v0Zm9.72,7.21a3.35,3.35,0,0,0,2.58-1.05,4.14,4.14,0,0,0,1-2.92V20.87a4.12,4.12,0,0,0-1-2.92,3.38,3.38,0,0,0-2.58-1.06A3.33,3.33,0,0,0,133.34,18a4.12,4.12,0,0,0-1,2.92v2.76a4.14,4.14,0,0,0,1,2.92A3.36,3.36,0,0,0,135.94,27.6Zm-1.2-6.9a2.77,2.77,0,0,1,.31-1.45,1,1,0,0,1,.88-.5,1,1,0,0,1,.88.5,2.76,2.76,0,0,1,.32,1.45v3.08a2.87,2.87,0,0,1-.31,1.47,1,1,0,0,1-.88.5,1,1,0,0,1-.89-.5,2.77,2.77,0,0,1-.31-1.47Zm6.82-1.59h2.06v8.34H146V16.89l-4.44.38Zm13.07,3a3,3,0,0,0,1.14-.94,2.16,2.16,0,0,0,.43-1.3,2.64,2.64,0,0,0-1-2.2,4.24,4.24,0,0,0-2.67-.78,3.85,3.85,0,0,0-2.44.78,2.29,2.29,0,0,0-1,2l0,0h2.3a.88.88,0,0,1,.32-.7,1.1,1.1,0,0,1,.76-.27,1.35,1.35,0,0,1,.95.34,1.13,1.13,0,0,1,.35.83,1.21,1.21,0,0,1-1.33,1.32h-1.12V23h1.12a1.61,1.61,0,0,1,1.1.35,1.41,1.41,0,0,1,.39,1.11,1.15,1.15,0,0,1-.41.89,1.56,1.56,0,0,1-1.05.37,1.22,1.22,0,0,1-.88-.34,1.15,1.15,0,0,1-.35-.84H149v0a2.52,2.52,0,0,0,1,2.23,4.2,4.2,0,0,0,2.52.76,4.46,4.46,0,0,0,2.75-.81,2.68,2.68,0,0,0,1.08-2.25,2.5,2.5,0,0,0-.45-1.51A2.67,2.67,0,0,0,154.63,22.11ZM80.87,35.71a1.39,1.39,0,0,1,1.23-.66,1.77,1.77,0,0,1,1.32.42,2,2,0,0,1,.4,1.37h2.31l0,0a3.29,3.29,0,0,0-1-2.69,4.48,4.48,0,0,0-3-.92,3.84,3.84,0,0,0-2.93,1.19,4.33,4.33,0,0,0-1.1,3.08v2.18a4.2,4.2,0,0,0,1.15,3.08,4,4,0,0,0,3,1.18A4.1,4.1,0,0,0,85.14,43a3.35,3.35,0,0,0,1-2.69v0H83.8a2.13,2.13,0,0,1-.36,1.39,1.47,1.47,0,0,1-1.18.41,1.56,1.56,0,0,1-1.35-.65,3,3,0,0,1-.47-1.75V37.45A3.15,3.15,0,0,1,80.87,35.71Zm13.28-.51V33.34H87.44V43.75h6.7V41.89H89.82V39.3h3.6V37.44h-3.6V35.2Zm1.33-1.86V43.75h2.37v-4h1.28a1.5,1.5,0,0,1,1.13.4,1.57,1.57,0,0,1,.38,1.13v.63a6.57,6.57,0,0,0,.09,1,1.15,1.15,0,0,0,.36.78h2.46v-.14a1.25,1.25,0,0,1-.42-.74,4.23,4.23,0,0,1-.12-.93v-.66a2.88,2.88,0,0,0-.41-1.58,2.26,2.26,0,0,0-1.35-.9,3,3,0,0,0,1.23-.95,2.26,2.26,0,0,0,.42-1.38,2.79,2.79,0,0,0-1-2.29A4.35,4.35,0,0,0,99,33.34Zm5,3.28a1.21,1.21,0,0,1-.38,1,1.62,1.62,0,0,1-1.1.33h-1.2V35.2H99a1.49,1.49,0,0,1,1.1.39A1.39,1.39,0,0,1,100.53,36.62Zm10.89-3.28h-7.73V35.2h2.65v8.55h2.38V35.2h2.7Zm1.12,10.41h2.36V33.34h-2.36Zm11-8.55V33.34h-6.84V43.75h2.38V39.56h3.74V37.7h-3.74V35.2Zm3.71-1.86h-2.37V43.75h2.37Zm8.48,8.55h-4.32V39.3H135V37.44h-3.6V35.2h4.33V33.34H129V43.75h6.7Zm5.08-8.55H137V43.75h3.75A4.12,4.12,0,0,0,145,39.48V37.61a4.14,4.14,0,0,0-4.24-4.27Zm1.86,6.14a2.75,2.75,0,0,1-.53,1.74,1.61,1.61,0,0,1-1.33.67h-1.37V35.2h1.37a1.63,1.63,0,0,1,1.33.67,2.74,2.74,0,0,1,.53,1.73ZM78.79,54.14V49H78.1v5.17Zm4.23,0V51.71a1.63,1.63,0,0,0-.33-1.12,1.24,1.24,0,0,0-1-.36,1.22,1.22,0,0,0-.64.17,1.43,1.43,0,0,0-.48.47l-.05-.57H80v3.84h.69V51.29a.81.81,0,0,1,.35-.36,1,1,0,0,1,.54-.13.78.78,0,0,1,.6.21,1.05,1.05,0,0,1,.19.72v2.41Zm1.29,0H85V50.82h.69V50.3H85v-.49a.84.84,0,0,1,.15-.53.55.55,0,0,1,.45-.18h.18l.15,0L86,48.6l-.27-.05-.24,0a1.15,1.15,0,0,0-.88.33,1.34,1.34,0,0,0-.31,1v.49h-.59v.52h.59Zm5.28-1.88v-.08a2.09,2.09,0,0,0-.46-1.4,1.5,1.5,0,0,0-1.24-.55,1.52,1.52,0,0,0-1.23.55,2.16,2.16,0,0,0-.45,1.4v.08a2.12,2.12,0,0,0,.46,1.41,1.52,1.52,0,0,0,1.23.54,1.55,1.55,0,0,0,1.24-.54A2.17,2.17,0,0,0,89.59,52.26Zm-.69,0a1.85,1.85,0,0,1-.25,1,.9.9,0,0,1-1.5,0,1.85,1.85,0,0,1-.25-1v-.08a1.83,1.83,0,0,1,.25-1,.82.82,0,0,1,.74-.4.85.85,0,0,1,.76.4,1.83,1.83,0,0,1,.25,1Zm3.41-2-.12,0h-.14a.83.83,0,0,0-.54.17,1.3,1.3,0,0,0-.4.46L91,50.3h-.61v3.84h.69V51.4A.81.81,0,0,1,91.4,51a.78.78,0,0,1,.46-.13l.36,0Zm4.41.53a.72.72,0,0,1,.58.23,1.38,1.38,0,0,1,.19.81v2.3h.69v-2.3a1.88,1.88,0,0,0-.34-1.21,1.11,1.11,0,0,0-.91-.4,1.18,1.18,0,0,0-.68.19,1.32,1.32,0,0,0-.47.52,1,1,0,0,0-.41-.53,1.15,1.15,0,0,0-.65-.18,1.4,1.4,0,0,0-.66.15,1.35,1.35,0,0,0-.47.42l0-.5h-.61v3.84h.69V51.3a.76.76,0,0,1,.31-.37.88.88,0,0,1,.51-.13.67.67,0,0,1,.57.25,1.27,1.27,0,0,1,.2.79v2.3h.69V51.67a1.05,1.05,0,0,1,.25-.62A.72.72,0,0,1,96.72,50.8ZM100.91,54a1.65,1.65,0,0,0,.51-.47l0,.27,0,.31h.71l-.08-.38c0-.12,0-.26,0-.39V51.52a1.19,1.19,0,0,0-.39-1,1.78,1.78,0,0,0-2.09,0,.9.9,0,0,0-.38.76v0h.65a.51.51,0,0,1,.21-.41.8.8,0,0,1,.54-.17.74.74,0,0,1,.57.2.69.69,0,0,1,.21.53v.38h-.75a2,2,0,0,0-1.19.31,1,1,0,0,0-.44.86,1.18,1.18,0,0,0,.31.85,1.41,1.41,0,0,0,1.56.12Zm-1.18-1a.64.64,0,0,1,.25-.5,1,1,0,0,1,.66-.21h.78V53a1,1,0,0,1-.4.44,1.2,1.2,0,0,1-.67.2.64.64,0,0,1-.46-.15A.53.53,0,0,1,99.73,53.07Zm4.85,1.1.22-.1-.09-.48-.12,0-.13,0-.3-.11a.54.54,0,0,1-.1-.38V50.82h.71V50.3h-.71v-.93h-.69v.93h-.6v.52h.6v2.33a1.12,1.12,0,0,0,.25.81.86.86,0,0,0,.66.25Zm1,0h.69V50.3h-.69Zm.69-5.54h-.69v.72h.69Zm1.35,2.18a2.16,2.16,0,0,0-.46,1.4v.08a2.17,2.17,0,0,0,.46,1.41,1.54,1.54,0,0,0,1.24.54,1.52,1.52,0,0,0,1.23-.54,2.17,2.17,0,0,0,.45-1.41v-.08a2.14,2.14,0,0,0-.45-1.4,1.51,1.51,0,0,0-1.24-.55A1.49,1.49,0,0,0,107.6,50.78Zm2.24,1.4v.08a1.85,1.85,0,0,1-.26,1,.84.84,0,0,1-.74.4.85.85,0,0,1-.76-.4,1.94,1.94,0,0,1-.25-1v-.08a1.92,1.92,0,0,1,.25-1,.9.9,0,0,1,1.5,0A1.83,1.83,0,0,1,109.84,52.18Zm4.59,2V51.71a1.58,1.58,0,0,0-.34-1.12,1.22,1.22,0,0,0-.94-.36,1.29,1.29,0,0,0-.65.17,1.32,1.32,0,0,0-.47.47l0-.57h-.61v3.84h.68V51.29a.87.87,0,0,1,.35-.36,1,1,0,0,1,.54-.13.78.78,0,0,1,.6.21,1.05,1.05,0,0,1,.2.72v2.41Zm4.69-2.88a2.45,2.45,0,0,1-.91-.39.69.69,0,0,1-.28-.57.78.78,0,0,1,.25-.61,1.21,1.21,0,0,1,1.51.05,1,1,0,0,1,.3.72h.66v0a1.44,1.44,0,0,0-.46-1.08,1.76,1.76,0,0,0-1.28-.46,1.81,1.81,0,0,0-1.22.4,1.28,1.28,0,0,0-.46,1,1.22,1.22,0,0,0,.43,1,2.9,2.9,0,0,0,1.21.57,2,2,0,0,1,.87.41.76.76,0,0,1,.25.59.75.75,0,0,1-.28.6,1.23,1.23,0,0,1-.78.23,1.34,1.34,0,0,1-.82-.27.86.86,0,0,1-.36-.75h-.65v0a1.28,1.28,0,0,0,.54,1.12,2.13,2.13,0,0,0,1.3.42,1.93,1.93,0,0,0,1.26-.38,1.18,1.18,0,0,0,.49-1,1.32,1.32,0,0,0-.4-1A2.58,2.58,0,0,0,119.12,51.26Zm3.9-1a1.48,1.48,0,0,0-1.15.54,2,2,0,0,0-.47,1.37v.15a2.11,2.11,0,0,0,.46,1.4,1.59,1.59,0,0,0,1.27.52,2.13,2.13,0,0,0,.8-.13,1.79,1.79,0,0,0,.53-.34l-.27-.45a1.44,1.44,0,0,1-.45.28,1.9,1.9,0,0,1-.61.1.87.87,0,0,1-.77-.36,1.6,1.6,0,0,1-.25-.94v0h2.41V52a1.94,1.94,0,0,0-.38-1.27A1.35,1.35,0,0,0,123,50.23Zm.83,1.57h-1.71v0a1.3,1.3,0,0,1,.29-.72.8.8,0,0,1,1.21,0,1.11,1.11,0,0,1,.21.69Zm2.22-.62a.77.77,0,0,1,.73-.4.72.72,0,0,1,.57.25.84.84,0,0,1,.23.59h.62v0a1.25,1.25,0,0,0-.39-1,1.41,1.41,0,0,0-1-.4,1.46,1.46,0,0,0-1.22.55,2.13,2.13,0,0,0-.44,1.36v.15a2.12,2.12,0,0,0,.44,1.37,1.58,1.58,0,0,0,2.23.17,1.11,1.11,0,0,0,.42-.88v0h-.62a.67.67,0,0,1-.24.52.78.78,0,0,1-.56.22.8.8,0,0,1-.74-.4,2,2,0,0,1-.23-1v-.15A1.82,1.82,0,0,1,126.07,51.18Zm5.34,1.89a.93.93,0,0,1-.36.42,1,1,0,0,1-.6.15.65.65,0,0,1-.56-.23,1.42,1.42,0,0,1-.17-.84V50.3H129v2.26a1.89,1.89,0,0,0,.34,1.25,1.37,1.37,0,0,0,1.61.24,1.33,1.33,0,0,0,.46-.48l0,.57h.62V50.3h-.69Zm3.31-2.84a.85.85,0,0,0-.54.17,1.3,1.3,0,0,0-.4.46l-.06-.56h-.62v3.84h.69V51.4a.83.83,0,0,1,.29-.37.74.74,0,0,1,.46-.13l.35,0,.09-.65-.11,0Zm.94,3.91h.69V50.3h-.69Zm0-4.82h.69V48.6h-.69Zm3.23,4.3-.13,0-.29-.11a.49.49,0,0,1-.11-.38V50.82h.71V50.3h-.71v-.93h-.69v.93h-.6v.52h.6v2.33a1.12,1.12,0,0,0,.25.81.87.87,0,0,0,.66.25l.3,0,.23-.1-.1-.48Zm2.22-.42h0l-.13-.48-.79-2.42h-.77l1.4,3.76-.16.4a2,2,0,0,1-.23.44.45.45,0,0,1-.36.2h-.31l-.07.55.2,0,.21,0a1,1,0,0,0,.72-.29,1.84,1.84,0,0,0,.41-.67l1.59-4.43H142ZM80.57,61.89h0l-1.61-4.2H78v5.17h.69v-4h0l1.59,4h.47L82.34,59h0v3.87h.69V57.69H82.2Zm6.5.19V60.24a1.19,1.19,0,0,0-.39-1,1.53,1.53,0,0,0-1-.33,1.61,1.61,0,0,0-1.06.35.9.9,0,0,0-.38.76v0h.66a.53.53,0,0,1,.2-.41.8.8,0,0,1,.54-.17.77.77,0,0,1,.58.2.72.72,0,0,1,.2.53v.38h-.75a2,2,0,0,0-1.19.31,1,1,0,0,0-.43.86,1.18,1.18,0,0,0,.3.85,1.25,1.25,0,0,0,.9.3,1.32,1.32,0,0,0,.67-.18,1.73,1.73,0,0,0,.5-.47l0,.27,0,.31h.71l-.07-.38A2.6,2.6,0,0,1,87.07,62.08Zm-.68-.37a.94.94,0,0,1-.39.44,1.23,1.23,0,0,1-.68.2.64.64,0,0,1-.46-.15.57.57,0,0,1-.16-.41.68.68,0,0,1,.25-.5,1,1,0,0,1,.67-.21h.77ZM89.85,59a1.25,1.25,0,0,0-.64.17,1.43,1.43,0,0,0-.48.47l0-.57h-.62v3.84h.69V60a.81.81,0,0,1,.35-.36,1,1,0,0,1,.54-.13.78.78,0,0,1,.6.21,1.05,1.05,0,0,1,.2.72v2.41h.68V60.43a1.63,1.63,0,0,0-.33-1.12A1.23,1.23,0,0,0,89.85,59Zm5.21,3.13V60.24a1.19,1.19,0,0,0-.39-1,1.53,1.53,0,0,0-1-.33,1.59,1.59,0,0,0-1.06.35.94.94,0,0,0-.39.76v0h.65a.51.51,0,0,1,.21-.41.8.8,0,0,1,.54-.17.74.74,0,0,1,.57.2.69.69,0,0,1,.2.53v.38h-.74a2,2,0,0,0-1.19.31,1,1,0,0,0-.44.86,1.18,1.18,0,0,0,.31.85,1.41,1.41,0,0,0,1.56.12,1.51,1.51,0,0,0,.5-.47l0,.27,0,.31h.71l-.08-.38C95.07,62.35,95.06,62.22,95.06,62.08Zm-.69-.37a.94.94,0,0,1-.39.44,1.2,1.2,0,0,1-.67.2.64.64,0,0,1-.46-.15.53.53,0,0,1-.16-.41.64.64,0,0,1,.25-.5,1,1,0,0,1,.66-.21h.77Zm4.13-2.19A1.23,1.23,0,0,0,98,59.1a1.28,1.28,0,0,0-.63-.15,1.23,1.23,0,0,0-1.08.57A2.57,2.57,0,0,0,95.94,61v.07a2.13,2.13,0,0,0,.39,1.34,1.25,1.25,0,0,0,1.07.51,1.4,1.4,0,0,0,.6-.12,1.2,1.2,0,0,0,.44-.37v.44a1,1,0,0,1-.22.71,1,1,0,0,1-.74.23,2.13,2.13,0,0,1-.55-.07,1.92,1.92,0,0,1-.48-.17l-.1.54a2.1,2.1,0,0,0,.55.21,2.6,2.6,0,0,0,.59.08,1.69,1.69,0,0,0,1.22-.4,1.47,1.47,0,0,0,.42-1.13V59h-.55Zm-.06,2.3a1,1,0,0,1-.34.4.86.86,0,0,1-.52.14.78.78,0,0,1-.72-.35,1.6,1.6,0,0,1-.24-.93V61a2.16,2.16,0,0,1,.24-1.08.78.78,0,0,1,.73-.41.85.85,0,0,1,.51.14,1.07,1.07,0,0,1,.34.39ZM101.57,59a1.45,1.45,0,0,0-1.14.54,2,2,0,0,0-.47,1.37V61a2.06,2.06,0,0,0,.45,1.39,1.58,1.58,0,0,0,1.27.53,2.13,2.13,0,0,0,.8-.13,1.62,1.62,0,0,0,.53-.34l-.27-.45a1.28,1.28,0,0,1-.45.28,1.85,1.85,0,0,1-.61.1.88.88,0,0,1-.77-.36,1.68,1.68,0,0,1-.25-.94v0h2.42V60.7a2,2,0,0,0-.38-1.27A1.36,1.36,0,0,0,101.57,59Zm.83,1.57h-1.7v0a1.3,1.3,0,0,1,.29-.72.72.72,0,0,1,.59-.28.75.75,0,0,1,.63.27,1.17,1.17,0,0,1,.2.69ZM107.86,59a1.23,1.23,0,0,0-.69.19,1.4,1.4,0,0,0-.47.52,1,1,0,0,0-.4-.53,1.15,1.15,0,0,0-.65-.18,1.4,1.4,0,0,0-.66.15,1.27,1.27,0,0,0-.47.42l0-.5h-.61v3.84h.68V60a.88.88,0,0,1,.31-.37.93.93,0,0,1,.52-.13.67.67,0,0,1,.57.25,1.28,1.28,0,0,1,.19.79v2.3h.69V60.39a1.19,1.19,0,0,1,.26-.63.75.75,0,0,1,.57-.24.72.72,0,0,1,.57.23,1.3,1.3,0,0,1,.19.81v2.3h.69v-2.3a1.88,1.88,0,0,0-.33-1.21A1.13,1.13,0,0,0,107.86,59Zm3.69,0a1.45,1.45,0,0,0-1.14.54,2,2,0,0,0-.47,1.37V61a2.06,2.06,0,0,0,.45,1.39,1.58,1.58,0,0,0,1.27.53,2.13,2.13,0,0,0,.8-.13,1.62,1.62,0,0,0,.53-.34l-.26-.45a1.42,1.42,0,0,1-.46.28,1.85,1.85,0,0,1-.61.1.88.88,0,0,1-.77-.36,1.68,1.68,0,0,1-.25-.94v0h2.42V60.7a2,2,0,0,0-.38-1.27A1.36,1.36,0,0,0,111.55,59Zm.83,1.57h-1.7v0a1.38,1.38,0,0,1,.29-.72.73.73,0,0,1,.59-.28.75.75,0,0,1,.63.27,1.17,1.17,0,0,1,.2.69ZM115.62,59a1.29,1.29,0,0,0-.65.17,1.32,1.32,0,0,0-.47.47l0-.57h-.61v3.84h.68V60a.93.93,0,0,1,.35-.36,1,1,0,0,1,.54-.13.82.82,0,0,1,.61.21,1.05,1.05,0,0,1,.19.72v2.41h.69V60.43a1.58,1.58,0,0,0-.34-1.12A1.21,1.21,0,0,0,115.62,59Zm3.77,3.39-.14,0-.29-.11a.54.54,0,0,1-.11-.38V59.54h.72V59h-.72v-.93h-.69V59h-.59v.52h.59v2.33a1.17,1.17,0,0,0,.25.81.9.9,0,0,0,.67.25l.3,0,.22-.1-.09-.48Z" transform="translate(-6.86 -5.75)"/></svg>