<svg id="Layer_1" data-name="Layer 1" xmlns="http://www.w3.org/2000/svg" viewBox="0 0 46 56.21"><title>lock-pictogram</title><path d="M315,223.52v23.86a1,1,0,0,0-.05.16,3.78,3.78,0,0,1-2.73,3.09l-.55.13H272.33l-.16,0a3.77,3.77,0,0,1-3-2.75c-.06-.19-.1-.39-.14-.58V223.52a1,1,0,0,0,.05-.16,3.78,3.78,0,0,1,3.89-3.25h1.17v-.37c0-2.52,0-5,0-7.57a17.42,17.42,0,0,1,.59-4.42,17.76,17.76,0,0,1,5.76-8.93,16.78,16.78,0,0,1,8.68-4c.6-.09,1.21-.14,1.82-.21H293l.34.05a16.64,16.64,0,0,1,5.68,1.36,18,18,0,0,1,10.84,16.66v7.47h1.26a3.83,3.83,0,0,1,3.71,2.78C314.91,223.09,315,223.31,315,223.52Zm-12.8-3.43a2.12,2.12,0,0,0,0-.24c0-2.48,0-5,0-7.45a10.07,10.07,0,0,0-.27-2.39,10.19,10.19,0,0,0-15.53-6.12,9.75,9.75,0,0,0-4.61,8.43c0,2.52,0,5.05,0,7.57,0,.07,0,.13,0,.2Z" transform="translate(-269 -194.56)"/></svg>