<svg width="76" height="75" viewBox="0 0 76 75" fill="none" xmlns="http://www.w3.org/2000/svg">
<path fill-rule="evenodd" clip-rule="evenodd" d="M30.5181 65.9943C30.95 67.9335 32.9782 69.6518 35.144 69.9183C37.905 69.8896 39.9057 67.8707 39.9057 65.106C39.9057 62.3173 37.8788 60.2934 35.0857 60.2934C33.2063 60.2934 31.8453 60.9625 30.9251 62.3396L30.5318 62.9283L29.8391 62.7846C22.8169 61.3228 16.912 55.8876 14.7946 48.9384L14.7489 48.7876L14.7494 25.9809C15.0449 14.7647 23.9777 5.975 35.0857 5.975C40.3195 5.975 45.2562 7.96395 48.9865 11.5757C52.6599 15.1321 54.8434 19.9292 55.1373 25.0858L55.1426 25.1612V47.5545C60.9672 47.1642 65.6193 42.3668 65.6193 36.6244C65.6193 32.1943 62.9692 28.2836 58.7028 26.4187L58.1051 26.1565L58.0739 25.5026C57.5392 12.9119 47.4416 3.05124 35.0857 3.05124C22.4622 3.05124 12.3641 12.9019 12.0962 25.4776L12.0812 26.1898L11.4143 26.4398C7.30849 27.978 4.54953 32.0707 4.54953 36.6244C4.54953 40.944 7.16392 44.9542 11.2101 46.8407L11.685 47.0614L11.7942 47.5747C13.6319 56.2319 20.832 63.3126 29.7108 65.1943L30.3715 65.3346L30.5181 65.9943ZM35.0854 70.9698L35.054 70.9661C32.4178 70.6591 30.0275 68.6197 29.4938 66.2229L29.4933 66.2226C20.2154 64.2563 12.6902 56.8503 10.7678 47.7936C6.35263 45.7355 3.5 41.3511 3.5 36.6244C3.5 31.6347 6.53289 27.1462 11.0469 25.4553C11.3269 12.3027 21.8863 2 35.0857 2C41.411 2 47.3545 4.41706 51.821 8.80599C56.2587 13.1665 58.8516 19.0792 59.1224 25.4553L59.1232 25.4555C63.7773 27.49 66.6688 31.7698 66.6688 36.6244C66.6688 43.1098 61.2674 48.4951 54.6283 48.6288L54.093 48.6396L54.0912 25.1762C53.5268 14.9986 45.1788 7.02624 35.0857 7.02624C24.551 7.02624 16.0789 15.3663 15.7984 26.0135L15.7987 48.6322C17.7747 55.1176 23.5031 60.3919 30.0527 61.7554L30.0529 61.7549C31.1673 60.0873 32.8604 59.2421 35.0857 59.2421C38.4319 59.2421 40.9552 61.763 40.9552 65.106C40.9552 68.4329 38.4455 70.954 35.1172 70.9698H35.0854Z" fill="#FEFEFE"/>
<path fill-rule="evenodd" clip-rule="evenodd" d="M60.0447 53.0923V53.2365H60.1888H60.4333C66.4424 53.2365 71.4581 48.5049 71.4581 42.5186C71.4581 38.0595 68.7372 34.3431 64.7781 32.5862C64.2368 20.9971 55.0463 11.8823 43.3737 11.8823C31.7099 11.8823 22.2699 20.9911 21.9705 32.582C18.0059 34.105 15.2924 38.0677 15.2924 42.5186C15.2924 46.9809 18.0185 50.6996 21.7391 52.455C23.4994 60.565 30.1637 66.951 38.312 68.7063C38.8591 70.9447 41.1135 72.6595 43.3595 72.9079L43.3679 72.9087H43.3737C46.4199 72.9087 48.7119 70.632 48.7119 67.6004C48.7119 64.5692 46.4199 62.2922 43.3737 62.2922C41.3929 62.2922 39.8785 63.0223 38.8591 64.4888C33.0287 63.2423 28.1712 58.6383 26.4581 53.0707V33.176C26.7058 23.9096 34.0593 16.5969 43.3737 16.5969C52.4435 16.5969 59.5525 23.6638 60.0447 32.4406V53.0923Z" fill="#0D0E0E"/>
<path fill-rule="evenodd" clip-rule="evenodd" d="M43.3734 12.0135C31.7433 12.0135 22.399 21.0495 22.1012 32.585L22.0988 32.6728L22.0167 32.7043C18.0728 34.2194 15.4233 38.1632 15.4233 42.5182C15.4233 46.72 17.8645 50.4819 21.7945 52.3357L21.853 52.3633L21.8666 52.4266C23.5831 60.3343 30.2028 66.825 38.339 68.5776L38.4193 68.5947L38.4387 68.6749C38.9483 70.7587 41.0697 72.5222 43.3734 72.7771C46.3417 72.7771 48.5804 70.5516 48.5804 67.6003C48.5804 64.6489 46.3417 62.4234 43.3734 62.4234C41.436 62.4234 39.9532 63.1435 38.9661 64.5635L38.9165 64.6352L38.831 64.6168C33.0061 63.3716 28.1001 58.8545 26.3324 53.1092L26.3263 53.0703V33.1758C26.5767 23.8037 34.0646 16.465 43.3734 16.465C47.7576 16.465 51.8925 18.1228 55.0164 21.1325C58.101 24.1046 59.9332 28.1178 60.1751 32.4331L60.1754 53.105H60.433C66.4395 53.105 71.3264 48.3557 71.3264 42.5182C71.3264 38.273 68.797 34.5132 64.7248 32.7062L64.6506 32.6733L64.6469 32.5921C64.0988 20.8605 54.9532 12.0135 43.3734 12.0135ZM43.3734 73.0399L43.3453 73.0383C40.966 72.7752 38.7725 70.9679 38.2044 68.8171C30.0275 67.0229 23.3777 60.4978 21.6242 52.5457C17.6357 50.6382 15.1609 46.8017 15.1609 42.5182C15.1609 38.0856 17.8417 34.0675 21.8414 32.4909C22.188 20.8537 31.6291 11.7507 43.3734 11.7507C49.027 11.7507 54.3429 13.8971 58.3413 17.7941C62.2928 21.6453 64.622 26.8649 64.9051 32.4991C69.03 34.3613 71.5888 38.1934 71.5888 42.5182C71.5888 48.5005 66.5843 53.3678 60.433 53.3678H59.913V32.4405C59.4187 23.6329 52.1538 16.7278 43.3734 16.7278C34.2078 16.7278 26.8354 23.9543 26.5887 33.1792V53.0503C28.3254 58.67 33.1113 63.092 38.8014 64.3417C39.8401 62.8944 41.378 62.1606 43.3734 62.1606C46.4916 62.1606 48.8428 64.4991 48.8428 67.6003C48.8428 70.7014 46.4916 73.0399 43.3734 73.0399Z" fill="#1D1D1F"/>
</svg>
