<svg id="Layer_1" data-name="Layer 1" xmlns="http://www.w3.org/2000/svg" viewBox="0 0 157 32"><title>macpaw-logo</title><path d="M369.11,294.39a3.69,3.69,0,0,0-4.2,2.51,13.75,13.75,0,0,0-.31,2,7.31,7.31,0,0,1-5.25,6.33,7.54,7.54,0,0,1-8-2.27c-3.33-3.95-2.08-9.44,2.69-11.89,2.17-1.11,3-3.18,2-5.16a3.75,3.75,0,0,0-5.24-1.55c-5.63,2.79-8.5,7.37-8.72,13.61a15.06,15.06,0,0,0,30.12.22A3.78,3.78,0,0,0,369.11,294.39Zm27.53-5c-.78,2-1.55,4.07-2.33,6.1-.46,1.2-.93,2.39-1.49,3.8-.21-.51-.34-.79-.45-1.08l-3.93-10.14c-.79-2.05-.78-2.05-3-2a2.12,2.12,0,0,0-2.46,2.26c-.35,3.94-.71,7.89-1,11.83-.21,2.63-.39,5.27-.59,8h4.28c.37-4.56.75-9.05,1.12-13.54,1.19,2.39,2.17,4.8,3.15,7.21,1.09,2.66,1.09,2.64,4,2.64a1.09,1.09,0,0,0,1.18-.81c1.13-2.87,2.31-5.72,3.47-8.57.1-.23.23-.44.47-.92.16,2.42.31,4.52.45,6.62s.28,4.35.49,6.53c0,.32.39.84.64.86,1.18.09,2.38,0,3.71,0-.59-7.42-1.18-14.72-1.76-22C398.81,285.65,397.91,286.16,396.64,289.43Zm100.08,2.75a2.35,2.35,0,0,0-2.54,1.93c-.24.79-.42,1.61-.63,2.41l-1.68,6.37-.21,0q-1.49-5.33-3-10.67h-.77c-2.55,0-3.07.37-3.75,2.84q-.9,3.3-1.81,6.6c-.11.42-.28.83-.5,1.46-1-3.78-1.91-7.31-2.85-10.92h-1.78c-2,0-2.48.7-1.92,2.57,1.2,4,2.45,8,3.56,12,.33,1.16.83,1.6,2,1.45,1-.12,2.29.27,3-.23s.7-1.81,1-2.78c.66-2.18,1.29-4.36,2-6.82,1,3.45,1.93,6.59,2.88,9.81,1.2,0,2.37,0,3.53,0a1.13,1.13,0,0,0,1.37-1c1.35-4.67,2.77-9.31,4.16-14a10.35,10.35,0,0,0,.23-1.07Zm-45.4-6.07c-2.55-.13-5.1,0-7.66,0a1.74,1.74,0,0,0-1.78,1.47,7.94,7.94,0,0,0-.15,1.62c0,5.93,0,11.85,0,17.78,0,.38,0,.77,0,1.18h4.29V300.7h3.67c4.66,0,7.32-2.52,7.58-7.16C457.53,289.7,454.85,286.28,451.32,286.11Zm1.64,7.51c-.22,2-1.25,3.13-3,3.19-1.23,0-2.47,0-3.81,0v-7.07a39.74,39.74,0,0,1,4.57.29A3,3,0,0,1,453,293.62Zm-36.29-1.56a10.26,10.26,0,0,0-7.11.93c-.52.26-1.38.86-1.32,1.05a3.4,3.4,0,0,0,1.25,1.8,3.59,3.59,0,0,0,2.05.13c1-.1,2.06-.46,3.09-.47,1.39,0,2.12.95,2,2.43a18.6,18.6,0,0,0-2.36.18,25.94,25.94,0,0,0-4.11,1,4.41,4.41,0,0,0-2.88,3.06,5.09,5.09,0,0,0,6.24,6.27,19,19,0,0,0,3.55-1.56c0,.26,0,.72.07,1.24H421c0-3.57.13-7,0-10.46C420.83,294.54,419.26,292.68,416.67,292.06Zm-3.47,13a1.7,1.7,0,0,1-1.74-1.36,1.52,1.52,0,0,1,1-1.94c1.37-.4,2.79-.61,4.36-.94C416.55,303.75,415.14,305.24,413.2,305.09Zm54.63-13.15a10.31,10.31,0,0,0-6.46,1.06c-.53.27-1.51.31-1.29,1.31a2.5,2.5,0,0,0,2.48,1.89c.42-.07.83-.29,1.25-.36a13.66,13.66,0,0,1,2.68-.34,2,2,0,0,1,2,2.42c-.71.05-1.44.06-2.15.17a24.14,24.14,0,0,0-3.62.71,5,5,0,0,0-3.52,3.15,5.1,5.1,0,0,0,6.16,6.49,18.74,18.74,0,0,0,3.49-1.5c0,.25.06.69.1,1.24h3.23c.17,0,.35,0,.55-.05,0-3.87.19-7.68-.06-11.47C472.45,294,470.53,292.4,467.83,291.94Zm-2.66,13.16a1.74,1.74,0,0,1-1.86-1.33,1.59,1.59,0,0,1,1.14-2.06c1.3-.38,2.65-.53,4.11-.81C468.59,303.43,467.06,305.17,465.17,305.1Zm-29.77-.8a9.06,9.06,0,0,1-1.23.45,4.5,4.5,0,0,1-5.44-2.87,4.57,4.57,0,0,1,1.11-5.11A4.34,4.34,0,0,1,435,296c1.75.76,2.61.48,3.49-.95a.89.89,0,0,0-.21-1.38,9,9,0,0,0-4.48-1.83A8.46,8.46,0,0,0,424.25,302a7.66,7.66,0,0,0,5.89,6.19,9.11,9.11,0,0,0,9.13-2.29C438.3,303.77,437.42,303.42,435.4,304.3Zm-78.2-18.18c0,.35.55.91.95,1,.64.19,1.8-.93,1.64-1.53-.08-.31-.5-.53-.67-.7C358.12,285.09,357.21,285.13,357.2,286.12Zm-.33-1.36c.63.15,1.67-.87,1.56-1.47-.06-.31-.44-.57-.54-.69-1.31,0-2.2.53-2,1.18A1.64,1.64,0,0,0,356.87,284.76Zm-2.46-1.35a5,5,0,0,0,1.34-1.21c.06-.08-.38-.55-.8-1.12a10.64,10.64,0,0,0-1.4,1.45C353.49,282.62,354.31,283.46,354.41,283.41Zm2.6,5.53c0,.31.69.88.86.82a8,8,0,0,0,1.58-1l-.06-.44c-.35-.15-.7-.43-1-.41C357.7,287.9,357,288.09,357,288.94Z" transform="translate(-342.02 -281.08)"/></svg>