<svg width="92" height="71" viewBox="0 0 92 71" fill="none" xmlns="http://www.w3.org/2000/svg">
<g clip-path="url(#clip0_1_532)">
<path d="M17.2769 69.902V65.2606C17.3038 64.8704 17.2472 64.4789 17.1108 64.1123C16.9744 63.7457 16.7614 63.4124 16.486 63.1347C16.2105 62.857 15.8791 62.6411 15.5136 62.5017C15.1482 62.3622 14.7572 62.3023 14.3668 62.3259C13.8553 62.294 13.3446 62.3989 12.8871 62.6298C12.4295 62.8607 12.0418 63.2093 11.7637 63.6398C11.5113 63.2193 11.1496 62.8751 10.7172 62.6437C10.2848 62.4124 9.79775 62.3026 9.30789 62.3259C8.88076 62.305 8.45557 62.3959 8.07438 62.5897C7.69319 62.7835 7.36919 63.0735 7.1345 63.431V62.5101H5.52596V69.8775H7.14679V65.7763C7.11155 65.5233 7.13315 65.2656 7.21001 65.022C7.28686 64.7783 7.41705 64.5549 7.5911 64.3679C7.76515 64.1809 7.97871 64.0351 8.21621 63.941C8.45371 63.8469 8.70919 63.8069 8.96408 63.824C10.0323 63.824 10.5726 64.5116 10.5726 65.764V69.8775H12.218V65.7763C12.1853 65.5248 12.2082 65.2691 12.2852 65.0275C12.3623 64.7858 12.4914 64.564 12.6636 64.3777C12.8358 64.1915 13.0468 64.0453 13.2817 63.9496C13.5166 63.854 13.7697 63.8111 14.023 63.824C15.1281 63.824 15.6561 64.5116 15.6561 65.764V69.8775L17.2769 69.902ZM41.3559 62.5347H38.7159V60.2999H37.0951V62.5347H35.5479V64.0081H37.0582V67.3726C37.0582 69.0916 37.7213 70.1108 39.6245 70.1108C40.3369 70.1132 41.0353 69.913 41.6382 69.5337L41.1716 68.1584C40.7407 68.4178 40.2501 68.5616 39.7473 68.5759C38.9492 68.5759 38.679 68.0847 38.679 67.348V64.0081H41.319L41.3559 62.5347ZM55.096 62.3505C54.7033 62.3373 54.3143 62.4308 53.9705 62.6211C53.6267 62.8113 53.3409 63.0913 53.1436 63.431V62.5347H51.5105V69.902H53.119V65.764C53.119 64.5361 53.647 63.8608 54.703 63.8608C55.0472 63.8584 55.3888 63.9208 55.7099 64.045L56.2011 62.5347C55.8359 62.3974 55.4492 62.3268 55.0591 62.3259M34.2832 63.0995C33.3699 62.5609 32.3224 62.2926 31.2626 62.3259C29.3839 62.3259 28.1806 63.2223 28.1806 64.6958C28.1806 65.9237 29.0769 66.6358 30.7346 66.8691L31.4959 66.9796C32.38 67.1024 32.7975 67.3357 32.7975 67.7532C32.7975 68.1707 32.2081 68.6496 31.103 68.6496C30.2206 68.6758 29.3552 68.4032 28.6472 67.876L27.8859 69.1039C28.8267 69.7526 29.9482 70.0877 31.0907 70.0616C33.2272 70.0616 34.4674 69.0548 34.4674 67.6059C34.4674 66.1569 33.4973 65.6167 31.8765 65.3957L31.1275 65.2852C30.4276 65.1869 29.8996 65.0518 29.8996 64.5607C29.8996 64.0695 30.4276 63.6889 31.3117 63.6889C32.1234 63.6989 32.9186 63.9189 33.6201 64.3274L34.2832 63.0995ZM77.4436 62.3259C77.0508 62.3127 76.6619 62.4063 76.3181 62.5965C75.9743 62.7868 75.6886 63.0667 75.4912 63.4065V62.5101H73.895V69.8775H75.5035V65.7395C75.5035 64.5116 76.0315 63.8362 77.0875 63.8362C77.4317 63.8338 77.7733 63.8963 78.0943 64.0204L78.5855 62.5101C78.2204 62.3729 77.8336 62.3022 77.4436 62.3014M56.6799 66.1815C56.6603 66.7026 56.7497 67.2221 56.9424 67.7067C57.1352 68.1913 57.427 68.6302 57.7992 68.9955C58.1714 69.3607 58.6158 69.6443 59.1039 69.8279C59.592 70.0114 60.1131 70.0911 60.6337 70.0616C61.6013 70.111 62.5522 69.7956 63.2983 69.1776L62.5247 67.876C61.9685 68.3043 61.2866 68.5374 60.5846 68.5391C59.9594 68.5391 59.3597 68.2907 58.9176 67.8486C58.4754 67.4064 58.2271 66.8068 58.2271 66.1815C58.2271 65.5562 58.4754 64.9566 58.9176 64.5145C59.3597 64.0723 59.9594 63.824 60.5846 63.824C61.2866 63.8257 61.9685 64.0587 62.5247 64.487L63.2983 63.1854C62.5522 62.5674 61.6013 62.2519 60.6337 62.3014C60.1131 62.2719 59.592 62.3516 59.1039 62.5351C58.6158 62.7187 58.1714 63.0023 57.7992 63.3675C57.427 63.7328 57.1352 64.1718 56.9424 64.6563C56.7497 65.1409 56.6603 65.6604 56.6799 66.1815ZM71.7707 66.1815V62.4978H70.1622V63.3942C69.8853 63.0406 69.5281 62.7581 69.1203 62.5702C68.7124 62.3823 68.2656 62.2943 67.8169 62.3136C66.7878 62.3136 65.8009 62.7224 65.0732 63.4501C64.3455 64.1778 63.9368 65.1647 63.9368 66.1938C63.9368 67.2229 64.3455 68.2098 65.0732 68.9375C65.8009 69.6651 66.7878 70.0739 67.8169 70.0739C68.2656 70.0933 68.7124 70.0053 69.1203 69.8174C69.5281 69.6295 69.8853 69.347 70.1622 68.9934V69.8898H71.7707V66.1815ZM65.7786 66.1815C65.8026 65.7461 65.9534 65.3272 66.2126 64.9764C66.4717 64.6257 66.8278 64.3584 67.237 64.2075C67.6461 64.0567 68.0905 64.0288 68.5153 64.1275C68.9401 64.2261 69.3268 64.4468 69.6277 64.7625C69.9285 65.0782 70.1305 65.475 70.2086 65.904C70.2867 66.3331 70.2376 66.7756 70.0673 67.1771C69.897 67.5785 69.613 67.9214 69.2502 68.1634C68.8874 68.4054 68.4617 68.536 68.0257 68.5391C67.7195 68.5449 67.4154 68.487 67.1328 68.3691C66.8502 68.2512 66.5952 68.0758 66.384 67.8541C66.1727 67.6325 66.0098 67.3694 65.9056 67.0814C65.8014 66.7935 65.7581 66.487 65.7786 66.1815ZM46.3288 62.3014C45.8193 62.3086 45.3161 62.4162 44.8482 62.6179C44.3802 62.8196 43.9565 63.1115 43.6013 63.4769C43.2461 63.8423 42.9664 64.2742 42.7781 64.7477C42.5898 65.2212 42.4967 65.7272 42.5039 66.2368C42.5112 66.7463 42.6187 67.2494 42.8204 67.7174C43.0221 68.1854 43.314 68.6091 43.6795 68.9643C44.0449 69.3194 44.4767 69.5991 44.9502 69.7874C45.4238 69.9757 45.9298 70.0689 46.4393 70.0616C47.5479 70.0982 48.6314 69.7268 49.4845 69.0179L48.6864 67.79C48.0738 68.274 47.3182 68.5417 46.5376 68.5513C46.0055 68.5966 45.4766 68.4338 45.0622 68.0972C44.6477 67.7606 44.3799 67.2763 44.3151 66.7463H49.816C49.8288 66.5419 49.8288 66.3368 49.816 66.1324C49.8621 65.6413 49.8053 65.1461 49.6493 64.6782C49.4933 64.2104 49.2414 63.7801 48.9098 63.415C48.5782 63.0499 48.1742 62.758 47.7234 62.5578C47.2727 62.3576 46.7852 62.2535 46.292 62.2523M46.292 63.6889C46.7784 63.679 47.249 63.8619 47.601 64.1978C47.953 64.5337 48.1578 64.9952 48.1706 65.4816H44.3273C44.3559 64.9854 44.5774 64.5201 44.9445 64.1851C45.3117 63.8501 45.7953 63.672 46.292 63.6889ZM86.7142 66.1447V59.4895H85.0933V63.3451C84.8198 62.9909 84.465 62.7078 84.0589 62.5197C83.6528 62.3317 83.2074 62.2441 82.7603 62.2645C81.7313 62.2645 80.7443 62.6733 80.0167 63.401C79.289 64.1286 78.8802 65.1156 78.8802 66.1447C78.8802 67.1737 79.289 68.1607 80.0167 68.8883C80.7443 69.616 81.7313 70.0248 82.7603 70.0248C83.2074 70.0452 83.6528 69.9577 84.0589 69.7696C84.465 69.5815 84.8198 69.2984 85.0933 68.9443V69.8406H86.7142V66.1447ZM80.7097 66.1447C80.7314 65.7056 80.8813 65.2825 81.141 64.9278C81.4007 64.5731 81.7587 64.3024 82.1707 64.1491C82.5827 63.9959 83.0307 63.9668 83.459 64.0656C83.8874 64.1644 84.2773 64.3867 84.5806 64.7049C84.8839 65.0231 85.0872 65.4233 85.1654 65.8559C85.2435 66.2885 85.193 66.7345 85.0201 67.1387C84.8473 67.5429 84.5597 67.8875 84.1929 68.1299C83.8262 68.3722 83.3964 68.5017 82.9568 68.5022C82.6506 68.508 82.3466 68.4501 82.064 68.3322C81.7814 68.2143 81.5264 68.039 81.3151 67.8173C81.1038 67.5957 80.9409 67.3325 80.8367 67.0446C80.7325 66.7567 80.6893 66.4502 80.7097 66.1447ZM26.3019 66.1447V62.461H24.7425V63.3574C24.4689 63.0032 24.1141 62.7201 23.708 62.532C23.3019 62.344 22.8565 62.2564 22.4095 62.2768C21.3804 62.2768 20.3935 62.6856 19.6658 63.4133C18.9382 64.1409 18.5294 65.1279 18.5294 66.157C18.5294 67.186 18.9382 68.173 19.6658 68.9006C20.3935 69.6283 21.3804 70.0371 22.4095 70.0371C22.8565 70.0575 23.3019 69.9699 23.708 69.7819C24.1141 69.5938 24.4689 69.3107 24.7425 68.9565V69.8529H26.351L26.3019 66.1447ZM20.3098 66.1447C20.3314 65.7056 20.4813 65.2825 20.741 64.9278C21.0007 64.5731 21.3587 64.3024 21.7708 64.1491C22.1828 63.9959 22.6307 63.9668 23.059 64.0656C23.4874 64.1644 23.8774 64.3867 24.1807 64.7049C24.484 65.0231 24.6873 65.4233 24.7654 65.8559C24.8435 66.2885 24.793 66.7345 24.6202 67.1387C24.4473 67.5429 24.1597 67.8875 23.793 68.1299C23.4262 68.3722 22.9964 68.5017 22.5568 68.5022C22.2507 68.508 21.9466 68.4501 21.664 68.3322C21.3814 68.2143 21.1264 68.039 20.9151 67.8173C20.7039 67.5957 20.541 67.3325 20.4368 67.0446C20.3326 66.7567 20.2893 66.4502 20.3098 66.1447ZM89.3909 68.7601C89.4924 68.76 89.5927 68.7809 89.6856 68.8215C89.7745 68.863 89.8572 68.9167 89.9312 68.9811C89.9941 69.0518 90.0477 69.1302 90.0909 69.2144C90.1565 69.3969 90.1565 69.5966 90.0909 69.7792C90.0509 69.8652 89.9969 69.9441 89.9312 70.0125C89.8603 70.0809 89.7769 70.1351 89.6856 70.1721C89.5927 70.2127 89.4924 70.2336 89.3909 70.2336C89.2898 70.2309 89.19 70.21 89.0962 70.1721C89.0071 70.1378 88.9273 70.0831 88.863 70.0125C88.7895 69.9507 88.7343 69.87 88.7033 69.7792C88.6626 69.6906 88.6414 69.5943 88.6414 69.4968C88.6414 69.3993 88.6626 69.303 88.7033 69.2144C88.7377 69.1253 88.7923 69.0454 88.863 68.9811C88.9304 68.9142 89.0095 68.8601 89.0962 68.8215C89.19 68.7836 89.2898 68.7628 89.3909 68.7601ZM89.3909 70.0739C89.4633 70.0938 89.5396 70.0938 89.612 70.0739C89.6808 70.0455 89.7435 70.0038 89.7961 69.9511C89.8488 69.8984 89.8905 69.8358 89.9189 69.767C89.9329 69.6939 89.9329 69.619 89.9189 69.5459C89.9304 69.4727 89.9304 69.3981 89.9189 69.3249C89.8897 69.2564 89.8481 69.194 89.7961 69.1407C89.7418 69.0901 89.6796 69.0486 89.612 69.0179C89.5389 69.004 89.464 69.004 89.3909 69.0179C89.3177 69.0062 89.2431 69.0062 89.1699 69.0179C89.1023 69.0486 89.0401 69.0901 88.9857 69.1407C88.9338 69.194 88.8922 69.2564 88.863 69.3249C88.8515 69.3981 88.8515 69.4727 88.863 69.5459C88.849 69.619 88.849 69.6939 88.863 69.767C88.9076 69.8706 88.9811 69.9593 89.0747 70.0224C89.1683 70.0856 89.2781 70.1205 89.3909 70.123M89.3909 69.2021C89.4618 69.1971 89.532 69.2191 89.5874 69.2635C89.6113 69.2826 89.6303 69.3069 89.6431 69.3346C89.6559 69.3623 89.662 69.3926 89.6611 69.4231C89.6702 69.4445 89.6749 69.4675 89.6749 69.4907C89.6749 69.5139 89.6702 69.5368 89.6611 69.5582C89.6111 69.5971 89.5518 69.6225 89.4892 69.6319L89.7225 69.8898H89.5751L89.3787 69.6319H89.305V69.8898H89.1576V69.2021H89.3909ZM89.219 69.3372V69.5091H89.5751C89.5806 69.4976 89.5834 69.485 89.5834 69.4722C89.5834 69.4595 89.5806 69.4469 89.5751 69.4354C89.5835 69.4116 89.5835 69.3856 89.5751 69.3617H89.3173L89.219 69.3372ZM88.3472 45.3319V44.5092H88.7156V44.3251H87.7824V44.5092H88.1508V45.4056L88.3472 45.3319ZM90.1399 45.3319V44.2514H89.8576L89.526 44.9881L89.2068 44.2514H88.9243V45.3319H89.1208V44.5092L89.4278 45.2214H89.6365L89.9435 44.5092V45.3319H90.1399ZM43.4187 50.6978C43.6274 50.8943 43.8607 51.0662 44.094 51.2503C39.9059 54.0316 35.042 55.6251 30.0201 55.8611C24.9981 56.0971 20.0062 54.9669 15.5757 52.5907C11.1452 50.2145 7.44208 46.6813 4.86049 42.3672C2.27891 38.0532 0.915527 33.1198 0.915527 28.0923C0.915527 23.0648 2.27891 18.1315 4.86049 13.8174C7.44208 9.50338 11.1452 5.97018 15.5757 3.59397C20.0062 1.21776 24.9981 0.0874783 30.0201 0.323504C35.042 0.55953 39.9059 2.153 44.094 4.93428L43.4187 5.49914C40.1749 8.30362 37.5729 11.7735 35.7894 15.6731C34.0059 19.5726 33.0828 23.8104 33.0828 28.0985C33.0828 32.3865 34.0059 36.6243 35.7894 40.5238C37.5729 44.4234 40.1749 47.8933 43.4187 50.6978ZM63.2246 0.305143C57.7472 0.30438 52.3913 1.91885 47.8268 4.94657L48.5022 5.51139C51.7459 8.31587 54.348 11.7858 56.1315 15.6854C57.9149 19.5849 58.8381 23.8227 58.8381 28.1107C58.8381 32.3988 57.9149 36.6366 56.1315 40.5361C54.348 44.4357 51.7459 47.9056 48.5022 50.7101C48.2934 50.9065 48.0601 51.0784 47.8268 51.2626C51.4424 53.6864 55.5759 55.2286 59.8955 55.7652C64.2151 56.3018 68.6004 55.8179 72.6991 54.3524C76.7978 52.8869 80.4957 50.4807 83.4957 47.3269C86.4958 44.1731 88.7145 40.3597 89.9736 36.1929C91.2326 32.0262 91.497 27.6223 90.7454 23.3348C89.9938 19.0474 88.2472 14.996 85.6459 11.506C83.0446 8.01596 79.6611 5.1846 75.7672 3.23933C71.8732 1.29407 67.5774 0.289099 63.2246 0.305143ZM46.0341 6.26042L44.9781 7.13222C41.9679 9.73612 39.5533 12.9574 37.8983 16.5772C36.2433 20.197 35.3867 24.1305 35.3867 28.1107C35.3867 32.0909 36.2433 36.0245 37.8983 39.6443C39.5533 43.2641 41.9679 46.4854 44.9781 49.0893L46.0341 49.9611L47.0901 49.0893C50.104 46.4876 52.5219 43.2671 54.1792 39.647C55.8366 36.0269 56.6945 32.0922 56.6945 28.1107C56.6945 24.1293 55.8366 20.1946 54.1792 16.5745C52.5219 12.9544 50.104 9.73386 47.0901 7.13222L46.0341 6.26042Z" fill="black"/>
</g>
<defs>
<clipPath id="clip0_1_532">
<rect width="90.25" height="69.9898" fill="white" transform="translate(0.859985 0.305115)"/>
</clipPath>
</defs>
</svg>
