<svg id="Layer_1" data-name="Layer 1" xmlns="http://www.w3.org/2000/svg" viewBox="0 0 277.87 102.3"><title>pci-dss</title><path d="M209.33,413c-2.6-1.5-6.2-2.3-10.8-2.3h-12.2V438h10.4v-8.2h1.6a28,28,0,0,0,6.1-.6,15.35,15.35,0,0,0,4.7-1.8,8.53,8.53,0,0,0,4.1-7.4A7.59,7.59,0,0,0,209.33,413Zm-7.5,9.9a7.41,7.41,0,0,1-4,.9h-1.2v-7.3h1.3c3.5,0,5.3,1.2,5.3,3.6A3,3,0,0,1,201.83,422.85Zm55.4-12.2V438l-.19.06H246.73v-27.4Zm-18.6,20.8a20.7,20.7,0,0,0,3.8-1.2v6.9c-1.6.4-1.8.5-3.4.8a29.5,29.5,0,0,1-5.5.5,25.68,25.68,0,0,1-7.7-1,18.42,18.42,0,0,1-5.8-2.8,11.69,11.69,0,0,1-3.6-4.4,14,14,0,0,1-1.2-5.8,12.65,12.65,0,0,1,1.3-5.8,14.38,14.38,0,0,1,3.7-4.5,19.11,19.11,0,0,1,5.7-2.9,23.65,23.65,0,0,1,7.2-1,32.79,32.79,0,0,1,5.6.4,15.45,15.45,0,0,1,3,.9v7.3a12.21,12.21,0,0,0-3.5-1.4,14,14,0,0,0-4.1-.6,9,9,0,0,0-5.8,1.9,6.89,6.89,0,0,0-2.2,5.6,7.25,7.25,0,0,0,.7,3.3,7.1,7.1,0,0,0,1.9,2.3,8.18,8.18,0,0,0,2.8,1.4,12.7,12.7,0,0,0,3.4.5A15.53,15.53,0,0,0,238.63,431.45Zm13.4-35.4a6.37,6.37,0,0,1,4.5,1.6,5.45,5.45,0,0,1,1.8,4.4,5.37,5.37,0,0,1-1.8,4.3A6.86,6.86,0,0,1,252,408a6.37,6.37,0,0,1-4.5-1.6,5.37,5.37,0,0,1-1.8-4.3,5.58,5.58,0,0,1,1.8-4.4A6.37,6.37,0,0,1,252,396.05Zm-93.57-26.37V472H436.33V369.68ZM257.23,438v.06H257L193.63,458l-23.4-63.7,84.3-4.7,19.4,43.2Zm173.35,28.24H286.88v-90.8h143.7ZM296.28,417.7h5.9v10.82h7.24v4.53H296.28Zm19.4,10.95a1.55,1.55,0,0,0,.87,1.38,5.28,5.28,0,0,0,2.19.38,11,11,0,0,0,2.13-.19,5.85,5.85,0,0,0,1.64-.53v3a17.57,17.57,0,0,1-5.17.66,7.78,7.78,0,0,1-5.29-1.61,5.81,5.81,0,0,1-1.82-4.6,5.23,5.23,0,0,1,1.8-4.33,8.32,8.32,0,0,1,5.31-1.45,7.25,7.25,0,0,1,2.78.48,4.75,4.75,0,0,1,1.87,1.36,5.61,5.61,0,0,1,1,2.09,10.33,10.33,0,0,1,.32,2.71v.68Zm2.87-2.42a6.49,6.49,0,0,0-.05-.77,2.4,2.4,0,0,0-.19-.71,1.24,1.24,0,0,0-.42-.56,1.17,1.17,0,0,0-.73-.22,1.22,1.22,0,0,0-1.15.63,3.42,3.42,0,0,0-.35,1.63Zm19.09-4.64-3.47,11.48h-7.11l-3.41-11.48h5.68l1.43,7.52h0l1.43-7.52Zm5.76,7.06a1.55,1.55,0,0,0,.87,1.38,5.28,5.28,0,0,0,2.19.38,11,11,0,0,0,2.13-.19,5.78,5.78,0,0,0,1.63-.53v3a17.47,17.47,0,0,1-5.17.66,7.77,7.77,0,0,1-5.28-1.61,5.81,5.81,0,0,1-1.82-4.6,5.23,5.23,0,0,1,1.8-4.33,8.31,8.31,0,0,1,5.3-1.45,7.26,7.26,0,0,1,2.79.48,4.75,4.75,0,0,1,1.87,1.36,5.61,5.61,0,0,1,1,2.09,10.77,10.77,0,0,1,.32,2.71v.68Zm2.86-2.42a6.51,6.51,0,0,0,0-.77,2.4,2.4,0,0,0-.19-.71,1.2,1.2,0,0,0-.43-.56,1.12,1.12,0,0,0-.72-.22,1.22,1.22,0,0,0-1.15.63,3.42,3.42,0,0,0-.35,1.63Zm11.82-9.68v16.5h-5.55v-16.5Zm8.95,5,5.79-3.85h4.73v15.35H372v-10l-3.41,2.46ZM296.28,441.7h10.14a7.23,7.23,0,0,1,2,.26,5.87,5.87,0,0,1,1.82.87,4.31,4.31,0,0,1,1.35,1.64,5.62,5.62,0,0,1,.5,2.51,6.81,6.81,0,0,1-.43,2.55,4.8,4.8,0,0,1-1.21,1.76,5.14,5.14,0,0,1-1.8,1,7.16,7.16,0,0,1-2.21.33h-4.22v4.42h-5.9Zm5.74,7.37h1.3a7.24,7.24,0,0,0,1.09-.08,2.74,2.74,0,0,0,.89-.29,1.58,1.58,0,0,0,.63-.6,2,2,0,0,0,.23-1,1.79,1.79,0,0,0-.23-1,1.46,1.46,0,0,0-.63-.55,2.71,2.71,0,0,0-.89-.25,7.5,7.5,0,0,0-1.11-.07H302Zm17-3.48v2.6h0a5.37,5.37,0,0,1,1.4-2.09,3,3,0,0,1,2.1-.77,3,3,0,0,1,.9.11V450a3.62,3.62,0,0,0-1.26-.17,2.67,2.67,0,0,0-2,.89,3,3,0,0,0-.83,2.14v4.16h-5.55V445.59Zm6.53,1.19a10.4,10.4,0,0,1,10.61,0,5.22,5.22,0,0,1,1.82,4.32,5.76,5.76,0,0,1-1.84,4.6,9.48,9.48,0,0,1-10.57,0,5.78,5.78,0,0,1-1.82-4.6A5.23,5.23,0,0,1,325.52,446.78Zm4.32,6.51a1,1,0,0,0,1,.73,1,1,0,0,0,1-.73,7.39,7.39,0,0,0,.24-2.18,5.55,5.55,0,0,0-.24-1.85,1,1,0,0,0-1-.63.94.94,0,0,0-1,.63,5.88,5.88,0,0,0-.23,1.85A7.82,7.82,0,0,0,329.84,453.29Zm22.45-7.7-3.47,11.48h-7.11l-3.41-11.48H344l1.43,7.52h0l1.43-7.52Zm6.58-1.21h-5.54v-3.83h5.54Zm-5.54,1.21h5.54v11.46h-5.54Zm15.88,11.46V455h0a4,4,0,0,1-1.44,1.82,4.25,4.25,0,0,1-2.26.54,5.16,5.16,0,0,1-2.3-.49,4.1,4.1,0,0,1-1.58-1.33,5.48,5.48,0,0,1-.88-2,9.66,9.66,0,0,1-.28-2.41,8.46,8.46,0,0,1,.29-2.23,5.51,5.51,0,0,1,.88-1.86,4,4,0,0,1,1.53-1.26,5,5,0,0,1,2.19-.45,4.56,4.56,0,0,1,2,.41,4.08,4.08,0,0,1,1.48,1.32h0v-6.51h5.55v16.5Zm-.53-7.63a1.1,1.1,0,0,0-1.12-.66,1.06,1.06,0,0,0-1.08.65,4.35,4.35,0,0,0-.28,1.72,4.81,4.81,0,0,0,.29,1.8,1.1,1.1,0,0,0,1.11.69,1.14,1.14,0,0,0,.7-.21,1.41,1.41,0,0,0,.42-.54,2.67,2.67,0,0,0,.19-.74,5.9,5.9,0,0,0,.06-.86A4.77,4.77,0,0,0,368.68,449.42Zm12.61,3.23a1.51,1.51,0,0,0,.87,1.38,5.22,5.22,0,0,0,2.19.38,10.85,10.85,0,0,0,2.12-.19,5.85,5.85,0,0,0,1.64-.53v3a17.52,17.52,0,0,1-5.17.66,7.77,7.77,0,0,1-5.28-1.61,5.79,5.79,0,0,1-1.83-4.6,5.21,5.21,0,0,1,1.81-4.33,8.29,8.29,0,0,1,5.3-1.45,7.25,7.25,0,0,1,2.78.48,4.68,4.68,0,0,1,1.87,1.36,5.62,5.62,0,0,1,1,2.09A10.77,10.77,0,0,1,389,452v.68Zm2.86-2.42c0-.26,0-.52,0-.77a2.75,2.75,0,0,0-.19-.71,1.34,1.34,0,0,0-.43-.56,1.13,1.13,0,0,0-.73-.22,1.21,1.21,0,0,0-1.14.63,3.31,3.31,0,0,0-.35,1.63Zm11.46-4.64v2.6h0a5.48,5.48,0,0,1,1.4-2.09,3,3,0,0,1,2.1-.77,3,3,0,0,1,.9.11V450a3.52,3.52,0,0,0-1.25-.17,2.66,2.66,0,0,0-2,.89,3,3,0,0,0-.84,2.14v4.16h-5.54V445.59ZM295.68,392a4.53,4.53,0,0,0,2.4.7c1.4,0,2.2-.7,2.2-1.8s-.6-1.5-2-2.1c-1.7-.6-2.8-1.5-2.8-3s1.4-2.8,3.4-2.8a4.35,4.35,0,0,1,2.3.5l-.4,1.1a3.76,3.76,0,0,0-2-.5c-1.4,0-2,.9-2,1.6,0,1,.6,1.5,2.1,2,1.8.7,2.6,1.5,2.6,3.1s-1.2,3-3.6,3a5.38,5.38,0,0,1-2.7-.7l.5-1.1m8.6-1.9a2.41,2.41,0,0,0,2.6,2.6,5.18,5.18,0,0,0,2.1-.4l.2,1a6.33,6.33,0,0,1-2.5.5A3.49,3.49,0,0,1,303,390c0-2.3,1.4-4.1,3.5-4.1,2.4,0,3.1,2.2,3.1,3.5v.7h-5.3m4-.9a2,2,0,0,0-1.9-2.2,2.26,2.26,0,0,0-2.1,2.2Zm8.4,4.2a5.35,5.35,0,0,1-2.2.4,3.49,3.49,0,0,1-3.7-3.8,3.83,3.83,0,0,1,4-4,4.49,4.49,0,0,1,1.9.4l-.3,1a2.83,2.83,0,0,0-1.6-.4,2.68,2.68,0,0,0-2.7,2.9,2.58,2.58,0,0,0,2.6,2.8,3.53,3.53,0,0,0,1.7-.4l.3,1.1m7.8-1.8a11.52,11.52,0,0,0,.1,2h-1.2l-.1-1.2h0a2.84,2.84,0,0,1-2.5,1.4c-1.2,0-2.6-.7-2.6-3.3v-4.4h1.4v4.1c0,1.4.5,2.4,1.7,2.4a1.86,1.86,0,0,0,1.8-1.3,1.48,1.48,0,0,0,.1-.7V386h1.4v5.6m2.2-3.1a16.22,16.22,0,0,0-.1-2.3h1.2l.1,1.5h0a2.22,2.22,0,0,1,2.1-1.6h.4v1.3H330a1.84,1.84,0,0,0-1.8,1.7v4.7h-1.4v-5.3m5.8-3.7a.9.9,0,1,1,.9-.9.84.84,0,0,1-.9.9h0m.7,8.9H332v-7.5h1.4v7.5Zm3.9-9.3v1.8h2v1h-2v4.1c0,.9.3,1.5,1,1.5a1.72,1.72,0,0,0,.8-.1l.1,1a3.73,3.73,0,0,1-1.2.2,2,2,0,0,1-1.5-.6,2.83,2.83,0,0,1-.5-2v-4.1h-1.2v-1h1.2v-1.4l1.3-.4m4.2,1.8,1.6,4.4a13.14,13.14,0,0,1,.5,1.5h0c.1-.4.3-1,.5-1.6l1.5-4.4h1.4l-2.1,5.4c-1,2.6-1.6,3.9-2.6,4.7a4,4,0,0,1-1.7.9l-.3-1.1a3.07,3.07,0,0,0,1.2-.7,3.66,3.66,0,0,0,1.1-1.5.5.5,0,0,0,0-.6l-2.8-6.9h1.7m-45.7,21.2a4.53,4.53,0,0,0,2.4.7c1.4,0,2.2-.7,2.2-1.8s-.6-1.5-2-2.1c-1.7-.6-2.8-1.5-2.8-3s1.4-2.8,3.4-2.8a4.35,4.35,0,0,1,2.3.5l-.4,1.1a3.76,3.76,0,0,0-2-.5c-1.4,0-2,.9-2,1.6,0,1,.6,1.5,2.1,2,1.8.7,2.6,1.5,2.6,3.1s-1.2,3-3.6,3a5.38,5.38,0,0,1-2.7-.7l.5-1.1m9.3-7.6v1.8h2v1h-2v4c0,.9.3,1.5,1,1.5a1.72,1.72,0,0,0,.8-.1l.1,1a3.73,3.73,0,0,1-1.2.2,2,2,0,0,1-1.5-.6,2.83,2.83,0,0,1-.5-2v-4.1h-1.2v-1h1.2v-1.4l1.3-.3m8.8,7.5a9.72,9.72,0,0,0,.1,1.8h-1.2l-.1-.9h0a2.7,2.7,0,0,1-2.3,1.1,2.18,2.18,0,0,1-2.3-2.2c0-1.8,1.6-2.8,4.5-2.8v-.2a1.51,1.51,0,0,0-1.7-1.7,3.61,3.61,0,0,0-2,.6l-.3-.9a4.63,4.63,0,0,1,2.5-.6c2.3,0,2.9,1.6,2.9,3.1v2.7m-1.4-2c-1.5,0-3.2.2-3.2,1.7a1.21,1.21,0,0,0,1.3,1.3,1.77,1.77,0,0,0,1.8-1.3c0-.1.1-.3.1-.4Zm3.5-1.7a12.12,12.12,0,0,0-.1-2h1.2l.1,1.2h0a2.77,2.77,0,0,1,2.5-1.4c1,0,2.7.6,2.7,3.2v4.5H321v-4.3c0-1.2-.5-2.2-1.7-2.2a1.83,1.83,0,0,0-1.8,1.4,1.27,1.27,0,0,0-.1.6v4.5H316v-5.5m15.1-5.5v9.1a10.89,10.89,0,0,0,.1,1.9H330l-.1-1.3h0a2.78,2.78,0,0,1-2.5,1.5c-1.8,0-3.2-1.5-3.2-3.8,0-2.5,1.6-4,3.4-4a2.57,2.57,0,0,1,2.3,1.1h0v-4.5h1.2m-1.4,6.5a1.27,1.27,0,0,0-.1-.6,2,2,0,0,0-2-1.6c-1.4,0-2.3,1.2-2.3,2.9,0,1.5.8,2.8,2.2,2.8a2.11,2.11,0,0,0,2-1.6,1.27,1.27,0,0,0,.1-.6v-1.3Zm9,2.7a9.72,9.72,0,0,0,.1,1.8h-1.2l-.1-.9h0a2.7,2.7,0,0,1-2.3,1.1,2.18,2.18,0,0,1-2.3-2.2c0-1.8,1.6-2.8,4.5-2.8v-.2a1.51,1.51,0,0,0-1.7-1.7,3.61,3.61,0,0,0-2,.6l-.3-.9a4.63,4.63,0,0,1,2.5-.6c2.3,0,2.9,1.6,2.9,3.1v2.7m-1.5-2c-1.5,0-3.2.2-3.2,1.7a1.21,1.21,0,0,0,1.3,1.3,1.77,1.77,0,0,0,1.8-1.3c0-.1.1-.3.1-.4v-1.3Zm3.6-1.4a16.22,16.22,0,0,0-.1-2.3H342l.1,1.5h.1a2.22,2.22,0,0,1,2.1-1.6h.4v1.3h-.5a1.84,1.84,0,0,0-1.8,1.7v4.7H341l-.1-5.3m11.4-5.8v9.1a10.89,10.89,0,0,0,.1,1.9h-1.2l-.1-1.3h0a2.82,2.82,0,0,1-2.6,1.5c-1.8,0-3.2-1.5-3.2-3.8,0-2.5,1.5-4,3.4-4a2.57,2.57,0,0,1,2.3,1.1h0v-4.5h1.3m-1.3,6.5a1.27,1.27,0,0,0-.1-.6,2,2,0,0,0-2-1.6c-1.4,0-2.2,1.2-2.2,2.9,0,1.5.8,2.8,2.2,2.8a2,2,0,0,0,2-1.6c0-.2.1-.4.1-.6Zm3.4,3.1a3.2,3.2,0,0,0,1.8.5c1,0,1.4-.5,1.4-1.1s-.4-1-1.4-1.4c-1.4-.5-2-1.2-2-2.1a2.34,2.34,0,0,1,2.6-2.2,3,3,0,0,1,1.8.5l-.3,1a2.7,2.7,0,0,0-1.5-.4,1.06,1.06,0,0,0-1.2,1c0,.6.4.9,1.4,1.3,1.3.5,2,1.1,2,2.3s-1,2.3-2.8,2.3a4.34,4.34,0,0,1-2.1-.5l.3-1.2m17,1.1a7.74,7.74,0,0,1-2.8.5,5,5,0,0,1-5.2-5.3,5.2,5.2,0,0,1,5.5-5.5,5.54,5.54,0,0,1,2.5.5l-.3,1.1a5.58,5.58,0,0,0-2.1-.4c-2.5,0-4.1,1.6-4.1,4.3s1.5,4.2,4,4.2a6.65,6.65,0,0,0,2.2-.4l.3,1m4.5.5a3.61,3.61,0,0,1-3.6-3.9,3.71,3.71,0,0,1,3.7-4,3.52,3.52,0,0,1,3.6,3.8,3.74,3.74,0,0,1-3.7,4.1h0m0-1.1c1.3,0,2.3-1.2,2.3-2.9,0-1.3-.6-2.9-2.3-2.9s-2.3,1.5-2.3,2.9c.1,1.7,1,2.9,2.3,2.9Zm11.7-1.2a11.52,11.52,0,0,0,.1,2h-1.2l-.1-1.2h0a2.84,2.84,0,0,1-2.5,1.4c-1.2,0-2.6-.7-2.6-3.3v-4.4h1.4v4.1c0,1.4.4,2.4,1.7,2.4a2,2,0,0,0,1.8-1.3,1.48,1.48,0,0,0,.1-.7v-4.6h1.4v5.6m2.2-3.4a12.12,12.12,0,0,0-.1-2H391l.1,1.2h0a2.77,2.77,0,0,1,2.5-1.4c1,0,2.7.6,2.7,3.2v4.5h-1.4v-4.3c0-1.2-.5-2.2-1.7-2.2a1.83,1.83,0,0,0-1.8,1.4,1.27,1.27,0,0,0-.1.6v4.5h-1.4v-5.5m14,5.2a5,5,0,0,1-2.2.4,3.49,3.49,0,0,1-3.7-3.8,3.83,3.83,0,0,1,4-4,4.49,4.49,0,0,1,1.9.4l-.3,1a2.83,2.83,0,0,0-1.6-.4,2.68,2.68,0,0,0-2.7,2.9,2.58,2.58,0,0,0,2.6,2.8,3.53,3.53,0,0,0,1.7-.4l.3,1.1m2.2-8.6a.9.9,0,1,1,.9-.9.84.84,0,0,1-.9.9h0m.7,8.9h-1.4v-7.5h1.4Zm2.3-11h1.4v11h-1.4Zm11.7-5.7a3.2,3.2,0,1,1-3.2-3.1A3.14,3.14,0,0,1,420.78,392.51Zm-5.4,0a2.24,2.24,0,0,0,2.2,2.3,2.18,2.18,0,0,0,2.2-2.3,2.26,2.26,0,0,0-2.3-2.3A2.16,2.16,0,0,0,415.38,392.51Zm1.8,1.5h-.9v-2.9c.2,0,.7-.1,1.3-.1a2.33,2.33,0,0,1,1.1.2.6.6,0,0,1,.3.6c0,.3-.3.5-.7.6h0a.88.88,0,0,1,.6.7c.1.4.1.6.2.7h-1c-.1-.1-.1-.4-.2-.6s-.2-.4-.5-.4h-.3V394Zm.1-1.6h.3c.3,0,.5-.1.5-.3a.46.46,0,0,0-.5-.4h-.3Z" transform="translate(-158.46 -369.68)"/></svg>