<svg width="76" height="75" viewBox="0 0 76 75" fill="none" xmlns="http://www.w3.org/2000/svg">
<path d="M18.6892 53.0662C14.4641 48.8684 11.5838 43.4873 10.4224 37.6185C9.27732 31.7634 9.93039 25.6954 12.2941 20.225C14.6923 14.6985 18.6633 10.0161 23.7023 6.77078L23.7028 6.77045C28.8023 3.48016 34.7299 1.73489 40.7822 1.74102L40.7837 1.74103C46.8361 1.73489 52.7636 3.48016 57.8631 6.77045L57.8638 6.77087C62.9023 10.0144 66.8732 14.695 69.2717 20.2199L18.6892 53.0662ZM18.6892 53.0662L18.7061 53.079L18.7394 53.1114L39.6098 73.4611C39.6099 73.4612 39.61 73.4613 39.6101 73.4614C39.9262 73.7686 40.3467 73.9391 40.783 73.9391C41.2191 73.9391 41.6395 73.7687 41.9555 73.4617C41.9557 73.4615 41.9559 73.4613 41.9561 73.4611L62.8419 53.0958C62.8426 53.0952 62.8432 53.0945 62.8439 53.0939C67.0867 48.8911 69.9789 43.4975 71.1435 37.6134C72.2885 31.7587 71.6356 25.6911 69.2722 20.221L18.6892 53.0662Z" stroke="white" stroke-width="1.48211"/>
<path d="M32.9619 71.8179C32.5746 72.193 32.0575 72.4026 31.5195 72.4026C30.9814 72.4026 30.4644 72.193 30.077 71.8179L12.2601 54.5159L12.2435 54.5033C8.53014 50.841 5.99968 46.1408 4.98122 41.0142C3.97901 35.9113 4.55039 30.6226 6.61907 25.8546C8.71586 21.0419 12.1883 16.9633 16.5959 14.1362C21.0512 11.2731 26.2306 9.75415 31.5195 9.75949C36.8083 9.75415 41.9877 11.2731 46.4431 14.1362C50.8503 16.9618 54.3228 21.039 56.4198 25.8504C58.4885 30.6185 59.0599 35.9071 58.0577 41.01C57.039 46.1366 54.5086 50.8367 50.7954 54.4992L32.9619 71.8179Z" fill="black"/>
<path d="M51.7031 36.1991C51.7031 47.248 42.7566 56.2034 31.7224 56.2034C20.6882 56.2034 11.7418 47.248 11.7418 36.1991C11.7418 25.1501 20.6882 16.1947 31.7224 16.1947C42.7566 16.1947 51.7031 25.1501 51.7031 36.1991Z" stroke="white" stroke-width="1.48211"/>
<mask id="path-4-inside-1_7367_379" fill="white">
<path d="M52.4441 36.1991C52.4441 33.4747 51.9081 30.7771 50.8668 28.2601C49.8254 25.7432 48.2991 23.4562 46.3749 21.5298C44.4507 19.6034 42.1664 18.0753 39.6523 17.0328C37.1382 15.9902 34.4437 15.4536 31.7224 15.4536C29.0012 15.4536 26.3067 15.9902 23.7926 17.0328C21.2785 18.0753 18.9942 19.6034 17.07 21.5298C15.1458 23.4562 13.6195 25.7432 12.5781 28.2601C11.5367 30.7771 11.0007 33.4747 11.0007 36.1991H16.4445C16.4445 34.1904 16.8397 32.2015 17.6075 30.3458C18.3753 28.49 19.5006 26.8039 20.9193 25.3836C22.338 23.9633 24.0222 22.8366 25.8758 22.0679C27.7294 21.2993 29.7161 20.9036 31.7224 20.9036C33.7288 20.9036 35.7154 21.2993 37.569 22.0679C39.4226 22.8366 41.1069 23.9633 42.5256 25.3836C43.9442 26.8039 45.0696 28.49 45.8374 30.3458C46.6052 32.2015 47.0004 34.1904 47.0004 36.1991H52.4441Z"/>
</mask>
<path d="M52.4441 36.1991C52.4441 33.4747 51.9081 30.7771 50.8668 28.2601C49.8254 25.7432 48.2991 23.4562 46.3749 21.5298C44.4507 19.6034 42.1664 18.0753 39.6523 17.0328C37.1382 15.9902 34.4437 15.4536 31.7224 15.4536C29.0012 15.4536 26.3067 15.9902 23.7926 17.0328C21.2785 18.0753 18.9942 19.6034 17.07 21.5298C15.1458 23.4562 13.6195 25.7432 12.5781 28.2601C11.5367 30.7771 11.0007 33.4747 11.0007 36.1991H16.4445C16.4445 34.1904 16.8397 32.2015 17.6075 30.3458C18.3753 28.49 19.5006 26.8039 20.9193 25.3836C22.338 23.9633 24.0222 22.8366 25.8758 22.0679C27.7294 21.2993 29.7161 20.9036 31.7224 20.9036C33.7288 20.9036 35.7154 21.2993 37.569 22.0679C39.4226 22.8366 41.1069 23.9633 42.5256 25.3836C43.9442 26.8039 45.0696 28.49 45.8374 30.3458C46.6052 32.2015 47.0004 34.1904 47.0004 36.1991H52.4441Z" stroke="white" stroke-width="2.96422" mask="url(#path-4-inside-1_7367_379)"/>
<path d="M35.8574 33.5556C35.8574 35.9553 33.9145 37.8992 31.5196 37.8992C29.1247 37.8992 27.1818 35.9553 27.1818 33.5556C27.1818 31.1559 29.1247 29.212 31.5196 29.212C33.9145 29.212 35.8574 31.1559 35.8574 33.5556Z" stroke="white" stroke-width="1.48211"/>
<path d="M21.5784 46.1095C22.2068 42.1791 26.3233 38.9747 31.5194 38.9747C36.7155 38.9747 40.832 42.1791 41.4604 46.1095C41.4732 46.1893 41.4508 46.2589 41.3917 46.3211C41.3273 46.3887 41.2209 46.4416 41.092 46.4416H21.9468C21.8179 46.4416 21.7115 46.3887 21.6471 46.3211C21.588 46.2589 21.5656 46.1893 21.5784 46.1095Z" stroke="white" stroke-width="1.48211"/>
</svg>
