<svg width="19" height="19" viewBox="0 0 19 19" fill="none" xmlns="http://www.w3.org/2000/svg">
<path fill-rule="evenodd" clip-rule="evenodd" d="M3 9.5C3 8.8473 3.52912 8.31818 4.18182 8.31818H14.8182C15.4709 8.31818 16 8.8473 16 9.5C16 10.1527 15.4709 10.6818 14.8182 10.6818H4.18182C3.52912 10.6818 3 10.1527 3 9.5Z" fill="#1D1D1F"/>
<path fill-rule="evenodd" clip-rule="evenodd" d="M9.5 3C10.1527 3 10.6818 3.52912 10.6818 4.18182L10.6818 14.8182C10.6818 15.4709 10.1527 16 9.5 16C8.8473 16 8.31818 15.4709 8.31818 14.8182L8.31818 4.18182C8.31818 3.52912 8.8473 3 9.5 3Z" fill="#1D1D1F"/>
</svg>
