<svg width="86" height="75" viewBox="0 0 86 75" fill="none" xmlns="http://www.w3.org/2000/svg">
<g clip-path="url(#clip0_7367_392)">
<path fill-rule="evenodd" clip-rule="evenodd" d="M23.9814 11.057C11.6157 11.057 1.5559 21.154 1.5559 33.5647V35.5412C1.5559 46.4526 10.0506 55.4587 20.8947 56.0442L21.3942 56.0712V64.0879L31.8449 56.0751H62.0194C74.3843 56.0751 84.4441 45.977 84.4441 33.5647C84.4441 21.154 74.3843 11.057 62.0194 11.057H23.9814ZM21.3187 65.2257C21.1722 65.2257 21.0249 65.1924 20.8865 65.1247C20.5484 64.9583 20.3383 64.6203 20.3383 64.2427V57.0668C9.1737 56.2059 0.5 46.8461 0.5 35.5412V33.5647C0.5 20.5711 11.0337 10 23.9814 10H62.0194C74.9666 10 85.5 20.5711 85.5 33.5647C85.5 46.5599 74.9666 57.1321 62.0194 57.1321H32.2029L21.9126 65.0217C21.7384 65.1564 21.5298 65.2257 21.3187 65.2257Z" fill="#FEFEFE"/>
<path fill-rule="evenodd" clip-rule="evenodd" d="M30.8567 38.8022H53.0306V18.9844H30.8567V38.8022Z" fill="#FEFEFE"/>
<path fill-rule="evenodd" clip-rule="evenodd" d="M48.5757 26.5627C49.3174 25.8255 49.3253 24.6259 48.5915 23.8807C47.8576 23.1356 46.6618 23.1276 45.9174 23.8649L37.9163 31.7893L34.5507 28.1666C33.8406 27.4004 32.6448 27.3581 31.8792 28.0715C31.1163 28.7876 31.0741 29.9872 31.7842 30.7509L36.2559 35.5653C37.1033 36.4769 38.5367 36.506 39.421 35.6314L48.5757 26.5627ZM9.47565 30.0348C9.47565 21.1591 16.65 13.9639 25.4989 13.9639H52.0548C60.9033 13.9639 68.0781 21.1591 68.0781 30.0348C68.0781 38.9079 60.9033 46.1031 52.0548 46.1031H38.7769H31.4516H31.1137L23.8314 51.6838C23.6242 51.8423 23.3251 51.6944 23.3251 51.4328V46.082C15.6065 45.6645 9.47565 39.2567 9.47565 31.4115V30.0348Z" fill="#1D1D1F"/>
</g>
<defs>
<clipPath id="clip0_7367_392">
<rect width="85" height="75" fill="white" transform="translate(0.5)"/>
</clipPath>
</defs>
</svg>
