<svg width="76" height="75" viewBox="0 0 76 75" fill="none" xmlns="http://www.w3.org/2000/svg">
<path fill-rule="evenodd" clip-rule="evenodd" d="M5.47701 33.047C4.85742 33.047 4.33556 33.2568 3.88133 33.6882C3.43512 34.1119 3.21847 34.595 3.21847 35.1661V62.0709C3.21847 62.6412 3.43512 63.1246 3.88133 63.5486C4.33527 63.9797 4.85713 64.1894 5.47672 64.1894H18.2155C18.8351 64.1894 19.357 63.98 19.8103 63.5486C20.2563 63.1246 20.4729 62.6412 20.4729 62.0709V35.1661C20.4729 34.595 20.2563 34.1116 19.8106 33.6882C19.3561 33.2568 18.8342 33.047 18.2155 33.047H5.47701ZM18.2155 65.3322H5.47672C4.56138 65.3322 3.75838 65.0102 3.09036 64.3757C2.41461 63.7334 2.07214 62.958 2.07214 62.0709V35.1661C2.07214 34.2781 2.41489 33.5025 3.09065 32.8608C3.75896 32.2259 4.56196 31.9042 5.47701 31.9042H18.2155C19.13 31.9042 19.9324 32.2259 20.601 32.8608C21.2768 33.5025 21.6192 34.2781 21.6192 35.1661V62.0709C21.6192 62.958 21.2768 63.7334 20.6013 64.3754C19.9339 65.0102 19.1311 65.3322 18.2155 65.3322ZM46.5231 6.14282C45.9035 6.14282 45.3819 6.35253 44.9286 6.78423C44.3904 7.29506 43.9244 7.94733 43.5426 8.72416C43.1495 9.52385 42.8729 10.2233 42.7204 10.8035C42.5614 11.4055 42.3783 12.2546 42.1762 13.3274C41.8965 14.566 41.6996 15.4034 41.571 15.9071C41.428 16.4625 41.1635 17.1602 40.7622 18.041C40.3487 18.9464 39.8449 19.6844 39.2646 20.2358C38.314 21.14 36.8266 22.8197 34.8452 25.2282C33.3977 27.0252 31.8834 28.7492 30.3485 30.348C28.1518 32.6362 27.1677 32.9588 26.6183 33.0025C26.0125 33.049 25.5073 33.2782 25.0725 33.7036C24.6518 34.1139 24.4475 34.5784 24.4475 35.1238V62.0701C24.4475 62.6375 24.6624 63.1123 25.1049 63.5212C25.5652 63.9474 26.0953 64.1657 26.7264 64.1888C27.8183 64.2186 30.1585 64.8328 33.8754 66.0671C36.132 66.7913 37.9208 67.349 39.1866 67.7219C40.4424 68.0924 42.2313 68.4984 44.5038 68.9281C46.7581 69.3535 48.865 69.5692 50.7668 69.5692H56.4723C60.199 69.5164 62.9892 68.4781 64.7574 66.4833C66.3513 64.6808 67.0331 62.264 66.7829 59.301L66.7594 59.019L66.9695 58.8293C68.0335 57.8691 68.7804 56.6311 69.189 55.1503C69.6585 53.5509 69.6599 52.0084 69.1956 50.5564L69.1031 50.2667L69.2922 50.0285C70.5555 48.4371 71.1544 46.6266 71.0719 44.6475L71.0713 44.6218C71.0742 43.7967 70.8632 42.7879 70.4443 41.6228L70.3256 41.2922L70.5675 41.0373C72.099 39.4231 72.8444 37.5029 72.8464 35.1664C72.8186 33.1293 72.0442 31.4054 70.4784 29.9043C68.9088 28.3986 67.0927 27.6669 64.927 27.6669H51.9056L52.1252 26.9324C52.2478 26.5218 52.3736 26.163 52.4989 25.8653C52.6267 25.5624 52.8035 25.2256 53.0247 24.8642C53.2655 24.4716 53.3887 24.2525 53.4497 24.1374C53.9848 23.0914 54.3728 22.3131 54.6316 21.7654C54.8818 21.2354 55.1532 20.4389 55.4383 19.3984C55.718 18.375 55.8599 17.3436 55.8599 16.3333C55.8599 15.6905 55.8524 15.1454 55.8378 14.7128C55.8243 14.3231 55.7518 13.7094 55.6226 12.8897C55.4982 12.0975 55.3309 11.4312 55.1248 10.9092C54.9193 10.3892 54.5832 9.79184 54.1258 9.13357C53.6865 8.50102 53.1465 7.98133 52.5215 7.58877C51.8799 7.18678 51.0384 6.84194 50.0211 6.56395C48.9983 6.28453 47.8213 6.14282 46.5231 6.14282ZM54.8798 70.7121H50.7668C48.7937 70.7121 46.6148 70.4898 44.2906 70.0509C41.9802 69.6141 40.1538 69.1992 38.8616 68.8178C37.5869 68.4424 35.7892 67.8821 33.5186 67.153C29.9547 65.9696 27.6589 65.3574 26.69 65.3311C25.7795 65.2977 24.9857 64.9705 24.3251 64.3591C23.6456 63.7309 23.3012 62.9606 23.3012 62.0701V35.1238C23.3012 34.2673 23.627 33.515 24.2701 32.8873C24.8963 32.2748 25.6566 31.9299 26.5289 31.8631C26.7808 31.8431 27.5807 31.578 29.5203 29.5577C31.0325 27.9826 32.5245 26.2838 33.9551 24.5079C35.9698 22.0591 37.4889 20.3449 38.4739 19.4087C38.9476 18.9584 39.3663 18.3393 39.7185 17.5679C40.0865 16.7602 40.3361 16.1059 40.4605 15.6239C40.5863 15.1314 40.7803 14.3043 41.0537 13.0963C41.2566 12.0169 41.4457 11.1409 41.6117 10.513C41.7833 9.86041 42.0868 9.089 42.5133 8.22132C42.9546 7.32278 43.5011 6.56109 44.1373 5.9574C44.8045 5.32227 45.6072 5 46.5231 5C47.9236 5 49.2026 5.15542 50.3243 5.4617C51.4497 5.7694 52.3943 6.15967 53.1316 6.62137C53.8891 7.09679 54.5405 7.72305 55.0681 8.48274C55.5756 9.213 55.9536 9.88841 56.1915 10.4904C56.4285 11.0904 56.6179 11.8383 56.7552 12.7129C56.8933 13.5897 56.9681 14.2314 56.9836 14.6737C56.9985 15.1197 57.0062 15.6779 57.0062 16.3333C57.0062 17.4453 56.8509 18.5773 56.5442 19.6989C56.2373 20.8192 55.951 21.654 55.669 22.252C55.4045 22.8114 55.0113 23.6002 54.4671 24.6639C54.3634 24.8599 54.2086 25.125 54.0031 25.4599C53.812 25.7724 53.6612 26.0579 53.5555 26.3081C53.5271 26.3761 53.4982 26.4481 53.4692 26.5241H64.927C67.3692 26.5241 69.5043 27.3844 71.273 29.0806C73.0458 30.7803 73.9609 32.8256 73.9927 35.1593C73.9904 37.6497 73.1983 39.8005 71.637 41.5642C72.0236 42.715 72.2188 43.7393 72.2176 44.6124C72.3047 46.7697 71.6852 48.7488 70.3749 50.4993C70.8211 52.0858 70.7933 53.7538 70.2918 55.4623C69.8536 57.0508 69.0644 58.4045 67.9464 59.4827C68.1576 62.6435 67.3744 65.252 65.6168 67.2396C63.6254 69.4864 60.5518 70.6543 56.4806 70.7121H54.8798Z" fill="#FEFEFE"/>
<path fill-rule="evenodd" clip-rule="evenodd" d="M3.39147 49.403H11.9023C12.4148 49.403 12.8578 49.2253 13.2324 48.8693C13.6064 48.5136 13.7938 48.0922 13.7938 47.6056V29.6299C13.7938 29.1431 13.6066 28.7217 13.2324 28.3663C12.8578 28.0106 12.4148 27.8326 11.9023 27.8326H3.39147C2.87878 27.8326 2.43573 28.0106 2.06145 28.3663C1.68689 28.7217 1.49976 29.1431 1.49976 29.6299V47.6056C1.49976 48.0922 1.68689 48.5136 2.06117 48.8693C2.43601 49.2253 2.87907 49.403 3.39147 49.403ZM47.5994 35.9489C47.6014 35.3503 47.4544 34.6389 47.1581 33.8149C48.2419 32.673 48.7841 31.2779 48.7856 29.6308C48.7658 28.1703 48.1992 26.9066 47.0858 25.8395C45.9731 24.7718 44.6476 24.2378 43.1115 24.2378H34.9254C35.0036 23.9758 35.0821 23.751 35.1609 23.5639C35.24 23.3767 35.3489 23.1704 35.4862 22.9459C35.6241 22.7213 35.7224 22.5525 35.782 22.4399C36.1362 21.7471 36.4024 21.2137 36.5792 20.8394C36.7563 20.4642 36.9438 19.9163 37.1415 19.1957C37.3384 18.4749 37.4364 17.7583 37.4364 17.0475C37.4364 16.5975 37.4309 16.2327 37.4215 15.9518C37.4117 15.6713 37.3619 15.2496 37.2733 14.6873C37.1853 14.1259 37.0667 13.6585 36.9188 13.2836C36.771 12.9091 36.5348 12.4877 36.2098 12.0197C35.8843 11.5511 35.4905 11.1728 35.0271 10.882C34.5637 10.5917 33.9731 10.3486 33.2537 10.152C32.5339 9.95546 31.722 9.85718 30.8152 9.85718C30.3028 9.85718 29.8595 10.0355 29.4855 10.3914C29.0912 10.7657 28.7564 11.2334 28.4802 11.7957C28.2042 12.3571 28.0128 12.8439 27.9041 13.2559C27.7955 13.6676 27.6723 14.239 27.5347 14.9687C27.3568 15.7558 27.2241 16.3221 27.1355 16.6684C27.0464 17.0147 26.8736 17.4689 26.6177 18.0303C26.3612 18.5923 26.0563 19.0417 25.7018 19.3783C25.0518 19.9963 24.0568 21.1197 22.717 22.7482C21.7518 23.9467 20.7568 25.0798 19.732 26.1469C18.7075 27.214 17.9587 27.7663 17.4861 27.804C16.9937 27.8417 16.5699 28.0337 16.2157 28.3803C15.8612 28.7263 15.6832 29.1337 15.6832 29.6017V47.605C15.6832 48.0916 15.8706 48.5084 16.2449 48.8547C16.6192 49.2013 17.0625 49.3836 17.5746 49.4024C18.2641 49.421 19.8209 49.8333 22.2442 50.6381C23.761 51.1249 24.9481 51.4946 25.8052 51.7475C26.6618 52 27.8592 52.2717 29.3949 52.5623C30.9319 52.8523 32.3504 52.9974 33.6507 52.9974H34.153H36.3987H37.4628C40.0835 52.9603 42.024 52.2295 43.2849 50.8066C44.4278 49.5144 44.9101 47.8202 44.733 45.7228C45.5011 45.03 46.0338 44.1503 46.3284 43.0832C46.6634 41.941 46.6634 40.8453 46.3284 39.7967C47.2352 38.6545 47.659 37.372 47.5994 35.9489Z" fill="#1D1D1F"/>
</svg>
