<svg id="Layer_1" data-name="Layer 1" xmlns="http://www.w3.org/2000/svg" viewBox="0 0 507 528.06"><path d="M290.22,211.59a83.5,83.5,0,1,0,97.34,66.86,83.49,83.49,0,0,0-97.34-66.86" transform="translate(-52.5 -115.45)"/><path d="M286.29,188.15a107.36,107.36,0,1,0,125.15,86,107.36,107.36,0,0,0-125.15-86m37,200.45A96.63,96.63,0,1,1,400.71,276,96.61,96.61,0,0,1,323.33,388.6" transform="translate(-52.5 -115.45)"/><path d="M478.72,279.81l-32.27-4.92c-.31-2.22-.66-4.45-1.07-6.68-.27-1.43-.56-2.84-.87-4.25l28.74-16.39A8.48,8.48,0,0,0,477,237.25l-3.87-10.34a8.46,8.46,0,0,0-9.59-5.33L431.45,228q-2.59-4.91-5.54-9.56l21.44-25.28a8.45,8.45,0,0,0,0-11l-7.17-8.4a8.47,8.47,0,0,0-10.84-1.73l-28.08,17.09c-2.71-2.44-5.51-4.79-8.39-7l11.56-31.25a8.46,8.46,0,0,0-3.77-10.3L391,135.14a8.48,8.48,0,0,0-10.78,2.08L359.65,163q-5-2.06-10.23-3.72l.18-33.41a8.46,8.46,0,0,0-7.07-8.39l-10.89-1.82a8.46,8.46,0,0,0-9.41,5.64l-10.59,31.34c-3.58-.14-7.19-.13-10.81,0l-11.3-31.56a8.46,8.46,0,0,0-9.51-5.47l-10.86,2a8.46,8.46,0,0,0-6.92,8.51l.77,33.16c-3.44,1.09-6.81,2.32-10.12,3.66l-21.44-25.83a8.47,8.47,0,0,0-10.81-1.89l-9.52,5.61a8.47,8.47,0,0,0-3.58,10.37l12.07,30.91q-4.26,3.3-8.23,6.91l-29-17A8.44,8.44,0,0,0,171.56,174l-7,8.53a8.45,8.45,0,0,0,.18,11l21.93,24.94q-2.87,4.54-5.39,9.29l-33.07-6a8.44,8.44,0,0,0-9.49,5.5L135,237.6a8.48,8.48,0,0,0,3.92,10.25L168,263.73q-1.15,5.26-1.9,10.64L133,280a8.46,8.46,0,0,0-7,8.42l.1,11a8.46,8.46,0,0,0,7.19,8.29l32.68,5q.48,3.54,1.14,7.11c.22,1.19.46,2.38.71,3.56L138.76,340A8.47,8.47,0,0,0,135,350.32l3.87,10.34a8.46,8.46,0,0,0,9.59,5.33l32.28-6.47c1.7,3.25,3.5,6.42,5.43,9.5l-21.54,25.39a8.45,8.45,0,0,0,0,11l7.17,8.4a8.47,8.47,0,0,0,10.84,1.73l28-17.07q4.07,3.72,8.4,7.09l-11.53,31.16a8.46,8.46,0,0,0,3.77,10.3l9.61,5.44a8.48,8.48,0,0,0,10.78-2.08l20.43-25.53q5.12,2.12,10.39,3.85l-.17,33.06a8.46,8.46,0,0,0,7.07,8.39l10.89,1.82a8.46,8.46,0,0,0,9.41-5.64l10.43-30.85c3.69.15,7.42.15,11.16,0l11.11,31.05A8.46,8.46,0,0,0,332,472l10.86-2a8.48,8.48,0,0,0,6.92-8.52L349,428.94q5.37-1.69,10.54-3.79l21,25.31a8.46,8.46,0,0,0,10.81,1.89l9.52-5.61a8.47,8.47,0,0,0,3.58-10.37l-11.81-30.24q4.46-3.44,8.6-7.21l28.4,16.59a8.46,8.46,0,0,0,10.8-1.92l7-8.52a8.45,8.45,0,0,0-.18-11l-21.46-24.41c2-3.16,3.87-6.39,5.61-9.69l32.38,5.88a8.44,8.44,0,0,0,9.49-5.5L477,350a8.48,8.48,0,0,0-3.92-10.25l-28.53-15.6q1.18-5.44,1.94-11L479,307.56a8.46,8.46,0,0,0,7-8.42l-.1-11a8.47,8.47,0,0,0-7.18-8.29m-75.59-74.73a5,5,0,1,1-3.91,5.95,5,5,0,0,1,3.91-5.95m-36.44-28a5,5,0,1,1-1.64,6.93,5,5,0,0,1,1.64-6.93m-43.83-13.87a5,5,0,1,1,.83,7.07,5,5,0,0,1-.83-7.07m-45.92,2a5,5,0,1,1,3.2,6.36,5,5,0,0,1-3.2-6.36m-42.49,17.54a5,5,0,1,1,5.18,4.88,5,5,0,0,1-5.18-4.88m-31.11,24.48a5,5,0,1,1-2.81,6.54,5,5,0,0,1,2.81-6.54m-23.67,40.19a5,5,0,1,1-.41,7.1,5,5,0,0,1,.41-7.1m-8.5,45.85a5,5,0,1,1,2,6.82,5,5,0,0,1-2-6.82m17.65,47.45a5,5,0,1,1-4.26-5.7,5,5,0,0,1,4.26,5.7m19,43a5,5,0,1,1,3.91-5.95,5,5,0,0,1-3.91,5.95m36.44,28a5,5,0,1,1,1.64-6.93,5,5,0,0,1-1.64,6.93M288,425.6a5,5,0,1,1-.83-7.06,5,5,0,0,1,.83,7.06m45.93-2a5,5,0,1,1-3.2-6.36,5,5,0,0,1,3.2,6.36m42.48-17.55a5,5,0,1,1-5.18-4.88,5,5,0,0,1,5.18,4.88m31.11-24.48a5,5,0,1,1,2.82-6.54,5,5,0,0,1-2.82,6.54m23.68-40.18a5,5,0,1,1,.41-7.11,5,5,0,0,1-.41,7.11M327.77,411.08A119.3,119.3,0,1,1,423.29,272a119.3,119.3,0,0,1-95.52,139.06m112-115.5a5,5,0,1,1-2-6.81,5,5,0,0,1,2,6.81m-7.69-46a5,5,0,1,1-4.25-5.7,5,5,0,0,1,4.25,5.7" transform="translate(-52.5 -115.45)"/><path d="M283,362.28l-.73-.82Z" transform="translate(-52.5 -115.45)" style="fill:none"/><path d="M234.47,243.83l-.54-.64a4,4,0,0,1-.37-.65,4,4,0,0,0,.37.65c.29.34.6.73.91,1.13l0,0-.41-.51Z" transform="translate(-52.5 -115.45)" style="fill:none"/><path d="M255,264.3c-3.38-3.74-8.51-9.45-12.29-13.65C246.48,254.85,251.61,260.56,255,264.3Z" transform="translate(-52.5 -115.45)" style="fill:none"/><path d="M284.61,363.77c-.21-.16-.42-.33-.64-.52C284.19,363.44,284.4,363.61,284.61,363.77Z" transform="translate(-52.5 -115.45)" style="fill:none"/><path d="M283.9,363.18c-.24-.21-.48-.45-.72-.7C283.42,362.73,283.66,363,283.9,363.18Z" transform="translate(-52.5 -115.45)" style="fill:none"/><path d="M292.23,364.47l.06,0Z" transform="translate(-52.5 -115.45)" style="fill:none"/><path d="M293,364l.16-.11Z" transform="translate(-52.5 -115.45)" style="fill:none"/><path d="M285.49,364.38c-.22-.13-.44-.28-.66-.44C285.05,364.1,285.27,364.25,285.49,364.38Z" transform="translate(-52.5 -115.45)" style="fill:none"/><path d="M261.87,284.64c-1.17-8.6-1-13.87-5.08-18.36,4.1,4.49,3.91,9.76,5.08,18.36s5.14,30.11,7.68,41.83c1,4.48,2.52,10.25,4.33,15.87-1.81-5.62-3.36-11.39-4.33-15.87C267,314.75,263,293.23,261.87,284.64Z" transform="translate(-52.5 -115.45)" style="fill:none"/><polygon points="237.93 249.76 237.93 249.76 237.93 249.76 237.93 249.76" style="fill:none"/><path d="M238.51,246a8,8,0,0,0-2.82-1.88A8,8,0,0,1,238.51,246Z" transform="translate(-52.5 -115.45)" style="fill:none"/><path d="M317,366.4a6,6,0,0,1-1.05-.12A6,6,0,0,0,317,366.4Z" transform="translate(-52.5 -115.45)" style="fill:none"/><path d="M294.83,329.85c.06-5.57,1.07-11.11,3.19-13.91C295.9,318.74,294.89,324.28,294.83,329.85Z" transform="translate(-52.5 -115.45)" style="fill:none"/><path d="M311.26,362.29a6.22,6.22,0,0,1-.33-1.06A6.22,6.22,0,0,0,311.26,362.29Z" transform="translate(-52.5 -115.45)" style="fill:none"/><path d="M329.78,383.08c-.44,1.36-.86,2.69-1.27,4C328.92,385.77,329.34,384.44,329.78,383.08Z" transform="translate(-52.5 -115.45)" style="fill:none"/><path d="M286.17,364.74c-.16-.08-.33-.16-.49-.26C285.84,364.58,286,364.66,286.17,364.74Z" transform="translate(-52.5 -115.45)" style="fill:none"/><path d="M361.06,268.52c-2.59,4.92-4.51,11.33-5.89,17.64C356.55,279.85,358.47,273.44,361.06,268.52Z" transform="translate(-52.5 -115.45)" style="fill:none"/><path d="M299.31,358.08a7.63,7.63,0,0,1-.32,2.31A7.63,7.63,0,0,0,299.31,358.08Z" transform="translate(-52.5 -115.45)" style="fill:none"/><path d="M287.66,365.26l-.32-.08Z" transform="translate(-52.5 -115.45)" style="fill:none"/><path d="M286.94,365.06l-.49-.19Z" transform="translate(-52.5 -115.45)" style="fill:none"/><path d="M289.08,365.4h0Z" transform="translate(-52.5 -115.45)" style="fill:none"/><path d="M298.44,361.75l0,0Z" transform="translate(-52.5 -115.45)" style="fill:none"/><path d="M288.23,365.36l-.21,0Z" transform="translate(-52.5 -115.45)" style="fill:none"/><path d="M227.14,240.92c-.18.75.47,1.59,1.82,1.87C227.61,242.51,227,241.67,227.14,240.92Z" transform="translate(-52.5 -115.45)" style="fill:none"/><path d="M313.89,329.6c0-.84-.11-1.65-.22-2.45.11.8.18,1.61.22,2.45q0,.82,0,1.68C313.93,330.71,313.92,330.14,313.89,329.6Z" transform="translate(-52.5 -115.45)" style="fill:none"/><path d="M263.23,310.49c1.7,7.78,3.84,17.13,6.22,26.93-2.39-9.8-4.52-19.15-6.22-26.93a65.22,65.22,0,0,1-1.59-6.68,215.89,215.89,0,0,0-6.7-25.86,215.89,215.89,0,0,1,6.7,25.86A64.57,64.57,0,0,0,263.23,310.49Z" transform="translate(-52.5 -115.45)" style="fill:none"/><path d="M313.25,324.83c.17.75.31,1.53.42,2.32-.11-.79-.25-1.57-.42-2.32Z" transform="translate(-52.5 -115.45)" style="fill:none"/><path d="M252.51,256.21c1.94,2,3.58,3.28,5.51,3.84,3.58,1.05,8.71,4,7,10.55-1.53,6-1.17,15.37,2.15,31.26,2,9.7,8.4,35.74,18.52,55.7,3.78,7.45,8.17,5.73,8.17,5.73h0c2.55-1,2.55-5.21.25-9.64-2.3-5.73-5.11-13.28-4.6-21.88.36-6,3.34-12.45,8.47-15.83a14,14,0,0,1,5-2.09h0c.46-.1.94-.17,1.42-.23h0a13.79,13.79,0,0,1,1.45-.08c5.47,0,9.69,2.91,12.49,6.94a3.65,3.65,0,0,1,.08.55,3.65,3.65,0,0,0-.08-.55,22.61,22.61,0,0,1,3.86,11.29c.51,8.6-2.3,16.15-4.59,21.88-1.79,5.47-2.3,8.86.51,9.64,0,0,3.29,1.24,6.92-3.78h0a18.38,18.38,0,0,0,1.25-1.95C337.52,337.61,344,313.34,346,303.64c3.32-15.88,3.07-25.52,1.54-31.51-1.68-6.55,3.57-8.86,7.15-9.9,2.61-.76,4.68-2.77,7.68-6H252.51Z" transform="translate(-52.5 -115.45)" style="fill:none"/><path d="M311.26,362.29a6.5,6.5,0,0,0,4.66,4A6.5,6.5,0,0,1,311.26,362.29Z" transform="translate(-52.5 -115.45)" style="fill:none"/><path d="M309.14,324.37a13.27,13.27,0,0,0,4.11.46A13.27,13.27,0,0,1,309.14,324.37Z" transform="translate(-52.5 -115.45)" style="fill:none"/><path d="M235.07,250c1.89,2.33,4,4.77,6.15,7.18-2.13-2.41-4.26-4.85-6.15-7.18-3.54-4.37-5.36-5.76-6.3-6C229.71,244.23,231.53,245.62,235.07,250Z" transform="translate(-52.5 -115.45)" style="fill:none"/><path d="M319.05,450h0c0-16.1.63-30.52,6.32-52C319.68,419.48,319.09,433.9,319.05,450Z" transform="translate(-52.5 -115.45)" style="fill:none"/><path d="M357.25,291.66c1.79-10.42,5.75-21,11.12-27,7-7.79,13.41-16,16.73-19.93,1-1.49.64-2.27-.35-2.61h0c-3.54,4.07-13.51,13.72-20.33,21.34a25,25,0,0,0-3.36,5c-2.59,4.92-4.51,11.33-5.89,17.64-.45,2-.83,4-1.17,6-1.79,10.41-14,59.41-24.22,90.92-.44,1.36-.86,2.69-1.27,4-1.19,3.84-2.23,7.46-3.14,10.9-5.69,21.5-6.28,35.92-6.32,52h7.3c0-19.56.9-36.62,10.72-66.92C347.29,351.57,355.47,302.08,357.25,291.66Z" transform="translate(-52.5 -115.45)" style="fill:#f3cb7f"/><path d="M282,383.08c-4.35-13.43-8.78-30.12-12.57-45.66-2.38-9.8-4.52-19.15-6.22-26.93a64.57,64.57,0,0,1-1.59-6.68,215.89,215.89,0,0,0-6.7-25.86,48.72,48.72,0,0,0-2.78-6.86c-2-3.84-6.48-8.84-10.94-13.92-2.13-2.41-4.26-4.85-6.15-7.18-3.54-4.37-5.36-5.76-6.3-6a1.1,1.1,0,0,0-.35,0,.64.64,0,0,0-.51.42c3.52,4.23,9.4,11.65,15.72,18.71,5.37,6,9.39,18.14,11.18,28.55s10,59.91,20.18,91.42c9.82,30.3,10.67,47.36,10.73,66.92h7c0-4.94-.08-9.72-.32-14.59C291.7,421,289.37,405.73,282,383.08Z" transform="translate(-52.5 -115.45)" style="fill:#c39647"/><path d="M233.56,242.54a4,4,0,0,0,.37.65l.54.64h0a5.39,5.39,0,0,1,1.22.32,8,8,0,0,1,2.82,1.88c.17.16.33.33.5.51h0c.88,1,2.17,2.41,3.68,4.1,3.78,4.2,8.91,9.91,12.29,13.65l1.8,2c4.1,4.49,3.91,9.76,5.08,18.36s5.14,30.11,7.68,41.83c1,4.48,2.52,10.25,4.33,15.87,2.6,8.08,5.72,15.87,8.37,19.1v0l.73.82.19.2c.24.25.48.49.72.7l.07.07c.22.19.43.36.64.52l.22.17c.22.16.44.31.66.44l.19.1c.16.1.33.18.49.26l.28.13.49.19a3,3,0,0,0,.4.12l.32.08.36.07.21,0a5.74,5.74,0,0,0,.71,0h.14a6.1,6.1,0,0,0,1.35-.19h0a7.35,7.35,0,0,0,1.8-.74l.06,0A7.8,7.8,0,0,0,293,364l.16-.11c.25-.19.5-.38.73-.58,0,0-4.39,1.72-8.17-5.73-10.12-20-16.49-46-18.52-55.7-3.32-15.89-3.68-25.27-2.15-31.26,1.68-6.55-3.45-9.5-7-10.55-1.93-.56-3.57-1.86-5.51-3.84a2.86,2.86,0,0,1-2.79-3c-1-1.06-2-2.23-3.22-3.52a32.85,32.85,0,0,0-13-8.54,1,1,0,0,0-.06.16A1.52,1.52,0,0,0,233.56,242.54Z" transform="translate(-52.5 -115.45)" style="fill:#f8d182"/><path d="M235.69,244.15a5.39,5.39,0,0,0-1.22-.32h0l.41.51a16,16,0,0,1,4.13,2.2c-.17-.18-.33-.35-.5-.51A8,8,0,0,0,235.69,244.15Z" transform="translate(-52.5 -115.45)" style="fill:#f8d182"/><path d="M229,242.79a2,2,0,0,0,.35.07,24.6,24.6,0,0,1,4,.92c.51.17,1,.34,1.55.54-.31-.4-.62-.79-.91-1.13a4,4,0,0,1-.37-.65,1.52,1.52,0,0,1-.13-1.22,1,1,0,0,1,.06-.16,9.74,9.74,0,0,0-1-.31,11,11,0,0,0-5.22-.29,1.14,1.14,0,0,0-.16.36C227,241.67,227.61,242.51,229,242.79Z" transform="translate(-52.5 -115.45)" style="fill:#f8d182"/><path d="M289.55,331.77c-.51,8.6,2.3,16.15,4.6,21.88,2.3,4.43,2.3,8.6-.25,9.64h0c-.24.2-.49.39-.74.58L293,364a7.8,7.8,0,0,1-.71.46l-.06,0a7.35,7.35,0,0,1-1.8.74h0a7.62,7.62,0,0,0,8-3.42l0,0a6.34,6.34,0,0,0,.55-1.36,7.63,7.63,0,0,0,.32-2.31,9.05,9.05,0,0,0-.07-1.14c-.83-6.81-2.71-12-3.91-19.73-.14-.91-.25-1.87-.33-2.85-.12-1.47-.18-3-.17-4.51.06-5.57,1.07-11.11,3.19-13.91C292.89,319.32,289.91,325.78,289.55,331.77Z" transform="translate(-52.5 -115.45)" style="fill:#c39647"/><path d="M307.91,234l8.86-8.86a7.08,7.08,0,0,0,1.43-2.19,7.08,7.08,0,0,1-1.43,2.19Z" transform="translate(-52.5 -115.45)" style="fill:#eef5fb"/><path d="M320,225.87,307,238.79,320,225.87c3.2-3.44,3.39-7.23,2-10.09C323.34,218.64,323.15,222.43,320,225.87Z" transform="translate(-52.5 -115.45)" style="fill:#eef5fb"/><path d="M319.46,233.19a8.92,8.92,0,0,1,4.68-2.67A8.92,8.92,0,0,0,319.46,233.19Z" transform="translate(-52.5 -115.45)" style="fill:#eef5fb"/><path d="M308.71,214.05a9,9,0,0,1,4.68-2.67A9,9,0,0,0,308.71,214.05Z" transform="translate(-52.5 -115.45)" style="fill:#eef5fb"/><path d="M318.2,222.94a5.25,5.25,0,0,0-6.25-7.1A5.25,5.25,0,0,1,318.2,222.94Z" transform="translate(-52.5 -115.45)" style="fill:#eef5fb"/><path d="M252.51,256.21H362.38c1.12-1.21,2.36-2.58,3.82-4.14l.05-.06-.07-.14-55.59-90.43a2.85,2.85,0,0,0-4.85,0l-55.6,90.43a3,3,0,0,0-.42,1.35A2.86,2.86,0,0,0,252.51,256.21Z" transform="translate(-52.5 -115.45)" style="fill:#fff"/><path d="M259.32,251.71h11.74l37.65-37.66a9,9,0,0,1,4.68-2.67,7.94,7.94,0,0,1,8.52,4.4c1.43,2.86,1.24,6.65-2,10.09L307,238.79l-12.92,12.92H301l18.51-18.52a8.92,8.92,0,0,1,4.68-2.67,8,8,0,0,1,9.11,6c.67,2.6.09,5.67-2.56,8.51l-6.69,6.7h33.25a2.5,2.5,0,0,0,2.13-3.82l-49-79.64a2.5,2.5,0,0,0-4.27,0l-49,79.64A2.5,2.5,0,0,0,259.32,251.71Z" transform="translate(-52.5 -115.45)" style="fill:#dfaf63"/><path d="M307,238.79,320,225.87c3.2-3.44,3.39-7.23,2-10.09a7.94,7.94,0,0,0-8.52-4.4,9,9,0,0,0-4.68,2.67l-37.65,37.66h4.14l34.26-34.27a6.13,6.13,0,0,1,2.49-1.6,5.25,5.25,0,0,1,6.25,7.1,7.08,7.08,0,0,1-1.43,2.19L307.91,234,290.2,251.71h3.91Z" transform="translate(-52.5 -115.45)" style="fill:#f8d182"/><path d="M324.14,230.52a8.92,8.92,0,0,0-4.68,2.67L301,251.71H305l16.06-16.07c5.15-5.27,12.64,2,7.31,7.69L320,251.71h4l6.69-6.7c2.65-2.84,3.23-5.91,2.56-8.51A8,8,0,0,0,324.14,230.52Z" transform="translate(-52.5 -115.45)" style="fill:#f8d182"/><path d="M303,313.85c.21,0,.41.07.61.1a6.82,6.82,0,0,1,.81-.33C304,313.68,303.49,313.75,303,313.85Z" transform="translate(-52.5 -115.45)" style="fill:#f8d182"/><path d="M318.17,363.29c-2.81-.78-2.3-4.17-.51-9.64,2.29-5.73,5.1-13.28,4.59-21.88a22.61,22.61,0,0,0-3.86-11.29,3.65,3.65,0,0,1,.08.55c.16,2.22-2.12,3.63-5.22,3.8.17.75.31,1.53.42,2.32s.18,1.61.22,2.45c0,.54,0,1.11,0,1.68,0,8.6-2.9,19.69-3.15,28.2a6.71,6.71,0,0,0,.16,1.75,6.22,6.22,0,0,0,.33,1.06,6.5,6.5,0,0,0,4.66,4,6,6,0,0,0,1.05.12,4.87,4.87,0,0,0,.54,0c2.19-.14,4.51-1.49,6.34-4.56.46-.77.86-1.54,1.24-2.32C321.46,364.53,318.17,363.29,318.17,363.29Z" transform="translate(-52.5 -115.45)" style="fill:#f3cb7f"/><path d="M328.51,387.08c.41-1.31.83-2.64,1.27-4C340,351.57,352.21,302.57,354,292.16c.34-2,.72-4,1.17-6,1.38-6.31,3.3-12.72,5.89-17.64a25,25,0,0,1,3.36-5c6.82-7.62,16.79-17.27,20.33-21.34h0c-1.27-.45-3.55-.17-5.27.27-3.05.77-7.88,3.88-13.23,9.57l-.05.06c-1.46,1.56-2.7,2.93-3.82,4.14-3,3.25-5.07,5.26-7.68,6-3.58,1-8.83,3.35-7.15,9.9,1.53,6,1.78,15.63-1.54,31.51-2,9.7-8.49,34-19.67,53.92a18.38,18.38,0,0,1-1.25,1.95h0c-.38.78-.78,1.55-1.24,2.32-1.83,3.07-4.15,4.42-6.34,4.56a4.87,4.87,0,0,1-.54,0,6,6,0,0,1-1.05-.12,6.5,6.5,0,0,1-4.66-4,6.22,6.22,0,0,1-.33-1.06,6.71,6.71,0,0,1-.16-1.75c.25-8.51,3.12-19.6,3.15-28.2q0-.86,0-1.68c0-.84-.11-1.65-.22-2.45s-.25-1.57-.42-2.32a13.27,13.27,0,0,1-4.11-.46,14.13,14.13,0,0,1-3.45-1.42c-4.13-2.37-6.1-7.06-2.05-9-.2,0-.4-.08-.61-.1h0a14,14,0,0,0-5,2.09c-2.12,2.8-3.13,8.34-3.19,13.91,0,1.52.05,3,.17,4.51.08,1,.19,1.94.33,2.85,1.2,7.77,3.08,12.92,3.91,19.73a9.05,9.05,0,0,1,.07,1.14,7.63,7.63,0,0,1-.32,2.31,6.34,6.34,0,0,1-.55,1.36l0,0a7.62,7.62,0,0,1-8,3.42h0a6.1,6.1,0,0,1-1.35.19h-.14a5.74,5.74,0,0,1-.71,0l-.21,0-.36-.07-.32-.08a3,3,0,0,1-.4-.12l-.49-.19-.28-.13c-.16-.08-.33-.16-.49-.26l-.19-.1c-.22-.13-.44-.28-.66-.44l-.22-.17c-.21-.16-.42-.33-.64-.52l-.07-.07c-.24-.21-.48-.45-.72-.7l-.19-.2-.73-.82v0c-2.65-3.23-5.77-11-8.37-19.1-1.81-5.62-3.36-11.39-4.33-15.87-2.54-11.72-6.51-33.24-7.68-41.83s-1-13.87-5.08-18.36l-1.8-2c-3.38-3.74-8.51-9.45-12.29-13.65-1.51-1.69-2.8-3.13-3.68-4.1h0a16,16,0,0,0-4.13-2.2l0,0c-.52-.2-1-.37-1.55-.54a24.6,24.6,0,0,0-4-.92,2,2,0,0,1-.35-.07c-1.35-.28-2-1.12-1.82-1.87a1.14,1.14,0,0,1,.16-.36c-1,.34-1.43,1.12-.4,2.63.31.36.65.77,1,1.21a.64.64,0,0,1,.51-.42,1.1,1.1,0,0,1,.35,0c.94.22,2.76,1.61,6.3,6,1.89,2.33,4,4.77,6.15,7.18,4.46,5.08,8.89,10.08,10.94,13.92a48.72,48.72,0,0,1,2.78,6.86,215.89,215.89,0,0,1,6.7,25.86,65.22,65.22,0,0,0,1.59,6.68c1.7,7.78,3.83,17.13,6.22,26.93,3.79,15.54,8.22,32.23,12.57,45.66,7.35,22.65,9.68,37.91,10.41,52.33.24,4.87.3,9.65.32,14.59h26.3c0-16.1.63-30.52,6.32-52C326.28,394.54,327.32,390.92,328.51,387.08Z" transform="translate(-52.5 -115.45)" style="fill:#dfaf63"/><path d="M318.47,321a3.65,3.65,0,0,0-.08-.55c-2.8-4-7-6.94-12.49-6.94a13.79,13.79,0,0,0-1.45.08h0a6.82,6.82,0,0,0-.81.33c-4.05,1.94-2.08,6.63,2.05,9a14.13,14.13,0,0,0,3.45,1.42,13.27,13.27,0,0,0,4.11.46h0C316.35,324.66,318.63,323.25,318.47,321Zm-6,1.54a9.75,9.75,0,0,1-5.29-1.32c-2.89-1.66-4.27-4.94-1.44-6.3.18-.08.37-.16.58-.23s.67-.05,1-.05a10.47,10.47,0,0,1,8.74,4.86C316.52,321.3,314.84,322.44,312.5,322.57Z" transform="translate(-52.5 -115.45)" style="fill:#f3cb7f"/><path d="M316.1,319.53a10.47,10.47,0,0,0-8.74-4.86c-.34,0-.68,0-1,.05s-.4.15-.58.23c-2.83,1.36-1.45,4.64,1.44,6.3a9.75,9.75,0,0,0,5.29,1.32C314.84,322.44,316.52,321.3,316.1,319.53Z" transform="translate(-52.5 -115.45)" style="fill:#f2e68f"/><path d="M226.44,613.16c-10.06-1.41-15.44-5.23-23.38-9.78-4.09-2.35-12.57-8.27-9-4.25-7.9-4.52-15-9.92-22.41-15.53a53.27,53.27,0,0,0,6.66-24.68c.33-13.15-11.46-24.14-11.46-24.14s-10.5,14.55-8.64,28c.68,4.94,3.85,10.9,6.76,15.52a195.31,195.31,0,0,1-20.73-19.91A52,52,0,0,0,155,535.59c2.56-12.65-6.95-25.25-6.95-25.25s-12.61,12.24-13.1,25.57c-.19,4.93,1.89,11.3,3.93,16.27A190,190,0,0,1,121,528.23a50.81,50.81,0,0,0,14.5-20.42c4.63-11.76-2.4-25.55-2.4-25.55s-14.26,9.68-17,22.45c-1.09,5.12.07,12.29,1.31,17.6a208.52,208.52,0,0,1-13.79-28.44A49.89,49.89,0,0,0,121,476.67c6.46-10.57,2-25.07,2-25.07s-15.41,6.91-20.23,18.77c-1.87,4.6-2,11.41-1.76,16.68a223.14,223.14,0,0,1-8.37-30,49,49,0,0,0,19.72-13.63c8-9.1,6.22-23.85,6.22-23.85s-16,4-22.72,14.68c-2.6,4.14-3.9,10.75-4.55,15.89a226.78,226.78,0,0,1-3.24-31.08,47.81,47.81,0,0,0,21.8-9.87c9.31-7.42,10.06-22,10.06-22s-16.17,1.17-24.42,10.3c-3.56,3.94-6.1,11.07-7.55,16.09a199.17,199.17,0,0,1,2.28-32.41,46.61,46.61,0,0,0,23.17-5.81c10.25-5.57,13.46-19.48,13.46-19.48s-15.82-1.62-25.34,5.79c-4.5,3.5-8.48,10.92-10.63,15.52a158.15,158.15,0,0,1,3.68-15.9c1.49-5.87,3.15-11.42,4.93-16.68A45.64,45.64,0,0,0,122.81,343c10.82-3.63,16.29-16.52,16.29-16.52s-15-4.24-25.43,1.28c-4.87,2.57-10.93,8.35-12.78,13,5.13-12.83,8.82-21.69,13.37-30.1a44.39,44.39,0,0,0,23.13,2.5c11.07-1.66,18.53-13.16,18.53-13.16s-13.74-6.65-24.75-3.11c-5.75,1.86-13.35,7.56-15.67,11.5,5.19-8.81,8.34-13.46,11.63-18.17,2.57-.44,10.53-2.3,14.79-8.37a34.4,34.4,0,0,0,6.4-17.83s-11.18,3-15.75,7.67c-5.7,5.84-6.45,15.34-6.54,17.5-2.79,3.77-5.83,8.65-9.38,14.67,2.39-4,4.18-12.94,3.35-18.75-1.64-11.46-13.63-20.9-13.63-20.9s-7.08,11.74-3.73,22.42a43.13,43.13,0,0,0,12.14,19.47,219.74,219.74,0,0,0-14.31,30.26c.77-4.91,1.63-13.13-.11-18.46C96.68,306.65,83,299.29,83,299.29s-5,13,.22,23.2A45.47,45.47,0,0,0,99,340.05c-2.4,6.42-4.66,13.31-6.67,20.72-1,3.18-1.83,6.47-2.62,9.84-.22-5.08-1-12.05-3.32-16.45-5.68-10.63-20.78-15.6-20.78-15.6s-2.75,14,4.33,23.28a46.76,46.76,0,0,0,18.51,14.62,192.75,192.75,0,0,0-3.42,31.36c-1.15-5-3.09-11.38-6.08-15.19-7.6-9.67-23.66-12-23.66-12s-.26,14.56,8.49,22.61A47.85,47.85,0,0,0,85,414.67a227.72,227.72,0,0,0,2.37,32.14c-2-4.85-5.18-11.17-9-14.55C69,423.89,52.5,424.4,52.5,424.4S54.81,439.09,65,445.63a48.68,48.68,0,0,0,23.35,7.72,228.63,228.63,0,0,0,7.35,30.07c-2.87-4.32-6.83-9.44-10.88-12-10.87-6.76-27.41-3.31-27.41-3.31s4.92,14.35,16.36,19.1a49.57,49.57,0,0,0,24.47,3.66A212.69,212.69,0,0,0,110,517.74c-3.46-3.49-7.74-7.15-11.75-8.76-12.11-4.87-28.11,1.53-28.11,1.53s7.49,13.55,19.81,16.3a51,51,0,0,0,24.77-.51,194.73,194.73,0,0,0,16.19,23.63c-4.06-2.84-8.92-5.68-13.14-6.57-13-2.75-28,6.51-28,6.51s9.92,12.29,22.8,12.88a52,52,0,0,0,24.9-5,195,195,0,0,0,18.78,19.62c-4.49-2.07-9.69-3.94-14-4.08-13.6-.44-27,11.51-27,11.51s12.15,10.59,25.2,8.89a53,53,0,0,0,24-9.27,210.34,210.34,0,0,0,22.13,15.78c-4.92-1.3-10.59-2.31-15-1.69-13.75,2-25.07,16.35-25.07,16.35s14.09,8.49,26.9,4.48c11.83-3.71,18.49-15.7,22.49-13.61,10.67,5.57,16.05,9.39,29.52,15.18C220.62,618.87,231.51,613.87,226.44,613.16Z" transform="translate(-52.5 -115.45)" style="fill:#231f20"/><path d="M385.56,613.16c10.06-1.41,15.44-5.23,23.38-9.78,4.09-2.35,12.57-8.27,9-4.25,7.9-4.52,15-9.92,22.41-15.53a53.27,53.27,0,0,1-6.66-24.68c-.34-13.15,11.45-24.14,11.45-24.14s10.51,14.55,8.65,28c-.68,4.94-3.85,10.9-6.76,15.52a195.31,195.31,0,0,0,20.73-19.91A52,52,0,0,1,457,535.59c-2.56-12.65,7-25.25,7-25.25s12.62,12.24,13.1,25.57c.19,4.94-1.89,11.3-3.93,16.27A190,190,0,0,0,491,528.23a50.81,50.81,0,0,1-14.5-20.42c-4.63-11.76,2.4-25.55,2.4-25.55s14.26,9.68,17,22.45c1.09,5.12-.07,12.29-1.31,17.6a208,208,0,0,0,13.79-28.44A49.89,49.89,0,0,1,491,476.67c-6.46-10.57-2-25.07-2-25.07s15.41,6.91,20.23,18.77c1.87,4.6,2,11.41,1.76,16.68a224.63,224.63,0,0,0,8.37-30,49,49,0,0,1-19.72-13.63c-8-9.1-6.22-23.84-6.22-23.84s16.05,4,22.72,14.67c2.6,4.14,3.9,10.75,4.55,15.89a228.36,228.36,0,0,0,3.24-31.08,47.81,47.81,0,0,1-21.8-9.87c-9.31-7.42-10.06-22-10.06-22s16.17,1.18,24.42,10.3c3.56,3.94,6.1,11.07,7.55,16.09a200.3,200.3,0,0,0-2.28-32.41,46.61,46.61,0,0,1-23.17-5.81c-10.25-5.57-13.46-19.48-13.46-19.48s15.82-1.62,25.34,5.79c4.5,3.5,8.48,10.92,10.63,15.52a155.45,155.45,0,0,0-3.69-15.9c-1.48-5.87-3.14-11.42-4.92-16.68A45.64,45.64,0,0,1,489.19,343c-10.82-3.63-16.29-16.52-16.29-16.52s15-4.24,25.43,1.28c4.87,2.57,10.93,8.35,12.78,13-5.13-12.83-8.82-21.69-13.37-30.1a44.39,44.39,0,0,1-23.13,2.5C463.54,311.48,456.08,300,456.08,300s13.74-6.65,24.75-3.1c5.75,1.85,13.35,7.55,15.67,11.49-5.19-8.81-8.34-13.46-11.63-18.17-2.57-.44-10.53-2.3-14.79-8.37a34.4,34.4,0,0,1-6.4-17.83s11.18,3,15.75,7.67c5.7,5.84,6.45,15.34,6.54,17.5,2.79,3.77,5.83,8.65,9.38,14.67-2.39-4-4.18-12.94-3.35-18.75,1.64-11.46,13.63-20.9,13.63-20.9s7.08,11.74,3.73,22.42a43.13,43.13,0,0,1-12.14,19.47,220.31,220.31,0,0,1,14.31,30.26c-.77-4.91-1.63-13.13.11-18.46,3.68-11.23,17.4-18.59,17.4-18.59s5,13-.22,23.2A45.47,45.47,0,0,1,513,340.05c2.4,6.42,4.66,13.31,6.67,20.73,1,3.17,1.83,6.46,2.62,9.83.22-5.08,1-12.05,3.32-16.45,5.68-10.63,20.78-15.6,20.78-15.6s2.75,14-4.33,23.28a46.76,46.76,0,0,1-18.51,14.62,192.75,192.75,0,0,1,3.42,31.36c1.15-5,3.09-11.38,6.08-15.19,7.6-9.67,23.66-12,23.66-12s.26,14.56-8.49,22.61A47.85,47.85,0,0,1,527,414.67a228,228,0,0,1-2.37,32.15c2-4.86,5.18-11.18,9-14.56,9.34-8.37,25.88-7.86,25.88-7.86s-2.31,14.69-12.53,21.23a48.71,48.71,0,0,1-23.35,7.72,228.63,228.63,0,0,1-7.35,30.07c2.86-4.32,6.83-9.44,10.88-12,10.87-6.76,27.41-3.31,27.41-3.31s-4.92,14.35-16.36,19.1a49.57,49.57,0,0,1-24.47,3.66A214.15,214.15,0,0,1,502,517.74c3.46-3.49,7.74-7.15,11.75-8.76,12.11-4.87,28.11,1.53,28.11,1.53s-7.49,13.55-19.81,16.3a51,51,0,0,1-24.77-.51,194.73,194.73,0,0,1-16.19,23.63c4.06-2.84,8.92-5.68,13.14-6.57,13.05-2.75,28,6.51,28,6.51s-9.92,12.29-22.8,12.88a52,52,0,0,1-24.9-5,195,195,0,0,1-18.78,19.62c4.49-2.06,9.7-3.94,14-4.08,13.6-.44,27,11.51,27,11.51s-12.15,10.59-25.2,8.89a53,53,0,0,1-24-9.27,211.39,211.39,0,0,1-22.13,15.78c4.92-1.3,10.59-2.31,15-1.69,13.75,2,25.07,16.35,25.07,16.35s-14.09,8.49-26.9,4.48c-11.83-3.71-18.49-15.7-22.49-13.61-10.67,5.57-16.05,9.39-29.52,15.18C391.38,618.87,380.49,613.87,385.56,613.16Z" transform="translate(-52.5 -115.45)" style="fill:#231f20"/><path d="M194.4,635.59a7.93,7.93,0,0,0,7.92,7.92H409.68a7.93,7.93,0,0,0,7.92-7.92V571.51H194.4Z" transform="translate(-52.5 -115.45)" style="fill:#231f20"/><path d="M286.15,583.21h9.63v3H290v6.92h5.1v3H290V606h-3.86Z" transform="translate(-52.5 -115.45)" style="fill:#fff"/><path d="M297.49,595.07v-1c0-7.67,2.89-11.18,7-11.18s7,3.51,7,11.18v1c0,7.67-2.88,11.18-7,11.18S297.49,602.74,297.49,595.07Zm10.14,0v-1c0-5.89-1.28-8.26-3.12-8.26s-3.12,2.37-3.12,8.26v1c0,5.88,1.29,8.26,3.12,8.26S307.63,601,307.63,595.07Z" transform="translate(-52.5 -115.45)" style="fill:#fff"/><path d="M314.5,583.21h4.44c4.84,0,8.27,2.24,8.27,7.08v.23a6.42,6.42,0,0,1-3.67,6.08l4.14,9.36h-4.14l-3.66-8.32-.51,0h-1V606H314.5ZM319,594.78c2.57,0,4.33-1.3,4.33-4.23v-.19c0-3.12-1.87-4.16-4.45-4.16h-.54v8.58Z" transform="translate(-52.5 -115.45)" style="fill:#fff"/><path d="M203.54,622.94v-.71c0-7.41,3.79-11.18,8.86-11.18a9.34,9.34,0,0,1,3.55.65v3.38a7.48,7.48,0,0,0-3.44-1c-2.92,0-5.07,2.6-5.07,8v1c0,6.14,2.34,8.13,4.8,8.13a3.32,3.32,0,0,0,.9-.13v-6.76h-2.89v-2.86h6.4v11.76a11.89,11.89,0,0,1-4.56.94C207.41,634.15,203.54,630.74,203.54,622.94Z" transform="translate(-52.5 -115.45)" style="fill:#fff"/><path d="M220,611.21h4.45c4.83,0,8.27,2.24,8.27,7.08v.23A6.42,6.42,0,0,1,229,624.6l4.13,9.36H229l-3.67-8.32-.5,0h-1V634H220Zm4.53,11.57c2.57,0,4.33-1.3,4.33-4.23v-.19c0-3.12-1.88-4.16-4.45-4.16h-.55v8.58Z" transform="translate(-52.5 -115.45)" style="fill:#fff"/><path d="M235.52,611.21h10.1v3h-6.24V621H245v3h-5.58v6.93h6.36v3H235.52Z" transform="translate(-52.5 -115.45)" style="fill:#fff"/><path d="M252.68,611.14h4.1L262.2,634h-3.86l-1.09-5.07H252.1L251,634h-3.75Zm4,14.86-2-9.14-2,9.14Z" transform="translate(-52.5 -115.45)" style="fill:#fff"/><path d="M265.71,614.23H262v-3h11.2v3h-3.67V634h-3.82Z" transform="translate(-52.5 -115.45)" style="fill:#fff"/><path d="M282.17,611.21h10.1v3H286V621h5.57v3H286v6.93h6.35v3H282.17Z" transform="translate(-52.5 -115.45)" style="fill:#fff"/><path d="M295.19,611.21h3.94l3.86,9.65,3.86-9.65h3.94V634h-3.7v-15.5l-4.06,10h-.12l-4.05-10V634h-3.67Z" transform="translate(-52.5 -115.45)" style="fill:#fff"/><path d="M314.3,611.21h4c5.11,0,8.54,2.47,8.54,7.51v.06c0,4.88-3.28,7.44-8.19,7.67h-.47V634H314.3Zm4.37,12.28c2.57-.06,4.29-1.59,4.29-4.61v-.07c0-3.15-1.64-4.64-4.21-4.64h-.59v9.32Z" transform="translate(-52.5 -115.45)" style="fill:#fff"/><path d="M329.32,611.21h3.86v19.73h5.57v3h-9.43Z" transform="translate(-52.5 -115.45)" style="fill:#fff"/><path d="M339.54,623.07v-1c0-7.67,2.88-11.18,7-11.18s7,3.51,7,11.18v1c0,7.67-2.88,11.18-7,11.18S339.54,630.74,339.54,623.07Zm10.13,0v-1c0-5.89-1.28-8.26-3.12-8.26s-3.11,2.37-3.11,8.26v1c0,5.88,1.28,8.26,3.11,8.26S349.67,629,349.67,623.07Z" transform="translate(-52.5 -115.45)" style="fill:#fff"/><path d="M359.46,624.73l-5.26-13.52h4l3.2,9.29,3.28-9.29h3.9l-5.27,13.52V634h-3.86Z" transform="translate(-52.5 -115.45)" style="fill:#fff"/><path d="M370.54,611.21h10.1v3H374.4V621H380v3H374.4v6.93h6.36v3H370.54Z" transform="translate(-52.5 -115.45)" style="fill:#fff"/><path d="M383.56,611.21H388c4.84,0,8.27,2.24,8.27,7.08v.23a6.42,6.42,0,0,1-3.67,6.08l4.14,9.36h-4.14L389,625.64l-.51,0h-1V634h-3.87Zm4.53,11.57c2.57,0,4.33-1.3,4.33-4.23v-.19c0-3.12-1.88-4.16-4.45-4.16h-.54v8.58Z" transform="translate(-52.5 -115.45)" style="fill:#fff"/><path d="M398.46,633.15v-3.38a10,10,0,0,0,4.45,1.33c1.64,0,2.88-.78,2.88-2.34v-.07c0-1.3-.5-2.24-3-4.74-3.35-3.35-4.56-4.78-4.56-7.35v-.06c0-3.35,2.73-5.56,6.24-5.56a9.8,9.8,0,0,1,4.21.81v3.38a8.1,8.1,0,0,0-3.78-1.1c-1.56,0-2.81.88-2.81,2.31v.06c0,1.27.51,1.95,3,4.42,3.63,3.58,4.57,5.1,4.57,7.67v.07c0,3.34-2.85,5.59-6.4,5.59A12.11,12.11,0,0,1,398.46,633.15Z" transform="translate(-52.5 -115.45)" style="fill:#fff"/><path d="M195.91,520.23a.56.56,0,0,1-.55-.55c0-.32.4-.67.79-1,5.53-4.86,13.39-11,13.39-19.35,0-6.24-3.43-7.51-5.41-7.51a5.64,5.64,0,0,0-4.19,1.42,6.46,6.46,0,0,0-1.66,3.8c0,.39-.11.75-.51.75-.2,0-.31-.28-.35-.75s-.24-3.64-.24-4.78c0-.36,0-.52.47-.79a15,15,0,0,1,7.15-1.5c6.95,0,9.92,3.79,9.92,8.41,0,7.66-8.5,14.34-13.59,18.41-.2.15-.12.27.08.27h2.68c.68,0,5.34,0,6.8-.23,2.72-.32,4-1.66,4.5-3.52.12-.47.24-.63.47-.63s.32.35.32.75a45.37,45.37,0,0,1-1.14,5.65c-.32,1.06-1,1.18-3.44,1.18Z" transform="translate(-52.5 -115.45)" style="fill:#020000"/><path d="M226.29,520.9c-7.78,0-9.91-9-9.91-14.61,0-9.2,3.23-16.35,10.54-16.35,7.82,0,9.92,8.29,9.92,14.57C236.84,514.31,233.08,520.9,226.29,520.9Zm-.2-29.19c-3,0-5.09,4.07-5.09,13.08,0,6.83,1.7,14.34,6,14.34,3.2,0,5.17-5.42,5.17-13.08C232.21,499.22,230.4,491.71,226.09,491.71Z" transform="translate(-52.5 -115.45)" style="fill:#020000"/><path d="M237.78,520.23a.56.56,0,0,1-.55-.55c0-.32.4-.67.79-1,5.53-4.86,13.39-11,13.39-19.35,0-6.24-3.43-7.51-5.41-7.51a5.64,5.64,0,0,0-4.19,1.42,6.4,6.4,0,0,0-1.66,3.8c0,.39-.11.75-.51.75-.2,0-.32-.28-.35-.75s-.24-3.64-.24-4.78c0-.36,0-.52.47-.79a15,15,0,0,1,7.15-1.5c7,0,9.92,3.79,9.92,8.41,0,7.66-8.5,14.34-13.59,18.41-.2.15-.12.27.08.27h2.68c.67,0,5.34,0,6.8-.23,2.72-.32,4-1.66,4.5-3.52.12-.47.24-.63.47-.63s.32.35.32.75a43.86,43.86,0,0,1-1.15,5.65c-.31,1.06-.94,1.18-3.43,1.18Z" transform="translate(-52.5 -115.45)" style="fill:#020000"/><path d="M266.78,502.06v-5.17c0-.95,0-1.42-.6-1.42-.75,0-3.71,1.54-4.58,1.89a1.67,1.67,0,0,1-.55.16.45.45,0,0,1-.32-.43.72.72,0,0,1,.4-.56c.16-.08,7.74-5,9.12-6.08a2.25,2.25,0,0,1,1-.51c.36,0,.47.43.47.83s-.23,4.22-.23,10.27v7.3c0,3.79,0,7.15.16,8.89.11,1.26.31,1.86,1.57,2.13a24.47,24.47,0,0,0,2.61.24.37.37,0,0,1,.36.4c0,.27-.2.35-.63.35-3,0-5.53-.12-6.6-.12-.91,0-4.23.12-6.76.12-.43,0-.67-.08-.67-.35s.16-.4.32-.4a24.82,24.82,0,0,0,3.16-.28c1.26-.27,1.46-.83,1.58-2.09.16-1.74.24-5.1.2-8.89Z" transform="translate(-52.5 -115.45)" style="fill:#020000"/><path d="M291,519.88c-.63-.28-.75-.48-.75-1.35,0-2.17.16-4.54.2-5.17s.16-1,.47-1,.4.36.4.67a8.17,8.17,0,0,0,.35,2,5.45,5.45,0,0,0,5.65,4c3.56,0,5.29-2.41,5.29-4.51,0-1.93-.59-3.75-3.87-6.31l-1.81-1.43c-4.35-3.39-5.85-6.16-5.85-9.36,0-4.34,3.63-7.46,9.12-7.46a19.05,19.05,0,0,1,5.26.67c.35.08.55.19.55.47,0,.51-.16,1.66-.16,4.74,0,.87-.12,1.19-.43,1.19s-.4-.24-.4-.72a4.81,4.81,0,0,0-1-2.6,5,5,0,0,0-4.31-1.94c-2.92,0-4.7,1.7-4.7,4.07,0,1.82.91,3.2,4.19,5.69l1.1.83c4.78,3.59,6.48,6.32,6.48,10.07a8,8,0,0,1-3.71,6.87,11.38,11.38,0,0,1-6.28,1.62A13.72,13.72,0,0,1,291,519.88Z" transform="translate(-52.5 -115.45)" style="fill:#020000"/><path d="M318.6,492.7l-5.89.16c-2.29.08-3.24.27-3.83,1.14a4.89,4.89,0,0,0-.67,1.39c-.08.31-.2.47-.43.47s-.36-.2-.36-.63c0-.63.75-4.23.83-4.54.12-.52.24-.75.47-.75a9.7,9.7,0,0,0,1.7.47c1.15.12,2.65.2,3.95.2H330a18.66,18.66,0,0,0,2.73-.2,9.2,9.2,0,0,1,1.07-.2c.27,0,.31.24.31.83,0,.83-.12,3.56-.12,4.58,0,.4-.11.64-.35.64s-.4-.2-.44-.79l0-.44c-.07-1-1.14-2.13-4.66-2.21l-5-.12v16.2c0,3.63,0,6.75.19,8.45.12,1.11.36,2,1.55,2.13a16.36,16.36,0,0,0,2,.16c.43,0,.63.12.63.32s-.31.39-.75.39c-2.61,0-5.09-.12-6.2-.12-.91,0-3.4.12-5,.12-.51,0-.79-.12-.79-.39s.16-.32.63-.32a6.43,6.43,0,0,0,1.43-.16c.79-.16,1-1,1.14-2.17.2-1.66.2-4.78.2-8.41Z" transform="translate(-52.5 -115.45)" style="fill:#020000"/><path d="M338.62,501.94c0-6,0-7.11-.07-8.37s-.4-2-1.7-2.25a8.07,8.07,0,0,0-1.54-.12c-.44,0-.67-.08-.67-.36s.27-.35.86-.35c1.07,0,2.22,0,3.21,0s1.93.08,2.48.08c1.27,0,9.13,0,9.88,0a15.79,15.79,0,0,0,1.7-.24,3.42,3.42,0,0,1,.63-.16c.2,0,.24.16.24.36a24.64,24.64,0,0,0-.32,2.57c0,.39-.12,2.13-.2,2.6,0,.2-.12.44-.39.44s-.36-.2-.36-.56a4.23,4.23,0,0,0-.24-1.42c-.27-.71-.67-1.18-2.64-1.42-.67-.08-4.82-.16-5.61-.16-.2,0-.28.12-.28.4v10c0,.28,0,.44.28.44.87,0,5.41,0,6.32-.08a2.75,2.75,0,0,0,1.9-.6c.27-.31.43-.51.63-.51s.27.08.27.32-.15.87-.31,2.88c0,.79-.16,2.37-.16,2.65s0,.75-.36.75a.31.31,0,0,1-.35-.36,10.27,10.27,0,0,0-.16-1.42c-.2-.79-.75-1.38-2.21-1.54-.75-.08-4.66-.12-5.61-.12-.2,0-.24.16-.24.4v3.12c0,1.34,0,5,0,6.12.08,2.72.71,3.32,4.74,3.32a9.94,9.94,0,0,0,3.72-.48c1-.47,1.5-1.3,1.77-2.92.08-.44.16-.59.44-.59s.31.31.31.71a30.53,30.53,0,0,1-.51,4.38c-.28,1-.63,1-2.13,1-3,0-5.14-.08-6.84-.12s-2.92-.12-4.1-.12c-.44,0-1.31,0-2.26,0s-1.93.08-2.72.08c-.52,0-.79-.12-.79-.39s.16-.32.63-.32a6.33,6.33,0,0,0,1.42-.16c.79-.16,1-1,1.15-2.17.19-1.66.19-4.78.19-8.41Z" transform="translate(-52.5 -115.45)" style="fill:#020000"/><path d="M357.19,494.36c-.91-2.17-1.58-2.61-3-3a6,6,0,0,0-1.54-.16c-.36,0-.48-.12-.48-.36s.44-.35,1-.35c2.09,0,4.35.12,5.73.12,1,0,2.88-.12,4.86-.12.47,0,.91.08.91.35s-.24.36-.6.36a2.81,2.81,0,0,0-1.54.28.94.94,0,0,0-.39.83,11.52,11.52,0,0,0,.91,3l6.79,17.93H370c1.7-4.34,6.83-17.06,7.78-19.67a4.76,4.76,0,0,0,.35-1.46.74.74,0,0,0-.51-.75,5.19,5.19,0,0,0-1.58-.2c-.36,0-.67,0-.67-.32s.36-.39,1.11-.39c2,0,3.63.12,4.14.12.67,0,2.53-.12,3.72-.12.51,0,.83.08.83.35s-.24.36-.64.36a3.44,3.44,0,0,0-1.93.47c-.51.36-1.11,1-2.17,3.56-1.54,3.71-2.61,5.84-4.75,10.7-2.52,5.77-4.38,10.08-5.25,12.05-1,2.29-1.26,2.92-1.82,2.92s-.75-.55-1.5-2.41Z" transform="translate(-52.5 -115.45)" style="fill:#020000"/><path d="M386.66,501.94c0-6,0-7.11-.08-8.37s-.48-2-1.35-2.21a5.47,5.47,0,0,0-1.42-.16c-.39,0-.63-.08-.63-.4s.32-.31.95-.31c1.5,0,4,.12,5.13.12s3.32-.12,4.82-.12c.52,0,.83.08.83.31s-.23.4-.63.4a6.55,6.55,0,0,0-1.18.12c-1.07.2-1.39.87-1.47,2.25s-.08,2.37-.08,8.37v7c0,3.83,0,7,.16,8.65.12,1.06.4,1.77,1.58,1.93a16.52,16.52,0,0,0,2,.16c.43,0,.63.12.63.32s-.32.39-.75.39c-2.61,0-5.1-.12-6.16-.12-.91,0-3.4.12-5,.12-.51,0-.79-.12-.79-.39s.16-.32.63-.32a6.33,6.33,0,0,0,1.42-.16c.79-.16,1-.83,1.15-2,.2-1.66.2-4.78.2-8.61Z" transform="translate(-52.5 -115.45)" style="fill:#020000"/><path d="M401.75,501.94c0-6,0-7.11-.08-8.37s-.4-2-1.7-2.25a8.07,8.07,0,0,0-1.54-.12c-.44,0-.67-.08-.67-.36s.27-.35.86-.35c1.07,0,2.22,0,3.2,0s1.94.08,2.49.08c1.27,0,9.13,0,9.88,0a15.79,15.79,0,0,0,1.7-.24,3.42,3.42,0,0,1,.63-.16c.2,0,.24.16.24.36a24.64,24.64,0,0,0-.32,2.57c0,.39-.12,2.13-.2,2.6,0,.2-.12.44-.39.44s-.36-.2-.36-.56a4.44,4.44,0,0,0-.23-1.42c-.28-.71-.68-1.18-2.65-1.42-.67-.08-4.82-.16-5.61-.16-.2,0-.28.12-.28.4v10c0,.28,0,.44.28.44.87,0,5.41,0,6.32-.08s1.54-.2,1.89-.6.44-.51.64-.51.27.08.27.32-.15.87-.31,2.88c0,.79-.16,2.37-.16,2.65s0,.75-.36.75a.31.31,0,0,1-.35-.36,10.27,10.27,0,0,0-.16-1.42c-.2-.79-.75-1.38-2.21-1.54-.75-.08-4.66-.12-5.61-.12-.2,0-.24.16-.24.4v3.12c0,1.34,0,5,0,6.12.08,2.72.71,3.32,4.74,3.32a9.94,9.94,0,0,0,3.72-.48c1-.47,1.5-1.3,1.77-2.92.08-.44.16-.59.44-.59s.32.31.32.71a30.51,30.51,0,0,1-.52,4.38c-.28,1-.63,1-2.13,1-3,0-5.14-.08-6.84-.12s-2.92-.12-4.1-.12c-.44,0-1.31,0-2.25,0s-1.94.08-2.73.08c-.52,0-.79-.12-.79-.39s.16-.32.63-.32a6.33,6.33,0,0,0,1.42-.16c.79-.16,1-1,1.15-2.17.2-1.66.2-4.78.2-8.41Z" transform="translate(-52.5 -115.45)" style="fill:#020000"/><path d="M419.91,494.08a4,4,0,1,1,4,3.74A3.76,3.76,0,0,1,419.91,494.08Zm7.1,0a3.14,3.14,0,0,0-6.28,0,3.14,3.14,0,0,0,6.28,0Zm-4.77-.61v-1.07c0-.26-.18-.3-.52-.3,0,0-.09-.05-.09-.13s.09-.17.22-.17H422c.09,0,.43,0,.73,0s.56,0,1,0c.73,0,1.89.12,1.89,1.16,0,.43-.17.77-.9,1.29l.78.9c.55.65.64.65.73.65s.13,0,.13.12-.05.18-.39.18a1.68,1.68,0,0,1-1.68-.82l-.6-.82h-.52v.39c0,.77.05.86.09.9a1.16,1.16,0,0,0,.43.05c.09,0,.13,0,.13.12a.16.16,0,0,1-.17.18h-.18c-.08,0-.47-.05-.69-.05l-.64.05h-.21c-.09,0-.31-.05-.31-.18s.05-.12.13-.12c.39,0,.43,0,.48-.26a9.78,9.78,0,0,0,0-1.12Zm.94.43a1.33,1.33,0,0,0,.61.13.67.67,0,0,0,.38-.08.83.83,0,0,0,.39-.73.94.94,0,0,0-1-.95s-.3,0-.39.09Z" transform="translate(-52.5 -115.45)" style="fill:#020000"/><path d="M224.11,534.69a5.73,5.73,0,0,0-1.44-2.77,3.5,3.5,0,0,0-1.56-.35c-.39,0-.63,0-.63-.35s.32-.35.86-.35c2,0,4.17.11,4.53.11s2.06-.11,4.32-.11c.55,0,.82.11.82.35s-.31.35-.7.35a2.11,2.11,0,0,0-1,.15c-.35.16-.43.43-.43.86a25.44,25.44,0,0,0,.86,3.59c.66,2.57,4.29,14.39,5,16.57h.11l7.57-20.31c.39-1.1.66-1.41,1-1.41s.62.59,1.13,1.83l8.11,19.62h.12c.7-2.61,3.82-12.91,5.18-17.47a8.07,8.07,0,0,0,.39-2.26c0-.63-.35-1.17-1.87-1.17-.39,0-.66-.12-.66-.35s.31-.35.89-.35c2.07,0,3.71.11,4.06.11s2-.11,3.24-.11c.43,0,.7.07.7.31s-.2.39-.55.39a4.42,4.42,0,0,0-1.36.19c-.94.35-1.37,1.91-2.19,4.14-1.79,4.91-5.88,17.31-7.8,23.16-.42,1.37-.62,1.84-1.13,1.84s-.62-.47-1.21-1.92l-8.11-19.53h-.08c-.74,2-5.92,15.79-7.6,19.38-.74,1.6-.94,2.07-1.4,2.07s-.55-.43-.9-1.45Z" transform="translate(-52.5 -115.45)" style="fill:#020000"/><path d="M268,542.18c0-5.93,0-7-.08-8.27s-.47-2-1.33-2.19a5.84,5.84,0,0,0-1.4-.15c-.39,0-.63-.08-.63-.39s.32-.31.94-.31c1.48,0,3.94.11,5.07.11s3.28-.11,4.76-.11c.51,0,.82.07.82.31s-.24.39-.63.39a7.39,7.39,0,0,0-1.17.11c-1.05.2-1.36.86-1.44,2.23s-.08,2.34-.08,8.27V549c0,3.78,0,6.86.16,8.54.12,1,.39,1.76,1.56,1.91a15.88,15.88,0,0,0,2,.16c.43,0,.62.11.62.31s-.31.39-.74.39c-2.57,0-5-.12-6.08-.12s-3.36.12-4.92.12c-.5,0-.78-.12-.78-.39s.16-.31.63-.31a6.2,6.2,0,0,0,1.4-.16c.78-.15,1-.82,1.13-2,.2-1.64.2-4.72.2-8.5Z" transform="translate(-52.5 -115.45)" style="fill:#020000"/><path d="M285,555c.08,3.05.58,4.06,1.36,4.34a6.35,6.35,0,0,0,2,.27c.43,0,.66.08.66.31s-.35.39-.89.39c-2.54,0-4.1-.12-4.84-.12-.35,0-2.18.12-4.21.12-.51,0-.86,0-.86-.39s.24-.31.63-.31a6.77,6.77,0,0,0,1.75-.2c1-.31,1.17-1.44,1.21-4.83l.35-23.09c0-.78.12-1.33.51-1.33s.78.51,1.44,1.21c.47.51,6.4,6.87,12.09,12.52,2.65,2.65,7.92,8.27,8.58,8.89H305l-.38-17.51c0-2.38-.4-3.12-1.33-3.51a6.49,6.49,0,0,0-2.07-.23c-.47,0-.62-.12-.62-.35s.43-.35,1-.35c2,0,3.9.11,4.72.11.43,0,1.91-.11,3.82-.11.51,0,.9,0,.9.35s-.23.35-.7.35a4.52,4.52,0,0,0-1.17.11c-1.09.32-1.41,1.14-1.45,3.32l-.42,24.61c0,.86-.16,1.21-.51,1.21s-.9-.43-1.33-.86c-2.45-2.34-7.45-7.45-11.5-11.47-4.25-4.21-8.58-9.08-9.28-9.82h-.12Z" transform="translate(-52.5 -115.45)" style="fill:#020000"/><path d="M317.67,555c.08,3.05.59,4.06,1.37,4.34a6.26,6.26,0,0,0,2,.27c.43,0,.67.08.67.31s-.35.39-.9.39c-2.54,0-4.1-.12-4.84-.12-.35,0-2.18.12-4.21.12-.5,0-.86,0-.86-.39s.24-.31.63-.31a6.72,6.72,0,0,0,1.75-.2c1-.31,1.17-1.44,1.21-4.83l.35-23.09c0-.78.12-1.33.51-1.33s.78.51,1.44,1.21c.47.51,6.4,6.87,12.09,12.52,2.65,2.65,7.92,8.27,8.58,8.89h.2l-.39-17.51c0-2.38-.39-3.12-1.33-3.51a6.46,6.46,0,0,0-2.07-.23c-.46,0-.62-.12-.62-.35s.43-.35,1-.35c2,0,3.89.11,4.71.11.43,0,1.91-.11,3.83-.11.5,0,.89,0,.89.35s-.23.35-.7.35a4.52,4.52,0,0,0-1.17.11c-1.09.32-1.4,1.14-1.44,3.32L340,559.61c0,.86-.16,1.21-.51,1.21s-.9-.43-1.32-.86c-2.46-2.34-7.45-7.45-11.51-11.47-4.25-4.21-8.58-9.08-9.28-9.82h-.12Z" transform="translate(-52.5 -115.45)" style="fill:#020000"/><path d="M349.69,542.18c0-5.93,0-7-.08-8.27s-.39-1.95-1.68-2.23a8.78,8.78,0,0,0-1.52-.11c-.43,0-.66-.08-.66-.35s.27-.35.86-.35l3.16,0c1,0,1.91.08,2.45.08,1.25,0,9,0,9.75,0a13.56,13.56,0,0,0,1.68-.23,3.64,3.64,0,0,1,.63-.16c.19,0,.23.16.23.35a23.8,23.8,0,0,0-.31,2.54c0,.39-.12,2.11-.2,2.57,0,.2-.12.43-.39.43s-.35-.19-.35-.54a4.31,4.31,0,0,0-.23-1.41c-.28-.7-.67-1.17-2.62-1.4-.66-.08-4.75-.16-5.53-.16-.2,0-.28.12-.28.39v9.87c0,.27,0,.43.28.43.85,0,5.34,0,6.24-.08s1.52-.19,1.87-.58.43-.51.62-.51.27.08.27.31-.15.86-.31,2.85c0,.78-.15,2.34-.15,2.61s0,.74-.35.74-.36-.15-.36-.35a8.48,8.48,0,0,0-.15-1.4c-.2-.78-.74-1.37-2.18-1.52-.75-.08-4.61-.12-5.54-.12-.2,0-.24.15-.24.39V549c0,1.33,0,4.91,0,6,.08,2.7.7,3.28,4.68,3.28a9.85,9.85,0,0,0,3.67-.47c1-.47,1.48-1.28,1.75-2.88.08-.43.16-.59.43-.59s.32.31.32.7a31.28,31.28,0,0,1-.51,4.33c-.27,1-.63,1-2.11,1-2.92,0-5.07-.08-6.74-.12s-2.89-.12-4.06-.12c-.43,0-1.29,0-2.22,0s-1.91.08-2.69.08c-.51,0-.78-.12-.78-.39s.15-.31.62-.31a6.2,6.2,0,0,0,1.4-.16c.78-.15,1-1,1.13-2.14.2-1.64.2-4.72.2-8.31Z" transform="translate(-52.5 -115.45)" style="fill:#020000"/><path d="M371.61,542.18c0-5.93,0-7-.08-8.27s-.39-1.95-1.68-2.23a8.78,8.78,0,0,0-1.52-.11c-.43,0-.66-.08-.66-.35s.27-.35.86-.35c2.06,0,4.52.11,5.34.11,1.33,0,4.29-.11,5.5-.11,2.45,0,5.07.23,7.17,1.67a6.77,6.77,0,0,1,2.66,5.35c0,2.88-1.21,5.53-5.15,8.73,3.47,4.37,6.16,7.84,8.46,10.26,2.19,2.26,3.78,2.53,4.37,2.65a6,6,0,0,0,1.09.12c.31,0,.47.11.47.31s-.27.39-.74.39H394a8,8,0,0,1-4.17-.74c-1.68-.9-3.16-2.73-5.34-5.73-1.56-2.15-3.36-4.8-3.86-5.39a.84.84,0,0,0-.71-.27l-3.39-.08c-.19,0-.31.08-.31.32V549c0,3.63,0,6.71.19,8.35.12,1.13.35,2,1.52,2.14a17.71,17.71,0,0,0,1.92.16c.31,0,.46.11.46.31s-.27.39-.78.39c-2.26,0-5.14-.12-5.73-.12-.74,0-3.2.12-4.76.12-.5,0-.78-.12-.78-.39s.16-.31.63-.31a6.2,6.2,0,0,0,1.4-.16c.78-.15,1-1,1.13-2.14.2-1.64.2-4.72.2-8.31Zm4.6,3.08c0,.43.08.58.35.7a10.39,10.39,0,0,0,3,.39,3.94,3.94,0,0,0,2.77-.66c1.17-.86,2.3-2.66,2.3-5.85,0-5.54-3.66-7.14-6-7.14a9,9,0,0,0-2.07.15c-.27.08-.35.24-.35.55Z" transform="translate(-52.5 -115.45)" style="fill:#020000"/><path d="M417.6,430.08a8,8,0,0,0-8-8H202.37a8,8,0,0,0-8,8V477.9H417.6Z" transform="translate(-52.5 -115.45)"/><path d="M234.05,451.45v-.1c0-10.2,8-18.2,18.85-18.2a20.41,20.41,0,0,1,14.2,5.1l-5.7,6.85a12.35,12.35,0,0,0-8.45-3.3c-5,0-8.95,4.25-8.95,9.6v.1c0,5.65,3.95,9.7,9.5,9.7a9.89,9.89,0,0,0,5.6-1.45V455.5h-6.9v-7.1h16.1v15.75a23.66,23.66,0,0,1-15.2,5.4C242.2,469.55,234.05,462.05,234.05,451.45Z" transform="translate(-52.5 -115.45)" style="fill:#fff"/><path d="M272.05,451.45v-.1c0-10.05,8.1-18.2,18.9-18.2s18.8,8.05,18.8,18.1v.1c0,10-8.1,18.2-18.9,18.2S272.05,461.5,272.05,451.45Zm27.8,0v-.1c0-5.05-3.65-9.45-9-9.45s-8.85,4.3-8.85,9.35v.1c0,5,3.65,9.45,8.95,9.45S299.85,456.5,299.85,451.45Z" transform="translate(-52.5 -115.45)" style="fill:#fff"/><path d="M314.35,433.85h9.7v26.5H341v8.5H314.35Z" transform="translate(-52.5 -115.45)" style="fill:#fff"/><path d="M344.7,433.85h13.5c12.5,0,19.75,7.2,19.75,17.3v.1c0,10.1-7.35,17.6-19.95,17.6H344.7Zm13.65,26.4c5.8,0,9.65-3.2,9.65-8.85v-.1c0-5.6-3.85-8.85-9.65-8.85h-4v17.8Z" transform="translate(-52.5 -115.45)" style="fill:#fff"/></svg>