<svg id="Layer_1" data-name="Layer 1" xmlns="http://www.w3.org/2000/svg" viewBox="0 0 359.2 80.4"><title>signeasy-logo</title><path d="M89.23,259.89c3.21-6,4.26-12.71,5.25-19.35,1-6.86,1.81-13.74,2.74-20.61a3,3,0,0,1,.8-1.64c5.49-5.4,11.08-10.7,16.54-16.13,6.11-6.08,12.11-12.27,18.17-18.39a2.15,2.15,0,0,1,1.28-.66c7.19,0,14.38,0,21.58,0a2.68,2.68,0,0,1,.48.1c-.75,1-1.45,2-2.16,2.9-3.7,4.86-7.43,9.69-11.06,14.59a14.15,14.15,0,0,0-1.79,3.48c-3.95,10.51-7.91,21-11.73,31.56a8.84,8.84,0,0,1-4.07,4.77q-12.33,7.6-24.42,15.56c-2,1.33-3.62,3.33-5.45,5-1,.87-2,1.65-3,2.46H89.23Zm41.06-65.37c-1.2,1.13-2.28,2.19-3.4,3.21-8.1,7.35-16.22,14.67-24.29,22.05a3.69,3.69,0,0,0-1.13,2c-1.38,7.84-2.69,15.7-4,23.55-.28,1.66-.53,3.31-.8,5,.28,0,.34-.11.4-.21q5.89-9,11.75-18a1.45,1.45,0,0,0,0-1.24,4.7,4.7,0,0,1,1-5.78,4.65,4.65,0,0,1,5.56-.49,4.64,4.64,0,0,1-2.75,8.56,1.41,1.41,0,0,0-1.5.83c-2.73,4.22-5.49,8.41-8.24,12.62L99.33,252a.81.81,0,0,0,.62-.14q12-7.86,24-15.74a3,3,0,0,0,1.09-1.45c2.72-8.12,5.39-16.25,8.1-24.37,1.26-3.77,2.6-7.51,3.93-11.34Zm87.5,69c-1.9-.54-3.81-1-5.7-1.63-.91-.28-1.76-.72-2.77-1.14l1.85-4.08c2.13.66,4.15,1.41,6.22,1.91a17.34,17.34,0,0,0,9.34-.32c4.36-1.37,7-4.32,7.38-8.88.22-2.43,0-4.9,0-7.41-.13.17-.27.34-.39.52a11.83,11.83,0,0,1-9.71,5.48c-9.94.72-16.44-5.9-17.76-15.14a24.63,24.63,0,0,1,1.16-12.24,15.22,15.22,0,0,1,16.73-10.1c3.34.41,6.39,1.39,8.75,3.93.55.6,1,1.29,1.67,2.15,0-.81,0-1.39,0-2a3.19,3.19,0,0,1,3.2-3.22c2-.1,4,0,6.07,0v4.31h-2.46c-1.63,0-2,.42-2,2.05,0,9.89,0,19.77,0,29.66,0,4.5-1.21,8.58-4.63,11.77a17.34,17.34,0,0,1-8.76,4.12,7.49,7.49,0,0,0-.76.25Zm16.82-34.32-.19-.06c-.11-1.27-.17-2.54-.32-3.81-.75-6.5-4.36-9.92-10.9-10.33A10.36,10.36,0,0,0,212.81,221a19.45,19.45,0,0,0-1.33,11,13.72,13.72,0,0,0,4,8.46,10.8,10.8,0,0,0,17.83-4.44A58.46,58.46,0,0,0,234.61,229.16Zm177.45,34.32c5-1.48,7.3-5.31,9.11-9.81,4.73-11.7,9.65-23.32,14.45-35,.73-1.78,1.42-3.46,3.81-3.05v-4.35h-1.88c-3.95,0-4.77.57-6.23,4.26L420.9,241.87s-.06,0-.09-.07c-2-4.92-3.89-9.84-5.87-14.75-1.64-4.06-3.33-8.1-5-12.14-.62-1.48-1.28-3.06-3.09-3.36a45.78,45.78,0,0,0-4.71-.35v4.46c2.05-.33,2.93.81,3.62,2.45,3.47,8.3,7,16.57,10.53,24.85.72,1.69,1.94,3.39,1.93,5.08s-1.18,3.42-2,5a21,21,0,0,1-2.79,4.26,5.34,5.34,0,0,1-6.49,1.14,32.18,32.18,0,0,1-3.17-2l-2.36,3.65a7.85,7.85,0,0,0,1.07.84c1.59.87,3.21,1.69,4.82,2.53Zm-117.4-15.31,30.33,0a11.81,11.81,0,0,0,1.68-.08c1.49-.19,2.84-.85,3.05-2.42.31-2.34.29-4.72.42-7.05h-4.87a2.67,2.67,0,0,0-.06.33c0,.83,0,1.67,0,2.51,0,1.66-.48,2.12-2.16,2.12H305.88c-1.75,0-2.1-.37-2.11-2.11v-17h19.35v-4.64H303.88V201.23h17.71c1.09,0,1.43.74,1.44,1.68s0,2.13,0,3.26h4.87c0-1.68,0-3.3,0-4.92,0-3.48-1.19-4.66-4.69-4.66H295.05c-.43,0-.85,0-1.26.06v4.62h4.59v42.28h-4.61v4.55C294.11,248.13,294.38,248.17,294.66,248.17ZM154.3,236.8c0,.64,0,1.28,0,1.91-.32,4,1.62,6.52,5.07,8.11a22.85,22.85,0,0,0,14.49,1.77c8.64-1.78,13.2-9,11.09-17.38-1-4.12-3.84-6.85-7.41-8.79-3.15-1.71-6.51-3-9.68-4.7a29.15,29.15,0,0,1-5.94-3.93,7,7,0,0,1-.06-10.08c3.63-3.76,11.64-4.3,15.73-1.05a4.2,4.2,0,0,1,1.83,3.81c0,.58,0,1.17,0,1.76h5c0-1,0-1.93,0-2.84A7.33,7.33,0,0,0,180,198a20.14,20.14,0,0,0-17.81-.63A12.49,12.49,0,0,0,154.72,212a12.33,12.33,0,0,0,6.26,8c3,1.75,6.27,3.13,9.35,4.8a44.68,44.68,0,0,1,6.7,4.11c4.22,3.37,4.32,11.17-1.53,13.95-4.91,2.34-9.78,1.83-14.39-1a3.69,3.69,0,0,1-1.89-3.62c0-.54,0-1.09,0-1.7h-4.82A1.1,1.1,0,0,0,154.3,236.8Zm204.35-11.48a13.31,13.31,0,0,0-1.37-7.27,6.44,6.44,0,0,0-5.57-3.22,30.58,30.58,0,0,0-6.76.41c-2.45.44-2.95,1.33-3,3.81,0,.31,0,.63,0,1.12h-4.67c-.56-4.58-.47-6.62,4.14-8.39a22.07,22.07,0,0,1,14.11-.6c4.83,1.36,7.78,5,8,10.29.27,6.29.2,12.59.25,18.88,0,3.45,0,3.45,3.49,3.47h1.15V248c-2.28,0-4.54.13-6.78-.05a2.84,2.84,0,0,1-2.61-2.84c-.11-1.18,0-2.38,0-3.6a50.66,50.66,0,0,1-3.36,4.08c-4.81,4.74-14.12,4.59-18.89-.18a10.74,10.74,0,0,1,2.46-16.64,26.15,26.15,0,0,1,11.09-3.09C353.07,225.47,355.82,225.44,358.65,225.32Zm-.14,4c-3.26.2-6.58.19-9.82.67a20.71,20.71,0,0,0-6.29,2.09,6,6,0,0,0-3.23,6.32A6.46,6.46,0,0,0,343.3,244a9.65,9.65,0,0,0,6.55.47C355.4,242.91,359.62,235.73,358.51,229.3ZM257.16,246.79c0-5.59,0-11.17,0-16.75.05-8.77,6.38-15.12,14.8-14.89a6.53,6.53,0,0,1,6.73,5.34,14.13,14.13,0,0,1,.47,3.3c.05,6.46,0,12.91.06,19.37a13.54,13.54,0,0,0,.15,1.91c.29,1.78,1.15,2.84,2.92,3,2.2.18,4.44,0,6.69,0v-4.27h-1.36c-3.28,0-3.28,0-3.28-3.34,0-5.22,0-10.44,0-15.67a33.07,33.07,0,0,0-.38-4.87c-.67-4.06-2.46-7.44-6.65-8.73-6-1.82-11.58-1-16.37,3.22a40.34,40.34,0,0,0-3.82,4.43c0-1.23.05-2.57,0-3.91-.09-2-1-3.35-2.91-3.52-2.2-.2-4.44-.05-6.69-.05v4.25h2.35c1.86,0,2.24.38,2.24,2.23q0,14.47,0,28.94v1.35h5.07Zm140.52-28.85c.26-3-1.26-4.87-3.83-6a18.59,18.59,0,0,0-15.13-.1,9,9,0,0,0-5.24,11c.93,3.1,3.29,5,6,6.3,2.36,1.17,4.85,2.06,7.23,3.18a31.14,31.14,0,0,1,5.32,2.92,4.63,4.63,0,0,1-.1,7.58,8.61,8.61,0,0,1-3,1.43,12.45,12.45,0,0,1-9.59-1.42,58.42,58.42,0,0,1-4.87-3.56l-2.67,3.19a3.32,3.32,0,0,0,.21.4c4.7,6,15.48,8.06,22.06,4.15a9.5,9.5,0,0,0,4.8-10.22,9.39,9.39,0,0,0-5.36-6.65c-2.4-1.26-5-2.19-7.41-3.35a35.16,35.16,0,0,1-5.89-3.11,4.52,4.52,0,0,1,1-8,12,12,0,0,1,9-.27c2,.73,2.65,1.69,2.7,3.86,0,.27.06.53.09.84h4.66C397.67,219.36,397.61,218.65,397.68,217.94ZM200.31,243.82c-1.81,0-2.19-.38-2.19-2.16v-17c0-3.11,0-6.22,0-9.33,0-2.23-.93-3.69-2.79-3.87-2.28-.22-4.59-.06-6.9-.06v4.22h2.36c1.86,0,2.26.4,2.26,2.23q0,12.55,0,25.12a15.18,15.18,0,0,0,.07,1.91c.19,1.44.81,2.78,2.33,3,2.42.32,4.89.32,7.37.45v-4.5ZM441.87,200.7a36.74,36.74,0,0,1,1.84,5.21.85.85,0,0,0,1.24.68c.25-.1.42-.53.53-.84.56-1.68,1.1-3.37,1.64-5.07l.24.06v5.9l1.07-.07v-7.81c-1.83-.18-1.83-.18-2.32,1.39s-1,3.06-1.52,4.85L443,200c-.49-1.57-.58-1.62-2.32-1.17v7.69h1.18Zm-244.12-4H193v6.19h4.8Zm239.4,3.17h2.58l-.06-1.13h-6.42v1.16h2.57v6.77l1.33-.11Z" transform="translate(-89.23 -183.08)"/></svg>