<svg width="8" height="8" viewBox="0 0 8 8" fill="none" xmlns="http://www.w3.org/2000/svg">
<path d="M3.28313 6.8L3.50313 5.16L2.14313 6.2C1.94313 6.36 1.76313 6.44 1.56313 6.44C1.14313 6.44 0.803125 6.08 0.803125 5.66C0.803125 5.3 1.06313 5.04 1.34313 4.94L2.96313 4.26L1.34313 3.58C1.04313 3.46 0.803125 3.2 0.803125 2.84C0.803125 2.42 1.16313 2.08 1.58313 2.08C1.78313 2.08 1.94313 2.16 2.14313 2.32L3.50313 3.36L3.28313 1.74C3.22313 1.24 3.52313 0.84 4.00313 0.84C4.48313 0.84 4.78313 1.22 4.72313 1.72L4.50313 3.36L5.86313 2.32C6.06313 2.16 6.24313 2.08 6.44313 2.08C6.86313 2.08 7.20313 2.44 7.20313 2.86C7.20313 3.22 6.94313 3.46 6.66313 3.58L5.04313 4.26L6.66313 4.94C6.96313 5.06 7.20313 5.32 7.20313 5.68C7.20313 6.1 6.84313 6.44 6.42313 6.44C6.22313 6.44 6.06313 6.36 5.86313 6.2L4.50313 5.16L4.72313 6.78C4.78313 7.28 4.48313 7.68 4.00313 7.68C3.52313 7.68 3.22313 7.3 3.28313 6.8Z" fill="#161618"/>
</svg>
