<svg id="Layer_1" data-name="Layer 1" xmlns="http://www.w3.org/2000/svg" xmlns:xlink="http://www.w3.org/1999/xlink" viewBox="0 0 113.93 111.92"><defs><clipPath id="clip-path" transform="translate(-339.29 -249.78)"><rect x="339.29" y="249.78" width="113.93" height="111.92" style="fill:none"/></clipPath></defs><g style="clip-path:url(#clip-path)"><path d="M371.09,282.14c0,13.9,9,27.55,25.16,27.55,16.41,0,25.16-13.65,25.16-27.55s-12.21-27.88-25.16-27.88-25.16,14-25.16,27.88" transform="translate(-339.29 -249.78)" style="fill:#d6d6d6"/><path d="M392.72,254.6l2.64,47-7.51-45.4-.82.39,7.25,43.85-10.91-41.59-.75.57,10.86,41.46-14.1-38.48c-.23.23-.45.48-.67.72l14,38.22L376,266.6c-.19.29-.37.58-.55.87L392.05,302l-18.63-30.54c-.14.33-.28.67-.41,1l18.72,30.71-20.12-26-.21,1.17L391.33,304,371.12,283.4c0,.44,0,.89.08,1.33l20.53,21L372.33,291c.14.48.29,1,.45,1.45l18.57,14.12-16.12-8.8c.31.52.63,1,1,1.53l15.59,8.51L380.46,304a22.26,22.26,0,0,0,2.11,1.62l12.15,4c.51,0,1,0,1.53,0s1,0,1.53,0l12.39-4.09a22.84,22.84,0,0,0,2.07-1.6l-11.53,3.8,15.73-8.59c.34-.49.65-1,.95-1.52l-16.24,8.87,18.62-14.16c.16-.48.31-1,.44-1.44L400.77,305.7l20.54-21c0-.44.06-.89.08-1.34L401.18,304l19.92-25.79q-.09-.58-.21-1.17l-20.12,26,18.73-30.71c-.13-.33-.27-.67-.42-1L400.46,302,417,267.47c-.18-.29-.37-.58-.56-.87l-16.68,34.72,14-38.22-.66-.72L399,300.86l10.87-41.46-.76-.57-10.9,41.59,7.24-43.85c-.27-.13-.54-.27-.82-.39l-7.5,45.4,2.64-47-.87-.15-2.67,47.41-2.66-47.41-.87.15" transform="translate(-339.29 -249.78)" style="fill:#fff"/><path d="M372.86,354.72c-2.3-.75-3.4-1.86-5.07-3.26-.86-.72-2.6-2.45-1.94-1.37a49.35,49.35,0,0,1-4.6-4.55,12.85,12.85,0,0,0,2.58-5.51c.62-3.06-1.69-6.12-1.69-6.12s-3.06,3-3.18,6.2a10.6,10.6,0,0,0,.94,3.91,45.57,45.57,0,0,1-4-5.51,12.34,12.34,0,0,0,3.46-4.9c1.12-2.85-.58-6.19-.58-6.19s-3.46,2.34-4.13,5.44a10.38,10.38,0,0,0,.25,4,45.87,45.87,0,0,1-3.19-6.34,12.11,12.11,0,0,0,4.23-4.18c1.57-2.56.5-6.08.5-6.08s-3.74,1.67-4.91,4.55a10.72,10.72,0,0,0-.42,4.17,49.28,49.28,0,0,1-2.06-7.22,11.78,11.78,0,0,0,4.79-3.31c1.95-2.2,1.51-5.78,1.51-5.78s-3.9,1-5.51,3.56a10.2,10.2,0,0,0-1.1,3.83,54.59,54.59,0,0,1-.73-7.36,11.69,11.69,0,0,0,5.18-2.38c2.26-1.8,2.44-5.32,2.44-5.32s-3.92.28-5.92,2.49A10.15,10.15,0,0,0,348,311a54.2,54.2,0,0,1,.52-7.41,11.39,11.39,0,0,0,5.51-1.42c2.49-1.35,3.26-4.72,3.26-4.72s-3.83-.39-6.14,1.4a10.83,10.83,0,0,0-2.43,3.46,47,47,0,0,1,1.88-7.5,10.92,10.92,0,0,0,5.66-.4c2.62-.88,3.95-4,3.95-4s-3.63-1-6.17.31a11,11,0,0,0-3.13,3.19,38.67,38.67,0,0,1,1.52-3.57c.59-1.31,1.21-2.54,1.84-3.7a10.87,10.87,0,0,0,5.52.57c2.68-.4,4.49-3.19,4.49-3.19s-3.33-1.62-6-.75a7.46,7.46,0,0,0-3.53,2.51,67.73,67.73,0,0,1,4.37-6.49,10.59,10.59,0,0,0,5.31,1.53c2.66.07,4.89-2.31,4.89-2.31s-2.95-2.12-5.67-1.75a8.19,8.19,0,0,0-4.14,2.05C361.05,277,362,276,362.94,275a5.62,5.62,0,0,0,3.81-1.35,8.18,8.18,0,0,0,2.23-3.91,10.51,10.51,0,0,0-4,1.15,6.8,6.8,0,0,0-2.26,3.83c-.8.76-1.72,1.78-2.8,3a8.3,8.3,0,0,0,1.56-4.25c.09-2.75-2.32-5.45-2.32-5.45s-2.15,2.45-1.8,5.09a10.35,10.35,0,0,0,2,5.06,52,52,0,0,0-4.59,6.49,10.89,10.89,0,0,0,.73-4.32c-.4-2.78-3.3-5.07-3.3-5.07s-1.72,2.84-.91,5.44a10.83,10.83,0,0,0,3,4.76c-.83,1.4-1.64,2.92-2.42,4.58q-.54,1-1,2.19a10.09,10.09,0,0,0-.1-4c-.89-2.72-4.22-4.51-4.22-4.51s-1.22,3.17.06,5.63a11.07,11.07,0,0,0,3.73,4.19,45.75,45.75,0,0,0-2.1,7.19,9.93,9.93,0,0,0-.79-3.8c-1.38-2.58-5.05-3.78-5.05-3.78s-.66,3.39,1.06,5.64a11.34,11.34,0,0,0,4.48,3.54,52.3,52.3,0,0,0-.77,7.63,10.48,10.48,0,0,0-1.5-3.78c-1.84-2.35-5.73-2.91-5.73-2.91s-.07,3.54,2.05,5.49a11.72,11.72,0,0,0,5.15,2.77,52.29,52.29,0,0,0,.48,7.34,9.81,9.81,0,0,0-2.06-3.25c-2.26-2-6.27-1.91-6.27-1.91s.56,3.57,3,5.15a11.84,11.84,0,0,0,5.57,1.87,51.15,51.15,0,0,0,1.64,6.76,9.42,9.42,0,0,0-2.39-2.54c-2.64-1.64-6.65-.8-6.65-.8s1.2,3.48,4,4.64a12.32,12.32,0,0,0,5.82.9A45.68,45.68,0,0,0,353.1,336a9.4,9.4,0,0,0-2.8-2.07c-2.94-1.19-6.82.36-6.82.36s1.81,3.29,4.8,4a12.46,12.46,0,0,0,6-.13,48.13,48.13,0,0,0,3.59,5.36,9.52,9.52,0,0,0-3.1-1.53c-3.16-.66-6.79,1.58-6.79,1.58s2.41,3,5.53,3.12a12.66,12.66,0,0,0,6-1.18,50.6,50.6,0,0,0,4.53,4.61,9.62,9.62,0,0,0-3.43-1c-3.3-.11-6.54,2.79-6.54,2.79s2.94,2.56,6.11,2.16c2.92-.39,5-2.92,5.82-2.26,2.27,1.74,3.37,2.86,6.28,4.77-1-.69,1.71-1.41.56-1.78" transform="translate(-339.29 -249.78)"/><path d="M419.65,354.72c2.3-.75,3.4-1.86,5.07-3.26.86-.72,2.6-2.45,1.93-1.37a49.45,49.45,0,0,0,4.61-4.55,12.61,12.61,0,0,1-2.58-5.51c-.62-3.06,1.69-6.12,1.69-6.12s3.05,3,3.17,6.2a10.4,10.4,0,0,1-.94,3.91,44.53,44.53,0,0,0,4-5.51,12.35,12.35,0,0,1-3.45-4.9c-1.12-2.85.58-6.19.58-6.19s3.46,2.34,4.12,5.44a10.18,10.18,0,0,1-.25,4,44.85,44.85,0,0,0,3.2-6.34,12.11,12.11,0,0,1-4.24-4.18c-1.57-2.56-.49-6.08-.49-6.08s3.74,1.67,4.91,4.55a10.91,10.91,0,0,1,.42,4.17,49.23,49.23,0,0,0,2.05-7.22,11.83,11.83,0,0,1-4.78-3.31c-1.95-2.2-1.51-5.78-1.51-5.78s3.89,1,5.51,3.56a10.2,10.2,0,0,1,1.1,3.83,54.56,54.56,0,0,0,.72-7.36,11.69,11.69,0,0,1-5.18-2.38c-2.25-1.8-2.44-5.32-2.44-5.32s3.93.28,5.93,2.49a10.51,10.51,0,0,1,1.72,3.54,54.18,54.18,0,0,0-.53-7.41,11.42,11.42,0,0,1-5.51-1.42c-2.48-1.35-3.26-4.72-3.26-4.72s3.83-.39,6.14,1.4a10.68,10.68,0,0,1,2.43,3.46,47,47,0,0,0-1.87-7.5,10.92,10.92,0,0,1-5.66-.4c-2.63-.88-4-4-4-4s3.63-1,6.16.31a10.92,10.92,0,0,1,3.13,3.19,36.12,36.12,0,0,0-1.52-3.57c-.59-1.31-1.2-2.54-1.84-3.7a10.82,10.82,0,0,1-5.51.57c-2.69-.4-4.5-3.19-4.5-3.19s3.33-1.62,6-.75a7.43,7.43,0,0,1,3.52,2.51,67.73,67.73,0,0,0-4.37-6.49,10.59,10.59,0,0,1-5.31,1.53c-2.66.07-4.88-2.31-4.88-2.31s2.94-2.12,5.67-1.75a8.23,8.23,0,0,1,4.14,2.05c-1.58-1.85-2.51-2.81-3.47-3.78a5.62,5.62,0,0,1-3.81-1.35,8.25,8.25,0,0,1-2.24-3.91,10.54,10.54,0,0,1,4,1.15,6.83,6.83,0,0,1,2.25,3.83,40.25,40.25,0,0,1,2.8,3,8.48,8.48,0,0,1-1.56-4.25c-.09-2.75,2.33-5.45,2.33-5.45s2.14,2.45,1.8,5.09a10.22,10.22,0,0,1-2,5.06,52,52,0,0,1,4.6,6.49,11.07,11.07,0,0,1-.74-4.32c.4-2.78,3.31-5.07,3.31-5.07s1.71,2.84.9,5.44a10.84,10.84,0,0,1-3,4.76c.82,1.4,1.64,2.92,2.41,4.58q.54,1,1,2.19a10.09,10.09,0,0,1,.1-4c.89-2.72,4.22-4.51,4.22-4.51s1.22,3.17-.05,5.63a11.24,11.24,0,0,1-3.73,4.19,45.75,45.75,0,0,1,2.09,7.19,10.12,10.12,0,0,1,.8-3.8c1.38-2.58,5-3.78,5-3.78s.66,3.39-1.05,5.64a11.34,11.34,0,0,1-4.48,3.54,53.72,53.72,0,0,1,.77,7.63,10.3,10.3,0,0,1,1.5-3.78c1.84-2.35,5.73-2.91,5.73-2.91s.07,3.54-2.06,5.49a11.71,11.71,0,0,1-5.14,2.77,55.49,55.49,0,0,1-.48,7.34,10,10,0,0,1,2.05-3.25c2.27-2,6.28-1.91,6.28-1.91s-.56,3.57-3,5.15a11.83,11.83,0,0,1-5.58,1.87,49.58,49.58,0,0,1-1.63,6.76,9.42,9.42,0,0,1,2.39-2.54c2.63-1.64,6.64-.8,6.64-.8s-1.19,3.48-4,4.64a12.32,12.32,0,0,1-5.82.9A45.74,45.74,0,0,1,439.4,336a9.56,9.56,0,0,1,2.81-2.07c2.94-1.19,6.82.36,6.82.36s-1.82,3.29-4.81,4a12.46,12.46,0,0,1-6-.13,48.06,48.06,0,0,1-3.58,5.36,9.38,9.38,0,0,1,3.09-1.53c3.17-.66,6.8,1.58,6.8,1.58s-2.41,3-5.54,3.12a12.66,12.66,0,0,1-6-1.18,50.6,50.6,0,0,1-4.53,4.61,9.67,9.67,0,0,1,3.44-1c3.3-.11,6.54,2.79,6.54,2.79s-2.95,2.56-6.11,2.16c-2.92-.39-5-2.92-5.82-2.26-2.27,1.74-3.38,2.86-6.29,4.77,1.05-.69-1.71-1.41-.55-1.78" transform="translate(-339.29 -249.78)"/><path d="M367.77,359.66a2,2,0,0,0,2,2h52.9a2,2,0,0,0,2-2V343.38h-57v16.28" transform="translate(-339.29 -249.78)"/><path d="M368.49,332.47a.14.14,0,0,1-.14-.14c0-.07.1-.16.2-.25,1.38-1.21,3.33-2.74,3.33-4.82,0-1.55-.85-1.87-1.34-1.87a1.39,1.39,0,0,0-1.05.36,1.59,1.59,0,0,0-.41.94c0,.1,0,.19-.13.19s-.08-.07-.08-.19-.06-.9-.06-1.19a.2.2,0,0,1,.11-.2,3.85,3.85,0,0,1,1.78-.37c1.73,0,2.47.94,2.47,2.09,0,1.91-2.11,3.57-3.38,4.59-.05,0,0,.07,0,.07h.67c.16,0,1.32,0,1.69-.06a1.16,1.16,0,0,0,1.12-.88c0-.12.06-.16.12-.16s.08.09.08.19a11.09,11.09,0,0,1-.29,1.41c-.08.26-.23.29-.85.29h-3.86" transform="translate(-339.29 -249.78)"/><path d="M376.15,332.64c-1.94,0-2.47-2.24-2.47-3.64,0-2.29.81-4.07,2.63-4.07s2.47,2.06,2.47,3.63c0,2.44-.94,4.08-2.63,4.08m0-7.27c-.73,0-1.27,1-1.27,3.26,0,1.7.43,3.57,1.51,3.57.8,0,1.29-1.35,1.29-3.26,0-1.7-.46-3.57-1.53-3.57" transform="translate(-339.29 -249.78)"/><path d="M379.11,332.47a.14.14,0,0,1-.14-.14c0-.07.1-.16.2-.25,1.38-1.21,3.33-2.74,3.33-4.82,0-1.55-.85-1.87-1.34-1.87a1.39,1.39,0,0,0-1.05.36,1.59,1.59,0,0,0-.41.94c0,.1,0,.19-.13.19s-.08-.07-.09-.19-.05-.9-.05-1.19a.2.2,0,0,1,.11-.2,3.85,3.85,0,0,1,1.78-.37c1.73,0,2.47.94,2.47,2.09,0,1.91-2.11,3.57-3.38,4.59-.05,0,0,.07,0,.07h.67c.17,0,1.32,0,1.69-.06a1.16,1.16,0,0,0,1.12-.88c0-.12.06-.16.12-.16s.08.09.08.19a11.09,11.09,0,0,1-.29,1.41c-.08.26-.23.29-.85.29h-3.86" transform="translate(-339.29 -249.78)"/><path d="M386.43,328v-1.29c0-.24,0-.35-.15-.35a6.71,6.71,0,0,0-1.14.47.43.43,0,0,1-.14,0,.11.11,0,0,1-.08-.11.18.18,0,0,1,.1-.14s1.93-1.26,2.27-1.51a.58.58,0,0,1,.26-.13c.09,0,.12.11.12.21s-.06,1.05-.06,2.55v1.82c0,.95,0,1.78,0,2.22s.08.46.39.53a5.74,5.74,0,0,0,.65.05.09.09,0,0,1,.09.1c0,.07,0,.09-.16.09-.75,0-1.38,0-1.64,0s-1.05,0-1.68,0c-.11,0-.17,0-.17-.09s0-.1.08-.1a5.77,5.77,0,0,0,.78-.06c.32-.07.37-.21.4-.52s.06-1.27.05-2.22V328" transform="translate(-339.29 -249.78)"/><path d="M392.64,332.38c-.16-.07-.19-.11-.19-.33,0-.54,0-1.13.05-1.29s0-.25.12-.25.1.08.1.16a2,2,0,0,0,.09.5,1.36,1.36,0,0,0,1.41,1,1.19,1.19,0,0,0,1.31-1.12c0-.49-.14-.94-1-1.58l-.45-.35c-1.08-.85-1.46-1.53-1.46-2.33,0-1.08.91-1.86,2.27-1.86a4.66,4.66,0,0,1,1.31.17c.09,0,.14,0,.14.12s0,.41,0,1.18c0,.21,0,.29-.11.29s-.1-.06-.1-.18a1.18,1.18,0,0,0-.25-.64,1.26,1.26,0,0,0-1.08-.49,1,1,0,0,0-1.17,1c0,.45.23.79,1.05,1.41l.27.21c1.19.89,1.61,1.57,1.61,2.51a2,2,0,0,1-.92,1.71,2.87,2.87,0,0,1-1.56.4,3.37,3.37,0,0,1-1.44-.26" transform="translate(-339.29 -249.78)"/><path d="M399.62,325.62l-1.46,0c-.57,0-.81.07-1,.28a1.39,1.39,0,0,0-.16.35c0,.08-.05.12-.11.12s-.09-.05-.09-.16.19-1.05.21-1.13.06-.19.11-.19a2.32,2.32,0,0,0,.43.12c.28,0,.66.05,1,.05h3.9a4.46,4.46,0,0,0,.67-.05l.27-.05c.07,0,.08.06.08.2s0,.89,0,1.15c0,.09,0,.15-.09.15s-.1-.05-.11-.19v-.11c0-.26-.28-.53-1.16-.55l-1.24,0v4c0,.9,0,1.68,0,2.1s.09.5.38.54a4.21,4.21,0,0,0,.51,0c.11,0,.15,0,.15.07s-.07.1-.18.1c-.65,0-1.27,0-1.55,0l-1.24,0c-.12,0-.19,0-.19-.1s0-.07.16-.07a1.61,1.61,0,0,0,.35,0c.19,0,.25-.26.28-.54s.05-1.2.05-2.1v-4" transform="translate(-339.29 -249.78)"/><path d="M404.71,327.92c0-1.49,0-1.77,0-2.08s-.1-.5-.43-.57a1.87,1.87,0,0,0-.38,0c-.11,0-.17,0-.17-.08s.07-.09.22-.09h.8l.62,0h2.46l.42-.06a1.13,1.13,0,0,1,.15,0c.05,0,.06,0,.06.09a5.92,5.92,0,0,0-.08.64c0,.1,0,.53,0,.65s0,.1-.1.1-.09,0-.09-.13a1.07,1.07,0,0,0-.06-.36c-.07-.18-.17-.29-.66-.35-.17,0-1.2,0-1.39,0s-.07,0-.07.1v2.48c0,.08,0,.11.07.11.21,0,1.34,0,1.57,0a.69.69,0,0,0,.47-.14c.07-.08.11-.13.16-.13s.07,0,.07.08,0,.21-.08.71c0,.2,0,.6,0,.66s0,.19-.09.19a.08.08,0,0,1-.09-.09,2.35,2.35,0,0,0,0-.35c-.05-.2-.18-.35-.55-.39-.19,0-1.16,0-1.39,0-.05,0-.06,0-.06.09v.78c0,.34,0,1.24,0,1.52,0,.68.17.83,1.18.83a2.46,2.46,0,0,0,.92-.12c.26-.12.37-.32.44-.73,0-.1,0-.14.11-.14s.08.08.08.17a7.7,7.7,0,0,1-.13,1.1c-.07.25-.16.25-.53.25-.74,0-1.28,0-1.7,0l-1,0h-.56l-.68,0c-.13,0-.2,0-.2-.1s0-.08.16-.08a1.62,1.62,0,0,0,.35,0c.2-.05.25-.26.29-.55s0-1.19,0-2.09v-1.73" transform="translate(-339.29 -249.78)"/><path d="M409.43,326c-.23-.54-.4-.65-.75-.75a1.51,1.51,0,0,0-.38,0c-.09,0-.12,0-.12-.08s.11-.09.25-.09c.53,0,1.09,0,1.43,0s.72,0,1.21,0c.12,0,.23,0,.23.09s-.06.08-.15.08a.63.63,0,0,0-.39.08.23.23,0,0,0-.09.2,2.79,2.79,0,0,0,.22.76l1.69,4.46h0c.43-1.08,1.7-4.25,1.94-4.9a1.11,1.11,0,0,0,.09-.36.19.19,0,0,0-.13-.19,1.31,1.31,0,0,0-.39-.05c-.09,0-.17,0-.17-.07s.09-.1.27-.1c.5,0,.91,0,1,0l.92,0c.13,0,.21,0,.21.09s-.06.08-.16.08a.84.84,0,0,0-.48.12c-.13.09-.28.26-.54.89-.38.92-.65,1.45-1.18,2.66-.63,1.44-1.09,2.51-1.31,3s-.31.73-.45.73-.19-.14-.37-.6l-2.48-6" transform="translate(-339.29 -249.78)"/><path d="M416.86,327.92c0-1.49,0-1.77,0-2.08s-.12-.51-.33-.56a1.42,1.42,0,0,0-.36,0c-.1,0-.15,0-.15-.09s.07-.08.23-.08l1.28,0,1.2,0c.13,0,.21,0,.21.08s-.06.09-.16.09l-.3,0c-.26.05-.34.22-.36.57s0,.59,0,2.08v1.73c0,1,0,1.73,0,2.15,0,.27.1.44.39.49a4.19,4.19,0,0,0,.5,0c.11,0,.16,0,.16.08s-.08.1-.19.1c-.64,0-1.26,0-1.53,0l-1.24,0c-.13,0-.2,0-.2-.1s0-.08.16-.08a1.73,1.73,0,0,0,.36,0c.19-.05.25-.21.28-.5s.05-1.19.05-2.14v-1.73" transform="translate(-339.29 -249.78)"/><path d="M420.72,327.92c0-1.49,0-1.77,0-2.08s-.1-.5-.43-.57a1.94,1.94,0,0,0-.38,0c-.11,0-.17,0-.17-.08s.07-.09.22-.09h.8l.61,0h2.46l.43-.06a.66.66,0,0,1,.15,0c.05,0,.06,0,.06.09a5.92,5.92,0,0,0-.08.64c0,.1,0,.53-.05.65a.1.1,0,0,1-.09.1c-.07,0-.09,0-.09-.13a1.07,1.07,0,0,0-.06-.36c-.07-.18-.17-.29-.66-.35-.17,0-1.2,0-1.4,0,0,0-.06,0-.06.1v2.48c0,.08,0,.11.06.11.22,0,1.35,0,1.58,0a.69.69,0,0,0,.47-.14c.07-.08.11-.13.16-.13s.06,0,.06.08,0,.21-.07.71c0,.2,0,.6,0,.66s0,.19-.09.19a.08.08,0,0,1-.09-.09,2.35,2.35,0,0,0,0-.35c0-.2-.19-.35-.55-.39-.19,0-1.16,0-1.4,0-.05,0-.05,0-.05.09v.78c0,.34,0,1.24,0,1.52,0,.68.17.83,1.17.83a2.48,2.48,0,0,0,.93-.12c.26-.12.37-.32.44-.73,0-.1,0-.14.11-.14s.08.08.08.17a7.7,7.7,0,0,1-.13,1.1c-.07.25-.16.25-.53.25-.74,0-1.28,0-1.7,0l-1,0h-.56l-.68,0c-.13,0-.2,0-.2-.1s0-.08.16-.08a1.62,1.62,0,0,0,.35,0c.2-.05.25-.26.29-.55s.05-1.19.05-2.09v-1.73" transform="translate(-339.29 -249.78)"/><path d="M424.84,325.57a.94.94,0,1,1,.94.89.89.89,0,0,1-.94-.89m1.68,0a.75.75,0,0,0-1.49,0,.71.71,0,0,0,.76.73.7.7,0,0,0,.73-.73m-1.13-.14v-.25c0-.06,0-.07-.12-.07s0,0,0,0,0,0,.05,0h.44c.18,0,.45,0,.45.27s0,.18-.21.31l.18.21c.13.15.16.15.17.15s0,0,0,0,0,0-.1,0a.39.39,0,0,1-.39-.19l-.15-.19h-.12v.09c0,.18,0,.2,0,.21h.1s0,0,0,0a0,0,0,0,1,0,0h-.4s-.07,0-.07,0a0,0,0,0,1,0,0c.09,0,.1,0,.11-.06a2.1,2.1,0,0,0,0-.26Zm.22.1s.11,0,.15,0a.15.15,0,0,0,.09,0,.19.19,0,0,0,.09-.17.22.22,0,0,0-.24-.22s-.07,0-.09,0Z" transform="translate(-339.29 -249.78)"/><path d="M376.14,335.3a1.46,1.46,0,0,0-.37-.7.85.85,0,0,0-.39-.09c-.1,0-.16,0-.16-.08s.08-.09.22-.09l1.14,0c.09,0,.52,0,1.09,0,.14,0,.21,0,.21.09s-.08.08-.18.08a.53.53,0,0,0-.25,0c-.08,0-.1.11-.1.22a5.71,5.71,0,0,0,.21.9c.17.65,1.08,3.63,1.26,4.18h0l1.91-5.12c.1-.28.16-.36.24-.36s.16.15.29.47l2,4.94h0c.18-.65,1-3.25,1.31-4.4a2.07,2.07,0,0,0,.1-.57c0-.16-.09-.3-.47-.3-.1,0-.17,0-.17-.08s.08-.09.23-.09c.52,0,.93,0,1,0l.81,0c.11,0,.18,0,.18.07s-.05.1-.14.1a1.08,1.08,0,0,0-.34.05c-.24.09-.34.48-.55,1-.45,1.24-1.49,4.37-2,5.85-.11.34-.16.46-.28.46s-.16-.12-.31-.48l-2-4.93h0c-.19.5-1.5,4-1.92,4.89-.19.4-.24.52-.35.52s-.14-.11-.23-.37l-2.08-6.24" transform="translate(-339.29 -249.78)"/><path d="M387.29,337.19c0-1.5,0-1.77,0-2.09s-.12-.5-.34-.55a1.34,1.34,0,0,0-.35,0c-.1,0-.16,0-.16-.1s.08-.07.24-.07l1.28,0,1.19,0c.13,0,.21,0,.21.07s-.06.1-.16.1l-.29,0c-.27,0-.35.22-.36.56s0,.59,0,2.09v1.73c0,.95,0,1.73,0,2.15,0,.27.1.44.4.48a4,4,0,0,0,.5,0c.11,0,.16,0,.16.08s-.08.1-.19.1c-.65,0-1.27,0-1.53,0l-1.24,0c-.13,0-.2,0-.2-.1s0-.08.16-.08a1.53,1.53,0,0,0,.35,0c.2,0,.26-.2.29-.49s.05-1.19.05-2.14v-1.73" transform="translate(-339.29 -249.78)"/><path d="M391.69,340.43c0,.77.15,1,.35,1.09a1.5,1.5,0,0,0,.51.07c.11,0,.16,0,.16.08s-.08.1-.22.1c-.64,0-1,0-1.22,0s-.55,0-1.06,0c-.13,0-.22,0-.22-.1s.06-.08.16-.08a1.75,1.75,0,0,0,.44,0c.26-.08.3-.36.31-1.22l.08-5.82c0-.19,0-.33.13-.33s.2.13.37.3,1.61,1.73,3,3.16c.67.67,2,2.09,2.17,2.24h.05l-.1-4.41c0-.6-.1-.79-.34-.89a1.54,1.54,0,0,0-.52-.06c-.12,0-.16,0-.16-.09s.11-.08.26-.08c.51,0,1,0,1.19,0s.48,0,1,0c.13,0,.23,0,.23.08s-.06.09-.18.09a1.06,1.06,0,0,0-.29,0c-.28.08-.35.29-.37.84l-.1,6.2c0,.22,0,.31-.13.31s-.23-.11-.34-.22c-.62-.59-1.87-1.88-2.9-2.89s-2.16-2.29-2.34-2.48h0l.11,4.13" transform="translate(-339.29 -249.78)"/><path d="M400,340.43c0,.77.15,1,.34,1.09a1.59,1.59,0,0,0,.52.07c.1,0,.16,0,.16.08s-.08.1-.22.1c-.64,0-1,0-1.22,0s-.55,0-1.06,0c-.13,0-.22,0-.22-.1s.06-.08.16-.08a1.75,1.75,0,0,0,.44,0c.26-.08.3-.36.3-1.22l.09-5.82c0-.19,0-.33.13-.33s.2.13.36.3,1.62,1.73,3.05,3.16c.67.67,2,2.09,2.17,2.24h0l-.09-4.41c0-.6-.1-.79-.34-.89a1.54,1.54,0,0,0-.52-.06c-.12,0-.16,0-.16-.09s.11-.08.26-.08c.51,0,1,0,1.19,0s.48,0,1,0c.13,0,.23,0,.23.08s-.06.09-.18.09a1,1,0,0,0-.29,0c-.28.08-.36.29-.37.84l-.11,6.2c0,.22,0,.31-.12.31s-.23-.11-.34-.22c-.62-.59-1.88-1.88-2.9-2.89s-2.16-2.29-2.34-2.48h0l.11,4.13" transform="translate(-339.29 -249.78)"/><path d="M408.19,337.19c0-1.5,0-1.77,0-2.09s-.1-.49-.42-.56a2,2,0,0,0-.38,0c-.11,0-.17,0-.17-.08s.07-.09.22-.09h.79l.62,0h2.46l.42-.06a.94.94,0,0,1,.16,0c.05,0,.06,0,.06.09a5.47,5.47,0,0,0-.08.63c0,.1,0,.54-.05.65s0,.11-.1.11-.08-.05-.08-.14a1.41,1.41,0,0,0-.06-.35c-.07-.18-.17-.29-.66-.35-.17,0-1.2,0-1.4,0s-.07,0-.07.1v2.48c0,.07,0,.11.07.11.22,0,1.35,0,1.57,0s.39,0,.47-.15.11-.12.16-.12.07,0,.07.08,0,.21-.08.71c0,.2,0,.59,0,.66s0,.19-.09.19-.08,0-.08-.09a2.35,2.35,0,0,0,0-.35c-.05-.2-.19-.35-.55-.39-.19,0-1.16,0-1.4,0-.05,0-.06,0-.06.1v.78c0,.33,0,1.24,0,1.52,0,.68.18.83,1.18.83a2.48,2.48,0,0,0,.93-.12c.25-.12.37-.32.44-.73,0-.11,0-.15.11-.15s.08.08.08.18a7.39,7.39,0,0,1-.13,1.09c-.07.26-.16.26-.54.26-.73,0-1.27,0-1.69,0l-1,0h-.56l-.68,0c-.12,0-.19,0-.19-.1s0-.08.15-.08a1.63,1.63,0,0,0,.36,0c.19,0,.24-.25.28-.54s.05-1.19.05-2.09v-1.73" transform="translate(-339.29 -249.78)"/><path d="M413.82,337.19c0-1.5,0-1.77,0-2.09s-.1-.49-.43-.56a1.94,1.94,0,0,0-.38,0c-.11,0-.17,0-.17-.09s.07-.08.22-.08c.52,0,1.14,0,1.35,0l1.38,0a3.09,3.09,0,0,1,1.81.42,1.68,1.68,0,0,1,.67,1.35,2.75,2.75,0,0,1-1.3,2.2c.88,1.1,1.56,2,2.14,2.59a2,2,0,0,0,1.1.66l.27,0c.08,0,.12,0,.12.08s-.07.1-.18.1h-.94a2,2,0,0,1-1-.19,4.63,4.63,0,0,1-1.35-1.44c-.39-.54-.84-1.21-1-1.36a.21.21,0,0,0-.18-.07l-.86,0s-.07,0-.07.08v.14c0,.91,0,1.69,0,2.1s.08.5.38.54l.48,0c.08,0,.12,0,.12.08s-.07.1-.2.1c-.57,0-1.29,0-1.44,0l-1.2,0c-.13,0-.2,0-.2-.1s0-.08.16-.08a1.53,1.53,0,0,0,.35,0c.2,0,.25-.25.29-.54s.05-1.19.05-2.09v-1.73M415,338c0,.1,0,.14.09.17a2.5,2.5,0,0,0,.74.1,1,1,0,0,0,.7-.17,1.71,1.71,0,0,0,.58-1.47c0-1.4-.92-1.8-1.5-1.8a2.1,2.1,0,0,0-.52,0c-.07,0-.09.06-.09.14Z" transform="translate(-339.29 -249.78)"/><path d="M424.74,310.61a2,2,0,0,0-2-2H369.8a2,2,0,0,0-2,2v12.21h57V310.61" transform="translate(-339.29 -249.78)"/><path d="M373.39,319.11l1.34-1.6a4.51,4.51,0,0,0,2.82,1c.65,0,1-.22,1-.6v0c0-.36-.29-.56-1.47-.83-1.85-.43-3.28-1-3.28-2.74v0c0-1.62,1.28-2.79,3.37-2.79a5.48,5.48,0,0,1,3.58,1.16l-1.21,1.7a4.33,4.33,0,0,0-2.43-.86c-.59,0-.87.25-.87.56v0c0,.4.29.57,1.5.84,2,.44,3.25,1.09,3.25,2.71v0c0,1.78-1.41,2.83-3.52,2.83a6.07,6.07,0,0,1-4.08-1.44" transform="translate(-339.29 -249.78)" style="fill:#fff"/><rect x="42.81" y="61.92" width="2.42" height="8.7" style="fill:#fff"/><polygon points="46.71 61.92 49.12 61.92 49.12 68.51 53.34 68.51 53.34 70.63 46.71 70.63 46.71 61.92" style="fill:#fff"/><polygon points="53.56 61.92 56.26 61.92 58.23 67.43 60.21 61.92 62.86 61.92 59.33 70.69 57.09 70.69 53.56 61.92" style="fill:#fff"/><polygon points="63.59 61.92 70.59 61.92 70.59 63.98 65.98 63.98 65.98 65.29 70.16 65.29 70.16 67.19 65.98 67.19 65.98 68.58 70.66 68.58 70.66 70.63 63.59 70.63 63.59 61.92" style="fill:#fff"/><path d="M411.06,311.7h4.12a3.77,3.77,0,0,1,2.83.95,2.67,2.67,0,0,1,.77,2v0a2.75,2.75,0,0,1-1.79,2.67l2.08,3h-2.79l-1.75-2.63h-1.06v2.63h-2.41v-8.7m4,4.18c.83,0,1.3-.4,1.3-1v0c0-.68-.5-1-1.31-1h-1.58v2.09Z" transform="translate(-339.29 -249.78)" style="fill:#fff"/><polygon points="40.65 96.06 42.99 96.06 42.99 96.86 41.59 96.86 41.59 98.69 42.83 98.69 42.83 99.48 41.59 99.48 41.59 102.07 40.65 102.07 40.65 96.06" style="fill:#fff"/><path d="M382.64,349v-.26c0-2,.7-2.95,1.7-2.95s1.7.93,1.7,2.95V349c0,2-.7,3-1.7,3s-1.7-.93-1.7-3m2.46,0v-.26c0-1.55-.31-2.18-.76-2.18s-.75.63-.75,2.18V349c0,1.56.31,2.18.75,2.18s.76-.62.76-2.18" transform="translate(-339.29 -249.78)" style="fill:#fff"/><path d="M386.7,345.84h1.08a1.77,1.77,0,0,1,2,1.87v.06a1.73,1.73,0,0,1-.89,1.61l1,2.47h-1l-.89-2.2h-.37v2.19h-.94v-6m1.1,3.06a1,1,0,0,0,1.05-1.12v0a1,1,0,0,0-1.08-1.1h-.13v2.27Z" transform="translate(-339.29 -249.78)" style="fill:#fff"/><path d="M391.78,351.64v-.9a2.26,2.26,0,0,0,1.08.35.62.62,0,0,0,.7-.62h0c0-.35-.13-.59-.73-1.26-.81-.88-1.11-1.26-1.11-1.94v0a1.43,1.43,0,0,1,1.51-1.46,2.15,2.15,0,0,1,1,.21v.89a1.88,1.88,0,0,0-.91-.29.62.62,0,0,0-.68.61v0c0,.33.12.52.73,1.17.87.94,1.1,1.35,1.1,2v0a1.47,1.47,0,0,1-1.55,1.48,2.75,2.75,0,0,1-1.16-.27" transform="translate(-339.29 -249.78)" style="fill:#fff"/><path d="M396,345.82h1l1.32,6h-.94l-.26-1.34h-1.25l-.27,1.34h-.9Zm1,3.92-.48-2.41-.48,2.41Z" transform="translate(-339.29 -249.78)" style="fill:#fff"/><polygon points="59.54 96.06 60.48 96.06 60.48 101.27 61.83 101.27 61.83 102.07 59.54 102.07 59.54 96.06" style="fill:#fff"/><polygon points="62.33 96.06 64.78 96.06 64.78 96.86 63.26 96.86 63.26 98.64 64.61 98.64 64.61 99.44 63.26 99.44 63.26 101.27 64.8 101.27 64.8 102.07 62.33 102.07 62.33 96.06" style="fill:#fff"/><path d="M404.55,351.64v-.9a2.29,2.29,0,0,0,1.08.35c.4,0,.7-.2.7-.62h0c0-.35-.12-.59-.73-1.26-.81-.88-1.1-1.26-1.1-1.94v0a1.43,1.43,0,0,1,1.51-1.46,2.18,2.18,0,0,1,1,.21v.89a1.89,1.89,0,0,0-.92-.29.62.62,0,0,0-.68.61v0c0,.33.13.52.73,1.17.88.94,1.11,1.35,1.11,2v0a1.47,1.47,0,0,1-1.55,1.48,2.76,2.76,0,0,1-1.17-.27" transform="translate(-339.29 -249.78)" style="fill:#fff"/><path d="M409.09,350.35v-.05a2.32,2.32,0,0,1,1-1.82,2.64,2.64,0,0,1-.59-1.42V347a1.24,1.24,0,0,1,1.3-1.25,1.19,1.19,0,0,1,1.25,1.23v.06a2,2,0,0,1-1,1.62l.74,1.25a7.71,7.71,0,0,0,.19-1l.73.11a5.4,5.4,0,0,1-.43,1.58l.58.92-.68.37-.38-.64a1.53,1.53,0,0,1-2.77-.95m2.36.37-.94-1.64a1.68,1.68,0,0,0-.52,1.16v.06c0,.52.28.89.71.89a.87.87,0,0,0,.75-.47m-.18-3.66V347c0-.32-.18-.56-.46-.56a.49.49,0,0,0-.47.55v.06a2.24,2.24,0,0,0,.39,1,1.29,1.29,0,0,0,.54-1" transform="translate(-339.29 -249.78)" style="fill:#fff"/><path d="M370.91,356.4v-.19c0-2.08.85-3,1.88-3a1.64,1.64,0,0,1,.73.15v.88a1.32,1.32,0,0,0-.64-.2c-.58,0-1,.55-1,2.12v.21c0,1.62.45,2.12,1,2.12a1.39,1.39,0,0,0,.65-.19v.83a1.59,1.59,0,0,1-.81.18c-1,0-1.82-.89-1.82-3" transform="translate(-339.29 -249.78)" style="fill:#fff"/><path d="M374.18,357.62v-4.33h.93v4.4c0,.63.26.91.65.91s.66-.28.66-.91v-4.4h.92v4.33a1.54,1.54,0,0,1-1.58,1.76c-.93,0-1.58-.58-1.58-1.76" transform="translate(-339.29 -249.78)" style="fill:#fff"/><path d="M378,359.09v-.89a2.29,2.29,0,0,0,1.08.35.62.62,0,0,0,.7-.62h0c0-.35-.13-.59-.73-1.26-.81-.88-1.11-1.26-1.11-1.94v0a1.43,1.43,0,0,1,1.52-1.46,2.2,2.2,0,0,1,1,.21v.89a1.92,1.92,0,0,0-.92-.29.62.62,0,0,0-.68.61v0c0,.33.12.52.73,1.17.87.94,1.1,1.35,1.1,2v0a1.47,1.47,0,0,1-1.55,1.48,2.61,2.61,0,0,1-1.16-.28" transform="translate(-339.29 -249.78)" style="fill:#fff"/><polygon points="42.42 104.32 41.52 104.32 41.52 103.52 44.23 103.52 44.23 104.32 43.34 104.32 43.34 109.53 42.42 109.53 42.42 104.32" style="fill:#fff"/><path d="M383.74,356.43v-.26c0-2,.7-2.95,1.7-2.95s1.7.93,1.7,2.95v.26c0,2-.7,3-1.7,3s-1.7-.93-1.7-3m2.46,0v-.26c0-1.55-.31-2.18-.76-2.18s-.75.63-.75,2.18v.26c0,1.56.31,2.18.75,2.18s.76-.62.76-2.18" transform="translate(-339.29 -249.78)" style="fill:#fff"/><polygon points="48.52 103.52 49.47 103.52 50.41 106.07 51.34 103.52 52.3 103.52 52.3 109.53 51.4 109.53 51.4 105.44 50.42 108.08 50.39 108.08 49.41 105.44 49.41 109.53 48.52 109.53 48.52 103.52" style="fill:#fff"/><polygon points="53.09 103.52 55.54 103.52 55.54 104.31 54.03 104.31 54.03 106.11 55.38 106.11 55.38 106.9 54.03 106.9 54.03 108.73 55.57 108.73 55.57 109.53 53.09 109.53 53.09 103.52" style="fill:#fff"/><path d="M395.48,353.3h1.07a1.77,1.77,0,0,1,2,1.87v.06a1.73,1.73,0,0,1-.89,1.61l1,2.47h-1l-.89-2.2h-.37v2.19h-.93v-6m1.09,3.05a1,1,0,0,0,1.05-1.11v-.05a1,1,0,0,0-1.07-1.1h-.14v2.26Z" transform="translate(-339.29 -249.78)" style="fill:#fff"/><path d="M400.55,359.09v-.89a2.29,2.29,0,0,0,1.08.35c.4,0,.7-.2.7-.62h0c0-.35-.12-.59-.73-1.26-.81-.88-1.1-1.26-1.1-1.94v0a1.43,1.43,0,0,1,1.51-1.46,2.2,2.2,0,0,1,1,.21v.89a1.92,1.92,0,0,0-.92-.29.62.62,0,0,0-.68.61v0c0,.33.12.52.73,1.17.88.94,1.1,1.35,1.1,2v0a1.47,1.47,0,0,1-1.55,1.48,2.61,2.61,0,0,1-1.16-.28" transform="translate(-339.29 -249.78)" style="fill:#fff"/><polygon points="64.52 103.52 66.96 103.52 66.96 104.31 65.45 104.31 65.45 106.11 66.8 106.11 66.8 106.9 65.45 106.9 65.45 108.73 66.99 108.73 66.99 109.53 64.52 109.53 64.52 103.52" style="fill:#fff"/><path d="M406.9,353.3H408a1.77,1.77,0,0,1,2,1.87v.06a1.73,1.73,0,0,1-.89,1.61l1,2.47h-1l-.88-2.2h-.37v2.19h-.94v-6m1.1,3.05a1,1,0,0,0,1.05-1.11v-.05a1,1,0,0,0-1.08-1.1h-.13v2.26Z" transform="translate(-339.29 -249.78)" style="fill:#fff"/><polygon points="71 103.52 71.95 103.52 72.74 107.86 73.52 103.52 74.44 103.52 73.2 109.56 72.24 109.56 71 103.52" style="fill:#fff"/><rect x="74.96" y="103.52" width="0.93" height="6.01" style="fill:#fff"/><path d="M415.87,356.4v-.19c0-2.08.85-3,1.88-3a1.64,1.64,0,0,1,.73.15v.88a1.32,1.32,0,0,0-.65-.2c-.57,0-1,.55-1,2.12v.21c0,1.62.45,2.12,1,2.12a1.39,1.39,0,0,0,.66-.19v.83a1.61,1.61,0,0,1-.81.18c-1,0-1.82-.89-1.82-3" transform="translate(-339.29 -249.78)" style="fill:#fff"/><polygon points="79.87 103.52 82.32 103.52 82.32 104.31 80.81 104.31 80.81 106.11 82.16 106.11 82.16 106.9 80.81 106.9 80.81 108.73 82.35 108.73 82.35 109.53 79.87 109.53 79.87 103.52" style="fill:#fff"/><polygon points="64.99 11.36 56.88 0 56.88 1.83 63.8 11.36 64.99 11.36" style="fill:#d1deeb"/><polygon points="63.91 11.97 64.99 11.36 63.8 11.36 50.23 11.37 48.83 11.37 50.39 11.97 63.91 11.97" style="fill:#dedfe1"/><path d="M395.7,256.27,391,261.15h2.66l3.4-3.5c.86-1.13-.38-2.28-1.33-1.37" transform="translate(-339.29 -249.78)" style="fill:#9cbcd9"/><path d="M397.86,260.81c.86-1.13-.38-2.29-1.33-1.37l-1.65,1.7h2.66l.32-.33" transform="translate(-339.29 -249.78)" style="fill:#9cbcd9"/><polygon points="48.83 11.37 56.88 0 48.83 11.37 50.23 11.37 48.83 11.37" style="fill:#e8e7ae"/><polygon points="56.88 0 56.88 1.83 53.56 6.6 56.88 1.83 63.8 11.36 64.99 11.36 56.88 0" style="fill:#f0f4fa"/><path d="M392.84,256.38l-3.32,4.77H391l4.73-4.88c.95-.91,2.19.24,1.33,1.37l-3.4,3.5h1.25l1.65-1.71c1-.91,2.19.25,1.33,1.38l-.32.33h5.55l-6.92-9.54-3.33,4.78" transform="translate(-339.29 -249.78)" style="fill:#b3b5b7"/><polygon points="56.88 0 48.83 11.37 50.23 11.37 56.88 1.83 56.88 0" style="fill:#b3b5b7"/><path d="M395.7,256.27,391,261.15h2.66l3.4-3.5c.86-1.13-.38-2.28-1.33-1.37m.71,1.32a.73.73,0,0,1-.73-.72.73.73,0,0,1,.73-.73.73.73,0,0,1,.72.73.72.72,0,0,1-.72.72" transform="translate(-339.29 -249.78)" style="fill:#fff"/><path d="M396.53,259.44l-1.65,1.7h2.66l.32-.33c.86-1.13-.38-2.29-1.33-1.37m.67,1.37a.73.73,0,0,1-.72-.73.73.73,0,0,1,1.45,0,.73.73,0,0,1-.73.73" transform="translate(-339.29 -249.78)" style="fill:#fff"/><path d="M396.41,256.14a.73.73,0,0,0-.73.73.73.73,0,0,0,.73.72.72.72,0,0,0,.72-.72.73.73,0,0,0-.72-.73" transform="translate(-339.29 -249.78)" style="fill:#b3b5b7"/><path d="M397.2,259.36a.72.72,0,0,0-.72.72.73.73,0,1,0,.72-.72" transform="translate(-339.29 -249.78)" style="fill:#dedfe1"/><path d="M393.26,305.63h0" transform="translate(-339.29 -249.78)" style="fill:#b5b7b9"/><path d="M392.75,305.35l0,0,0,0" transform="translate(-339.29 -249.78)" style="fill:#b5b7b9"/><path d="M393.14,305.58l0,0,0,0" transform="translate(-339.29 -249.78)" style="fill:#b5b7b9"/><path d="M393.63,305.75h0" transform="translate(-339.29 -249.78)" style="fill:#b5b7b9"/><path d="M393.05,305.54l0,0,0,0" transform="translate(-339.29 -249.78)" style="fill:#b5b7b9"/><path d="M393.87,305.8l.27.05-.27-.05" transform="translate(-339.29 -249.78)" style="fill:#b5b7b9"/><path d="M393,305.49l0,0,0,0" transform="translate(-339.29 -249.78)" style="fill:#b5b7b9"/><path d="M392.81,305.39l0,0,0,0" transform="translate(-339.29 -249.78)" style="fill:#b5b7b9"/><path d="M392.89,305.45l0,0,0,0" transform="translate(-339.29 -249.78)" style="fill:#b5b7b9"/><path d="M393.36,305.67h0" transform="translate(-339.29 -249.78)" style="fill:#b5b7b9"/><path d="M392.73,305.33l0,0,0,0" transform="translate(-339.29 -249.78)" style="fill:#b5b7b9"/><path d="M392.88,304.62c.55,0,1.45.06,1.82-.35-.37.41-1.27.31-1.82.35" transform="translate(-339.29 -249.78)" style="fill:#b5b7b9"/><path d="M392.55,305v0" transform="translate(-339.29 -249.78)" style="fill:#b5b7b9"/><path d="M392.6,304.82a.58.58,0,0,1,.22-.18.58.58,0,0,0-.22.18" transform="translate(-339.29 -249.78)" style="fill:#b5b7b9"/><path d="M394.79,306.06a.66.66,0,0,0-.25-.15.66.66,0,0,1,.25.15" transform="translate(-339.29 -249.78)" style="fill:#b5b7b9"/><path d="M392.65,305.24l0,0,0,0" transform="translate(-339.29 -249.78)" style="fill:#b5b7b9"/><path d="M392.88,304.62l-.06,0,.06,0" transform="translate(-339.29 -249.78)" style="fill:#b5b7b9"/><path d="M392.57,305.09s0,0,0,0,0,0,0,0" transform="translate(-339.29 -249.78)" style="fill:#b5b7b9"/><path d="M392.6,304.82s0,0,0,0,0,0,0,0" transform="translate(-339.29 -249.78)" style="fill:#b5b7b9"/><path d="M392.62,305.2l0,0,0,0" transform="translate(-339.29 -249.78)" style="fill:#b5b7b9"/><path d="M392.59,305.14l0,0,0,0" transform="translate(-339.29 -249.78)" style="fill:#b5b7b9"/><path d="M392.55,305a.08.08,0,0,1,0,0,.08.08,0,0,0,0,0" transform="translate(-339.29 -249.78)" style="fill:#b5b7b9"/><path d="M392.55,305v0" transform="translate(-339.29 -249.78)" style="fill:#b5b7b9"/><path d="M392.58,304.86l0,.09,0-.09" transform="translate(-339.29 -249.78)" style="fill:#b5b7b9"/><path d="M394.55,307.81H393.5a8.54,8.54,0,0,1-1.22-.07v.15a.2.2,0,0,1,0,.07v0l0,.08s0,0,0,0a.09.09,0,0,1,0,.07v0l0,.05,0,0,0,0,0,0,0,0,0,0-.05,0,0,0-.06,0h0l-.07,0H401a.63.63,0,0,1-.6-.8,5.59,5.59,0,0,1-1.33.14h-4.5" transform="translate(-339.29 -249.78)" style="fill:#6d6e70"/><path d="M391.19,306.06l-.1.05h0l.1-.05" transform="translate(-339.29 -249.78)" style="fill:#b5b7b9"/><path d="M391,306.2l0,0h0l0,0" transform="translate(-339.29 -249.78)" style="fill:#b5b7b9"/><path d="M390.87,306.31v0Z" transform="translate(-339.29 -249.78)" style="fill:#b5b7b9"/><path d="M394.29,307.81h0" transform="translate(-339.29 -249.78)" style="fill:#b5b7b9"/><path d="M390.91,306.25h0l0,.05h0l0-.05" transform="translate(-339.29 -249.78)" style="fill:#b5b7b9"/><path d="M391,306.17l.08-.05h0l-.08.05h0l0,0,0,0h0" transform="translate(-339.29 -249.78)" style="fill:#b5b7b9"/><path d="M394.14,274.62h0" transform="translate(-339.29 -249.78)" style="fill:#818385"/><path d="M398.63,274.62h0" transform="translate(-339.29 -249.78)" style="fill:#818385"/><path d="M392.28,304.63h-.08l.05.16c.14-.11.26-.17,0-.17" transform="translate(-339.29 -249.78)" style="fill:#d0d2d3"/><path d="M395,303.78a.3.3,0,0,1,0,.08.3.3,0,0,0,0-.08" transform="translate(-339.29 -249.78)" style="fill:#d0d2d3"/><path d="M394.92,303.92a.14.14,0,0,0,0-.06.14.14,0,0,1,0,.06" transform="translate(-339.29 -249.78)" style="fill:#818385"/><path d="M392.28,304.63c-.67.05-1.1.46-1,1h1s-.32-.44-.2-.64.55-.35.2-.35" transform="translate(-339.29 -249.78)" style="fill:#6d6e70"/><path d="M390.31,306.67c.15-.43-.15-.37-.15-.37-.66.49-.81,1.83-.26,1.83H391c.35,0,.46-.26-.12-.52s-.7-.5-.55-.94" transform="translate(-339.29 -249.78)" style="fill:#6d6e70"/><path d="M400.92,307.21a1.82,1.82,0,0,0,.56-.25.39.39,0,0,0,.07-.37.19.19,0,0,0-.06-.07l-.11-.06a1.49,1.49,0,0,0-.37-.06h-9.43a.25.25,0,0,1-.22-.09.08.08,0,0,1,0-.05c0-.07,0-.16.17-.2h-.32l-.1.05h0l-.08.05h0l0,0,0,0h0l0,.05h0v0c-.45.36-.33,1.15,1.42,1.41v0a8.39,8.39,0,0,0,1.22.08h5.55a5.54,5.54,0,0,0,1.33-.15.76.76,0,0,1,.54-.46" transform="translate(-339.29 -249.78)" style="fill:#b3b5b7"/><path d="M401.49,306.52l-.11-.06.11.06" transform="translate(-339.29 -249.78)" style="fill:#b5b7b9"/><path d="M391.36,306.31a.24.24,0,0,0,.22.09.24.24,0,0,1-.22-.09" transform="translate(-339.29 -249.78)" style="fill:#b5b7b9"/><path d="M401.79,306.33s0,0,0,.05,0,0,0-.05" transform="translate(-339.29 -249.78)" style="fill:#d0d2d3"/><path d="M401.82,306.48a.2.2,0,0,1,0,.07.2.2,0,0,0,0-.07" transform="translate(-339.29 -249.78)" style="fill:#d0d2d3"/><path d="M401.81,306.4a.13.13,0,0,1,0,.06.13.13,0,0,0,0-.06" transform="translate(-339.29 -249.78)" style="fill:#d0d2d3"/><path d="M401.48,307" transform="translate(-339.29 -249.78)" style="fill:#d0d2d3"/><path d="M401.78,306.31a.57.57,0,0,0-.1-.13.57.57,0,0,1,.1.13" transform="translate(-339.29 -249.78)" style="fill:#d0d2d3"/><path d="M401.57,306.9l0,0,0,0" transform="translate(-339.29 -249.78)" style="fill:#d0d2d3"/><path d="M401.81,306.57l0,.05,0-.05" transform="translate(-339.29 -249.78)" style="fill:#d0d2d3"/><path d="M401.78,306.65l0,0,0,0" transform="translate(-339.29 -249.78)" style="fill:#d0d2d3"/><path d="M401.73,306.73l-.05.06.05-.06" transform="translate(-339.29 -249.78)" style="fill:#d0d2d3"/><path d="M401.65,306.83l0,0,0,0" transform="translate(-339.29 -249.78)" style="fill:#d0d2d3"/><path d="M401.48,307h0a1.82,1.82,0,0,1-.56.25.76.76,0,0,0-.54.46c.61-.15,1-.41,1.1-.71" transform="translate(-339.29 -249.78)" style="fill:#b5b7b9"/><polygon points="58.43 56.29 58.43 56.29 55.51 56.28 58.43 56.29" style="fill:#d0d2d3"/><path d="M393.57,304.6l.48,0H394l-.41,0" transform="translate(-339.29 -249.78)" style="fill:#b5b7b9"/><path d="M395.42,304.11l.05,0-.05,0" transform="translate(-339.29 -249.78)" style="fill:#d0d2d3"/><path d="M395.32,304.07h0Z" transform="translate(-339.29 -249.78)" style="fill:#d0d2d3"/><path d="M395.23,304h0" transform="translate(-339.29 -249.78)" style="fill:#d0d2d3"/><path d="M395.15,304a0,0,0,0,0,0,0,0,0,0,0,1,0,0" transform="translate(-339.29 -249.78)" style="fill:#d0d2d3"/><path d="M395,303.82" transform="translate(-339.29 -249.78)" style="fill:#d0d2d3"/><path d="M395.08,303.9h0Z" transform="translate(-339.29 -249.78)" style="fill:#d0d2d3"/><path d="M398.19,305.89l.5-.08.29-.06.25-.08.12,0,.22-.1a.56.56,0,0,1,.05-.08,3.43,3.43,0,0,1-.38.18l-.12,0-.25.08-.29.06-.5.08-.11,0a.66.66,0,0,0-.26.15h.11a.6.6,0,0,1,.26-.15l.11,0" transform="translate(-339.29 -249.78)" style="fill:#b5b7b9"/><path d="M400.6,305c.09.16-.11.49-.18.6l0,0h1.05a.8.8,0,0,0-.14-.55,1.22,1.22,0,0,0-.91-.44c-.34,0,.09.14.21.35" transform="translate(-339.29 -249.78)" style="fill:#b5b7b9"/><path d="M400,305.26a1.2,1.2,0,0,1-.38.27h0l.05,0,0,0,.05,0,0,0,0,0,0,0,0,0,0,0,0,0,0,0h0l0,0h0l0,0v0s0,0,0,0h0a.08.08,0,0,0,0,0h0a.09.09,0,0,0,0,0h0a.69.69,0,0,1-.05.13.36.36,0,0,1-.07.1" transform="translate(-339.29 -249.78)" style="fill:#d0d2d3"/><path d="M400.07,305Z" transform="translate(-339.29 -249.78)" style="fill:#d0d2d3"/><path d="M399.6,304.6h0" transform="translate(-339.29 -249.78)" style="fill:#d0d2d3"/><path d="M400.06,305a.29.29,0,0,0,0-.09l0,0h0a.48.48,0,0,0-.21-.18l-.06,0h-.12a.75.75,0,0,1,.2.11.35.35,0,0,1,.1.12.3.3,0,0,1,0,.18.39.39,0,0,1,0,.14.36.36,0,0,1-.07.1,1.16,1.16,0,0,1-.23.19.3.3,0,0,1,0,.08,1.2,1.2,0,0,0,.38-.27.36.36,0,0,0,.07-.1.33.33,0,0,0,0-.13.08.08,0,0,0,0,0h0a.06.06,0,0,0,0,0" transform="translate(-339.29 -249.78)" style="fill:#d0d2d3"/><path d="M399.33,304.6h0" transform="translate(-339.29 -249.78)" style="fill:#d0d2d3"/><path d="M400.07,305v0h0" transform="translate(-339.29 -249.78)" style="fill:#edeeef"/><path d="M399.73,304.62h0l0,0h0" transform="translate(-339.29 -249.78)" style="fill:#edeeef"/><path d="M400,304.82h0l0,0h0a.29.29,0,0,1,0,.09.06.06,0,0,1,0,0,.28.28,0,0,0,0-.15.21.21,0,0,0-.06-.08l0,0v0" transform="translate(-339.29 -249.78)" style="fill:#edeeef"/><path d="M398.93,304.57c.12,0,.25,0,.38,0h.38c-.33-.06-1.08-.12-1.08-.12h-.32l-.08,0s-.09,0-.1,0l-.1,0c.11.12.35.19.92.23" transform="translate(-339.29 -249.78)" style="fill:#edeeef"/><path d="M399.62,304.61h0" transform="translate(-339.29 -249.78)" style="fill:#edeeef"/><path d="M400,304.76a.37.37,0,0,0-.2-.13.61.61,0,0,1,.16.09l0,0" transform="translate(-339.29 -249.78)" style="fill:#edeeef"/><path d="M399.8,304.64h0a.48.48,0,0,1,.21.18v0l0,0,0,0a.61.61,0,0,0-.16-.09h0l.06,0" transform="translate(-339.29 -249.78)" style="fill:#edeeef"/><path d="M399.33,304.6h0" transform="translate(-339.29 -249.78)" style="fill:#d0d2d3"/><path d="M399.12,305h-6.57v0h0a.06.06,0,0,1,0,0h0s0,0,0,0h0l0,0v0l0,0h0l0,0h0l0,0,0,0,0,0,0,0,0,0,0,0,0,0,.05,0,0,0,.05,0,0,0,.05,0,0,0,.08,0h0l.07,0h0l.23.07h0l.22.05.27.05.29,0,.11,0a.66.66,0,0,1,.25.15h2.93a.56.56,0,0,1,.25-.15l.11,0,.5-.08.29-.06.25-.08.12,0a3.43,3.43,0,0,0,.38-.18c.12-.27,0-.43-.5-.43" transform="translate(-339.29 -249.78)" style="fill:#b3b5b7"/><path d="M392.88,304.62h.69c-.25,0-.49,0-.69,0" transform="translate(-339.29 -249.78)" style="fill:#edeeef"/><path d="M395,303.78h0a.3.3,0,0,1,0,.08.14.14,0,0,1,0,.06v0a1,1,0,0,1-.14.25l-.07.08a1.09,1.09,0,0,1-.65.29H394l-.41,0h5.74c-.13,0-.26,0-.38,0-.57,0-.81-.11-.92-.23a.55.55,0,0,1-.17-.14h0s0,0,0,0l0,0,0,0,0,0s0,0,0-.05l0-.05a.06.06,0,0,0,0,0l0-.1,0-.07a.68.68,0,0,1-.67.44h-.58v0h0v0h-.82l-.06,0h-.05l-.07,0h0l-.07,0h0l-.07,0h0l-.07-.06h0l-.06-.07,0,0h0" transform="translate(-339.29 -249.78)" style="fill:#edeeef"/><path d="M395,303.79l0,0,0,0" transform="translate(-339.29 -249.78)" style="fill:#edeeef"/><path d="M399.92,304.84a.35.35,0,0,0-.1-.12.75.75,0,0,0-.2-.11h-6.74l-.06,0a.48.48,0,0,0-.22.17h0s0,0,0,0l0,.09v0h0v0h6.57c.52,0,.62.16.49.43a1.16,1.16,0,0,0,.23-.19.61.61,0,0,0,.07-.1.39.39,0,0,0,0-.14.34.34,0,0,0,0-.18" transform="translate(-339.29 -249.78)" style="fill:#d0d2d3"/><path d="M395.26,301c-.09-1-.51-4.53-.63-6s-.22-2.28-.22-3.44V281.43a8.78,8.78,0,0,0-1.71-4.92,12.73,12.73,0,0,1-1.82-4.07,40.92,40.92,0,0,1-1-6,6.05,6.05,0,0,0-1.67-4l0,0c.72.84,1.21,1.63,1.35,4.18s.51,6.57,2.16,9.6c.92,1.69,2,3.34,2,5.72V291a37.19,37.19,0,0,0,1.12,9,6.36,6.36,0,0,1,.05,2.56,2.06,2.06,0,0,1-1.71,1.58,2.75,2.75,0,0,0-1,.14c-.63.2-1.26.6-1.36,1.17-1.11.21-2.3,2.1-1.3,3,0,0,.63,0,1.18,0h1.1l.07,0h0l.06,0,0,0,.05,0,0,0,0,0,0,0,0,0,0,0,0-.05,0,0a.19.19,0,0,0,0-.07l0,0a.31.31,0,0,1,0-.08v0a.2.2,0,0,0,0-.07v-.15c-1.75-.26-1.87-1.05-1.42-1.41v0l0-.05v0l.06-.05h0l.08-.05h0l.1-.05h3.6a.66.66,0,0,0-.25-.15l-.11,0-.29,0-.27-.05-.22-.05h0l-.23-.07h0l-.08,0h0l-.08,0,0,0-.05,0,0,0-.05,0,0,0,0,0,0,0,0,0,0,0,0,0,0,0,0,0,0,0h0l0,0h0l0,0v0l0,0h0s0,0,0,0h0v0h0V305h0v0l0-.09h0s0,0,0,0h0a.58.58,0,0,1,.22-.18l.06,0h0c.2,0,.44,0,.69,0a3.73,3.73,0,0,0,.48,0,1,1,0,0,0,.65-.29l.08-.09a1.23,1.23,0,0,0,.13-.24v0l0-.06,0-.08h0l0,0,0-.09a8.45,8.45,0,0,0,.22-2.71m-4.4,6.59c.58.26.47.52.12.52H389.9c-.55,0-.41-1.34.26-1.83,0,0,.3-.06.15.37s0,.67.55.94m1.4-2.81a.52.52,0,0,0-.18.18c-.12.2.2.64.2.64h-1c-.05-.5.35-.9,1-1h.08c.24,0,.11.06,0,.17" transform="translate(-339.29 -249.78)" style="fill:#7d7e80"/><path d="M393.43,304.6h0" transform="translate(-339.29 -249.78)" style="fill:#d0d2d3"/><path d="M396,268.91a1.54,1.54,0,0,1,1.58,1.37v1.87a2,2,0,0,1-.34,1.28c-.26.46-.53,1.53,0,1.87a.87.87,0,0,0,.84.17s.34-.44.63-.85h-.16a1,1,0,0,1-1-1c0-.6.73-.8.73-1.5v-1.5a1.88,1.88,0,0,0-3.61-.82h0a1.44,1.44,0,0,1,1.35-.87" transform="translate(-339.29 -249.78)" style="fill:#edeeef"/><path d="M394.52,275.29a.68.68,0,0,0,1.12-.55,2.18,2.18,0,0,0-.33-1.56,1.94,1.94,0,0,1-.36-1.09v-1.28l0,0c0-.64.36-1.72,1.29-1.83a1.73,1.73,0,0,0-.32,0,1.45,1.45,0,0,0-1.35.87h0a1.94,1.94,0,0,0-.17.82v1.5c0,.7.63.9.65,1.5a1,1,0,0,1-.93,1H394a2.29,2.29,0,0,0,.54.67" transform="translate(-339.29 -249.78)" style="fill:#7d7e80"/><path d="M399.89,273.61a25.28,25.28,0,0,0,2.44-9,1.93,1.93,0,0,0-.44-1.45,1.21,1.21,0,0,1-.08-1.16,1.08,1.08,0,0,0-.32.89c0,.43.44.78.44,1.6a21.53,21.53,0,0,1-3.3,10.17c-.29.41-.63.85-.63.85.66,0,1.45-1,1.89-1.86" transform="translate(-339.29 -249.78)" style="fill:#7d7e80"/><path d="M389.65,263.91a3,3,0,0,0-.91-1.77,29,29,0,0,0-2.91-2.29c-.53-.34-.32-.72,0-.84a.93.93,0,0,0-.22,0c-.82,0-.63.83.1,1.31l1.21,1a7.19,7.19,0,0,1,1.24,1.14l0,0a6.05,6.05,0,0,1,1.67,4c.09.91.26,2.17.47,3.4-.06-.46-.11-.88-.15-1.23-.22-2-.33-3.89-.51-4.69" transform="translate(-339.29 -249.78)" style="fill:#7d7e80"/><path d="M387.47,260.61c.94.69,2.47,1.67,2.47,1.67a1.3,1.3,0,0,0,1.18.35c0-.43-.24-.8-1.11-1.09a9.48,9.48,0,0,1-2.37-1.21c-.34-.23-.9-.79-1.4-1.11,0,.35.34.74,1.23,1.39" transform="translate(-339.29 -249.78)" style="fill:#edeeef"/><path d="M403.18,261.92s1.52-1,2.47-1.68c.65-.47,1.09-.9,1.14-1.22-.3.19-1.38,1-1.81,1.31a8.59,8.59,0,0,1-2.25,1.28l-.86.3c.17.38.69.46,1.31,0" transform="translate(-339.29 -249.78)" style="fill:#7d7e80"/><path d="M390.37,265.69a27.11,27.11,0,0,0,1.35,6c.94,2.68,1.85,3.74,2.8,3.56a2.29,2.29,0,0,1-.54-.67,21.59,21.59,0,0,1-3.29-10.17,2.29,2.29,0,0,1,.21-.94h0c-.69.54-.62,1.19-.51,2.17" transform="translate(-339.29 -249.78)" style="fill:#edeeef"/><path d="M403.89,262.24a28.74,28.74,0,0,1,2.94-2.39c.51-.4.28-.76,0-.83-.05.32-.49.75-1.14,1.23-.95.69-2.47,1.67-2.47,1.67-.62.45-1.14.37-1.31,0l-.06,0a1.19,1.19,0,0,0,.08,1.15,2,2,0,0,1,.44,1.46,25.41,25.41,0,0,1-2.44,9.05c-.44.83-1.23,1.89-1.89,1.85a.87.87,0,0,1-.84-.17c-.49-.34-.22-1.41,0-1.87a2,2,0,0,0,.34-1.28v-1.87a1.07,1.07,0,0,0-.08-.36h0c-.32-.39-1,.1-1,.73a.86.86,0,0,1-.73.92c-.36,0-.76-.1-.76-.76v0l0,0v1.28a1.91,1.91,0,0,0,.37,1.09,1.49,1.49,0,0,1,.3.74,7.18,7.18,0,0,1,0,.82.68.68,0,0,1-1.12.55c-.95.18-1.86-.88-2.8-3.56a26.46,26.46,0,0,1-1.34-6c-.11-1-.19-1.63.5-2.17h0a1.74,1.74,0,0,0,.23-.66c0-.08,0-.15,0-.22a1.3,1.3,0,0,1-1.18-.35s-1.53-1-2.47-1.67-1.2-1-1.23-1.39a2.05,2.05,0,0,0-.42-.21c-.31.12-.52.5,0,.84a29.51,29.51,0,0,1,2.91,2.28,3.11,3.11,0,0,1,.91,1.78c.18.8.29,2.69.51,4.69,0,.35.09.77.15,1.23.17.95.36,1.88.57,2.61a13,13,0,0,0,1.82,4.07,8.78,8.78,0,0,1,1.71,4.92V291.6c0,1.16.1,2,.22,3.44s.54,5,.63,6a8.47,8.47,0,0,1-.22,2.71l0,.09a.23.23,0,0,0,.07.07h0l.07.06a0,0,0,0,0,0,0l.07,0h0l.07,0h0l.07,0h.05l.06,0h.82v0h0v0H397a.68.68,0,0,0,.67-.44,8.47,8.47,0,0,1-.22-2.71c.09-1,.51-4.53.63-6s.22-2.28.22-3.44V281.43a8.78,8.78,0,0,1,1.72-4.92,13,13,0,0,0,1.81-4.07,40.92,40.92,0,0,0,1-6c0-.29.07-.58.11-.85.2-1.67.37-2.68,1-3.34" transform="translate(-339.29 -249.78)" style="fill:#b3b5b7"/><polyline points="62.17 58.33 62.18 58.33 62.17 58.33" style="fill:#d0d2d3"/><path d="M403,307.37v0" transform="translate(-339.29 -249.78)" style="fill:#d0d2d3"/><path d="M403,307.57v0" transform="translate(-339.29 -249.78)" style="fill:#d0d2d3"/><path d="M402.93,307.24v0" transform="translate(-339.29 -249.78)" style="fill:#d0d2d3"/><path d="M402.7,308.11l.05,0h-1.36l.07,0h1.24" transform="translate(-339.29 -249.78)" style="fill:#d0d2d3"/><path d="M402.93,307.88h0v0" transform="translate(-339.29 -249.78)" style="fill:#d0d2d3"/><path d="M403,307.78h0v0a.13.13,0,0,1,0,.06" transform="translate(-339.29 -249.78)" style="fill:#d0d2d3"/><path d="M402.84,308l0,0h0l0,0" transform="translate(-339.29 -249.78)" style="fill:#d0d2d3"/><path d="M402.89,308v0h0v0a.08.08,0,0,1,0,0" transform="translate(-339.29 -249.78)" style="fill:#d0d2d3"/><path d="M402.76,308.09h0l.05,0h0l-.06,0" transform="translate(-339.29 -249.78)" style="fill:#d0d2d3"/><path d="M403,307.49v0" transform="translate(-339.29 -249.78)" style="fill:#d0d2d3"/><path d="M401.5,307.69l.06,0-.06,0" transform="translate(-339.29 -249.78)" style="fill:#d0d2d3"/><path d="M401.37,307.78l0,0,0,0" transform="translate(-339.29 -249.78)" style="fill:#d0d2d3"/><path d="M401.43,307.73l.05,0-.05,0" transform="translate(-339.29 -249.78)" style="fill:#d0d2d3"/><path d="M401.58,307.64l.1,0-.1,0" transform="translate(-339.29 -249.78)" style="fill:#d0d2d3"/><path d="M401.29,308v0" transform="translate(-339.29 -249.78)" style="fill:#d0d2d3"/><path d="M401.27,308v0" transform="translate(-339.29 -249.78)" style="fill:#d0d2d3"/><path d="M401.33,308.07v0" transform="translate(-339.29 -249.78)" style="fill:#d0d2d3"/><path d="M401.31,308h0" transform="translate(-339.29 -249.78)" style="fill:#d0d2d3"/><path d="M401.35,308.08h0" transform="translate(-339.29 -249.78)" style="fill:#d0d2d3"/><path d="M401.32,307.83l0,0,0,0" transform="translate(-339.29 -249.78)" style="fill:#d0d2d3"/><path d="M401.27,308v0" transform="translate(-339.29 -249.78)" style="fill:#d0d2d3"/><path d="M401.28,307.91a0,0,0,0,1,0,0,0,0,0,0,0,0,0" transform="translate(-339.29 -249.78)" style="fill:#d0d2d3"/><path d="M401.3,307.87v0" transform="translate(-339.29 -249.78)" style="fill:#d0d2d3"/><path d="M402.49,306.39l0,0Z" transform="translate(-339.29 -249.78)" style="fill:#edeeef"/><path d="M402.43,306.33l0,0,0,0" transform="translate(-339.29 -249.78)" style="fill:#edeeef"/><path d="M402.59,306.5l0,0,0,0" transform="translate(-339.29 -249.78)" style="fill:#edeeef"/><path d="M402.54,306.44s0,0,0,0,0,0,0,0" transform="translate(-339.29 -249.78)" style="fill:#edeeef"/><polyline points="63.19 56.6 63.2 56.6 63.19 56.6" style="fill:#edeeef"/><polyline points="63.29 56.7 63.3 56.71 63.29 56.7" style="fill:#edeeef"/><path d="M402.51,306.41l0,0,0,0" transform="translate(-339.29 -249.78)" style="fill:#edeeef"/><path d="M402.63,306.55v0" transform="translate(-339.29 -249.78)" style="fill:#edeeef"/><path d="M402.48,306.38l0,0,0,0h0" transform="translate(-339.29 -249.78)" style="fill:#edeeef"/><path d="M402.58,306.48h0" transform="translate(-339.29 -249.78)" style="fill:#edeeef"/><path d="M402.59,306.5h0" transform="translate(-339.29 -249.78)" style="fill:#edeeef"/><polyline points="63.2 56.61 63.2 56.6 63.2 56.6 63.2 56.61" style="fill:#edeeef"/><path d="M402.57,306.48h0l0,0,0,0,0,0h0a.39.39,0,0,1,.08.1" transform="translate(-339.29 -249.78)" style="fill:#edeeef"/><path d="M402.63,306.55h0l0,0,0,0h0l0,.06" transform="translate(-339.29 -249.78)" style="fill:#edeeef"/><path d="M402.59,306.49h0" transform="translate(-339.29 -249.78)" style="fill:#edeeef"/><polyline points="63.2 56.6 63.2 56.6 63.19 56.6 63.19 56.59 63.2 56.6" style="fill:#edeeef"/><path d="M401.33,308.07v0h0v0h0v0h0v0h0a0,0,0,0,1,0,0h0v0h0l0,0h0l0,0h0l.05,0h0l.06,0h0l.09-.05c.59-.26.7-.49.56-.93a.19.19,0,0,1,0-.07.06.06,0,0,1,0,0,0,0,0,0,1,0,0v0h0v0h0a1.67,1.67,0,0,0-.37,0H401a1.49,1.49,0,0,1,.37.06l.11.06.07.07a.42.42,0,0,1-.08.37.92.92,0,0,1-.44.46c-.29.21-.15.65.35.67h-.06" transform="translate(-339.29 -249.78)" style="fill:#edeeef"/><polyline points="62.08 58.01 62.08 58.01 62.08 58.01" style="fill:#edeeef"/><path d="M401.31,307.84h0" transform="translate(-339.29 -249.78)" style="fill:#edeeef"/><path d="M401.48,307.7h0" transform="translate(-339.29 -249.78)" style="fill:#edeeef"/><path d="M401.41,307.74h0" transform="translate(-339.29 -249.78)" style="fill:#edeeef"/><path d="M401.56,307.65h0" transform="translate(-339.29 -249.78)" style="fill:#edeeef"/><polyline points="61.98 58.18 61.98 58.17 61.98 58.18" style="fill:#edeeef"/><polyline points="62.03 58.28 62.02 58.26 62.03 58.28" style="fill:#edeeef"/><path d="M401.29,307.88h0" transform="translate(-339.29 -249.78)" style="fill:#edeeef"/><path d="M401.3,308h0" transform="translate(-339.29 -249.78)" style="fill:#edeeef"/><path d="M401.35,308.08h0" transform="translate(-339.29 -249.78)" style="fill:#edeeef"/><path d="M401.27,307.92h0Z" transform="translate(-339.29 -249.78)" style="fill:#edeeef"/><polyline points="61.99 58.22 61.99 58.21 61.99 58.22" style="fill:#edeeef"/><path d="M402.19,306.48v0" transform="translate(-339.29 -249.78)" style="fill:#edeeef"/><path d="M402.21,306.59a.06.06,0,0,1,0,0,.06.06,0,0,0,0,0" transform="translate(-339.29 -249.78)" style="fill:#edeeef"/><path d="M402.19,306.53v0" transform="translate(-339.29 -249.78)" style="fill:#edeeef"/><path d="M402.63,306.55v0l0,0h0l0,0,0,0,0,0v0h0l0,0v0a.08.08,0,0,1,0,0v0h0s0,0,0,0l0,0v0l0,0v0s0,0,0,0v0h0v.06a.11.11,0,0,0,0,.05v0h0v.13h0v.05h0v.08h0c0,.26-.06.46-.22.53h.46a1.44,1.44,0,0,0,.08-1.11,1.31,1.31,0,0,0-.66-.43" transform="translate(-339.29 -249.78)" style="fill:#edeeef"/><path d="M402.64,306.56l0,0,0,0" transform="translate(-339.29 -249.78)" style="fill:#edeeef"/><path d="M402.69,306.63l0,0,0,0" transform="translate(-339.29 -249.78)" style="fill:#edeeef"/><path d="M402.74,306.73a0,0,0,0,0,0,0v0h0" transform="translate(-339.29 -249.78)" style="fill:#edeeef"/><path d="M402.92,307.18a0,0,0,0,0,0,0h0v0" transform="translate(-339.29 -249.78)" style="fill:#edeeef"/><path d="M403,307.47v0h0v0" transform="translate(-339.29 -249.78)" style="fill:#edeeef"/><polyline points="63.63 57.37 63.62 57.36 63.63 57.36 63.63 57.37" style="fill:#edeeef"/><polyline points="63.66 57.51 63.66 57.5 63.66 57.5 63.66 57.51" style="fill:#edeeef"/><polyline points="63.68 57.65 63.68 57.64 63.68 57.64 63.68 57.65" style="fill:#edeeef"/><path d="M403,307.56h0v.11h0s0,.05,0,.08h0v0h0s0,0,0,.06h0a0,0,0,0,1,0,0v0h0l0,0h0v0h0l0,0h0l-.05,0h0c.16-.07.23-.27.22-.53" transform="translate(-339.29 -249.78)" style="fill:#edeeef"/><path d="M403,307.35v0Z" transform="translate(-339.29 -249.78)" style="fill:#edeeef"/><path d="M403,307.33v0h0v0" transform="translate(-339.29 -249.78)" style="fill:#edeeef"/><path d="M402.81,306.86v0h0" transform="translate(-339.29 -249.78)" style="fill:#edeeef"/><path d="M402.77,306.77v0" transform="translate(-339.29 -249.78)" style="fill:#edeeef"/><path d="M402.83,306.91s0,0,0,0,0,0,0,0" transform="translate(-339.29 -249.78)" style="fill:#edeeef"/><path d="M402.93,307.21v0" transform="translate(-339.29 -249.78)" style="fill:#edeeef"/><path d="M402.87,307h0l0,0h0v0" transform="translate(-339.29 -249.78)" style="fill:#edeeef"/><path d="M402.89,307.06v0" transform="translate(-339.29 -249.78)" style="fill:#edeeef"/><path d="M403,307.56h0v0" transform="translate(-339.29 -249.78)" style="fill:#edeeef"/><polyline points="63.63 57.37 63.63 57.37 63.63 57.37" style="fill:#edeeef"/><path d="M402.75,306.74h0" transform="translate(-339.29 -249.78)" style="fill:#edeeef"/><polyline points="63.66 57.51 63.66 57.52 63.66 57.51" style="fill:#edeeef"/><path d="M403,307.56Z" transform="translate(-339.29 -249.78)" style="fill:#edeeef"/><polyline points="63.38 56.82 63.39 56.83 63.38 56.82" style="fill:#edeeef"/><polyline points="63.68 57.65 63.68 57.65 63.68 57.65" style="fill:#edeeef"/><polyline points="63.53 57.1 63.53 57.09 63.53 57.1 63.53 57.1" style="fill:#edeeef"/><path d="M402.83,308h0Z" transform="translate(-339.29 -249.78)" style="fill:#edeeef"/><polyline points="63.59 58.2 63.59 58.2 63.59 58.2" style="fill:#edeeef"/><path d="M403,307.44h0v0" transform="translate(-339.29 -249.78)" style="fill:#edeeef"/><path d="M403,307.3h0v0" transform="translate(-339.29 -249.78)" style="fill:#edeeef"/><path d="M402.87,307v0" transform="translate(-339.29 -249.78)" style="fill:#edeeef"/><path d="M402.92,307.9" transform="translate(-339.29 -249.78)" style="fill:#edeeef"/><path d="M402.82,306.88v0h0v0" transform="translate(-339.29 -249.78)" style="fill:#edeeef"/><polyline points="63.69 57.79 63.69 57.78 63.69 57.78 63.69 57.78 63.69 57.79" style="fill:#edeeef"/><polyline points="63.68 57.9 63.68 57.91 63.68 57.9" style="fill:#edeeef"/><polyline points="63.67 58.02 63.67 58.02 63.67 58.02" style="fill:#edeeef"/><path d="M402.92,307.16h0v0" transform="translate(-339.29 -249.78)" style="fill:#edeeef"/><polyline points="63.46 56.95 63.46 56.95 63.46 56.95 63.46 56.95" style="fill:#edeeef"/><path d="M402.64,306.56h0" transform="translate(-339.29 -249.78)" style="fill:#edeeef"/><path d="M402.88,307v0" transform="translate(-339.29 -249.78)" style="fill:#edeeef"/><path d="M402.85,307v0" transform="translate(-339.29 -249.78)" style="fill:#edeeef"/><polyline points="63.38 56.82 63.38 56.81 63.38 56.82 63.38 56.82" style="fill:#edeeef"/><path d="M402.77,306.77l0,0h0l0,0" transform="translate(-339.29 -249.78)" style="fill:#edeeef"/><path d="M402.71,306.66l0,0,0,0" transform="translate(-339.29 -249.78)" style="fill:#edeeef"/><path d="M402.94,307.25v0Z" transform="translate(-339.29 -249.78)" style="fill:#edeeef"/><path d="M402.83,306.91a0,0,0,0,0,0,0h0a0,0,0,0,1,0,0" transform="translate(-339.29 -249.78)" style="fill:#edeeef"/><path d="M402.78,306.8l0,0,0,0" transform="translate(-339.29 -249.78)" style="fill:#edeeef"/><path d="M402.92,307.18v0" transform="translate(-339.29 -249.78)" style="fill:#edeeef"/><path d="M402.69,306.63l0,0h0" transform="translate(-339.29 -249.78)" style="fill:#edeeef"/><path d="M402.9,307.1s0,0,0,0,0,0,0,0" transform="translate(-339.29 -249.78)" style="fill:#edeeef"/><path d="M403,307.4v0" transform="translate(-339.29 -249.78)" style="fill:#edeeef"/><path d="M403,307.33v0Z" transform="translate(-339.29 -249.78)" style="fill:#edeeef"/><polyline points="63.68 57.7 63.68 57.7 63.68 57.7" style="fill:#edeeef"/><path d="M402.81,306.86v0l0,0v0l0,0,.06.11" transform="translate(-339.29 -249.78)" style="fill:#edeeef"/><path d="M402.88,308l0,0v0" transform="translate(-339.29 -249.78)" style="fill:#edeeef"/><path d="M402.92,307.9v0h0v0" transform="translate(-339.29 -249.78)" style="fill:#edeeef"/><path d="M403,307.34v0a.11.11,0,0,0,0,.05h0v-.08" transform="translate(-339.29 -249.78)" style="fill:#edeeef"/><path d="M403,307.8v0h0v0" transform="translate(-339.29 -249.78)" style="fill:#edeeef"/><path d="M402.91,307.93v0h0v0" transform="translate(-339.29 -249.78)" style="fill:#edeeef"/><path d="M402.94,307.86v-.06s0,0,0,0v0" transform="translate(-339.29 -249.78)" style="fill:#edeeef"/><path d="M403,307.63v-.06h0v.06" transform="translate(-339.29 -249.78)" style="fill:#edeeef"/><path d="M403,307.46v0h0v0" transform="translate(-339.29 -249.78)" style="fill:#edeeef"/><path d="M402.81,308.06l-.05,0,.05,0" transform="translate(-339.29 -249.78)" style="fill:#edeeef"/><path d="M403,307.77s0,0,0-.08v.08" transform="translate(-339.29 -249.78)" style="fill:#edeeef"/><path d="M402.93,307.22v0a.06.06,0,0,1,0,0h0v0a.11.11,0,0,1,0-.05v0s0,0,0,.06" transform="translate(-339.29 -249.78)" style="fill:#edeeef"/><path d="M402.74,306.73v0l0,0,0,0h0l.06.11" transform="translate(-339.29 -249.78)" style="fill:#edeeef"/><path d="M402.63,306.55l0,.05h0l0,0v0h0" transform="translate(-339.29 -249.78)" style="fill:#edeeef"/><path d="M402.87,307h0v0l0,0a0,0,0,0,0,0,0l.05.12" transform="translate(-339.29 -249.78)" style="fill:#edeeef"/><path d="M402.83,308l0,0,0,0h0" transform="translate(-339.29 -249.78)" style="fill:#edeeef"/><polyline points="63.53 58.28 63.53 58.27 63.53 58.27 63.53 58.28" style="fill:#edeeef"/><path d="M402.87,308v0h0" transform="translate(-339.29 -249.78)" style="fill:#edeeef"/><path d="M402.91,307.14h0v0s0,0,0,0a0,0,0,0,1,0,0h0a.56.56,0,0,1,0,.12" transform="translate(-339.29 -249.78)" style="fill:#edeeef"/><path d="M402.68,306.62h0l0,0" transform="translate(-339.29 -249.78)" style="fill:#edeeef"/><path d="M402.75,306.74h0" transform="translate(-339.29 -249.78)" style="fill:#edeeef"/><polygon points="63.53 57.1 63.53 57.1 63.53 57.1 63.53 57.1" style="fill:#edeeef"/><path d="M402.91,307.91a0,0,0,0,0,0,0v0l0,0" transform="translate(-339.29 -249.78)" style="fill:#edeeef"/><path d="M402.94,307.28v0s0,.07,0,.1v-.06" transform="translate(-339.29 -249.78)" style="fill:#edeeef"/><path d="M403,307.42a.11.11,0,0,1,0-.05s0,.06,0,.09v0" transform="translate(-339.29 -249.78)" style="fill:#edeeef"/><path d="M402.82,308.05h0l0,0" transform="translate(-339.29 -249.78)" style="fill:#edeeef"/><path d="M403,307.49v.08h0v-.07" transform="translate(-339.29 -249.78)" style="fill:#edeeef"/><path d="M402.91,307.14a.56.56,0,0,0,0-.12v0l-.05-.12h0v0l-.06-.12h0l-.06-.11,0,0,0-.05a1.75,1.75,0,0,1,.3.67s0,0,0-.06v0" transform="translate(-339.29 -249.78)" style="fill:#edeeef"/><path d="M402.87,308h0v0l0,0" transform="translate(-339.29 -249.78)" style="fill:#edeeef"/><path d="M403,307.72a0,0,0,0,0,0,0h0v-.05a.28.28,0,0,1,0,.09" transform="translate(-339.29 -249.78)" style="fill:#edeeef"/><path d="M402.94,307.82v0h0v0s0,0,0,0" transform="translate(-339.29 -249.78)" style="fill:#edeeef"/><path d="M402.75,308.09h-1.36c-.07,0,0,0,0,0-.5,0-.64-.46-.35-.67h0a2.68,2.68,0,0,1-.65.25.62.62,0,0,0,.59.8h1.84a.9.9,0,0,0,.39-.38h-.46s.05,0,0,0" transform="translate(-339.29 -249.78)" style="fill:#edeeef"/><path d="M396.28,268.94c-.95.11-1.29,1.23-1.29,1.86s.4.77.76.77a.87.87,0,0,0,.73-.92c0-.63.65-1.12,1-.73h0a1.54,1.54,0,0,0-1.18-1m-.6,2.38a.53.53,0,0,1-.53-.53.53.53,0,0,1,.53-.53.53.53,0,0,1,.53.53.52.52,0,0,1-.53.53" transform="translate(-339.29 -249.78)" style="fill:#dedfe1"/><path d="M395.68,270.26a.53.53,0,0,0-.53.53.53.53,0,0,0,.53.53.52.52,0,0,0,.53-.53.53.53,0,0,0-.53-.53" transform="translate(-339.29 -249.78)" style="fill:#edeeef"/><path d="M399.5,304.18a2.1,2.1,0,0,1-1.77-1.93.88.88,0,0,0,0-.16c0,1,.16,2,1.79,2.09" transform="translate(-339.29 -249.78)" style="fill:#d0d2d3"/><path d="M406.79,259c.32.08.55.44,0,.84a27.45,27.45,0,0,0-2.94,2.39c-.6.66-.76,1.67-1,3.34h0c0,.28-.07.57-.11.86a40.92,40.92,0,0,1-1,6,13,13,0,0,1-1.81,4.07,8.7,8.7,0,0,0-1.72,4.91V291.6c0,1.16-.1,2-.22,3.44s-.53,5-.63,6a8.45,8.45,0,0,0,.22,2.71l0,.07,0,.1s0,0,0,0l0,.05a81952758040,81952758040,0,0,1,0,.08.08.08,0,0,0,0,.05l0,0,0,0h0a.46.46,0,0,0,.17.14l.1,0s.05,0,.1,0l.08,0h0l.09,0h.19s.75.06,1.08.12h0l0,0a.32.32,0,0,1,.2.13.21.21,0,0,1,.06.08.28.28,0,0,1,0,.15h0v0h0s0,0,0,0h0v0h0s0,0,0,0h0l0,0h0l0,0h0l0,0a0,0,0,0,0,0,0l0,0,0,0,0,0,0,0,0,0-.05,0,0,0-.05,0,0,0-.06,0,0,0-.08,0h0l-.07,0h0l-.24.07h0l-.23.05-.26.05-.29,0-.12,0a.76.76,0,0,0-.25.15h-6.31c-.13,0-.18.13-.17.2a.08.08,0,0,0,0,.05.25.25,0,0,0,.22.09h10.23l.38,0a3.17,3.17,0,0,1,.44.12h0a1.17,1.17,0,0,1,.66.43,2.19,2.19,0,0,0-1.42-1.48h0a1.18,1.18,0,0,0-.42-.67,3,3,0,0,0-1.59-.63,1.47,1.47,0,0,0-.36,0c-1.63-.09-1.77-1.07-1.79-2.09a8.06,8.06,0,0,1,.14-2,37.19,37.19,0,0,0,1.12-9v-9.15c0-2.38,1.15-4,2-5.72,1.37-2.81,1.81-6.71,2.09-9.39.26-2.43.64-3.43,1.32-4.27a14.32,14.32,0,0,1,2.61-2.23c.73-.48.54-1.38-.19-1.27m-6.39,45.62a1.22,1.22,0,0,1,.9.44.74.74,0,0,1,.14.55h-1l0,0c.08-.11.27-.44.18-.6s-.55-.35-.2-.35" transform="translate(-339.29 -249.78)" style="fill:#edeeef"/><path d="M403,307.49v0s0-.05,0-.08v0a.3.3,0,0,0,0-.1v0a1.81,1.81,0,0,0-.29-.65v0c-.17-.29-.52-.35-.44-.12h0v0h0v.07a.06.06,0,0,0,0,0,.19.19,0,0,0,0,.07c.14.44,0,.67-.55.94l-.1,0h0l-.06,0h0l-.05,0,0,0,0,0h0l0,0h0s0,0,0,0h0a0,0,0,0,0,0,0h0v0h0v0h0v0h0v0h0l0,0h1.41l.06,0,0,0,0,0,0,0a.08.08,0,0,0,0,0l0,0v-.06s0,0,0,0a.13.13,0,0,0,0-.06.28.28,0,0,0,0-.09v-.14" transform="translate(-339.29 -249.78)" style="fill:#dbdcdd"/><path d="M400.4,304.63a1.22,1.22,0,0,1,.9.44.79.79,0,0,1,.14.55h-1l0,0c.07-.11.27-.44.18-.6s-.55-.35-.2-.35" transform="translate(-339.29 -249.78)" style="fill:#dbdcdd"/></g></svg>