<svg width="76" height="75" viewBox="0 0 76 75" fill="none" xmlns="http://www.w3.org/2000/svg">
<g clip-path="url(#clip0_7367_409)">
<path fill-rule="evenodd" clip-rule="evenodd" d="M13.5923 58.4136C12.5376 60.3517 12.6124 62.6951 13.7935 64.6855C14.9818 66.6883 17.0153 67.8704 19.2336 67.8322H19.265C19.2914 67.8325 19.3184 67.8331 19.3454 67.8331C21.5367 67.8331 23.5374 66.6599 24.7098 64.683C25.8859 62.6999 25.9605 60.3619 24.9118 58.4218L24.8946 58.3911C24.5359 57.7146 24.5545 56.9257 24.9405 56.2745C25.3243 55.6275 26.0008 55.2411 26.75 55.2411H34.6883V47.8469C31.8717 48.248 28.9913 47.413 26.694 45.5058C24.2537 43.4791 22.8786 40.5505 22.9218 37.4705C22.8784 34.4059 24.2545 31.4762 26.6968 29.4487C28.9941 27.5424 31.8728 26.7079 34.6883 27.1098V19.7162H26.75C26.0008 19.7162 25.3243 19.3298 24.9405 18.6828C24.5545 18.0313 24.5359 17.2427 24.8913 16.5729L24.9107 16.5375C25.9621 14.5994 25.8867 12.2588 24.7067 10.2706C23.5187 8.26815 21.4897 7.08746 19.2664 7.12512C15.7282 7.12512 12.8632 10.0095 12.8632 13.5556C12.8632 14.6081 13.1211 15.6517 13.6093 16.5732C13.9641 17.243 13.9457 18.0316 13.5592 18.6831C13.1754 19.3301 12.4992 19.7162 11.75 19.7162H2.69712C2.09935 19.7162 1.61317 20.2052 1.61317 20.8064V54.1506C1.61317 54.7521 2.09935 55.2411 2.69712 55.2411H11.75C12.4992 55.2411 13.1754 55.6273 13.5592 56.2742C13.9457 56.9254 13.9641 57.7144 13.6093 58.3841L13.5923 58.4136ZM19.1437 68.9572C16.5653 68.9572 14.2143 67.5823 12.8384 65.2634C11.4475 62.9191 11.3687 60.1488 12.6274 57.8523L12.6386 57.8321C12.7958 57.5185 12.7836 57.1542 12.6041 56.8518C12.4209 56.5426 12.1095 56.3653 11.75 56.3653H2.69712C1.48543 56.3653 0.5 55.3718 0.5 54.1506V20.8064C0.5 19.5855 1.48543 18.592 2.69712 18.592H11.75C12.1095 18.592 12.4209 18.4147 12.6041 18.1052C12.7875 17.7961 12.7964 17.4217 12.6274 17.1036C12.0536 16.0193 11.75 14.7925 11.75 13.5556C11.75 9.38983 15.1145 6.00091 19.2497 6.00091C21.8779 5.95932 24.267 7.34237 25.6616 9.69252C27.0525 12.0368 27.1312 14.8077 25.8722 17.105L25.8644 17.119C25.7039 17.4332 25.7153 17.8009 25.8956 18.1052C26.079 18.4147 26.3904 18.592 26.75 18.592H35.8014V28.4735L35.1294 28.3293C32.4377 27.7534 29.6214 28.4766 27.4037 30.3175C25.2244 32.1266 23.9965 34.7336 24.0349 37.4705C23.9965 40.2228 25.2235 42.8293 27.4009 44.6373C29.6186 46.4788 32.436 47.2042 35.1296 46.6274L35.8014 46.4841V56.3653H26.75C26.3904 56.3653 26.079 56.5426 25.8956 56.8518C25.7147 57.1573 25.7039 57.5263 25.8661 57.8419L25.8725 57.8529C27.1298 60.1522 27.0519 62.9214 25.6649 65.2606C24.2718 67.6093 21.8782 68.9831 19.2503 68.9564C19.2149 68.9572 19.179 68.9572 19.1437 68.9572Z" fill="#FEFEFE"/>
<path fill-rule="evenodd" clip-rule="evenodd" d="M64.4371 55.2414H73.3012C73.8996 55.2414 74.3866 54.7523 74.3866 54.1509V20.8067C74.3866 20.2055 73.8996 19.7165 73.3012 19.7165H64.441C65.794 22.3241 65.6799 25.4356 64.1195 28.0668C62.5213 30.7618 59.7609 32.3444 56.7411 32.3073C53.7406 32.3528 50.9785 30.7621 49.3803 28.0674C47.8216 25.4398 47.7058 22.3328 49.0589 19.7165H41.3087V32.178C41.3087 33.4936 40.5403 34.6903 39.3512 35.2266C38.1632 35.7625 36.7664 35.5439 35.7932 34.6695L35.6613 34.5509C34.5796 33.6445 33.1035 33.4526 31.7688 34.0549C30.3854 34.6799 29.5327 35.9891 29.5427 37.4722C29.5327 38.9693 30.3857 40.2796 31.7691 40.9041C33.1146 41.5117 34.6049 41.3105 35.6902 40.3828L35.7932 40.2883C36.7664 39.414 38.1623 39.1947 39.3512 39.731C40.5403 40.2675 41.3087 41.464 41.3087 42.7796V55.2414H49.0589C47.7053 52.6315 47.8196 49.5186 49.3817 46.8871C50.9808 44.193 53.7339 42.5991 56.7615 42.6503C61.5005 42.6534 65.3618 46.5465 65.3618 51.3291C65.3618 52.6917 65.0423 54.0402 64.4371 55.2414ZM73.3012 56.3656H64.2487C63.8952 56.3656 63.5757 56.1829 63.3935 55.8768C63.2106 55.5694 63.202 55.1953 63.3701 54.876C63.9453 53.7948 64.2487 52.5691 64.2487 51.3291C64.2487 47.1662 60.8863 43.777 56.7537 43.7745C54.1344 43.7326 51.7294 45.1185 50.3362 47.4652C48.9484 49.8036 48.8696 52.5722 50.1256 54.8715C50.2967 55.2017 50.2859 55.5747 50.1028 55.8799C49.9202 56.184 49.601 56.3656 49.2484 56.3656H40.1955V42.7796C40.1955 41.9072 39.686 41.1132 38.8973 40.7577C38.1273 40.41 37.2248 40.5404 36.5811 41.0865L36.5376 41.1267C35.11 42.435 33.1096 42.7411 31.3146 41.9308C29.5219 41.1208 28.4162 39.4145 28.4295 37.4778C28.4162 35.5442 29.5219 33.8385 31.3144 33.0288C33.1102 32.2176 35.1106 32.5234 36.5343 33.8278L36.5897 33.8787C37.2331 34.4186 38.1298 34.5459 38.8973 34.2002C39.686 33.8444 40.1955 33.0507 40.1955 32.178V18.5923H49.2484C49.601 18.5923 49.9202 18.7736 50.1028 19.0777C50.2859 19.3832 50.2967 19.7558 50.1314 20.0751C48.8699 22.3837 48.9481 25.1512 50.3354 27.4898C51.7274 29.8366 54.1302 31.216 56.7411 31.1831C56.7732 31.1837 56.8054 31.1837 56.8374 31.1837C59.4345 31.1837 61.7891 29.8082 63.1644 27.489C64.5514 25.1509 64.6299 22.3837 63.3743 20.0866C63.2028 19.7553 63.2134 19.3818 63.3965 19.0763C63.5785 18.773 63.8969 18.5923 64.2487 18.5923H73.3012C74.5135 18.5923 75.4998 19.5858 75.4998 20.8067V54.1509C75.4998 55.3721 74.5135 56.3656 73.3012 56.3656Z" fill="#FEFEFE"/>
<path fill-rule="evenodd" clip-rule="evenodd" d="M36.7221 43.7099H43.2731V36.5402C39.0987 37.7853 34.6933 34.4408 34.7601 30.0451C34.6933 25.6467 39.0987 22.3022 43.2731 23.5501V16.3776H36.7221C36.1739 16.3776 35.8288 15.7902 36.0876 15.3012C38.0245 11.7656 35.3362 7.20693 31.2954 7.26595C28.301 7.26595 25.869 9.71671 25.869 12.7324C25.869 13.6599 26.0988 14.5339 26.504 15.3012C26.7626 15.7874 26.4183 16.3776 25.869 16.3776H19.3185C18.4402 16.3776 17.7283 17.0943 17.7283 17.9796V42.1107C17.7283 42.9932 18.4402 43.7099 19.3185 43.7099H25.869C26.4183 43.7099 26.7626 44.3001 26.504 44.7891C24.5654 48.3247 27.2574 52.8806 31.2954 52.8215C35.3362 52.8749 38.0273 48.3332 36.0876 44.7891C35.8288 44.3001 36.1739 43.7099 36.7221 43.7099Z" fill="#1D1D1F"/>
<path fill-rule="evenodd" clip-rule="evenodd" d="M70.4097 16.377H63.8587C63.3105 16.377 62.9654 16.9672 63.2242 17.4562C65.1611 20.9974 62.4728 25.5448 58.432 25.4886C54.3912 25.5448 51.7029 20.9974 53.6398 17.4562C53.8986 16.9672 53.5536 16.377 53.0053 16.377H46.4543V26.2081C46.4543 26.8405 46.087 27.4138 45.5137 27.6724C44.9404 27.9282 44.2725 27.8242 43.805 27.4026C41.5786 25.365 37.9163 27.0119 37.9384 30.0445C37.9191 33.077 41.5786 34.724 43.805 32.6864C44.2725 32.2648 44.9404 32.158 45.5137 32.4165C46.087 32.6751 46.4543 33.2485 46.4543 33.878V43.7092H53.0053C53.5536 43.7092 53.8986 43.1218 53.6398 42.6328C51.7029 39.0887 54.3912 34.5441 58.432 34.6003C61.4265 34.6003 63.8587 37.0483 63.8587 40.0668C63.8587 40.9942 63.6305 41.8683 63.2242 42.6328C62.9654 43.1218 63.3105 43.7092 63.8587 43.7092H70.4097C71.2892 43.7092 71.9988 42.9925 71.9988 42.11V17.9789C71.9988 17.0936 71.2892 16.377 70.4097 16.377Z" fill="#1D1D1F"/>
</g>
<defs>
<clipPath id="clip0_7367_409">
<rect width="75" height="75" fill="white" transform="translate(0.5)"/>
</clipPath>
</defs>
</svg>
